<?xml version="1.0" encoding="utf-8"?>
<svg version="1.1" id="Layer_1" xmlns="http://www.w3.org/2000/svg" xmlns:xlink="http://www.w3.org/1999/xlink" x="0" y="0" viewBox="0 0 211 210" style="enable-background:new 0 0 211 210;" xml:space="preserve">
  <style type="text/css">
    .st0{fill:none;} .st1{fill-rule:evenodd;clip-rule:evenodd;fill:none;} .st2{fill:#FFFFFF;stroke:#E2E5E7;stroke-width:3;stroke-miterlimit:10;} .st3{fill:#68D1DB;stroke:#7C878E;stroke-miterlimit:10;} .st4{fill-rule:evenodd;clip-rule:evenodd;fill:#7C878E;} .st5{fill:#F39200;stroke:#7B878E;stroke-width:0.5;stroke-miterlimit:10;} .st6{fill-rule:evenodd;clip-rule:evenodd;fill:#3C474E;} .st7{clip-path:url(#SVGID_2_);fill:none;stroke:#7B878E;stroke-width:2;stroke-miterlimit:10;} .st8{fill-rule:evenodd;clip-rule:evenodd;fill:#F39200;} .st9{fill-rule:evenodd;clip-rule:evenodd;fill:#FFFFFF;} .st10{fill:#15A3B2;stroke:#7C878E;stroke-width:0.8;stroke-miterlimit:10;} .st11{fill:#F39200;stroke:#7C878E;stroke-width:0.8;stroke-miterlimit:10;} .st12{fill:none;stroke:#E2E5E7;stroke-width:2;stroke-miterlimit:10;} .st13{clip-path:url(#SVGID_4_);fill:#FFFFFF;stroke:#7C878E;stroke-width:0.25;stroke-miterlimit:10;} .st14{fill-rule:evenodd;clip-rule:evenodd;fill:none;stroke:#7C878E;stroke-width:0.25;stroke-miterlimit:10;}
  </style>
  <path class="st0" d="M-228 -885H1212V496H-228z"/>
  <path class="st1" d="M21,104.1c0,45.2,36.9,82.1,82.2,82.1c45.3,0,82.2-36.9,82.2-82.1c0-45.2-36.9-82.1-82.2-82.1	C57.9,22,21,58.9,21,104.1"/>
  <path class="st2" d="M21,104.1c0,45.2,36.9,82.1,82.2,82.1c45.3,0,82.2-36.9,82.2-82.1c0-45.2-36.9-82.1-82.2-82.1	C57.9,22,21,58.9,21,104.1"/>
  <path class="st0" d="M-228 -885H1212V496H-228z"/>
  <path class="st0" d="M-228 -885H1212V496H-228z"/>
  <path class="st1" d="M128.8,51.1c-10.4,0-18.8,8.5-18.8,19c0,10.5,8.4,19,18.8,19c10.4,0,18.8-8.5,18.8-19	C147.6,59.6,139.2,51.1,128.8,51.1 M113.5,67c0.6-6.3,7.8-12.6,15.3-12.6c9.8,0,15.1,8.3,15.3,12.5c0,0.6-0.6,0.8-1.3,0.7	c-1.8-0.1-3-0.5-3.9-0.8c-2.5-0.8-6.3-2.5-9.9-2.5c-5,0-10.1,2.6-13.1,3.2C115,67.6,113.4,67.7,113.5,67 M113.6,73.7	c0-0.8,1.3-1.9,3.5-1.4c1.6,0.3,3.8,1.7,6,3.9c1.6,1.6,3.1,4.1,3.1,8.1C126.2,89.1,113.4,80.2,113.6,73.7 M124.4,70.5	c0-2.5,2-4.4,4.4-4.4c2.4,0,4.4,2,4.4,4.4s-2,4.4-4.4,4.4C126.4,74.9,124.4,72.9,124.4,70.5 M131.5,84.4c0-3.9,1.5-6.4,3.1-8.1	c2.2-2.2,4.4-3.6,6-4c2.2-0.5,3.4,0.6,3.5,1.4C144.2,80.2,131.5,89.1,131.5,84.4"/>
  <path class="st3" d="M128.8,51.1c-10.4,0-18.8,8.5-18.8,19c0,10.5,8.4,19,18.8,19c10.4,0,18.8-8.5,18.8-19	C147.6,59.6,139.2,51.1,128.8,51.1 M113.5,67c0.6-6.3,7.8-12.6,15.3-12.6c9.8,0,15.1,8.3,15.3,12.5c0,0.6-0.6,0.8-1.3,0.7	c-1.8-0.1-3-0.5-3.9-0.8c-2.5-0.8-6.3-2.5-9.9-2.5c-5,0-10.1,2.6-13.1,3.2C115,67.6,113.4,67.7,113.5,67 M113.6,73.7	c0-0.8,1.3-1.9,3.5-1.4c1.6,0.3,3.8,1.7,6,3.9c1.6,1.6,3.1,4.1,3.1,8.1C126.2,89.1,113.4,80.2,113.6,73.7 M124.4,70.5	c0-2.5,2-4.4,4.4-4.4c2.4,0,4.4,2,4.4,4.4c0,2.5-2,4.4-4.4,4.4C126.4,74.9,124.4,72.9,124.4,70.5 M131.5,84.4c0-3.9,1.5-6.4,3.1-8.1	c2.2-2.2,4.4-3.6,6-4c2.2-0.5,3.4,0.6,3.5,1.4C144.2,80.2,131.5,89.1,131.5,84.4"/>
  <path class="st0" d="M-228 -885H1212V496H-228z"/>
  <path class="st4" d="M97.5,48.3c-10,0-18,8.1-18,18.2s8,18.2,18,18.2c10,0,18-8.1,18-18.2S107.5,48.3,97.5,48.3z M97.5,82	c-8.4,0-15.2-6.9-15.2-15.4s6.8-15.4,15.2-15.4c8.4,0,15.2,6.9,15.2,15.4S105.9,82,97.5,82z"/>
  <path class="st0" d="M-228 -885H1212V496H-228z"/>
  <path class="st1" d="M128.8,67.4c-1.7,0-3,1.4-3,3.1c0,1.7,1.4,3.1,3,3.1c1.7,0,3-1.4,3-3.1S130.5,67.4,128.8,67.4"/>
  <path class="st5" d="M128.8,67.4c-1.7,0-3,1.4-3,3.1c0,1.7,1.4,3.1,3,3.1c1.7,0,3-1.4,3-3.1C131.8,68.8,130.5,67.4,128.8,67.4"/>
  <path class="st0" d="M-228 -885H1212V496H-228z"/>
  <path class="st0" d="M-228 -885H1212V496H-228z"/>
  <path class="st1" d="M97.8,54.3L97.8,54.3c-1.4,0-2.8,0.1-3.9,0.5C92,55.4,92,55.5,94.3,59c1.7,2.5,2.6,3.1,4,2.6	c1.1-0.4,4.5-5.1,4.3-5.9C102.3,54.9,100.1,54.4,97.8,54.3z M88.7,58.4c-1.3,0-3.5,4.9-3.5,8c0,2.1,0.1,2.1,4,0.9	c2.9-0.9,3.7-1.5,3.7-3C92.9,63.1,89.5,58.4,88.7,58.4z M106.3,58.6c-0.5,0.1-1.1,0.9-2.5,2.7c-1.9,2.4-2.1,3.4-1.2,4.6	c0.7,0.9,6.2,2.8,6.8,2.3c1.1-0.8,0-6.1-1.8-8.6C107,58.9,106.7,58.5,106.3,58.6z M97.5,64L97.5,64c-1.4,0-2.6,1.2-2.6,2.6	c0,1.4,1.1,2.6,2.6,2.6c1.4,0,2.6-1.2,2.6-2.6C100.1,65.1,98.9,64,97.5,64z M93.5,70.3c-1.5-0.1-6.4,1.5-6.6,2.3	c-0.4,1.3,3.6,4.9,6.4,5.8c1.9,0.6,2,0.6,2.1-3.6c0.1-3.1-0.3-4-1.7-4.5C93.7,70.3,93.6,70.3,93.5,70.3z M101.4,70.4	c-0.7,0-1.2,0.4-1.6,1c-0.7,0.9-0.7,6.8,0,7.3c1.1,0.8,5.7-1.9,7.5-4.4c1.2-1.7,1.1-1.7-2.7-3.1C103,70.6,102.1,70.4,101.4,70.4z M98.2,87.7c-11.5,0-20.9-9.5-20.9-21.2c0-11.7,9.3-21.2,20.9-21.2c11.5,0,20.9,9.5,20.9,21.2C119.1,78.3,109.7,87.7,98.2,87.7z"/>
  <path class="st0" d="M-228 -885H1212V496H-228z"/>
  <path class="st6" d="M97.5,44c-12.3,0-22.3,10.1-22.3,22.6c0,12.4,10,22.6,22.3,22.6c12.3,0,22.3-10.1,22.3-22.6	C119.8,54.1,109.8,44,97.5,44z M97.5,48.3c10,0,18,8.1,18,18.2s-8,18.2-18,18.2c-10,0-18-8.1-18-18.2S87.5,48.3,97.5,48.3z M97.5,51	c-8.5,0-15.4,7-15.4,15.6c0,8.6,6.9,15.6,15.4,15.6h0c8.5,0,15.4-7,15.4-15.6S106,51,97.5,51z M97.8,54.3c2.3,0,4.5,0.6,4.7,1.4	c0.3,0.8-3.2,5.5-4.3,5.9c-1.4,0.5-2.3-0.1-4-2.6C92,55.5,92,55.4,94,54.8C95.1,54.5,96.5,54.3,97.8,54.3L97.8,54.3z M88.7,58.4	c0.8,0,4.2,4.8,4.2,5.9c0,1.5-0.8,2.1-3.7,3c-3.9,1.2-4,1.1-4-0.9C85.2,63.3,87.4,58.4,88.7,58.4z M106.3,58.6	c0.4-0.1,0.7,0.4,1.2,1.1c1.8,2.5,2.9,7.7,1.8,8.6c-0.7,0.5-6.2-1.3-6.8-2.3c-0.9-1.2-0.6-2.2,1.2-4.6	C105.2,59.5,105.8,58.7,106.3,58.6z M97.5,64c1.4,0,2.6,1.2,2.6,2.6c0,1.4-1.1,2.6-2.6,2.6c-1.4,0-2.6-1.2-2.6-2.6	C94.9,65.1,96.1,64,97.5,64L97.5,64z M93.5,70.3c0.1,0,0.2,0,0.3,0c1.4,0.5,1.8,1.4,1.7,4.5c-0.1,4.1-0.2,4.2-2.1,3.6	c-2.9-0.9-6.8-4.5-6.4-5.8C87.2,71.8,92,70.2,93.5,70.3z M101.4,70.4c0.7,0,1.7,0.2,3.1,0.7c3.8,1.4,3.9,1.5,2.7,3.1	c-1.8,2.5-6.4,5.2-7.5,4.4c-0.7-0.5-0.6-6.4,0-7.3C100.2,70.8,100.6,70.4,101.4,70.4z"/>
  <path class="st0" d="M-228 -885H1212V496H-228z"/>
  <path class="st1" d="M72.7 72L93 66.6 93.2 66.5 93.3 66.8 97.4 82.1 97.5 82.3 97.2 82.4 77 87.8 76.7 87.9 76.7 87.7 72.6 72.3 72.5 72.1z"/>
  <g>
    <defs>
      <path id="SVGID_1_" d="M-228 -885H1212V496H-228z"/>
    </defs>
    <clipPath id="SVGID_2_">
      <use xlink:href="#SVGID_1_" style="overflow:visible;"/>
    </clipPath>
    <path transform="matrix(0.9659 -0.2588 0.2588 0.9659 -17.091 24.6258)" class="st7" d="M74.5 69.3H95.5V85.2H74.5z"/>
  </g>
  <path transform="matrix(0.9659 -0.2588 0.2588 0.9659 -17.091 24.6257)" class="st1" d="M74.5 69.3H95.5V85.2H74.5z"/>
  <path class="st0" d="M-228 -885H1212V496H-228z"/>
  <path class="st8" d="M72.8,73.2l3.8,14.3c0.2,0.6,0.7,0.9,1.3,0.8l18.5-5c0.6-0.2,0.9-0.8,0.7-1.3l-3.8-14.3L72.8,73.2z"/>
  <path class="st0" d="M-228 -885H1212V496H-228z"/>
  <path class="st0" d="M-228 -885H1212V496H-228z"/>
  <path transform="matrix(0.9659 -0.2588 0.2588 0.9659 -15.6237 21.1919)" class="st8" d="M71.6 69.4H73.69999999999999V70.4H71.6z"/>
  <path class="st0" d="M-228 -885H1212V496H-228z"/>
  <path transform="matrix(0.9659 -0.2588 0.2588 0.9659 -13.7 25.8423)" class="st8" d="M90.2 64.4H92.3V65.4H90.2z"/>
  <path class="st9" d="M76.9 74.8L76.2 74.9 76.4 75.7 75.8 75.9 75.6 75.1 74.9 75.3 74.7 74.7 75.4 74.5 75.2 73.7 75.8 73.6 76 74.3 76.7 74.1z"/>
  <path class="st0" d="M-228 -885H1212V496H-228z"/>
  <path class="st9" d="M83.2 85.1L84 78.1 81.2 80.2 83.2 72.7 86.6 71.8 85.4 75.4 88.4 73.9z"/>
  <path class="st0" d="M-228 -885H1212V496H-228z"/>
  <path transform="matrix(0.9659 -0.2588 0.2588 0.9659 -15.0951 26.1702)" class="st9" d="M90.8 70.1H92.89999999999999V70.8H90.8z"/>
  <path class="st0" d="M-228 -885H1212V496H-228z"/>
  <path class="st0" d="M-228 -885H1212V496H-228z"/>
  <path class="st0" d="M-228 -885H1212V496H-228z"/>
  <path class="st0" d="M-228 -885H1212V496H-228z"/>
  <path class="st1" d="M125.9,144.4c5.9,0,10.7,4.8,10.7,10.7c0,5.9-4.8,10.7-10.7,10.7c-5.9,0-10.7-4.8-10.7-10.7	C115.2,149.2,120,144.4,125.9,144.4"/>
  <path class="st0" d="M-228 -885H1212V496H-228z"/>
  <ellipse class="st1" cx="125.9" cy="155.1" rx="10.7" ry="10.7"/>
  <path class="st0" d="M-228 -885H1212V496H-228z"/>
  <path class="st0" d="M-228 -885H1212V496H-228z"/>
  <path class="st1" d="M145.5,82.7c-0.9-1.1-2.1-1.7-3.5-1.7H70.2l-1-6c-0.4-2.2-2.3-3.7-4.5-3.7H53.6c-2.5,0-4.5,2-4.5,4.5	c0,2.5,2,4.5,4.5,4.5h7.3l1,6.1l6.2,36.3l2.5,14.8c0.4,2.2,2.3,3.8,4.5,3.8h55.2c2.5,0,4.5-2,4.5-4.5c0-2.5-2-4.5-4.5-4.5H78.9	l-1-5.7h57.4c2.2,0,4.1-1.6,4.5-3.7l6.6-36.4C146.7,85.1,146.3,83.8,145.5,82.7z M71.8,90.2h17.4v10.1H73.5L71.8,90.2z M89.2,117.4	H76.4l-1.7-10.1h14.6V117.4z M96.2,117.4h13.7v-10.1H96.2V117.4z M96.2,100.3h13.7V90.2H96.2V100.3z M131.6,117.4h-14.8v-10.1h16.6	L131.6,117.4z M134.7,100.3h-17.9V90.2h19.7L134.7,100.3z"/>
  <path class="st10" d="M145.5,82.7c-0.9-1.1-2.1-1.7-3.5-1.7H70.2l-1-6c-0.4-2.2-2.3-3.7-4.5-3.7H53.6c-2.5,0-4.5,2-4.5,4.5	c0,2.5,2,4.5,4.5,4.5h7.3l1,6.1l6.2,36.3l2.5,14.8c0.4,2.2,2.3,3.8,4.5,3.8h55.2c2.5,0,4.5-2,4.5-4.5c0-2.5-2-4.5-4.5-4.5H78.9	l-1-5.7h57.4c2.2,0,4.1-1.6,4.5-3.7l6.6-36.4C146.7,85.1,146.3,83.8,145.5,82.7z M71.8,90.2h17.4v10.1H73.5L71.8,90.2z M89.2,117.4	H76.4l-1.7-10.1h14.6V117.4z M109.9,117.4H96.2v-10.1h13.7V117.4z M109.9,100.3H96.2V90.2h13.7V100.3z M131.6,117.4h-14.8v-10.1	h16.6L131.6,117.4z M134.7,100.3h-17.9V90.2h19.7L134.7,100.3z"/>
  <path class="st0" d="M-228 -885H1212V496H-228z"/>
  <path class="st0" d="M-228 -885H1212V496H-228z"/>
  <path class="st0" d="M-228 -885H1212V496H-228z"/>
  <path class="st0" d="M-228 -885H1212V496H-228z"/>
  <path class="st1" d="M125.9,149.5c3.1,0,5.6,2.5,5.6,5.6c0,3.1-2.5,5.6-5.6,5.6c-3.1,0-5.6-2.5-5.6-5.6	C120.3,152,122.8,149.5,125.9,149.5"/>
  <path class="st0" d="M-228 -885H1212V496H-228z"/>
  <ellipse class="st1" cx="125.9" cy="155.1" rx="5.6" ry="5.6"/>
  <path class="st11" d="M125.9,144.4c-5.9,0-10.7,4.8-10.7,10.7c0,5.9,4.8,10.7,10.7,10.7c5.9,0,10.7-4.8,10.7-10.7	C136.5,149.2,131.8,144.4,125.9,144.4z M125.9,160.7c-3.1,0-5.6-2.5-5.6-5.6c0-3.1,2.5-5.6,5.6-5.6s5.6,2.5,5.6,5.6	C131.5,158.2,129,160.7,125.9,160.7z"/>
  <path class="st12" d="M3,103.9c0,55,44.9,99.9,100,99.9c55.1,0,100-44.9,100-99.9C203,48.9,158.1,4,103,4C47.9,4,3,48.9,3,103.9"/>
  <path class="st0" d="M-228 -885H1212V496H-228z"/>
  <path class="st11" d="M78.9,144.4c-5.9,0-10.7,4.8-10.7,10.7c0,5.9,4.8,10.7,10.7,10.7c5.9,0,10.7-4.8,10.7-10.7	C89.5,149.2,84.8,144.4,78.9,144.4z M78.9,160.7c-3.1,0-5.6-2.5-5.6-5.6c0-3.1,2.5-5.6,5.6-5.6s5.6,2.5,5.6,5.6	C84.5,158.2,82,160.7,78.9,160.7z"/>
  <g>
    <defs>
      <path id="SVGID_3_" d="M-228 -885H1212V496H-228z"/>
    </defs>
    <clipPath id="SVGID_4_">
      <use xlink:href="#SVGID_3_" style="overflow:visible;"/>
    </clipPath>
    <path transform="matrix(0.9659 -0.2588 0.2588 0.9659 -15.0654 23.7006)" class="st13" d="M69.7 68H95.30000000000001V70.2H69.7z"/>
    <use xlink:href="#SVGID_3_" style="overflow:visible;fill:none;stroke:#7C878E;stroke-width:0.25;stroke-miterlimit:10;"/>
  </g>
  <path class="st14" d="M70.5 73.7L95.2 67.1 95.4 67 95.3 66.8 94.8 64.6 94.7 64.4 94.5 64.5 69.8 71.1 69.5 71.1 69.6 71.4 70.2 73.5 70.2 73.7z"/>
</svg>
