<?xml version="1.0" encoding="utf-8"?>
<svg version="1.1" id="Layer_1" xmlns="http://www.w3.org/2000/svg" xmlns:xlink="http://www.w3.org/1999/xlink" x="0" y="0" viewBox="0 0 160 160" style="enable-background:new 0 0 160 160;" xml:space="preserve">
  <style type="text/css">
    .st0{fill:#FFFFFF;} .st1{fill:#3C474E;} .st2{fill:#7C878E;} .st3{fill:#15A3B2;} .st4{fill:#F2BC47;} .st5{fill:#69D2DC;} .st6{fill:#F39200;} .st7{display:none;}
  </style>
  <g>
    <g>
      <path class="st0" d="M97.5,85.8l-10-2.3c-1.1-0.2-1.7-1.3-1.5-2.4l4.5-19.9c0.2-1.1,1.3-1.7,2.4-1.5l10,2.3 c1.1,0.2,1.7,1.3,1.5,2.4l-4.5,19.9C99.7,85.4,98.6,86,97.5,85.8z"/>
    </g>
    <g>
      <path class="st1" d="M98.2,81.3l-9-2.1c-0.5-0.1-0.9-0.7-0.8-1.2l3.4-15.1c0.1-0.5,0.7-0.9,1.2-0.8l9,2.1c0.5,0.1,0.9,0.7,0.8,1.2 l-3.4,15.1C99.2,81,98.7,81.4,98.2,81.3z"/>
    </g>
    <g>
      <path class="st2" d="M99.5,86.5l-13.8-3.2c-0.1,0-0.2-0.2-0.2-0.3l5.4-23.7c0-0.1,0.2-0.2,0.3-0.2l13.8,3.2c0.1,0,0.2,0.2,0.2,0.3 l-3.9,17.2c0,0.1-0.2,0.2-0.3,0.2s-0.2-0.2-0.2-0.3l3.9-17l-13.3-3l-5.3,23.2l13.3,3L101,79c0-0.1,0.2-0.2,0.3-0.2 s0.2,0.2,0.2,0.3l-1.6,7.2C99.8,86.5,99.6,86.6,99.5,86.5z"/>
    </g>
    <g>
      <path class="st2" d="M99.1,81.5L88.2,79c-0.1,0-0.1-0.1-0.1-0.2L92,62c0-0.1,0.1-0.1,0.2-0.1l10.8,2.5c0.1,0,0.1,0.1,0.1,0.2 l-3.4,15c0,0.1-0.1,0.1-0.2,0.1s-0.1-0.1-0.1-0.2l3.4-14.8l-10.5-2.4l-3.8,16.5L99,81.2l0.6-2.5c0-0.1,0.1-0.1,0.2-0.1 s0.1,0.1,0.1,0.2l-0.6,2.7C99.2,81.5,99.2,81.5,99.1,81.5z"/>
    </g>
    <g>
      <path class="st2" d="M92.9,83.6c-0.6-0.1-1-0.8-0.9-1.4s0.8-1,1.4-0.9s1,0.8,0.9,1.4C94.2,83.3,93.5,83.7,92.9,83.6z M93.4,81.6 c-0.5-0.1-0.9,0.2-1,0.7s0.2,0.9,0.7,1s0.9-0.2,1-0.7C94.1,82.1,93.8,81.7,93.4,81.6z"/>
    </g>
    <g>
      <path class="st2" d="M98.4,62.6l-1.2-0.3c-0.1,0-0.1-0.1-0.1-0.2s0.1-0.1,0.2-0.1l1.2,0.3c0.1,0,0.1,0.1,0.1,0.2 C98.5,62.5,98.4,62.6,98.4,62.6z"/>
    </g>
    <g>
      <path class="st2" d="M97.4,83.5l-1.8-0.4c-0.1,0-0.1-0.1-0.1-0.2s0.1-0.1,0.2-0.1l1.8,0.4c0.1,0,0.1,0.1,0.1,0.2 S97.5,83.6,97.4,83.5z"/>
    </g>
    <g>
      <path class="st2" d="M90.5,82l-1.8-0.4c-0.1,0-0.1-0.1-0.1-0.2s0.1-0.1,0.2-0.1l1.8,0.4c0.1,0,0.1,0.1,0.1,0.2 C90.7,81.9,90.6,82,90.5,82z"/>
    </g>
  </g>
  <g>
    <path class="st3" d="M71.3,63.4c-0.9-0.7-2.1-1.1-3.2-1.1c-0.5,0-1,0.1-1.5,0.2c1.5-1.5,1.8-3.3,1.9-3.4c0-0.1,0-0.2-0.1-0.3 s-0.2-0.1-0.3-0.1c-0.1,0-1.9,0.2-2.9,1.3c-0.6,0.7-1,1.2-1.2,1.8c-0.2-0.3-0.3-0.5-0.5-0.7c-1.2-1-2-1.3-2.4-1.4l-0.2-0.1 c-0.2-0.1-0.4,0-0.5,0.2s0,0.4,0.2,0.5l0.2,0.1c0.4,0.1,1.1,0.3,2.2,1.3c0.3,0.2,0.6,0.8,0.7,1.4c-1-0.5-2.2-0.8-3.1-0.9 c-1.5-0.2-3,0.2-4.1,1.2c-2.4,2.2-2.4,7.6,0.2,11.2c0.8,1.1,1.5,1.8,3,2.4c1.2,0.5,2.2,0.2,3-0.1c0.5-0.1,0.9-0.3,1.3-0.3 s0.9,0.2,1.3,0.4c0.5,0.2,1,0.4,1.6,0.4c0.3,0,0.5,0,0.8-0.1c2.1-0.8,2.7-1.4,3.5-2.7C73.5,71.1,73.7,65.3,71.3,63.4z"/>
    <path class="st2" d="M66.9,77.9c-0.7,0-1.3-0.2-1.8-0.4c-0.5-0.2-0.9-0.4-1.1-0.4c-0.2,0-0.4,0.1-0.6,0.1c-0.2,0.1-0.4,0.1-0.6,0.2 c-0.9,0.3-2,0.6-3.3,0.1c-1.6-0.6-2.4-1.4-3.2-2.6c-2.7-3.8-2.8-9.4-0.1-11.9c1.2-1.1,2.8-1.5,4.5-1.3c0.7,0.1,1.4,0.2,2.1,0.5 c0,0-0.1-0.1-0.1-0.1c-1.1-1-1.7-1.2-2-1.2l-0.3-0.1c-0.2-0.1-0.4-0.3-0.5-0.5c-0.1-0.2-0.1-0.4,0-0.6c0.1-0.2,0.3-0.4,0.5-0.4 c0.2-0.1,0.5-0.1,0.7,0l0.2,0.1c0.5,0.1,1.4,0.5,2.5,1.5c0,0,0.1,0.1,0.1,0.1c0.2-0.4,0.5-0.7,0.9-1.1c1.2-1.3,3.3-1.5,3.3-1.5 c0.1,0,0.4,0,0.7,0.2C69,58.7,69,59,69,59.1v0.2l-0.1,0.1c0,0,0,0.1,0,0.1c-0.1,0.4-0.4,1.3-1.1,2.3c1.3-0.1,2.7,0.4,3.8,1.2l0,0 c2.8,2.2,2.3,8.4,0,11.9c-0.9,1.4-1.6,2.1-3.7,2.9C67.5,77.9,67.2,77.9,66.9,77.9z M64,76.1c0.4,0,0.9,0.2,1.5,0.5 c0.4,0.2,0.9,0.3,1.4,0.3c0.3,0,0.4,0,0.6-0.1c2-0.8,2.5-1.3,3.2-2.5C73,71,73.1,65.5,71,63.8c-0.8-0.6-1.9-1-2.9-1 c-0.5,0-0.9,0.1-1.4,0.2l-1.6,0.3l1.2-1.2c1.1-1.1,1.5-2.4,1.7-2.9c-0.5,0.1-1.7,0.4-2.4,1.1C65,61,64.6,61.4,64.5,62l-0.3,0.9 c0,0,0,0.1,0,0.1l0.2,1l-0.9-0.4c-1-0.5-2.2-0.8-2.9-0.9c-1.4-0.2-2.8,0.2-3.7,1.1c-2.3,2.1-2.1,7.2,0.3,10.5 c0.8,1,1.4,1.7,2.8,2.2c1,0.4,1.9,0.2,2.6-0.1c0.3-0.1,0.4-0.1,0.6-0.2C63.4,76.2,63.7,76.1,64,76.1z"/>
  </g>
  <g>
    <path class="st2" d="M67.5,59.6c-0.5,0.1-1.4,0.4-1.9,1c-0.9,1-1.2,1.5-1.3,2.7"/>
  </g>
  <g>
    <path class="st0" d="M56.8,68L56.8,68c-0.2,0-0.4-0.2-0.4-0.4c0-0.9,0.4-1.8,1-2.3c0.5-0.5,1.2-0.7,1.9-0.6c0.2,0,0.4,0.2,0.3,0.4 c0,0.2-0.2,0.4-0.4,0.3c-0.5,0-1,0.1-1.3,0.5c-0.5,0.4-0.7,1-0.8,1.8C57.1,67.8,57,68,56.8,68z"/>
  </g>
  <g>
    <g>
      <path class="st4" d="M93.6,42.8c-3.3,0.9-10,8.1-16.5,19.9c-7.8,14.1-9.7,24.4-7.5,25.5c0.3,0.2,0.7,0.2,1.2,0 c3.3-0.9,10-8.1,16.5-19.9c3.5-6.2,6-12.4,7.4-17.3c1.4-5.3,1-7.7,0.1-8.2C94.4,42.6,94,42.7,93.6,42.8z"/>
      <path class="st2" d="M70.1,88.9c-0.3,0-0.6-0.1-0.8-0.2c-0.4-0.2-0.7-0.6-0.9-1.2c-1-3.2,1.5-12.8,8.2-25 c6.9-12.6,13.6-19.3,16.8-20.1l0,0l0.1,0.5l-0.1-0.5c0.4-0.1,1-0.2,1.5,0c1.4,0.8,1.5,3.9,0.2,8.8c-1.6,5.5-4.2,11.7-7.4,17.4 c-6.9,12.6-13.6,19.3-16.8,20.1C70.7,88.8,70.4,88.9,70.1,88.9z M93.7,43.3c-3.1,0.9-9.7,7.9-16.2,19.7c-6.5,11.8-9,21.2-8.1,24.2 c0.1,0.2,0.2,0.5,0.4,0.6c0.2,0.1,0.5,0.1,0.8,0c3.2-0.9,9.8-7.9,16.2-19.7c3.2-5.7,5.8-11.8,7.4-17.2c1.4-5.4,0.8-7.3,0.3-7.6 C94.4,43.1,94.1,43.2,93.7,43.3z"/>
    </g>
    <g>
      <path class="st2" d="M82,55.3c-0.1,0-0.2,0-0.3-0.1c-0.2-0.2-0.2-0.5-0.1-0.7c3.2-3.8,8.1-2.2,8.1-2.2c0.3,0.1,0.4,0.4,0.3,0.6 c-0.1,0.3-0.4,0.4-0.6,0.3c-0.2-0.1-4.3-1.4-7.1,1.8C82.3,55.2,82.1,55.3,82,55.3z"/>
    </g>
    <g>
      <path class="st2" d="M76.7,63.8c-0.1,0-0.2,0-0.3-0.1c-0.2-0.2-0.2-0.5-0.1-0.7c3.2-3.8,8.1-2.2,8.1-2.2c0.3,0.1,0.4,0.4,0.3,0.6 c-0.1,0.3-0.4,0.4-0.6,0.3c-0.2-0.1-4.3-1.4-7.1,1.8C77,63.7,76.8,63.8,76.7,63.8z"/>
    </g>
    <g>
      <path class="st2" d="M73.2,71.1c-0.1,0-0.2,0-0.3-0.1c-0.2-0.2-0.2-0.5-0.1-0.7c3.2-3.8,8.1-2.2,8.1-2.2c0.3,0.1,0.4,0.4,0.3,0.6 c-0.1,0.3-0.4,0.4-0.6,0.3c-0.2-0.1-4.3-1.4-7.1,1.8C73.5,71,73.3,71.1,73.2,71.1z"/>
    </g>
  </g>
  <g>
    <path class="st5" d="M56.1 73.9L56.1 121.9 92.9 121.9 92.9 121.9 103.6 121.9 103.6 100 103.6 99.9 103.6 73.9z"/>
    <path class="st2" d="M104.1,122.4H55.6v-49h48.5V122.4z M56.6,121.4h46.5v-47H56.6V121.4z"/>
  </g>
  <g>
    <g>
      <path class="st0" d="M89.9,113.7c0,7.6,6.2,13.8,13.8,13.8c7.6,0,13.8-6.2,13.8-13.8s-6.2-13.8-13.8-13.8 C96.1,99.9,89.9,106.1,89.9,113.7z"/>
      <path class="st2" d="M103.7,128c-7.9,0-14.3-6.4-14.3-14.3s6.4-14.3,14.3-14.3s14.3,6.4,14.3,14.3S111.6,128,103.7,128z M103.7,100.4c-7.3,0-13.3,6-13.3,13.3s6,13.3,13.3,13.3s13.3-6,13.3-13.3S111,100.4,103.7,100.4z"/>
    </g>
    <g>
      <path class="st5" d="M102.9,113.7h-6.4c-0.6,0-1-0.5-1-1v-6.5c0-0.6,0.4-1,1-1h6.4c0.5,0,1,0.4,1,1v6.5 C103.9,113.3,103.5,113.7,102.9,113.7z"/>
    </g>
    <g>
      <path class="st4" d="M111.3,113.7h-6.4c-0.6,0-1-0.5-1-1v-6.5c0-0.6,0.4-1,1-1h6.4c0.6,0,1,0.4,1,1v6.5 C112.3,113.3,111.8,113.7,111.3,113.7z"/>
    </g>
    <g>
      <path class="st3" d="M102.9,121.5h-6.4c-0.6,0-1-0.4-1-1V114c0-0.5,0.4-1,1-1h6.4c0.5,0,1,0.5,1,1v6.5 C103.9,121.1,103.5,121.5,102.9,121.5z"/>
    </g>
    <g>
      <path class="st6" d="M111.3,121.5h-6.4c-0.6,0-1-0.4-1-1V114c0-0.5,0.4-1,1-1h6.4c0.6,0,1,0.5,1,1v6.5 C112.3,121.1,111.8,121.5,111.3,121.5z"/>
    </g>
    <g>
      <path class="st2" d="M104.2,115.9L104.2,115.9L104.2,115.9L104.2,115.9z"/>
    </g>
    <g>
      <path class="st0" d="M97.8,109.8h1.3v1.3c0,0.3,0.2,0.5,0.5,0.5s0.5-0.2,0.5-0.5v-1.3h1.3c0.3,0,0.5-0.2,0.5-0.5s-0.2-0.5-0.5-0.5 h-1.3v-1.3c0-0.3-0.2-0.5-0.5-0.5s-0.5,0.2-0.5,0.5v1.3h-1.3c-0.3,0-0.5,0.2-0.5,0.5S97.5,109.8,97.8,109.8z"/>
    </g>
    <g>
      <path class="st0" d="M106.4,109.8h3.6c0.3,0,0.5-0.2,0.5-0.5s-0.2-0.5-0.5-0.5h-3.6c-0.3,0-0.5,0.2-0.5,0.5 S106.2,109.8,106.4,109.8z"/>
    </g>
    <g>
      <path class="st0" d="M100.3,117.8l0.9-0.9c0.2-0.2,0.2-0.5,0-0.7s-0.5-0.2-0.7,0l-0.9,0.9l-0.9-0.9c-0.2-0.2-0.5-0.2-0.7,0 s-0.2,0.5,0,0.7l0.9,0.9l-0.9,0.9c-0.2,0.2-0.2,0.5,0,0.7c0.1,0.1,0.2,0.1,0.4,0.1c0.1,0,0.3,0,0.4-0.1l0.9-0.9l0.9,0.9 c0.1,0.1,0.2,0.1,0.4,0.1s0.3,0,0.4-0.1c0.2-0.2,0.2-0.5,0-0.7L100.3,117.8z"/>
    </g>
    <g>
      <path class="st0" d="M110,116.4h-3.6c-0.3,0-0.5,0.2-0.5,0.5s0.2,0.5,0.5,0.5h3.6c0.3,0,0.5-0.2,0.5-0.5S110.3,116.4,110,116.4z"/>
    </g>
    <g>
      <path class="st0" d="M110,118.2h-3.6c-0.3,0-0.5,0.2-0.5,0.5s0.2,0.5,0.5,0.5h3.6c0.3,0,0.5-0.2,0.5-0.5 C110.5,118.5,110.3,118.2,110,118.2z"/>
    </g>
    <g>
      <path class="st2" d="M103.4 105H104.4V121.5H103.4z"/>
    </g>
    <g>
      <path class="st2" d="M95.2 112.8H112.7V113.8H95.2z"/>
    </g>
    <g>
      <path class="st2" d="M110.5,122H97.2c-1.4,0-2.5-1.1-2.5-2.5V107c0-1.4,1.1-2.5,2.5-2.5h13.3c1.4,0,2.5,1.1,2.5,2.5v12.6 C113,120.9,111.9,122,110.5,122z M97.2,105.5c-0.8,0-1.5,0.7-1.5,1.5v12.5c0,0.8,0.7,1.5,1.5,1.5h13.3c0.8,0,1.5-0.7,1.5-1.4V107 c0-0.8-0.7-1.5-1.5-1.5H97.2z"/>
    </g>
  </g>
  <g>
    <circle class="st0" cx="95.5" cy="79.5" r="2.4"/>
    <path class="st2" d="M95.5,82.2c-1.5,0-2.7-1.2-2.7-2.7c0-1.5,1.2-2.6,2.7-2.6s2.7,1.2,2.7,2.6C98.2,81,97,82.2,95.5,82.2z M95.5,77.4c-1.2,0-2.2,1-2.2,2.1s1,2.2,2.2,2.2s2.2-1,2.2-2.2S96.7,77.4,95.5,77.4z"/>
  </g>
  <g>
    <circle class="st0" cx="64.6" cy="79.5" r="2.4"/>
    <path class="st2" d="M64.6,82.2c-1.5,0-2.6-1.2-2.6-2.7c0-1.5,1.2-2.6,2.6-2.6s2.6,1.2,2.6,2.6C67.2,81,66.1,82.2,64.6,82.2z M64.6,77.4c-1.2,0-2.1,1-2.1,2.1s1,2.2,2.1,2.2s2.1-1,2.1-2.2S65.8,77.4,64.6,77.4z"/>
  </g>
  <g>
    <path class="st2" d="M80.1,55.6c-9,0-16.2,8.7-16.2,19.4c0,1.6,0.2,3.3,0.5,4.9c0.1,0.2,0.3,0.4,0.5,0.4h0.2v-2l0,0 c-0.2-1.1-0.3-2.2-0.3-3.3c0-10.1,6.8-18.4,15.2-18.4S95.4,64.9,95.4,75c0,1.3-0.1,2.6-0.4,3.9v1.4h0.3c0.2,0,0.4-0.2,0.5-0.4 c0.4-1.6,0.5-3.3,0.5-4.9C96.4,64.3,89.1,55.6,80.1,55.6z"/>
  </g>
  <g>
    <circle class="st2" cx="64.7" cy="79.3" r="1.2"/>
  </g>
  <g>
    <circle class="st2" cx="95.5" cy="79.3" r="1.2"/>
  </g>
  <g>
    <g>
      <path class="st0" d="M50.9,86.9h17.3v4.4c0,0.2,0.1,0.4,0.2,0.6l4.7,7v28.5H46V98.7l4.7-6.9c0.1-0.2,0.2-0.4,0.2-0.6L50.9,86.9 L50.9,86.9z"/>
      <path class="st2" d="M73.6,127.9H45.5V98.5l4.8-7c0-0.1,0.1-0.2,0.1-0.3v-4.8h18.3v4.9c0,0.1,0.1,0.2,0.1,0.4l4.8,7.1V127.9z M46.5,126.9h26.1V99.1L68,92.2c-0.1-0.3-0.3-0.6-0.3-0.9v-3.9H51.4v3.8c0,0.3-0.1,0.6-0.2,0.8l-4.7,6.8V126.9z"/>
    </g>
    <g>
      <path class="st2" d="M50.5 91.2H68.1V92.2H50.5z"/>
    </g>
    <g>
      <path transform="matrix(3.739242e-03 -1 1 3.739242e-03 -40.3218 158.8269)" class="st2" d="M59.1 86.2H60.1V113.1H59.1z"/>
    </g>
    <g>
      <path transform="matrix(0.8304 -0.5572 0.5572 0.8304 -44.1265 46.3378)" class="st2" d="M53.6 90.9H54.6V100.4H53.6z"/>
    </g>
    <g>
      <path class="st2" d="M56.2 99.6H57.2V127.8H56.2z"/>
    </g>
  </g>
  <g id="Layer_24"/>
  <g id="Background_Farm"/>
  <g id="Layer_35"/>
  <g id="City"/>
  <g id="Layer_48"/>
  <g id="Layer_44"/>
  <g id="Layer_38"/>
  <g id="Layer_39"/>
  <g id="Layer_40"/>
  <g id="Layer_41"/>
  <g id="Layer_42"/>
  <g id="Layer_43"/>
  <g id="Layer_36"/>
  <g id="Layer_37"/>
  <g id="Bales_of_Hay" class="st7"/>
  <g id="Layer_3"/>
  <g id="Helicopter"/>
  <g id="Layer_7"/>
  <g id="Big_Truck" class="st7"/>
  <g id="Layer_6"/>
  <g id="Big_Truck_1_"/>
  <g id="Tractor"/>
  <g id="Layer_4" class="st7"/>
  <g id="Layer_11"/>
  <g id="Tractor_with_plough"/>
  <g id="Layer_20"/>
  <g id="Cement_Truck"/>
  <g id="DumpTruck"/>
  <g id="Car"/>
  <g id="Delivery_Van"/>
  <g id="Little_Truck"/>
  <g id="Sign_Post"/>
  <g id="Sun"/>
  <g id="Clouds"/>
  <g id="Wrench"/>
  <g id="Full_Maintenance_Lease"/>
  <g id="Operating_Lease"/>
  <g id="Managed_Maintenance"/>
  <g id="Layer_30"/>
  <g id="Layer_29"/>
  <g id="Sale_and_Lease_Back"/>
  <g id="Layer_31"/>
  <g id="Support"/>
  <g id="Layer_33"/>
  <g id="Layer_46"/>
  <g id="Layer_47"/>
  <g id="Layer_49"/>
  <g id="Layer_50"/>
  <g id="Layer_51"/>
  <g id="People"/>
  <g id="Layer_58">
    <g id="Layer_57"/>
  </g>
  <g id="Tie"/>
  <g id="Layer_53"/>
  <g id="shoes"/>
  <g id="Layer_56"/>
  <g id="Layer_59"/>
  <g id="affordability">
    <g>
      <g>
        <defs>
          <path id="SVGID_1_" d="M-690.7,179c41.3,0,74.9-33.6,74.9-74.7c0-41.2-33.7-74.7-74.9-74.7c-41.3,0-74.9,33.6-74.9,74.7 C-765.7,145.4-732,179-690.7,179z"/>
        </defs>
        <clipPath id="SVGID_2_">
          <use xlink:href="#SVGID_1_" style="overflow:visible;"/>
        </clipPath>
      </g>
    </g>
  </g>
  <g id="cash"/>
  <g id="Layer_64"/>
  <g id="Layer_61"/>
  <g id="Layer_63"/>
  <g id="Layer_62"/>
  <g id="Personal_Loan"/>
  <g id="Leisure"/>
  <g id="Calculator">
    <g>
      <g>
        <g>
          <defs>
            <path id="SVGID_3_" d="M-660.7,136.6c0,12.4,10.1,22.5,22.5,22.5s22.5-10.1,22.5-22.5s-10.1-22.5-22.5-22.5 C-650.6,114.1-660.7,124.2-660.7,136.6"/>
          </defs>
          <clipPath id="SVGID_4_">
            <use xlink:href="#SVGID_3_" style="overflow:visible;"/>
          </clipPath>
        </g>
      </g>
      <g>
        <g>
          <defs>
            <path id="SVGID_5_" d="M-639.5,136.7h-10.4c-0.9,0-1.6-0.7-1.6-1.6v-10.6c0-0.9,0.7-1.6,1.6-1.6h10.4c0.9,0,1.6,0.7,1.6,1.6 v10.6C-637.8,135.9-638.6,136.7-639.5,136.7"/>
          </defs>
          <clipPath id="SVGID_6_">
            <use xlink:href="#SVGID_5_" style="overflow:visible;"/>
          </clipPath>
        </g>
      </g>
      <g>
        <g>
          <defs>
            <path id="SVGID_7_" d="M-625.8,136.7h-10.4c-0.9,0-1.6-0.7-1.6-1.6v-10.6c0-0.9,0.7-1.6,1.6-1.6h10.4c0.9,0,1.6,0.7,1.6,1.6 v10.6C-624.2,135.9-624.9,136.7-625.8,136.7"/>
          </defs>
          <clipPath id="SVGID_8_">
            <use xlink:href="#SVGID_7_" style="overflow:visible;"/>
          </clipPath>
        </g>
      </g>
      <g>
        <g>
          <defs>
            <path id="SVGID_9_" d="M-639.5,149.4h-10.4c-0.9,0-1.6-0.7-1.6-1.6v-10.6c0-0.9,0.7-1.6,1.6-1.6h10.4c0.9,0,1.6,0.7,1.6,1.6 v10.6C-637.8,148.7-638.6,149.4-639.5,149.4"/>
          </defs>
          <clipPath id="SVGID_10_">
            <use xlink:href="#SVGID_9_" style="overflow:visible;"/>
          </clipPath>
        </g>
      </g>
      <g>
        <g>
          <defs>
            <path id="SVGID_11_" d="M-625.8,149.4h-10.4c-0.9,0-1.6-0.7-1.6-1.6v-10.6c0-0.9,0.7-1.6,1.6-1.6h10.4c0.9,0,1.6,0.7,1.6,1.6 v10.6C-624.2,148.7-624.9,149.4-625.8,149.4"/>
          </defs>
          <clipPath id="SVGID_12_">
            <use xlink:href="#SVGID_11_" style="overflow:visible;"/>
          </clipPath>
        </g>
      </g>
      <g>
        <g>
          <defs>
            <path id="SVGID_13_" d="M-637.4,140.2C-637.4,140.2-637.4,140.1-637.4,140.2L-637.4,140.2L-637.4,140.2"/>
          </defs>
          <clipPath id="SVGID_14_">
            <use xlink:href="#SVGID_13_" style="overflow:visible;"/>
          </clipPath>
        </g>
      </g>
      <g>
        <g>
          <defs>
            <path id="SVGID_15_" d="M-647.9,130.3h2.1v2.1c0,0.5,0.4,0.8,0.8,0.8c0.5,0,0.8-0.4,0.8-0.8v-2.1h2.1c0.5,0,0.8-0.4,0.8-0.8 c0-0.5-0.4-0.8-0.8-0.8h-2.1v-2.1c0-0.5-0.4-0.8-0.8-0.8c-0.5,0-0.8,0.4-0.8,0.8v2.1h-2.1c-0.5,0-0.8,0.4-0.8,0.8 C-648.7,130-648.3,130.3-647.9,130.3"/>
          </defs>
          <clipPath id="SVGID_16_">
            <use xlink:href="#SVGID_15_" style="overflow:visible;"/>
          </clipPath>
        </g>
      </g>
      <g>
        <g>
          <defs>
            <path id="SVGID_17_" d="M-633.7,130.3h5.9c0.5,0,0.8-0.4,0.8-0.8c0-0.5-0.4-0.8-0.8-0.8h-5.9c-0.5,0-0.8,0.4-0.8,0.8 C-634.5,130-634.2,130.3-633.7,130.3"/>
          </defs>
          <clipPath id="SVGID_18_">
            <use xlink:href="#SVGID_17_" style="overflow:visible;"/>
          </clipPath>
        </g>
      </g>
      <g>
        <g>
          <defs>
            <path id="SVGID_19_" d="M-643.8,143.3l1.5-1.5c0.3-0.3,0.3-0.8,0-1.2c-0.3-0.3-0.8-0.3-1.2,0l-1.5,1.5l-1.5-1.5 c-0.3-0.3-0.8-0.3-1.2,0c-0.3,0.3-0.3,0.8,0,1.2l1.5,1.5l-1.5,1.5c-0.3,0.3-0.3,0.8,0,1.2c0.2,0.2,0.4,0.2,0.6,0.2 c0.2,0,0.4-0.1,0.6-0.2l1.5-1.5l1.5,1.5c0.2,0.2,0.4,0.2,0.6,0.2c0.2,0,0.4-0.1,0.6-0.2c0.3-0.3,0.3-0.8,0-1.2L-643.8,143.3z"/>
          </defs>
          <clipPath id="SVGID_20_">
            <use xlink:href="#SVGID_19_" style="overflow:visible;"/>
          </clipPath>
        </g>
      </g>
      <g>
        <g>
          <defs>
            <path id="SVGID_21_" d="M-627.9,141h-5.9c-0.5,0-0.8,0.4-0.8,0.8c0,0.5,0.4,0.8,0.8,0.8h5.9c0.5,0,0.8-0.4,0.8-0.8 C-627,141.3-627.4,141-627.9,141"/>
          </defs>
          <clipPath id="SVGID_22_">
            <use xlink:href="#SVGID_21_" style="overflow:visible;"/>
          </clipPath>
        </g>
      </g>
      <g>
        <g>
          <defs>
            <path id="SVGID_23_" d="M-627.9,144h-5.9c-0.5,0-0.8,0.4-0.8,0.8c0,0.5,0.4,0.8,0.8,0.8h5.9c0.5,0,0.8-0.4,0.8-0.8 C-627,144.4-627.4,144-627.9,144"/>
          </defs>
          <clipPath id="SVGID_24_">
            <use xlink:href="#SVGID_23_" style="overflow:visible;"/>
          </clipPath>
        </g>
      </g>
    </g>
  </g>
</svg>
