<?xml version="1.0" encoding="UTF-8" standalone="no"?>
<svg
   xmlns:dc="http://purl.org/dc/elements/1.1/"
   xmlns:cc="http://creativecommons.org/ns#"
   xmlns:rdf="http://www.w3.org/1999/02/22-rdf-syntax-ns#"
   xmlns:svg="http://www.w3.org/2000/svg"
   xmlns="http://www.w3.org/2000/svg"
   xmlns:xlink="http://www.w3.org/1999/xlink"
   xmlns:sodipodi="http://sodipodi.sourceforge.net/DTD/sodipodi-0.dtd"
   xmlns:inkscape="http://www.inkscape.org/namespaces/inkscape"
   version="1.1"
   id="Layer_1"
   x="0"
   y="0"
   viewBox="0 0 71.761909 50.574097"
   xml:space="preserve"
   inkscape:version="0.91 r13725"
   sodipodi:docname="cta_calculators_purchasePrice.svg"
   width="71.761909"
   height="50.574097"><metadata
   id="metadata3743"><rdf:RDF><cc:Work
       rdf:about=""><dc:format>image/svg+xml</dc:format><dc:type
         rdf:resource="http://purl.org/dc/dcmitype/StillImage" /><dc:title></dc:title></cc:Work></rdf:RDF></metadata><defs
   id="defs3741" /><sodipodi:namedview
   pagecolor="#ffffff"
   bordercolor="#666666"
   borderopacity="1"
   objecttolerance="10"
   gridtolerance="10"
   guidetolerance="10"
   inkscape:pageopacity="0"
   inkscape:pageshadow="2"
   inkscape:window-width="1366"
   inkscape:window-height="705"
   id="namedview3739"
   showgrid="false"
   fit-margin-top="0"
   fit-margin-left="0"
   fit-margin-right="0"
   fit-margin-bottom="0"
   inkscape:zoom="3.3125"
   inkscape:cx="33.761912"
   inkscape:cy="48.000001"
   inkscape:window-x="-8"
   inkscape:window-y="-8"
   inkscape:window-maximized="1"
   inkscape:current-layer="Layer_1" />
  <style
   type="text/css"
   id="style3337">
    .st0{display:none;} .st1{fill:#69D2DC;} .st2{fill:#7C878E;} .st3{fill:#F39200;} .st4{fill:#FFFFFF;} .st5{fill:#F2BC47;} .st6{fill:#15A3B2;}
  </style>
  <g
   id="Mountains"
   transform="translate(-46.238088,-77.425903)" />
  <g
   id="Layer_24"
   transform="translate(-46.238088,-77.425903)" />
  <g
   id="Background_Farm"
   transform="translate(-46.238088,-77.425903)" />
  <g
   id="Layer_35"
   transform="translate(-46.238088,-77.425903)" />
  <g
   id="City"
   transform="translate(-46.238088,-77.425903)" />
  <g
   id="Layer_48"
   transform="translate(-46.238088,-77.425903)" />
  <g
   id="Layer_44"
   transform="translate(-46.238088,-77.425903)" />
  <g
   id="Layer_38"
   transform="translate(-46.238088,-77.425903)" />
  <g
   id="Layer_39"
   transform="translate(-46.238088,-77.425903)" />
  <g
   id="Layer_40"
   transform="translate(-46.238088,-77.425903)" />
  <g
   id="Layer_41"
   transform="translate(-46.238088,-77.425903)" />
  <g
   id="Layer_42"
   transform="translate(-46.238088,-77.425903)" />
  <g
   id="Layer_43"
   transform="translate(-46.238088,-77.425903)" />
  <g
   id="Layer_36"
   transform="translate(-46.238088,-77.425903)" />
  <g
   id="Layer_37"
   transform="translate(-46.238088,-77.425903)" />
  <g
   id="Bales_of_Hay"
   class="st0"
   style="display:none"
   transform="translate(-46.238088,-77.425903)" />
  <g
   id="Layer_3"
   transform="translate(-46.238088,-77.425903)" />
  <g
   id="Helicopter"
   transform="translate(-46.238088,-77.425903)" />
  <g
   id="Layer_7"
   transform="translate(-46.238088,-77.425903)" />
  <g
   id="Big_Truck"
   class="st0"
   style="display:none"
   transform="translate(-46.238088,-77.425903)" />
  <g
   id="Layer_6"
   transform="translate(-46.238088,-77.425903)" />
  <g
   id="Big_Truck_1_"
   transform="translate(-46.238088,-77.425903)" />
  <g
   id="Tractor"
   transform="translate(-46.238088,-77.425903)" />
  <g
   id="Layer_4"
   class="st0"
   style="display:none"
   transform="translate(-46.238088,-77.425903)" />
  <g
   id="Layer_11"
   transform="translate(-46.238088,-77.425903)" />
  <g
   id="Tractor_with_plough"
   transform="translate(-46.238088,-77.425903)" />
  <g
   id="Layer_20"
   transform="translate(-46.238088,-77.425903)" />
  <g
   id="Cement_Truck"
   transform="translate(-46.238088,-77.425903)" />
  <g
   id="DumpTruck"
   transform="translate(-46.238088,-77.425903)" />
  <g
   id="Car"
   transform="translate(-46.238088,-77.425903)" />
  <g
   id="Delivery_Van"
   transform="translate(-46.238088,-77.425903)" />
  <g
   id="Little_Truck"
   transform="translate(-46.238088,-77.425903)" />
  <g
   id="Sign_Post"
   transform="translate(-46.238088,-77.425903)" />
  <g
   id="Sun"
   transform="translate(-46.238088,-77.425903)" />
  <g
   id="Clouds"
   transform="translate(-46.238088,-77.425903)" />
  <g
   id="Wrench"
   transform="translate(-46.238088,-77.425903)" />
  <g
   id="Full_Maintenance_Lease"
   transform="translate(-46.238088,-77.425903)" />
  <g
   id="Operating_Lease"
   transform="translate(-46.238088,-77.425903)" />
  <g
   id="Managed_Maintenance"
   transform="translate(-46.238088,-77.425903)" />
  <g
   id="Layer_30"
   transform="translate(-46.238088,-77.425903)" />
  <g
   id="Layer_29"
   transform="translate(-46.238088,-77.425903)" />
  <g
   id="Sale_and_Lease_Back"
   transform="translate(-46.238088,-77.425903)" />
  <g
   id="Layer_31"
   transform="translate(-46.238088,-77.425903)" />
  <g
   id="Support"
   transform="translate(-46.238088,-77.425903)" />
  <g
   id="g3383"
   transform="matrix(0.99165663,0,0,0.98820245,-45.253571,-75.915816)">
    <path
   class="st1"
   d="m 47.2,105.6 c 0,0 8.8,2.2 11.9,1.7 3.1,-0.5 10.4,-4.6 15.6,-8.4 5.2,-3.8 17.4,-4 19.8,-3.2 2.4,0.8 18.9,13.6 18.9,13.6 0,0 -13.4,-5.6 -22.9,0.8 -9.5,6.4 -17,11.7 -21.1,12.3 -3.9,0.6 -6.9,-1.1 -6.9,-1.1 L 47.2,105.6 Z"
   id="path3385"
   inkscape:connector-curvature="0"
   style="fill:#69d2dc" />
    <path
   class="st2"
   d="m 67.7,123 c -3.1,0 -5.3,-1.2 -5.4,-1.3 0,0 -0.1,-0.1 -0.1,-0.1 L 46.9,105.9 c -0.2,-0.2 -0.2,-0.4 -0.1,-0.6 0.1,-0.2 0.3,-0.3 0.6,-0.2 0.1,0 8.7,2.2 11.7,1.7 3.1,-0.5 10.4,-4.7 15.4,-8.3 5.4,-3.9 17.7,-4.1 20.3,-3.3 2.5,0.8 18.4,13.2 19,13.7 0.2,0.2 0.3,0.4 0.1,0.6 -0.1,0.2 -0.4,0.3 -0.6,0.2 -0.1,-0.1 -13.3,-5.4 -22.4,0.8 l -2.7,1.8 c -8.3,5.6 -14.8,10 -18.7,10.6 -0.6,0.1 -1.2,0.1 -1.8,0.1 z m -4.9,-2.1 c 0.4,0.2 3.1,1.5 6.5,1 3.6,-0.5 10.1,-4.9 18.2,-10.4 l 2.7,-1.8 c 7,-4.7 16,-3.1 20.5,-1.8 C 105.2,103.7 96,96.8 94.3,96.2 92.1,95.5 80.1,95.6 75,99.3 c -5,3.7 -12.5,8 -15.8,8.5 -2.4,0.4 -7.7,-0.7 -10.4,-1.3 l 14,14.4 z"
   id="path3387"
   inkscape:connector-curvature="0"
   style="fill:#7c878e" />
  </g>
  <g
   id="g3389"
   transform="matrix(0.99165663,0,0,0.98820245,-45.253571,-75.915816)">
    <path
   class="st1"
   d="m 46.2,99.4 c 0,0 8.8,2.2 11.9,1.7 3.1,-0.5 10.4,-4.6 15.6,-8.4 5.2,-3.8 17.4,-4 19.8,-3.2 2.4,0.8 18.9,13.6 18.9,13.6 0,0 -13.4,-5.6 -22.9,0.8 -9.5,6.4 -17,11.7 -21.1,12.3 -3.9,0.6 -6.9,-1.1 -6.9,-1.1 L 46.2,99.4 Z"
   id="path3391"
   inkscape:connector-curvature="0"
   style="fill:#69d2dc" />
    <path
   class="st2"
   d="m 66.7,116.8 c -3.1,0 -5.3,-1.2 -5.4,-1.3 0,0 -0.1,-0.1 -0.1,-0.1 L 45.8,99.7 c -0.2,-0.2 -0.2,-0.4 -0.1,-0.6 0.1,-0.2 0.3,-0.3 0.6,-0.2 0.1,0 8.7,2.2 11.7,1.7 3.1,-0.5 10.4,-4.7 15.4,-8.3 5.4,-3.9 17.7,-4.1 20.3,-3.3 2.5,0.8 18.4,13.2 19,13.7 0.2,0.2 0.3,0.4 0.1,0.6 -0.1,0.2 -0.4,0.3 -0.6,0.2 -0.1,-0.1 -13.3,-5.4 -22.4,0.8 l -2.7,1.8 c -8.3,5.6 -14.8,10 -18.6,10.6 -0.6,0.1 -1.2,0.1 -1.8,0.1 z m -4.9,-2.1 c 0.4,0.2 3.1,1.5 6.5,1 3.6,-0.5 10.1,-4.9 18.2,-10.4 l 2.7,-1.8 c 7,-4.7 16,-3.1 20.5,-1.8 C 104.2,97.5 95,90.5 93.3,90 91.1,89.3 79.1,89.4 74,93.1 c -5,3.7 -12.5,8 -15.8,8.5 -2.4,0.4 -7.7,-0.7 -10.4,-1.3 l 14,14.4 z"
   id="path3393"
   inkscape:connector-curvature="0"
   style="fill:#7c878e" />
  </g>
  <g
   id="g3395"
   transform="matrix(0.99165663,0,0,0.98820245,-45.253571,-75.915816)">
    <path
   class="st1"
   d="m 47.2,94.1 c 0,0 8.8,2.2 11.9,1.7 3.1,-0.5 10.4,-4.6 15.6,-8.4 5.2,-3.8 17.4,-4 19.8,-3.2 2.4,0.8 18.9,13.6 18.9,13.6 0,0 -13.4,-5.6 -22.9,0.8 -9.5,6.4 -17,11.7 -21.1,12.3 -3.9,0.6 -6.9,-1.1 -6.9,-1.1 L 47.2,94.1 Z"
   id="path3397"
   inkscape:connector-curvature="0"
   style="fill:#69d2dc" />
    <path
   class="st2"
   d="m 67.7,111.5 c -3.1,0 -5.3,-1.2 -5.4,-1.3 0,0 -0.1,-0.1 -0.1,-0.1 L 46.8,94.4 c -0.2,-0.2 -0.2,-0.4 -0.1,-0.6 0.1,-0.2 0.3,-0.3 0.6,-0.2 0.1,0 8.7,2.2 11.7,1.7 3.1,-0.5 10.4,-4.7 15.4,-8.3 5.4,-3.9 17.7,-4.1 20.3,-3.3 2.5,0.8 18.4,13.2 19,13.7 0.2,0.2 0.3,0.4 0.1,0.6 -0.1,0.2 -0.4,0.3 -0.6,0.2 -0.1,-0.1 -13.3,-5.4 -22.4,0.8 l -2.7,1.8 c -8.3,5.6 -14.8,10 -18.7,10.6 -0.5,0.1 -1.1,0.1 -1.7,0.1 z m -4.9,-2.1 c 0.4,0.2 3.1,1.5 6.5,1 3.6,-0.5 10.1,-4.9 18.2,-10.4 l 2.7,-1.8 c 7,-4.7 16,-3.1 20.5,-1.8 C 105.2,92.2 96,85.3 94.3,84.7 92.2,84 80.2,84 75,87.8 70,91.5 62.5,95.8 59.2,96.3 56.8,96.7 51.5,95.6 48.8,95 l 14,14.4 z"
   id="path3399"
   inkscape:connector-curvature="0"
   style="fill:#7c878e" />
  </g>
  <g
   id="g3401"
   transform="matrix(0.99165663,0,0,0.98820245,-45.253571,-75.915816)">
    <path
   class="st1"
   d="m 47.2,87.6 c 0,0 8.8,2.2 11.9,1.7 3.1,-0.5 10.4,-4.6 15.6,-8.4 5.2,-3.8 17.4,-4 19.8,-3.2 2.4,0.8 18.9,13.6 18.9,13.6 0,0 -13.4,-5.6 -22.9,0.8 -9.5,6.4 -17,11.7 -21.1,12.3 -3.9,0.6 -6.9,-1.1 -6.9,-1.1 L 47.2,87.6 Z"
   id="path3403"
   inkscape:connector-curvature="0"
   style="fill:#69d2dc" />
    <path
   class="st2"
   d="m 67.7,105 c -3.1,0 -5.3,-1.2 -5.4,-1.3 0,0 -0.1,-0.1 -0.1,-0.1 L 46.8,87.9 c -0.2,-0.2 -0.2,-0.4 -0.1,-0.6 0.1,-0.2 0.3,-0.3 0.6,-0.2 0.1,0 8.7,2.2 11.7,1.7 3.1,-0.5 10.4,-4.7 15.4,-8.3 5.4,-3.9 17.7,-4.1 20.3,-3.3 2.5,0.8 18.4,13.2 19,13.7 0.2,0.2 0.3,0.4 0.1,0.6 -0.1,0.2 -0.4,0.3 -0.6,0.2 -0.1,-0.1 -13.3,-5.4 -22.4,0.8 l -2.7,1.8 c -8.3,5.6 -14.8,10 -18.7,10.6 -0.5,0.1 -1.1,0.1 -1.7,0.1 z m -4.9,-2.1 c 0.4,0.2 3.1,1.5 6.5,1 3.6,-0.5 10.1,-4.9 18.2,-10.4 l 2.7,-1.8 c 7,-4.7 16,-3.1 20.5,-1.8 C 105.2,85.7 96,78.8 94.3,78.2 92.1,77.5 80.1,77.6 75,81.3 70,85 62.5,89.3 59.2,89.8 56.8,90.2 51.5,89.1 48.8,88.5 l 14,14.4 z"
   id="path3405"
   inkscape:connector-curvature="0"
   style="fill:#7c878e" />
  </g>
  <g
   id="g3407"
   transform="matrix(0.99165663,0,0,0.98820245,-45.253571,-75.915816)">
    <path
   class="st3"
   d="m 67.5,84.7 14,12.5 0.5,18.2 7.3,-5.1 0.1,-17.4 -15.1,-12.6 z"
   id="path3409"
   inkscape:connector-curvature="0"
   style="fill:#f39200" />
    <path
   class="st2"
   d="m 82,115.9 c -0.1,0 -0.2,0 -0.2,-0.1 -0.2,-0.1 -0.3,-0.2 -0.3,-0.4 L 81,97.4 67.2,85.1 C 67.1,85 67,84.8 67,84.7 c 0,-0.2 0.1,-0.3 0.2,-0.4 L 74,79.9 c 0.2,-0.1 0.4,-0.1 0.6,0 l 15.1,12.6 c 0.1,0.1 0.2,0.2 0.2,0.4 l -0.1,17.4 c 0,0.2 -0.1,0.3 -0.2,0.4 l -7.3,5.1 c -0.1,0.1 -0.2,0.1 -0.3,0.1 z M 68.3,84.8 81.8,96.9 c 0.1,0.1 0.2,0.2 0.2,0.4 l 0.5,17.3 6.3,-4.4 0.1,-16.9 -14.6,-12.4 -6,3.9 z"
   id="path3411"
   inkscape:connector-curvature="0"
   style="fill:#7c878e" />
  </g>
  <g
   id="g3413"
   transform="matrix(0.99165663,0,0,0.98820245,-45.253571,-75.915816)">
    <g
   id="g3415">
      <path
   class="st4"
   d="m 89.9,113.7 c 0,7.6 6.2,13.8 13.8,13.8 7.6,0 13.8,-6.2 13.8,-13.8 0,-7.6 -6.2,-13.8 -13.8,-13.8 -7.6,0 -13.8,6.2 -13.8,13.8 z"
   id="path3417"
   inkscape:connector-curvature="0"
   style="fill:#ffffff" />
      <path
   class="st2"
   d="m 103.7,128 c -7.9,0 -14.3,-6.4 -14.3,-14.3 0,-7.9 6.4,-14.3 14.3,-14.3 7.9,0 14.3,6.4 14.3,14.3 0,7.9 -6.4,14.3 -14.3,14.3 z m 0,-27.6 c -7.3,0 -13.3,6 -13.3,13.3 0,7.3 6,13.3 13.3,13.3 7.3,0 13.3,-6 13.3,-13.3 0,-7.3 -6,-13.3 -13.3,-13.3 z"
   id="path3419"
   inkscape:connector-curvature="0"
   style="fill:#7c878e" />
    </g>
    <g
   id="g3421">
      <path
   class="st1"
   d="m 102.9,113.7 -6.4,0 c -0.6,0 -1,-0.5 -1,-1 l 0,-6.5 c 0,-0.6 0.4,-1 1,-1 l 6.4,0 c 0.5,0 1,0.4 1,1 l 0,6.5 c 0,0.6 -0.4,1 -1,1 z"
   id="path3423"
   inkscape:connector-curvature="0"
   style="fill:#69d2dc" />
    </g>
    <g
   id="g3425">
      <path
   class="st5"
   d="m 111.3,113.7 -6.4,0 c -0.6,0 -1,-0.5 -1,-1 l 0,-6.5 c 0,-0.6 0.4,-1 1,-1 l 6.4,0 c 0.6,0 1,0.4 1,1 l 0,6.5 c 0,0.6 -0.5,1 -1,1 z"
   id="path3427"
   inkscape:connector-curvature="0"
   style="fill:#f2bc47" />
    </g>
    <g
   id="g3429">
      <path
   class="st6"
   d="m 102.9,121.5 -6.4,0 c -0.6,0 -1,-0.4 -1,-1 l 0,-6.5 c 0,-0.5 0.4,-1 1,-1 l 6.4,0 c 0.5,0 1,0.5 1,1 l 0,6.5 c 0,0.6 -0.4,1 -1,1 z"
   id="path3431"
   inkscape:connector-curvature="0"
   style="fill:#15a3b2" />
    </g>
    <g
   id="g3433">
      <path
   class="st3"
   d="m 111.3,121.5 -6.4,0 c -0.6,0 -1,-0.4 -1,-1 l 0,-6.5 c 0,-0.5 0.4,-1 1,-1 l 6.4,0 c 0.6,0 1,0.5 1,1 l 0,6.5 c 0,0.6 -0.5,1 -1,1 z"
   id="path3435"
   inkscape:connector-curvature="0"
   style="fill:#f39200" />
    </g>
    <g
   id="g3437">
      <path
   class="st2"
   d="m 104.2,115.9 0,0 0,0 0,0 z"
   id="path3439"
   inkscape:connector-curvature="0"
   style="fill:#7c878e" />
    </g>
    <g
   id="g3441">
      <path
   class="st4"
   d="m 97.8,109.8 1.3,0 0,1.3 c 0,0.3 0.2,0.5 0.5,0.5 0.3,0 0.5,-0.2 0.5,-0.5 l 0,-1.3 1.3,0 c 0.3,0 0.5,-0.2 0.5,-0.5 0,-0.3 -0.2,-0.5 -0.5,-0.5 l -1.3,0 0,-1.3 c 0,-0.3 -0.2,-0.5 -0.5,-0.5 -0.3,0 -0.5,0.2 -0.5,0.5 l 0,1.3 -1.3,0 c -0.3,0 -0.5,0.2 -0.5,0.5 0,0.3 0.2,0.5 0.5,0.5 z"
   id="path3443"
   inkscape:connector-curvature="0"
   style="fill:#ffffff" />
    </g>
    <g
   id="g3445">
      <path
   class="st4"
   d="m 106.4,109.8 3.6,0 c 0.3,0 0.5,-0.2 0.5,-0.5 0,-0.3 -0.2,-0.5 -0.5,-0.5 l -3.6,0 c -0.3,0 -0.5,0.2 -0.5,0.5 0,0.3 0.3,0.5 0.5,0.5 z"
   id="path3447"
   inkscape:connector-curvature="0"
   style="fill:#ffffff" />
    </g>
    <g
   id="g3449">
      <path
   class="st4"
   d="m 100.3,117.8 0.9,-0.9 c 0.2,-0.2 0.2,-0.5 0,-0.7 -0.2,-0.2 -0.5,-0.2 -0.7,0 l -0.9,0.9 -0.9,-0.9 c -0.2,-0.2 -0.5,-0.2 -0.7,0 -0.2,0.2 -0.2,0.5 0,0.7 l 0.9,0.9 -0.9,0.9 c -0.2,0.2 -0.2,0.5 0,0.7 0.1,0.1 0.2,0.1 0.4,0.1 0.1,0 0.3,0 0.4,-0.1 l 0.9,-0.9 0.9,0.9 c 0.1,0.1 0.2,0.1 0.4,0.1 0.2,0 0.3,0 0.4,-0.1 0.2,-0.2 0.2,-0.5 0,-0.7 l -1.1,-0.9 z"
   id="path3451"
   inkscape:connector-curvature="0"
   style="fill:#ffffff" />
    </g>
    <g
   id="g3453">
      <path
   class="st4"
   d="m 110,116.4 -3.6,0 c -0.3,0 -0.5,0.2 -0.5,0.5 0,0.3 0.2,0.5 0.5,0.5 l 3.6,0 c 0.3,0 0.5,-0.2 0.5,-0.5 0,-0.3 -0.2,-0.5 -0.5,-0.5 z"
   id="path3455"
   inkscape:connector-curvature="0"
   style="fill:#ffffff" />
    </g>
    <g
   id="g3457">
      <path
   class="st4"
   d="m 110,118.2 -3.6,0 c -0.3,0 -0.5,0.2 -0.5,0.5 0,0.3 0.2,0.5 0.5,0.5 l 3.6,0 c 0.3,0 0.5,-0.2 0.5,-0.5 0,-0.2 -0.2,-0.5 -0.5,-0.5 z"
   id="path3459"
   inkscape:connector-curvature="0"
   style="fill:#ffffff" />
    </g>
    <g
   id="g3461">
      <path
   class="st2"
   d="m 103.4,105 1,0 0,16.5 -1,0 z"
   id="path3463"
   inkscape:connector-curvature="0"
   style="fill:#7c878e" />
    </g>
    <g
   id="g3465">
      <path
   class="st2"
   d="m 95.2,112.8 17.5,0 0,1 -17.5,0 z"
   id="path3467"
   inkscape:connector-curvature="0"
   style="fill:#7c878e" />
    </g>
    <g
   id="g3469">
      <path
   class="st2"
   d="m 110.5,122 -13.3,0 c -1.4,0 -2.5,-1.1 -2.5,-2.5 l 0,-12.5 c 0,-1.4 1.1,-2.5 2.5,-2.5 l 13.3,0 c 1.4,0 2.5,1.1 2.5,2.5 l 0,12.6 c 0,1.3 -1.1,2.4 -2.5,2.4 z M 97.2,105.5 c -0.8,0 -1.5,0.7 -1.5,1.5 l 0,12.5 c 0,0.8 0.7,1.5 1.5,1.5 l 13.3,0 c 0.8,0 1.5,-0.7 1.5,-1.4 l 0,-12.6 c 0,-0.8 -0.7,-1.5 -1.5,-1.5 l -13.3,0 z"
   id="path3471"
   inkscape:connector-curvature="0"
   style="fill:#7c878e" />
    </g>
  </g>
  <g
   id="Layer_46"
   transform="translate(-46.238088,-77.425903)" />
  <g
   id="Layer_47"
   transform="translate(-46.238088,-77.425903)" />
  <g
   id="Layer_49"
   transform="translate(-46.238088,-77.425903)" />
  <g
   id="Layer_50"
   transform="translate(-46.238088,-77.425903)" />
  <g
   id="Layer_51"
   transform="translate(-46.238088,-77.425903)" />
  <g
   id="People"
   transform="translate(-46.238088,-77.425903)" />
  <g
   id="Layer_58"
   transform="translate(-46.238088,-77.425903)">
    <g
   id="Layer_57" />
  </g>
  <g
   id="Tie"
   transform="translate(-46.238088,-77.425903)" />
  <g
   id="Layer_53"
   transform="translate(-46.238088,-77.425903)" />
  <g
   id="shoes"
   transform="translate(-46.238088,-77.425903)" />
  <g
   id="Layer_56"
   transform="translate(-46.238088,-77.425903)" />
  <g
   id="Layer_59"
   transform="translate(-46.238088,-77.425903)" />
  <g
   id="affordability"
   transform="translate(-46.238088,-77.425903)">
    <g
   id="g3487">
      <g
   id="g3489">
        <defs
   id="defs3491">
          <path
   id="SVGID_1_"
   d="m -822,180 c 41.3,0 74.9,-33.6 74.9,-74.7 0,-41.2 -33.7,-74.7 -74.9,-74.7 -41.3,0 -74.9,33.6 -74.9,74.7 0,41.1 33.6,74.7 74.9,74.7 z"
   inkscape:connector-curvature="0" />
        </defs>
        <clipPath
   id="SVGID_2_">
          <use
   xlink:href="#SVGID_1_"
   style="overflow:visible"
   id="use3495"
   x="0"
   y="0"
   width="100%"
   height="100%" />
        </clipPath>
      </g>
    </g>
    <g
   id="g3497">
      <g
   id="g3499">
        <defs
   id="defs3501">
          <path
   id="SVGID_3_"
   d="m -512.7,180 c 41.3,0 74.9,-33.6 74.9,-74.7 0,-41.2 -33.7,-74.7 -74.9,-74.7 -41.3,0 -74.9,33.6 -74.9,74.7 -0.1,41.1 33.6,74.7 74.9,74.7 z"
   inkscape:connector-curvature="0" />
        </defs>
        <clipPath
   id="SVGID_4_">
          <use
   xlink:href="#SVGID_3_"
   style="overflow:visible"
   id="use3505"
   x="0"
   y="0"
   width="100%"
   height="100%" />
        </clipPath>
      </g>
    </g>
  </g>
  <g
   id="cash"
   transform="translate(-46.238088,-77.425903)" />
  <g
   id="Layer_64"
   transform="translate(-46.238088,-77.425903)" />
  <g
   id="Layer_61"
   transform="translate(-46.238088,-77.425903)" />
  <g
   id="Layer_63"
   transform="translate(-46.238088,-77.425903)" />
  <g
   id="Layer_62"
   transform="translate(-46.238088,-77.425903)" />
  <g
   id="Personal_Loan"
   transform="translate(-46.238088,-77.425903)" />
  <g
   id="Leisure"
   transform="translate(-46.238088,-77.425903)" />
  <g
   id="Calculator"
   transform="translate(-46.238088,-77.425903)">
    <g
   id="g3515">
      <g
   id="g3517">
        <g
   id="g3519">
          <defs
   id="defs3521">
            <path
   id="SVGID_5_"
   d="m -791.9,137.6 c 0,12.4 10.1,22.5 22.5,22.5 12.4,0 22.5,-10.1 22.5,-22.5 0,-12.4 -10.1,-22.5 -22.5,-22.5 -12.5,0 -22.5,10.1 -22.5,22.5"
   inkscape:connector-curvature="0" />
          </defs>
          <clipPath
   id="SVGID_6_">
            <use
   xlink:href="#SVGID_5_"
   style="overflow:visible"
   id="use3525"
   x="0"
   y="0"
   width="100%"
   height="100%" />
          </clipPath>
        </g>
      </g>
      <g
   id="g3527">
        <g
   id="g3529">
          <defs
   id="defs3531">
            <path
   id="SVGID_7_"
   d="m -770.7,137.7 -10.4,0 c -0.9,0 -1.6,-0.7 -1.6,-1.6 l 0,-10.6 c 0,-0.9 0.7,-1.6 1.6,-1.6 l 10.4,0 c 0.9,0 1.6,0.7 1.6,1.6 l 0,10.6 c 0,0.8 -0.8,1.6 -1.6,1.6"
   inkscape:connector-curvature="0" />
          </defs>
          <clipPath
   id="SVGID_8_">
            <use
   xlink:href="#SVGID_7_"
   style="overflow:visible"
   id="use3535"
   x="0"
   y="0"
   width="100%"
   height="100%" />
          </clipPath>
        </g>
      </g>
      <g
   id="g3537">
        <g
   id="g3539">
          <defs
   id="defs3541">
            <path
   id="SVGID_9_"
   d="m -757.1,137.7 -10.4,0 c -0.9,0 -1.6,-0.7 -1.6,-1.6 l 0,-10.6 c 0,-0.9 0.7,-1.6 1.6,-1.6 l 10.4,0 c 0.9,0 1.6,0.7 1.6,1.6 l 0,10.6 c 0,0.8 -0.7,1.6 -1.6,1.6"
   inkscape:connector-curvature="0" />
          </defs>
          <clipPath
   id="SVGID_10_">
            <use
   xlink:href="#SVGID_9_"
   style="overflow:visible"
   id="use3545"
   x="0"
   y="0"
   width="100%"
   height="100%" />
          </clipPath>
        </g>
      </g>
      <g
   id="g3547">
        <g
   id="g3549">
          <defs
   id="defs3551">
            <path
   id="SVGID_11_"
   d="m -770.7,150.4 -10.4,0 c -0.9,0 -1.6,-0.7 -1.6,-1.6 l 0,-10.6 c 0,-0.9 0.7,-1.6 1.6,-1.6 l 10.4,0 c 0.9,0 1.6,0.7 1.6,1.6 l 0,10.6 c 0,0.9 -0.8,1.6 -1.6,1.6"
   inkscape:connector-curvature="0" />
          </defs>
          <clipPath
   id="SVGID_12_">
            <use
   xlink:href="#SVGID_11_"
   style="overflow:visible"
   id="use3555"
   x="0"
   y="0"
   width="100%"
   height="100%" />
          </clipPath>
        </g>
      </g>
      <g
   id="g3557">
        <g
   id="g3559">
          <defs
   id="defs3561">
            <path
   id="SVGID_13_"
   d="m -757.1,150.4 -10.4,0 c -0.9,0 -1.6,-0.7 -1.6,-1.6 l 0,-10.6 c 0,-0.9 0.7,-1.6 1.6,-1.6 l 10.4,0 c 0.9,0 1.6,0.7 1.6,1.6 l 0,10.6 c 0,0.9 -0.7,1.6 -1.6,1.6"
   inkscape:connector-curvature="0" />
          </defs>
          <clipPath
   id="SVGID_14_">
            <use
   xlink:href="#SVGID_13_"
   style="overflow:visible"
   id="use3565"
   x="0"
   y="0"
   width="100%"
   height="100%" />
          </clipPath>
        </g>
      </g>
      <g
   id="g3567">
        <g
   id="g3569">
          <defs
   id="defs3571">
            <path
   id="SVGID_15_"
   d="m -768.7,141.2 c 0.1,0 0.1,-0.1 0,0 l 0,0 c 0.1,0 0.1,0 0,0"
   inkscape:connector-curvature="0" />
          </defs>
          <clipPath
   id="SVGID_16_">
            <use
   xlink:href="#SVGID_15_"
   style="overflow:visible"
   id="use3575"
   x="0"
   y="0"
   width="100%"
   height="100%" />
          </clipPath>
        </g>
      </g>
      <g
   id="g3577">
        <g
   id="g3579">
          <defs
   id="defs3581">
            <path
   id="SVGID_17_"
   d="m -779.2,131.3 2.1,0 0,2.1 c 0,0.5 0.4,0.8 0.8,0.8 0.5,0 0.8,-0.4 0.8,-0.8 l 0,-2.1 2.1,0 c 0.5,0 0.8,-0.4 0.8,-0.8 0,-0.5 -0.4,-0.8 -0.8,-0.8 l -2.1,0 0,-2.1 c 0,-0.5 -0.4,-0.8 -0.8,-0.8 -0.5,0 -0.8,0.4 -0.8,0.8 l 0,2.1 -2.1,0 c -0.5,0 -0.8,0.4 -0.8,0.8 0,0.5 0.4,0.8 0.8,0.8"
   inkscape:connector-curvature="0" />
          </defs>
          <clipPath
   id="SVGID_18_">
            <use
   xlink:href="#SVGID_17_"
   style="overflow:visible"
   id="use3585"
   x="0"
   y="0"
   width="100%"
   height="100%" />
          </clipPath>
        </g>
      </g>
      <g
   id="g3587">
        <g
   id="g3589">
          <defs
   id="defs3591">
            <path
   id="SVGID_19_"
   d="m -765,131.3 5.9,0 c 0.5,0 0.8,-0.4 0.8,-0.8 0,-0.5 -0.4,-0.8 -0.8,-0.8 l -5.9,0 c -0.5,0 -0.8,0.4 -0.8,0.8 0,0.5 0.4,0.8 0.8,0.8"
   inkscape:connector-curvature="0" />
          </defs>
          <clipPath
   id="SVGID_20_">
            <use
   xlink:href="#SVGID_19_"
   style="overflow:visible"
   id="use3595"
   x="0"
   y="0"
   width="100%"
   height="100%" />
          </clipPath>
        </g>
      </g>
      <g
   id="g3597">
        <g
   id="g3599">
          <defs
   id="defs3601">
            <path
   id="SVGID_21_"
   d="m -775.1,144.3 1.5,-1.5 c 0.3,-0.3 0.3,-0.8 0,-1.2 -0.3,-0.3 -0.8,-0.3 -1.2,0 l -1.5,1.5 -1.5,-1.5 c -0.3,-0.3 -0.8,-0.3 -1.2,0 -0.3,0.3 -0.3,0.8 0,1.2 l 1.5,1.5 -1.5,1.5 c -0.3,0.3 -0.3,0.8 0,1.2 0.2,0.2 0.4,0.2 0.6,0.2 0.2,0 0.4,-0.1 0.6,-0.2 l 1.5,-1.5 1.5,1.5 c 0.2,0.2 0.4,0.2 0.6,0.2 0.2,0 0.4,-0.1 0.6,-0.2 0.3,-0.3 0.3,-0.8 0,-1.2 l -1.5,-1.5 z"
   inkscape:connector-curvature="0" />
          </defs>
          <clipPath
   id="SVGID_22_">
            <use
   xlink:href="#SVGID_21_"
   style="overflow:visible"
   id="use3605"
   x="0"
   y="0"
   width="100%"
   height="100%" />
          </clipPath>
        </g>
      </g>
      <g
   id="g3607">
        <g
   id="g3609">
          <defs
   id="defs3611">
            <path
   id="SVGID_23_"
   d="m -759.1,142 -5.9,0 c -0.5,0 -0.8,0.4 -0.8,0.8 0,0.5 0.4,0.8 0.8,0.8 l 5.9,0 c 0.5,0 0.8,-0.4 0.8,-0.8 0,-0.5 -0.4,-0.8 -0.8,-0.8"
   inkscape:connector-curvature="0" />
          </defs>
          <clipPath
   id="SVGID_24_">
            <use
   xlink:href="#SVGID_23_"
   style="overflow:visible"
   id="use3615"
   x="0"
   y="0"
   width="100%"
   height="100%" />
          </clipPath>
        </g>
      </g>
      <g
   id="g3617">
        <g
   id="g3619">
          <defs
   id="defs3621">
            <path
   id="SVGID_25_"
   d="m -759.1,145 -5.9,0 c -0.5,0 -0.8,0.4 -0.8,0.8 0,0.5 0.4,0.8 0.8,0.8 l 5.9,0 c 0.5,0 0.8,-0.4 0.8,-0.8 0,-0.4 -0.4,-0.8 -0.8,-0.8"
   inkscape:connector-curvature="0" />
          </defs>
          <clipPath
   id="SVGID_26_">
            <use
   xlink:href="#SVGID_25_"
   style="overflow:visible"
   id="use3625"
   x="0"
   y="0"
   width="100%"
   height="100%" />
          </clipPath>
        </g>
      </g>
    </g>
    <g
   id="g3627">
      <g
   id="g3629">
        <g
   id="g3631">
          <defs
   id="defs3633">
            <path
   id="SVGID_27_"
   d="m -482.7,137.6 c 0,12.4 10.1,22.5 22.5,22.5 12.4,0 22.5,-10.1 22.5,-22.5 0,-12.4 -10.1,-22.5 -22.5,-22.5 -12.4,0 -22.5,10.1 -22.5,22.5"
   inkscape:connector-curvature="0" />
          </defs>
          <clipPath
   id="SVGID_28_">
            <use
   xlink:href="#SVGID_27_"
   style="overflow:visible"
   id="use3637"
   x="0"
   y="0"
   width="100%"
   height="100%" />
          </clipPath>
        </g>
      </g>
      <g
   id="g3639">
        <g
   id="g3641">
          <defs
   id="defs3643">
            <path
   id="SVGID_29_"
   d="m -461.5,137.7 -10.4,0 c -0.9,0 -1.6,-0.7 -1.6,-1.6 l 0,-10.6 c 0,-0.9 0.7,-1.6 1.6,-1.6 l 10.4,0 c 0.9,0 1.6,0.7 1.6,1.6 l 0,10.6 c 0.1,0.8 -0.7,1.6 -1.6,1.6"
   inkscape:connector-curvature="0" />
          </defs>
          <clipPath
   id="SVGID_30_">
            <use
   xlink:href="#SVGID_29_"
   style="overflow:visible"
   id="use3647"
   x="0"
   y="0"
   width="100%"
   height="100%" />
          </clipPath>
        </g>
      </g>
      <g
   id="g3649">
        <g
   id="g3651">
          <defs
   id="defs3653">
            <path
   id="SVGID_31_"
   d="m -447.8,137.7 -10.4,0 c -0.9,0 -1.6,-0.7 -1.6,-1.6 l 0,-10.6 c 0,-0.9 0.7,-1.6 1.6,-1.6 l 10.4,0 c 0.9,0 1.6,0.7 1.6,1.6 l 0,10.6 c 0,0.8 -0.7,1.6 -1.6,1.6"
   inkscape:connector-curvature="0" />
          </defs>
          <clipPath
   id="SVGID_32_">
            <use
   xlink:href="#SVGID_31_"
   style="overflow:visible"
   id="use3657"
   x="0"
   y="0"
   width="100%"
   height="100%" />
          </clipPath>
        </g>
      </g>
      <g
   id="g3659">
        <g
   id="g3661">
          <defs
   id="defs3663">
            <path
   id="SVGID_33_"
   d="m -461.5,150.4 -10.4,0 c -0.9,0 -1.6,-0.7 -1.6,-1.6 l 0,-10.6 c 0,-0.9 0.7,-1.6 1.6,-1.6 l 10.4,0 c 0.9,0 1.6,0.7 1.6,1.6 l 0,10.6 c 0.1,0.9 -0.7,1.6 -1.6,1.6"
   inkscape:connector-curvature="0" />
          </defs>
          <clipPath
   id="SVGID_34_">
            <use
   xlink:href="#SVGID_33_"
   style="overflow:visible"
   id="use3667"
   x="0"
   y="0"
   width="100%"
   height="100%" />
          </clipPath>
        </g>
      </g>
      <g
   id="g3669">
        <g
   id="g3671">
          <defs
   id="defs3673">
            <path
   id="SVGID_35_"
   d="m -447.8,150.4 -10.4,0 c -0.9,0 -1.6,-0.7 -1.6,-1.6 l 0,-10.6 c 0,-0.9 0.7,-1.6 1.6,-1.6 l 10.4,0 c 0.9,0 1.6,0.7 1.6,1.6 l 0,10.6 c 0,0.9 -0.7,1.6 -1.6,1.6"
   inkscape:connector-curvature="0" />
          </defs>
          <clipPath
   id="SVGID_36_">
            <use
   xlink:href="#SVGID_35_"
   style="overflow:visible"
   id="use3677"
   x="0"
   y="0"
   width="100%"
   height="100%" />
          </clipPath>
        </g>
      </g>
      <g
   id="g3679">
        <g
   id="g3681">
          <defs
   id="defs3683">
            <path
   id="SVGID_37_"
   d="m -459.4,141.2 c 0,0 0.1,-0.1 0,0 l 0,0 0,0"
   inkscape:connector-curvature="0" />
          </defs>
          <clipPath
   id="SVGID_38_">
            <use
   xlink:href="#SVGID_37_"
   style="overflow:visible"
   id="use3687"
   x="0"
   y="0"
   width="100%"
   height="100%" />
          </clipPath>
        </g>
      </g>
      <g
   id="g3689">
        <g
   id="g3691">
          <defs
   id="defs3693">
            <path
   id="SVGID_39_"
   d="m -469.9,131.3 2.1,0 0,2.1 c 0,0.5 0.4,0.8 0.8,0.8 0.5,0 0.8,-0.4 0.8,-0.8 l 0,-2.1 2.1,0 c 0.5,0 0.8,-0.4 0.8,-0.8 0,-0.5 -0.4,-0.8 -0.8,-0.8 l -2.1,0 0,-2.1 c 0,-0.5 -0.4,-0.8 -0.8,-0.8 -0.5,0 -0.8,0.4 -0.8,0.8 l 0,2.1 -2.1,0 c -0.5,0 -0.8,0.4 -0.8,0.8 0,0.5 0.4,0.8 0.8,0.8"
   inkscape:connector-curvature="0" />
          </defs>
          <clipPath
   id="SVGID_40_">
            <use
   xlink:href="#SVGID_39_"
   style="overflow:visible"
   id="use3697"
   x="0"
   y="0"
   width="100%"
   height="100%" />
          </clipPath>
        </g>
      </g>
      <g
   id="g3699">
        <g
   id="g3701">
          <defs
   id="defs3703">
            <path
   id="SVGID_41_"
   d="m -455.7,131.3 5.9,0 c 0.5,0 0.8,-0.4 0.8,-0.8 0,-0.5 -0.4,-0.8 -0.8,-0.8 l -5.9,0 c -0.5,0 -0.8,0.4 -0.8,0.8 0,0.5 0.3,0.8 0.8,0.8"
   inkscape:connector-curvature="0" />
          </defs>
          <clipPath
   id="SVGID_42_">
            <use
   xlink:href="#SVGID_41_"
   style="overflow:visible"
   id="use3707"
   x="0"
   y="0"
   width="100%"
   height="100%" />
          </clipPath>
        </g>
      </g>
      <g
   id="g3709">
        <g
   id="g3711">
          <defs
   id="defs3713">
            <path
   id="SVGID_43_"
   d="m -465.8,144.3 1.5,-1.5 c 0.3,-0.3 0.3,-0.8 0,-1.2 -0.3,-0.3 -0.8,-0.3 -1.2,0 l -1.5,1.5 -1.5,-1.5 c -0.3,-0.3 -0.8,-0.3 -1.2,0 -0.3,0.3 -0.3,0.8 0,1.2 l 1.5,1.5 -1.5,1.5 c -0.3,0.3 -0.3,0.8 0,1.2 0.2,0.2 0.4,0.2 0.6,0.2 0.2,0 0.4,-0.1 0.6,-0.2 l 1.5,-1.5 1.5,1.5 c 0.2,0.2 0.4,0.2 0.6,0.2 0.2,0 0.4,-0.1 0.6,-0.2 0.3,-0.3 0.3,-0.8 0,-1.2 l -1.5,-1.5 z"
   inkscape:connector-curvature="0" />
          </defs>
          <clipPath
   id="SVGID_44_">
            <use
   xlink:href="#SVGID_43_"
   style="overflow:visible"
   id="use3717"
   x="0"
   y="0"
   width="100%"
   height="100%" />
          </clipPath>
        </g>
      </g>
      <g
   id="g3719">
        <g
   id="g3721">
          <defs
   id="defs3723">
            <path
   id="SVGID_45_"
   d="m -449.9,142 -5.9,0 c -0.5,0 -0.8,0.4 -0.8,0.8 0,0.5 0.4,0.8 0.8,0.8 l 5.9,0 c 0.5,0 0.8,-0.4 0.8,-0.8 0.1,-0.5 -0.3,-0.8 -0.8,-0.8"
   inkscape:connector-curvature="0" />
          </defs>
          <clipPath
   id="SVGID_46_">
            <use
   xlink:href="#SVGID_45_"
   style="overflow:visible"
   id="use3727"
   x="0"
   y="0"
   width="100%"
   height="100%" />
          </clipPath>
        </g>
      </g>
      <g
   id="g3729">
        <g
   id="g3731">
          <defs
   id="defs3733">
            <path
   id="SVGID_47_"
   d="m -449.9,145 -5.9,0 c -0.5,0 -0.8,0.4 -0.8,0.8 0,0.5 0.4,0.8 0.8,0.8 l 5.9,0 c 0.5,0 0.8,-0.4 0.8,-0.8 0.1,-0.4 -0.3,-0.8 -0.8,-0.8"
   inkscape:connector-curvature="0" />
          </defs>
          <clipPath
   id="SVGID_48_">
            <use
   xlink:href="#SVGID_47_"
   style="overflow:visible"
   id="use3737"
   x="0"
   y="0"
   width="100%"
   height="100%" />
          </clipPath>
        </g>
      </g>
    </g>
  </g>
</svg>