<?xml version="1.0" encoding="utf-8"?>
<!-- Generator: Adobe Illustrator 21.0.2, SVG Export Plug-In . SVG Version: 6.00 Build 0)  -->
<svg version="1.1" id="Layer_1" xmlns="http://www.w3.org/2000/svg" xmlns:xlink="http://www.w3.org/1999/xlink" x="0px" y="0px"
	 viewBox="0 0 160 160" style="enable-background:new 0 0 160 160;" xml:space="preserve">
<style type="text/css">
	.st0{fill:#68D1DB;}
	.st1{fill:#7B878E;}
	.st2{fill:none;}
	.st3{fill-rule:evenodd;clip-rule:evenodd;fill:none;}
	.st4{fill:#FFFFFF;}
	.st5{fill-rule:evenodd;clip-rule:evenodd;fill:#FFFFFF;}
	.st6{fill-rule:evenodd;clip-rule:evenodd;fill:#68D1DB;}
</style>
<title>WesBank Icons v1_aj</title>
<path class="st0" d="M82.7,58.3c0-0.5,0.2-1,0.6-1.4l3.2-3.2c0.4-0.4,0.9-0.6,1.4-0.6c0.5,0,1,0.2,1.4,0.6L100.7,65
	c0.4,0.4,0.6,0.9,0.6,1.4c0,0.5-0.2,1-0.6,1.4l-3.2,3.2c-0.8,0.8-2.1,0.8-2.8,0L83.3,59.7C82.9,59.4,82.7,58.9,82.7,58.3"/>
<path class="st1" d="M96.1,72.1c-0.6,0-1.3-0.2-1.8-0.7L83,60.1c-0.5-0.5-0.7-1.1-0.7-1.8c0-0.7,0.3-1.3,0.7-1.8l3.2-3.2
	c0.9-0.9,2.6-0.9,3.5,0l11.4,11.3c0.5,0.5,0.7,1.1,0.7,1.8s-0.3,1.3-0.7,1.8l-3.2,3.2C97.4,71.9,96.7,72.1,96.1,72.1z M88,53.6
	c-0.4,0-0.8,0.2-1.1,0.4l-3.2,3.2c-0.3,0.3-0.4,0.7-0.4,1.1c0,0.4,0.2,0.8,0.4,1.1L95,70.7c0.6,0.6,1.6,0.6,2.1,0l3.2-3.2
	c0.3-0.3,0.4-0.7,0.4-1.1s-0.2-0.8-0.4-1.1L89,54.1C88.7,53.8,88.4,53.6,88,53.6z"/>
<rect x="-536.9" y="-700.6" class="st2" width="1440" height="1144"/>
<path class="st3" d="M84.4,83.2c0,0.5-0.2,1-0.6,1.4l-3.2,3.2c-0.8,0.8-2.1,0.8-2.8,0L66.4,76.6c-0.4-0.4-0.6-0.9-0.6-1.4
	c0-0.5,0.2-1,0.6-1.4l3.2-3.2c0.4-0.4,0.9-0.6,1.4-0.6c0.5,0,1,0.2,1.4,0.6l11.4,11.3C84.2,82.2,84.4,82.7,84.4,83.2"/>
<path class="st0" d="M84.4,83.2c0,0.5-0.2,1-0.6,1.4l-3.2,3.2c-0.8,0.8-2.1,0.8-2.8,0L66.4,76.6c-0.4-0.4-0.6-0.9-0.6-1.4
	c0-0.5,0.2-1,0.6-1.4l3.2-3.2c0.4-0.4,0.9-0.6,1.4-0.6c0.5,0,1,0.2,1.4,0.6l11.4,11.3C84.2,82.2,84.4,82.7,84.4,83.2"/>
<path class="st1" d="M79.2,88.9c-0.6,0-1.3-0.2-1.8-0.7L66.1,76.9c-0.5-0.5-0.7-1.1-0.7-1.8c0-0.7,0.3-1.3,0.7-1.8l3.2-3.2
	c0.9-0.9,2.6-0.9,3.5,0l11.4,11.3c0.5,0.5,0.7,1.1,0.7,1.8c0,0.7-0.3,1.3-0.7,1.8L81,88.2C80.5,88.7,79.9,88.9,79.2,88.9z
	 M71.1,70.4c-0.4,0-0.8,0.2-1.1,0.4l-3.2,3.2c-0.3,0.3-0.4,0.7-0.4,1.1c0,0.4,0.2,0.8,0.4,1.1l11.4,11.3c0.6,0.6,1.6,0.6,2.1,0
	l3.2-3.2c0.3-0.3,0.4-0.7,0.4-1.1s-0.2-0.8-0.4-1.1L72.2,70.9C71.9,70.6,71.5,70.4,71.1,70.4z"/>
<rect x="-536.9" y="-700.6" class="st2" width="1440" height="1144"/>
<path class="st3" d="M75.1,72.3c2.2-0.6,4.2-1.7,5.8-3.3c2-1.9,3.2-4.5,3.6-7.2l8.2,8.1c-2.7,0.4-5.3,1.7-7.2,3.6
	c-1.6,1.6-2.7,3.6-3.3,5.8L75.1,72.3z"/>
<path class="st4" d="M75.1,72.3c2.2-0.6,4.2-1.7,5.8-3.3c2-1.9,3.2-4.5,3.6-7.2l8.2,8.1c-2.7,0.4-5.3,1.7-7.2,3.6
	c-1.6,1.6-2.7,3.6-3.3,5.8L75.1,72.3z"/>
<path class="st1" d="M82.4,80.2L74.1,72l0.8-0.2c2.1-0.6,4-1.7,5.5-3.2c1.9-1.8,3.1-4.3,3.5-6.9l0.1-1l9.6,9.5l-1,0.1
	c-2.6,0.4-5.1,1.6-6.9,3.5c-1.5,1.5-2.6,3.4-3.2,5.5L82.4,80.2z M76.1,72.5l5.8,5.8c0.7-1.9,1.8-3.7,3.2-5.2c1.8-1.8,4.1-3,6.5-3.6
	l-6.8-6.8c-0.5,2.5-1.8,4.7-3.6,6.5C79.8,70.8,78,71.8,76.1,72.5z"/>
<rect x="-536.9" y="-700.6" class="st2" width="1440" height="1144"/>
<path class="st3" d="M107.2,93.7l-1,1c-0.8,0.8-2,0.8-2.8,0l-19-19c0.4-0.6,0.9-1.2,1.5-1.8c0.7-0.7,1.6-1.4,2.4-1.9l18.9,18.9
	c0.4,0.4,0.6,0.9,0.6,1.4C107.8,92.8,107.6,93.3,107.2,93.7"/>
<path class="st0" d="M107.2,93.7l-1,1c-0.8,0.8-2,0.8-2.8,0l-19-19c0.4-0.6,0.9-1.2,1.5-1.8c0.7-0.7,1.6-1.4,2.4-1.9l18.9,18.9
	c0.4,0.4,0.6,0.9,0.6,1.4C107.8,92.8,107.6,93.3,107.2,93.7"/>
<path class="st1" d="M104.8,95.7c-0.6,0-1.3-0.2-1.8-0.7L83.7,75.7l0.2-0.3c0.5-0.7,1-1.3,1.5-1.9c0.8-0.8,1.6-1.4,2.5-2l0.3-0.2
	l0.3,0.3l18.9,18.9c0.5,0.5,0.7,1.1,0.7,1.8s-0.3,1.3-0.7,1.8l-1,1C106.1,95.5,105.5,95.7,104.8,95.7z M85,75.6l18.7,18.7
	c0.6,0.6,1.5,0.6,2.1,0l1-1c0.3-0.3,0.4-0.7,0.4-1.1s-0.2-0.8-0.4-1L88.2,72.7c-0.7,0.5-1.4,1-2,1.6C85.8,74.7,85.4,75.1,85,75.6z"
	/>
<rect x="-536.9" y="-700.6" class="st2" width="1440" height="1144"/>
<path class="st3" d="M98.9,100.1v-4.3c0-2.9-8.7-4.5-16.9-4.5c-8.2,0-17,1.5-17,4.5v4.2c-0.4,0.3-1.4,1.3-1.4,2.5
	c0,1.8,2.3,5,17.9,5.2h0.1h0.3h0.3h0.1c15.6-0.2,17.9-3.4,17.9-5.2C100.2,101.4,99.3,100.4,98.9,100.1"/>
<path class="st1" d="M81.9,108.3h-0.3c-15.3-0.2-18.5-3.2-18.5-5.7c0-1.3,0.9-2.3,1.4-2.8v-4c0-3.9,11.4-5,17.5-5c6,0,17.4,1,17.4,5
	v4c0.6,0.5,1.3,1.5,1.2,2.8c0,2.5-3.2,5.5-18.4,5.7H81.9z M82,91.9c-9.1,0-16.5,1.8-16.5,4v4.4l-0.2,0.2c-0.4,0.3-1.2,1.1-1.2,2.2
	c0,1.4,1.7,4.5,17.4,4.7h0.6c15.8-0.2,17.5-3.4,17.5-4.7c0.1-1-0.7-1.9-1-2.1l-0.2-0.1v-4.5C98.4,93.6,91,91.9,82,91.9z"/>
<rect x="-536.9" y="-700.6" class="st2" width="1440" height="1144"/>
<path class="st5" d="M82,91.3c9.6,0,16.2,2.2,16.2,4.2c0,2-6.7,4.2-16.2,4.2c-9.6,0-16.2-2.2-16.2-4.2C65.8,93.5,72.4,91.3,82,91.3"
	/>
<path class="st1" d="M82,100.1c-9.2,0-16.7-2.1-16.7-4.7c0-2.6,7.5-4.7,16.7-4.7c9.4,0,16.7,2.1,16.7,4.7
	C98.7,98.1,91.4,100.1,82,100.1z M82,91.8c-10.2,0-15.7,2.4-15.7,3.7s5.6,3.7,15.7,3.7c10.3,0,15.7-2.4,15.7-3.7S92.3,91.8,82,91.8z
	"/>
<rect x="-536.9" y="-700.6" class="st2" width="1440" height="1144"/>
<path class="st6" d="M82.2,107.1L82.2,107.1h-0.3h-0.2h-0.1c-16.1-0.2-17.3-3.5-17.3-4.5c0-1.2,1.3-2.1,1.3-2.1
	c0.1-0.1,0.1-0.2,0.1-0.3v-3.1c2.2,2,9.4,3.1,16.2,3.1c6.8,0,14-1.1,16.2-3.1v3.1c0,0.1,0.1,0.2,0.1,0.3c0.3,0.2,1.2,1,1.2,2.1
	C99.5,103.6,98.3,106.9,82.2,107.1"/>
<path class="st0" d="M82.2,107.5h-0.4c-16-0.2-17.8-3.5-17.8-4.9c0-1.4,1.4-2.4,1.4-2.4l0-3.9l0.6,0.6c2,1.8,8.5,3,16,3
	c7.5,0,14-1.2,16-3l0.6-0.6v4c0.1,0.1,1.3,1,1.3,2.4C99.8,104.4,97.4,107.3,82.2,107.5L82.2,107.5z M66.1,97.9v2.3
	c0,0.2-0.1,0.4-0.2,0.5c-0.1,0-1.2,0.8-1.2,1.8c0,0.7,0.8,4,17,4.1h0.5c16-0.2,17-3.5,17-4.1c0-1-1-1.7-1.1-1.8
	c-0.1-0.1-0.3-0.3-0.3-0.6v-2.4c-2.9,1.9-9.9,2.7-15.9,2.7S69.1,99.8,66.1,97.9z"/>
</svg>
