<?xml version="1.0" encoding="UTF-8"?>
<svg width="34px" height="34px" viewBox="0 0 34 34" version="1.1" xmlns="http://www.w3.org/2000/svg" xmlns:xlink="http://www.w3.org/1999/xlink">
    <!-- Generator: Sketch 43.2 (39069) - http://www.bohemiancoding.com/sketch -->
    <title>ico_profile_chat</title>
    <desc>Created with Sketch.</desc>
    <defs></defs>
    <g id="Search" stroke="none" stroke-width="1" fill="none" fill-rule="evenodd">
        <g id="d_support/search_noresults" transform="translate(-1364.000000, -313.000000)" fill="#7B878E">
            <g id="CHAT">
                <g id="Support" transform="translate(1045.000000, 176.000000)">
                    <g id="Message1" transform="translate(12.000000, 100.000000)">
                        <g id="Message-2" transform="translate(47.341974, 0.950370)">
                            <g id="ico_profile_chat" transform="translate(259.658026, 36.049630)">
                                <path d="M16.9751852,33.9503704 C7.6000493,33.9503704 0,26.3503211 0,16.9751852 C0,7.6000493 7.6000493,0 16.9751852,0 C26.3503211,0 33.9503704,7.6000493 33.9503704,16.9751852 C33.9503704,26.3503211 26.3503211,33.9503704 16.9751852,33.9503704 Z M16.9751852,32.5357717 C25.5690598,32.5357717 32.5357717,25.5690598 32.5357717,16.9751852 C32.5357717,8.38131062 25.5690598,1.41459877 16.9751852,1.41459877 C8.38131062,1.41459877 1.41459877,8.38131062 1.41459877,16.9751852 C1.41459877,25.5690598 8.38131062,32.5357717 16.9751852,32.5357717 Z" id="Bottom-border"></path>
                                <path d="M5.41696088,29.4076725 C2.08456839,26.3082166 0,21.8851394 0,16.9751852 C0,7.6000493 7.6000493,0 16.9751852,0 C26.3503211,0 33.9503704,7.6000493 33.9503704,16.9751852 C33.9503704,21.8468542 31.898184,26.2392094 28.6111343,29.3349277 C27.9163903,28.9437507 27.1855388,28.6619332 26.4625669,28.5287614 L22.6056953,27.8183239 C21.7342586,27.6578049 21.0278201,26.6294936 21.0278195,25.9208194 L21.0278195,23.6294155 C22.0230562,22.7396492 22.2231439,20.939276 22.5439599,19.1528782 C23.0497643,19.2712565 23.1992145,18.5992927 23.4757902,17.2981773 C23.7523659,15.997062 24.687615,14.6643313 23.835283,14.4973964 C23.7308979,14.4769519 23.7061421,14.4973965 23.5406698,14.4920376 L23.8387829,10.1199513 C23.9632476,8.29457002 23.2427891,6.33527496 22.0230567,5.78837141 C20.1330144,4.94091435 19.76899,4.54444918 18.3409667,4.32094728 C16.9129435,4.09744539 15.8968642,4.50636267 14.6639253,4.90255413 C13.4309865,5.29874558 12.4076695,6.23696153 11.4862113,6.79296237 C10.5647532,7.34896322 10.0849105,8.60728697 10.1880523,10.1199513 L10.4859932,14.489512 C10.3304391,14.4973965 10.3038526,14.4751857 10.2052601,14.4973964 C9.37896942,14.6835421 10.2881772,15.997062 10.564753,17.2981773 C10.8413287,18.5992927 10.9907789,19.2712565 11.4245077,19.1790696 C11.8130405,20.9424322 11.9851359,22.6505528 12.9990157,23.6294155 L12.9990157,25.9208194 C12.9990154,26.6311436 12.2868745,27.6431545 11.4135495,27.784767 L7.8521457,28.3622604 C6.97729029,28.5041211 6.14432846,28.8761539 5.41696088,29.4076725 Z" id="Face-+-circle"></path>
                            </g>
                        </g>
                    </g>
                </g>
            </g>
        </g>
    </g>
</svg>