<?xml version="1.0" encoding="UTF-8"?>
<svg width="32px" height="32px" viewBox="0 0 32 32" version="1.1" xmlns="http://www.w3.org/2000/svg" xmlns:xlink="http://www.w3.org/1999/xlink">
    <!-- Generator: Sketch 43.2 (39069) - http://www.bohemiancoding.com/sketch -->
    <title>ico_WesBank_chat</title>
    <desc>Created with Sketch.</desc>
    <defs></defs>
    <g id="Search" stroke="none" stroke-width="1" fill="none" fill-rule="evenodd">
        <g id="d_support/search_noresults" transform="translate(-1073.000000, -379.000000)">
            <g id="CHAT">
                <g id="Support" transform="translate(1045.000000, 176.000000)">
                    <g id="Message2" transform="translate(21.000000, 190.000000)">
                        <g id="Message-1" transform="translate(0.000000, 0.476489)">
                            <g id="ico_WesBank_chat" transform="translate(7.000000, 12.523511)">
                                <path d="M15.9751852,31.5357717 C24.5690598,31.5357717 31.5357717,24.5690598 31.5357717,15.9751852 C31.5357717,7.38131062 24.5690598,0.414598768 15.9751852,0.414598768 C7.38131062,0.414598768 0.414598768,7.38131062 0.414598768,15.9751852 C0.414598768,24.5690598 7.38131062,31.5357717 15.9751852,31.5357717 Z" id="Path" fill="#FFFFFF"></path>
                                <g id="W" transform="translate(4.919355, 8.000000)">
                                    <path d="M13.4951594,1.68210239 L20.1155654,1.68210239 C20.2670635,1.68210239 20.370657,1.8300549 20.3155668,1.96739727 L18.1293238,7.40980959 C18.110162,7.45873413 18.1095632,7.51237428 18.128725,7.56129881 L18.8005861,9.27601531 C18.8706464,9.45461934 19.1299297,9.45579824 19.2017865,9.27778367 L22.7730692,0.371160661 C22.8281594,0.234407747 22.7245659,0.0858657878 22.5730678,0.0858657878 L12.4604215,0.0835079789 C12.2771867,0.0835079789 12.1777848,0.292763516 12.2969473,0.428926978 L13.332284,1.60901032 C13.3730028,1.65498759 13.4322847,1.68210239 13.4951594,1.68210239" id="Fill-7" fill="#F39200"></path>
                                    <path d="M13.1071327,12.5728216 L16.0933813,4.94295206 C16.2287116,4.59694361 15.9670331,4.22558871 15.5873897,4.22558871 L3.43520805,4.22558871 C3.05436704,4.22558871 2.79268855,4.59871197 2.93041407,4.94530987 L5.96277082,12.5757688 C6.14301161,13.0290576 6.80050129,13.0261103 6.97655044,12.5716427 L9.01189415,7.3184445 C9.1879433,6.86279794 9.8478282,6.86102958 10.0262726,7.31608669 L12.0927542,12.573411 C12.2711986,13.0272892 12.9292871,13.0272892 13.1071327,12.5728216 L13.1071327,12.5728216 Z M12.1179041,17.7399597 L10.0256738,12.3169993 C9.84902582,11.8584055 9.18494927,11.8595844 9.00949893,12.3181782 L6.93583158,17.7376019 C6.76157886,18.1938379 6.10109515,18.1973746 5.92145316,17.742907 L0.144166843,3.14276499 C0.00704012615,2.79675654 0.268718621,2.42422274 0.648960828,2.42422274 L18.3724393,2.42422274 C18.7526815,2.42422274 19.01436,2.79557763 18.8778321,3.14158608 L13.1322825,17.7434964 C12.9532394,18.1985535 12.2933545,18.1961957 12.1179041,17.7399597 L12.1179041,17.7399597 Z" id="Fill-8" fill="#15A3B2"></path>
                                </g>
                            </g>
                        </g>
                    </g>
                </g>
            </g>
        </g>
    </g>
</svg>