<svg xmlns="http://www.w3.org/2000/svg" viewBox="0 0 220 260">
  <defs>
    <style>
      .cls-1,.cls-10,.cls-2,.cls-9{fill:none;}.cls-1{clip-rule:evenodd;}.cls-3{clip-path:url(#clip-path);}.cls-4{clip-path:url(#clip-path-2);}.cls-5{clip-path:url(#clip-path-3);}.cls-6{clip-path:url(#clip-path-4);}.cls-7{clip-path:url(#clip-path-5);}.cls-8{fill:#fff;}.cls-10,.cls-9{stroke:#e2e5e7;stroke-miterlimit:10;}.cls-9{stroke-width:2.73px;}.cls-10{stroke-width:1.82px;}.cls-11{clip-path:url(#clip-path-6);}.cls-12{clip-path:url(#clip-path-7);}.cls-13{fill:#f39200;fill-rule:evenodd;}.cls-14{fill:#15a3b2;}.cls-15{clip-path:url(#clip-path-9);}.cls-16{clip-path:url(#clip-path-10);}.cls-17{clip-path:url(#clip-path-11);}.cls-18{clip-path:url(#clip-path-12);}.cls-19{clip-path:url(#clip-path-13);}.cls-20{clip-path:url(#clip-path-14);}.cls-21{clip-path:url(#clip-path-15);}.cls-22{clip-path:url(#clip-path-16);}.cls-23{clip-path:url(#clip-path-17);}.cls-24{clip-path:url(#clip-path-18);}.cls-25{clip-path:url(#clip-path-19);}.cls-26{clip-path:url(#clip-path-20);}.cls-27{clip-path:url(#clip-path-21);}.cls-28{clip-path:url(#clip-path-22);}.cls-29{clip-path:url(#clip-path-23);}.cls-30{clip-path:url(#clip-path-24);}.cls-31{clip-path:url(#clip-path-25);}.cls-32{clip-path:url(#clip-path-26);}.cls-33{clip-path:url(#clip-path-27);}.cls-34{clip-path:url(#clip-path-28);}.cls-35{clip-path:url(#clip-path-29);}.cls-36{clip-path:url(#clip-path-30);}.cls-37{clip-path:url(#clip-path-31);}.cls-38{clip-path:url(#clip-path-32);}.cls-39{clip-path:url(#clip-path-33);}.cls-40{clip-path:url(#clip-path-34);}.cls-41{clip-path:url(#clip-path-35);}.cls-42{clip-path:url(#clip-path-36);}.cls-43{clip-path:url(#clip-path-37);}.cls-44{clip-path:url(#clip-path-38);}.cls-45{clip-path:url(#clip-path-39);}.cls-46{clip-path:url(#clip-path-40);}.cls-47{clip-path:url(#clip-path-41);}
    </style>
    <clipPath id="clip-path">
      <path class="cls-1" d="M-702.83,179.34c41.27,0,74.93-33.57,74.93-74.73s-33.66-74.73-74.93-74.73-74.93,33.57-74.93,74.73S-744.1,179.34-702.83,179.34Z"/>
    </clipPath>
    <clipPath id="clip-path-2">
      <path class="cls-1" d="M-398.83,179.34c41.27,0,74.93-33.57,74.93-74.73s-33.66-74.73-74.93-74.73-74.93,33.57-74.93,74.73S-440.1,179.34-398.83,179.34Z"/>
    </clipPath>
    <clipPath id="clip-path-3">
      <path class="cls-1" d="M-129.55,179.34c41.27,0,74.93-33.57,74.93-74.73s-33.66-74.73-74.93-74.73-74.93,33.57-74.93,74.73S-170.82,179.34-129.55,179.34Z"/>
    </clipPath>
    <clipPath id="clip-path-4">
      <path class="cls-1" d="M112.45,179.34c41.27,0,74.93-33.57,74.93-74.73s-33.66-74.73-74.93-74.73S37.52,63.46,37.52,104.62,71.18,179.34,112.45,179.34Z"/>
    </clipPath>
    <clipPath id="clip-path-5">
      <path class="cls-2" d="M-387.7 -428.5H1052.3V1064.5H-387.7z"/>
    </clipPath>
    <clipPath id="clip-path-6">
      <path class="cls-2" d="M-7.7 217.5H232.3V243.5H-7.7z"/>
    </clipPath>
    <clipPath id="clip-path-7">
      <path class="cls-2" d="M-0.7 217.5H225.3V241.5H-0.7z"/>
    </clipPath>
    <clipPath id="clip-path-9">
      <path class="cls-1" d="M-672.76,137a22.51,22.51,0,0,0,22.49,22.48A22.52,22.52,0,0,0-627.77,137a22.52,22.52,0,0,0-22.5-22.49A22.52,22.52,0,0,0-672.76,137"/>
    </clipPath>
    <clipPath id="clip-path-10">
      <path class="cls-1" d="M-651.56,137h-10.37a1.64,1.64,0,0,1-1.63-1.63V124.82a1.64,1.64,0,0,1,1.63-1.63h10.37a1.64,1.64,0,0,1,1.63,1.63v10.59a1.64,1.64,0,0,1-1.63,1.63"/>
    </clipPath>
    <clipPath id="clip-path-11">
      <path class="cls-1" d="M-637.93,137H-648.3a1.64,1.64,0,0,1-1.63-1.63V124.82a1.64,1.64,0,0,1,1.63-1.63h10.37a1.64,1.64,0,0,1,1.63,1.63v10.59a1.64,1.64,0,0,1-1.63,1.63"/>
    </clipPath>
    <clipPath id="clip-path-12">
      <path class="cls-1" d="M-651.56,149.75h-10.37a1.64,1.64,0,0,1-1.63-1.63V137.52a1.64,1.64,0,0,1,1.63-1.63h10.37a1.64,1.64,0,0,1,1.63,1.63v10.59a1.64,1.64,0,0,1-1.63,1.63"/>
    </clipPath>
    <clipPath id="clip-path-13">
      <path class="cls-1" d="M-637.93,149.75H-648.3a1.64,1.64,0,0,1-1.63-1.63V137.52a1.64,1.64,0,0,1,1.63-1.63h10.37a1.64,1.64,0,0,1,1.63,1.63v10.59a1.64,1.64,0,0,1-1.63,1.63"/>
    </clipPath>
    <clipPath id="clip-path-14">
      <path class="cls-1" d="M-649.47,140.53l0,0v0h0"/>
    </clipPath>
    <clipPath id="clip-path-15">
      <path class="cls-1" d="M-660,130.69h2.11v2.1a.82.82,0,0,0,.82.82.82.82,0,0,0,.82-.82v-2.1h2.1a.82.82,0,0,0,.82-.82.82.82,0,0,0-.82-.82h-2.1v-2.1a.82.82,0,0,0-.82-.82.82.82,0,0,0-.82.82V129H-660a.82.82,0,0,0-.82.82.82.82,0,0,0,.82.82"/>
    </clipPath>
    <clipPath id="clip-path-16">
      <path class="cls-1" d="M-645.81,130.69H-640a.82.82,0,0,0,.82-.82A.82.82,0,0,0-640,129h-5.85a.82.82,0,0,0-.82.82.82.82,0,0,0,.82.82"/>
    </clipPath>
    <clipPath id="clip-path-17">
      <path class="cls-1" d="M-655.89,143.67l1.49-1.49a.82.82,0,0,0,0-1.16.82.82,0,0,0-1.16,0l-1.49,1.49-1.49-1.49a.82.82,0,0,0-1.16,0,.82.82,0,0,0,0,1.16l1.49,1.49-1.49,1.49a.82.82,0,0,0,0,1.16.81.81,0,0,0,.58.24.81.81,0,0,0,.58-.24l1.49-1.49,1.49,1.49a.82.82,0,0,0,.58.24.82.82,0,0,0,.58-.24.82.82,0,0,0,0-1.16Z"/>
    </clipPath>
    <clipPath id="clip-path-18">
      <path class="cls-1" d="M-640,141.32h-5.85a.82.82,0,0,0-.82.82.82.82,0,0,0,.82.82H-640a.82.82,0,0,0,.82-.82.82.82,0,0,0-.82-.82"/>
    </clipPath>
    <clipPath id="clip-path-19">
      <path class="cls-1" d="M-640,144.38h-5.85a.82.82,0,0,0-.82.82.82.82,0,0,0,.82.82H-640a.82.82,0,0,0,.82-.82.82.82,0,0,0-.82-.82"/>
    </clipPath>
    <clipPath id="clip-path-20">
      <path class="cls-1" d="M-368.76,137a22.51,22.51,0,0,0,22.49,22.48A22.52,22.52,0,0,0-323.77,137a22.52,22.52,0,0,0-22.5-22.49A22.52,22.52,0,0,0-368.76,137"/>
    </clipPath>
    <clipPath id="clip-path-21">
      <path class="cls-1" d="M-347.56,137h-10.37a1.64,1.64,0,0,1-1.63-1.63V124.82a1.64,1.64,0,0,1,1.63-1.63h10.37a1.64,1.64,0,0,1,1.63,1.63v10.59a1.64,1.64,0,0,1-1.63,1.63"/>
    </clipPath>
    <clipPath id="clip-path-22">
      <path class="cls-1" d="M-333.93,137H-344.3a1.64,1.64,0,0,1-1.63-1.63V124.82a1.64,1.64,0,0,1,1.63-1.63h10.37a1.64,1.64,0,0,1,1.63,1.63v10.59a1.64,1.64,0,0,1-1.63,1.63"/>
    </clipPath>
    <clipPath id="clip-path-23">
      <path class="cls-1" d="M-347.56,149.75h-10.37a1.64,1.64,0,0,1-1.63-1.63V137.52a1.64,1.64,0,0,1,1.63-1.63h10.37a1.64,1.64,0,0,1,1.63,1.63v10.59a1.64,1.64,0,0,1-1.63,1.63"/>
    </clipPath>
    <clipPath id="clip-path-24">
      <path class="cls-1" d="M-333.93,149.75H-344.3a1.64,1.64,0,0,1-1.63-1.63V137.52a1.64,1.64,0,0,1,1.63-1.63h10.37a1.64,1.64,0,0,1,1.63,1.63v10.59a1.64,1.64,0,0,1-1.63,1.63"/>
    </clipPath>
    <clipPath id="clip-path-25">
      <path class="cls-1" d="M-345.47,140.53l0,0v0h0"/>
    </clipPath>
    <clipPath id="clip-path-26">
      <path class="cls-1" d="M-356,130.69h2.11v2.1a.82.82,0,0,0,.82.82.82.82,0,0,0,.82-.82v-2.1h2.1a.82.82,0,0,0,.82-.82.82.82,0,0,0-.82-.82h-2.1v-2.1a.82.82,0,0,0-.82-.82.82.82,0,0,0-.82.82V129H-356a.82.82,0,0,0-.82.82.82.82,0,0,0,.82.82"/>
    </clipPath>
    <clipPath id="clip-path-27">
      <path class="cls-1" d="M-341.81,130.69H-336a.82.82,0,0,0,.82-.82A.82.82,0,0,0-336,129h-5.85a.82.82,0,0,0-.82.82.82.82,0,0,0,.82.82"/>
    </clipPath>
    <clipPath id="clip-path-28">
      <path class="cls-1" d="M-351.89,143.67l1.49-1.49a.82.82,0,0,0,0-1.16.82.82,0,0,0-1.16,0l-1.49,1.49-1.49-1.49a.82.82,0,0,0-1.16,0,.82.82,0,0,0,0,1.16l1.49,1.49-1.49,1.49a.82.82,0,0,0,0,1.16.81.81,0,0,0,.58.24.81.81,0,0,0,.58-.24l1.49-1.49,1.49,1.49a.82.82,0,0,0,.58.24.82.82,0,0,0,.58-.24.82.82,0,0,0,0-1.16Z"/>
    </clipPath>
    <clipPath id="clip-path-29">
      <path class="cls-1" d="M-336,141.32h-5.85a.82.82,0,0,0-.82.82.82.82,0,0,0,.82.82H-336a.82.82,0,0,0,.82-.82.82.82,0,0,0-.82-.82"/>
    </clipPath>
    <clipPath id="clip-path-30">
      <path class="cls-1" d="M-336,144.38h-5.85a.82.82,0,0,0-.82.82.82.82,0,0,0,.82.82H-336a.82.82,0,0,0,.82-.82.82.82,0,0,0-.82-.82"/>
    </clipPath>
    <clipPath id="clip-path-31">
      <path class="cls-1" d="M-99.48,137A22.51,22.51,0,0,0-77,159.45,22.52,22.52,0,0,0-54.49,137,22.52,22.52,0,0,0-77,114.48,22.52,22.52,0,0,0-99.48,137"/>
    </clipPath>
    <clipPath id="clip-path-32">
      <path class="cls-1" d="M-78.28,137H-88.65a1.64,1.64,0,0,1-1.63-1.63V124.82a1.64,1.64,0,0,1,1.63-1.63h10.37a1.64,1.64,0,0,1,1.63,1.63v10.59A1.64,1.64,0,0,1-78.28,137"/>
    </clipPath>
    <clipPath id="clip-path-33">
      <path class="cls-1" d="M-64.65,137H-75a1.64,1.64,0,0,1-1.63-1.63V124.82A1.64,1.64,0,0,1-75,123.19h10.37A1.64,1.64,0,0,1-63,124.82v10.59A1.64,1.64,0,0,1-64.65,137"/>
    </clipPath>
    <clipPath id="clip-path-34">
      <path class="cls-1" d="M-78.28,149.75H-88.65a1.64,1.64,0,0,1-1.63-1.63V137.52a1.64,1.64,0,0,1,1.63-1.63h10.37a1.64,1.64,0,0,1,1.63,1.63v10.59a1.64,1.64,0,0,1-1.63,1.63"/>
    </clipPath>
    <clipPath id="clip-path-35">
      <path class="cls-1" d="M-64.65,149.75H-75a1.64,1.64,0,0,1-1.63-1.63V137.52A1.64,1.64,0,0,1-75,135.89h10.37A1.64,1.64,0,0,1-63,137.52v10.59a1.64,1.64,0,0,1-1.63,1.63"/>
    </clipPath>
    <clipPath id="clip-path-36">
      <path class="cls-1" d="M-76.2,140.53l0,0v0h0"/>
    </clipPath>
    <clipPath id="clip-path-37">
      <path class="cls-1" d="M-86.7,130.69h2.11v2.1a.82.82,0,0,0,.82.82.82.82,0,0,0,.82-.82v-2.1h2.1a.82.82,0,0,0,.82-.82.82.82,0,0,0-.82-.82H-83v-2.1a.82.82,0,0,0-.82-.82.82.82,0,0,0-.82.82V129H-86.7a.82.82,0,0,0-.82.82.82.82,0,0,0,.82.82"/>
    </clipPath>
    <clipPath id="clip-path-38">
      <path class="cls-1" d="M-72.53,130.69h5.85a.82.82,0,0,0,.82-.82.82.82,0,0,0-.82-.82h-5.85a.82.82,0,0,0-.82.82.82.82,0,0,0,.82.82"/>
    </clipPath>
    <clipPath id="clip-path-39">
      <path class="cls-1" d="M-82.61,143.67l1.49-1.49a.82.82,0,0,0,0-1.16.82.82,0,0,0-1.16,0l-1.49,1.49L-85.26,141a.82.82,0,0,0-1.16,0,.82.82,0,0,0,0,1.16l1.49,1.49-1.49,1.49a.82.82,0,0,0,0,1.16.81.81,0,0,0,.58.24.81.81,0,0,0,.58-.24l1.49-1.49,1.49,1.49a.82.82,0,0,0,.58.24.82.82,0,0,0,.58-.24.82.82,0,0,0,0-1.16Z"/>
    </clipPath>
    <clipPath id="clip-path-40">
      <path class="cls-1" d="M-66.67,141.32h-5.85a.82.82,0,0,0-.82.82.82.82,0,0,0,.82.82h5.85a.82.82,0,0,0,.82-.82.82.82,0,0,0-.82-.82"/>
    </clipPath>
    <clipPath id="clip-path-41">
      <path class="cls-1" d="M-66.67,144.38h-5.85a.82.82,0,0,0-.82.82.82.82,0,0,0,.82.82h5.85a.82.82,0,0,0,.82-.82.82.82,0,0,0-.82-.82"/>
    </clipPath>
  </defs>
  <title>
    WOL Icons v1_aj
  </title>
  <g id="affordability">
    <g class="cls-6">
      <g class="cls-7">
        <path class="cls-8" d="M32.52 24.89H192.39000000000001V184.33999999999997H32.52z"/>
      </g>
    </g>
    <path class="cls-9" d="M112.45,179.34c41.27,0,74.93-33.57,74.93-74.73s-33.66-74.73-74.93-74.73S37.52,63.46,37.52,104.62,71.18,179.34,112.45,179.34Z"/>
    <path class="cls-10" d="M21.1,104.45c0,50.09,41,90.95,91.2,90.95s91.2-40.86,91.2-90.95-41-90.95-91.2-90.95S21.1,54.36,21.1,104.45"/>
    <g class="cls-11">
      <g class="cls-12">
        <g class="cls-11"/>
      </g>
    </g>
  </g>
  <g id="FastTrack">
    <path class="cls-13" d="M132.06,89.56a1.63,1.63,0,0,1,1.55,2.21l-17,42.2a1.6,1.6,0,0,0,0,1.17l5.22,13.3a1.69,1.69,0,0,0,3.11,0l27.72-69.07a1.63,1.63,0,0,0-1.55-2.21l-78.49,0a1.62,1.62,0,0,0-1.27,2.68l8,9.15a1.69,1.69,0,0,0,1.26.57Z"/>
    <path class="cls-14" d="M118.45,95.64H67.36a1.63,1.63,0,0,0-1.27,2.7L76.3,109a1.68,1.68,0,0,0,1.26.57H97.93c1.17,0,4.21,1.1,3.28,5.09l-6.85,17.88-.78,2.43c0,.06,0,.11,0,.16l0,.08s0,0,0,.07,0,.14,0,.2a1.66,1.66,0,0,0,0,.21,1.78,1.78,0,0,0,0,.2v.06a1.51,1.51,0,0,0,.06.31h0a1.56,1.56,0,0,0,.07.2l.06.1v0L95,138.8l.55,1,4.85,8.94c1,1.48,2.55,1.4,3.11,0l19.06-47.52C122.95,100.12,123,95.64,118.45,95.64Z"/>
  </g>
</svg>
