<svg xmlns="http://www.w3.org/2000/svg" viewBox="0 0 220 260">
  <defs>
    <style>
      .cls-1,.cls-10,.cls-17,.cls-2,.cls-21,.cls-45,.cls-47,.cls-62,.cls-9{fill:none;}.cls-1{clip-rule:evenodd;}.cls-3{clip-path:url(#clip-path);}.cls-4{clip-path:url(#clip-path-2);}.cls-5{clip-path:url(#clip-path-3);}.cls-6{clip-path:url(#clip-path-4);}.cls-7{clip-path:url(#clip-path-5);}.cls-19,.cls-20,.cls-8{fill:#fff;}.cls-10,.cls-47,.cls-9{stroke:#e2e5e7;}.cls-10,.cls-15,.cls-16,.cls-18,.cls-19,.cls-20,.cls-21,.cls-45,.cls-47,.cls-62,.cls-9{stroke-miterlimit:10;}.cls-9{stroke-width:2.73px;}.cls-10{stroke-width:1.82px;}.cls-11{clip-path:url(#clip-path-6);}.cls-12{clip-path:url(#clip-path-7);}.cls-13{fill:#3c474e;}.cls-14{fill:#7c878e;}.cls-15,.cls-53{fill:#15a3b2;}.cls-15,.cls-16,.cls-17,.cls-18,.cls-19,.cls-20,.cls-21,.cls-62{stroke:#7c878e;}.cls-16,.cls-51{fill:#f2bc47;}.cls-17{stroke-linecap:round;stroke-linejoin:round;}.cls-18,.cls-49{fill:#69d2dc;}.cls-19{stroke-width:0.5px;}.cls-22{clip-path:url(#clip-path-9);}.cls-23{clip-path:url(#clip-path-10);}.cls-24{clip-path:url(#clip-path-11);}.cls-25{clip-path:url(#clip-path-12);}.cls-26{clip-path:url(#clip-path-13);}.cls-27{clip-path:url(#clip-path-14);}.cls-28{clip-path:url(#clip-path-15);}.cls-29{clip-path:url(#clip-path-16);}.cls-30{clip-path:url(#clip-path-17);}.cls-31{clip-path:url(#clip-path-18);}.cls-32{clip-path:url(#clip-path-19);}.cls-33{clip-path:url(#clip-path-20);}.cls-34{clip-path:url(#clip-path-21);}.cls-35{clip-path:url(#clip-path-22);}.cls-36{clip-path:url(#clip-path-23);}.cls-37{clip-path:url(#clip-path-24);}.cls-38{clip-path:url(#clip-path-25);}.cls-39{clip-path:url(#clip-path-26);}.cls-40{clip-path:url(#clip-path-27);}.cls-41{clip-path:url(#clip-path-28);}.cls-42{clip-path:url(#clip-path-29);}.cls-43{clip-path:url(#clip-path-30);}.cls-44{clip-path:url(#clip-path-31);}.cls-45{stroke:#7b878e;stroke-width:1.68px;}.cls-46{clip-path:url(#clip-path-32);}.cls-47{stroke-width:2px;}.cls-48{clip-path:url(#clip-path-34);}.cls-50{clip-path:url(#clip-path-36);}.cls-52{clip-path:url(#clip-path-38);}.cls-54{clip-path:url(#clip-path-40);}.cls-55{fill:#f39200;}.cls-56{clip-path:url(#clip-path-42);}.cls-57{clip-path:url(#clip-path-44);}.cls-58{clip-path:url(#clip-path-46);}.cls-59{clip-path:url(#clip-path-48);}.cls-60{clip-path:url(#clip-path-50);}.cls-61{clip-path:url(#clip-path-52);}.cls-62{stroke-width:1.56px;}.cls-63{clip-path:url(#clip-path-54);}.cls-64{clip-path:url(#clip-path-55);}.cls-65{clip-path:url(#clip-path-56);}.cls-66{clip-path:url(#clip-path-57);}.cls-67{clip-path:url(#clip-path-58);}.cls-68{clip-path:url(#clip-path-59);}.cls-69{clip-path:url(#clip-path-60);}.cls-70{clip-path:url(#clip-path-61);}.cls-71{clip-path:url(#clip-path-62);}.cls-72{clip-path:url(#clip-path-63);}.cls-73{clip-path:url(#clip-path-64);}
    </style>
    <clipPath id="clip-path">
      <path class="cls-1" d="M-392.65,181.34c41.27,0,74.93-33.57,74.93-74.73s-33.66-74.73-74.93-74.73-74.93,33.57-74.93,74.73S-433.92,181.34-392.65,181.34Z"/>
    </clipPath>
    <clipPath id="clip-path-2">
      <path class="cls-1" d="M-421.7,70.13s48.35-1,55.45.91c8.42,2.25,12.48,16.09,13.41,19.37s-86.57,6.43-83.32-3.35c1.52-4.57,10.71-16,14.46-16.92"/>
    </clipPath>
    <clipPath id="clip-path-3">
      <path class="cls-1" d="M-139.22,178.34c41.27,0,74.93-33.57,74.93-74.73s-33.66-74.73-74.93-74.73-74.93,33.57-74.93,74.73S-180.49,178.34-139.22,178.34Z"/>
    </clipPath>
    <clipPath id="clip-path-4">
      <path class="cls-1" d="M112.45,179.34c41.27,0,74.93-33.57,74.93-74.73s-33.66-74.73-74.93-74.73S37.52,63.46,37.52,104.62,71.18,179.34,112.45,179.34Z"/>
    </clipPath>
    <clipPath id="clip-path-5">
      <path class="cls-2" d="M-387.7 -428.5H1052.3V1064.5H-387.7z"/>
    </clipPath>
    <clipPath id="clip-path-6">
      <path class="cls-2" d="M-7.7 217.5H232.3V243.5H-7.7z"/>
    </clipPath>
    <clipPath id="clip-path-7">
      <path class="cls-2" d="M-0.7 217.5H225.3V241.5H-0.7z"/>
    </clipPath>
    <clipPath id="clip-path-9">
      <path class="cls-1" d="M416.45,179.34c41.27,0,74.93-33.57,74.93-74.73s-33.66-74.73-74.93-74.73-74.93,33.57-74.93,74.73S375.18,179.34,416.45,179.34Z"/>
    </clipPath>
    <clipPath id="clip-path-10">
      <path class="cls-1" d="M-362.58,139a22.51,22.51,0,0,0,22.49,22.48A22.52,22.52,0,0,0-317.59,139a22.52,22.52,0,0,0-22.5-22.49A22.52,22.52,0,0,0-362.58,139"/>
    </clipPath>
    <clipPath id="clip-path-11">
      <path class="cls-1" d="M-341.38,139h-10.37a1.64,1.64,0,0,1-1.63-1.63V126.82a1.64,1.64,0,0,1,1.63-1.63h10.37a1.64,1.64,0,0,1,1.63,1.63v10.59a1.64,1.64,0,0,1-1.63,1.63"/>
    </clipPath>
    <clipPath id="clip-path-12">
      <path class="cls-1" d="M-327.75,139h-10.37a1.64,1.64,0,0,1-1.63-1.63V126.82a1.64,1.64,0,0,1,1.63-1.63h10.37a1.64,1.64,0,0,1,1.63,1.63v10.59a1.64,1.64,0,0,1-1.63,1.63"/>
    </clipPath>
    <clipPath id="clip-path-13">
      <path class="cls-1" d="M-341.38,151.75h-10.37a1.64,1.64,0,0,1-1.63-1.63V139.52a1.64,1.64,0,0,1,1.63-1.63h10.37a1.64,1.64,0,0,1,1.63,1.63v10.59a1.64,1.64,0,0,1-1.63,1.63"/>
    </clipPath>
    <clipPath id="clip-path-14">
      <path class="cls-1" d="M-327.75,151.75h-10.37a1.64,1.64,0,0,1-1.63-1.63V139.52a1.64,1.64,0,0,1,1.63-1.63h10.37a1.64,1.64,0,0,1,1.63,1.63v10.59a1.64,1.64,0,0,1-1.63,1.63"/>
    </clipPath>
    <clipPath id="clip-path-15">
      <path class="cls-1" d="M-339.3,142.53l0,0v0h0"/>
    </clipPath>
    <clipPath id="clip-path-16">
      <path class="cls-1" d="M-349.8,132.69h2.11v2.1a.82.82,0,0,0,.82.82.82.82,0,0,0,.82-.82v-2.1h2.1a.82.82,0,0,0,.82-.82.82.82,0,0,0-.82-.82H-346v-2.1a.82.82,0,0,0-.82-.82.82.82,0,0,0-.82.82V131h-2.11a.82.82,0,0,0-.82.82.82.82,0,0,0,.82.82"/>
    </clipPath>
    <clipPath id="clip-path-17">
      <path class="cls-1" d="M-335.63,132.69h5.85a.82.82,0,0,0,.82-.82.82.82,0,0,0-.82-.82h-5.85a.82.82,0,0,0-.82.82.82.82,0,0,0,.82.82"/>
    </clipPath>
    <clipPath id="clip-path-18">
      <path class="cls-1" d="M-345.71,145.67l1.49-1.49a.82.82,0,0,0,0-1.16.82.82,0,0,0-1.16,0l-1.49,1.49-1.49-1.49a.82.82,0,0,0-1.16,0,.82.82,0,0,0,0,1.16l1.49,1.49-1.49,1.49a.82.82,0,0,0,0,1.16.81.81,0,0,0,.58.24.81.81,0,0,0,.58-.24l1.49-1.49,1.49,1.49a.82.82,0,0,0,.58.24.82.82,0,0,0,.58-.24.82.82,0,0,0,0-1.16Z"/>
    </clipPath>
    <clipPath id="clip-path-19">
      <path class="cls-1" d="M-329.77,143.32h-5.85a.82.82,0,0,0-.82.82.82.82,0,0,0,.82.82h5.85a.82.82,0,0,0,.82-.82.82.82,0,0,0-.82-.82"/>
    </clipPath>
    <clipPath id="clip-path-20">
      <path class="cls-1" d="M-329.77,146.38h-5.85a.82.82,0,0,0-.82.82.82.82,0,0,0,.82.82h5.85a.82.82,0,0,0,.82-.82.82.82,0,0,0-.82-.82"/>
    </clipPath>
    <clipPath id="clip-path-21">
      <path class="cls-1" d="M-109.14,136a22.51,22.51,0,0,0,22.49,22.48A22.52,22.52,0,0,0-64.15,136a22.52,22.52,0,0,0-22.5-22.49A22.52,22.52,0,0,0-109.14,136"/>
    </clipPath>
    <clipPath id="clip-path-22">
      <path class="cls-1" d="M-87.95,136H-98.32a1.64,1.64,0,0,1-1.63-1.63V123.82a1.64,1.64,0,0,1,1.63-1.63h10.37a1.64,1.64,0,0,1,1.63,1.63v10.59A1.64,1.64,0,0,1-87.95,136"/>
    </clipPath>
    <clipPath id="clip-path-23">
      <path class="cls-1" d="M-74.32,136H-84.69a1.64,1.64,0,0,1-1.63-1.63V123.82a1.64,1.64,0,0,1,1.63-1.63h10.37a1.64,1.64,0,0,1,1.63,1.63v10.59A1.64,1.64,0,0,1-74.32,136"/>
    </clipPath>
    <clipPath id="clip-path-24">
      <path class="cls-1" d="M-87.95,148.75H-98.32a1.64,1.64,0,0,1-1.63-1.63V136.52a1.64,1.64,0,0,1,1.63-1.63h10.37a1.64,1.64,0,0,1,1.63,1.63v10.59a1.64,1.64,0,0,1-1.63,1.63"/>
    </clipPath>
    <clipPath id="clip-path-25">
      <path class="cls-1" d="M-74.32,148.75H-84.69a1.64,1.64,0,0,1-1.63-1.63V136.52a1.64,1.64,0,0,1,1.63-1.63h10.37a1.64,1.64,0,0,1,1.63,1.63v10.59a1.64,1.64,0,0,1-1.63,1.63"/>
    </clipPath>
    <clipPath id="clip-path-26">
      <path class="cls-1" d="M-85.86,139.53l0,0v0h0"/>
    </clipPath>
    <clipPath id="clip-path-27">
      <path class="cls-1" d="M-96.37,129.69h2.11v2.1a.82.82,0,0,0,.82.82.82.82,0,0,0,.82-.82v-2.1h2.1a.82.82,0,0,0,.82-.82.82.82,0,0,0-.82-.82h-2.1v-2.1a.82.82,0,0,0-.82-.82.82.82,0,0,0-.82.82V128h-2.11a.82.82,0,0,0-.82.82.82.82,0,0,0,.82.82"/>
    </clipPath>
    <clipPath id="clip-path-28">
      <path class="cls-1" d="M-82.19,129.69h5.85a.82.82,0,0,0,.82-.82.82.82,0,0,0-.82-.82h-5.85a.82.82,0,0,0-.82.82.82.82,0,0,0,.82.82"/>
    </clipPath>
    <clipPath id="clip-path-29">
      <path class="cls-1" d="M-92.28,142.67l1.49-1.49a.82.82,0,0,0,0-1.16A.82.82,0,0,0-92,140l-1.49,1.49L-94.93,140a.82.82,0,0,0-1.16,0,.82.82,0,0,0,0,1.16l1.49,1.49-1.49,1.49a.82.82,0,0,0,0,1.16.81.81,0,0,0,.58.24.81.81,0,0,0,.58-.24l1.49-1.49,1.49,1.49a.82.82,0,0,0,.58.24.82.82,0,0,0,.58-.24.82.82,0,0,0,0-1.16Z"/>
    </clipPath>
    <clipPath id="clip-path-30">
      <path class="cls-1" d="M-76.34,140.32h-5.85a.82.82,0,0,0-.82.82.82.82,0,0,0,.82.82h5.85a.82.82,0,0,0,.82-.82.82.82,0,0,0-.82-.82"/>
    </clipPath>
    <clipPath id="clip-path-31">
      <path class="cls-1" d="M-76.34,143.38h-5.85a.82.82,0,0,0-.82.82.82.82,0,0,0,.82.82h5.85a.82.82,0,0,0,.82-.82.82.82,0,0,0-.82-.82"/>
    </clipPath>
    <clipPath id="clip-path-32">
      <path class="cls-1" d="M142.52,137A22.5,22.5,0,1,0,165,114.48,22.51,22.51,0,0,0,142.52,137"/>
    </clipPath>
    <clipPath id="clip-path-34">
      <path class="cls-1" d="M163.72,137H153.35a1.64,1.64,0,0,1-1.63-1.63V124.82a1.64,1.64,0,0,1,1.63-1.63h10.37a1.64,1.64,0,0,1,1.63,1.63v10.59a1.64,1.64,0,0,1-1.63,1.63"/>
    </clipPath>
    <clipPath id="clip-path-36">
      <path class="cls-1" d="M177.35,137H167a1.64,1.64,0,0,1-1.63-1.63V124.82a1.64,1.64,0,0,1,1.63-1.63h10.37a1.64,1.64,0,0,1,1.63,1.63v10.59a1.64,1.64,0,0,1-1.63,1.63"/>
    </clipPath>
    <clipPath id="clip-path-38">
      <path class="cls-1" d="M163.72,149.75H153.35a1.64,1.64,0,0,1-1.63-1.63V137.52a1.64,1.64,0,0,1,1.63-1.63h10.37a1.64,1.64,0,0,1,1.63,1.63v10.59a1.64,1.64,0,0,1-1.63,1.63"/>
    </clipPath>
    <clipPath id="clip-path-40">
      <path class="cls-1" d="M177.35,149.75H167a1.64,1.64,0,0,1-1.63-1.63V137.52a1.64,1.64,0,0,1,1.63-1.63h10.37a1.64,1.64,0,0,1,1.63,1.63v10.59a1.64,1.64,0,0,1-1.63,1.63"/>
    </clipPath>
    <clipPath id="clip-path-42">
      <path class="cls-1" d="M165.8,140.53l0,0v0h0"/>
    </clipPath>
    <clipPath id="clip-path-44">
      <path class="cls-1" d="M155.3,130.69h2.11v2.1a.82.82,0,0,0,1.64,0v-2.1h2.1a.82.82,0,1,0,0-1.64H159v-2.1a.82.82,0,1,0-1.64,0V129H155.3a.82.82,0,0,0,0,1.64"/>
    </clipPath>
    <clipPath id="clip-path-46">
      <path class="cls-1" d="M169.47,130.69h5.85a.82.82,0,0,0,0-1.64h-5.85a.82.82,0,1,0,0,1.64"/>
    </clipPath>
    <clipPath id="clip-path-48">
      <path class="cls-1" d="M159.39,143.67l1.49-1.49a.82.82,0,1,0-1.16-1.16l-1.49,1.49L156.74,141a.82.82,0,0,0-1.16,1.16l1.49,1.49-1.49,1.49a.82.82,0,1,0,1.16,1.16l1.49-1.49,1.49,1.49a.82.82,0,1,0,1.16-1.16Z"/>
    </clipPath>
    <clipPath id="clip-path-50">
      <path class="cls-1" d="M175.33,141.32h-5.85a.82.82,0,1,0,0,1.64h5.85a.82.82,0,1,0,0-1.64"/>
    </clipPath>
    <clipPath id="clip-path-52">
      <path class="cls-1" d="M175.33,144.38h-5.85a.82.82,0,1,0,0,1.64h5.85a.82.82,0,1,0,0-1.64"/>
    </clipPath>
    <clipPath id="clip-path-54">
      <path class="cls-1" d="M446.52,137A22.5,22.5,0,1,0,469,114.48,22.51,22.51,0,0,0,446.52,137"/>
    </clipPath>
    <clipPath id="clip-path-55">
      <path class="cls-1" d="M467.72,137H457.35a1.64,1.64,0,0,1-1.63-1.63V124.82a1.64,1.64,0,0,1,1.63-1.63h10.37a1.64,1.64,0,0,1,1.63,1.63v10.59a1.64,1.64,0,0,1-1.63,1.63"/>
    </clipPath>
    <clipPath id="clip-path-56">
      <path class="cls-1" d="M481.35,137H471a1.64,1.64,0,0,1-1.63-1.63V124.82a1.64,1.64,0,0,1,1.63-1.63h10.37a1.64,1.64,0,0,1,1.63,1.63v10.59a1.64,1.64,0,0,1-1.63,1.63"/>
    </clipPath>
    <clipPath id="clip-path-57">
      <path class="cls-1" d="M467.72,149.75H457.35a1.64,1.64,0,0,1-1.63-1.63V137.52a1.64,1.64,0,0,1,1.63-1.63h10.37a1.64,1.64,0,0,1,1.63,1.63v10.59a1.64,1.64,0,0,1-1.63,1.63"/>
    </clipPath>
    <clipPath id="clip-path-58">
      <path class="cls-1" d="M481.35,149.75H471a1.64,1.64,0,0,1-1.63-1.63V137.52a1.64,1.64,0,0,1,1.63-1.63h10.37a1.64,1.64,0,0,1,1.63,1.63v10.59a1.64,1.64,0,0,1-1.63,1.63"/>
    </clipPath>
    <clipPath id="clip-path-59">
      <path class="cls-1" d="M469.8,140.53l0,0v0h0"/>
    </clipPath>
    <clipPath id="clip-path-60">
      <path class="cls-1" d="M459.3,130.69h2.11v2.1a.82.82,0,0,0,1.64,0v-2.1h2.1a.82.82,0,1,0,0-1.64H463v-2.1a.82.82,0,1,0-1.64,0V129H459.3a.82.82,0,0,0,0,1.64"/>
    </clipPath>
    <clipPath id="clip-path-61">
      <path class="cls-1" d="M473.47,130.69h5.85a.82.82,0,0,0,0-1.64h-5.85a.82.82,0,1,0,0,1.64"/>
    </clipPath>
    <clipPath id="clip-path-62">
      <path class="cls-1" d="M463.39,143.67l1.49-1.49a.82.82,0,0,0-1.16-1.16l-1.49,1.49L460.74,141a.82.82,0,0,0-1.16,1.16l1.49,1.49-1.49,1.49a.82.82,0,1,0,1.16,1.16l1.49-1.49,1.49,1.49a.82.82,0,1,0,1.16-1.16Z"/>
    </clipPath>
    <clipPath id="clip-path-63">
      <path class="cls-1" d="M479.33,141.32h-5.85a.82.82,0,1,0,0,1.64h5.85a.82.82,0,1,0,0-1.64"/>
    </clipPath>
    <clipPath id="clip-path-64">
      <path class="cls-1" d="M479.33,144.38h-5.85a.82.82,0,1,0,0,1.64h5.85a.82.82,0,1,0,0-1.64"/>
    </clipPath>
  </defs>
  <title>
    WOL Icons v1_aj
  </title>
  <g id="affordability">
    <g class="cls-6">
      <g class="cls-7">
        <path class="cls-8" d="M32.52 24.89H192.39000000000001V184.33999999999997H32.52z"/>
      </g>
    </g>
    <path class="cls-9" d="M112.45,179.34c41.27,0,74.93-33.57,74.93-74.73s-33.66-74.73-74.93-74.73S37.52,63.46,37.52,104.62,71.18,179.34,112.45,179.34Z"/>
    <path class="cls-10" d="M21.1,104.45c0,50.09,41,90.95,91.2,90.95s91.2-40.86,91.2-90.95-41-90.95-91.2-90.95S21.1,54.36,21.1,104.45"/>
    <g class="cls-11">
      <g class="cls-12">
        <g class="cls-11"/>
      </g>
    </g>
    <rect class="cls-8" x="125.34" y="60.73" width="19" height="32.64" rx="2" ry="2" transform="translate(20.53 -28.08) rotate(12.86)"/>
    <rect class="cls-13" x="127.82" y="64.01" width="15" height="23.32" rx="1" ry="1" transform="translate(20.24 -28.22) rotate(12.86)"/>
    <path class="cls-14" d="M140.52,95.47l-18.45-4.21a.36.36,0,0,1-.27-.43L129,59.08a.36.36,0,0,1,.43-.27L147.92,63a.36.36,0,0,1,.27.43l-5.26,23a.36.36,0,1,1-.7-.16l5.18-22.67-17.76-4.05-7.09,31,17.76,4.05,2.1-9.22a.36.36,0,0,1,.7.16l-2.18,9.57A.36.36,0,0,1,140.52,95.47Z"/>
    <path class="cls-14" d="M140 88.77l-14.48-3.31a.21.21 0 0 1-.16-.25l5.14-22.52a.21.21 0 0 1 .25-.16l14.48 3.31a.21.21 0 0 1 .16.25l-4.57 20a.21.21 0 1 1-.41-.09l4.53-19.83L130.82 63l-5 22.11 14.07 3.21.77-3.39A.21.21 0 0 1 141 85l-.82 3.59A.21.21 0 0 1 140 88.77zM131.71 91.51a1.59 1.59 0 1 1 1.91-1.2A1.59 1.59 0 0 1 131.71 91.51zm.62-2.69a1.17 1.17 0 1 0 .88 1.4A1.17 1.17 0 0 0 132.33 88.82zM139 63.42L137.34 63a.21.21 0 0 1 .09-.41l1.66.38a.21.21 0 0 1-.09.41zM137.78 91.48l-2.36-.54a.21.21 0 0 1 .09-.41l2.36.54a.21.21 0 1 1-.09.41zM128.55 89.37l-2.36-.54a.21.21 0 0 1 .09-.41l2.36.54a.21.21 0 1 1-.09.41z"/>
    <path class="cls-15" d="M102.83,64.54a6.59,6.59,0,0,0-4.32-1.46,11.21,11.21,0,0,0-2,.32A9.54,9.54,0,0,0,99,58.85a.51.51,0,0,0-.55-.6A7,7,0,0,0,94.52,60a6.78,6.78,0,0,0-1.65,2.4,3.47,3.47,0,0,0-.68-.87,8.1,8.1,0,0,0-3.25-1.92l-.22-.07a.51.51,0,0,0-.32,1l.23.07a7.1,7.1,0,0,1,2.88,1.71,3.77,3.77,0,0,1,.94,1.92A15.06,15.06,0,0,0,88.29,63a6.65,6.65,0,0,0-5.53,1.59c-3.26,2.9-3.15,10.17.23,14.95a7.9,7.9,0,0,0,4,3.21,5.77,5.77,0,0,0,4.06-.1,6.64,6.64,0,0,1,1.74-.36,4.49,4.49,0,0,1,1.8.49,5.57,5.57,0,0,0,2.14.56,3.08,3.08,0,0,0,1.06-.19,8,8,0,0,0,4.73-3.62C105.83,74.86,106,67,102.83,64.54Z"/>
    <path class="cls-14" d="M97.77,59.41a5.3,5.3,0,0,0-2.52,1.29,4.76,4.76,0,0,0-1.71,3.61"/>
    <path class="cls-8" d="M83.41,70.69h0a.51.51,0,0,1-.48-.53,4.31,4.31,0,0,1,1.38-3.08,3.42,3.42,0,0,1,2.55-.85.51.51,0,0,1-.08,1,2.41,2.41,0,0,0-1.8.6,3.3,3.3,0,0,0-1,2.37A.51.51,0,0,1,83.41,70.69Z"/>
    <path class="cls-16" d="M132.6,37c-4.36,1.24-13.34,10.82-22.13,26.62C100,82.4,97.54,96.16,100.38,97.64a2,2,0,0,0,1.58,0c4.36-1.24,13.34-10.82,22.13-26.62A114.31,114.31,0,0,0,134,47.92c1.85-7.05,1.29-10.28.15-10.92A2.14,2.14,0,0,0,132.6,37Z"/>
    <path class="cls-17" d="M127.33 50.3s-6.18-2.17-10.2 2.67M120.23 61.75S114 59.58 110 64.43M115.55 71.45s-6.18-2.17-10.2 2.67"/>
    <path class="cls-18" d="M82.54,78.55v64.18h63.51V78.55Z"/>
    <circle class="cls-19" cx="135.19" cy="86.07" r="3.22"/>
    <circle class="cls-19" cx="93.91" cy="86.07" r="3.22"/>
    <path class="cls-14" d="M114.63,54.15c-12,0-21.73,11.63-21.73,25.93a30.2,30.2,0,0,0,.73,6.58.67.67,0,0,0,.65.52h.29V84.54h.05a28.77,28.77,0,0,1-.39-4.46c0-13.57,9.15-24.61,20.39-24.61S135,66.51,135,80.08a28.86,28.86,0,0,1-.5,5.21v1.89H135a.67.67,0,0,0,.65-.52,30.2,30.2,0,0,0,.73-6.58C136.36,65.78,126.61,54.15,114.63,54.15Z"/>
    <circle class="cls-14" cx="93.98" cy="85.82" r="1.55"/>
    <circle class="cls-14" cx="135.15" cy="85.82" r="1.55"/>
    <path class="cls-20" d="M75.52,95.93H98.68v5.93a1.51,1.51,0,0,0,.25.85l6.29,9.38v38.16l-36.24,0L69,112l6.29-9.25a1.51,1.51,0,0,0,.25-.85V95.93Z"/>
    <path class="cls-21" d="M75.02 102.39L98.53 102.39M69.15 112.97L105.16 113.05M76.2 102.39L83.25 112.97M83.25 150.58L83.25 112.97"/>
  </g>
  <g id="Layer_62" data-name="Layer 62">
    <path class="cls-45" d="M157.88,128.25c-4.88.31-9.67.65-14.37.93"/>
    <g class="cls-46">
      <g class="cls-7">
        <path class="cls-8" d="M137.52 109.48H192.51000000000002V164.45H137.52z"/>
      </g>
    </g>
    <path class="cls-47" d="M142.52,137A22.5,22.5,0,1,0,165,114.48,22.51,22.51,0,0,0,142.52,137Z"/>
    <g class="cls-48">
      <g class="cls-7">
        <path class="cls-49" d="M146.72 118.19H170.35V142.05H146.72z"/>
      </g>
    </g>
    <g class="cls-50">
      <g class="cls-7">
        <path class="cls-51" d="M160.35 118.19H183.98V142.05H160.35z"/>
      </g>
    </g>
    <g class="cls-52">
      <g class="cls-7">
        <path class="cls-53" d="M146.72 130.89H170.35V154.75H146.72z"/>
      </g>
    </g>
    <g class="cls-54">
      <g class="cls-7">
        <path class="cls-55" d="M160.35 130.89H183.98V154.75H160.35z"/>
      </g>
    </g>
    <g class="cls-56">
      <g class="cls-7">
        <path class="cls-14" d="M160.8 135.49H170.85000000000002V145.53H160.8z"/>
      </g>
    </g>
    <g class="cls-57">
      <g class="cls-7">
        <path class="cls-8" d="M149.48 121.12H166.98V138.61H149.48z"/>
      </g>
    </g>
    <g class="cls-58">
      <g class="cls-7">
        <path class="cls-8" d="M163.65 124.05H181.15V135.69H163.65z"/>
      </g>
    </g>
    <g class="cls-59">
      <g class="cls-7">
        <path class="cls-8" d="M150.34 135.78H166.12V151.56H150.34z"/>
      </g>
    </g>
    <g class="cls-60">
      <g class="cls-7">
        <path class="cls-8" d="M163.65 136.32H181.15V147.95999999999998H163.65z"/>
      </g>
    </g>
    <g class="cls-61">
      <g class="cls-7">
        <path class="cls-8" d="M163.65 139.38H181.15V151.01999999999998H163.65z"/>
      </g>
    </g>
    <path class="cls-62" d="M165.23 122.73L165.23 149.75M151.14 136.27L179.67 136.27"/>
    <rect class="cls-62" x="151.14" y="122.76" width="28.19" height="27.01" rx="3.26" ry="3.26"/>
  </g>
</svg>
