<svg xmlns="http://www.w3.org/2000/svg" viewBox="0 0 220 260">
  <defs>
    <style>
      .cls-1,.cls-15,.cls-19,.cls-2,.cls-21,.cls-37,.cls-6,.cls-7{fill:none;}.cls-1{clip-rule:evenodd;}.cls-3{clip-path:url(#clip-path);}.cls-4{clip-path:url(#clip-path-2);}.cls-14,.cls-5{fill:#fff;}.cls-21,.cls-6,.cls-7{stroke:#e2e5e7;}.cls-13,.cls-14,.cls-15,.cls-16,.cls-17,.cls-19,.cls-21,.cls-37,.cls-6,.cls-7{stroke-miterlimit:10;}.cls-6{stroke-width:2.73px;}.cls-7{stroke-width:1.82px;}.cls-8{clip-path:url(#clip-path-3);}.cls-9{clip-path:url(#clip-path-4);}.cls-10{clip-path:url(#clip-path-6);}.cls-11{clip-path:url(#clip-path-8);}.cls-12{clip-path:url(#clip-path-9);}.cls-13,.cls-23{fill:#69d2dc;}.cls-13,.cls-14,.cls-15,.cls-16,.cls-17,.cls-19{stroke:#7b878e;}.cls-16,.cls-25{fill:#f2bc47;}.cls-17{fill:#14a3b2;}.cls-18{fill:#7b878e;}.cls-19{stroke-width:1.68px;}.cls-20{clip-path:url(#clip-path-10);}.cls-21{stroke-width:2px;}.cls-22{clip-path:url(#clip-path-12);}.cls-24{clip-path:url(#clip-path-14);}.cls-26{clip-path:url(#clip-path-16);}.cls-27{fill:#15a3b2;}.cls-28{clip-path:url(#clip-path-18);}.cls-29{fill:#f39200;}.cls-30{clip-path:url(#clip-path-20);}.cls-31{fill:#7c878e;}.cls-32{clip-path:url(#clip-path-22);}.cls-33{clip-path:url(#clip-path-24);}.cls-34{clip-path:url(#clip-path-26);}.cls-35{clip-path:url(#clip-path-28);}.cls-36{clip-path:url(#clip-path-30);}.cls-37{stroke:#7c878e;stroke-width:1.56px;}.cls-38{clip-path:url(#clip-path-32);}.cls-39{clip-path:url(#clip-path-33);}.cls-40{clip-path:url(#clip-path-34);}.cls-41{clip-path:url(#clip-path-35);}.cls-42{clip-path:url(#clip-path-36);}.cls-43{clip-path:url(#clip-path-37);}.cls-44{clip-path:url(#clip-path-38);}.cls-45{clip-path:url(#clip-path-39);}.cls-46{clip-path:url(#clip-path-40);}.cls-47{clip-path:url(#clip-path-41);}.cls-48{clip-path:url(#clip-path-42);}.cls-49{clip-path:url(#clip-path-43);}.cls-50{clip-path:url(#clip-path-44);}.cls-51{clip-path:url(#clip-path-45);}.cls-52{clip-path:url(#clip-path-46);}.cls-53{clip-path:url(#clip-path-47);}.cls-54{clip-path:url(#clip-path-48);}.cls-55{clip-path:url(#clip-path-49);}.cls-56{clip-path:url(#clip-path-50);}.cls-57{clip-path:url(#clip-path-51);}.cls-58{clip-path:url(#clip-path-52);}.cls-59{clip-path:url(#clip-path-53);}
    </style>
    <clipPath id="clip-path">
      <path class="cls-1" d="M112.45,179.34c41.27,0,74.93-33.57,74.93-74.73s-33.66-74.73-74.93-74.73S37.52,63.46,37.52,104.62,71.18,179.34,112.45,179.34Z"/>
    </clipPath>
    <clipPath id="clip-path-2">
      <path class="cls-2" d="M-387.7 -428.5H1052.3V1064.5H-387.7z"/>
    </clipPath>
    <clipPath id="clip-path-3">
      <path class="cls-2" d="M-7.7 217.5H232.3V243.5H-7.7z"/>
    </clipPath>
    <clipPath id="clip-path-4">
      <path class="cls-2" d="M-0.7 217.5H225.3V241.5H-0.7z"/>
    </clipPath>
    <clipPath id="clip-path-6">
      <path class="cls-1" d="M83.4,68.13s48.35-1,55.45.91c8.42,2.25,12.48,16.09,13.41,19.37s-86.57,6.43-83.32-3.35c1.52-4.57,10.71-16,14.46-16.92"/>
    </clipPath>
    <clipPath id="clip-path-8">
      <path class="cls-1" d="M365.88,176.34c41.27,0,74.93-33.57,74.93-74.73s-33.66-74.73-74.93-74.73-74.93,33.57-74.93,74.73S324.61,176.34,365.88,176.34Z"/>
    </clipPath>
    <clipPath id="clip-path-9">
      <path class="cls-1" d="M617.55,177.34c41.27,0,74.93-33.57,74.93-74.73s-33.66-74.73-74.93-74.73-74.93,33.57-74.93,74.73S576.28,177.34,617.55,177.34Z"/>
    </clipPath>
    <clipPath id="clip-path-10">
      <path class="cls-1" d="M142.52,137A22.5,22.5,0,1,0,165,114.48,22.51,22.51,0,0,0,142.52,137"/>
    </clipPath>
    <clipPath id="clip-path-12">
      <path class="cls-1" d="M163.72,137H153.35a1.64,1.64,0,0,1-1.63-1.63V124.82a1.64,1.64,0,0,1,1.63-1.63h10.37a1.64,1.64,0,0,1,1.63,1.63v10.59a1.64,1.64,0,0,1-1.63,1.63"/>
    </clipPath>
    <clipPath id="clip-path-14">
      <path class="cls-1" d="M177.35,137H167a1.64,1.64,0,0,1-1.63-1.63V124.82a1.64,1.64,0,0,1,1.63-1.63h10.37a1.64,1.64,0,0,1,1.63,1.63v10.59a1.64,1.64,0,0,1-1.63,1.63"/>
    </clipPath>
    <clipPath id="clip-path-16">
      <path class="cls-1" d="M163.72,149.75H153.35a1.64,1.64,0,0,1-1.63-1.63V137.52a1.64,1.64,0,0,1,1.63-1.63h10.37a1.64,1.64,0,0,1,1.63,1.63v10.59a1.64,1.64,0,0,1-1.63,1.63"/>
    </clipPath>
    <clipPath id="clip-path-18">
      <path class="cls-1" d="M177.35,149.75H167a1.64,1.64,0,0,1-1.63-1.63V137.52a1.64,1.64,0,0,1,1.63-1.63h10.37a1.64,1.64,0,0,1,1.63,1.63v10.59a1.64,1.64,0,0,1-1.63,1.63"/>
    </clipPath>
    <clipPath id="clip-path-20">
      <path class="cls-1" d="M165.8,140.53l0,0v0h0"/>
    </clipPath>
    <clipPath id="clip-path-22">
      <path class="cls-1" d="M155.3,130.69h2.11v2.1a.82.82,0,0,0,1.64,0v-2.1h2.1a.82.82,0,1,0,0-1.64H159v-2.1a.82.82,0,1,0-1.64,0V129H155.3a.82.82,0,0,0,0,1.64"/>
    </clipPath>
    <clipPath id="clip-path-24">
      <path class="cls-1" d="M169.47,130.69h5.85a.82.82,0,0,0,0-1.64h-5.85a.82.82,0,1,0,0,1.64"/>
    </clipPath>
    <clipPath id="clip-path-26">
      <path class="cls-1" d="M159.39,143.67l1.49-1.49a.82.82,0,1,0-1.16-1.16l-1.49,1.49L156.74,141a.82.82,0,0,0-1.16,1.16l1.49,1.49-1.49,1.49a.82.82,0,1,0,1.16,1.16l1.49-1.49,1.49,1.49a.82.82,0,1,0,1.16-1.16Z"/>
    </clipPath>
    <clipPath id="clip-path-28">
      <path class="cls-1" d="M175.33,141.32h-5.85a.82.82,0,1,0,0,1.64h5.85a.82.82,0,1,0,0-1.64"/>
    </clipPath>
    <clipPath id="clip-path-30">
      <path class="cls-1" d="M175.33,144.38h-5.85a.82.82,0,1,0,0,1.64h5.85a.82.82,0,1,0,0-1.64"/>
    </clipPath>
    <clipPath id="clip-path-32">
      <path class="cls-1" d="M396,134a22.5,22.5,0,1,0,22.49-22.49A22.51,22.51,0,0,0,396,134"/>
    </clipPath>
    <clipPath id="clip-path-33">
      <path class="cls-1" d="M417.15,134H406.78a1.64,1.64,0,0,1-1.63-1.63V121.82a1.64,1.64,0,0,1,1.63-1.63h10.37a1.64,1.64,0,0,1,1.63,1.63v10.59a1.64,1.64,0,0,1-1.63,1.63"/>
    </clipPath>
    <clipPath id="clip-path-34">
      <path class="cls-1" d="M430.78,134H420.41a1.64,1.64,0,0,1-1.63-1.63V121.82a1.64,1.64,0,0,1,1.63-1.63h10.37a1.64,1.64,0,0,1,1.63,1.63v10.59a1.64,1.64,0,0,1-1.63,1.63"/>
    </clipPath>
    <clipPath id="clip-path-35">
      <path class="cls-1" d="M417.15,146.75H406.78a1.64,1.64,0,0,1-1.63-1.63V134.52a1.64,1.64,0,0,1,1.63-1.63h10.37a1.64,1.64,0,0,1,1.63,1.63v10.59a1.64,1.64,0,0,1-1.63,1.63"/>
    </clipPath>
    <clipPath id="clip-path-36">
      <path class="cls-1" d="M430.78,146.75H420.41a1.64,1.64,0,0,1-1.63-1.63V134.52a1.64,1.64,0,0,1,1.63-1.63h10.37a1.64,1.64,0,0,1,1.63,1.63v10.59a1.64,1.64,0,0,1-1.63,1.63"/>
    </clipPath>
    <clipPath id="clip-path-37">
      <path class="cls-1" d="M419.24,137.53l0,0v0h0"/>
    </clipPath>
    <clipPath id="clip-path-38">
      <path class="cls-1" d="M408.73,127.69h2.11v2.1a.82.82,0,0,0,1.64,0v-2.1h2.1a.82.82,0,1,0,0-1.64h-2.1v-2.1a.82.82,0,1,0-1.64,0V126h-2.11a.82.82,0,0,0,0,1.64"/>
    </clipPath>
    <clipPath id="clip-path-39">
      <path class="cls-1" d="M422.91,127.69h5.85a.82.82,0,0,0,0-1.64h-5.85a.82.82,0,1,0,0,1.64"/>
    </clipPath>
    <clipPath id="clip-path-40">
      <path class="cls-1" d="M412.82,140.67l1.49-1.49a.82.82,0,1,0-1.16-1.16l-1.49,1.49L410.17,138a.82.82,0,0,0-1.16,1.16l1.49,1.49L409,142.16a.82.82,0,1,0,1.16,1.16l1.49-1.49,1.49,1.49a.82.82,0,1,0,1.16-1.16Z"/>
    </clipPath>
    <clipPath id="clip-path-41">
      <path class="cls-1" d="M428.76,138.32h-5.85a.82.82,0,1,0,0,1.64h5.85a.82.82,0,1,0,0-1.64"/>
    </clipPath>
    <clipPath id="clip-path-42">
      <path class="cls-1" d="M428.76,141.38h-5.85a.82.82,0,1,0,0,1.64h5.85a.82.82,0,1,0,0-1.64"/>
    </clipPath>
    <clipPath id="clip-path-43">
      <path class="cls-1" d="M647.62,135a22.5,22.5,0,1,0,22.49-22.49A22.51,22.51,0,0,0,647.62,135"/>
    </clipPath>
    <clipPath id="clip-path-44">
      <path class="cls-1" d="M668.82,135H658.45a1.64,1.64,0,0,1-1.63-1.63V122.82a1.64,1.64,0,0,1,1.63-1.63h10.37a1.64,1.64,0,0,1,1.63,1.63v10.59a1.64,1.64,0,0,1-1.63,1.63"/>
    </clipPath>
    <clipPath id="clip-path-45">
      <path class="cls-1" d="M682.45,135H672.08a1.64,1.64,0,0,1-1.63-1.63V122.82a1.64,1.64,0,0,1,1.63-1.63h10.37a1.64,1.64,0,0,1,1.63,1.63v10.59a1.64,1.64,0,0,1-1.63,1.63"/>
    </clipPath>
    <clipPath id="clip-path-46">
      <path class="cls-1" d="M668.82,147.75H658.45a1.64,1.64,0,0,1-1.63-1.63V135.52a1.64,1.64,0,0,1,1.63-1.63h10.37a1.64,1.64,0,0,1,1.63,1.63v10.59a1.64,1.64,0,0,1-1.63,1.63"/>
    </clipPath>
    <clipPath id="clip-path-47">
      <path class="cls-1" d="M682.45,147.75H672.08a1.64,1.64,0,0,1-1.63-1.63V135.52a1.64,1.64,0,0,1,1.63-1.63h10.37a1.64,1.64,0,0,1,1.63,1.63v10.59a1.64,1.64,0,0,1-1.63,1.63"/>
    </clipPath>
    <clipPath id="clip-path-48">
      <path class="cls-1" d="M670.9,138.53l0,0v0h0"/>
    </clipPath>
    <clipPath id="clip-path-49">
      <path class="cls-1" d="M660.4,128.69h2.11v2.1a.82.82,0,0,0,1.64,0v-2.1h2.1a.82.82,0,1,0,0-1.64h-2.1v-2.1a.82.82,0,1,0-1.64,0V127H660.4a.82.82,0,0,0,0,1.64"/>
    </clipPath>
    <clipPath id="clip-path-50">
      <path class="cls-1" d="M674.57,128.69h5.85a.82.82,0,0,0,0-1.64h-5.85a.82.82,0,1,0,0,1.64"/>
    </clipPath>
    <clipPath id="clip-path-51">
      <path class="cls-1" d="M664.49,141.67l1.49-1.49a.82.82,0,1,0-1.16-1.16l-1.49,1.49L661.84,139a.82.82,0,1,0-1.16,1.16l1.49,1.49-1.49,1.49a.82.82,0,1,0,1.16,1.16l1.49-1.49,1.49,1.49a.82.82,0,1,0,1.16-1.16Z"/>
    </clipPath>
    <clipPath id="clip-path-52">
      <path class="cls-1" d="M680.43,139.32h-5.85a.82.82,0,1,0,0,1.64h5.85a.82.82,0,1,0,0-1.64"/>
    </clipPath>
    <clipPath id="clip-path-53">
      <path class="cls-1" d="M680.43,142.38h-5.85a.82.82,0,1,0,0,1.64h5.85a.82.82,0,1,0,0-1.64"/>
    </clipPath>
  </defs>
  <title>
    WOL Icons v1_aj
  </title>
  <g id="affordability">
    <g class="cls-3">
      <g class="cls-4">
        <path class="cls-5" d="M32.52 24.89H192.39000000000001V184.33999999999997H32.52z"/>
      </g>
    </g>
    <path class="cls-6" d="M112.45,179.34c41.27,0,74.93-33.57,74.93-74.73s-33.66-74.73-74.93-74.73S37.52,63.46,37.52,104.62,71.18,179.34,112.45,179.34Z"/>
    <path class="cls-7" d="M21.1,104.45c0,50.09,41,90.95,91.2,90.95s91.2-40.86,91.2-90.95-41-90.95-91.2-90.95S21.1,54.36,21.1,104.45"/>
    <g class="cls-8">
      <g class="cls-9">
        <g class="cls-8"/>
      </g>
    </g>
    <g class="cls-10">
      <g class="cls-4">
        <path class="cls-5" d="M63.85 62.87H157.27V96.62H63.85z"/>
      </g>
    </g>
  </g>
  <g id="Layer_61" data-name="Layer 61">
    <path class="cls-2" d="M80.09,125.11,80,131.47a2.23,2.23,0,0,1-2.32,2.15H63.75a2.25,2.25,0,0,1-2.32-2.15V101.63a10.63,10.63,0,0,1,2.24-7.31l3-3.35L60.39,88.3c-.43-.17-.77-.39-.64-.86l.56-3.05a3.16,3.16,0,0,1,2.88-2.11h6a1.17,1.17,0,0,1,.95.43l1.33,1.72h.69l9.33-13a5.49,5.49,0,0,1,3.65-1.89,400.22,400.22,0,0,1,50.78,0,5.56,5.56,0,0,1,3.65,1.89l9.33,13h.69l1.33-1.72a1.17,1.17,0,0,1,.95-.43h6a3.16,3.16,0,0,1,2.88,2.11l.56,3.05c.13.47-.21.64-.64.86L154.47,91l3,3.35a10.42,10.42,0,0,1,2.24,7.31v29.84a2.23,2.23,0,0,1-2.32,2.15H143.42a2.25,2.25,0,0,1-2.32-2.15l-.09-6.36a553.86,553.86,0,0,1-60.93,0"/>
    <path class="cls-13" d="M80.09,125.11,80,131.47a2.23,2.23,0,0,1-2.32,2.15H63.75a2.25,2.25,0,0,1-2.32-2.15V101.63a10.63,10.63,0,0,1,2.24-7.31l3-3.35L60.39,88.3c-.43-.17-.77-.39-.64-.86l.56-3.05a3.16,3.16,0,0,1,2.88-2.11h6a1.17,1.17,0,0,1,.95.43l1.33,1.72h.69L82,72.14c.52-.56,1.07-2.36,3.14-2.58a400.22,400.22,0,0,1,50.78,0,5.56,5.56,0,0,1,3.65,1.89l9.33,13h.69l1.33-1.72a1.17,1.17,0,0,1,.95-.43h6a3.16,3.16,0,0,1,2.88,2.11l.56,3.05c.13.47-.21.64-.64.86L154.47,91l3,3.35a10.42,10.42,0,0,1,2.24,7.31v29.84a2.23,2.23,0,0,1-2.32,2.15H143.42a2.25,2.25,0,0,1-2.32-2.15l-.09-6.36a553.86,553.86,0,0,1-60.93,0"/>
    <path class="cls-2" d="M85.59,69s44.76-.9,51.34.82c7.78,2.06,11.57,14.71,12.43,17.72s-80.15,5.89-77.14-3.05C73.59,80.31,82.11,69.81,85.59,69"/>
    <path class="cls-14" d="M85.59,69s44.76-.9,51.34.82c7.78,2.06,11.57,14.71,12.43,17.72s-80.15,5.89-77.14-3.05C73.59,80.31,82.11,69.81,85.59,69"/>
    <path class="cls-15" d="M67,124.29c4.51.3,8.94.6,13.29.86"/>
    <path class="cls-2" d="M70.24,100.21a120.94,120.94,0,0,0,13.29,2c.73,0,1.46.82,1.2,1.46l-.6,1.42a1.52,1.52,0,0,1-1.46,1.07,122.89,122.89,0,0,1-13-.9,1.37,1.37,0,0,1-1.2-1.46l.3-2.49a1.28,1.28,0,0,1,1.5-1.07"/>
    <path class="cls-16" d="M70.24,100.21a120.94,120.94,0,0,0,13.29,2c.73,0,1.46.82,1.2,1.46l-.6,1.42a1.52,1.52,0,0,1-1.46,1.07,122.89,122.89,0,0,1-13-.9,1.37,1.37,0,0,1-1.2-1.46l.3-2.49A1.28,1.28,0,0,1,70.24,100.21Z"/>
    <path class="cls-15" d="M66.33 91.44L69.55 87.57M154.52 124.16c-4.51.3-9 .69-13.37.95"/>
    <path class="cls-2" d="M151.12,100.21a132.22,132.22,0,0,1-13.29,2c-.73,0-1.46.82-1.2,1.46l.6,1.42a1.52,1.52,0,0,0,1.46,1.07,123.67,123.67,0,0,0,13-.9,1.37,1.37,0,0,0,1.2-1.46l-.3-2.49a1.3,1.3,0,0,0-1.5-1.07"/>
    <path class="cls-16" d="M151.12,100.21a132.22,132.22,0,0,1-13.29,2c-.73,0-1.46.82-1.2,1.46l.6,1.42a1.52,1.52,0,0,0,1.46,1.07,123.67,123.67,0,0,0,13-.9,1.37,1.37,0,0,0,1.2-1.46l-.3-2.49A1.3,1.3,0,0,0,151.12,100.21Z"/>
    <path class="cls-15" d="M154.35 90.93L152.15 87.53"/>
    <path class="cls-2" d="M91.74,103.48a347.9,347.9,0,0,0,37.88,0,1.9,1.9,0,0,1,2,1.93l-.52,5.93a2.06,2.06,0,0,1-2,1.93c-12.47.52-24.72.52-36.85,0a2.06,2.06,0,0,1-2-1.93l-.52-5.93a1.92,1.92,0,0,1,2-1.93"/>
    <path class="cls-17" d="M91.74,103.48a347.9,347.9,0,0,0,37.88,0,1.9,1.9,0,0,1,2,1.93l-.52,5.93a2.06,2.06,0,0,1-2,1.93c-12.47.52-24.72.52-36.85,0a2.06,2.06,0,0,1-2-1.93l-.52-5.93A1.92,1.92,0,0,1,91.74,103.48Z"/>
    <path class="cls-18" d="M117.37,70.67a2.06,2.06,0,0,1-2.15,1.93H104.9a2,2,0,0,1-2.15-1.93,2.06,2.06,0,0,1,2.15-1.93h10.32a2.06,2.06,0,0,1,2.15,1.93"/>
  </g>
  <g id="Layer_62" data-name="Layer 62">
    <path class="cls-19" d="M157.88,128.25c-4.88.31-9.67.65-14.37.93"/>
    <g class="cls-20">
      <g class="cls-4">
        <path class="cls-5" d="M137.52 109.48H192.51000000000002V164.45H137.52z"/>
      </g>
    </g>
    <path class="cls-21" d="M142.52,137A22.5,22.5,0,1,0,165,114.48,22.51,22.51,0,0,0,142.52,137Z"/>
    <g class="cls-22">
      <g class="cls-4">
        <path class="cls-23" d="M146.72 118.19H170.35V142.05H146.72z"/>
      </g>
    </g>
    <g class="cls-24">
      <g class="cls-4">
        <path class="cls-25" d="M160.35 118.19H183.98V142.05H160.35z"/>
      </g>
    </g>
    <g class="cls-26">
      <g class="cls-4">
        <path class="cls-27" d="M146.72 130.89H170.35V154.75H146.72z"/>
      </g>
    </g>
    <g class="cls-28">
      <g class="cls-4">
        <path class="cls-29" d="M160.35 130.89H183.98V154.75H160.35z"/>
      </g>
    </g>
    <g class="cls-30">
      <g class="cls-4">
        <path class="cls-31" d="M160.8 135.49H170.85000000000002V145.53H160.8z"/>
      </g>
    </g>
    <g class="cls-32">
      <g class="cls-4">
        <path class="cls-5" d="M149.48 121.12H166.98V138.61H149.48z"/>
      </g>
    </g>
    <g class="cls-33">
      <g class="cls-4">
        <path class="cls-5" d="M163.65 124.05H181.15V135.69H163.65z"/>
      </g>
    </g>
    <g class="cls-34">
      <g class="cls-4">
        <path class="cls-5" d="M150.34 135.78H166.12V151.56H150.34z"/>
      </g>
    </g>
    <g class="cls-35">
      <g class="cls-4">
        <path class="cls-5" d="M163.65 136.32H181.15V147.95999999999998H163.65z"/>
      </g>
    </g>
    <g class="cls-36">
      <g class="cls-4">
        <path class="cls-5" d="M163.65 139.38H181.15V151.01999999999998H163.65z"/>
      </g>
    </g>
    <path class="cls-37" d="M165.23 122.73L165.23 149.75M151.14 136.27L179.67 136.27"/>
    <rect class="cls-37" x="151.14" y="122.76" width="28.19" height="27.01" rx="3.26" ry="3.26"/>
  </g>
</svg>
