<svg xmlns="http://www.w3.org/2000/svg" viewBox="0 0 220 260">
  <defs>
    <style>
      .cls-1,.cls-10,.cls-2,.cls-50,.cls-52,.cls-68,.cls-9{fill:none;}.cls-1{clip-rule:evenodd;}.cls-3{clip-path:url(#clip-path);}.cls-4{clip-path:url(#clip-path-2);}.cls-5{clip-path:url(#clip-path-3);}.cls-6{clip-path:url(#clip-path-4);}.cls-7{clip-path:url(#clip-path-5);}.cls-35,.cls-8{fill:#fff;}.cls-10,.cls-52,.cls-9{stroke:#e2e5e7;}.cls-10,.cls-35,.cls-36,.cls-37,.cls-38,.cls-50,.cls-52,.cls-68,.cls-9{stroke-miterlimit:10;}.cls-9{stroke-width:2.73px;}.cls-10{stroke-width:1.82px;}.cls-11{clip-path:url(#clip-path-6);}.cls-12{clip-path:url(#clip-path-7);}.cls-13{clip-path:url(#clip-path-9);}.cls-14{clip-path:url(#clip-path-10);}.cls-15{clip-path:url(#clip-path-11);}.cls-16{clip-path:url(#clip-path-12);}.cls-17{clip-path:url(#clip-path-13);}.cls-18{clip-path:url(#clip-path-14);}.cls-19{clip-path:url(#clip-path-15);}.cls-20{clip-path:url(#clip-path-16);}.cls-21{clip-path:url(#clip-path-17);}.cls-22{clip-path:url(#clip-path-18);}.cls-23{clip-path:url(#clip-path-19);}.cls-24{clip-path:url(#clip-path-20);}.cls-25{clip-path:url(#clip-path-21);}.cls-26{clip-path:url(#clip-path-22);}.cls-27{clip-path:url(#clip-path-23);}.cls-28{clip-path:url(#clip-path-24);}.cls-29{clip-path:url(#clip-path-25);}.cls-30{clip-path:url(#clip-path-26);}.cls-31{clip-path:url(#clip-path-27);}.cls-32{clip-path:url(#clip-path-28);}.cls-33{clip-path:url(#clip-path-29);}.cls-34{clip-path:url(#clip-path-30);}.cls-35,.cls-36,.cls-37,.cls-38,.cls-68{stroke:#7c878e;}.cls-36,.cls-56{fill:#f2bc47;}.cls-37,.cls-54{fill:#69d2dc;}.cls-38{fill:#e2e5e7;}.cls-39{clip-path:url(#clip-path-31);}.cls-40{clip-path:url(#clip-path-32);}.cls-41{clip-path:url(#clip-path-33);}.cls-42{clip-path:url(#clip-path-34);}.cls-43{clip-path:url(#clip-path-35);}.cls-44{clip-path:url(#clip-path-36);}.cls-45{clip-path:url(#clip-path-37);}.cls-46{clip-path:url(#clip-path-38);}.cls-47{clip-path:url(#clip-path-39);}.cls-48{clip-path:url(#clip-path-40);}.cls-49{clip-path:url(#clip-path-41);}.cls-50{stroke:#7b878e;stroke-width:1.68px;}.cls-51{clip-path:url(#clip-path-42);}.cls-52{stroke-width:2px;}.cls-53{clip-path:url(#clip-path-44);}.cls-55{clip-path:url(#clip-path-46);}.cls-57{clip-path:url(#clip-path-48);}.cls-58{fill:#15a3b2;}.cls-59{clip-path:url(#clip-path-50);}.cls-60{fill:#f39200;}.cls-61{clip-path:url(#clip-path-52);}.cls-62{fill:#7c878e;}.cls-63{clip-path:url(#clip-path-54);}.cls-64{clip-path:url(#clip-path-56);}.cls-65{clip-path:url(#clip-path-58);}.cls-66{clip-path:url(#clip-path-60);}.cls-67{clip-path:url(#clip-path-62);}.cls-68{stroke-width:1.56px;}
    </style>
    <clipPath id="clip-path">
      <path class="cls-1" d="M-752.49,178.34c41.27,0,74.93-33.57,74.93-74.73s-33.66-74.73-74.93-74.73-74.93,33.57-74.93,74.73S-793.77,178.34-752.49,178.34Z"/>
    </clipPath>
    <clipPath id="clip-path-2">
      <path class="cls-1" d="M-500.83,179.34c41.27,0,74.93-33.57,74.93-74.73s-33.66-74.73-74.93-74.73-74.93,33.57-74.93,74.73S-542.1,179.34-500.83,179.34Z"/>
    </clipPath>
    <clipPath id="clip-path-3">
      <path class="cls-1" d="M-196.83,179.34c41.27,0,74.93-33.57,74.93-74.73s-33.66-74.73-74.93-74.73-74.93,33.57-74.93,74.73S-238.1,179.34-196.83,179.34Z"/>
    </clipPath>
    <clipPath id="clip-path-4">
      <path class="cls-1" d="M112.45,179.34c41.27,0,74.93-33.57,74.93-74.73s-33.66-74.73-74.93-74.73S37.52,63.46,37.52,104.62,71.18,179.34,112.45,179.34Z"/>
    </clipPath>
    <clipPath id="clip-path-5">
      <path class="cls-2" d="M-387.7 -428.5H1052.3V1064.5H-387.7z"/>
    </clipPath>
    <clipPath id="clip-path-6">
      <path class="cls-2" d="M-7.7 217.5H232.3V243.5H-7.7z"/>
    </clipPath>
    <clipPath id="clip-path-7">
      <path class="cls-2" d="M-0.7 217.5H225.3V241.5H-0.7z"/>
    </clipPath>
    <clipPath id="clip-path-9">
      <path class="cls-1" d="M-722.42,136a22.51,22.51,0,0,0,22.49,22.48A22.52,22.52,0,0,0-677.43,136a22.52,22.52,0,0,0-22.5-22.49A22.52,22.52,0,0,0-722.42,136"/>
    </clipPath>
    <clipPath id="clip-path-10">
      <path class="cls-1" d="M-701.23,136H-711.6a1.64,1.64,0,0,1-1.63-1.63V123.82a1.64,1.64,0,0,1,1.63-1.63h10.37a1.64,1.64,0,0,1,1.63,1.63v10.59a1.64,1.64,0,0,1-1.63,1.63"/>
    </clipPath>
    <clipPath id="clip-path-11">
      <path class="cls-1" d="M-687.6,136H-698a1.64,1.64,0,0,1-1.63-1.63V123.82a1.64,1.64,0,0,1,1.63-1.63h10.37a1.64,1.64,0,0,1,1.63,1.63v10.59A1.64,1.64,0,0,1-687.6,136"/>
    </clipPath>
    <clipPath id="clip-path-12">
      <path class="cls-1" d="M-701.23,148.75H-711.6a1.64,1.64,0,0,1-1.63-1.63V136.52a1.64,1.64,0,0,1,1.63-1.63h10.37a1.64,1.64,0,0,1,1.63,1.63v10.59a1.64,1.64,0,0,1-1.63,1.63"/>
    </clipPath>
    <clipPath id="clip-path-13">
      <path class="cls-1" d="M-687.6,148.75H-698a1.64,1.64,0,0,1-1.63-1.63V136.52a1.64,1.64,0,0,1,1.63-1.63h10.37a1.64,1.64,0,0,1,1.63,1.63v10.59a1.64,1.64,0,0,1-1.63,1.63"/>
    </clipPath>
    <clipPath id="clip-path-14">
      <path class="cls-1" d="M-699.14,139.53l0,0v0h0"/>
    </clipPath>
    <clipPath id="clip-path-15">
      <path class="cls-1" d="M-709.65,129.69h2.11v2.1a.82.82,0,0,0,.82.82.82.82,0,0,0,.82-.82v-2.1h2.1a.82.82,0,0,0,.82-.82.82.82,0,0,0-.82-.82h-2.1v-2.1a.82.82,0,0,0-.82-.82.82.82,0,0,0-.82.82V128h-2.11a.82.82,0,0,0-.82.82.82.82,0,0,0,.82.82"/>
    </clipPath>
    <clipPath id="clip-path-16">
      <path class="cls-1" d="M-695.47,129.69h5.85a.82.82,0,0,0,.82-.82.82.82,0,0,0-.82-.82h-5.85a.82.82,0,0,0-.82.82.82.82,0,0,0,.82.82"/>
    </clipPath>
    <clipPath id="clip-path-17">
      <path class="cls-1" d="M-705.56,142.67l1.49-1.49a.82.82,0,0,0,0-1.16.82.82,0,0,0-1.16,0l-1.49,1.49-1.49-1.49a.82.82,0,0,0-1.16,0,.82.82,0,0,0,0,1.16l1.49,1.49-1.49,1.49a.82.82,0,0,0,0,1.16.81.81,0,0,0,.58.24.81.81,0,0,0,.58-.24l1.49-1.49,1.49,1.49a.82.82,0,0,0,.58.24.82.82,0,0,0,.58-.24.82.82,0,0,0,0-1.16Z"/>
    </clipPath>
    <clipPath id="clip-path-18">
      <path class="cls-1" d="M-689.62,140.32h-5.85a.82.82,0,0,0-.82.82.82.82,0,0,0,.82.82h5.85a.82.82,0,0,0,.82-.82.82.82,0,0,0-.82-.82"/>
    </clipPath>
    <clipPath id="clip-path-19">
      <path class="cls-1" d="M-689.62,143.38h-5.85a.82.82,0,0,0-.82.82.82.82,0,0,0,.82.82h5.85a.82.82,0,0,0,.82-.82.82.82,0,0,0-.82-.82"/>
    </clipPath>
    <clipPath id="clip-path-20">
      <path class="cls-1" d="M-470.76,137a22.51,22.51,0,0,0,22.49,22.48A22.52,22.52,0,0,0-425.77,137a22.52,22.52,0,0,0-22.5-22.49A22.52,22.52,0,0,0-470.76,137"/>
    </clipPath>
    <clipPath id="clip-path-21">
      <path class="cls-1" d="M-449.56,137h-10.37a1.64,1.64,0,0,1-1.63-1.63V124.82a1.64,1.64,0,0,1,1.63-1.63h10.37a1.64,1.64,0,0,1,1.63,1.63v10.59a1.64,1.64,0,0,1-1.63,1.63"/>
    </clipPath>
    <clipPath id="clip-path-22">
      <path class="cls-1" d="M-435.93,137H-446.3a1.64,1.64,0,0,1-1.63-1.63V124.82a1.64,1.64,0,0,1,1.63-1.63h10.37a1.64,1.64,0,0,1,1.63,1.63v10.59a1.64,1.64,0,0,1-1.63,1.63"/>
    </clipPath>
    <clipPath id="clip-path-23">
      <path class="cls-1" d="M-449.56,149.75h-10.37a1.64,1.64,0,0,1-1.63-1.63V137.52a1.64,1.64,0,0,1,1.63-1.63h10.37a1.64,1.64,0,0,1,1.63,1.63v10.59a1.64,1.64,0,0,1-1.63,1.63"/>
    </clipPath>
    <clipPath id="clip-path-24">
      <path class="cls-1" d="M-435.93,149.75H-446.3a1.64,1.64,0,0,1-1.63-1.63V137.52a1.64,1.64,0,0,1,1.63-1.63h10.37a1.64,1.64,0,0,1,1.63,1.63v10.59a1.64,1.64,0,0,1-1.63,1.63"/>
    </clipPath>
    <clipPath id="clip-path-25">
      <path class="cls-1" d="M-447.47,140.53l0,0v0h0"/>
    </clipPath>
    <clipPath id="clip-path-26">
      <path class="cls-1" d="M-458,130.69h2.11v2.1a.82.82,0,0,0,.82.82.82.82,0,0,0,.82-.82v-2.1h2.1a.82.82,0,0,0,.82-.82.82.82,0,0,0-.82-.82h-2.1v-2.1a.82.82,0,0,0-.82-.82.82.82,0,0,0-.82.82V129H-458a.82.82,0,0,0-.82.82.82.82,0,0,0,.82.82"/>
    </clipPath>
    <clipPath id="clip-path-27">
      <path class="cls-1" d="M-443.81,130.69H-438a.82.82,0,0,0,.82-.82A.82.82,0,0,0-438,129h-5.85a.82.82,0,0,0-.82.82.82.82,0,0,0,.82.82"/>
    </clipPath>
    <clipPath id="clip-path-28">
      <path class="cls-1" d="M-453.89,143.67l1.49-1.49a.82.82,0,0,0,0-1.16.82.82,0,0,0-1.16,0l-1.49,1.49-1.49-1.49a.82.82,0,0,0-1.16,0,.82.82,0,0,0,0,1.16l1.49,1.49-1.49,1.49a.82.82,0,0,0,0,1.16.81.81,0,0,0,.58.24.81.81,0,0,0,.58-.24l1.49-1.49,1.49,1.49a.82.82,0,0,0,.58.24.82.82,0,0,0,.58-.24.82.82,0,0,0,0-1.16Z"/>
    </clipPath>
    <clipPath id="clip-path-29">
      <path class="cls-1" d="M-438,141.32h-5.85a.82.82,0,0,0-.82.82.82.82,0,0,0,.82.82H-438a.82.82,0,0,0,.82-.82.82.82,0,0,0-.82-.82"/>
    </clipPath>
    <clipPath id="clip-path-30">
      <path class="cls-1" d="M-438,144.38h-5.85a.82.82,0,0,0-.82.82.82.82,0,0,0,.82.82H-438a.82.82,0,0,0,.82-.82.82.82,0,0,0-.82-.82"/>
    </clipPath>
    <clipPath id="clip-path-31">
      <path class="cls-1" d="M-166.76,137a22.51,22.51,0,0,0,22.49,22.48A22.52,22.52,0,0,0-121.77,137a22.52,22.52,0,0,0-22.5-22.49A22.52,22.52,0,0,0-166.76,137"/>
    </clipPath>
    <clipPath id="clip-path-32">
      <path class="cls-1" d="M-145.56,137h-10.37a1.64,1.64,0,0,1-1.63-1.63V124.82a1.64,1.64,0,0,1,1.63-1.63h10.37a1.64,1.64,0,0,1,1.63,1.63v10.59a1.64,1.64,0,0,1-1.63,1.63"/>
    </clipPath>
    <clipPath id="clip-path-33">
      <path class="cls-1" d="M-131.93,137H-142.3a1.64,1.64,0,0,1-1.63-1.63V124.82a1.64,1.64,0,0,1,1.63-1.63h10.37a1.64,1.64,0,0,1,1.63,1.63v10.59a1.64,1.64,0,0,1-1.63,1.63"/>
    </clipPath>
    <clipPath id="clip-path-34">
      <path class="cls-1" d="M-145.56,149.75h-10.37a1.64,1.64,0,0,1-1.63-1.63V137.52a1.64,1.64,0,0,1,1.63-1.63h10.37a1.64,1.64,0,0,1,1.63,1.63v10.59a1.64,1.64,0,0,1-1.63,1.63"/>
    </clipPath>
    <clipPath id="clip-path-35">
      <path class="cls-1" d="M-131.93,149.75H-142.3a1.64,1.64,0,0,1-1.63-1.63V137.52a1.64,1.64,0,0,1,1.63-1.63h10.37a1.64,1.64,0,0,1,1.63,1.63v10.59a1.64,1.64,0,0,1-1.63,1.63"/>
    </clipPath>
    <clipPath id="clip-path-36">
      <path class="cls-1" d="M-143.47,140.53l0,0v0h0"/>
    </clipPath>
    <clipPath id="clip-path-37">
      <path class="cls-1" d="M-154,130.69h2.11v2.1a.82.82,0,0,0,.82.82.82.82,0,0,0,.82-.82v-2.1h2.1a.82.82,0,0,0,.82-.82.82.82,0,0,0-.82-.82h-2.1v-2.1a.82.82,0,0,0-.82-.82.82.82,0,0,0-.82.82V129H-154a.82.82,0,0,0-.82.82.82.82,0,0,0,.82.82"/>
    </clipPath>
    <clipPath id="clip-path-38">
      <path class="cls-1" d="M-139.81,130.69H-134a.82.82,0,0,0,.82-.82A.82.82,0,0,0-134,129h-5.85a.82.82,0,0,0-.82.82.82.82,0,0,0,.82.82"/>
    </clipPath>
    <clipPath id="clip-path-39">
      <path class="cls-1" d="M-149.89,143.67l1.49-1.49a.82.82,0,0,0,0-1.16.82.82,0,0,0-1.16,0l-1.49,1.49-1.49-1.49a.82.82,0,0,0-1.16,0,.82.82,0,0,0,0,1.16l1.49,1.49-1.49,1.49a.82.82,0,0,0,0,1.16.81.81,0,0,0,.58.24.81.81,0,0,0,.58-.24l1.49-1.49,1.49,1.49a.82.82,0,0,0,.58.24.82.82,0,0,0,.58-.24.82.82,0,0,0,0-1.16Z"/>
    </clipPath>
    <clipPath id="clip-path-40">
      <path class="cls-1" d="M-134,141.32h-5.85a.82.82,0,0,0-.82.82.82.82,0,0,0,.82.82H-134a.82.82,0,0,0,.82-.82.82.82,0,0,0-.82-.82"/>
    </clipPath>
    <clipPath id="clip-path-41">
      <path class="cls-1" d="M-134,144.38h-5.85a.82.82,0,0,0-.82.82.82.82,0,0,0,.82.82H-134a.82.82,0,0,0,.82-.82.82.82,0,0,0-.82-.82"/>
    </clipPath>
    <clipPath id="clip-path-42">
      <path class="cls-1" d="M142.52,137A22.5,22.5,0,1,0,165,114.48,22.51,22.51,0,0,0,142.52,137"/>
    </clipPath>
    <clipPath id="clip-path-44">
      <path class="cls-1" d="M163.72,137H153.35a1.64,1.64,0,0,1-1.63-1.63V124.82a1.64,1.64,0,0,1,1.63-1.63h10.37a1.64,1.64,0,0,1,1.63,1.63v10.59a1.64,1.64,0,0,1-1.63,1.63"/>
    </clipPath>
    <clipPath id="clip-path-46">
      <path class="cls-1" d="M177.35,137H167a1.64,1.64,0,0,1-1.63-1.63V124.82a1.64,1.64,0,0,1,1.63-1.63h10.37a1.64,1.64,0,0,1,1.63,1.63v10.59a1.64,1.64,0,0,1-1.63,1.63"/>
    </clipPath>
    <clipPath id="clip-path-48">
      <path class="cls-1" d="M163.72,149.75H153.35a1.64,1.64,0,0,1-1.63-1.63V137.52a1.64,1.64,0,0,1,1.63-1.63h10.37a1.64,1.64,0,0,1,1.63,1.63v10.59a1.64,1.64,0,0,1-1.63,1.63"/>
    </clipPath>
    <clipPath id="clip-path-50">
      <path class="cls-1" d="M177.35,149.75H167a1.64,1.64,0,0,1-1.63-1.63V137.52a1.64,1.64,0,0,1,1.63-1.63h10.37a1.64,1.64,0,0,1,1.63,1.63v10.59a1.64,1.64,0,0,1-1.63,1.63"/>
    </clipPath>
    <clipPath id="clip-path-52">
      <path class="cls-1" d="M165.8,140.53l0,0v0h0"/>
    </clipPath>
    <clipPath id="clip-path-54">
      <path class="cls-1" d="M155.3,130.69h2.11v2.1a.82.82,0,0,0,1.64,0v-2.1h2.1a.82.82,0,1,0,0-1.64H159v-2.1a.82.82,0,1,0-1.64,0V129H155.3a.82.82,0,0,0,0,1.64"/>
    </clipPath>
    <clipPath id="clip-path-56">
      <path class="cls-1" d="M169.47,130.69h5.85a.82.82,0,0,0,0-1.64h-5.85a.82.82,0,1,0,0,1.64"/>
    </clipPath>
    <clipPath id="clip-path-58">
      <path class="cls-1" d="M159.39,143.67l1.49-1.49a.82.82,0,1,0-1.16-1.16l-1.49,1.49L156.74,141a.82.82,0,0,0-1.16,1.16l1.49,1.49-1.49,1.49a.82.82,0,1,0,1.16,1.16l1.49-1.49,1.49,1.49a.82.82,0,1,0,1.16-1.16Z"/>
    </clipPath>
    <clipPath id="clip-path-60">
      <path class="cls-1" d="M175.33,141.32h-5.85a.82.82,0,1,0,0,1.64h5.85a.82.82,0,1,0,0-1.64"/>
    </clipPath>
    <clipPath id="clip-path-62">
      <path class="cls-1" d="M175.33,144.38h-5.85a.82.82,0,1,0,0,1.64h5.85a.82.82,0,1,0,0-1.64"/>
    </clipPath>
  </defs>
  <title>
    WOL Icons v1_aj
  </title>
  <g id="affordability">
    <g class="cls-6">
      <g class="cls-7">
        <path class="cls-8" d="M32.52 24.89H192.39000000000001V184.33999999999997H32.52z"/>
      </g>
    </g>
    <path class="cls-9" d="M112.45,179.34c41.27,0,74.93-33.57,74.93-74.73s-33.66-74.73-74.93-74.73S37.52,63.46,37.52,104.62,71.18,179.34,112.45,179.34Z"/>
    <path class="cls-10" d="M21.1,104.45c0,50.09,41,90.95,91.2,90.95s91.2-40.86,91.2-90.95-41-90.95-91.2-90.95S21.1,54.36,21.1,104.45"/>
    <g class="cls-11">
      <g class="cls-12">
        <g class="cls-11"/>
      </g>
    </g>
  </g>
  <g id="Leisure">
    <path class="cls-35" d="M166.86,139.57a8.39,8.39,0,0,1-6.77-3.45l-.86-1.18-.86,1.18a8.33,8.33,0,0,1-8.52,3.26L151,127.73a1.08,1.08,0,0,0-.27-.81,1.07,1.07,0,0,0-.79-.35H127.3v-4.18a1.06,1.06,0,0,0-1.06-1.06H109.79v-1.1a2.08,2.08,0,0,0,.6.1h.24c.09,0,9-1,18.66-1a77.61,77.61,0,0,1,15.61,1.27,2.06,2.06,0,0,0,.45,0,2.12,2.12,0,0,0,1.6-3.51A203.64,203.64,0,0,1,130.68,94.7c-7.53-12-16.83-29.78-18.38-46.38a2.12,2.12,0,0,0-2.11-1.92h-.11a2.12,2.12,0,0,0-1.73,1.07,1.06,1.06,0,0,0-.62.12,64.48,64.48,0,0,0-30.36,36c-4.54,13.34-3.81,25.46-1.05,31.73,0,.77.57,1.91,2.85,3.36l.07.06a2.13,2.13,0,0,0,.36.2,28,28,0,0,0,2.93,1.5,1,1,0,0,0,.44.09h0A1.06,1.06,0,0,0,84,119.43a1,1,0,0,0,0-.2c0-.15,0-.43,0-.85a72.58,72.58,0,0,1,14.48-1.61,34.06,34.06,0,0,1,9.49,1.11v3.45h-13a1.06,1.06,0,0,0-.45.1,18.84,18.84,0,0,0-6.28,5.14H69.59a1.06,1.06,0,0,0-1,1.43c.9,2.39,3.15,4.61,5.54,7,1.35,1.33,2.73,2.69,3.94,4.15a8.34,8.34,0,0,1-9.51-3l-.86-1.18-.86,1.18a8.4,8.4,0,0,1-6.77,3.45,1.06,1.06,0,0,0,0,2.12,10.53,10.53,0,0,0,7.63-3.29,10.46,10.46,0,0,0,12.47,2.1l.08,0,.14-.08.51-.3.23-.15.44-.31.16-.11c.19-.15.38-.3.56-.46l.12-.11c.19-.17.37-.35.55-.53a10.54,10.54,0,0,0,6,3.16l.29,0a10.39,10.39,0,0,0,1.36.09,10.54,10.54,0,0,0,7.63-3.29,10.48,10.48,0,0,0,15.25,0,10.48,10.48,0,0,0,15.25,0,10.53,10.53,0,0,0,7.63,3.29l.54,0a10.53,10.53,0,0,0,6.71-2.9l.38-.38.45.45.07.06.39.34.12.09.37.29.13.1.39.26.13.08.48.28.33.17.18.09.37.17.13.06.42.17,0,0,.41.15h0a10.42,10.42,0,0,0,3.19.5,10.53,10.53,0,0,0,7.63-3.29,10.53,10.53,0,0,0,7.63,3.29,1.06,1.06,0,0,0,0-2.12Z"/>
    <path class="cls-36" d="M144.08,118.09A80.94,80.94,0,0,0,128,116.77c-9.88,0-18.89,1-18.89,1,0-34.54-.21-69.69-.21-69.69C112,81.08,144.08,118.09,144.08,118.09Z"/>
    <path class="cls-37" d="M80.53,116.77s0,0,0,0,0,.32,0,.47l-.43-.23L80,117l-.27-.15-.13-.08-.66-.4-.1-.07-.19-.12-.1-.07-.16-.11-.09-.06-.16-.12-.05,0-.18-.15-.05,0-.1-.1-.05-.05-.08-.08,0,0-.07-.08,0,0-.08-.1v0l-.05-.07,0,0,0,0v0l0,0h0l0,0a1.06,1.06,0,0,0-.09-.56c-2.68-5.79-3.41-17.45,1-30.43a61.93,61.93,0,0,1,22.81-30.65A84.21,84.21,0,0,0,88.3,74.57h0c-.23.57-.46,1.14-.68,1.71l-.12.32A103.07,103.07,0,0,0,82.55,94,108.68,108.68,0,0,0,80.53,116.77Z"/>
    <path class="cls-38" d="M97.18,114.23a74.06,74.06,0,0,0-14.54,1.58,108.71,108.71,0,0,1,2-21.42,102.59,102.59,0,0,1,3.24-12.5c2.34,7.24,7.52,18,18.81,32.21v1.16A38.16,38.16,0,0,0,97.18,114.23Z"/>
    <path class="cls-37" d="M93.9 123h30v3.12h-6.71a1.75 1.75 0 1 0-2.31 0h-5.84a1.74 1.74 0 1 0-2.31 0h-6.42a1.75 1.75 0 1 0-2.31 0H89.75A17.3 17.3 0 0 1 93.9 123zM147.67 139.14a8.49 8.49 0 0 1-.78-.45l-.05 0-.21-.15-.2-.14-.07-.05A8.41 8.41 0 0 1 145 137c-.1-.13-.2-.25-.3-.39l-.86-1.18-.86 1.18a8.36 8.36 0 0 1-13.54 0l-.86-1.18-.86 1.18a8.36 8.36 0 0 1-13.54 0l-.86-1.18-.86 1.18a8.36 8.36 0 0 1-13.54 0l-.86-1.18-.86 1.18a8.36 8.36 0 0 1-13.54 0l-.86-1.18L82 136.62c-.13.18-.26.34-.41.51l-.1.12-.42.44 0 0c-.16.15-.32.29-.48.43l-.14.11-.38.29-.12.08a49.32 49.32 0 0 0-3.91-4.2h72.13zM147.18 131.38H72.72a21.8 21.8 0 0 1-2.64-3.12h77.4z"/>
  </g>
  <g id="Calculator">
    <path class="cls-50" d="M157.88,128.25c-4.88.31-9.67.65-14.37.93"/>
    <g class="cls-51">
      <g class="cls-7">
        <path class="cls-8" d="M137.52 109.48H192.51000000000002V164.45H137.52z"/>
      </g>
    </g>
    <path class="cls-52" d="M142.52,137A22.5,22.5,0,1,0,165,114.48,22.51,22.51,0,0,0,142.52,137Z"/>
    <g class="cls-53">
      <g class="cls-7">
        <path class="cls-54" d="M146.72 118.19H170.35V142.05H146.72z"/>
      </g>
    </g>
    <g class="cls-55">
      <g class="cls-7">
        <path class="cls-56" d="M160.35 118.19H183.98V142.05H160.35z"/>
      </g>
    </g>
    <g class="cls-57">
      <g class="cls-7">
        <path class="cls-58" d="M146.72 130.89H170.35V154.75H146.72z"/>
      </g>
    </g>
    <g class="cls-59">
      <g class="cls-7">
        <path class="cls-60" d="M160.35 130.89H183.98V154.75H160.35z"/>
      </g>
    </g>
    <g class="cls-61">
      <g class="cls-7">
        <path class="cls-62" d="M160.8 135.49H170.85000000000002V145.53H160.8z"/>
      </g>
    </g>
    <g class="cls-63">
      <g class="cls-7">
        <path class="cls-8" d="M149.48 121.12H166.98V138.61H149.48z"/>
      </g>
    </g>
    <g class="cls-64">
      <g class="cls-7">
        <path class="cls-8" d="M163.65 124.05H181.15V135.69H163.65z"/>
      </g>
    </g>
    <g class="cls-65">
      <g class="cls-7">
        <path class="cls-8" d="M150.34 135.78H166.12V151.56H150.34z"/>
      </g>
    </g>
    <g class="cls-66">
      <g class="cls-7">
        <path class="cls-8" d="M163.65 136.32H181.15V147.95999999999998H163.65z"/>
      </g>
    </g>
    <g class="cls-67">
      <g class="cls-7">
        <path class="cls-8" d="M163.65 139.38H181.15V151.01999999999998H163.65z"/>
      </g>
    </g>
    <path class="cls-68" d="M165.23 122.73L165.23 149.75M151.14 136.27L179.67 136.27"/>
    <rect class="cls-68" x="151.14" y="122.76" width="28.19" height="27.01" rx="3.26" ry="3.26"/>
  </g>
</svg>
