<?xml version="1.0" encoding="utf-8"?>
<!-- Generator: Adobe Illustrator 21.0.2, SVG Export Plug-In . SVG Version: 6.00 Build 0)  -->
<svg version="1.1" id="Layer_1" xmlns="http://www.w3.org/2000/svg" xmlns:xlink="http://www.w3.org/1999/xlink" x="0px" y="0px"
	 viewBox="0 0 160 160" style="enable-background:new 0 0 160 160;" xml:space="preserve">
<style type="text/css">
	.st0{fill:#15A3B2;}
	.st1{fill:#7C878E;}
	.st2{fill:none;}
	.st3{fill:#F39200;}
</style>
<path class="st0" d="M57.4,86.8c0.1-1.3,2.1-3,5.6-2.2c2.7,0.6,6.1,2.8,9.7,6.3c2.7,2.7,5,6.7,5,13c0,1.5-0.8,2.1-2,2.1l0,0
	C70.5,106,57.2,95.1,57.4,86.8z M86.4,103.9c0-6.3,2.4-10.3,5-13c3.6-3.6,7.1-5.7,9.7-6.4c3.5-0.8,5.5,1,5.6,2.3
	c0.3,8.3-13,19.2-18.2,19.2C87.2,106,86.4,105.3,86.4,103.9z M74.9,81.6c0-3.9,3.2-7.1,7.1-7.1s7.1,3.2,7.1,7.1s-3.2,7.1-7.1,7.1
	S74.9,85.5,74.9,81.6z M57.2,75.9c1-10,12.7-20.1,24.8-20.1c15.8,0,24.5,13.3,25,20c0.1,1-1,1.2-2.1,1.1c-2.9-0.2-5-0.9-6.4-1.3
	c-4.2-1.2-10.3-3.9-16-3.9c-8.2,0-16.4,4.2-21.3,5.1C60.6,76.9,60,77,59.4,77C58.2,77,57.1,76.8,57.2,75.9z M51.5,81
	c0,16.9,13.6,30.5,30.5,30.5s30.5-13.6,30.5-30.5S98.9,50.5,82,50.5S51.5,64.1,51.5,81z"/>
<path class="st1" d="M82,111.7c-17,0-30.7-13.8-30.7-30.7S65.1,50.2,82,50.2S112.8,64,112.8,81S99,111.7,82,111.7z M82,50.7
	c-16.7,0-30.2,13.6-30.2,30.2s13.6,30.2,30.2,30.2s30.2-13.6,30.2-30.2S98.7,50.7,82,50.7z M75.7,106.2c-2.9,0-8.2-3.3-12.5-7.6
	c-2.4-2.4-6.3-7.2-6.1-11.8l0,0c0.1-0.6,0.4-1.2,1.1-1.7c1.2-0.9,3-1.1,4.9-0.7c2.7,0.6,6.2,2.8,9.8,6.4c3.4,3.4,5.1,7.8,5.1,13.1
	C78,105.4,77.2,106.2,75.7,106.2L75.7,106.2z M57.7,86.8c-0.1,3.3,2,7.4,5.9,11.5c4.1,4.3,9.3,7.4,12.1,7.4l0,0
	c1.2,0,1.8-0.6,1.8-1.8c0-5.2-1.6-9.5-4.9-12.8c-3.5-3.5-7-5.7-9.6-6.3c-1.8-0.4-3.4-0.2-4.5,0.6C58.1,85.8,57.7,86.3,57.7,86.8z
	 M88.5,106.2c-1.5,0-2.3-0.8-2.3-2.4l0,0c0-5.3,1.7-9.7,5.1-13.1s7-5.8,9.8-6.5c1.9-0.5,3.7-0.2,4.9,0.7c0.7,0.5,1.1,1.1,1.1,1.8
	c0.2,4.7-3.7,9.4-6.1,11.9C96.7,103,91.4,106.2,88.5,106.2z M86.7,103.9c0,1.2,0.6,1.8,1.8,1.8c2.8,0,7.9-3.2,12-7.4
	c3.9-4,6-8.2,5.9-11.5c0-0.5-0.4-1-0.9-1.4c-1.1-0.8-2.7-1-4.4-0.6c-2.7,0.7-6.2,2.9-9.6,6.3C88.3,94.4,86.7,98.6,86.7,103.9z
	 M82,89c-4,0-7.4-3.3-7.4-7.4s3.3-7.4,7.4-7.4c4,0,7.4,3.3,7.4,7.4S86.1,89,82,89z M82,74.7c-3.8,0-6.9,3.1-6.9,6.9s3.1,6.9,6.9,6.9
	s6.9-3.1,6.9-6.9S85.8,74.7,82,74.7z M105.1,77.2c-0.1,0-0.2,0-0.3,0c-2.5-0.1-4.4-0.7-5.7-1.1c-0.3-0.1-0.5-0.2-0.7-0.2
	c-1-0.3-2.1-0.7-3.3-1.1c-3.7-1.3-8.4-2.9-12.7-2.9c-5.3,0-10.8,1.8-15.1,3.3c-2.4,0.8-4.4,1.5-6.1,1.8c-0.7,0.1-1.3,0.2-1.8,0.2
	c-1.1,0-1.8-0.2-2.2-0.6c-0.2-0.2-0.3-0.5-0.2-0.7c1-10.5,13.2-20.4,25.1-20.4c15.7,0,24.7,13.2,25.2,20.3c0,0.4-0.1,0.7-0.3,0.9
	C106.5,77.1,105.7,77.2,105.1,77.2z M82.4,71.5c4.5,0,9.1,1.6,12.9,2.9c1.2,0.4,2.3,0.8,3.2,1.1c0.2,0.1,0.5,0.2,0.7,0.2
	c1.3,0.4,3.2,1,5.6,1.1c0.8,0.1,1.4-0.1,1.6-0.4c0.2-0.2,0.2-0.3,0.2-0.5C106.3,68.9,97.4,56,82,56c-11.6,0-23.6,9.7-24.5,19.9l0,0
	c0,0.2,0,0.3,0.1,0.3c0.2,0.2,0.5,0.4,1.7,0.4c0.5,0,1.1-0.1,1.8-0.2c1.6-0.3,3.7-1,6-1.8C71.5,73.3,77,71.5,82.4,71.5z"/>
<rect x="76.7" y="76.6" class="st2" width="10.8" height="10.2"/>
<rect x="75.1" y="74.6" class="st2" width="13.8" height="13.8"/>
<path class="st3" d="M77.1,81.6c0,2.8,2.3,5,5,5s5-2.3,5-5s-2.3-5-5-5S77.1,78.9,77.1,81.6z"/>
</svg>
