<?xml version="1.0" encoding="utf-8"?>
<!-- Generator: Adobe Illustrator 21.0.2, SVG Export Plug-In . SVG Version: 6.00 Build 0)  -->
<svg version="1.1" id="Layer_1" xmlns="http://www.w3.org/2000/svg" xmlns:xlink="http://www.w3.org/1999/xlink" x="0px" y="0px"
	 viewBox="0 0 160 160" style="enable-background:new 0 0 160 160;" xml:space="preserve">
<style type="text/css">
	.st0{fill:#7B878E;}
	.st1{fill-rule:evenodd;clip-rule:evenodd;fill:#F1BB46;}
	.st2{fill-rule:evenodd;clip-rule:evenodd;fill:#7C878E;}
	.st3{fill-rule:evenodd;clip-rule:evenodd;fill:#69D2DC;}
</style>
<path class="st0" d="M68.9,90.6h-2c-1.1,0-2-0.9-2-2v-0.5c0-1.1,0.9-2,2-2h3.7L68.9,90.6z"/>
<path class="st1" d="M68.4,89.8H67c-0.8,0-1.4-0.6-1.4-1.2v-0.4c0-0.7,0.6-1.2,1.4-1.2h2.6L68.4,89.8z"/>
<path class="st0" d="M71.4,84.2h-5.9c-1.1,0-2-0.9-2-2v-0.5c0-1.1,0.9-2,2-2h5.9V84.2z"/>
<path class="st2" d="M100.1,48H57.2c-0.3,0-0.5,0.2-0.5,0.5v1.5h-1.5c-0.3,0-0.5,0.2-0.5,0.5v1.5h-1.5c-0.3,0-0.5,0.2-0.5,0.5v25.3
	c0,0.3,0.2,0.5,0.5,0.5h19.9v9.1c-1.8,2.4-2.8,5.6-2.8,9c0,2.6,0.1,4.7,0.6,6.3l0,0V118h13.9v-15.4l5.8-17.7
	c0.2-0.4,0.3-0.8,0.4-1.2l0-0.1l0,0c0-0.3,0-0.6,0-0.9l-1-4.4h6c0.3,0,0.5-0.2,0.5-0.5v-1.5h1.5c0.3,0,0.5-0.2,0.5-0.5v-1.5h1.5
	c0.3,0,0.5-0.2,0.5-0.5V48.4C100.6,48.2,100.4,48,100.1,48z M82,83.7c-0.7,0-1.3-0.6-1.3-1.3l0.1-4.3h1.9c0.2,1.5,0.6,4.3,0.6,4.3
	C83.3,83.2,82.7,83.7,82,83.7z"/>
<path class="st1" d="M90.1,82.7c0,0.2,0,0.4,0,0.6c-0.1,0.4-0.2,0.7-0.3,1c0,0,0,0.1-0.1,0.2l-5.8,17.7c0,0.1,0,0.2,0,0.3V117H71.9
	v-14.4c0-0.1,0-0.2,0-0.3c-0.4-1.3-0.6-3.2-0.6-6c0-3.2,0.9-6.2,2.6-8.4c0.1-0.2,0.2-0.4,0.2-0.6v-9.1v-1v-1.4v-0.8
	c0.1-1.7,1.4-2.9,2.9-2.9c1.6,0,2.8,1.2,2.9,2.7c0,0,0,1,0,1l0,1.4l0,1l-0.1,4.3c0,1.3,1,2.3,2.3,2.3c1.3,0,2.3-1,2.3-2.3
	c0-0.1,0-0.1-0.6-4.3h5.4L90.1,82.7z"/>
<path class="st3" d="M56.2,59.7c2.4-0.2,4.3-2.1,4.5-4.5h28c0.2,2.4,2.1,4.2,4.5,4.5v10.5c-2.4,0.2-4.3,2.1-4.5,4.5h-7.8
	c-0.1-2-1.6-3.6-3.6-3.7c2.4-1,4-3.3,4-6c0-3.6-3-6.5-6.6-6.5c-3.6,0-6.6,2.9-6.6,6.5c0,3.6,3,6.5,6.6,6.5c0.1,0,0.2,0,0.4,0
	c-1.1,0.7-1.9,1.8-2,3.2H60.7c-0.2-2.4-2.1-4.2-4.5-4.5V59.7z"/>
<path class="st3" d="M59.7,74.7h-3.5v-3.5C58,71.4,59.5,72.9,59.7,74.7"/>
<path class="st3" d="M56.2,58.8v-3.5h3.5C59.5,57.1,58,58.5,56.2,58.8"/>
<path class="st3" d="M89.7,55.3h3.5v3.5C91.4,58.5,89.9,57.1,89.7,55.3"/>
<path class="st3" d="M93.2,71.2v3.5h-3.5C89.9,72.9,91.4,71.4,93.2,71.2"/>
<path class="st3" d="M74.7,70.5c-3.1,0-5.6-2.5-5.6-5.6c0-3.1,2.5-5.6,5.6-5.6c3.1,0,5.6,2.5,5.6,5.6C80.3,68.1,77.8,70.5,74.7,70.5
	"/>
<path class="st3" d="M95.6,77.1h-5.7h-7.4h-1.7l0-1.4h12.8c0.3,0,0.5-0.2,0.5-0.5V54.8c0-0.3-0.2-0.5-0.5-0.5h-38
	c-0.3,0-0.5,0.2-0.5,0.5v20.4c0,0.3,0.2,0.5,0.5,0.5h17.4v1.4H53.7V52.9h1h1h39.9v22.3v1V77.1z"/>
<path class="st3" d="M97.6,75.2h-1V52.4c0-0.3-0.2-0.5-0.5-0.5H55.7v-1h1h1h39.9v22.3v1V75.2z"/>
<g>
	<path class="st3" d="M99.6,73.2h-1V50.4c0-0.3-0.2-0.5-0.5-0.5H57.7v-1h41.9V73.2z"/>
</g>
<path class="st1" d="M64.2,82.1v-0.4c0-0.8,0.6-1.4,1.4-1.4h5v3.2h-5C64.8,83.5,64.2,82.9,64.2,82.1"/>
</svg>
