<?xml version="1.0" encoding="utf-8"?>
<!-- Generator: Adobe Illustrator 19.1.0, SVG Export Plug-In . SVG Version: 6.00 Build 0)  -->
<svg version="1.1" id="Layer_1" xmlns="http://www.w3.org/2000/svg" xmlns:xlink="http://www.w3.org/1999/xlink" x="0px" y="0px"
	 viewBox="475.5 -125 300 300" style="enable-background:new 475.5 -125 300 300;" xml:space="preserve">
<style type="text/css">
	.st0{fill:#F1BB46;stroke:#FFFFFF;stroke-width:1.7915;stroke-linecap:round;stroke-linejoin:round;stroke-miterlimit:10;}
	.st1{fill:none;stroke:#FFFFFF;stroke-width:1.7915;stroke-linecap:round;stroke-linejoin:round;stroke-miterlimit:10;}
	.st2{fill:#7B878E;stroke:#FFFFFF;stroke-width:1.7915;stroke-linecap:round;stroke-linejoin:round;stroke-miterlimit:10;}
	.st3{fill-rule:evenodd;clip-rule:evenodd;fill:#FFFFFF;}
</style>
<g>
	<rect x="579.4" y="-3.7" class="st0" width="91.8" height="22.1"/>
	<line class="st1" x1="579.4" y1="18.3" x2="595.2" y2="-3.7"/>
	<line class="st1" x1="598.4" y1="18.3" x2="614.2" y2="-3.7"/>
	<line class="st1" x1="633.2" y1="-3.7" x2="617.4" y2="18.3"/>
	<line class="st1" x1="636.4" y1="18.3" x2="652.2" y2="-3.7"/>
	<path class="st1" d="M671.2-3.7l-15.8,22.1L671.2-3.7z"/>
	<rect x="579.4" y="27.8" class="st0" width="91.8" height="22.1"/>
	<line class="st1" x1="579.4" y1="49.8" x2="595.2" y2="27.8"/>
	<line class="st1" x1="598.4" y1="49.8" x2="614.2" y2="27.8"/>
	<line class="st1" x1="633.2" y1="27.8" x2="617.4" y2="49.8"/>
	<line class="st1" x1="636.4" y1="49.8" x2="652.2" y2="27.8"/>
	<path class="st1" d="M671.2,27.8l-15.8,22.1L671.2,27.8z"/>
	<path class="st1" d="M588.9,68.7V64c0-0.9,0.7-1.6,1.6-1.6h15.8c0.9,0,1.6,0.7,1.6,1.6v4.7H588.9z"/>
	<rect x="595.2" y="49.8" class="st2" width="6.3" height="12.6"/>
	<line class="st1" x1="598.4" y1="-10" x2="598.4" y2="-3.7"/>
	<path class="st1" d="M642.7,68.7V64c0-0.9,0.7-1.6,1.6-1.6h15.8c0.9,0,1.6,0.7,1.6,1.6v4.7H642.7z"/>
	<rect x="649" y="49.8" class="st2" width="6.3" height="12.6"/>
	<rect x="595.2" y="18.3" class="st2" width="6.3" height="9.5"/>
	<rect x="649" y="18.3" class="st2" width="6.3" height="9.5"/>
	<ellipse class="st2" cx="598.4" cy="-14.8" rx="4.7" ry="4.7"/>
	<line class="st1" x1="652.2" y1="-10" x2="652.2" y2="-3.7"/>
	<ellipse class="st2" cx="652.2" cy="-14.8" rx="4.7" ry="4.7"/>
	<path class="st3" d="M764.5,69.5H486.5c-1.7,0-3.1-0.4-3.1-1s1.4-1,3.1-1h277.9c1.7,0,3.1,0.4,3.1,1S766.2,69.5,764.5,69.5"/>
</g>
</svg>
