<svg xmlns="http://www.w3.org/2000/svg" viewBox="0 0 300 300" class="undefined"><style>.a{fill:#69D2DC;}.b{fill:#FFF;}.c{fill:#007582;}.d{fill:none;}.e{fill:#F1BB46;}.f{fill:none;stroke-width:0.9604;stroke:#F39200;}.g{fill:#F2BC47;stroke-width:1.0891;stroke:#FFF;}.h{fill:#FFF;stroke-width:1.0891;stroke:#FFF;}.i{fill:none;stroke-width:1.0891;stroke:#FFF;}</style><path d="M195.3 146.3l-5 2.2 -1.9-2.2 -1.4 1.2 1.5 1.8 0 0 0.8 0.9 0 0.1 0 0 2.8 3.2c1.3 1.6 1.9 3.7 1.9 6.4v28.3c0 0.6-0.7 0.8-1.4 0.8h-12.7c-0.6 0-1.2-0.4-1.2-1l-0.1-5.1c2-0.1 4-0.2 6.1-0.4 1.7-0.1 3.4-0.2 5.1-0.3l-0.1-1.9c-1.7 0.1-3.3 0.2-5 0.4 -2 0.1-3.8 0.3-5.8 0.4v0l-1.1 0.1c-18.9 1.1-36.2 1.1-55.1 0l-0.7-0.1v0c-2-0.1-4.3-0.3-6.3-0.4 -1.7-0.1-3.6-0.2-5.3-0.3l-0.2 1.9c1.7 0.1 3.4 0.2 5.1 0.3 2 0.1 4 0.3 6 0.4l-0.1 5c0 0.6-0.5 1-1.2 1h-12.7c-0.6 0-0.4-0.2-0.4-0.8v-28.3c0-2.6 0.2-4.8 1.4-6.3l3.3-4.1 -0.1 0 1.5-1.8 -1.5-1.2 -1.9 2.2 -5.1-2.2c0 0 0 0 0 0l0.4-2.8c0.2-0.7 1-1.5 1.7-1.5h5.5c0.1 0 0.1 0.2 0.1 0.2l1.5 2.1 1.6 0.1 8.7-12.7c0.7-0.9 1.6-1.3 2.7-1.5 16.4-1 29.8-1 46.1 0 1.1 0.1 2 0.6 2.7 1.4l8.8 12.8 1.6 0 1.5-2.2c0 0 0-0.2 0.1-0.2h5.5c0.7 0 1.5 0.8 1.7 1.4l0.5 2.8C195.3 146.2 195.3 146.3 195.3 146.3z" class="a"/><path d="M296 190H4c-1.8 0-3.2-0.5-3.2-1s1.4-1 3.2-1h292c1.8 0 3.2 0.5 3.2 1S297.8 190 296 190" class="b"/><path d="M127.2 129.5c0 0 40.6-0.9 46.6 0.8 7.1 1.9 10.5 13.9 11.3 16.7 0.8 2.8-72.7 5.5-70-2.9C116.4 140.1 124.1 130.3 127.2 129.5" class="c"/><path d="M113.3 158.9c4.1 0.8 8.1 1.5 12.1 1.9 0.7 0.1 1.3 0.8 1.1 1.4l-0.5 1.3c-0.2 0.6-0.7 1-1.3 1 -3.9-0.1-7.8-0.4-11.8-0.9 -0.7-0.1-1.2-0.7-1.1-1.4l0.3-2.4C112 159.3 112.6 158.8 113.3 158.9" class="d"/><path d="M124.6 165.5C124.6 165.5 124.6 165.5 124.6 165.5c-3.7-0.1-7.6-0.3-12-0.9 -0.6-0.1-1.1-0.4-1.4-0.8 -0.4-0.5-0.5-1.1-0.5-1.6l0.3-2.4c0.1-0.6 0.4-1.1 0.9-1.5 0.5-0.3 1-0.4 1.6-0.3 4.8 1 8.5 1.5 12 1.9 0.7 0.1 1.3 0.5 1.7 1.1 0.3 0.5 0.4 1.1 0.2 1.6l-0.5 1.3C126.4 164.9 125.6 165.5 124.6 165.5zM113.1 159.8C113.1 159.8 113 159.8 113.1 159.8c-0.1 0.1-0.2 0.1-0.2 0.2l-0.3 2.4c0 0.1 0 0.2 0.1 0.2 0.1 0.1 0.1 0.1 0.2 0.1 4.3 0.5 8.2 0.8 11.7 0.8 0.1 0 0.3 0 0.4-0.4l0.5-1.3c0-0.1-0.2-0.2-0.3-0.2C121.7 161.4 118 160.8 113.1 159.8L113.1 159.8C113.1 159.8 113.1 159.8 113.1 159.8z" class="b"/><path d="M186.7 158.9c-4.1 0.8-8.1 1.5-12.1 1.9 -0.7 0.1-1.3 0.8-1.1 1.4l0.5 1.3c0.2 0.6 0.7 1 1.3 1 3.9-0.1 7.8-0.4 11.8-0.9 0.7-0.1 1.2-0.7 1.1-1.4l-0.3-2.4C188 159.3 187.4 158.8 186.7 158.9" class="d"/><path d="M175.4 165.5c-1 0-1.8-0.6-2.2-1.6l-0.5-1.3c-0.2-0.5-0.1-1.1 0.2-1.6 0.4-0.6 1-1 1.7-1.1 3.5-0.3 7.2-0.9 12-1.9 0.6-0.1 1.1 0 1.6 0.3 0.5 0.3 0.8 0.9 0.9 1.5l0.3 2.4c0.1 0.6-0.1 1.2-0.5 1.6 -0.4 0.5-0.9 0.8-1.4 0.8C182.9 165.1 179 165.4 175.4 165.5 175.4 165.5 175.4 165.5 175.4 165.5zM174.5 161.9l0.5 1.3c0.2 0.4 0.4 0.4 0.4 0.4 3.5 0 7.4-0.3 11.7-0.8 0.1 0 0.1-0.1 0.2-0.1 0.1-0.1 0.1-0.2 0.1-0.2l-0.3-2.4c0-0.1 0-0.1-0.1-0.2 0 0-0.1 0-0.1 0l0 0c-4.9 1-8.6 1.6-12.2 1.9C174.6 161.7 174.5 161.8 174.5 161.9z" class="b"/><path d="M193.1 142h-5.5c0 0-0.1 0.2-0.1 0.2l-1.5 2.1 -1.6 0.1 -8.8-12.7c-0.7-0.8-1.6-1.3-2.7-1.4 -16.3-1-29.7-1-46.1 0 -1.1 0.1-2 0.6-2.7 1.5l-8.7 12.7 -1.6 0 -1.5-2.2c0 0 0-0.2-0.1-0.2h-5.5c-0.7 0-1.5 0.8-1.7 1.5l-0.4 2.7c0 0 0 0.1 0 0.1l5 2.3 1.9-2.2 1.4 1.2 -1.5 1.8 0 0 -3.1 4.1c-1.3 1.5-1.4 3.7-1.4 6.3v28.3c0 0.6-0.3 0.8 0.4 0.8h12.7c0.6 0 1.2-0.4 1.2-1l0.1-5.1c-2-0.1-4-0.2-6.1-0.4 -1.7-0.1-3.4-0.2-5.1-0.3l0.1-1.9c1.7 0.1 3.8 0.2 5.5 0.4 2 0.1 4.3 0.3 6.3 0.4v0l0.6 0.1c18.9 1.1 36.5 1.1 55.4 0l1-0.1v0c2-0.1 3.8-0.3 5.8-0.4 1.7-0.1 3.3-0.2 5.1-0.3l0.1 1.9c-1.7 0.1-3.4 0.2-5.1 0.3 -2 0.1-4.1 0.3-6.1 0.4l0.1 5c0 0.6 0.5 1 1.2 1h12.7c0.6 0 1.4-0.2 1.4-0.8v-28.3c0-2.7-0.7-4.5-1.9-6l-2.8-2.8h0l0-0.4 -0.8-1.1 0-0.1 -1.5-1.8 1.4-1.2 1.9 2.2 5-2.2c0 0 0 0 0 0l-0.5-2.9C194.7 142.8 193.8 142 193.1 142z" class="d"/><path d="M197.2 146.2l-0.5-3.3c-0.4-1.5-2-3-3.5-3h-5.5c-0.8 0-1.3 0.7-1.6 1l-0.8 1.2 -8.1-11.7c-1-1.2-2.3-1.9-4-2.1 -16.5-1-29.9-1-46.4 0 -1.6 0.2-2.9 0.9-4 2.2l-8 11.7 -0.8-1.3c-0.3-0.3-0.7-1.1-1.6-1.1h-5.5c-1.6 0-3.1 1.5-3.5 3.1l-0.5 2.9c-0.2 0.8 0.2 1.6 1.1 2l4.5 2 -1.6 2.2c-1.6 1.9-1.9 4.5-1.9 7.6v28.3c0 1.7 0.7 2.8 2.4 2.8h12.7c1.7 0 3.1-1.3 3.1-2.9l0.1-5c18.3 1 35.4 1 53.6 0l0.1 5c0 1.7 1.4 2.9 3.1 2.9h12.7c1.7 0 3.4-1.2 3.4-2.8v-28.3c0-3.1-0.9-5.6-2.4-7.6l-2-2.2 4.5-2C197.1 147.6 197.4 147 197.2 146.2zM195.3 146.3l-5 2.2 -1.9-2.2 -1.4 1.2 1.5 1.8 0 0 0.8 0.9 0 0.1 0 0 2.8 3.2c1.3 1.6 1.9 3.7 1.9 6.4v28.3c0 0.6-0.7 0.8-1.4 0.8h-12.7c-0.6 0-1.2-0.4-1.2-1l-0.1-5.1c2-0.1 4-0.2 6.1-0.4 1.7-0.1 3.4-0.2 5.1-0.3l-0.1-1.9c-1.7 0.1-3.3 0.2-5 0.4 -2 0.1-3.8 0.3-5.8 0.4v0l-1.1 0.1c-18.9 1.1-36.2 1.1-55.1 0l-0.7-0.1v0c-2-0.1-4.3-0.3-6.3-0.4 -1.7-0.1-3.6-0.2-5.3-0.3l-0.2 1.9c1.7 0.1 3.4 0.2 5.1 0.3 2 0.1 4 0.3 6 0.4l-0.1 5c0 0.6-0.5 1-1.2 1h-12.7c-0.6 0-0.4-0.2-0.4-0.8v-28.3c0-2.6 0.2-4.8 1.4-6.3l3.3-4.1 -0.1 0 1.5-1.8 -1.5-1.2 -1.9 2.2 -5.1-2.2c0 0 0 0 0 0l0.4-2.8c0.2-0.7 1-1.5 1.7-1.5h5.5c0.1 0 0.1 0.2 0.1 0.2l1.5 2.1 1.6 0.1 8.7-12.7c0.7-0.9 1.6-1.3 2.7-1.5 16.4-1 29.8-1 46.1 0 1.1 0.1 2 0.6 2.7 1.4l8.8 12.8 1.6 0 1.5-2.2c0 0 0-0.2 0.1-0.2h5.5c0.7 0 1.5 0.8 1.7 1.4l0.5 2.8C195.3 146.2 195.3 146.3 195.3 146.3z" class="b"/><path d="M132.8 162c11.5 0.7 22.9 0.6 34.4 0 1-0.1 1.9 0.8 1.8 1.8l-0.5 5.6c-0.1 1-0.8 1.8-1.8 1.8 -11.3 0.5-22.4 0.5-33.5 0 -1 0-1.7-0.8-1.8-1.8l-0.5-5.6C130.9 162.8 131.8 161.9 132.8 162" class="d"/><path d="M150.1 172.6c-5.6 0-11.2-0.1-16.9-0.4 -1.5-0.1-2.6-1.2-2.7-2.7l-0.5-5.6c-0.1-0.7 0.2-1.5 0.7-2 0.6-0.6 1.3-0.9 2.1-0.8l0 0c11.2 0.6 22.7 0.6 34.3 0 0.8 0 1.5 0.3 2.1 0.8 0.5 0.5 0.8 1.3 0.7 2l-0.5 5.6c-0.1 1.5-1.3 2.6-2.7 2.7C161.3 172.4 155.7 172.6 150.1 172.6zM132.7 162.9c-0.2 0-0.4 0.1-0.6 0.3 -0.2 0.2-0.2 0.4-0.2 0.6l0.5 5.6c0 0.6 0.4 0.9 0.9 1 11.2 0.5 22.5 0.5 33.4 0 0.5 0 0.9-0.4 0.9-1l0.5-5.6c0-0.2-0.1-0.4-0.2-0.6 -0.2-0.2-0.4-0.3-0.6-0.3C155.6 163.6 144 163.6 132.7 162.9L132.7 162.9C132.8 162.9 132.7 162.9 132.7 162.9z" class="b"/><path d="M159.2 131.1c0 1-0.9 1.8-2 1.8h-9.4c-1.1 0-2-0.8-2-1.8 0-1 0.9-1.8 2-1.8h9.4C158.3 129.2 159.2 130.1 159.2 131.1" class="b"/><polygon points="172.1 132.7 170.3 135.9 165 145.5 163.2 148.8 162.2 146.7 163.4 144.5 168.7 134.9 169.9 132.7 " class="b"/><polygon points="158.3 152.9 168 135.3 156.5 151.5 " class="b"/><path d="M156.2 151.4c-1.3 0.1-2.3 1.1-2.3 2.3 0.1 1.2 1.2 2.2 2.5 2.1 1.3-0.1 2.3-1.1 2.3-2.3C158.6 152.3 157.5 151.3 156.2 151.4M156.3 154.7c-0.7 0-1.2-0.4-1.2-1 0-0.6 0.5-1.1 1.1-1.1 0.7 0 1.2 0.4 1.2 1C157.5 154.1 157 154.6 156.3 154.7" class="b"/><polygon points="144.7 132.7 143 135.9 137.7 145.5 135.9 148.8 134.9 146.7 136.1 144.5 141.4 134.9 142.6 132.7 " class="b"/><polygon points="131 152.9 140.6 135.3 129.2 151.5 " class="b"/><path d="M128.8 151.4c-1.3 0.1-2.3 1.1-2.3 2.3 0.1 1.2 1.2 2.2 2.5 2.1 1.3-0.1 2.3-1.1 2.3-2.3C131.2 152.3 130.1 151.3 128.8 151.4M128.9 154.7c-0.7 0-1.2-0.4-1.2-1 0-0.6 0.5-1.1 1.1-1.1 0.7 0 1.2 0.4 1.2 1C130.1 154.1 129.6 154.6 128.9 154.7" class="b"/><path d="M174.5 161.9l0.5 1.3c0.2 0.4 0.4 0.4 0.4 0.4 3.5 0 7.4-0.3 11.7-0.8 0.1 0 0.1-0.1 0.2-0.1 0.1-0.1 0.1-0.2 0.1-0.2l-0.3-2.4c0-0.1 0-0.1-0.1-0.2 0 0-0.1 0-0.1 0l0 0c-4.9 1-8.6 1.6-12.2 1.9C174.6 161.7 174.5 161.8 174.5 161.9z" class="e"/><path d="M113.1 159.8C113.1 159.8 113 159.8 113.1 159.8c-0.1 0.1-0.2 0.1-0.2 0.2l-0.3 2.4c0 0.1 0 0.2 0.1 0.2 0.1 0.1 0.1 0.1 0.2 0.1 4.3 0.5 8.2 0.8 11.7 0.8 0.1 0 0.3 0 0.4-0.4l0.5-1.3c0-0.1-0.2-0.2-0.3-0.2C121.7 161.4 118 160.8 113.1 159.8L113.1 159.8C113.1 159.8 113.1 159.8 113.1 159.8z" class="e"/><path d="M191.1 120.9l22.8-11.7 9.4 18.3 -22.8 11.7 -12.5-1.4c-2.7-0.7-4-3.7-3.1-5.9L191.1 120.9z" class="d"/><path d="M191.1 120.9l22.8-11.7 9.4 18.3 -22.8 11.7 -12.5-1.4c-2.7-0.7-4-3.7-3.1-5.9L191.1 120.9z" class="f"/><path d="M191.1 120.9l22.8-11.7 9.4 18.3 -22.8 11.7 -12.5-1.4c-2.7-0.7-4-3.7-3.1-5.9L191.1 120.9z" class="g"/><circle cx="189.7" cy="133.3" r="1.9" class="h"/><path d="M177.8 135.1c0 0 6.7 0.8 10.2-1" class="i"/><path d="M199.2 127.7c0.1 0.1 0.1 0.2 0 0.4 -0.1 0.1-0.2 0.2-0.3 0.2 0 0-0.1 0-0.1 0 0 0-0.1 0-0.1 0l-0.2 0.2 -0.2 0.1 -0.1 0.1 -0.1 0 -0.1 0.1 -0.1 0c-0.1 0.1-0.3 0.1-0.3 0.2l0 0 -0.1 0.1 0 0 0 0.1 -0.1 0 0 0.1 -0.2 0 -0.1 0.1c-0.1 0-0.2 0-0.2 0.1 -0.1 0-0.1 0.1-0.2 0.2l-0.3 0.2 0 0 -0.1 0.1 0 0 0.3 0.4 0 0 0.1 0.1 0 0.1c0.1 0.1 0.1 0.1 0.2 0.2l0.1 0 0 0.1 0.2 0.1c0.2 0 0.4 0 0.4 0l0 0c0 0 0 0 0 0 0 0 0 0 0 0 0 0 0.1 0 0.1 0l0.1 0c0.1 0 0.1-0.1 0.3-0.2l0.1-0.1 0 0 0 0 0-0.1 0 0 0.1-0.1 0.1-0.1 0-0.1 0.1-0.2 0.1-0.1 0.1-0.2c0.1-0.1 0.2-0.2 0.1-0.4l0 0 0 0 0.1-0.1 0.1-0.2 0 0c0 0 0 0 0.1 0 0.1 0 0.2 0 0.3 0.2l-0.2 0.6 -0.1 0.1 0 0.1 -0.1 0.2 -0.2 0.2 -0.1 0.2 -0.1 0 0 0.1 -0.3 0.3 -0.1 0.2 -0.1 0 0 0.1 -0.1 0 0 0.1 -0.3 0.1 -0.2 0.2 -0.3 0 -0.4 0c-0.3 0-0.7-0.3-1.2-0.8l0-0.1 -0.1-0.1 0-0.1 -0.1-0.2 0-0.1 -0.2-0.1 0-0.1c-0.1-0.2-0.1-0.3 0-0.4 0 0 0-0.1 0-0.2l0 0 -0.1-0.2 -0.1-0.1 0-0.3 0-0.1 -0.1 0 0 0c-0.1 0-0.1 0-0.2 0 -0.1 0-0.1-0.1-0.2-0.1 0-0.1 0-0.2 0-0.3l0-0.1 0.1-0.1c0.1-0.1 0.1-0.1 0.2-0.1l0 0c0 0 0 0 0.1 0l0 0 0-0.2 0.4-0.1 0 0c0 0 0.1-0.1 0.2-0.1l0.1-0.1 0 0c0.1-0.1 0.1-0.1 0.1-0.2l0.1 0 0 0c0 0 0.1 0 0.1 0 0 0 0.1 0 0.1 0l0.7-0.4 0.1 0 0.1-0.1 0-0.1 0.2 0 0-0.1 0.2 0 0.1-0.1 0.1 0 0.2-0.1 0.1 0 0.1 0c0.1 0 0.2 0 0.3 0.1 0 0.1 0 0.1 0 0.2 0 0.1-0.1 0.1-0.1 0.1l0 0 -0.1 0.1 -0.2 0 -0.1 0c0 0 0 0-0.1 0 -0.1 0-0.1 0-0.2 0l0 0c0 0-0.1 0.1-0.1 0.1 0 0 0 0-0.1 0 0 0.1-0.1 0.1-0.2 0.2 -0.1 0-0.2 0.1-0.2 0.1 0 0 0 0 0-0.1l-0.2 0.2c0 0 0 0 0 0 0 0-0.1 0.1-0.2 0.2h-0.1l0 0.1 -0.2 0 -0.1 0.1 -0.2 0.1 -0.2 0.2 -0.2 0.2 -0.1 0 -0.1 0.1 -0.1 0 0 0 0.1 0.1 -0.1 0.2 0.1 0 0.1 0.2 0.1 0.1 0 0.1c0 0.1 0 0.2 0 0.2 0 0 0 0 0.1 0l0.1-0.1c0 0 0 0 0.1 0 0.1 0 0.1 0 0.2 0l0.1-0.1 0.1 0 0.1 0 0.1 0 0.1-0.1c0 0 0.1 0 0.1 0 0 0 0.1 0 0.1-0.1 0.1 0 0.1 0 0.2-0.1 0 0 0 0 0 0 0 0 0 0 0.1 0l0 0c0 0 0 0 0 0l0 0c0 0 0.1 0 0.3-0.1 0 0 0.1-0.1 0.2-0.1 0.1 0 0.1-0.1 0.1-0.1 0.1 0 0.2-0.1 0.2-0.1l0.1 0c0.1-0.1 0.1-0.1 0.2-0.2 0 0 0.1 0 0.1 0l0.1-0.1 0.1 0L199.2 127.7 199.2 127.7z" class="b"/><path d="M200.3 125.8L200.3 125.8l0.1 0.3 0.1 0.2 0 0 0 0.2 0.1 0.1 0 0.2c0 0.1 0 0.1 0 0.2 0 0 0.1 0 0.1 0.1 0 0 0 0.1 0 0.1l0.2 0.2 -0.1 0 0 0 0.1 0.1 0 0.2 0 0 0 0.2c0 0 0 0 0.1 0l0 0.2 0.1 0.1 0 0.1 0.1 0.2 0 0.1c0.1 0 0.1 0.1 0.1 0.1 0 0 0 0.1 0 0.1 0 0 0 0.1 0 0.1 0.1 0 0.2 0.1 0.3 0.1l0 0.1 0.1 0c0.1 0.2 0.1 0.4-0.1 0.4 -0.1 0.1-0.2 0-0.3-0.1l-0.1 0c-0.1-0.1-0.2-0.1-0.2-0.2l-0.2-0.1 0-0.1 -0.1 0 -0.1-0.2 0 0c0 0-0.1-0.1-0.1-0.1 0 0 0-0.1 0-0.1l0-0.1 -0.1-0.2 0 0 -0.2-0.4 -0.1-0.4 -0.2-0.4 0-0.1 -0.1 0 0-0.2 0-0.1 0 0 0-0.2c-0.1 0-0.2-0.1-0.3-0.2l0.1 0 0-0.3 0 0 0-0.1 0 0.1 -0.1-0.2 0.1-0.1 0-0.1 0.1-0.1c0.1 0 0.2-0.1 0.3-0.1C200.2 125.6 200.3 125.7 200.3 125.8L200.3 125.8z" class="b"/><path d="M207.7 125.7c0 0.1 0 0.2 0 0.3 0 0.1-0.1 0.3-0.2 0.4 0 0.1-0.1 0.1-0.1 0.1 -0.1 0.1-0.1 0.2-0.2 0.2 0 0.1-0.1 0.1-0.1 0.2l-0.1 0.1 -0.1 0.2 -0.2 0 0 0 -0.1 0.1c-0.1 0-0.1 0.1-0.2 0.1 0 0 0 0-0.1 0 0 0 0 0-0.1 0l-0.1 0.1 -0.1 0.1 -0.2 0.1 -0.1 0.1 0 0c-0.1 0.1-0.2 0.1-0.3 0.1l0 0 -0.3 0.1 -0.5 0.2 -0.2 0c0 0.1-0.1 0.1-0.1 0.1 -0.1 0-0.2 0-0.3 0l-0.1 0.1 -0.1 0c-0.2 0.1-0.4 0.1-0.4 0.1l0 0c0 0 0 0-0.1 0.1l-0.4-0.1 -0.2 0c-0.1 0-0.2 0-0.3-0.1 -0.1-0.1-0.2-0.1-0.2-0.2 0-0.1 0-0.2-0.1-0.3l0.1-0.2 0.2-0.1c0-0.1 0.1-0.1 0.1-0.2 0.2-0.1 0.3 0 0.4 0.3 -0.1 0.1-0.2 0.1-0.2 0.2 0 0 0 0.1-0.1 0.2l0 0 0.1 0 0.1 0.1 0.3-0.2 0.3 0 0.4-0.2 0.2 0 0-0.1c0 0 0.1 0 0.1 0l0.2-0.1 0 0 0.1-0.1c0.1-0.1 0.2-0.1 0.2-0.2 0 0 0.1 0 0.1 0 0 0 0.1 0 0.2-0.1 0.1 0 0.1 0 0.1-0.1 0 0 0.1 0 0.1-0.1 0.1 0 0.1 0 0.1-0.1l0.1-0.1 0-0.1 0.3-0.1c0.1-0.1 0.2-0.2 0.3-0.2l0 0c0 0 0-0.1 0.1-0.1 0 0 0 0 0.1 0l0.1-0.1 0-0.1 0.2-0.1c0-0.1 0.1-0.1 0.2-0.2 0-0.1 0.1-0.2 0.1-0.2l0-0.1c0 0-0.2-0.1-0.6-0.1l-0.1 0c-0.1 0-0.2 0.1-0.3 0.1 0 0-0.1 0-0.1 0l0 0c0 0-0.1 0-0.3 0 -0.1 0-0.1 0-0.2 0 0 0 0 0-0.1 0.1l-0.2 0.1 0 0c-0.1 0-0.2 0-0.2 0l-0.1 0.1 -0.3 0 -0.2 0.1 -0.1 0 -0.2 0.1 0 0 -0.1 0.1 -0.2-0.1 -0.1 0c-0.2 0.1-0.3 0.1-0.4 0.1l0 0c-0.1 0-0.2 0-0.3-0.1l-0.2-0.1 -0.2-0.2 -0.1-0.1 -0.1-0.3 0.1-0.3c0 0 0-0.1 0-0.1 0 0 0 0 0.1-0.1l0.3-0.4c0.1 0 0.1 0 0.1-0.1 0.1 0 0.1-0.1 0.2-0.2l0 0 0 0 0-0.1 0 0c0.1-0.1 0.3-0.2 0.4-0.3l0 0 0.1 0 0.1-0.1c0 0 0.1 0 0.1-0.1l0 0c0 0 0.1-0.1 0.2-0.1 0.1-0.1 0.2-0.1 0.2-0.1l0.1-0.1 0.2-0.2c0 0 0.1 0 0.2 0.1l0.2-0.1c0 0 0.1 0 0.2 0l0.1 0c0.1-0.1 0.2-0.1 0.3-0.1 0.3-0.1 0.5 0 0.6 0.2 0.1 0.2 0 0.4-0.3 0.5l-0.1-0.1c0 0 0 0-0.1 0 0 0-0.1 0-0.1 0l-0.2 0.1 -0.1 0 -0.1 0.1 0 0.1 -0.2 0 -0.2 0.1 -0.3 0.1c-0.1 0.1-0.3 0.2-0.3 0.3l0 0c0 0 0 0 0 0.1 0 0 0 0 0 0l-0.1 0 -0.2 0.2 -0.4 0.3 -0.1 0 -0.1 0.2 -0.1 0 0 0.1 -0.1 0.2 0 0 0.1 0 0.1 0 0.2 0 0.3 0 0.1 0 0.3 0 0.1-0.1c0.2 0 0.3 0 0.4 0l0 0 0 0 0.2 0 0-0.1 0.2-0.1 0 0 0.1 0 0.1 0 0.1 0c0.1 0 0.2-0.1 0.2-0.1 0 0 0 0 0.1 0 0.1 0 0.2 0 0.4 0l0.1-0.1 0.1 0 0.1-0.1 0.3 0 0.2-0.1 0.2 0.1c0.2 0 0.4 0.1 0.5 0.1C207.4 125.4 207.5 125.5 207.7 125.7 207.6 125.7 207.6 125.7 207.7 125.7 207.6 125.7 207.6 125.7 207.7 125.7" class="b"/><path d="M213.4 120.9l-0.1 0.1c0 0 0.1 0 0.1 0.1l-0.2 0.3 0 0c0 0-0.1 0-0.1 0l-0.1 0.1 -0.1 0 -0.1 0.2 -0.2 0 -0.1 0.1 -0.1 0.2c0 0 0 0 0 0 0 0-0.1 0-0.1 0.1l0.1 0.3c0 0 0 0.1 0 0.1 0 0 0 0.1 0 0.1l0 0.1 0 0c0 0.1 0.1 0.2 0.1 0.3 0.1 0.1 0.1 0.1 0.1 0.1l0 0.1 0.2 0.3 0.1 0.4 0 0.1c0 0.1 0.1 0.1 0.1 0.1l0 0 0.1 0.1 0.1 0.1c0 0 0 0.1 0 0.1 0.1 0.2 0 0.3-0.3 0.5l-0.1-0.2 -0.1-0.1 -0.1-0.1 -0.1-0.3 -0.1-0.1 0 0 -0.1-0.1 -0.1-0.2 -0.1-0.3 -0.1-0.3 0-0.2 -0.1-0.2c0 0 0-0.1 0-0.2 0-0.1 0-0.1 0-0.2 0-0.1-0.1-0.1-0.1-0.1l0 0 0 0 -0.1 0c-0.1 0.1-0.2 0.1-0.2 0.2 -0.1 0-0.1 0-0.1 0l-0.3 0.3 -0.4 0.1c-0.1 0-0.2 0.1-0.2 0.1 -0.1 0-0.2 0.1-0.3 0.2l0 0 -0.1 0.2 -0.2 0 -0.2 0.1 0 0 0 0 -0.2 0.1 0 0.1 -0.3 0c-0.1 0.1-0.1 0.1-0.2 0.1l0.2 0.4 0.1 0.2 0.1 0.1 0 0.1 0.1 0.1 0.1 0.4 0.1 0.1 0.1 0.2 0.1 0.1 0 0.1 0.1 0.1c0 0.1 0 0.2-0.1 0.3 -0.2 0.1-0.4 0-0.6-0.4l-0.2-0.1 -0.1-0.1c0-0.1 0-0.1 0-0.2l0-0.1 -0.1-0.1 -0.3-0.6 -0.1-0.2 0 0 -0.2 0 -0.2-0.4 0.2-0.2c0-0.1 0-0.2-0.1-0.3 -0.1-0.1-0.1-0.2-0.2-0.3l0.1 0 -0.1-0.1 0-0.2 -0.2-0.2 -0.1-0.2 -0.1-0.3 0.2-0.3 0.2 0 0.2 0 0.1 0.2 0.1 0.1c0 0.1 0 0.2 0 0.3 0.1 0.1 0.1 0.2 0.1 0.3 0.1 0.1 0.1 0.3 0.1 0.4l0.1 0.1 0 0.1 0 0.1 0.1 0 0.2-0.1 0.1-0.1 0.2-0.1 0.1 0c0 0 0.1 0 0.1 0 0 0 0.1 0 0.1 0l0 0 0.1-0.1c0 0 0 0 0.1-0.1 0.1 0 0.1-0.1 0.2-0.1l0.1-0.1 0.1 0 0.1 0 0 0c0 0 0.1 0 0.1 0l0 0 0.8-0.5 0.1 0 0 0 -0.1-0.1v-0.1l-0.2-0.3 0-0.1 -0.3-0.3 0 0 0 0c0 0 0 0 0-0.1v0l0 0c0 0 0-0.1 0.1-0.2l0-0.3 0.2-0.1 0.1 0 0.2-0.1 0.1 0.1 0.1-0.1 0.2 0.4 0 0.1 0.1 0.1 0 0.1 0.1 0.1 0 0.2 0.1 0.1 0.1 0.4 0 0.1 0.2-0.1 0.3-0.2 0.2-0.1 0.1-0.1 0.2-0.1c0 0 0.1-0.1 0.1-0.1 0 0 0.1 0 0.1 0L213.4 120.9z" class="b"/></svg>