<svg xmlns="http://www.w3.org/2000/svg" viewBox="0 0 300 300" class="undefined"><style>.a{fill:#69D2DC;}.b{fill:#007582;}.c{fill:none;}.d{fill:#FFF;}.e{fill:#F1BB46;}.f{fill:#15A3B2;}</style><path d="M220.8 148.5l-5 2.2 -1.9-2.2 -1.4 1.2 1.5 1.8 0 0 0.8 0.9 0 0.1 0 0 2.6 3.2c1.3 1.6 1.8 3.7 1.8 6.4v28.3c0 0.6-0.4 1-1.1 1h-12.7c-0.6 0-1.2-0.5-1.2-1.1l-0.1-5.1c2-0.1 4-0.2 6.1-0.4 1.7-0.1 3.4-0.2 5.1-0.3l-0.1-1.9c-1.7 0.1-3.4 0.2-5.1 0.3 -2 0.1-4 0.3-6 0.4v0l-1 0.1c-18.9 1.1-36.3 1.1-55.2 0l-0.8-0.1v0c-2-0.1-4.1-0.3-6.1-0.4 -1.7-0.1-3.5-0.2-5.2-0.3l-0.2 1.9c1.7 0.1 3.4 0.2 5.1 0.3 2 0.1 4 0.3 6.1 0.4l-0.1 5.1c0 0.6-0.5 1.1-1.2 1.1h-12.7c-0.6 0-0.7-0.4-0.7-1V162c0-2.6 0.3-4.8 1.6-6.3l3.4-4.1 -0.1 0 1.5-1.8 -1.5-1.2 -1.9 2.2 -5-2.2c0 0 0 0 0 0l0.4-2.7c0.2-0.7 1-1.5 1.7-1.5h5.5c0.1 0 0.1 0.2 0.1 0.2l1.5 2.1 1.6 0.1 8.7-12.7c0.7-0.9 1.6-1.3 2.7-1.5 16.4-1 29.8-1 46.1 0 1.1 0.1 2 0.6 2.7 1.4l8.8 12.8 1.6 0 1.5-2.1c0 0 0-0.2 0.1-0.2h5.5c0.7 0 1.5 0.8 1.7 1.4L220.8 148.5C220.8 148.4 220.8 148.5 220.8 148.5z" class="a"/><path d="M14.6 172.8l0.3 0.4c2.6 3.6 6.9 5.7 11.3 5.7 6.6 0 12.4-4.7 13.8-11.1l0.1-0.5 0.5-0.1c4.3-1.2 7.3-5.1 7.3-9.5 0-4.2-2.7-8-6.7-9.4l-0.9-0.3 0.4-0.9c0.4-1 0.6-2.1 0.6-3.3 0-4.8-3.9-8.7-8.7-8.7 -0.6 0-1.1 0.1-1.7 0.2l-0.7 0.1 -0.3-0.7c-0.8-2.1-2.8-3.4-5.1-3.4 -2.3 0-4.3 1.4-5.1 3.5l-0.2 0.6h-0.6 0c-3.7 0-6.9 2.6-7.7 6.3l-0.1 0.6 -0.6 0.1c-4.9 0.6-8.7 4.8-8.7 9.8 0 3.5 1.9 6.8 5 8.6l0.8 0.5 -0.5 0.8c-0.7 1.1-1.1 2.4-1.1 3.8 0 3.9 3.2 7.1 7.1 7.1 0.3 0 0.6 0 1-0.1L14.6 172.8z" class="b"/><path d="M14.6 172.8l0.3 0.4c2.6 3.6 6.9 5.7 11.3 5.7 6.6 0 12.4-4.7 13.8-11.1l0.1-0.5 0.5-0.1c4.3-1.2 7.3-5.1 7.3-9.5 0-4.2-2.7-8-6.7-9.4l-0.9-0.3 0.4-0.9c0.4-1 0.6-2.1 0.6-3.3 0-4.8-3.9-8.7-8.7-8.7 -0.6 0-1.1 0.1-1.7 0.2l-0.7 0.1 -0.3-0.7c-0.8-2.1-2.8-3.4-5.1-3.4 -2.3 0-4.3 1.4-5.1 3.5l-0.2 0.6h-0.6 0c-3.7 0-6.9 2.6-7.7 6.3l-0.1 0.6 -0.6 0.1c-4.9 0.6-8.7 4.8-8.7 9.8 0 3.5 1.9 6.8 5 8.6l0.8 0.5 -0.5 0.8c-0.7 1.1-1.1 2.4-1.1 3.8 0 3.9 3.2 7.1 7.1 7.1 0.3 0 0.6 0 1-0.1L14.6 172.8z" class="c"/><path d="M26.3 180.7c-4.8 0-9.5-2.2-12.5-6 -0.3 0-0.5 0-0.7 0 -4.9 0-8.9-4-8.9-8.9 0-1.4 0.3-2.7 0.9-3.9 -3.2-2.2-5.1-5.8-5.1-9.7 0-5.7 4.1-10.5 9.6-11.5 1.1-4 4.6-6.8 8.7-7.1 1.2-2.5 3.8-4.1 6.6-4.1 2.7 0 5.2 1.5 6.4 3.9 0.4-0.1 0.9-0.1 1.3-0.1 5.8 0 10.5 4.7 10.5 10.5 0 1-0.2 2.1-0.5 3.1 4.3 1.8 7.1 6 7.1 10.7 0 5.1-3.3 9.6-8.1 11.1C39.9 175.7 33.5 180.7 26.3 180.7zM14.6 172.8l0.3 0.4c2.6 3.6 6.9 5.7 11.3 5.7 6.6 0 12.4-4.7 13.8-11.1l0.1-0.5 0.5-0.1c4.3-1.2 7.3-5.1 7.3-9.5 0-4.2-2.7-8-6.7-9.4l-0.9-0.3 0.4-0.9c0.4-1 0.6-2.1 0.6-3.3 0-4.8-3.9-8.7-8.7-8.7 -0.6 0-1.1 0.1-1.7 0.2l-0.7 0.1 -0.3-0.7c-0.8-2.1-2.8-3.4-5.1-3.4 -2.3 0-4.3 1.4-5.1 3.5l-0.2 0.6h-0.6 0c-3.7 0-6.9 2.6-7.7 6.3l-0.1 0.6 -0.6 0.1c-4.9 0.6-8.7 4.8-8.7 9.8 0 3.5 1.9 6.8 5 8.6l0.8 0.5 -0.5 0.8c-0.7 1.1-1.1 2.4-1.1 3.8 0 3.9 3.2 7.1 7.1 7.1 0.3 0 0.6 0 1-0.1L14.6 172.8z" class="d"/><path d="M53.7 165.8l0.4 0.5c3 4.1 7.8 6.5 12.9 6.5 7.5 0 14.1-5.3 15.7-12.6l0.1-0.6 0.6-0.2c4.9-1.3 8.3-5.8 8.3-10.8 0-4.8-3.1-9.1-7.6-10.6l-1-0.4 0.4-1c0.5-1.2 0.7-2.4 0.7-3.7 0-5.5-4.4-9.9-9.9-9.9 -0.6 0-1.3 0.1-1.9 0.2l-0.8 0.2 -0.3-0.8c-1-2.4-3.2-3.9-5.8-3.9 -2.6 0-4.9 1.6-5.8 4l-0.3 0.7h-0.7 0c-4.2 0-7.9 3-8.7 7.1l-0.1 0.7 -0.7 0.1c-5.6 0.7-9.9 5.5-9.9 11.2 0 4 2.2 7.7 5.7 9.8l0.9 0.5 -0.6 0.9c-0.8 1.3-1.2 2.8-1.2 4.3 0 4.4 3.6 8.1 8.1 8.1 0.3 0 0.7 0 1.1-0.1L53.7 165.8z" class="c"/><path d="M24.4 193.2c-0.6 0-1-0.5-1-1v-42.9c0-0.6 0.5-1 1-1s1 0.5 1 1v42.9C25.5 192.8 25 193.2 24.4 193.2" class="c"/><path d="M24.4 164.1c-5.8 0-10.6-4.7-10.6-10.6 0-0.6 0.5-1 1-1 0.6 0 1 0.5 1 1 0 4.7 3.8 8.5 8.5 8.5 0.6 0 1 0.5 1 1C25.5 163.7 25 164.1 24.4 164.1" class="c"/><path d="M24.4 171.1c-0.6 0-1-0.5-1-1 0-0.6 0.5-1 1-1 4.7 0 8.5-3.8 8.5-8.5 0-0.6 0.5-1 1-1 0.6 0 1 0.5 1 1C35 166.4 30.3 171.1 24.4 171.1" class="c"/><path d="M53.7 165.8l0.4 0.5c3 4.1 7.8 6.5 12.9 6.5 7.5 0 14.1-5.3 15.7-12.6l0.1-0.6 0.6-0.2c4.9-1.3 8.3-5.8 8.3-10.8 0-4.8-3.1-9.1-7.6-10.6l-1-0.4 0.4-1c0.5-1.2 0.7-2.4 0.7-3.7 0-5.5-4.4-9.9-9.9-9.9 -0.6 0-1.3 0.1-1.9 0.2l-0.8 0.2 -0.3-0.8c-1-2.4-3.2-3.9-5.8-3.9 -2.6 0-4.9 1.6-5.8 4l-0.3 0.7h-0.7 0c-4.2 0-7.9 3-8.7 7.1l-0.1 0.7 -0.7 0.1c-5.6 0.7-9.9 5.5-9.9 11.2 0 4 2.2 7.7 5.7 9.8l0.9 0.5 -0.6 0.9c-0.8 1.3-1.2 2.8-1.2 4.3 0 4.4 3.6 8.1 8.1 8.1 0.3 0 0.7 0 1.1-0.1L53.7 165.8z" class="c"/><path d="M296.8 193.2H4.8c-1.8 0-3.2-0.5-3.2-1 0-0.6 1.4-1 3.2-1h292c1.8 0 3.2 0.5 3.2 1C300 192.8 298.6 193.2 296.8 193.2" class="d"/><path d="M53.7 165.8l0.4 0.5c3 4.1 7.8 6.5 12.9 6.5 7.5 0 14.1-5.3 15.7-12.6l0.1-0.6 0.6-0.2c4.9-1.3 8.3-5.8 8.3-10.8 0-4.8-3.1-9.1-7.6-10.6l-1-0.4 0.4-1c0.5-1.2 0.7-2.4 0.7-3.7 0-5.5-4.4-9.9-9.9-9.9 -0.6 0-1.3 0.1-1.9 0.2l-0.8 0.2 -0.3-0.8c-1-2.4-3.2-3.9-5.8-3.9 -2.6 0-4.9 1.6-5.8 4l-0.3 0.7h-0.7 0c-4.2 0-7.9 3-8.7 7.1l-0.1 0.7 -0.7 0.1c-5.6 0.7-9.9 5.5-9.9 11.2 0 4 2.2 7.7 5.7 9.8l0.9 0.5 -0.6 0.9c-0.8 1.3-1.2 2.8-1.2 4.3 0 4.4 3.6 8.1 8.1 8.1 0.3 0 0.7 0 1.1-0.1L53.7 165.8z" class="e"/><path d="M24.4 193.2c-0.6 0-1-0.5-1-1v-42.9c0-0.6 0.5-1 1-1s1 0.5 1 1v42.9C25.5 192.8 25 193.2 24.4 193.2" class="d"/><path d="M24.4 164.1c-5.8 0-10.6-4.7-10.6-10.6 0-0.6 0.5-1 1-1 0.6 0 1 0.5 1 1 0 4.7 3.8 8.5 8.5 8.5 0.6 0 1 0.5 1 1C25.5 163.7 25 164.1 24.4 164.1" class="d"/><path d="M24.4 171.1c-0.6 0-1-0.5-1-1 0-0.6 0.5-1 1-1 4.7 0 8.5-3.8 8.5-8.5 0-0.6 0.5-1 1-1 0.6 0 1 0.5 1 1C35 166.4 30.3 171.1 24.4 171.1" class="d"/><path d="M66.9 174.8c-5.5 0-10.8-2.6-14.2-6.9 -0.3 0-0.6 0-0.8 0 -5.6 0-10.1-4.5-10.1-10.1 0-1.6 0.4-3.1 1-4.5 -3.6-2.5-5.8-6.6-5.8-11 0-6.5 4.7-12 10.9-13.1 1.2-4.5 5.2-7.8 9.9-8 1.4-2.8 4.3-4.7 7.5-4.7 3.1 0 5.9 1.7 7.3 4.4 0.5-0.1 1-0.1 1.5-0.1 6.6 0 11.9 5.4 11.9 11.9 0 1.2-0.2 2.4-0.5 3.5 4.8 2.1 8 6.9 8 12.2 0 5.8-3.8 10.9-9.2 12.6C82.4 169.1 75.2 174.8 66.9 174.8zM53.7 165.8l0.4 0.5c3 4.1 7.8 6.5 12.9 6.5 7.5 0 14.1-5.3 15.7-12.6l0.1-0.6 0.6-0.2c4.9-1.3 8.3-5.8 8.3-10.8 0-4.8-3.1-9.1-7.6-10.6l-1-0.4 0.4-1c0.5-1.2 0.7-2.4 0.7-3.7 0-5.5-4.4-9.9-9.9-9.9 -0.6 0-1.3 0.1-1.9 0.2l-0.8 0.2 -0.3-0.8c-1-2.4-3.2-3.9-5.8-3.9 -2.6 0-4.9 1.6-5.8 4l-0.3 0.7h-0.7 0c-4.2 0-7.9 3-8.7 7.1l-0.1 0.7 -0.7 0.1c-5.6 0.7-9.9 5.5-9.9 11.2 0 4 2.2 7.7 5.7 9.8l0.9 0.5 -0.6 0.9c-0.8 1.3-1.2 2.8-1.2 4.3 0 4.4 3.6 8.1 8.1 8.1 0.3 0 0.7 0 1.1-0.1L53.7 165.8z" class="d"/><path d="M65.3 193.2c-0.6 0-1-0.5-1-1v-64.8c0-0.6 0.5-1 1-1 0.6 0 1 0.5 1 1v64.8C66.4 192.8 65.9 193.2 65.3 193.2" class="d"/><path d="M65.3 141.4c-5.1 0-9.2-4.1-9.2-9.2 0-0.6 0.5-1 1-1 0.6 0 1 0.5 1 1 0 3.9 3.2 7.2 7.2 7.2 0.6 0 1 0.5 1 1S65.9 141.4 65.3 141.4" class="d"/><path d="M65.3 148.2c-0.6 0-1-0.5-1-1 0-0.6 0.5-1 1-1 3.9 0 7.2-3.2 7.2-7.2 0-0.6 0.5-1 1-1 0.6 0 1 0.5 1 1C74.6 144.1 70.4 148.2 65.3 148.2" class="d"/><path d="M65.3 157.8c-9.6 0-17.4-7.8-17.4-17.4 0-0.6 0.5-1 1-1 0.6 0 1 0.5 1 1 0 8.5 6.9 15.3 15.3 15.3 0.6 0 1 0.5 1 1C66.4 157.3 65.9 157.8 65.3 157.8" class="d"/><path d="M65.3 164.6c-0.6 0-1-0.5-1-1 0-0.6 0.5-1 1-1 8.5 0 15.3-6.9 15.3-15.3 0-0.6 0.5-1 1-1 0.6 0 1 0.5 1 1C82.7 156.8 74.9 164.6 65.3 164.6" class="d"/><path d="M152.7 131.7c0 0 40.6-0.9 46.6 0.8 7.1 1.9 10.5 13.9 11.3 16.7 0.8 2.8-72.7 5.5-70-2.9C141.8 142.3 149.6 132.4 152.7 131.7" class="b"/><path d="M138.8 161.1c4.1 0.8 8.1 1.5 12.1 1.9 0.7 0.1 1.3 0.8 1.1 1.4l-0.5 1.3c-0.2 0.6-0.7 1-1.3 1 -3.9-0.1-7.8-0.4-11.8-0.9 -0.7-0.1-1.2-0.7-1.1-1.4l0.3-2.4C137.5 161.4 138.1 160.9 138.8 161.1" class="c"/><path d="M150.1 167.6C150.1 167.6 150.1 167.6 150.1 167.6c-3.7-0.1-7.6-0.3-12-0.9 -0.6-0.1-1.1-0.4-1.4-0.8 -0.4-0.5-0.5-1.1-0.5-1.6l0.3-2.4c0.1-0.6 0.4-1.1 0.9-1.5 0.5-0.3 1-0.4 1.6-0.3 4.8 1 8.5 1.5 12 1.9 0.7 0.1 1.3 0.5 1.7 1.1 0.3 0.5 0.4 1.1 0.2 1.6l-0.5 1.3C151.8 167.1 151.1 167.6 150.1 167.6zM138.6 162C138.5 162 138.5 162 138.6 162c-0.1 0.1-0.2 0.1-0.2 0.2l-0.3 2.4c0 0.1 0 0.2 0.1 0.2 0.1 0.1 0.1 0.1 0.2 0.1 4.3 0.5 8.2 0.8 11.7 0.8 0.1 0 0.3 0 0.4-0.4l0.5-1.3c0-0.1-0.2-0.2-0.3-0.2C147.2 163.6 143.4 163 138.6 162L138.6 162C138.6 162 138.6 162 138.6 162z" class="d"/><path d="M212.2 161.1c-4.1 0.8-8.1 1.5-12.1 1.9 -0.7 0.1-1.3 0.8-1.1 1.4l0.5 1.3c0.2 0.6 0.7 1 1.3 1 3.9-0.1 7.8-0.4 11.8-0.9 0.7-0.1 1.2-0.7 1.1-1.4l-0.3-2.4C213.4 161.4 212.8 160.9 212.2 161.1" class="c"/><path d="M200.9 167.6c-1 0-1.8-0.6-2.2-1.6l-0.5-1.3c-0.2-0.5-0.1-1.1 0.2-1.6 0.4-0.6 1-1 1.7-1.1 3.5-0.3 7.2-0.9 12-1.9 0.6-0.1 1.1 0 1.6 0.3 0.5 0.3 0.8 0.9 0.9 1.5l0.3 2.4c0.1 0.6-0.1 1.2-0.5 1.6 -0.4 0.5-0.9 0.8-1.4 0.8C208.4 167.3 204.5 167.6 200.9 167.6 200.9 167.6 200.9 167.6 200.9 167.6zM199.9 164.1l0.5 1.3c0.2 0.4 0.4 0.4 0.4 0.4 3.5 0 7.4-0.3 11.7-0.8 0.1 0 0.1-0.1 0.2-0.1 0.1-0.1 0.1-0.2 0.1-0.2l-0.3-2.4c0-0.1 0-0.1-0.1-0.2 0 0-0.1 0-0.1 0l0 0c-4.9 1-8.6 1.6-12.2 1.9C200.1 163.9 200 164 199.9 164.1z" class="d"/><path d="M218.6 144.3h-5.5c0 0-0.1 0.2-0.1 0.2l-1.5 2.1 -1.6 0.1 -8.8-12.7c-0.7-0.8-1.6-1.3-2.7-1.4 -16.3-1-29.7-1-46.1 0 -1.1 0.1-2 0.6-2.7 1.5l-8.7 12.7 -1.6 0 -1.5-2.1c0 0 0-0.2-0.1-0.2h-5.5c-0.7 0-1.5 0.8-1.7 1.5l-0.4 2.7c0 0 0 0 0 0l5 2.3 1.9-2.2 1.4 1.2 -1.5 1.8 0 0 -3.3 4.1c-1.3 1.5-1.6 3.7-1.6 6.3v28.3c0 0.6 0 1 0.7 1h12.7c0.6 0 1.2-0.5 1.2-1.1l0.1-5.1c-2-0.1-4-0.2-6.1-0.4 -1.7-0.1-3.4-0.2-5.1-0.3l0.1-1.9c1.7 0.1 3.6 0.2 5.3 0.3 2 0.1 4.1 0.3 6.1 0.4v0l0.8 0.1c18.9 1.1 36.4 1.1 55.3 0l0.9-0.1v0c2-0.1 3.9-0.3 6-0.4 1.7-0.1 3.4-0.2 5.1-0.3l0.1 1.9c-1.7 0.1-3.4 0.2-5.1 0.3 -2 0.1-4.1 0.3-6.1 0.4l0.1 5.1c0 0.6 0.5 1.1 1.2 1.1h12.7c0.6 0 1.1-0.4 1.1-1V162c0-2.7-0.5-4.4-1.8-6l-2.7-2.7h0l0-0.5 -0.8-1.1 0-0.1 -1.5-1.9 1.4-1.2 1.9 2.2 5-2.2c0 0 0 0 0 0l-0.5-2.8C220.1 145.1 219.3 144.3 218.6 144.3z" class="c"/><path d="M222.7 148.4l-0.5-3.2c-0.4-1.5-2-2.9-3.5-2.9h-5.5c-0.8 0-1.3 0.6-1.6 1l-0.8 1.1 -8.1-11.7c-1-1.2-2.3-1.9-4-2.1 -16.5-1-29.9-1-46.4 0 -1.6 0.2-2.9 0.9-4 2.2l-8 11.7 -0.8-1.2c-0.3-0.3-0.7-1-1.6-1h-5.5c-1.6 0-3.1 1.4-3.5 3l-0.5 2.9c-0.2 0.8 0.2 1.5 1.1 2l4.5 2 -1.7 2.2c-1.6 1.9-2.1 4.5-2.1 7.6v28.3c0 1.7 1 3 2.7 3h12.7c1.7 0 3.1-1.3 3.1-3l0.1-5.1c18.3 1 35.4 1 53.6 0l0.1 5.1c0 1.7 1.4 3 3.1 3h12.7c1.7 0 3.1-1.3 3.1-3V162c0-3.1-0.7-5.6-2.3-7.6l-1.9-2.2 4.5-2C222.5 149.8 222.9 149.2 222.7 148.4zM220.8 148.5l-5 2.2 -1.9-2.2 -1.4 1.2 1.5 1.8 0 0 0.8 0.9 0 0.1 0 0 2.6 3.2c1.3 1.6 1.8 3.7 1.8 6.4v28.3c0 0.6-0.4 1-1.1 1h-12.7c-0.6 0-1.2-0.5-1.2-1.1l-0.1-5.1c2-0.1 4-0.2 6.1-0.4 1.7-0.1 3.4-0.2 5.1-0.3l-0.1-1.9c-1.7 0.1-3.4 0.2-5.1 0.3 -2 0.1-4 0.3-6 0.4v0l-1 0.1c-18.9 1.1-36.3 1.1-55.2 0l-0.8-0.1v0c-2-0.1-4.1-0.3-6.1-0.4 -1.7-0.1-3.5-0.2-5.2-0.3l-0.2 1.9c1.7 0.1 3.4 0.2 5.1 0.3 2 0.1 4 0.3 6.1 0.4l-0.1 5.1c0 0.6-0.5 1.1-1.2 1.1h-12.7c-0.6 0-0.7-0.4-0.7-1V162c0-2.6 0.3-4.8 1.6-6.3l3.4-4.1 -0.1 0 1.5-1.8 -1.5-1.2 -1.9 2.2 -5-2.2c0 0 0 0 0 0l0.4-2.7c0.2-0.7 1-1.5 1.7-1.5h5.5c0.1 0 0.1 0.2 0.1 0.2l1.5 2.1 1.6 0.1 8.7-12.7c0.7-0.9 1.6-1.3 2.7-1.5 16.4-1 29.8-1 46.1 0 1.1 0.1 2 0.6 2.7 1.4l8.8 12.8 1.6 0 1.5-2.1c0 0 0-0.2 0.1-0.2h5.5c0.7 0 1.5 0.8 1.7 1.4L220.8 148.5C220.8 148.4 220.8 148.5 220.8 148.5z" class="d"/><path d="M158.3 164.2c11.5 0.7 22.9 0.6 34.4 0 1-0.1 1.9 0.8 1.8 1.8l-0.5 5.6c-0.1 1-0.8 1.8-1.8 1.8 -11.3 0.5-22.4 0.5-33.5 0 -1 0-1.7-0.8-1.8-1.8l-0.5-5.6C156.4 165 157.3 164.1 158.3 164.2" class="c"/><path d="M175.6 174.7c-5.6 0-11.2-0.1-16.9-0.4 -1.5-0.1-2.6-1.2-2.7-2.7l-0.5-5.6c-0.1-0.7 0.2-1.5 0.7-2 0.6-0.6 1.3-0.9 2.1-0.8l0 0c11.2 0.6 22.7 0.6 34.3 0 0.8 0 1.5 0.3 2.1 0.8 0.5 0.5 0.8 1.3 0.7 2l-0.5 5.6c-0.1 1.5-1.3 2.6-2.7 2.7C186.8 174.6 181.2 174.7 175.6 174.7zM158.2 165.1c-0.2 0-0.4 0.1-0.6 0.3 -0.2 0.2-0.2 0.4-0.2 0.6l0.5 5.6c0 0.6 0.4 0.9 0.9 1 11.2 0.5 22.5 0.5 33.4 0 0.5 0 0.9-0.4 0.9-1l0.5-5.6c0-0.2-0.1-0.4-0.2-0.6 -0.2-0.2-0.4-0.3-0.6-0.3C181.1 165.8 169.5 165.8 158.2 165.1L158.2 165.1C158.2 165.1 158.2 165.1 158.2 165.1z" class="d"/><path d="M184.7 133.2c0 1-0.9 1.8-2 1.8h-9.4c-1.1 0-2-0.8-2-1.8s0.9-1.8 2-1.8h9.4C183.8 131.4 184.7 132.2 184.7 133.2" class="d"/><polygon points="197.6 134.9 195.8 138.1 190.5 147.7 188.7 151 187.7 148.9 188.9 146.7 194.2 137 195.4 134.9 " class="d"/><polygon points="183.8 155 193.5 137.4 182 153.7 " class="d"/><path d="M181.6 153.6c-1.3 0.1-2.3 1.1-2.3 2.3 0.1 1.2 1.2 2.2 2.5 2.1 1.3-0.1 2.3-1.1 2.3-2.3C184.1 154.5 183 153.5 181.6 153.6M181.8 156.9c-0.7 0-1.2-0.4-1.2-1 0-0.6 0.5-1.1 1.1-1.1 0.7 0 1.2 0.4 1.2 1C183 156.3 182.4 156.8 181.8 156.9" class="d"/><polygon points="170.2 134.9 168.4 138.1 163.1 147.7 161.4 151 160.4 148.9 161.6 146.7 166.9 137 168.1 134.9 " class="d"/><polygon points="156.5 155 166.1 137.4 154.6 153.7 " class="d"/><path d="M154.3 153.6c-1.3 0.1-2.3 1.1-2.3 2.3 0.1 1.2 1.2 2.2 2.5 2.1 1.3-0.1 2.3-1.1 2.3-2.3C156.7 154.5 155.6 153.5 154.3 153.6M154.4 156.9c-0.7 0-1.2-0.4-1.2-1 0-0.6 0.5-1.1 1.1-1.1 0.7 0 1.2 0.4 1.2 1C155.6 156.3 155.1 156.8 154.4 156.9" class="d"/><path d="M146.9 152.5l-6.5-11.1 -5.2-11.3c-0.6-1.3-1.6-2.4-3-2.9 -3.9-0.9-13.5-3.1-16.8-3.7 -0.8-0.2-1.5-0.1-2.3 0.2 -3.8 1.5-13.8 6.8-14.1 7.8 -0.4 1.1-1.1 2.2-0.6 3.2 0.4 0.8 5 10.6 7.8 15.5 -0.3 1.3-0.6 3.7-0.5 7.8L106 169l1.8 20.6c0.2 0.8 0.7 1.3 1.5 1.4h4.2c1.3-0.1 1.6-0.9 1.5-1.9l-0.3-9.1c2.8-2.1 5.4-4.2 6.3-4.9 2.7-2 1.8-17.7 1.8-22.1 0-1 0.7-2.4 0.7-2.4l6-12.4 1.3 0.2 4.2 6.7 7.2 10.3c1.2 1.5 3.7 0.9 4.8-0.3C147.6 154.3 147.5 153.4 146.9 152.5zM108.7 142.7l-3.4-7.1 5.9-2.3L108.7 142.7z" class="c"/><path d="M131.7 112.4c-0.4-3.4-3.5-4.6-6.1-4.6 -2.6 0-5.7 1.2-5.9 4.6 -0.1 1.8 0.3 5.8 1.1 7.2 0.7 1.2 2.6 2.5 4.4 2.9 0.8 0.1 1 0.1 1.9 0 1.5-0.4 2.9-1.4 3.7-2.9C131.5 118.2 131.9 114.2 131.7 112.4L131.7 112.4z" class="c"/><path d="M132.7 112.3c-0.4-3.3-3.2-5.6-7.1-5.6 -3.9 0-6.7 2.2-7 5.6 -0.1 1.7 0.3 6 1.3 7.8 0.8 1.5 3 2.9 5.1 3.4 0.5 0.1 0.8 0.1 1.1 0.1 0.3 0 0.7 0 1.2-0.1 1.9-0.4 3.5-1.7 4.4-3.4C132.7 118.4 132.9 114 132.7 112.3zM130.8 119.7c-0.7 1.4-2.1 2.5-3.7 2.9 -0.9 0.1-1.1 0.1-1.9 0 -1.8-0.4-3.7-1.7-4.4-2.9 -0.8-1.4-1.3-5.5-1.1-7.2 0.2-3.4 3.3-4.6 5.9-4.6 2.6 0 5.7 1.2 6.1 4.6v0C131.9 114.2 131.5 118.2 130.8 119.7z" class="d"/><path d="M100 184.2c-0.3 0.3-0.3 0.5-0.2 0.9 0.2 1.1 0.9 3 2.3 4l0.1 0.1 4.5-3.9 -0.7-7.5L100 184.2z" class="c"/><path d="M106.8 175.3l-7.6 8.2c-0.4 0.4-0.7 1-0.5 1.8 0.3 1.2 1 3.4 2.6 4.6 0.2 0.2 0.5 0.3 0.8 0.3 0.3 0 0.5-0.1 0.8-0.3l4.9-4.2L106.8 175.3zM102.1 189.2L102.1 189.2c-1.5-1.1-2.1-3.1-2.4-4.1 -0.1-0.4 0-0.6 0.2-0.9l6-6.4 0.7 7.5L102.1 189.2z" class="d"/><path d="M139.8 141.9l-5.2-11.4c-0.6-1.2-1.5-2.2-2.7-2.6 -3.9-0.9-13.4-3.1-16.7-3.7 -0.7-0.1-1.3-0.1-2.1 0.2 -4.1 1.6-13.2 6.6-13.8 7.5 -0.1 0.2-0.2 0.5-0.3 0.7 -0.3 0.8-0.6 1.5-0.3 2.1l0.1 0.1c3.7 7.8 8 16.5 9.3 17.7 0.3 0.2 0.5 0.3 0.8 0.2 1.2-0.3 2.5-2.3 2.8-2.9 -0.5-1.2-4.6-8.9-7.3-14l-0.3-0.6 7.5-2.5 0.7 0.7 -2.9 9.4 0 0c3.5 6.6 3.5 6.8 3.5 7 0 0.5-1.6 3.1-3.2 3.8 -0.8 0.4-1.6 0.2-2.2-0.3 -0.3-0.2-0.6-0.7-1-1.4 -0.2 1.4-0.3 3.4-0.3 6.3l0.3 11.1 1.8 20.5c0.1 0.5 0.4 0.8 1 0.9l4.1 0c0.8-0.1 1-0.4 1-1.4l-0.6-20.5 0.3-12.2 1.1 0 -0.3 12.2 0.3 10.4c2.6-2 4.7-3.7 5.4-4.2 2.1-1.6 1.8-14 1.6-19.4 0-1 0-1.8-0.1-2.4 0-1.1 0.7-2.4 0.7-2.6l6.2-12.7 1.9 0.3 4.3 6.9 7.2 10.3c0.4 0.5 1.1 0.6 1.5 0.7 0.9 0 1.9-0.4 2.5-1 0.6-0.6 0.6-1.2 0.1-2L139.8 141.9z" class="c"/><path d="M105.5 135.8c1.2 2.2 2.2 4.1 3 5.7l2.3-7.5L105.5 135.8z" class="c"/><path d="M147.2 152.5l-6.4-11.1 -5.2-11.3c-0.7-1.5-1.9-2.6-3.3-3.2 -4-0.9-13.5-3.1-16.8-3.7 -0.9-0.2-1.7-0.1-2.6 0.2 -3.2 1.2-14 6.8-14.4 8.1 -0.1 0.2-0.2 0.5-0.3 0.7 -0.4 0.9-0.8 1.9-0.3 2.9l0 0.1c1.7 3.7 5.3 11.1 7.6 15.2 -0.3 1.4-0.6 3.8-0.5 7.7l0.3 11.1 1.8 20.6c0.2 1 0.9 1.7 2 1.8l4.2 0c2.1-0.2 2-1.9 2-2.5l-0.3-8.8c2.9-2.2 5.3-4.1 6-4.7 2.3-1.7 2.3-11.4 2-20.2 0-0.9 0-1.7-0.1-2.3 0-0.7 0.4-1.8 0.6-2.1l5.8-12 0.6 0.1 4.1 6.5 7.2 10.4c0.6 0.7 1.4 1.1 2.3 1.1 1.2 0 2.5-0.5 3.3-1.4C147.9 154.8 147.9 153.7 147.2 152.5zM146.2 155c-0.6 0.6-1.6 1-2.5 1 -0.4 0-1.1-0.1-1.5-0.7l-7.2-10.3 -4.3-6.9 -1.9-0.3 -6.2 12.7c-0.1 0.2-0.7 1.5-0.7 2.6 0 0.6 0 1.4 0.1 2.4 0.1 5.3 0.5 17.8-1.6 19.4 -0.7 0.6-2.8 2.2-5.4 4.2l-0.3-10.4 0.3-12.2 -1.1 0 -0.3 12.2 0.6 20.5c0 1-0.2 1.3-1 1.4l-4.1 0c-0.6-0.1-0.9-0.4-1-0.9l-1.8-20.5 -0.3-11.1c-0.1-2.9 0.1-4.9 0.3-6.3 0.4 0.7 0.8 1.2 1 1.4 0.6 0.6 1.4 0.7 2.2 0.3 1.7-0.7 3.2-3.3 3.2-3.8 0-0.1 0-0.4-3.5-7l0 0 2.9-9.4 -0.7-0.7 -7.5 2.5 0.3 0.6c2.7 5.1 6.8 12.8 7.3 14 -0.3 0.6-1.6 2.6-2.8 2.9 -0.3 0.1-0.6 0-0.8-0.2 -1.3-1.2-5.6-9.9-9.3-17.7l-0.1-0.1c-0.3-0.6 0-1.3 0.3-2.1 0.1-0.3 0.2-0.5 0.3-0.7 0.6-0.9 9.7-5.9 13.8-7.5 0.7-0.3 1.4-0.3 2.1-0.2 3.3 0.6 12.8 2.8 16.7 3.7 1.1 0.5 2.1 1.4 2.7 2.6l5.2 11.4 6.5 11.1C146.8 153.9 146.7 154.4 146.2 155zM108.5 141.5c-0.8-1.6-1.8-3.4-3-5.7l5.3-1.8L108.5 141.5z" class="d"/><path d="M146.2 155c-0.6 0.6-1.6 1-2.5 1 -0.4 0-1.1-0.1-1.5-0.7l-7.2-10.3 -4.3-6.9 -1.9-0.3 -6.2 12.7c-0.1 0.2-0.7 1.5-0.7 2.6 0 0.6 0 1.4 0.1 2.4 0.1 5.3 0.5 17.8-1.6 19.4 -0.7 0.6-2.8 2.2-5.4 4.2l-0.3-10.4 0.3-12.2 -1.1 0 -0.3 12.2 0.6 20.5c0 1-0.2 1.3-1 1.4l-4.1 0c-0.6-0.1-0.9-0.4-1-0.9l-1.8-20.5 -0.3-11.1c-0.1-2.9 0.1-4.9 0.3-6.3 0.4 0.7 0.8 1.2 1 1.4 0.6 0.6 1.4 0.7 2.2 0.3 1.7-0.7 3.2-3.3 3.2-3.8 0-0.1 0-0.4-3.5-7l0 0 2.9-9.4 -0.7-0.7 -7.5 2.5 0.3 0.6c2.7 5.1 6.8 12.8 7.3 14 -0.3 0.6-1.6 2.6-2.8 2.9 -0.3 0.1-0.6 0-0.8-0.2 -1.3-1.2-5.6-9.9-9.3-17.7l-0.1-0.1c-0.3-0.6 0-1.3 0.3-2.1 0.1-0.3 0.2-0.5 0.3-0.7 0.6-0.9 9.7-5.9 13.8-7.5 0.7-0.3 1.4-0.3 2.1-0.2 3.3 0.6 12.8 2.8 16.7 3.7 1.1 0.5 2.1 1.4 2.7 2.6l5.2 11.4 6.5 11.1C146.8 153.9 146.7 154.4 146.2 155z" class="f"/><path d="M102.1 189.2L102.1 189.2c-1.5-1.1-2.1-3.1-2.4-4.1 -0.1-0.4 0-0.6 0.2-0.9l6-6.4 0.7 7.5L102.1 189.2z" class="f"/><path d="M130.8 119.7c-0.7 1.4-2.1 2.5-3.7 2.9 -0.9 0.1-1.1 0.1-1.9 0 -1.8-0.4-3.7-1.7-4.4-2.9 -0.8-1.4-1.3-5.5-1.1-7.2 0.2-3.4 3.3-4.6 5.9-4.6 2.6 0 5.7 1.2 6.1 4.6v0C131.9 114.2 131.5 118.2 130.8 119.7z" class="f"/><path d="M199.9 164.1l0.5 1.3c0.2 0.4 0.4 0.4 0.4 0.4 3.5 0 7.4-0.3 11.7-0.8 0.1 0 0.1-0.1 0.2-0.1 0.1-0.1 0.1-0.2 0.1-0.2l-0.3-2.4c0-0.1 0-0.1-0.1-0.2 0 0-0.1 0-0.1 0l0 0c-4.9 1-8.6 1.6-12.2 1.9C200.1 163.9 200 164 199.9 164.1z" class="e"/><path d="M138.6 162C138.5 162 138.5 162 138.6 162c-0.1 0.1-0.2 0.1-0.2 0.2l-0.3 2.4c0 0.1 0 0.2 0.1 0.2 0.1 0.1 0.1 0.1 0.2 0.1 4.3 0.5 8.2 0.8 11.7 0.8 0.1 0 0.3 0 0.4-0.4l0.5-1.3c0-0.1-0.2-0.2-0.3-0.2C147.2 163.6 143.4 163 138.6 162L138.6 162C138.6 162 138.6 162 138.6 162z" class="e"/></svg>