<?xml version="1.0" encoding="utf-8"?>
<!-- Generator: Adobe Illustrator 19.1.0, SVG Export Plug-In . SVG Version: 6.00 Build 0)  -->
<svg version="1.1" id="Layer_1" xmlns="http://www.w3.org/2000/svg" xmlns:xlink="http://www.w3.org/1999/xlink" x="0px" y="0px"
	 viewBox="-75 -75 200 200" style="enable-background:new -75 -75 200 200;" xml:space="preserve">
<style type="text/css">
	.st0{fill:#FFFFFF;}
</style>
<g>
	<path class="st0" d="M99.3-13.7c-1.6,0-2.8-1.2-3.2-2.4l-2-7.6c-0.4-1.6,0.8-3.6,2.4-4c1.6-0.4,3.6,0.8,4,2.4l2,7.6
		c0.4,1.6-0.8,3.6-2.4,4C99.7-13.7,99.7-13.7,99.3-13.7"/>
	<path class="st0" d="M115.7,53.4c-1.6,0-2.8-1.2-3.2-2.4l-4-16.8c-0.4-1.6,0.8-3.6,2.4-4c1.6-0.4,3.6,0.8,4,2.4l4,16.8
		c0.4,1.6-0.8,3.6-2.4,4C116.1,53.4,116.1,53.4,115.7,53.4 M107.7,19.8c-1.6,0-2.8-1.2-3.2-2.4l-4-16.8c-0.4-1.6,0.8-3.6,2.4-4
		c1.6-0.4,3.6,0.8,4,2.4l4,16.8c0.4,1.6-0.8,3.6-2.4,4C108.1,19.8,107.7,19.8,107.7,19.8"/>
	<path class="st0" d="M121.7,77.8c-1.6,0-2.8-1.2-3.2-2.4l-2-7.6c-0.4-1.6,0.8-3.6,2.4-4c1.6-0.4,3.6,0.8,4,2.4l2,7.6
		c0.4,1.6-0.8,3.6-2.4,4C122.1,77.8,121.7,77.8,121.7,77.8"/>
	<path class="st0" d="M71-14.1c-1.6,0-2.8-1.2-3.2-2.4l-1.6-7.2c-0.4-1.6,0.8-3.6,2.4-4c1.6-0.4,3.6,0.8,4,2.4l1.6,7.2
		c0.4,1.6-0.8,3.6-2.4,4C71.8-14.1,71.4-14.1,71-14.1"/>
	<path class="st0" d="M89,58.6c-1.6,0-2.8-1.2-3.2-2.4l-2.8-12c-0.4-1.6,0.8-3.6,2.4-4c1.6-0.4,3.6,0.8,4,2.4l2.8,12
		c0.4,1.6-0.8,3.6-2.4,4C89.4,58.6,89,58.6,89,58.6 M83,34.2c-1.6,0-2.8-1.2-3.2-2.4l-2.8-12c-0.4-1.6,0.8-3.6,2.4-4
		c1.6-0.4,3.6,0.8,4,2.4l2.8,12c0.4,1.6-0.8,3.6-2.4,4C83.4,34.2,83,34.2,83,34.2 M77,10.3c-1.6,0-2.8-1.2-3.2-2.4L71-4.1
		c-0.4-1.6,0.8-3.6,2.4-4c1.6-0.4,3.6,0.8,4,2.4l2.8,12c0.4,1.6-0.8,3.6-2.4,4C77.4,10.3,77.4,10.3,77,10.3"/>
	<path class="st0" d="M93.3,77.8c-1.6,0-2.8-1.2-3.2-2.4l-1.6-7.2c-0.4-1.6,0.8-3.6,2.4-4c1.6-0.4,3.6,0.8,4,2.4l1.6,7.2
		c0.4,1.6-0.8,3.6-2.4,4C94.1,77.8,93.7,77.8,93.3,77.8"/>
	<path class="st0" d="M43-14.5c-1.6,0-2.8-1.2-3.2-2.4l-1.6-6.8c-0.4-1.6,0.8-3.6,2.4-4c1.6-0.4,3.6,0.8,4,2.4l1.6,6.8
		c0.4,1.6-0.8,3.6-2.4,4C43.4-14.5,43-14.5,43-14.5"/>
	<path class="st0" d="M60.6,59c-1.6,0-2.8-1.2-3.2-2.4l-2.8-12.4c-0.4-1.6,0.8-3.6,2.4-4c1.6-0.4,3.6,0.8,4,2.4L63.8,55
		c0.4,1.6-0.8,3.6-2.4,4C61,59,61,59,60.6,59 M54.6,34.2c-1.6,0-2.8-1.2-3.2-2.4l-2.8-12.4c-0.4-1.6,0.8-3.6,2.4-4
		c1.6-0.4,3.6,0.8,4,2.4l2.8,12.4c0.4,1.6-0.8,3.6-2.4,4C55.4,34.2,55,34.2,54.6,34.2 M48.6,9.9c-1.6,0-2.8-1.2-3.2-2.4L42.6-4.9
		c-0.4-1.6,0.8-3.6,2.4-4s3.6,0.8,4,2.4l2.8,12.4c0.4,1.6-0.8,3.6-2.4,4C49.4,9.9,49,9.9,48.6,9.9"/>
	<path class="st0" d="M65.4,77.8c-1.6,0-2.8-1.2-3.2-2.4l-1.6-6.8c-0.4-1.6,0.8-3.6,2.4-4c1.6-0.4,3.6,0.8,4,2.4l1.6,6.8
		c0.4,1.6-0.8,3.6-2.4,4C65.8,77.8,65.4,77.8,65.4,77.8"/>
	<path class="st0" d="M14.6-14.9c-1.6,0-2.8-1.2-3.2-2.4l-1.6-6.4c-0.4-1.6,0.8-3.6,2.4-4c1.6-0.4,3.6,0.8,4,2.4l1.6,6.4
		c0.4,1.6-0.8,3.6-2.4,4C15-14.9,14.6-14.9,14.6-14.9"/>
	<path class="st0" d="M32.6,59c-1.6,0-2.8-1.2-3.2-2.4l-2.8-12.4c-0.4-1.6,0.8-3.6,2.4-4s3.6,0.8,4,2.4L35.8,55
		c0.4,1.6-0.8,3.6-2.4,4C33,59,32.6,59,32.6,59 M26.6,34.6c-1.6,0-2.8-1.2-3.2-2.4l-2.8-12.4c-0.4-1.6,0.8-3.6,2.4-4
		c1.6-0.4,3.6,0.8,4,2.4l2.8,12.4c0.4,1.6-0.8,3.6-2.4,4C27,34.6,26.6,34.6,26.6,34.6 M20.6,9.9c-1.6,0-2.8-1.2-3.2-2.4L14.6-4.9
		c-0.4-1.6,0.8-3.6,2.4-4s3.6,0.8,4,2.4l2.8,12.4c0.4,1.6-0.8,3.6-2.4,4C21,9.9,20.6,9.9,20.6,9.9"/>
	<path class="st0" d="M37,77.8c-1.6,0-2.8-1.2-3.2-2.4L32.2,69c-0.4-1.6,0.8-3.6,2.4-4c1.6-0.4,3.6,0.8,4,2.4l1.6,6.4
		c0.4,1.6-0.8,3.6-2.4,4C37.4,77.8,37.4,77.8,37,77.8"/>
	<path class="st0" d="M-13.8-15.3c-1.6,0-2.8-1.2-3.2-2.4l-1.6-6c-0.4-1.6,0.8-3.6,2.4-4c1.6-0.4,3.6,0.8,4,2.4l1.6,6
		c0.4,1.6-0.8,3.6-2.4,4C-13.4-15.3-13.4-15.3-13.8-15.3"/>
	<path class="st0" d="M4.2,59.4c-1.6,0-2.8-1.2-3.2-2.4l-3.2-12.4c-0.4-1.6,0.8-3.6,2.4-4s3.6,0.8,4,2.4l3.2,12.4
		C7.8,57,6.6,59,5,59.4C5,59.4,4.6,59.4,4.2,59.4 M-1.8,34.6c-1.6,0-2.8-1.2-3.2-2.4l-3.2-12.4c-0.4-1.6,0.8-3.6,2.4-4
		c1.6-0.4,3.6,0.8,4,2.4l3.2,12.4c0.4,1.6-0.8,3.6-2.4,4C-1.4,34.6-1.4,34.6-1.8,34.6 M-7.8,9.9c-1.6,0-2.8-1.2-3.2-2.4l-3.2-12.4
		c-0.4-1.6,0.8-3.6,2.4-4c1.6-0.4,3.6,0.8,4,2.4l3.2,12.4c0.4,1.6-0.8,3.6-2.4,4C-7.4,9.5-7.4,9.9-7.8,9.9"/>
	<path class="st0" d="M8.6,77.8c-1.6,0-2.8-1.2-3.2-2.4l-1.6-6c-0.4-1.6,0.8-3.6,2.4-4c1.6-0.4,3.6,0.8,4,2.4l1.6,6
		c0.4,1.6-0.8,3.6-2.4,4C9.4,77.8,9,77.8,8.6,77.8"/>
	<path class="st0" d="M-42.1-15.7c-1.6,0-2.8-1.2-3.2-2.4l-1.2-5.6c-0.4-1.6,0.8-3.6,2.4-4c1.6-0.4,3.6,0.8,4,2.4l1.2,5.6
		c0.4,1.6-0.8,3.6-2.4,4C-41.3-15.7-41.7-15.7-42.1-15.7"/>
	<path class="st0" d="M-23.8,59.8c-1.6,0-2.8-1.2-3.2-2.4L-30.2,45c-0.4-1.6,0.8-3.6,2.4-4c1.6-0.4,3.6,0.8,4,2.4l3.2,12.4
		c0.4,1.6-0.8,3.6-2.4,4C-23.4,59.8-23.8,59.8-23.8,59.8 M-29.8,34.6c-1.6,0-2.8-1.2-3.2-2.4l-3.2-12.4c-0.4-1.6,0.8-3.6,2.4-4
		c1.6-0.4,3.6,0.8,4,2.4l3.2,12.4c0.4,1.6-0.8,3.6-2.4,4C-29.4,34.6-29.8,34.6-29.8,34.6 M-36.2,9.5c-1.6,0-2.8-1.2-3.2-2.4
		l-3.2-12.4c-0.4-1.6,0.8-3.6,2.4-4c1.6-0.4,3.6,0.8,4,2.4L-33,5.5c0.4,1.6-0.8,3.6-2.4,4C-35.4,9.5-35.8,9.5-36.2,9.5"/>
	<path class="st0" d="M-19.4,77.8c-1.6,0-2.8-1.2-3.2-2.4l-1.2-5.6c-0.4-1.6,0.8-3.6,2.4-4c1.6-0.4,3.6,0.8,4,2.4l1.2,5.6
		c0.4,1.6-0.8,3.6-2.4,4C-19,77.8-19,77.8-19.4,77.8"/>
	<path class="st0" d="M-70.5-15.7c-1.6,0-2.8-1.2-3.2-2.4l-1.2-5.6c-0.4-1.6,0.8-3.6,2.4-4c1.6-0.4,3.6,0.8,4,2.4l1.2,5.2
		c0.4,1.6-0.8,3.6-2.4,4C-69.7-15.7-70.1-15.7-70.5-15.7"/>
	<path class="st0" d="M-51.3,62.6c-1.6,0-2.8-1.2-3.2-2.4l-2.4-10c-0.4-1.6,0.8-3.6,2.4-4c1.6-0.4,3.6,0.8,4,2.4l2.4,10
		c0.4,1.6-0.8,3.6-2.4,4C-50.9,62.6-50.9,62.6-51.3,62.6 M-56.1,43c-1.6,0-2.8-1.2-3.2-2.4l-2.4-10c-0.4-1.6,0.8-3.6,2.4-4
		c1.6-0.4,3.6,0.8,4,2.4l2.4,10c0.4,1.6-0.8,3.6-2.4,4C-55.7,43-55.7,43-56.1,43 M-60.9,23.4c-1.6,0-2.8-1.2-3.2-2.4l-2.4-10
		c-0.4-1.6,0.8-3.6,2.4-4c1.6-0.4,3.6,0.8,4,2.4l2.4,10c0.4,1.6-0.8,3.6-2.4,4C-60.1,23.4-60.5,23.4-60.9,23.4 M-65.7,3.9
		c-1.6,0-2.8-1.2-3.2-2.4l-2.4-10c-0.4-1.6,0.8-3.6,2.4-4c1.6-0.4,3.6,0.8,4,2.4l2.4,10c0.4,1.6-0.8,3.6-2.4,4
		C-64.9,3.9-65.3,3.9-65.7,3.9"/>
	<path class="st0" d="M-47.7,77.8c-1.6,0-2.8-1.2-3.2-2.4l-1.2-5.2c-0.4-1.6,0.8-3.6,2.4-4c1.6-0.4,3.6,0.8,4,2.4l1.2,5.2
		c0.4,1.6-0.8,3.6-2.4,4C-46.9,77.8-47.3,77.8-47.7,77.8"/>
</g>
</svg>
