<?xml version="1.0" encoding="utf-8"?>
<!-- Generator: Adobe Illustrator 19.1.0, SVG Export Plug-In . SVG Version: 6.00 Build 0)  -->
<svg version="1.1" id="Layer_1" xmlns="http://www.w3.org/2000/svg" xmlns:xlink="http://www.w3.org/1999/xlink" x="0px" y="0px"
	 viewBox="-75 -75 200 200" style="enable-background:new -75 -75 200 200;" xml:space="preserve">
<style type="text/css">
	.st0{fill:none;}
	.st1{fill:#FFFFFF;}
	.st2{fill:#F2BC47;}
	.st3{fill:#F39200;}
</style>
<g>
	<path class="st0" d="M25,82.6c-31.6,0-57.6-26-57.6-57.6s26-57.6,57.6-57.6S82.6-6.6,82.6,25S56.6,82.6,25,82.6"/>
	<g>
		<path class="st1" d="M25,84.6c-32.8,0-59.6-26.8-59.6-59.6S-7.8-34.6,25-34.6S84.6-7.8,84.6,25S57.8,84.6,25,84.6z M25-30.6
			C-5.4-30.6-30.6-5.8-30.6,25c0,30.4,24.8,55.6,55.6,55.6S80.6,55.4,80.6,25S55.4-30.6,25-30.6z"/>
	</g>
	<path class="st2" d="M25-42.6c-2,0-3.6-1.6-3.6-3.6v-25.2c0-2,1.6-3.6,3.6-3.6s3.6,1.6,3.6,3.6v25.2C28.6-44.2,27-42.6,25-42.6"/>
	<path class="st2" d="M-2.2-37c-1.6,0-2.8-0.8-3.2-2.4L-15-62.6c-0.8-2,0-4,2-4.8c2-0.8,4,0,4.8,2L1-42.2c0.8,2,0,4-2,4.8
		C-1.4-37.4-1.8-37-2.2-37"/>
	<path class="st2" d="M-25.4-21.8c-0.8,0-2-0.4-2.4-1.2l-18-17.6c-1.2-1.2-1.2-3.6,0-5.2c1.6-1.2,4-1.2,5.2,0L-23-28.2
		c1.6,1.6,1.6,3.6,0,5.2C-23.4-22.2-24.6-21.8-25.4-21.8"/>
	<path class="st2" d="M-41,1.4c-0.4,0-0.8,0-1.6-0.4l-23.2-9.6c-2-0.8-2.8-2.8-2-4.8c0.8-2,2.8-2.8,4.8-2l23.2,9.6
		c2,0.8,2.8,2.8,2,4.8C-38.2,0.6-39.4,1.4-41,1.4"/>
	<path class="st2" d="M-46.2,28.6h-25.2c-2,0-3.6-1.6-3.6-3.6s1.6-3.6,3.6-3.6h25.2c2,0,3.6,1.6,3.6,3.6S-44.2,28.6-46.2,28.6"/>
	<path class="st2" d="M-63.8,65.4c-1.6,0-2.8-0.8-3.2-2.4c-0.8-2,0-4,2-4.8l22.8-9.2c2-0.8,4,0,4.8,2s0,4-2,4.8l-23.2,9.6
		C-63,65.4-63.4,65.4-63.8,65.4"/>
	<path class="st2" d="M-43,96.6c-0.8,0-2-0.4-2.4-1.2c-1.6-1.6-1.6-3.6,0-5.2l17.6-17.6c1.6-1.6,3.6-1.6,5.2,0s1.6,3.6,0,5.2
		l-17.6,17.6C-41.4,96.6-42.2,96.6-43,96.6"/>
	<path class="st2" d="M-11.8,117.8c-0.4,0-0.8,0-1.6-0.4c-2-0.8-2.8-2.8-2-4.8l9.6-23.2c0.8-2,2.8-2.8,4.8-2s2.8,2.8,2,4.8
		l-9.6,23.2C-9,117-10.6,117.8-11.8,117.8"/>
	<path class="st2" d="M25,125c-2,0-3.6-1.6-3.6-3.6V96.2c0-2,1.6-3.6,3.6-3.6s3.6,1.6,3.6,3.6v25.2C28.6,123.4,27,125,25,125"/>
	<path class="st2" d="M61.8,117.8c-1.6,0-2.8-0.8-3.2-2.4L49,92.2c-0.8-2,0-4,2-4.8s4,0,4.8,2l9.6,23.2c0.8,2,0,4-2,4.8
		C63,117.4,62.2,117.8,61.8,117.8"/>
	<path class="st2" d="M93,96.6c-0.8,0-2-0.4-2.4-1.2L73,77.8c-1.6-1.6-1.6-3.6,0-5.2c1.6-1.6,3.6-1.6,5.2,0l17.6,17.6
		c1.6,1.6,1.6,3.6,0,5.2C95,96.6,94.2,96.6,93,96.6"/>
	<path class="st2" d="M113.8,65.4c-0.4,0-0.8,0-1.6-0.4L89,55.4c-2-0.8-2.8-2.8-2-4.8s2.8-2.8,4.8-2l23.2,9.6c2,0.8,2.8,2.8,2,4.8
		C117,64.6,115.4,65.4,113.8,65.4"/>
	<path class="st2" d="M121.4,28.6H96.2c-2,0-3.6-1.6-3.6-3.6s1.6-3.6,3.6-3.6h25.2c2,0,3.6,1.6,3.6,3.6S123.4,28.6,121.4,28.6"/>
	<path class="st2" d="M91,1.4c-1.6,0-2.8-0.8-3.2-2.4c-0.8-2,0-4,2-4.8l23.2-9.6c2-0.8,4,0,4.8,2s0,4-2,4.8L92.2,1
		C91.8,1.4,91.4,1.4,91,1.4"/>
	<path class="st2" d="M75.4-21.8c-0.8,0-2-0.4-2.4-1.2c-1.6-1.6-1.6-3.6,0-5.2l17.6-17.6c1.6-1.6,3.6-1.6,5.2,0
		c1.6,1.6,1.6,3.6,0,5.2L78.2-23C77.4-22.2,76.2-21.8,75.4-21.8"/>
	<path class="st2" d="M52.2-37c-0.4,0-0.8,0-1.6-0.4c-1.6-0.8-2.4-2.8-1.6-4.8l9.6-23.2c0.8-2,2.8-2.8,4.8-2s2.8,2.8,2,4.8
		l-9.6,23.2C55-37.8,53.8-37,52.2-37"/>
	<path class="st3" d="M25-30.6C-5.4-30.6-30.6-5.8-30.6,25c0,30.4,24.8,55.6,55.6,55.6S80.6,55.4,80.6,25S55.4-30.6,25-30.6z"/>
</g>
</svg>
