<svg xmlns="http://www.w3.org/2000/svg" viewBox="0 0 146 128" class="undefined"><style>.a{fill:#F1BB46;}.b{fill:#FFF;}.c{fill:none;}.d{fill:#F39200;}.e{fill:#007582;}.f{fill:#3C474E;}</style><path d="M71.8 8.3c-29.8 0-54 24.2-54 54s24.2 54 54 54 54-24.2 54-54C125.8 32.6 101.6 8.3 71.8 8.3z" class="a"/><path d="M71.8 117.3c-30.3 0-55-24.7-55-55s24.7-55 55-55 55 24.7 55 55C126.8 92.7 102.1 117.3 71.8 117.3zM71.8 9.3c-29.2 0-53 23.8-53 53s23.8 53 53 53 53-23.8 53-53S101 9.3 71.8 9.3z" class="b"/><path d="M70.1 63.5c-0.8 1.1-2.4 1.4-3.5 0.5 -1.1-0.8-1.4-2.4-0.5-3.5 0.8-1.1 2.4-1.4 3.5-0.5C70.7 60.8 70.9 62.4 70.1 63.5" class="c"/><path d="M99.3 93.2H41.2c-3.3 0-6-2.7-6-6V49.2c0-3.3 2.7-6 6-6h58.1c3.3 0 6 2.7 6 6v37.9C105.3 90.5 102.6 93.2 99.3 93.2z" class="d"/><path d="M105.4 58.8v-9.5c0-3.3-2.7-5.9-5.9-5.9h-6.5l8-8L84 18.5l-9.5 9.5 -5.9-5.9L47.4 43.2h-6.3c-3.3 0-5.9 2.7-5.9 5.9v38.1c0 3.3 2.7 5.9 5.9 5.9h58.3c3.3 0 5.9-2.7 5.9-5.9v-9.5h3.6V58.8H105.4z" class="b"/><path d="M94.3 32l3.3 3.3 -3.3 3.3C92.9 36.6 92.9 34.1 94.3 32z" class="e"/><path d="M84 21.9l3.3 3.3c-1 0.6-2 1-3.3 1l0 0c-1.2 0-2.3-0.4-3.3-1L84 21.9z" class="e"/><path d="M79.1 26.9c1.4 1.1 3.1 1.7 4.9 1.7l0 0c1.8 0 3.5-0.6 4.9-1.7l3.5 3.5c-2.2 2.9-2.2 7 0 10l-2.9 2.9h-5.7c0-1.9-0.8-3.9-2.3-5.4 -1.6-1.6-6.3-3.9-9.3-0.8 -1.6 1.6-1.9 4-1.1 6.3h-8.6L79.1 26.9z" class="e"/><path d="M81.5 43.2h-7.7c-1-1.7-1-3.5 0.1-4.6 2-1.9 4.8-0.2 5.9 0.8C80.9 40.6 81.5 42 81.5 43.2z" class="e"/><path d="M68.6 25.5l3.3 3.3c-1 0.6-3.6 1.7-6.5 0L68.6 25.5z" class="e"/><path d="M63.5 30.5c2.8 1.9 6.5 1.6 7.2 1.3l-7.7 7.7c-2.3-0.8-4.7-0.4-6.3 1.1 -0.7 0.7-1.2 1.7-1.4 2.7h-4.6L63.5 30.5z" class="e"/><path d="M61.1 41.4l-1.8 1.8h-1.4C58.2 40.8 60.9 41.4 61.1 41.4z" class="e"/><path d="M99.6 45.7c1.9 0 3.6 1.6 3.6 3.6v1.2H37.6v-1.2c0-1.9 1.6-3.6 3.6-3.6" class="f"/><path d="M103.1 87.4c0 1.9-1.6 3.6-3.6 3.6H41.1c-1.9 0-3.6-1.6-3.6-3.6v-1.2H103v1.2H103.1z" class="f"/><path d="M103.1 83.8H37.6v-31h65.5v5.9H92.3c-5.3 0-9.5 4.2-9.5 9.5 0 5.3 4.2 9.5 9.5 9.5h10.7L103.1 83.8z" class="f"/><path d="M106.6 75.4H92.3c-4 0-7.1-3.3-7.1-7.1 0-4 3.3-7.1 7.1-7.1h14.2V75.4z" class="f"/><path d="M88.7 68.3c0 2.7 2.2 4.7 4.7 4.7 2.5 0 4.7-2.2 4.7-4.7 0-2.7-2.2-4.7-4.7-4.7C90.9 63.6 88.7 65.7 88.7 68.3zM93.6 65.9c1.3 0 2.4 1.1 2.4 2.4 0 1.3-1.1 2.4-2.4 2.4 -1.3 0-2.4-1.1-2.4-2.4C91.1 67 92.2 65.9 93.6 65.9z" class="b"/></svg>