<?xml version="1.0" encoding="UTF-8"?>
<!-- Generator: Adobe Illustrator 21.0.0, SVG Export Plug-In . SVG Version: 6.00 Build 0)  -->
<svg version="1.1" id="Layer_1" xmlns="http://www.w3.org/2000/svg" xmlns:xlink="http://www.w3.org/1999/xlink" x="0px" y="0px" viewBox="0 0 1400 410" style="enable-background:new 0 0 1400 410;" xml:space="preserve">
<style type="text/css">
	.st0{opacity:0.5;fill:#69D2DC;enable-background:new    ;}
	.st1{fill:url(#SVGID_1_);}
	.st2{fill:#7B878E;}
	.st3{fill:#69D2DC;}
	.st4{fill:#73C8D1;}
	.st5{fill:#F1BB46;}
	.st6{fill-rule:evenodd;clip-rule:evenodd;fill:#7B878E;}
	.st7{fill:#F1BB46;stroke:#FFFFFF;stroke-width:3.3738;stroke-linecap:round;stroke-linejoin:round;stroke-miterlimit:10;}
	.st8{fill:none;stroke:#FFFFFF;stroke-width:3.3738;stroke-linecap:round;stroke-linejoin:round;stroke-miterlimit:10;}
	.st9{fill:#7B878E;stroke:#FFFFFF;stroke-width:3.3738;stroke-linecap:round;stroke-linejoin:round;stroke-miterlimit:10;}
</style>
<rect y="229" class="st0" width="1400" height="183"/>
<linearGradient id="SVGID_1_" gradientUnits="userSpaceOnUse" x1="690" y1="-9.999812e-02" x2="690" y2="177" gradientTransform="matrix(1 0 0 -1 0 410)">
	<stop offset="0" style="stop-color:#E1E3E4"/>
	<stop offset="1" style="stop-color:#F5F5F5"/>
</linearGradient>
<polygon class="st1" points="1067.4,410.1 312.6,410 604.6,233 788.9,233 "/>
<rect y="229" class="st2" width="1400" height="4"/>
<polygon class="st2" points="313,410 604.9,233 615.3,233 313,415 "/>
<polygon class="st2" points="1067.7,415 781.9,233 789.3,233 1067.7,410.1 "/>
<path class="st3" d="M1183.1,287c5.8-6.8,9.2-15.6,9.2-25.2c0-21.5-17.5-39-39-39c-6.4,0-12.4,1.5-17.8,4.2  c-8.3-17.9-26.3-30.3-47.3-30.3s-39,12.4-47.3,30.3c-5.4-2.7-11.3-4.2-17.8-4.2c-21.5,0-39,17.5-39,39c0,9.6,3.4,18.4,9.2,25.2  h189.2H1183.1z"/>
<path class="st2" d="M996,291c-0.6,0-1.1-0.2-1.6-0.6c-8.5-7.7-13.4-18.6-13.4-30c0-22.3,18.3-40.5,40.8-40.5  c7.1,0,14.1,1.8,20.2,5.3c1.1,0.6-0.8,1.3-1.4,2.4s0.2,2.3-0.9,1.6c-5.4-3.1-11.6-4.7-17.9-4.7c-19.9,0-36.2,16.1-36.2,35.9  c0,10.1,4.3,19.8,11.9,26.6c1,0.9,1,2.3,0.2,3.3c-1,1-1,1-2,1"/>
<path class="st2" d="M1030,291c-1,0-1.9-0.6-2.2-1.6l-8.9-28.3c-0.4-1.2,0.3-2.5,1.5-2.9s2.5,0.3,2.9,1.5l8.9,28.3  c0.4,1.2-0.3,2.5-1.5,2.9"/>
<path class="st2" d="M1180,291c-0.6,0-1.3-0.3-1.7-0.8c-0.9-0.9-0.8-2.4,0.2-3.3c7.5-6.8,11.9-16.5,11.9-26.6  c0-19.8-16.2-35.9-36.2-35.9c-6.3,0-12.5,1.6-17.9,4.7c-1.1,0.6-2.6,0.2-3.2-0.9s-0.2-2.5,0.9-3.2c6.1-3.5,13.1-5.3,20.2-5.3  c22.5,0,40.8,18.2,40.8,40.5c0,11.4-4.9,22.3-13.4,30v1"/>
<path class="st2" d="M1140,291c-0.2,0-0.5,0-0.7-0.1c-1.2-0.4-1.9-1.7-1.5-2.9l8.9-28.3c0.4-1.2,1.7-1.9,2.9-1.5s1.9,1.7,1.5,2.9  l-8.9,28.3c10,2,0,2,0,2"/>
<path class="st2" d="M1120,291c-0.7,0-1.4-0.3-1.9-0.9c-0.8-1-0.5-2.5,0.5-3.2c1.7-1.3,3.4-2.7,4.9-4.2c9.6-9.2,14.8-21.5,14.8-34.6  c0-6.9-1.5-13.6-4.3-19.9c-7.9-17.3-25.3-28.4-44.3-28.4c-19.1,0-36.5,11.2-44.3,28.4c-2.9,6.2-4.3,12.9-4.3,19.9  c0,13.2,5.2,25.5,14.8,34.6c1.5,1.5,3.2,2.9,5,4.2c1,0.8,1.3,2.2,0.5,3.2s-2.2,1.3-3.3,0.5c-2-1.4-3.8-3-5.5-4.6  c-10.4-10-16.2-23.5-16.2-37.9c0-7.6,1.6-14.9,4.7-21.8c8.6-18.9,27.7-31.1,48.6-31.1s40,12.2,48.6,31.1c3.1,6.9,4.7,14.2,4.7,21.8  c0,14.5-5.8,27.9-16.2,38c-1.7,1.7-3.5,3.2-5.4,4.6"/>
<path class="st2" d="M1090,290c-1.3,0-2.3-1-2.3-2.3v-53.5c0-1.3,1-2.3,2.3-2.3s2.3,1,2.3,2.3v53.5v2"/>
<path class="st2" d="M1090,287c-0.8,0-1.5-0.4-2-1.1l-20.9-32.3c-0.7-1.1-0.4-2.5,0.7-3.2s2.5-0.4,3.2,0.7l20.9,32.3  c0.7,1.1,0.4,2.5-0.7,3.2"/>
<path class="st2" d="M1090,287c-0.4,0-0.9-0.1-1.3-0.4c-1.1-0.7-1.4-2.1-0.7-3.2l20.9-32.3c0.7-1.1,2.1-1.4,3.2-0.7s1.4,2.1,0.7,3.2  l-20.9,32.3v1"/>
<path class="st2" d="M266,246l0.8,1c6.3,8.5,16.4,13.6,26.9,13.6c15.6,0,29.4-11.1,32.7-26.3l0.3-1.3l1.2-0.3  c10.2-2.8,17.3-12.1,17.3-22.7c0-10-6.4-19-15.9-22.2l-2.1-0.7l0.8-2.1c1-2.5,1.5-5.1,1.5-7.7c0-11.4-9.3-20.7-20.7-20.7  c-1.3,0-2.7,0.1-4,0.4l-1.7,0.3l-0.7-1.6c-2-4.9-6.8-8.1-12.1-8.1c-5.4,0-10.2,3.3-12.2,8.4l-0.5,1.4h-1.5  c-8.9,0-16.5,6.3-18.2,14.9l-0.3,1.5l-1.5,0.2c-11.8,1.4-20.6,11.5-20.6,23.3c0,8.4,4.5,16.2,11.8,20.4l1.9,1.1l-1.2,1.9  c-1.7,2.7-2.6,5.8-2.6,8.9c0,9.3,7.6,16.9,16.9,16.9c0.7,0,1.5-0.1,2.4-0.2h1L266,246z"/>
<path class="st4" d="M266,246l0.8,1c6.3,8.5,16.4,13.6,26.9,13.6c15.6,0,29.4-11.1,32.7-26.3l0.3-1.3l1.2-0.3  c10.2-2.8,17.3-12.1,17.3-22.7c0-10-6.4-19-15.9-22.2l-2.1-0.7l0.8-2.1c1-2.5,1.5-5.1,1.5-7.7c0-11.4-9.3-20.7-20.7-20.7  c-1.3,0-2.7,0.1-4,0.4l-1.7,0.3l-0.7-1.6c-2-4.9-6.8-8.1-12.1-8.1c-5.4,0-10.2,3.3-12.2,8.4l-0.5,1.4h-1.5  c-8.9,0-16.5,6.3-18.2,14.9l-0.3,1.5l-1.5,0.2c-11.8,1.4-20.6,11.5-20.6,23.3c0,8.4,4.5,16.2,11.8,20.4l1.9,1.1l-1.2,1.9  c-1.7,2.7-2.6,5.8-2.6,8.9c0,9.3,7.6,16.9,16.9,16.9c0.7,0,1.5-0.1,2.4-0.2h1L266,246z"/>
<path class="st2" d="M294,265c-11.5,0-22.5-5.3-29.6-14.3c-0.6,0.1-1.2,0.1-1.7,0.1c-11.7,0-21.1-9.5-21.1-21.1  c0-3.2,0.8-6.4,2.2-9.3c-7.6-5.1-12.2-13.8-12.2-23c0-13.5,9.7-25,22.9-27.3c2.5-9.4,10.9-16.2,20.7-16.8c2.9-5.9,9-9.8,15.6-9.8  c6.5,0,12.3,3.6,15.3,9.2c1.1-0.1,2.1-0.2,3.2-0.2c13.8,0,24.9,11.2,24.9,24.9c0,2.5-0.4,4.9-1.1,7.3c10.1,4.4,16.8,14.4,16.8,25.5  c0,12-7.8,22.7-19.2,26.4c-5,18-20,29-37,29L294,265z M266,246l0.8,1c6.3,8.5,16.4,13.6,26.9,13.6c15.6,0,29.4-11.1,32.7-26.3  l0.3-1.3l1.2-0.3c10.2-2.8,17.3-12.1,17.3-22.7c0-10-6.4-19-15.9-22.2l-2.1-0.7l0.8-2.1c1-2.5,1.5-5.1,1.5-7.7  c0-11.4-9.3-20.7-20.7-20.7c-1.3,0-2.7,0.1-4,0.4l-1.7,0.3l-0.7-1.6c-2-4.9-6.8-8.1-12.1-8.1c-5.4,0-10.2,3.3-12.2,8.4l-0.5,1.4  h-1.5c-8.9,0-16.5,6.3-18.2,14.9l-0.3,1.5l-1.5,0.2c-11.8,1.4-20.6,11.5-20.6,23.3c0,8.4,4.5,16.2,11.8,20.4l1.9,1.1l-1.2,1.9  c-1.7,2.7-2.6,5.8-2.6,8.9c0,9.3,7.6,16.9,16.9,16.9c0.7,0,1.5-0.1,2.4-0.2h1L266,246z"/>
<path class="st2" d="M391,251c-13.1,0-25.6-6.1-33.7-16.3c-0.7,0.1-1.3,0.1-2,0.1c-13.3,0-24-10.8-24-24c0-3.7,0.9-7.3,2.5-10.6  c-8.6-5.9-13.8-15.7-13.8-26.1c0-15.4,11.1-28.4,26-31.1c2.9-10.7,12.4-18.5,23.5-19.1c3.3-6.7,10.2-11.1,17.7-11.1  c7.4,0,14,4.1,17.4,10.5c1.2-0.2,2.4-0.2,3.6-0.2c15.6,0,28.4,12.7,28.4,28.4c0,2.8-0.4,5.6-1.2,8.3c11.5,5,19.1,16.3,19.1,29  c0,13.7-8.9,25.8-21.9,30c-5,19-23,32-42,32"/>
<path class="st2" d="M359,230l0.9,1.2c7.2,9.7,18.6,15.5,30.6,15.5c17.8,0,33.4-12.6,37.2-29.9l0.3-1.4l1.4-0.4  c11.6-3.2,19.7-13.8,19.7-25.8c0-11.4-7.3-21.6-18.1-25.3l-2.4-0.8l1-2.4c1.1-2.8,1.7-5.8,1.7-8.8c0-13-10.5-23.5-23.5-23.5  c-1.5,0-3.1,0.2-4.6,0.5l-2,0.4l-0.8-1.9c-2.3-5.6-7.7-9.3-13.8-9.3c-6.2,0-11.6,3.7-13.9,9.5l-0.6,1.6h-1.7  c-10.1,0-18.8,7.1-20.7,16.9l-0.3,1.7l-1.7,0.2c-13.4,1.6-23.4,13-23.4,26.5c0,9.5,5.2,18.4,13.4,23.2l2.2,1.3l-1.3,2.1  c-1.9,3.1-2.9,6.6-2.9,10.2c0,10.6,8.6,19.2,19.2,19.2c0.8,0,1.7-0.1,2.7-0.2l1-1L359,230z"/>
<path class="st2" d="M391,251c-13.1,0-25.6-6.1-33.7-16.3c-0.7,0.1-1.3,0.1-2,0.1c-13.3,0-24-10.8-24-24c0-3.7,0.9-7.3,2.5-10.6  c-8.6-5.9-13.8-15.7-13.8-26.1c0-15.4,11.1-28.4,26-31.1c2.9-10.7,12.4-18.5,23.5-19.1c3.3-6.7,10.2-11.1,17.7-11.1  c7.4,0,14,4.1,17.4,10.5c1.2-0.2,2.4-0.2,3.6-0.2c15.6,0,28.4,12.7,28.4,28.4c0,2.8-0.4,5.6-1.2,8.3c11.5,5,19.1,16.3,19.1,29  c0,13.7-8.9,25.8-21.9,30c-5,19-23,32-42,32"/>
<path class="st2" d="M359,230l0.9,1.2c7.2,9.7,18.6,15.5,30.6,15.5c17.8,0,33.4-12.6,37.2-29.9l0.3-1.4l1.4-0.4  c11.6-3.2,19.7-13.8,19.7-25.8c0-11.4-7.3-21.6-18.1-25.3l-2.4-0.8l1-2.4c1.1-2.8,1.7-5.8,1.7-8.8c0-13-10.5-23.5-23.5-23.5  c-1.5,0-3.1,0.2-4.6,0.5l-2,0.4l-0.8-1.9c-2.3-5.6-7.7-9.3-13.8-9.3c-6.2,0-11.6,3.7-13.9,9.5l-0.6,1.6h-1.7  c-10.1,0-18.8,7.1-20.7,16.9l-0.3,1.7l-1.7,0.2c-13.4,1.6-23.4,13-23.4,26.5c0,9.5,5.2,18.4,13.4,23.2l2.2,1.3l-1.3,2.1  c-1.9,3.1-2.9,6.6-2.9,10.2c0,10.6,8.6,19.2,19.2,19.2c0.8,0,1.7-0.1,2.7-0.2l1-1L359,230z"/>
<path class="st2" d="M290,295c-1.3,0-2.4-1.1-2.4-2.4v-102c0-1.3,1.1-2.4,2.4-2.4s2.4,1.1,2.4,2.4v102c-1,1-2,2-3,2"/>
<path class="st2" d="M290,226c-13.9,0-25.1-11.3-25.1-25.1c0-1.3,1.1-2.4,2.4-2.4s2.4,1.1,2.4,2.4c0,11.2,9.1,20.3,20.3,20.3  c1.3,0,2.4,1.1,2.4,2.4c0,1-1,2-2,2"/>
<path class="st2" d="M290,243c-1.3,0-2.4-1.1-2.4-2.4s1.1-2.4,2.4-2.4c11.2,0,20.3-9.1,20.3-20.3c0-1.3,1.1-2.4,2.4-2.4  s2.4,1.1,2.4,2.4c0,12-11,24-25,24"/>
<path class="st2" d="M359,230l0.9,1.2c7.2,9.7,18.6,15.5,30.6,15.5c17.8,0,33.4-12.6,37.2-29.9l0.3-1.4l1.4-0.4  c11.6-3.2,19.7-13.8,19.7-25.8c0-11.4-7.3-21.6-18.1-25.3l-2.4-0.8l1-2.4c1.1-2.8,1.7-5.8,1.7-8.8c0-13-10.5-23.5-23.5-23.5  c-1.5,0-3.1,0.2-4.6,0.5l-2,0.4l-0.8-1.9c-2.3-5.6-7.7-9.3-13.8-9.3c-6.2,0-11.6,3.7-13.9,9.5l-0.6,1.6h-1.7  c-10.1,0-18.8,7.1-20.7,16.9l-0.3,1.7l-1.7,0.2c-13.4,1.6-23.4,13-23.4,26.5c0,9.5,5.2,18.4,13.4,23.2l2.2,1.3l-1.3,2.1  c-1.9,3.1-2.9,6.6-2.9,10.2c0,10.6,8.6,19.2,19.2,19.2c0.8,0,1.7-0.1,2.7-0.2l1-1L359,230z"/>
<path class="st5" d="M391,251c-13.1,0-25.6-6.1-33.7-16.3c-0.7,0.1-1.3,0.1-2,0.1c-13.3,0-24-10.8-24-24c0-3.7,0.9-7.3,2.5-10.6  c-8.6-5.9-13.8-15.7-13.8-26.1c0-15.4,11.1-28.4,26-31.1c2.9-10.7,12.4-18.5,23.5-19.1c3.3-6.7,10.2-11.1,17.7-11.1  c7.4,0,14,4.1,17.4,10.5c1.2-0.2,2.4-0.2,3.6-0.2c15.6,0,28.4,12.7,28.4,28.4c0,2.8-0.4,5.6-1.2,8.3c11.5,5,19.1,16.3,19.1,29  c0,13.7-8.9,25.8-21.9,30c-5,19-23,32-42,32"/>
<path class="st2" d="M290,295c-1.3,0-2.4-1.1-2.4-2.4v-102c0-1.3,1.1-2.4,2.4-2.4s2.4,1.1,2.4,2.4v102c-1,1-2,2-3,2"/>
<path class="st2" d="M290,226c-13.9,0-25.1-11.3-25.1-25.1c0-1.3,1.1-2.4,2.4-2.4s2.4,1.1,2.4,2.4c0,11.2,9.1,20.3,20.3,20.3  c1.3,0,2.4,1.1,2.4,2.4c0,1-1,2-2,2"/>
<path class="st2" d="M290,243c-1.3,0-2.4-1.1-2.4-2.4s1.1-2.4,2.4-2.4c11.2,0,20.3-9.1,20.3-20.3c0-1.3,1.1-2.4,2.4-2.4  s2.4,1.1,2.4,2.4c0,12-11,24-25,24"/>
<path class="st2" d="M391,251c-13.1,0-25.6-6.1-33.7-16.3c-0.7,0.1-1.3,0.1-2,0.1c-13.3,0-24-10.8-24-24c0-3.7,0.9-7.3,2.5-10.6  c-8.6-5.9-13.8-15.7-13.8-26.1c0-15.4,11.1-28.4,26-31.1c2.9-10.7,12.4-18.5,23.5-19.1c3.3-6.7,10.2-11.1,17.7-11.1  c7.4,0,14,4.1,17.4,10.5c1.2-0.2,2.4-0.2,3.6-0.2c15.6,0,28.4,12.7,28.4,28.4c0,2.8-0.4,5.6-1.2,8.3c11.5,5,19.1,16.3,19.1,29  c0,13.7-8.9,25.8-21.9,30c-5,19-23,32-42,32L391,251z M359,230l0.9,1.2c7.2,9.7,18.6,15.5,30.6,15.5c17.8,0,33.4-12.6,37.2-29.9  l0.3-1.4l1.4-0.4c11.6-3.2,19.7-13.8,19.7-25.8c0-11.4-7.3-21.6-18.1-25.3l-2.4-0.8l1-2.4c1.1-2.8,1.7-5.8,1.7-8.8  c0-13-10.5-23.5-23.5-23.5c-1.5,0-3.1,0.2-4.6,0.5l-2,0.4l-0.8-1.9c-2.3-5.6-7.7-9.3-13.8-9.3c-6.2,0-11.6,3.7-13.9,9.5l-0.6,1.6  h-1.7c-10.1,0-18.8,7.1-20.7,16.9l-0.3,1.7l-1.7,0.2c-13.4,1.6-23.4,13-23.4,26.5c0,9.5,5.2,18.4,13.4,23.2l2.2,1.3l-1.3,2.1  c-1.9,3.1-2.9,6.6-2.9,10.2c0,10.6,8.6,19.2,19.2,19.2c0.8,0,1.7-0.1,2.7-0.2l1-1L359,230z"/>
<path class="st2" d="M387,295c-1.3,0-2.4-1.1-2.4-2.4v-154c0-1.3,1.1-2.4,2.4-2.4s2.4,1.1,2.4,2.4v154c-1,1-2,2-3,2"/>
<path class="st2" d="M387,172c-12.1,0-21.9-9.8-21.9-21.9c0-1.3,1.1-2.4,2.4-2.4s2.4,1.1,2.4,2.4c0,9.4,7.6,17,17,17  c1.3,0,2.4,1.1,2.4,2.4c0,1-1,2-2,2"/>
<path class="st2" d="M387,188c-1.3,0-2.4-1.1-2.4-2.4s1.1-2.4,2.4-2.4c9.4,0,17-7.6,17-17c0-1.3,1.1-2.4,2.4-2.4s2.4,1.1,2.4,2.4  c0,12-10,22-22,22"/>
<path class="st2" d="M387,211c-22.8,0-41.3-18.5-41.3-41.3c0-1.3,1.1-2.4,2.4-2.4s2.4,1.1,2.4,2.4c0,20.1,16.4,36.5,36.5,36.5  c1.3,0,2.4,1.1,2.4,2.4c0,1-1,2-2,2"/>
<path class="st2" d="M387,227c-1.3,0-2.4-1.1-2.4-2.4s1.1-2.4,2.4-2.4c20.1,0,36.5-16.4,36.5-36.5c0-1.3,1.1-2.4,2.4-2.4  s2.4,1.1,2.4,2.4c0,23-18,41-41,41"/>
<path class="st2" d="M1190,294H978c-1.3,0-2.3-1.8-2.3-3.9c0-2.2,1-3.9,2.3-3.9h212c1.3,0,2.3,1.8,2.3,3.9v4"/>
<path class="st6" d="M707,241.6l1.3,30.5h-18l1-30.5H707z M710,310.6l1.3,30.5h-23.3l1-30.5H710z M713,379.5l1.3,30.5h-28.5l1-30.5  H713z"/>
<g>
	<rect x="613.6" y="94.8" class="st7" width="172.9" height="41.6"/>
	<line class="st8" x1="613.6" y1="136.2" x2="643.3" y2="94.8"/>
	<line class="st8" x1="649.3" y1="136.2" x2="679.1" y2="94.8"/>
	<line class="st8" x1="714.9" y1="94.8" x2="685.1" y2="136.2"/>
	<line class="st8" x1="720.9" y1="136.2" x2="750.7" y2="94.8"/>
	<path class="st8" d="M786.4,94.8l-29.8,41.6L786.4,94.8z"/>
	<rect x="613.6" y="154.1" class="st7" width="172.9" height="41.6"/>
	<line class="st8" x1="613.6" y1="195.5" x2="643.3" y2="154.1"/>
	<line class="st8" x1="649.3" y1="195.5" x2="679.1" y2="154.1"/>
	<line class="st8" x1="714.9" y1="154.1" x2="685.1" y2="195.5"/>
	<line class="st8" x1="720.9" y1="195.5" x2="750.7" y2="154.1"/>
	<path class="st8" d="M786.4,154.1l-29.8,41.6L786.4,154.1z"/>
	<path class="st2" d="M631.5,231.1v-8.9c0-1.7,1.3-3,3-3h29.8c1.7,0,3,1.3,3,3v8.9H631.5z"/>
	<rect x="643.3" y="195.5" class="st9" width="11.9" height="23.7"/>
	<line class="st8" x1="649.3" y1="82.9" x2="649.3" y2="94.8"/>
	<path class="st2" d="M732.8,231.1v-8.9c0-1.7,1.3-3,3-3h29.8c1.7,0,3,1.3,3,3v8.9H732.8z"/>
	<rect x="744.6" y="195.5" class="st9" width="11.9" height="23.7"/>
	<rect x="643.3" y="136.2" class="st9" width="11.9" height="17.9"/>
	<rect x="744.6" y="136.2" class="st9" width="11.9" height="17.9"/>
	<ellipse class="st9" cx="649.3" cy="73.9" rx="8.9" ry="8.9"/>
	<line class="st8" x1="750.7" y1="82.9" x2="750.7" y2="94.8"/>
	<ellipse class="st9" cx="750.7" cy="73.9" rx="8.9" ry="8.9"/>
</g>
</svg>