<svg xmlns="http://www.w3.org/2000/svg" viewBox="0 0 50 50" class="undefined"><style>.a{fill:#FFF;}.b{fill:#F39200;}.c{fill:#01B1C0;}</style><circle cx="24.2" cy="25" r="18" class="a"/><path d="M24.2 7c9.9 0 18 8.1 18 18s-8.1 18-18 18 -18-8.1-18-18S14.3 7 24.2 7M24.2 3c-12.1 0-22 9.9-22 22s9.9 22 22 22 22-9.9 22-22S36.4 3 24.2 3L24.2 3z" class="b"/><path d="M29.3 32h-8.8v-1.3l4.5-5.3c0.8-1 1.3-1.7 1.6-2.3s0.4-1.1 0.4-1.7c0-0.7-0.2-1.2-0.6-1.6s-0.9-0.6-1.6-0.6c-0.8 0-1.5 0.3-1.9 0.8s-0.7 1.2-0.7 1.9h-1.9l0-0.1c0-1.2 0.4-2.1 1.2-2.9s1.9-1.2 3.3-1.2c1.3 0 2.3 0.4 3 1.1s1.1 1.6 1.1 2.7c0 0.7-0.2 1.5-0.6 2.2s-1 1.6-1.9 2.7l-3.6 4.2 0 0h6.5V32z" class="c"/></svg>