<svg xmlns="http://www.w3.org/2000/svg" viewBox="0 0 146 128"><style>.a{fill:#FFF;}.b{fill:#15A3B2;}.c{fill:#F2BC47;}</style><path d="M71.8 8.3c-29.8 0-54 24.2-54 54 0 29.8 24.2 54 54 54s54-24.2 54-54C125.8 32.6 101.6 8.3 71.8 8.3z" fill="#F1BB46"/><path d="M71.8 117.3c-30.3 0-55-24.7-55-55 0-30.3 24.7-55 55-55 30.3 0 55 24.7 55 55C126.8 92.7 102.1 117.3 71.8 117.3zM71.8 9.3c-29.2 0-53 23.8-53 53 0 29.2 23.8 53 53 53 29.2 0 53-23.8 53-53C124.8 33.1 101 9.3 71.8 9.3z" class="a"/><path d="M50.3 79.4l-0.1 4.7c0 0.9-0.8 1.6-1.7 1.6H38.3c-0.9 0-1.7-0.7-1.7-1.6V61.9c0-2.3 0.5-4.1 1.6-5.4l2.2-2.5 -4.6-2c-0.3-0.1-0.6-0.3-0.5-0.6l0.4-2.3c0.2-0.9 1.2-1.6 2.1-1.6h4.4c0.3 0 0.5 0.1 0.7 0.3l1 1.3 0.5 0 6.8-9.7c0.4-0.4 1.2-1.2 2.7-1.4 13.3-0.8 24-0.8 37.3 0 1.5 0.2 2.3 1 2.7 1.4l6.8 9.7 0.5 0 1-1.3c0.2-0.2 0.4-0.3 0.7-0.3h4.4c0.9 0 1.9 0.7 2.1 1.6l0.4 2.3c0.1 0.3-0.2 0.5-0.5 0.6l-4.6 2 2.2 2.5c1.1 1.4 1.7 3.2 1.7 5.4v22.2c0 0.9-0.8 1.6-1.7 1.6H96.7c-0.9 0-1.7-0.7-1.7-1.6L95 79.4C79.7 80.2 65.5 80.2 50.3 79.4z" fill="#69D2DC"/><path d="M100.8 49.2c0.7 2.8-1.8 3.3-5.7 3.5 -15.4 0.7-29.4 0.7-44.8 0 -3.9-0.2-6.5-0.7-5.7-3.5l6.8-9.7c0 0 0-1 2.7-1.4 2.7-0.4 34.4-0.6 37.2 0.8C93.8 40.4 100.8 49.2 100.8 49.2z" class="b"/><path d="M72.6 54.1c-7.3 0-14.7-0.2-22.5-0.6C47 53.3 45 53 44 51.7c-0.5-0.7-0.6-1.6-0.4-2.7l0.1-0.3 6.7-9.5c0.8-0.9 0.8-1.5 3.4-1.9 1.8-0.3 34.9-1.1 38.2 0.6 2.8 1.5 8.7 9.8 9.4 10.8l0.1 0.3c0.3 1.1 0.2 2-0.4 2.7 -1 1.3-3 1.7-6.1 1.8C87.3 53.9 80 54.1 72.6 54.1zM45.2 49.5c-0.2 0.8 0 1.1 0.1 1.2 0.6 0.8 2.8 1 4.9 1.1 15.5 0.8 29.3 0.8 44.8 0 2.1-0.1 4.3-0.3 4.9-1.1 0.1-0.1 0.3-0.4 0.1-1.2 -1.9-2.7-6.7-9.5-8.8-10.6 -2.4-1.2-34.2-0.4-37 0 -1.7 0.3-2 0.7-2 0.8L45.2 49.5z" class="a"/><path d="M43.1 61.2c3.3 0.7 6.5 1.2 9.7 1.5 0.5 0 1.1 0.6 0.9 1.1l-0.4 1c-0.2 0.5-0.5 0.8-1.1 0.8 -3.1 0-6.3-0.3-9.5-0.7 -0.5-0.1-0.9-0.6-0.9-1.1L42 62C42.1 61.5 42.5 61.1 43.1 61.2z" class="c"/><path d="M52.2 66.4C52.2 66.4 52.1 66.4 52.2 66.4c-2.9 0-6.1-0.3-9.6-0.7 -0.5-0.1-0.9-0.3-1.2-0.7 -0.3-0.4-0.4-0.9-0.4-1.3l0.2-1.8c0.1-0.5 0.3-0.9 0.7-1.2 0.4-0.3 0.9-0.4 1.3-0.3l0 0c3.8 0.8 6.8 1.2 9.6 1.5 0.6 0 1.1 0.4 1.4 0.9 0.3 0.4 0.3 0.9 0.1 1.3L54 65.1C53.6 66 53 66.4 52.2 66.4zM42.9 62C42.9 62 42.9 62 42.9 62l-0.3 1.9 0.1 0.1c3.5 0.4 6.6 0.6 9.4 0.7 0.1 0 0.2 0 0.3-0.3l0.4-0.9c0 0-0.1-0.1-0.1-0.1C49.8 63.3 46.8 62.8 42.9 62L42.9 62C42.9 62 42.9 62 42.9 62z" class="a"/><path d="M102.2 61.2c-3.3 0.6-6.5 1.2-9.7 1.5 -0.5 0-1.1 0.6-0.9 1.1l0.4 1c0.2 0.5 0.5 0.8 1.1 0.8 3.1 0 6.3-0.3 9.5-0.7 0.5-0.1 0.9-0.6 0.9-1.1l-0.2-1.8C103.2 61.5 102.7 61.1 102.2 61.2z" class="c"/><path d="M93.1 66.4c-0.8 0-1.5-0.5-1.8-1.3l-0.4-1c-0.2-0.4-0.1-0.9 0.1-1.3 0.3-0.5 0.9-0.9 1.5-0.9 2.8-0.2 5.8-0.7 9.6-1.5 0.5-0.1 1 0 1.3 0.3 0.4 0.3 0.7 0.7 0.7 1.2l0.2 1.8c0.1 0.5-0.1 1-0.4 1.3 -0.3 0.4-0.8 0.6-1.2 0.7C99.1 66.2 96 66.4 93.1 66.4 93.1 66.4 93.1 66.4 93.1 66.4zM92.4 63.6l0.4 0.9c0.1 0.3 0.2 0.3 0.3 0.3 2.8 0 5.9-0.3 9.4-0.7l0.1-0.1 -0.3-1.9c-3.9 0.8-7 1.2-9.8 1.5C92.5 63.5 92.4 63.5 92.4 63.6zM92.4 63.4L92.4 63.4 92.4 63.4z" class="a"/><path d="M110.7 51.3l-0.4-2.3c-0.3-1.2-1.6-2.2-2.9-2.2h-4.4c-0.7 0-1.1 0.4-1.3 0.6l-0.6 0.7L94.6 39c-0.8-1-1.9-1.6-3.3-1.7 -13.3-0.8-24.1-0.8-37.4 0 -1.3 0.2-2.4 0.7-3.3 1.8l-6.4 9.1 -0.5-0.7c-0.2-0.3-0.6-0.6-1.4-0.6h-4.4c-1.3 0-2.6 1-2.9 2.3l-0.4 2.2c-0.1 0.5-0.1 1.2 1 1.6l3.5 1.5L37.6 56c-1.3 1.5-1.9 3.5-1.8 6v22.2c0 1.4 1.1 2.4 2.5 2.4h10.2c1.4 0 2.5-1.1 2.5-2.4l0-3.9c14.7 0.8 28.4 0.8 43 0l0 3.9c0 1.4 1.1 2.4 2.5 2.4h10.2c1.4 0 2.5-1.1 2.5-2.4V62c0-2.5-0.6-4.5-1.9-6l-1.4-1.6 3.5-1.5C110.8 52.4 110.8 51.7 110.7 51.3zM105 53l-1.5-1.7 -1.3 1.1 1.1 1.3 0 0 0.6 0.7 0.1 0.2 0 0 2.2 2.5c1 1.2 1.5 2.9 1.5 4.9v22.2c0 0.4-0.4 0.8-0.9 0.8H96.7c-0.5 0-0.9-0.4-0.9-0.8l-0.1-5.6 -0.9 0c-15.2 0.8-29.4 0.8-44.6 0l-0.9 0 -0.1 5.6c0 0.4-0.4 0.8-0.9 0.8H38.3c-0.5 0-0.9-0.3-0.9-0.8V61.9c0-2 0.4-3.7 1.4-4.9l2.2-2.5 0 0 0.1-0.1 0.7-0.8 0 0 1.1-1.3 -1.3-1.1L40.2 53l-4-1.7 0.3-1.9c0.1-0.5 0.8-1 1.3-1l4.4 0 1.2 1.6 1.4 0 7-10c0.6-0.7 1.3-1 2.1-1.1 13.2-0.8 24-0.8 37.1 0 0.9 0.1 1.6 0.5 2.1 1.1l7.1 10 1.4 0 1.2-1.6h4.4c0.5 0 1.2 0.5 1.3 0.9l0.4 2L105 53z" class="a"/><path d="M58.8 63.6c9.2 0.5 18.5 0.5 27.7 0 0.8 0 1.5 0.6 1.5 1.4l-0.4 4.4c-0.1 0.8-0.7 1.4-1.5 1.4 -9.1 0.4-18.1 0.4-26.9 0 -0.8 0-1.4-0.6-1.5-1.4l-0.4-4.4C57.2 64.3 58 63.6 58.8 63.6z" class="b"/><path d="M72.7 72c-4.5 0-9.1-0.1-13.6-0.3 -1.2-0.1-2.2-1-2.3-2.2l-0.4-4.4c-0.1-0.6 0.2-1.2 0.6-1.6 0.5-0.5 1.1-0.7 1.7-0.7l0 0c9 0.5 18.3 0.5 27.6 0 0.6 0 1.3 0.2 1.7 0.7 0.4 0.5 0.7 1.1 0.6 1.6l-0.4 4.4c-0.1 1.2-1.1 2.1-2.3 2.2C81.7 71.9 77.2 72 72.7 72zM58.7 64.5c-0.1 0-0.3 0.1-0.4 0.2 0 0-0.2 0.2-0.1 0.3l0.4 4.4c0 0.4 0.3 0.6 0.7 0.7 9 0.4 18.1 0.4 26.9 0 0.4 0 0.6-0.3 0.7-0.7l0.4-4.4c0-0.2-0.1-0.3-0.1-0.3 -0.1-0.1-0.3-0.2-0.4-0.2C77.1 65 67.8 65 58.7 64.5L58.7 64.5C58.7 64.5 58.7 64.5 58.7 64.5z" class="a"/><path d="M77.7 38.8c0 0.8-0.7 1.4-1.6 1.4h-7.5c-0.9 0-1.6-0.6-1.6-1.4 0-0.8 0.7-1.4 1.6-1.4h7.5C77 37.3 77.7 38 77.7 38.8" class="a"/><circle cx="108.5" cy="101.8" r="20" fill="#F39200"/><path d="M108.5 122.8c-11.6 0-21-9.4-21-21s9.4-21 21-21 21 9.4 21 21S120.1 122.8 108.5 122.8zM108.5 82.8c-10.5 0-19 8.5-19 19s8.5 19 19 19 19-8.5 19-19S119 82.8 108.5 82.8z" class="a"/><path d="M118.3 92.6l-10.7 10.7 -4.9-4.9c-1-1-2.8-1-3.9 0 -1.1 1.1-1.1 2.8 0 3.9l6.9 6.9c0.5 0.5 1.2 0.8 1.9 0.8 0.7 0 1.4-0.3 1.9-0.8l12.7-12.7c1.1-1.1 1.1-2.8 0-3.9C121.1 91.6 119.3 91.6 118.3 92.6z" class="a"/></svg>