<svg xmlns="http://www.w3.org/2000/svg" viewBox="0 0 50 50"><style type="text/css">  
	.st0{fill-rule:evenodd;clip-rule:evenodd;fill:#7C878E;}
	.st1{fill:#7C878E;}
</style><path class="st0" d="M44 43.1l-1.6 1.6c-0.3 0.3-0.8 0.3-1.1 0L4.5 7.9c-0.3-0.3-0.3-0.8 0-1.1l1.6-1.6C6.4 5 6.9 5 7.2 5.3L44 42.1C44.3 42.4 44.3 42.8 44 43.1z"/><path class="st1" d="M49.5 25.7c0 0.6-0.2 1.2-0.5 1.9 -2.2 3.6-5 6.5-8.5 8.9L38 33.9c2.7-2.1 4.3-4.8 4.3-7.8 0-6.6-7.7-11.9-17.3-11.9 -2.1 0-4.2 0.3-6 0.8l-3.3-3.3c3-1.2 6.1-1.7 9.3-1.7 4.8 0 9.4 1.3 13.6 3.8 4.3 2.5 7.8 5.9 10.3 10.1C49.3 24.5 49.5 25.1 49.5 25.7z"/><path class="st1" d="M34.3 39.8c-3 1.2-6.1 1.7-9.3 1.7 -4.8 0-9.4-1.3-13.6-3.8C7 35.1 3.6 31.8 1 27.6c-0.4-0.6-0.5-1.3-0.5-1.9 0-0.6 0.2-1.2 0.5-1.9 2.2-3.6 5-6.5 8.5-8.9l2.9 2.9c-2.9 2.1-4.7 5-4.7 8.2C7.7 32.7 15.4 38 25 38c2.3 0 4.6-0.3 6.6-0.9L34.3 39.8z"/><path class="st0" d="M33.6 25.7c0 1.1-0.2 2.2-0.6 3.2L21.8 17.8c1-0.4 2.1-0.6 3.2-0.6C29.7 17.2 33.6 21 33.6 25.7z"/><path class="st0" d="M28.2 33.7c-1 0.4-2.1 0.6-3.2 0.6 -4.7 0-8.6-3.8-8.6-8.6 0-1.1 0.2-2.2 0.6-3.2L28.2 33.7z"/></svg>