<?xml version="1.0" encoding="utf-8"?>
<svg version="1.1" id="Layer_1" xmlns="http://www.w3.org/2000/svg" x="0" y="0" viewBox="0 0 217 219" style="enable-background:new 0 0 217 219;" xml:space="preserve">
  <style type="text/css">
    .st0{fill:url(#SVGID_1_);} .st1{fill:#FFFFFF;} .st2{fill:none;} .st3{fill:#E2E5E7;} .st4{fill:#69D2DC;} .st5{fill:#15A3B2;} .st6{fill:#F2BC47;} .st7{fill:#F39200;}
  </style>
  <radialGradient id="SVGID_1_" cx="108.0743" cy="107.9402" r="111.9257" gradientUnits="userSpaceOnUse">
    <stop offset="0.2876" style="stop-color:#F2BC47"/>
    <stop offset="1" style="stop-color:#F39200"/>
  </radialGradient>
  <path class="st0" d="M108.1,19.8C59.5,19.8,20,59.3,20,107.9s39.5,88.1,88.1,88.1s88.1-39.5,88.1-88.1	C196.2,59.5,156.7,19.8,108.1,19.8z"/>
  <path class="st1" d="M108.1,197.7c-49.4,0-89.7-40.3-89.7-89.7s40.3-89.7,89.7-89.7s89.7,40.3,89.7,89.7	C197.8,157.5,157.5,197.7,108.1,197.7z M108.1,21.5c-47.6,0-86.5,38.8-86.5,86.5s38.8,86.5,86.5,86.5s86.5-38.8,86.5-86.5	S155.7,21.5,108.1,21.5z"/>
  <path class="st2" d="M105.3,109.9c-1.3,1.8-3.9,2.3-5.7,0.8c-1.8-1.3-2.3-3.9-0.8-5.7c1.3-1.8,3.9-2.3,5.7-0.8	C106.3,105.5,106.6,108.1,105.3,109.9"/>
  <path class="st3" d="M108.1,208.8c-55.7,0-101-45.3-101-100.9c0-55.6,45.3-100.9,101-100.9s101,45.3,101,100.9	C209.1,163.6,163.8,208.8,108.1,208.8z M108.1,9.1c-54.6,0-99,44.4-99,98.9c0,54.5,44.4,98.9,99,98.9s99-44.4,99-98.9	C207.1,53.4,162.7,9.1,108.1,9.1z"/>
  <g>
    <path class="st4" d="M75.8,135.5l-0.1,6.9c0,1.3-1.2,2.3-2.5,2.3H58.3c-1.3,0-2.5-1-2.5-2.3v-32.5c0-3.4,0.7-6,2.3-7.9l3.2-3.7 l-6.7-2.9c-0.4-0.1-0.9-0.4-0.7-0.9l0.6-3.4c0.3-1.3,1.8-2.3,3.1-2.3H64c0.4,0,0.7,0.1,1,0.4l1.5,1.9h0.7l9.9-14.2 c0.6-0.6,1.8-1.8,3.9-2c19.5-1.2,35.1-1.2,54.6,0c2.2,0.3,3.4,1.5,3.9,2l9.9,14.2h0.7l1.5-1.9c0.3-0.3,0.6-0.4,1-0.4h6.4 c1.3,0,2.8,1,3.1,2.3l0.6,3.4c0.1,0.4-0.3,0.7-0.7,0.9l-6.7,2.9l3.2,3.7c1.6,2,2.5,4.7,2.5,7.9v32.5c0,1.3-1.2,2.3-2.5,2.3h-14.9 c-1.3,0-2.5-1-2.5-2.3v-6.9C118.8,136.6,98,136.6,75.8,135.5z"/>
    <path class="st5" d="M149.7,91.3c1,4.1-2.6,4.8-8.3,5.1c-22.5,1-43,1-65.5,0c-5.7-0.3-9.5-1-8.3-5.1l9.9-14.2c0,0,0-1.5,3.9-2 c3.9-0.6,50.3-0.9,54.4,1.2C139.4,78.4,149.7,91.3,149.7,91.3z"/>
    <path class="st1" d="M108.4,98.5c-10.7,0-21.5-0.3-32.9-0.9c-4.5-0.3-7.5-0.7-8.9-2.6c-0.7-1-0.9-2.3-0.6-3.9l0.1-0.4L76,76.7 c1.2-1.3,1.2-2.2,5-2.8c2.6-0.4,51.1-1.6,55.9,0.9c4.1,2.2,12.7,14.3,13.8,15.8l0.1,0.4c0.4,1.6,0.3,2.9-0.6,3.9 c-1.5,1.9-4.4,2.5-8.9,2.6C129.9,98.2,119.3,98.5,108.4,98.5z M68.3,91.7c-0.3,1.2,0,1.6,0.1,1.8c0.9,1.2,4.1,1.5,7.2,1.6 c22.7,1.2,42.9,1.2,65.5,0c3.1-0.1,6.3-0.4,7.2-1.6c0.1-0.1,0.4-0.6,0.1-1.8c-2.8-3.9-9.8-13.9-12.9-15.5c-3.5-1.8-50-0.6-54.1,0 c-2.5,0.4-2.9,1-2.9,1.2L68.3,91.7z"/>
    <path class="st6" d="M65.3,108.8c4.8,1,9.5,1.8,14.2,2.2c0.7,0,1.6,0.9,1.3,1.6l-0.6,1.5c-0.3,0.7-0.7,1.2-1.6,1.2 c-4.5,0-9.2-0.4-13.9-1c-0.7-0.1-1.3-0.9-1.3-1.6l0.3-2.6C63.8,109.3,64.4,108.7,65.3,108.8z"/>
    <path class="st1" d="M78.6,116.4C78.6,116.4,78.4,116.4,78.6,116.4c-4.2,0-8.9-0.4-14-1c-0.7-0.1-1.3-0.4-1.8-1 c-0.4-0.6-0.6-1.3-0.6-1.9l0.3-2.6c0.1-0.7,0.4-1.3,1-1.8c0.6-0.4,1.3-0.6,1.9-0.4l0,0c5.6,1.2,9.9,1.8,14,2.2c0.9,0,1.6,0.6,2,1.3 c0.4,0.6,0.4,1.3,0.1,1.9l-0.4,1.5C80.6,115.9,79.8,116.4,78.6,116.4z M65,110L65,110l-0.4,2.8l0.1,0.1c5.1,0.6,9.7,0.9,13.8,1 c0.1,0,0.3,0,0.4-0.4l0.6-1.3l-0.1-0.1C75.1,111.9,70.7,111.2,65,110L65,110L65,110z"/>
    <path class="st6" d="M151.7,108.8c-4.8,0.9-9.5,1.8-14.2,2.2c-0.7,0-1.6,0.9-1.3,1.6l0.6,1.5c0.3,0.7,0.7,1.2,1.6,1.2 c4.5,0,9.2-0.4,13.9-1c0.7-0.1,1.3-0.9,1.3-1.6l-0.3-2.6C153.2,109.3,152.5,108.7,151.7,108.8z"/>
    <path class="st1" d="M138.4,116.4c-1.2,0-2.2-0.7-2.6-1.9l-0.6-1.5c-0.3-0.6-0.1-1.3,0.1-1.9c0.4-0.7,1.3-1.3,2.2-1.3 c4.1-0.3,8.5-1,14-2.2c0.7-0.1,1.5,0,1.9,0.4c0.6,0.4,1,1,1,1.8l0.3,2.6c0.1,0.7-0.1,1.5-0.6,1.9c-0.4,0.6-1.2,0.9-1.8,1 C147.2,116.2,142.7,116.4,138.4,116.4L138.4,116.4z M137.4,112.4l0.6,1.3c0.1,0.4,0.3,0.4,0.4,0.4c4.1,0,8.6-0.4,13.8-1l0.1-0.1 l-0.4-2.8c-5.7,1.2-10.2,1.8-14.3,2.2C137.5,112.2,137.4,112.2,137.4,112.4z M137.4,112.1L137.4,112.1L137.4,112.1z"/>
    <path class="st1" d="M164.2,94.4l-0.6-3.4c-0.4-1.8-2.3-3.2-4.2-3.2h-6.4c-1,0-1.6,0.6-1.9,0.9l-0.9,1l-9.5-13.3 c-1.2-1.5-2.8-2.3-4.8-2.5c-19.5-1.2-35.3-1.2-54.7,0c-1.9,0.3-3.5,1-4.8,2.6l-9.4,13.3l-0.7-1c-0.3-0.4-0.9-0.9-2-0.9h-6.4 c-1.9,0-3.8,1.5-4.2,3.4l-0.6,3.2c-0.1,0.7-0.1,1.8,1.5,2.3l5.1,2.2l-2.2,2.2c-1.9,2.2-2.8,5.1-2.6,8.8v32.5c0,2,1.6,3.5,3.7,3.5 h14.9c2,0,3.7-1.6,3.7-3.5v-5.7c21.5,1.2,41.5,1.2,62.9,0v5.7c0,2,1.6,3.5,3.7,3.5h14.9c2,0,3.7-1.6,3.7-3.5V110 c0-3.7-0.9-6.6-2.8-8.8l-2-2.3l5.1-2.2C164.3,96,164.3,94.9,164.2,94.4z M155.8,96.8l-2.2-2.5l-1.9,1.6l1.6,1.9l0,0l0.9,1l0.1,0.3 l0,0l3.2,3.7c1.5,1.8,2.2,4.2,2.2,7.2v32.5c0,0.6-0.6,1.2-1.3,1.2h-14.8c-0.7,0-1.3-0.6-1.3-1.2l-0.1-8.2h-1.3 c-22.2,1.2-43,1.2-65.2,0h-1.3l-0.1,8.2c0,0.6-0.6,1.2-1.3,1.2H58.3c-0.7,0-1.3-0.4-1.3-1.2v-32.6c0-2.9,0.6-5.4,2-7.2l3.2-3.7l0,0 l0.1-0.1l1-1.2l0,0l1.6-1.9l-1.9-1.6l-2,2.6l-5.9-2.5l0.4-2.8c0.1-0.7,1.2-1.5,1.9-1.5H64l1.8,2.3h2L78,77.8c0.9-1,1.9-1.5,3.1-1.6 c19.3-1.2,35.1-1.2,54.3,0c1.3,0.1,2.3,0.7,3.1,1.6l10.4,14.6h2l1.8-2.3h6.4c0.7,0,1.8,0.7,1.9,1.3l0.6,2.9L155.8,96.8z"/>
    <path class="st5" d="M88.2,112.4c13.5,0.7,27.1,0.7,40.5,0c1.2,0,2.2,0.9,2.2,2l-0.6,6.4c-0.1,1.2-1,2-2.2,2 c-13.3,0.6-26.5,0.6-39.4,0c-1.2,0-2-0.9-2.2-2l-0.6-6.4C85.9,113.4,87.1,112.4,88.2,112.4z"/>
    <path class="st1" d="M108.6 124.6c-6.6 0-13.3-.1-19.9-.4-1.8-.1-3.2-1.5-3.4-3.2l-.6-6.4c-.1-.9.3-1.8.9-2.3.7-.7 1.6-1 2.5-1l0 0c13.2.7 26.8.7 40.4 0 .9 0 1.9.3 2.5 1 .6.7 1 1.6.9 2.3l-.6 6.4c-.1 1.8-1.6 3.1-3.4 3.2C121.7 124.5 115.2 124.6 108.6 124.6zM88.1 113.7c-.1 0-.4.1-.6.3 0 0-.3.3-.1.4l.6 6.4c0 .6.4.9 1 1 13.2.6 26.5.6 39.4 0 .6 0 .9-.4 1-1l.6-6.4c0-.3-.1-.4-.1-.4-.1-.1-.4-.3-.6-.3C115 114.4 101.4 114.4 88.1 113.7L88.1 113.7 88.1 113.7zM115.9 76.1c0 1.2-1 2-2.3 2h-11c-1.3 0-2.3-.9-2.3-2s1-2 2.3-2h11C114.9 73.9 115.9 74.9 115.9 76.1"/>
  </g>
  <g>
    <circle class="st7" cx="174.4" cy="163.9" r="28.5"/>
    <path class="st1" d="M174.4,193.8c-16.5,0-29.9-13.4-29.9-29.9s13.4-29.9,29.9-29.9s29.9,13.4,29.9,29.9S190.9,193.8,174.4,193.8z M174.4,136.8c-14.9,0-27.1,12.1-27.1,27.1c0,15,12.1,27.1,27.1,27.1c15,0,27.1-12.1,27.1-27.1 C201.5,148.9,189.4,136.8,174.4,136.8z"/>
  </g>
  <path class="st1" d="M185.4,153.8L170.1,169l-7-7c-1.4-1.4-4-1.4-5.6,0c-1.6,1.6-1.6,4,0,5.6l9.8,9.8c0.7,0.7,1.7,1.1,2.7,1.1	s2-0.4,2.7-1.1l18.1-18.1c1.6-1.6,1.6-4,0-5.6C189.3,152.4,186.8,152.4,185.4,153.8z"/>
</svg>
