<svg xmlns="http://www.w3.org/2000/svg" viewBox="0 0 160 160" class="undefined"><style>.a{fill:#7B878E;}.b{fill:#7C878E;}.c{fill:#F1BB46;}</style><path d="M80.4 135c-30.4 0-55.2-24.7-55.2-55.2 0-30.4 24.7-55.2 55.2-55.2s55.2 24.7 55.2 55.2C135.5 110.3 110.8 135 80.4 135zM80.4 26.7c-29.3 0-53.2 23.8-53.2 53.2S51.1 133 80.4 133s53.2-23.8 53.2-53.2S109.7 26.7 80.4 26.7z" class="a"/><path d="M80.2 66.6c-10.3 0-18.7 8.4-18.7 18.8 0 10.4 8.4 18.8 18.7 18.8s18.7-8.4 18.7-18.8C98.9 75.1 90.5 66.6 80.2 66.6M80.2 101.8c-8.9 0-16.2-7.3-16.2-16.3 0-9 7.3-16.3 16.2-16.3 8.9 0 16.2 7.3 16.2 16.3C96.4 94.5 89.1 101.8 80.2 101.8" class="b"/><polygon points="85.9 46.1 92.6 46.1 81.6 57.7 " class="c"/><polygon points="67.3 46.1 75.1 46.1 78.6 58 " class="c"/><polygon points="91.9 39.9 94.8 44.9 88.2 44.9 " class="c"/><polygon points="84.6 46.1 80 58.4 76.4 46.1 " class="c"/><polygon points="69.8 39.9 74.1 44.9 66.9 44.9 " class="c"/><polygon points="85.3 44.4 81.5 39.4 88.9 39.4 " class="c"/><polygon points="75.5 44.5 71.1 39.4 79 39.4 " class="c"/><polygon points="80.3 39.9 84 44.9 76.8 44.9 " class="c"/><path d="M88.5 55.8l7.5-7.9c0.7-0.7 0.8-1.8 0.3-2.7l-3.9-6.7c-0.4-0.7-1.1-1.1-1.9-1.1H69.9c-0.8 0-1.5 0.4-1.9 1.1l-3.9 6.7c-0.5 0.9-0.4 1.9 0.3 2.7l7.5 7.9c-12.6 3.6-21.8 15.3-21.8 29.1 0 16.7 13.5 30.3 30.1 30.3 16.6 0 30.1-13.6 30.1-30.3C110.3 71.1 101.1 59.5 88.5 55.8zM80.5 40.8l3.7 5H77L80.5 40.8zM75.7 45.4l-4.4-5h7.9L75.7 45.4zM85.5 45.4l-3.8-5h7.4L85.5 45.4zM70 40.8l4.3 5h-7.2L70 40.8zM84.8 47.1l-4.6 12.3 -3.7-12.3H84.8zM90.4 40.8l2.9 5h-6.5L90.4 40.8zM67.5 47.1h7.8L78.8 59 67.5 47.1zM86.2 47.1h6.7l-11 11.6L86.2 47.1zM80.2 112.4c-15 0-27.3-12.3-27.3-27.4 0-13.7 10.1-25 23.1-27.1l3.7 3.9c0 0 0 0 0.1 0 0 0 0 0 0.1 0 0.1 0.1 0.2 0.1 0.3 0.1 0 0 0 0 0 0h0c0.1 0 0.2 0 0.3-0.1 0 0 0 0 0.1 0 0 0 0.1 0 0.1-0.1l3.7-3.9c13.1 2 23.1 13.4 23.1 27.1C107.5 100.1 95.2 112.4 80.2 112.4z" class="b"/></svg>