<svg xmlns="http://www.w3.org/2000/svg" viewBox="0 0 160 160" class="undefined"><style>.a{fill:#FFF;}.b{fill:#7B878E;}.c{fill:#3C474E;}.d{fill:none;}</style><polygon points="54 103.8 67.4 85.5 68.5 83.3 70.8 80.2 79.2 86.2 76.4 89.9 74.4 91.9 61.9 108.7 56.1 108.6 " class="a"/><path d="M62.1 109.1l-6.2-0.2 -2.3-5.2 13.5-18.4 1.1-2.2 2.6-3.4 8.9 6.4 -3 4 -2 2L62.1 109.1zM56.3 108.2l5.4 0.1 12.4-16.7 2-2 2.5-3.4 -7.8-5.6 -2.1 2.8 -1.1 2.2 -13.3 18.1L56.3 108.2z" class="b"/><path d="M105.8 57.2L90.7 45.8c-2-1.5-4.9-1.1-6.4 1L66.6 71.4c-1.5 2.1-1 5.1 1 6.6l15.1 11.3c2 1.5 4.9 1.1 6.4-1l17.6-24.6C108.3 61.6 107.9 58.7 105.8 57.2z" class="c"/><path d="M85.5 91c-1.1 0-2.2-0.4-3.1-1L67.2 78.6c-2.4-1.8-2.9-5.1-1.1-7.6l17.6-24.6c0.8-1.2 2.1-1.9 3.5-2.2 1.4-0.2 2.8 0.1 3.9 1l15.1 11.3c2.4 1.8 2.9 5.1 1.1 7.6L89.8 88.7c-0.8 1.2-2.1 1.9-3.5 2.2C86 90.9 85.8 91 85.5 91zM88 45.6c-0.2 0-0.4 0-0.6 0 -1 0.2-2 0.7-2.6 1.6L67.2 71.8c-1.3 1.8-0.9 4.3 0.8 5.6l15.1 11.3c0.8 0.6 1.9 0.9 2.9 0.7 1-0.2 2-0.7 2.6-1.6l17.6-24.6c1.3-1.8 0.9-4.3-0.8-5.6L90.3 46.4C89.6 45.9 88.8 45.6 88 45.6z" class="b"/><path d="M79.9 135c-30.4 0-55.2-24.7-55.2-55.2 0-30.4 24.7-55.2 55.2-55.2S135 49.5 135 79.9C135 110.3 110.3 135 79.9 135zM79.9 26.7c-29.3 0-53.2 23.8-53.2 53.2S50.6 133 79.9 133 133 109.2 133 79.9 109.2 26.7 79.9 26.7z" class="b"/><path d="M105.8 57.2L90.7 45.8c-2-1.5-4.9-1.1-6.4 1L66.6 71.4c-1.5 2.1-1 5.1 1 6.6l15.1 11.3c2 1.5 4.9 1.1 6.4-1l17.6-24.6C108.3 61.6 107.9 58.7 105.8 57.2M98.7 62.3c-0.2 0.2-0.9-0.1-1.7-0.7l-7.9-5.9c-0.8-0.6-1.3-1.2-1.1-1.4 0.7-0.9 1.3-1.8 2-2.7 0.2-0.2 0.9 0.1 1.7 0.7l7.9 5.9c0.8 0.6 1.3 1.2 1.1 1.4C100 60.5 99.3 61.4 98.7 62.3" class="d"/><path d="M85.5 91c-1.1 0-2.2-0.4-3.1-1L67.2 78.6c-2.4-1.8-2.9-5.1-1.1-7.6l17.6-24.6c0.8-1.2 2.1-1.9 3.5-2.2 1.4-0.2 2.8 0.1 3.9 1l15.1 11.3c2.4 1.8 2.9 5.2 1.1 7.6L89.8 88.7c-0.8 1.2-2.1 1.9-3.5 2.2C86 90.9 85.8 91 85.5 91zM88 45.6c-0.2 0-0.4 0-0.6 0 -1 0.2-2 0.7-2.6 1.6L67.2 71.8c-1.3 1.8-0.9 4.3 0.8 5.6l15.1 11.3c0.8 0.6 1.9 0.9 2.9 0.7 1-0.2 2-0.7 2.6-1.6l17.6-24.6c1.3-1.8 0.9-4.3-0.8-5.6L90.3 46.4C89.6 45.9 88.8 45.6 88 45.6z" class="b"/><path d="M98.7 62.3c-0.2 0.2-0.9-0.1-1.7-0.7l-7.9-5.9c-0.8-0.6-1.3-1.2-1.1-1.4 0.7-0.9 1.3-1.8 2-2.7 0.2-0.2 0.9 0.1 1.7 0.7l7.9 5.9c0.8 0.6 1.3 1.2 1.1 1.4C100 60.5 99.3 61.4 98.7 62.3z" class="a"/><path d="M98.5 63.1c-0.7 0-1.6-0.6-1.9-0.9l-7.9-5.9c-0.6-0.4-1.9-1.5-1.3-2.4l2-2.7c0.1-0.2 0.3-0.3 0.6-0.4 0.7-0.1 1.7 0.6 2.1 0.9l7.9 5.9c0.6 0.4 1.9 1.5 1.3 2.4l-2 2.7c-0.1 0.2-0.3 0.3-0.6 0.4C98.6 63.1 98.6 63.1 98.5 63.1zM98.1 61.9C98.1 61.9 98.1 61.9 98.1 61.9L98.1 61.9zM88.8 54.5c0.1 0.2 0.4 0.4 0.8 0.7l7.9 5.9c0.4 0.3 0.7 0.4 0.9 0.5l1.6-2.2c-0.1-0.2-0.4-0.4-0.8-0.7l-7.9-5.9c-0.4-0.3-0.7-0.4-0.9-0.5L88.8 54.5zM100.1 59.2L100.1 59.2 100.1 59.2z" class="b"/><path d="M87.1 82.5c-0.8 1.1-2.4 1.4-3.5 0.5 -1.1-0.8-1.4-2.4-0.5-3.5 0.8-1.1 2.4-1.4 3.5-0.5C87.7 79.8 87.9 81.4 87.1 82.5" class="d"/><path d="M85 83.9c-0.6 0-1.2-0.2-1.7-0.6 -1.3-0.9-1.6-2.7-0.6-4 0.9-1.3 2.7-1.6 4-0.6 0.6 0.5 1 1.1 1.1 1.9 0.1 0.8-0.1 1.5-0.5 2.1l0 0c-0.5 0.6-1.1 1-1.9 1.1C85.3 83.9 85.2 83.9 85 83.9zM85.1 78.9c-0.7 0-1.3 0.3-1.8 0.9 -0.7 1-0.5 2.3 0.5 3 0.5 0.3 1 0.5 1.6 0.4 0.6-0.1 1.1-0.4 1.4-0.9 0.3-0.5 0.5-1 0.4-1.6 -0.1-0.6-0.4-1.1-0.9-1.4C85.9 79 85.5 78.9 85.1 78.9z" class="b"/><polygon points="54 103.8 67.4 85.5 68.5 83.3 70.8 80.2 79.2 86.2 76.4 89.9 74.4 91.9 61.9 108.7 56.1 108.6 " class="d"/><rect x="51.6" y="97.5" transform="matrix(0.5694 -0.822 0.822 0.5694 -52.4496 95.4706)" width="26.5" height="0.7" class="b"/></svg>