<?xml version="1.0" encoding="utf-8"?>
<!-- Generator: Adobe Illustrator 21.0.2, SVG Export Plug-In . SVG Version: 6.00 Build 0)  -->
<svg version="1.1" id="Layer_1" xmlns="http://www.w3.org/2000/svg" xmlns:xlink="http://www.w3.org/1999/xlink" x="0px" y="0px"
	 viewBox="0 0 55 65" style="enable-background:new 0 0 55 65;" xml:space="preserve">
<style type="text/css">
	.st0{clip-path:url(#SVGID_2_);}
	.st1{clip-path:url(#SVGID_4_);fill:#15A3B2;}
	.st2{clip-path:url(#SVGID_6_);}
	.st3{clip-path:url(#SVGID_8_);fill:#15A3B2;}
	.st4{clip-path:url(#SVGID_10_);}
	.st5{clip-path:url(#SVGID_12_);fill:#15A3B2;}
	.st6{clip-path:url(#SVGID_14_);}
	.st7{clip-path:url(#SVGID_16_);fill:#15A3B2;}
	.st8{clip-path:url(#SVGID_18_);}
	.st9{clip-path:url(#SVGID_20_);fill:#15A3B2;}
	.st10{clip-path:url(#SVGID_22_);}
	.st11{clip-path:url(#SVGID_24_);fill:#15A3B2;}
</style>
<g>
	<defs>
		<path id="SVGID_1_" d="M7.7,13.8c-1.8,0-3.3,1.7-3.3,3.6v23.3c0,2,1.5,3.6,3.3,3.6h38.6c1.8,0,3.3-1.7,3.3-3.6V17.4
			c0-2-1.5-3.6-3.3-3.6H7.7z M46.3,46.6H7.7c-3,0-5.5-2.7-5.5-5.9V17.4c0-3.3,2.4-5.9,5.5-5.9h38.6c3,0,5.5,2.7,5.5,5.9v23.3
			C51.8,44,49.3,46.6,46.3,46.6z"/>
	</defs>
	<clipPath id="SVGID_2_">
		<use xlink:href="#SVGID_1_"  style="overflow:visible;"/>
	</clipPath>
	<g class="st0">
		<defs>
			<rect id="SVGID_3_" x="-620" y="-768" width="1440" height="1928"/>
		</defs>
		<clipPath id="SVGID_4_">
			<use xlink:href="#SVGID_3_"  style="overflow:visible;"/>
		</clipPath>
		<rect x="-2.8" y="6.5" class="st1" width="59.5" height="45.1"/>
	</g>
</g>
<g>
	<defs>
		<path id="SVGID_5_" d="M17.3,38.9v-1.7c0-1.6-1.1-2.9-2.7-3.1c-0.8,0.5-1.4,0.8-2.4,0.8c-0.9,0-1.7-0.3-2.3-0.8
			c-1.5,0.2-2.7,1.5-2.7,3.1v1.7c0,0.5,3,1.2,5.1,1.2C14.5,40.1,17.1,39.4,17.3,38.9z"/>
	</defs>
	<clipPath id="SVGID_6_">
		<use xlink:href="#SVGID_5_"  style="overflow:visible;"/>
	</clipPath>
	<g class="st2">
		<defs>
			<rect id="SVGID_7_" x="-620" y="-768" width="1440" height="1928"/>
		</defs>
		<clipPath id="SVGID_8_">
			<use xlink:href="#SVGID_7_"  style="overflow:visible;"/>
		</clipPath>
		<rect x="2.2" y="29.1" class="st3" width="20.2" height="16"/>
	</g>
</g>
<g>
	<defs>
		<path id="SVGID_9_" d="M15.5,31.2c0,1-0.5,1.9-1.1,2.5c-0.4,0.3-0.8,0.5-1.2,0.7c-0.3,0.1-0.6,0.2-0.9,0.2c-0.3,0-0.6-0.1-0.9-0.2
			c-0.5-0.2-0.8-0.4-1.2-0.7C9.4,33,9,32.1,9,31.2c0-1.8,1.4-3.3,3.3-3.3S15.5,29.3,15.5,31.2z"/>
	</defs>
	<clipPath id="SVGID_10_">
		<use xlink:href="#SVGID_9_"  style="overflow:visible;"/>
	</clipPath>
	<g class="st4">
		<defs>
			<rect id="SVGID_11_" x="-620" y="-768" width="1440" height="1928"/>
		</defs>
		<clipPath id="SVGID_12_">
			<use xlink:href="#SVGID_11_"  style="overflow:visible;"/>
		</clipPath>
		<rect x="4" y="22.8" class="st5" width="16.5" height="16.7"/>
	</g>
</g>
<g>
	<defs>
		<path id="SVGID_13_" d="M46.7,18.3c0-0.7-0.5-1.2-1.2-1.2h-37c-0.7,0-1.2,0.5-1.2,1.2v2.9c0,0.7,0.5,1.2,1.2,1.2h37
			c0.7,0,1.2-0.5,1.2-1.2V18.3z"/>
	</defs>
	<clipPath id="SVGID_14_">
		<use xlink:href="#SVGID_13_"  style="overflow:visible;"/>
	</clipPath>
	<g class="st6">
		<defs>
			<rect id="SVGID_15_" x="-620" y="-768" width="1440" height="1928"/>
		</defs>
		<clipPath id="SVGID_16_">
			<use xlink:href="#SVGID_15_"  style="overflow:visible;"/>
		</clipPath>
		<rect x="2.3" y="12.1" class="st7" width="49.4" height="15.3"/>
	</g>
</g>
<g>
	<defs>
		<path id="SVGID_17_" d="M46.7,27.4c0-0.7-0.5-1.2-1.2-1.2H22.2c-0.7,0-1.2,0.5-1.2,1.2v2.9c0,0.7,0.5,1.2,1.2,1.2h23.3
			c0.7,0,1.2-0.5,1.2-1.2V27.4z"/>
	</defs>
	<clipPath id="SVGID_18_">
		<use xlink:href="#SVGID_17_"  style="overflow:visible;"/>
	</clipPath>
	<g class="st8">
		<defs>
			<rect id="SVGID_19_" x="-620" y="-768" width="1440" height="1928"/>
		</defs>
		<clipPath id="SVGID_20_">
			<use xlink:href="#SVGID_19_"  style="overflow:visible;"/>
		</clipPath>
		<rect x="15.9" y="21.2" class="st9" width="35.8" height="15.3"/>
	</g>
</g>
<g>
	<defs>
		<path id="SVGID_21_" d="M46.7,36.5c0-0.7-0.5-1.2-1.2-1.2H22.2c-0.7,0-1.2,0.5-1.2,1.2v2.9c0,0.7,0.5,1.2,1.2,1.2h23.3
			c0.7,0,1.2-0.5,1.2-1.2V36.5z"/>
	</defs>
	<clipPath id="SVGID_22_">
		<use xlink:href="#SVGID_21_"  style="overflow:visible;"/>
	</clipPath>
	<g class="st10">
		<defs>
			<rect id="SVGID_23_" x="-620" y="-768" width="1440" height="1928"/>
		</defs>
		<clipPath id="SVGID_24_">
			<use xlink:href="#SVGID_23_"  style="overflow:visible;"/>
		</clipPath>
		<rect x="15.9" y="30.2" class="st11" width="35.8" height="15.3"/>
	</g>
</g>
</svg>
