<?xml version="1.0" encoding="utf-8"?>
<!-- Generator: Adobe Illustrator 21.0.2, SVG Export Plug-In . SVG Version: 6.00 Build 0)  -->
<svg version="1.1" id="Layer_1" xmlns="http://www.w3.org/2000/svg" xmlns:xlink="http://www.w3.org/1999/xlink" x="0px" y="0px"
	 viewBox="0 0 55 65" style="enable-background:new 0 0 55 65;" xml:space="preserve">
<style type="text/css">
	.st0{clip-path:url(#SVGID_2_);}
	.st1{clip-path:url(#SVGID_4_);fill:#15A3B2;}
	.st2{clip-path:url(#SVGID_6_);}
	.st3{clip-path:url(#SVGID_8_);fill:#15A3B2;}
	.st4{clip-path:url(#SVGID_10_);}
	.st5{clip-path:url(#SVGID_12_);fill:#15A3B2;}
</style>
<g>
	<defs>
		<path id="SVGID_1_" d="M16.7,22.7L33.6,5.8C34,5.4,34.5,5.2,35,5.2c0.6,0,1.1,0.3,1.4,0.6l11.3,11.3c0.8,0.8,0.8,2.1,0,3l-1.4,1.4
			l2.6,0.6c2.3-2.4,1.9-4.9,0.3-6.5L38.1,4.3C37.2,3.4,36.1,3,35,3c-1.1,0-2.3,0.4-3.1,1.3L13.5,22.7H16.7z"/>
	</defs>
	<clipPath id="SVGID_2_">
		<use xlink:href="#SVGID_1_"  style="overflow:visible;"/>
	</clipPath>
	<g class="st0">
		<defs>
			<rect id="SVGID_3_" x="-910" y="-769" width="1440" height="1928"/>
		</defs>
		<clipPath id="SVGID_4_">
			<use xlink:href="#SVGID_3_"  style="overflow:visible;"/>
		</clipPath>
		<rect x="8.5" y="-2" class="st1" width="47.1" height="29.7"/>
	</g>
</g>
<g>
	<defs>
		<path id="SVGID_5_" d="M26.7,22.7l9.9-9.9c0.8-0.8,0.8-2.3,0-3.2c-0.8-0.9-2.3-0.8-3.2,0L20.4,22.7H26.7z"/>
	</defs>
	<clipPath id="SVGID_6_">
		<use xlink:href="#SVGID_5_"  style="overflow:visible;"/>
	</clipPath>
	<g class="st2">
		<defs>
			<rect id="SVGID_7_" x="-910" y="-769" width="1440" height="1928"/>
		</defs>
		<clipPath id="SVGID_8_">
			<use xlink:href="#SVGID_7_"  style="overflow:visible;"/>
		</clipPath>
		<rect x="15.4" y="3.9" class="st3" width="26.9" height="23.8"/>
	</g>
</g>
<g>
	<defs>
		<path id="SVGID_9_" d="M15.3,20.7H7.8c-1.8,0-3.2,1.6-3.2,3.4v25.7C4.6,51.6,6,53,7.8,53h40c1.8,0,3.2-1.4,3.2-3.2V24.1
			c0-1.1-0.6-2.1-1.4-2.6c0,0-0.8-0.7-2.6-0.7H28.6H18.4h3.7L15.3,20.7L15.3,20.7z"/>
	</defs>
	<clipPath id="SVGID_10_">
		<use xlink:href="#SVGID_9_"  style="overflow:visible;"/>
	</clipPath>
	<g class="st4">
		<defs>
			<rect id="SVGID_11_" x="-910" y="-769" width="1440" height="1928"/>
		</defs>
		<clipPath id="SVGID_12_">
			<use xlink:href="#SVGID_11_"  style="overflow:visible;"/>
		</clipPath>
		<rect x="-0.4" y="15.7" class="st5" width="56.4" height="42.3"/>
	</g>
</g>
</svg>
