<?xml version="1.0" encoding="utf-8"?>
<!-- Generator: Adobe Illustrator 21.0.0, SVG Export Plug-In . SVG Version: 6.00 Build 0)  -->
<svg version="1.1" id="Layer_1" xmlns="http://www.w3.org/2000/svg" xmlns:xlink="http://www.w3.org/1999/xlink" x="0px" y="0px"
	 viewBox="0 0 217 219" style="enable-background:new 0 0 217 219;" xml:space="preserve">
<style type="text/css">
	.st0{fill:#FFFFFF;}
	.st1{fill:#E2E5E7;}
	.st2{fill:#F2BC47;}
	.st3{fill:none;}
	.st4{fill:#7B878E;}
</style>
<g>
	<path class="st0" d="M27.4,107.8c0,45.2,36.9,82.1,82.2,82.1s82.2-36.9,82.2-82.1s-36.9-82.1-82.2-82.1
		C64.3,25.7,27.4,62.6,27.4,107.8"/>
	<path class="st1" d="M109.6,191.3c-46.1,0-83.7-37.5-83.7-83.6s37.5-83.6,83.7-83.6c46.1,0,83.7,37.5,83.7,83.6
		C193.2,153.9,155.7,191.3,109.6,191.3z M109.6,27.2c-44.5,0-80.7,36.1-80.7,80.6c0,44.4,36.2,80.6,80.7,80.6s80.7-36.1,80.7-80.6
		C190.2,63.4,154.1,27.2,109.6,27.2z"/>
</g>
<g>
	<path class="st1" d="M109,208.8c-55.7,0-101-45.3-101-100.9S53.3,7,109,7s101,45.3,101,100.9S164.7,208.8,109,208.8z M109,9
		c-54.6,0-99,44.4-99,98.9s44.4,98.9,99,98.9s99-44.4,99-98.9S163.6,9,109,9z"/>
</g>
<g>
	<polygon class="st2" points="84.4,162.8 148.9,162.8 148.9,56.2 68,56.2 68,147.2 	"/>
	<path class="st3" d="M150,145.9v18h-66l-17-16.3V55.1H150v91.4 M66.9,147.6h17v16.3 M80.4,71.7h56.1 M80.4,81h56.1 M80.4,90.1h28.1
		"/>
	<path class="st4" d="M151,165H83.5l-17.7-16.9V54h85.4v111C151.2,165,151,165,151,165z M84.4,162.8H149V56.2H68v91L84.4,162.8z"/>
	<polygon class="st4" points="85,163.9 82.8,163.9 82.8,148.7 66.9,148.7 66.9,146.5 85,146.5 	"/>
	<rect x="80.4" y="70.6" class="st0" width="56.1" height="2.2"/>
	<rect x="80.4" y="79.9" class="st0" width="56.1" height="2.2"/>
	<rect x="80.4" y="89" class="st0" width="28.1" height="2.2"/>
	<polygon class="st0" points="82.7,161.3 75.9,154.9 69.5,148.7 82.7,148.7 	"/>
</g>
</svg>
