<svg xmlns="http://www.w3.org/2000/svg" viewBox="0 0 160 160" class="undefined"><style>.a{fill:#7C878E;}.b{fill:#F2BC47;}.c{fill:#7B878E;}</style><path d="M105.4 52H92.6v-4.1c0-2.9-2.3-5.2-5.3-5.2H73.8c-2.9 0-5.3 2.3-5.3 5.2V52H55.7c-5 0-9 4-9 8.9v19.4c0 1.6 1.4 3 3 3H50v14.8c0 4.9 4.1 8.9 9 8.9h43c5 0 9-4 9-8.9V83.2h0.3c1.7 0 3-1.3 3-3V60.8C114.5 55.9 110.4 52 105.4 52zM108.1 97.9c0 3.2-2.7 5.9-6 5.9H59c-3.3 0-6-2.7-6-5.9V83.3h20.3v0.4c0 2.9 2.3 5.2 5.3 5.2h3.9c2.9 0 5.3-2.3 5.3-5.2v-0.4H108L108.1 97.9zM84.8 83.8c0 1.3-1 2.2-2.3 2.2h-3.9c-1.3 0-2.3-1-2.3-2.2v-3.8c0-1.3 1-2.2 2.3-2.2h3.9c1.3 0 2.3 1 2.3 2.2V83.8zM87.8 80.2v-0.3c0-2.9-2.3-5.2-5.3-5.2h-3.9c-2.9 0-5.3 2.3-5.3 5.2v0.3H49.6V60.8c0-3.2 2.7-5.9 6-5.9h12.8 24.1 12.8c3.3 0 6 2.7 6 5.9v19.4H87.8zM71.5 47.9c0-1.3 1-2.2 2.3-2.2h13.6c1.3 0 2.3 1 2.3 2.2V52H71.5V47.9z" class="a"/><path d="M87.8 80.2v-0.3c0-2.9-2.3-5.2-5.3-5.2h-3.9c-2.9 0-5.3 2.3-5.3 5.2v0.3H49.6V60.8c0-3.2 2.7-5.9 6-5.9h12.8 24.1 12.8c3.3 0 6 2.7 6 5.9v19.4H87.8z" class="b"/><path d="M80.4 135c-30.4 0-55.2-24.7-55.2-55.2 0-30.4 24.7-55.2 55.2-55.2s55.2 24.7 55.2 55.2C135.5 110.3 110.8 135 80.4 135zM80.4 26.7c-29.3 0-53.2 23.8-53.2 53.2S51.1 133 80.4 133s53.2-23.8 53.2-53.2S109.7 26.7 80.4 26.7z" class="c"/><path d="M108.1 97.9c0 3.2-2.7 5.9-6 5.9H59c-3.3 0-6-2.7-6-5.9V83.3h20.3v0.4c0 2.9 2.3 5.2 5.3 5.2h3.9c2.9 0 5.3-2.3 5.3-5.2v-0.4H108L108.1 97.9z" class="b"/></svg>