<?xml version="1.0" encoding="utf-8"?>
<!-- Generator: Adobe Illustrator 21.0.2, SVG Export Plug-In . SVG Version: 6.00 Build 0)  -->
<svg version="1.1" id="Layer_1" xmlns="http://www.w3.org/2000/svg" xmlns:xlink="http://www.w3.org/1999/xlink" x="0px" y="0px"
	 viewBox="0 0 55 65" style="enable-background:new 0 0 55 65;" xml:space="preserve">
<style type="text/css">
	.st0{clip-path:url(#SVGID_2_);}
	.st1{clip-path:url(#SVGID_4_);fill:#15A3B2;}
	.st2{clip-path:url(#SVGID_6_);}
	.st3{clip-path:url(#SVGID_8_);fill:#15A3B2;}
	.st4{clip-path:url(#SVGID_10_);}
	.st5{clip-path:url(#SVGID_12_);fill:#15A3B2;}
	.st6{clip-path:url(#SVGID_14_);}
	.st7{clip-path:url(#SVGID_16_);fill:#15A3B2;}
	.st8{clip-path:url(#SVGID_18_);}
	.st9{clip-path:url(#SVGID_20_);fill:#15A3B2;}
	.st10{clip-path:url(#SVGID_22_);}
	.st11{clip-path:url(#SVGID_24_);fill:#15A3B2;}
	.st12{clip-path:url(#SVGID_26_);}
	.st13{clip-path:url(#SVGID_28_);fill:#15A3B2;}
	.st14{clip-path:url(#SVGID_30_);}
	.st15{clip-path:url(#SVGID_32_);fill:#15A3B2;}
	.st16{clip-path:url(#SVGID_34_);}
	.st17{clip-path:url(#SVGID_36_);fill:#15A3B2;}
	.st18{clip-path:url(#SVGID_38_);}
	.st19{clip-path:url(#SVGID_40_);fill:#15A3B2;}
</style>
<g>
	<defs>
		<path id="SVGID_1_" d="M48.6,9.2v36.5c0,2.4-1.5,3.6-3.5,3.6h-4v-2.9H44c1.2,0,1.8-0.9,1.8-2V11.2c0-0.9-0.1-2.2-1.8-2.2H19.3
			c-0.7,0-1.6,0.4-1.6,2v3.9h-3.1V9.4c0-2,1-3.3,3.1-3.3h27.7C47.4,6.1,48.6,7.4,48.6,9.2z"/>
	</defs>
	<clipPath id="SVGID_2_">
		<use xlink:href="#SVGID_1_"  style="overflow:visible;"/>
	</clipPath>
	<g class="st0">
		<defs>
			<rect id="SVGID_3_" x="-763" y="-770" width="1440" height="1928"/>
		</defs>
		<clipPath id="SVGID_4_">
			<use xlink:href="#SVGID_3_"  style="overflow:visible;"/>
		</clipPath>
		<rect x="9.6" y="1.1" class="st1" width="44.1" height="53.2"/>
	</g>
</g>
<g>
	<defs>
		<path id="SVGID_5_" d="M43.8,14.1V15c0,0.8-0.6,1.4-1.4,1.4h-1.5c-0.5-0.9-1.5-1.5-2.8-1.5c-6.4,0-12.6,0-18.6,0v-0.8
			c0-0.8,0.6-1.4,1.4-1.4h21.5C43.1,12.7,43.8,13.3,43.8,14.1z"/>
	</defs>
	<clipPath id="SVGID_6_">
		<use xlink:href="#SVGID_5_"  style="overflow:visible;"/>
	</clipPath>
	<g class="st2">
		<defs>
			<rect id="SVGID_7_" x="-763" y="-770" width="1440" height="1928"/>
		</defs>
		<clipPath id="SVGID_8_">
			<use xlink:href="#SVGID_7_"  style="overflow:visible;"/>
		</clipPath>
		<rect x="14.5" y="7.7" class="st3" width="34.3" height="13.7"/>
	</g>
</g>
<g>
	<defs>
		<path id="SVGID_9_" d="M43.8,21.3v0.9c0,0.8-0.6,1.4-1.4,1.4h-1.1v-3.7h1.1C43.1,19.9,43.8,20.5,43.8,21.3z"/>
	</defs>
	<clipPath id="SVGID_10_">
		<use xlink:href="#SVGID_9_"  style="overflow:visible;"/>
	</clipPath>
	<g class="st4">
		<defs>
			<rect id="SVGID_11_" x="-763" y="-770" width="1440" height="1928"/>
		</defs>
		<clipPath id="SVGID_12_">
			<use xlink:href="#SVGID_11_"  style="overflow:visible;"/>
		</clipPath>
		<rect x="36.2" y="14.9" class="st5" width="12.5" height="13.7"/>
	</g>
</g>
<g>
	<defs>
		<path id="SVGID_13_" d="M43.8,28.5v0.9c0,0.8-0.6,1.4-1.4,1.4h-1.1v-3.7h1.1C43.1,27.1,43.8,27.7,43.8,28.5z"/>
	</defs>
	<clipPath id="SVGID_14_">
		<use xlink:href="#SVGID_13_"  style="overflow:visible;"/>
	</clipPath>
	<g class="st6">
		<defs>
			<rect id="SVGID_15_" x="-763" y="-770" width="1440" height="1928"/>
		</defs>
		<clipPath id="SVGID_16_">
			<use xlink:href="#SVGID_15_"  style="overflow:visible;"/>
		</clipPath>
		<rect x="36.2" y="22.1" class="st7" width="12.5" height="13.7"/>
	</g>
</g>
<g>
	<defs>
		<path id="SVGID_17_" d="M43.8,35.6v0.9c0,0.8-0.6,1.4-1.4,1.4h-1.1v-3.7h1.1C43.1,34.2,43.8,34.9,43.8,35.6z"/>
	</defs>
	<clipPath id="SVGID_18_">
		<use xlink:href="#SVGID_17_"  style="overflow:visible;"/>
	</clipPath>
	<g class="st8">
		<defs>
			<rect id="SVGID_19_" x="-763" y="-770" width="1440" height="1928"/>
		</defs>
		<clipPath id="SVGID_20_">
			<use xlink:href="#SVGID_19_"  style="overflow:visible;"/>
		</clipPath>
		<rect x="36.2" y="29.2" class="st9" width="12.5" height="13.7"/>
	</g>
</g>
<g>
	<defs>
		<path id="SVGID_21_" d="M36.7,52.9H21.4h-4.9v-4.2c0-1.6-0.5-2.1-2.1-2.1h-4V17.5c0-1.6,0.9-2,1.6-2h24.7c1.8,0,1.8,1.3,1.8,2.2
			v33.2C38.5,52,37.9,52.9,36.7,52.9z M38.1,12.7H10.3c-2.1,0-3.2,1.2-3.2,3.2v30.9c0,3.1,6,9.1,9,9.1h21.7c2,0,3.5-1.1,3.5-3.5
			V15.7C41.3,13.9,40,12.7,38.1,12.7z"/>
	</defs>
	<clipPath id="SVGID_22_">
		<use xlink:href="#SVGID_21_"  style="overflow:visible;"/>
	</clipPath>
	<g class="st10">
		<defs>
			<rect id="SVGID_23_" x="-763" y="-770" width="1440" height="1928"/>
		</defs>
		<clipPath id="SVGID_24_">
			<use xlink:href="#SVGID_23_"  style="overflow:visible;"/>
		</clipPath>
		<rect x="2.1" y="7.7" class="st11" width="44.1" height="53.1"/>
	</g>
</g>
<g>
	<defs>
		<path id="SVGID_25_" d="M35.4,22.9H13c-0.5,0-0.9-0.4-0.9-0.9v-1.8c0-0.5,0.4-0.9,0.9-0.9h22.4c0.5,0,0.9,0.4,0.9,0.9v1.8
			C36.4,22.5,35.9,22.9,35.4,22.9z"/>
	</defs>
	<clipPath id="SVGID_26_">
		<use xlink:href="#SVGID_25_"  style="overflow:visible;"/>
	</clipPath>
	<g class="st12">
		<defs>
			<rect id="SVGID_27_" x="-763" y="-770" width="1440" height="1928"/>
		</defs>
		<clipPath id="SVGID_28_">
			<use xlink:href="#SVGID_27_"  style="overflow:visible;"/>
		</clipPath>
		<rect x="7.1" y="14.2" class="st13" width="34.3" height="13.7"/>
	</g>
</g>
<g>
	<defs>
		<path id="SVGID_29_" d="M35.4,30.1H13c-0.5,0-0.9-0.4-0.9-0.9v-1.8c0-0.5,0.4-0.9,0.9-0.9h22.4c0.5,0,0.9,0.4,0.9,0.9v1.8
			C36.4,29.6,35.9,30.1,35.4,30.1z"/>
	</defs>
	<clipPath id="SVGID_30_">
		<use xlink:href="#SVGID_29_"  style="overflow:visible;"/>
	</clipPath>
	<g class="st14">
		<defs>
			<rect id="SVGID_31_" x="-763" y="-770" width="1440" height="1928"/>
		</defs>
		<clipPath id="SVGID_32_">
			<use xlink:href="#SVGID_31_"  style="overflow:visible;"/>
		</clipPath>
		<rect x="7.1" y="21.4" class="st15" width="34.3" height="13.7"/>
	</g>
</g>
<g>
	<defs>
		<path id="SVGID_33_" d="M35.4,37.3H13c-0.5,0-0.9-0.4-0.9-0.9v-1.8c0-0.5,0.4-0.9,0.9-0.9h22.4c0.5,0,0.9,0.4,0.9,0.9v1.8
			C36.4,36.8,35.9,37.3,35.4,37.3z"/>
	</defs>
	<clipPath id="SVGID_34_">
		<use xlink:href="#SVGID_33_"  style="overflow:visible;"/>
	</clipPath>
	<g class="st16">
		<defs>
			<rect id="SVGID_35_" x="-763" y="-770" width="1440" height="1928"/>
		</defs>
		<clipPath id="SVGID_36_">
			<use xlink:href="#SVGID_35_"  style="overflow:visible;"/>
		</clipPath>
		<rect x="7.1" y="28.6" class="st17" width="34.3" height="13.7"/>
	</g>
</g>
<g>
	<defs>
		<path id="SVGID_37_" d="M35.4,44.4H13c-0.5,0-0.9-0.4-0.9-0.9v-1.8c0-0.5,0.4-0.9,0.9-0.9h22.4c0.5,0,0.9,0.4,0.9,0.9v1.8
			C36.4,44,35.9,44.4,35.4,44.4z"/>
	</defs>
	<clipPath id="SVGID_38_">
		<use xlink:href="#SVGID_37_"  style="overflow:visible;"/>
	</clipPath>
	<g class="st18">
		<defs>
			<rect id="SVGID_39_" x="-763" y="-770" width="1440" height="1928"/>
		</defs>
		<clipPath id="SVGID_40_">
			<use xlink:href="#SVGID_39_"  style="overflow:visible;"/>
		</clipPath>
		<rect x="7.1" y="35.7" class="st19" width="34.3" height="13.7"/>
	</g>
</g>
</svg>
