<?xml version="1.0" encoding="utf-8"?>
<svg version="1.1" id="Layer_1" xmlns="http://www.w3.org/2000/svg" x="0" y="0" viewBox="0 0 217 219" style="enable-background:new 0 0 217 219;" xml:space="preserve">
  <style type="text/css">
    .st0{fill:#FFFFFF;} .st1{fill:#E2E5E7;} .st2{fill-rule:evenodd;clip-rule:evenodd;fill:#15A3B2;} .st3{fill:#7C878E;} .st4{fill:none;} .st5{fill-rule:evenodd;clip-rule:evenodd;fill:#F39200;}
  </style>
  <g>
    <path class="st0" d="M27.4,107.8c0,45.2,36.9,82.1,82.2,82.1c45.3,0,82.2-36.9,82.2-82.1c0-45.2-36.9-82.1-82.2-82.1 C64.3,25.7,27.4,62.6,27.4,107.8"/>
    <path class="st1" d="M109.6,191.3c-46.1,0-83.7-37.5-83.7-83.6c0-46.1,37.5-83.6,83.7-83.6c46.1,0,83.7,37.5,83.7,83.6 C193.2,153.9,155.7,191.3,109.6,191.3z M109.6,27.2c-44.5,0-80.7,36.1-80.7,80.6c0,44.4,36.2,80.6,80.7,80.6 c44.5,0,80.7-36.1,80.7-80.6C190.2,63.4,154.1,27.2,109.6,27.2z"/>
  </g>
  <g>
    <path class="st2" d="M61.6,119.2c0.1-2.5,4.1-5.8,11-4.2c5.2,1.1,11.9,5.4,18.9,12.3c5.2,5.2,9.8,13,9.8,25.3c0,2.9-1.5,4.1-4,4.1 h0C87.1,156.6,61.1,135.3,61.6,119.2z M118.2,152.5c0-12.3,4.6-20.1,9.8-25.3c7-7,13.9-11.2,18.9-12.4c6.9-1.6,10.8,1.9,11,4.4 c0.5,16.2-25.4,37.4-35.6,37.4C119.7,156.6,118.2,155.3,118.2,152.5z M95.7,109c0-7.7,6.2-13.9,13.9-13.9c7.7,0,13.9,6.2,13.9,13.9 c0,7.7-6.2,13.9-13.9,13.9C101.9,122.9,95.7,116.6,95.7,109z M61.2,98C63,78.3,86,58.6,109.6,58.6c30.9,0,47.9,26,48.7,39.1 c0.1,1.9-2,2.4-4.1,2.2c-5.7-0.3-9.7-1.7-12.4-2.5c-8.1-2.4-20.1-7.7-31.3-7.7c-16,0-32,8.2-41.5,9.9c-1.1,0.1-2.3,0.3-3.6,0.3 C63,100,61,99.6,61.2,98z M50.1,107.8c0,32.9,26.6,59.5,59.5,59.5s59.5-26.6,59.5-59.5c0-32.9-26.6-59.5-59.5-59.5 S50.1,74.9,50.1,107.8z"/>
    <path class="st3" d="M109.6,167.8c-33.1,0-60-26.9-60-60c0-33.1,26.9-60,60-60c33.1,0,60,26.9,60,60 C169.6,140.9,142.7,167.8,109.6,167.8z M109.6,48.8c-32.5,0-59,26.5-59,59s26.5,59,59,59c32.5,0,59-26.5,59-59 S142.1,48.8,109.6,48.8z M97.3,157.1c-5.7,0-16.1-6.4-24.3-14.8c-4.6-4.7-12.2-14-11.9-23.1v0c0.1-1.2,0.8-2.4,2.1-3.4 c2.3-1.7,5.8-2.2,9.5-1.3c5.3,1.1,12.1,5.5,19.1,12.4c6.6,6.6,9.9,15.2,9.9,25.6C101.8,155.4,100.2,157.1,97.3,157.1 C97.3,157.1,97.3,157.1,97.3,157.1z M62.1,119.2c-0.2,6.4,4,14.5,11.6,22.4c8,8.3,18.1,14.5,23.6,14.5c0,0,0,0,0,0 c2.3,0,3.5-1.2,3.5-3.6c0-10.1-3.2-18.5-9.6-24.9c-6.9-6.8-13.6-11.1-18.7-12.2c-3.5-0.8-6.7-0.4-8.7,1.2 C62.8,117.3,62.1,118.3,62.1,119.2z M122.2,157.1c-2.9,0-4.5-1.6-4.5-4.6v0c0-10.4,3.3-19,9.9-25.6c6.7-6.7,13.7-11.3,19.1-12.6 c3.7-0.9,7.2-0.4,9.5,1.4c1.3,1,2.1,2.2,2.1,3.5c0.3,9.1-7.3,18.4-11.9,23.2C138.3,150.7,127.9,157.1,122.2,157.1z M118.7,152.5 c0,2.4,1.2,3.6,3.5,3.6c5.4,0,15.5-6.2,23.5-14.5c7.6-7.9,11.8-16,11.6-22.4c0-0.9-0.7-1.9-1.7-2.7c-2.1-1.6-5.2-2-8.6-1.2 c-5.3,1.3-12.1,5.7-18.7,12.3C121.9,134,118.7,142.3,118.7,152.5z M109.6,123.4c-7.9,0-14.4-6.5-14.4-14.4s6.5-14.4,14.4-14.4 c7.9,0,14.4,6.5,14.4,14.4S117.5,123.4,109.6,123.4z M109.6,95.6c-7.4,0-13.4,6-13.4,13.4s6,13.4,13.4,13.4c7.4,0,13.4-6,13.4-13.4 S117,95.6,109.6,95.6z M154.7,100.5c-0.2,0-0.4,0-0.6,0c-4.9-0.2-8.5-1.3-11.2-2.1c-0.5-0.1-0.9-0.3-1.3-0.4 c-1.9-0.6-4.1-1.3-6.4-2.1c-7.3-2.5-16.4-5.6-24.8-5.6c-10.4,0-21,3.6-29.5,6.4c-4.6,1.6-8.6,2.9-11.9,3.5 c-1.4,0.2-2.6,0.3-3.6,0.3c-2.1,0-3.5-0.4-4.2-1.1c-0.3-0.4-0.5-0.9-0.4-1.4c1.9-20.5,25.7-39.9,48.9-39.9 c30.7,0,48.3,25.8,49.2,39.6c0,0.7-0.2,1.3-0.6,1.8C157.3,100.3,155.8,100.5,154.7,100.5z M110.4,89.3c8.7,0,17.8,3.1,25.2,5.6 c2.3,0.8,4.4,1.5,6.3,2.1c0.4,0.1,0.9,0.3,1.3,0.4c2.6,0.8,6.2,1.9,11,2.1c1.5,0.1,2.7-0.2,3.2-0.7c0.3-0.3,0.4-0.6,0.3-1 c-0.8-13.5-18.1-38.7-48.2-38.7c-22.7,0-46,18.9-47.9,38.9l0,0c0,0.3,0,0.5,0.2,0.6c0.3,0.3,1,0.8,3.4,0.8c1,0,2.2-0.1,3.5-0.3 c3.2-0.6,7.2-1.9,11.8-3.5C89.1,92.9,99.8,89.3,110.4,89.3z"/>
  </g>
  <path class="st4" d="M99.1 99.3H120.1V119.3H99.1z"/>
  <path class="st4" d="M96.1 95.3H123.1V122.3H96.1z"/>
  <path class="st5" d="M99.9,109c0,5.4,4.4,9.7,9.7,9.7c5.3,0,9.7-4.4,9.7-9.7c0-5.3-4.4-9.7-9.7-9.7C104.3,99.3,99.9,103.7,99.9,109z"/>
  <g>
    <path class="st1" d="M109,208.8c-55.7,0-101-45.3-101-100.9C8,52.3,53.3,7,109,7s101,45.3,101,100.9 C210,163.5,164.7,208.8,109,208.8z M109,9c-54.6,0-99,44.4-99,98.9c0,54.5,44.4,98.9,99,98.9s99-44.4,99-98.9 C208,53.4,163.6,9,109,9z"/>
  </g>
</svg>
