<?xml version="1.0" encoding="utf-8"?>
<!-- Generator: Adobe Illustrator 21.0.2, SVG Export Plug-In . SVG Version: 6.00 Build 0)  -->
<svg version="1.1" id="Layer_1" xmlns="http://www.w3.org/2000/svg" xmlns:xlink="http://www.w3.org/1999/xlink" x="0px" y="0px"
	 viewBox="0 0 217 219" style="enable-background:new 0 0 217 219;" xml:space="preserve">
<style type="text/css">
	.st0{fill:url(#SVGID_1_);}
	.st1{fill:#FFFFFF;}
	.st2{fill:none;}
	.st3{fill:#F39200;}
	.st4{fill:#007582;}
	.st5{fill:#3C474E;}
	.st6{fill:#E2E5E7;}
</style>
<radialGradient id="SVGID_1_" cx="108.0743" cy="107.9402" r="88.1099" gradientUnits="userSpaceOnUse">
	<stop  offset="0" style="stop-color:#F2BC47"/>
	<stop  offset="1" style="stop-color:#F39200"/>
</radialGradient>
<path class="st0" d="M108.1,19.8C59.5,19.8,20,59.3,20,107.9s39.5,88.1,88.1,88.1s88.1-39.5,88.1-88.1
	C196.2,59.5,156.7,19.8,108.1,19.8z"/>
<path class="st1" d="M108.1,197.7c-49.4,0-89.7-40.3-89.7-89.7s40.3-89.7,89.7-89.7s89.7,40.3,89.7,89.7
	C197.8,157.5,157.5,197.7,108.1,197.7z M108.1,21.5c-47.6,0-86.5,38.8-86.5,86.5s38.8,86.5,86.5,86.5s86.5-38.8,86.5-86.5
	S155.7,21.5,108.1,21.5z"/>
<path class="st2" d="M105.3,109.9c-1.3,1.8-3.9,2.3-5.7,0.8c-1.8-1.3-2.3-3.9-0.8-5.7c1.3-1.8,3.9-2.3,5.7-0.8
	C106.3,105.5,106.6,108.1,105.3,109.9"/>
<path class="st3" d="M152.9,158.4H58.1c-5.4,0-9.8-4.4-9.8-9.8v-62c0-5.4,4.4-9.8,9.8-9.8h94.8c5.4,0,9.8,4.4,9.8,9.8v61.8
	C162.7,154,158.3,158.4,152.9,158.4z"/>
<path class="st1" d="M162.9,102.2V86.7c0-5.4-4.4-9.6-9.6-9.6h-10.6L155.7,64L128,36.5L112.5,52l-9.6-9.6L68.3,76.8H58
	c-5.4,0-9.6,4.4-9.6,9.6v62.2c0,5.4,4.4,9.6,9.6,9.6h95.1c5.4,0,9.6-4.4,9.6-9.6v-15.5h5.9v-30.8H162.9z"/>
<path class="st4" d="M144.8,58.5l5.4,5.4l-5.4,5.4C142.5,66,142.5,61.9,144.8,58.5z"/>
<path class="st4" d="M128,42l5.4,5.4c-1.6,1-3.3,1.6-5.4,1.6l0,0c-2,0-3.8-0.7-5.4-1.6L128,42z"/>
<path class="st4" d="M120,50.2c2.3,1.8,5.1,2.8,8,2.8l0,0c2.9,0,5.7-1,8-2.8l5.7,5.7c-3.6,4.7-3.6,11.4,0,16.3l-4.7,4.7h-9.3
	c0-3.1-1.3-6.4-3.8-8.8c-2.6-2.6-10.3-6.4-15.2-1.3c-2.6,2.6-3.1,6.5-1.8,10.3h-14L120,50.2z"/>
<path class="st4" d="M123.9,76.8h-12.6c-1.6-2.8-1.6-5.7,0.2-7.5c3.3-3.1,7.8-0.3,9.6,1.3C122.9,72.5,123.9,74.8,123.9,76.8z"/>
<path class="st4" d="M102.9,47.9l5.4,5.4c-1.6,1-5.9,2.8-10.6,0L102.9,47.9z"/>
<path class="st4" d="M94.5,56.1c4.6,3.1,10.6,2.6,11.7,2.1L93.7,70.7c-3.8-1.3-7.7-0.7-10.3,1.8c-1.1,1.1-2,2.8-2.3,4.4h-7.5
	L94.5,56.1z"/>
<path class="st4" d="M90.6,73.8l-2.9,2.9h-2.3C85.9,72.9,90.3,73.8,90.6,73.8z"/>
<path class="st5" d="M153.4,80.9c3.1,0,5.9,2.6,5.9,5.9v2h-107v-2c0-3.1,2.6-5.9,5.9-5.9"/>
<path class="st5" d="M159.1,148.9c0,3.1-2.6,5.9-5.9,5.9H58c-3.1,0-5.9-2.6-5.9-5.9v-2H159L159.1,148.9L159.1,148.9z"/>
<path class="st5" d="M159.1,143H52.3V92.4h106.9v9.6h-17.6c-8.6,0-15.5,6.9-15.5,15.5s6.9,15.5,15.5,15.5H159L159.1,143z"/>
<path class="st5" d="M164.9,129.3h-23.3c-6.5,0-11.6-5.4-11.6-11.6c0-6.5,5.4-11.6,11.6-11.6h23.2L164.9,129.3L164.9,129.3z"/>
<path class="st1" d="M135.6,117.7c0,4.4,3.6,7.7,7.7,7.7s7.7-3.6,7.7-7.7c0-4.4-3.6-7.7-7.7-7.7S135.6,113.5,135.6,117.7z
	 M143.6,113.8c2.1,0,3.9,1.8,3.9,3.9c0,2.1-1.8,3.9-3.9,3.9s-3.9-1.8-3.9-3.9C139.6,115.6,141.4,113.8,143.6,113.8z"/>
<path class="st6" d="M108.1,208.8c-55.7,0-101-45.3-101-100.9c0-55.6,45.3-100.9,101-100.9s101,45.3,101,100.9
	C209.1,163.6,163.8,208.8,108.1,208.8z M108.1,9.1c-54.6,0-99,44.4-99,98.9c0,54.5,44.4,98.9,99,98.9s99-44.4,99-98.9
	C207.1,53.4,162.7,9.1,108.1,9.1z"/>
</svg>
