<svg xmlns="http://www.w3.org/2000/svg" viewBox="0 0 160 160" class="undefined"><style>.a{fill:#7B878E;}.b{fill:#68D1DB;}.c{fill:#3C474E;}.d{fill:#FFF;}</style><path d="M80 135.2c-30.4 0-55.2-24.7-55.2-55.2 0-30.4 24.7-55.2 55.2-55.2s55.2 24.7 55.2 55.2C135.2 110.4 110.4 135.2 80 135.2zM80 26.8c-29.3 0-53.2 23.8-53.2 53.2s23.8 53.2 53.2 53.2 53.2-23.8 53.2-53.2S109.3 26.8 80 26.8z" class="a"/><path d="M80 33.3c-25.7 0-46.7 20.9-46.7 46.7s20.9 46.7 46.7 46.7 46.7-20.9 46.7-46.7S105.7 33.3 80 33.3z" class="b"/><path d="M115.8 97.1C115.8 97.1 115.8 97.1 115.8 97.1 115.8 97.1 115.9 97.1 115.8 97.1l18.1-35.5c0 0 0-0.1 0-0.1 0.1-0.2 0-0.5-0.1-0.6 -0.1-0.1-0.1-0.1-0.2-0.2 0 0 0 0 0 0 -0.1 0-0.2-0.1-0.2-0.1 -0.1 0-0.2 0-0.2 0 0 0 0 0 0 0l0 0c-0.1 0-5.6 1.8-9.2 2.4 -1.9 0.3-8.2 0.7-10.3-7.8 -0.7-3-2.2-5.4-4.4-7.2 -0.1-0.1-0.1-0.2-0.2-0.2 0 0 0 0 0 0 -1.7-1.4-3.9-2.5-6.4-3.1 -1.6-0.4-4.2-0.8-7.6-0.6 0 0 0 0 0 0 -4 0.2-9.2 1.1-15.6 3.6l2-3.9c0.5-1 0.2-2.3-0.9-2.9 -0.5-0.3-1.1-0.3-1.6-0.1 -0.5 0.2-1 0.6-1.2 1.1l-32.9 64.7c-0.5 0.9-0.2 2.1 0.7 2.7 0.1 0.1 0.2 0.1 0.3 0.2 1.1 0.5 2.3 0.1 2.9-0.9l12.4-24.5c12-4.8 19.7-4.1 23.3-3.3 4.9 1.2 8.1 3.4 10.8 7.6 1.9 2.8 3.6 4.9 5.5 6.4 0 0 0 0 0 0.1 0 0 0.1 0 0.1 0 0 0 0 0 0 0 2.1 1.6 4.3 2.5 6.9 2.8 0 0 0 0 0 0l0 0c4.1 0.4 7.7-0.2 7.9-0.3 0 0 0 0 0 0C115.6 97.4 115.7 97.3 115.8 97.1z" class="c"/><path d="M119 88.1c-0.9 0.1-3.5 0.5-6.3 0.3l3.3-6.6c2.2-0.2 5.1-0.7 6.8-1.1L119 88.1z" class="d"/><path d="M96.8 54.8L93 62.1c-1.4-0.3-3.4-0.6-6-0.5l3.7-7.3C93.2 54.2 95.2 54.4 96.8 54.8z" class="d"/><path d="M118.7 73.2l-3.7 7.3c-1.9 0.1-3.9-0.4-5.7-1.5l3.6-7C114.6 72.9 116.5 73.3 118.7 73.2z" class="d"/><path d="M89.9 71.2l3.9-7.6c1.6 0.5 3.5 1.2 5.1 2.5l-3.9 7.6C93.5 72.7 91.8 71.8 89.9 71.2z" class="d"/><path d="M107.5 64.5C107.5 64.5 107.5 64.5 107.5 64.5l-3.4 6.6c-0.9-2.3-2.2-4-3.6-5.3l3.7-7.3C105.7 60 106.9 61.9 107.5 64.5z" class="d"/><path d="M78 64.2c2.6-0.6 4.8-1 6.8-1.2l-3.7 7.2c-2.1 0.1-4.3 0.4-6.7 1L78 64.2z" class="d"/><path d="M103.9 74.5c0.9 2.2 2.2 3.8 3.8 5l-3 5.9c-1.4-1.1-2.8-2.6-4-4.6L103.9 74.5z" class="d"/><path d="M121 71.8l3.7-7.4c2.5-0.5 5.5-1.4 7.3-1.9l-4.1 8C127.5 70.6 123.9 71.4 121 71.8z" class="d"/><path d="M112.4 70.2c-1.6-1.2-2.7-3.1-3.5-5.6l3.8-7.3c0.9 2.4 2.1 4.2 3.6 5.3L112.4 70.2z" class="d"/><path d="M80.8 55.9L77.1 63c-2 0.5-4.3 1.2-6.7 2.2l3.5-7C76.4 57.2 78.7 56.5 80.8 55.9z" class="d"/><path d="M82 71.5c2.1-0.1 4 0.1 5.8 0.5 0 0 0.1 0 0.1 0l-3.8 7.4c-1.4-0.3-3.4-0.6-5.9-0.6L82 71.5z" class="d"/><path d="M105.1 87.5c1.9 1.2 3.8 1.8 5.4 2.1l-3.4 6.8c-2-0.3-3.8-1-5.4-2.2L105.1 87.5z" class="d"/><path d="M107.8 48.7l-4 7.7c-1.4-1.1-3.1-1.9-5.1-2.5l3.9-7.6C104.3 46.7 106.1 47.5 107.8 48.7z" class="d"/><path d="M93.7 45.6L90 52.9c-2 0.1-4.2 0.4-6.7 0.9l3.6-7.1C89.5 46.1 91.7 45.8 93.7 45.6z" class="d"/><path d="M46.1 108.4l-0.1-0.1c-0.3-0.2-0.4-0.7-0.3-1l32.9-64.7c0.1-0.2 0.3-0.3 0.5-0.4 0.2-0.1 0.4-0.1 0.7 0.1 0.3 0.2 0.4 0.7 0.3 1L59.8 83.1c-0.1 0.1-0.2 0.2-0.2 0.4L47.2 108C47 108.4 46.5 108.6 46.1 108.4z" class="d"/><path d="M65.1 75.6c2.4-1 4.6-1.8 6.7-2.4l-3.6 7c-2 0.5-4.2 1.2-6.5 2.1L65.1 75.6z" class="d"/><path d="M91.8 82.9l3.6-7c1.3 1.2 2.4 2.7 3.3 4.4 0.1 0.2 0.2 0.4 0.4 0.6l-3.3 6.4C94.6 85.5 93.2 84.1 91.8 82.9z" class="d"/></svg>