<svg xmlns="http://www.w3.org/2000/svg" viewBox="0 0 160 160" class="undefined"><style>.a{fill:#69D2DC;}.b{fill:#7C878E;}.c{fill:none;}.d{fill:#FFF;}.e{fill:#7B878E;}</style><path d="M112.2 123.4v-19.2c0-8.9-7.2-16.1-16.1-16.1h-2c-3.8 4.9-9.3 8-14.1 8 -4.8 0-10.3-3.1-14.1-8h-1c-8.9 0-16.1 7.2-16.1 16.1v19.4c8.8 6.5 19.7 10.4 31.5 10.4C92.3 134 103.4 130.1 112.2 123.4z" class="a"/><path d="M80.4 135c-11.6 0-22.7-3.7-32.1-10.6l-0.4-0.3v-19.9c0-9.4 7.7-17.1 17.1-17.1h1.5l0.3 0.4c3.6 4.6 8.8 7.6 13.3 7.6 4.5 0 9.7-3 13.3-7.6l0.3-0.4h2.5c9.4 0 17.1 7.7 17.1 17.1v19.7l-0.4 0.3C103.4 131.3 92.2 135 80.4 135zM49.9 123.2c8.9 6.5 19.5 9.9 30.5 9.9 11.2 0 21.8-3.5 30.9-10.1v-18.7c0-8.3-6.8-15.1-15.1-15.1h-1.5c-3.9 4.9-9.6 8-14.6 8 -5 0-10.6-3.1-14.6-8H65c-8.3 0-15.1 6.8-15.1 15.1V123.2z" class="b"/><rect x="26.2" y="25.8" width="108.8" height="108.8" class="c"/><rect x="26.6" y="26.5" width="107.8" height="107.8" class="c"/><path d="M80 88.4c8.1 0 18.5-9.1 18.5-20.3 0-11.2-7.3-19.4-18.5-19.4s-18.5 8.2-18.5 19.4C61.5 79.3 71.9 88.4 80 88.4z" class="c"/><path d="M80 88.4c8.1 0 18.5-9.1 18.5-20.3S91.3 48.7 80 48.7s-18.5 8.2-18.5 19.4S71.9 88.4 80 88.4z" class="d"/><path d="M80 49.7c-10.5 0-17.5 7.4-17.5 18.4 0 10.4 9.6 19.3 17.5 19.3 7.9 0 17.5-8.9 17.5-19.3C97.6 57.1 90.5 49.7 80 49.7z" class="d"/><path d="M80 89.4c-4.1 0-8.8-2.3-12.4-6.1 -3.9-4-6.1-9.2-6.1-14.3 0-11.6 7.4-19.4 18.5-19.4 11.1 0 18.5 7.8 18.5 19.4 0 5-2.2 10.2-6.1 14.3C88.8 87.2 84.2 89.4 80 89.4zM80 51.7c-9.9 0-16.5 7-16.5 17.4 0 9.9 9.1 18.3 16.5 18.3S96.6 79 96.6 69.1C96.6 58.7 89.9 51.7 80 51.7z" class="b"/><rect x="26.6" y="26.5" width="107.8" height="107.8" class="c"/><rect x="26.6" y="26.5" width="107.8" height="107.8" class="c"/><rect x="26.6" y="26.5" width="107.8" height="107.8" class="c"/><rect x="25.5" y="25.4" width="110.1" height="110.1" class="c"/><path d="M80.4 135c-30.4 0-55.2-24.7-55.2-55.2 0-30.4 24.7-55.2 55.2-55.2s55.2 24.7 55.2 55.2C135.5 110.3 110.8 135 80.4 135zM80.4 26.7c-29.3 0-53.2 23.8-53.2 53.2S51.1 133 80.4 133s53.2-23.8 53.2-53.2S109.7 26.7 80.4 26.7z" class="e"/></svg>