<svg xmlns="http://www.w3.org/2000/svg" viewBox="0 0 120 120"><style type="text/css">  
	.st0{fill:#15A3B2;}
	.st1{fill:#FFFFFF;}
	.st2{fill-rule:evenodd;clip-rule:evenodd;fill:#FFFFFF;}
	.st3{display:none;}
	.st4{display:inline;}
</style><path class="st0" d="M95.2 21.2c-0.6-0.8-1.4-1.5-2.3-1.8C92.3 19.1 91.7 19 91 19h-4V4.3c0-2.4-1.4-3.9-3.2-3.9 -0.4 0-0.7 0-1.1 0.1L28.3 17.2c-2.5 0.7-4.5 3.6-4.5 6.5v90.2 0.4c0 2.7 2.2 5.1 5.1 5.1h62.2c2.7 0 5.1-2.2 5.1-5.1V24.1C96.1 23 95.7 22 95.2 21.2zM83 4.5V19H35.6L83 4.5z"/><path class="st1" d="M74.2 110.8H45.6c-0.5 0-1-0.4-1-1V107c0-0.5 0.5-1 1-1h28.6c0.5 0 1 0.5 1 1v2.7C75.2 110.3 74.7 110.8 74.2 110.8z"/><path class="st2" d="M67.5 70.9l-7.2-1.3H60h-0.2 -0.3l-7.2 1.3c0 0-2 3.5-0.7 9.5 1.3 5.9 8.1 10 8.1 10h0H60h0c0 0 6.9-4 8.1-10C69.4 74.4 67.5 70.9 67.5 70.9z"/><polygon class="st2" points="48.8 70.2 49.3 72.7 48.2 74.5 47 73.2 "/><polygon class="st2" points="49.9 73.3 48.3 75.5 48.8 78.3 "/><polygon class="st2" points="49.8 76.9 49 80.4 50.4 83.4 "/><polygon class="st2" points="51 82.9 51.3 84.9 54.6 88.6 "/><polygon class="st2" points="46.4 73.5 47.9 75.4 48.3 78.3 "/><polygon class="st2" points="46.8 76.9 48.3 79.1 48.5 81.5 "/><polygon class="st2" points="47.9 82 49.7 83.2 51 85.8 "/><path class="st2" d="M76.4 61.4c0 0 1.1 5.5 0.5 7.9 0 0-1.8-5.8-3.4-6.7 0 0 9.2 24.3-13.5 30.4 -22.7-6-13.5-30.4-13.5-30.4 -1.6 0.9-3.4 6.7-3.4 6.7 -0.6-2.3 0.5-7.9 0.5-7.9C31.8 91.2 58.3 96.3 60 96.3 61.6 96.3 88.2 91.2 76.4 61.4z"/><polygon class="st2" points="71.2 70.2 70.7 72.7 71.8 74.5 73 73.2 "/><polygon class="st2" points="70.1 73.3 71.7 75.5 71.2 78.3 "/><polygon class="st2" points="70.2 76.9 71 80.4 69.6 83.4 "/><polygon class="st2" points="69 82.9 68.7 84.9 65.4 88.6 "/><polygon class="st2" points="73.6 73.5 72.1 75.4 71.7 78.3 "/><polygon class="st2" points="73.2 76.9 71.7 79.1 71.5 81.5 "/><polygon class="st2" points="72.1 82 70.3 83.2 69 85.8 "/><path class="st2" d="M50.5 66.7c0 0 6.4 1.9 9.3 1.8 3-0.1 9.2-1.6 9.3-1.8 0.1-0.2-9-7.5-9.3-7.3S50.5 65.9 50.5 66.7z"/><path class="st2" d="M82.9 44.9c0 0-1.3-6.8-3.7-6.6 0 0-2.1-2.9-4.2-2.1 0 0-1 17.2-12.4 20.8 -1.2-0.9-1.1-4.2-1.1-4.2 0.4 0 1.7 2.5 1.7 2.5 0.1-0.7-1-2.8-1-2.8 1.4 0.5 2.1 1.5 2.1 1.5 -0.2-0.8-1.9-2.3-1.9-2.3 1.1 0 2.8 0.7 2.8 0.7 -0.3-0.3-3.8-2.3-5.8-2.5 -2-0.2-2.1 0.6-2.1 0.6 -1.7 0.2-2 1.2-2 1.2 1.2-0.1 2.9 0.3 3.3 0.5 0.4 0.2 0.3 2.7 0.3 3.5 0 0.4-0.8 0.9-1.5 1.2C46 53.2 45 36.1 45 36.1c-2.1-0.8-4.2 2.1-4.2 2.1 -2.4-0.1-3.7 6.6-3.7 6.6 -3.6 3.1 2.2 10.3 2.2 10.3 -1 1.6 6.3 5.3 6.3 5.3 0.4 1.5 4 1.1 4 1.1 4 0.9 7.2-2.8 7.2-2.8 0.1-0.2 2.4-0.7 3-0.7 0.5 0 2.7 0.5 3.3 0.7l0 0c0 0 3.3 3.6 7.2 2.8 0 0 3.6 0.5 4-1.1 0 0 7.3-3.7 6.3-5.3C80.7 55.2 86.4 48 82.9 44.9z"/></svg>