<?xml version="1.0" encoding="utf-8"?>
<!-- Generator: Adobe Illustrator 20.1.0, SVG Export Plug-In . SVG Version: 6.00 Build 0)  -->
<svg version="1.1" id="Layer_1" xmlns="http://www.w3.org/2000/svg" xmlns:xlink="http://www.w3.org/1999/xlink" x="0px" y="0px"
	 viewBox="0 0 200 200" style="enable-background:new 0 0 200 200;" xml:space="preserve">
<g>
	<path style="fill:none;" d="M100,157.6c-31.6,0-57.6-26-57.6-57.6s26-57.6,57.6-57.6s57.6,26,57.6,57.6S131.6,157.6,100,157.6"/>
	<g>
		<path style="fill:#7C878E;" d="M100,159.6c-32.8,0-59.6-26.8-59.6-59.6S67.2,40.4,100,40.4s59.6,26.8,59.6,59.6
			S132.8,159.6,100,159.6z M100,44.4c-30.4,0-55.6,24.8-55.6,55.6c0,30.4,24.8,55.6,55.6,55.6s55.6-25.2,55.6-55.6
			S130.4,44.4,100,44.4z"/>
	</g>
	<path style="fill:#F2BC47;" d="M100,32.4c-2,0-3.6-1.6-3.6-3.6V3.6c0-2,1.6-3.6,3.6-3.6s3.6,1.6,3.6,3.6v25.2
		C103.6,30.8,102,32.4,100,32.4"/>
	<path style="fill:#F2BC47;" d="M72.8,38c-1.6,0-2.8-0.8-3.2-2.4L60,12.4c-0.8-2,0-4,2-4.8c2-0.8,4,0,4.8,2L76,32.8c0.8,2,0,4-2,4.8
		C73.6,37.6,73.2,38,72.8,38"/>
	<path style="fill:#F2BC47;" d="M49.6,53.2c-0.8,0-2-0.4-2.4-1.2l-18-17.6c-1.2-1.2-1.2-3.6,0-5.2c1.6-1.2,4-1.2,5.2,0L52,46.8
		c1.6,1.6,1.6,3.6,0,5.2C51.6,52.8,50.4,53.2,49.6,53.2"/>
	<path style="fill:#F2BC47;" d="M34,76.4c-0.4,0-0.8,0-1.6-0.4L9.2,66.4c-2-0.8-2.8-2.8-2-4.8s2.8-2.8,4.8-2l23.2,9.6
		c2,0.8,2.8,2.8,2,4.8C36.8,75.6,35.6,76.4,34,76.4"/>
	<path style="fill:#F2BC47;" d="M28.8,103.6H3.6c-2,0-3.6-1.6-3.6-3.6s1.6-3.6,3.6-3.6h25.2c2,0,3.6,1.6,3.6,3.6
		S30.8,103.6,28.8,103.6"/>
	<path style="fill:#F2BC47;" d="M11.2,140.4c-1.6,0-2.8-0.8-3.2-2.4c-0.8-2,0-4,2-4.8l22.8-9.2c2-0.8,4,0,4.8,2s0,4-2,4.8l-23.2,9.6
		C12,140.4,11.6,140.4,11.2,140.4"/>
	<path style="fill:#F2BC47;" d="M32,171.6c-0.8,0-2-0.4-2.4-1.2c-1.6-1.6-1.6-3.6,0-5.2l17.6-17.6c1.6-1.6,3.6-1.6,5.2,0
		c1.6,1.6,1.6,3.6,0,5.2l-17.6,17.6C33.6,171.6,32.8,171.6,32,171.6"/>
	<path style="fill:#F2BC47;" d="M63.2,192.8c-0.4,0-0.8,0-1.6-0.4c-2-0.8-2.8-2.8-2-4.8l9.6-23.2c0.8-2,2.8-2.8,4.8-2
		c2,0.8,2.8,2.8,2,4.8l-9.6,23.2C66,192,64.4,192.8,63.2,192.8"/>
	<path style="fill:#F2BC47;" d="M100,200c-2,0-3.6-1.6-3.6-3.6v-25.2c0-2,1.6-3.6,3.6-3.6s3.6,1.6,3.6,3.6v25.2
		C103.6,198.4,102,200,100,200"/>
	<path style="fill:#F2BC47;" d="M136.8,192.8c-1.6,0-2.8-0.8-3.2-2.4l-9.6-23.2c-0.8-2,0-4,2-4.8s4,0,4.8,2l9.6,23.2
		c0.8,2,0,4-2,4.8C138,192.4,137.2,192.8,136.8,192.8"/>
	<path style="fill:#F2BC47;" d="M168,171.6c-0.8,0-2-0.4-2.4-1.2L148,152.8c-1.6-1.6-1.6-3.6,0-5.2c1.6-1.6,3.6-1.6,5.2,0l17.6,17.6
		c1.6,1.6,1.6,3.6,0,5.2C170,171.6,169.2,171.6,168,171.6"/>
	<path style="fill:#F2BC47;" d="M188.8,140.4c-0.4,0-0.8,0-1.6-0.4l-23.2-9.6c-2-0.8-2.8-2.8-2-4.8s2.8-2.8,4.8-2l23.2,9.6
		c2,0.8,2.8,2.8,2,4.8C192,139.6,190.4,140.4,188.8,140.4"/>
	<path style="fill:#F2BC47;" d="M196.4,103.6h-25.2c-2,0-3.6-1.6-3.6-3.6s1.6-3.6,3.6-3.6h25.2c2,0,3.6,1.6,3.6,3.6
		S198.4,103.6,196.4,103.6"/>
	<path style="fill:#F2BC47;" d="M166,76.4c-1.6,0-2.8-0.8-3.2-2.4c-0.8-2,0-4,2-4.8l23.2-9.6c2-0.8,4,0,4.8,2s0,4-2,4.8L167.2,76
		C166.8,76.4,166.4,76.4,166,76.4"/>
	<path style="fill:#F2BC47;" d="M150.4,53.2c-0.8,0-2-0.4-2.4-1.2c-1.6-1.6-1.6-3.6,0-5.2l17.6-17.6c1.6-1.6,3.6-1.6,5.2,0
		c1.6,1.6,1.6,3.6,0,5.2L153.2,52C152.4,52.8,151.2,53.2,150.4,53.2"/>
	<path style="fill:#F2BC47;" d="M127.2,38c-0.4,0-0.8,0-1.6-0.4c-1.6-0.8-2.4-2.8-1.6-4.8l9.6-23.2c0.8-2,2.8-2.8,4.8-2
		s2.8,2.8,2,4.8l-9.6,23.2C130,37.2,128.8,38,127.2,38"/>
	<path style="fill:#F39200;" d="M100,44.4c-30.4,0-55.6,24.8-55.6,55.6c0,30.4,24.8,55.6,55.6,55.6s55.6-25.2,55.6-55.6
		S130.4,44.4,100,44.4z"/>
</g>
</svg>
