<?xml version="1.0" encoding="utf-8"?>
<!-- Generator: Adobe Illustrator 20.1.0, SVG Export Plug-In . SVG Version: 6.00 Build 0)  -->
<svg version="1.1" id="Layer_1" xmlns="http://www.w3.org/2000/svg" xmlns:xlink="http://www.w3.org/1999/xlink" x="0px" y="0px"
	 viewBox="0 0 203.3 200" style="enable-background:new 0 0 203.3 200;" xml:space="preserve">
<g>
	<path style="fill:#FFFFFF;" d="M1.2,131h201c-4-35-33.8-62-69.9-62c-24.6,0-47.1,12.5-59.9,33.8l-4.5,7.2l-7.2-4.4
		c-6.4-4-13.3-6-20.5-6C20.9,99.6,5.2,112.9,1.2,131"/>
	<path style="fill:#7C878E;" d="M203.3,132H0l0.3-1.2c4.2-18.9,20.6-32.2,40-32.2c7.4,0,14.5,2.1,21,6.2l6.3,3.9l4-6.4
		C84.4,80.8,107.2,68,132.3,68c36.3,0,66.8,27,70.9,62.9L203.3,132z M2.5,130h198.6c-4.5-34.3-33.9-60-68.8-60
		c-24.4,0-46.5,12.5-59,33.3l-5,8.1l-8-4.9c-6.2-3.9-12.9-5.9-20-5.9C22.2,100.6,6.9,112.6,2.5,130z"/>
</g>
</svg>
