<svg xmlns="http://www.w3.org/2000/svg" viewBox="0 0 50 50"><style type="text/css">  
	.st0{fill-rule:evenodd;clip-rule:evenodd;fill:#15A3B2;}
</style><path class="st0" d="M44.1 7.7H5.9c-3 0-5.4 2.6-5.4 5.8v23c0 3.2 2.4 5.8 5.4 5.8h38.2c3 0 5.4-2.6 5.4-5.8v-23C49.5 10.3 47.1 7.7 44.1 7.7zM47.4 36.5c0 2-1.5 3.6-3.3 3.6H5.9c-1.8 0-3.3-1.6-3.3-3.6v-23c0-2 1.5-3.6 3.3-3.6h38.2c1.8 0 3.3 1.6 3.3 3.6V36.5z"/><path class="st0" d="M39.6 19.9c-1 0-1.6-0.3-2.4-0.8 -1.5 0.2-2.6 1.5-2.6 3.1v1.6c0.2 0.5 2.8 1.2 5 1.2 2.1 0 5-0.7 5-1.2v-1.6c0-1.6-1.2-2.8-2.7-3.1C41.3 19.6 40.5 19.9 39.6 19.9z"/><path class="st0" d="M36.4 16.2c0 1 0.4 1.9 1.1 2.5 0.4 0.3 0.7 0.5 1.2 0.7 0.3 0.1 0.6 0.2 0.9 0.2 0.3 0 0.6-0.1 0.9-0.2 0.5-0.1 0.8-0.4 1.2-0.7 0.7-0.6 1.1-1.5 1.1-2.5 0-1.8-1.4-3.3-3.2-3.3C37.8 12.9 36.4 14.4 36.4 16.2z"/><path class="st0" d="M5.5 14.3l0 2.8c0 0.7 0.3 1.2 0.8 1.2l23.7 0c0.4 0 0.8-0.5 0.8-1.2l0-2.8c0-0.7-0.3-1.2-0.8-1.2l-23.7 0C5.9 13.1 5.5 13.6 5.5 14.3z"/><path class="st0" d="M6.7 22.1c-0.7 0-1.2 0.5-1.2 1.2v2.8c0 0.7 0.5 1.2 1.2 1.2h23.1c0.7 0 1.2-0.5 1.2-1.2v-2.8c0-0.7-0.5-1.2-1.2-1.2H6.7z"/><path class="st0" d="M6.7 31.1c-0.7 0-1.2 0.5-1.2 1.2v2.8c0 0.7 0.5 1.2 1.2 1.2h23.1c0.7 0 1.2-0.5 1.2-1.2v-2.8c0-0.7-0.5-1.2-1.2-1.2H6.7z"/></svg>