<svg id="Layer_1" xmlns="http://www.w3.org/2000/svg" viewBox="0 0 134.2 136.8" class="undefined"><style>.a{fill:#F1BB46;}.b{fill:#68D1DB;}.c{fill:#FFF;}.d{fill:#FFF;stroke:#FFF;}.e{fill:#3C474E;}</style><path d="M66 132.2c-35.3 0-64-28.7-64-64s28.7-64 64-64 64 28.7 64 64S101.3 132.2 66 132.2z" class="a"/><path d="M66 26.3c-22.6 0-41 18.4-41 41 0 22.6 18.4 41 41 41 22.6 0 41-18.4 41-41C107 44.7 88.6 26.3 66 26.3z" class="b"/><path d="M66 134.2c-36.4 0-66-29.6-66-66 0-36.4 29.6-66 66-66s66 29.6 66 66C132 104.6 102.4 134.2 66 134.2zM66 4.2c-35.3 0-64 28.7-64 64s28.7 64 64 64 64-28.7 64-64S101.3 4.2 66 4.2z" class="c"/><path d="M66 110.4c-23.7 0-43-19.3-43-43 0-23.7 19.3-43 43-43s43 19.3 43 43C109 91.1 89.7 110.4 66 110.4zM66 26.3c-22.6 0-41 18.4-41 41 0 22.6 18.4 41 41 41 22.6 0 41-18.4 41-41C107 44.7 88.6 26.3 66 26.3z" class="c"/><polygon points="118.4 75.7 114.8 77.6 115.5 73.6 112.6 70.8 116.6 70.2 118.4 66.6 120.2 70.2 124.1 70.8 121.3 73.6 121.9 77.6 " class="c"/><polygon points="13.6 76.5 10.1 78.3 10.8 74.4 7.9 71.6 11.9 71 13.6 67.4 15.4 71 19.4 71.6 16.5 74.4 17.2 78.3 " class="c"/><path d="M95.8 80.2C95.8 80.2 95.8 80.2 95.8 80.2 95.8 80.2 95.9 80.2 95.8 80.2l13.9-27.1c0 0 0 0 0-0.1 0.1-0.2 0-0.4-0.1-0.5 0-0.1-0.1-0.1-0.2-0.1 0 0 0 0 0 0 -0.1 0-0.1 0-0.2-0.1 -0.1 0-0.1 0-0.2 0 0 0 0 0 0 0l0 0c-0.1 0-4.2 1.4-7.1 1.9 -1.4 0.3-6.3 0.6-7.9-6 -0.6-2.3-1.7-4.1-3.4-5.5 0-0.1-0.1-0.1-0.2-0.2 0 0 0 0 0 0 -1.3-1.1-3-1.9-4.9-2.4 -1.3-0.3-3.2-0.6-5.8-0.5 0 0 0 0 0 0 -3 0.1-7 0.9-12 2.8l1.5-3c0.4-0.8 0.1-1.8-0.7-2.2 -0.4-0.2-0.8-0.2-1.2-0.1 -0.4 0.1-0.8 0.4-1 0.8L41.3 87.5c-0.4 0.7-0.1 1.6 0.5 2.1 0.1 0 0.1 0.1 0.2 0.1 0.8 0.4 1.8 0.1 2.2-0.7l9.5-18.7c9.2-3.7 15.1-3.1 17.8-2.5 3.8 0.9 6.2 2.6 8.3 5.8 1.4 2.2 2.8 3.7 4.2 4.9 0 0 0 0 0 0 0 0 0 0 0.1 0 0 0 0 0 0 0 1.6 1.2 3.3 1.9 5.3 2.1 0 0 0 0 0 0l0 0c3.1 0.3 5.9-0.2 6-0.2 0 0 0 0 0 0C95.6 80.4 95.7 80.3 95.8 80.2z" class="d"/><path d="M95.8 80.3C95.8 80.2 95.8 80.2 95.8 80.3 95.8 80.2 95.8 80.2 95.8 80.3l13.9-27.1c0 0 0 0 0-0.1 0.1-0.2 0-0.4-0.1-0.5 0-0.1-0.1-0.1-0.2-0.1 0 0 0 0 0 0 -0.1 0-0.1 0-0.2-0.1 -0.1 0-0.1 0-0.2 0 0 0 0 0 0 0l0 0c-0.1 0-4.2 1.4-7.1 1.9 -1.4 0.3-6.3 0.6-7.9-6 -0.6-2.3-1.7-4.1-3.4-5.5 0-0.1-0.1-0.1-0.2-0.2 0 0 0 0 0 0 -1.3-1.1-3-1.9-4.9-2.4 -1.3-0.3-3.2-0.6-5.8-0.5 0 0 0 0 0 0 -3 0.1-7 0.9-11.9 2.8l1.5-3c0.4-0.8 0.1-1.8-0.7-2.2 -0.4-0.2-0.8-0.2-1.2-0.1 -0.4 0.1-0.8 0.4-1 0.8L41.3 87.6c-0.4 0.7-0.1 1.6 0.5 2.1 0.1 0 0.1 0.1 0.2 0.1 0.8 0.4 1.8 0.1 2.2-0.7l9.5-18.7c9.2-3.7 15.1-3.1 17.8-2.5 3.8 0.9 6.2 2.6 8.3 5.8 1.4 2.2 2.8 3.7 4.2 4.9 0 0 0 0 0 0 0 0 0 0 0.1 0 0 0 0 0 0 0 1.6 1.2 3.3 1.9 5.3 2.1 0 0 0 0 0 0l0 0c3.1 0.3 5.9-0.2 6-0.2 0 0 0 0 0 0C95.6 80.4 95.7 80.4 95.8 80.3zM98.2 73.3c-0.7 0.1-2.7 0.4-4.8 0.2l2.5-5c1.7-0.1 3.9-0.6 5.2-0.8L98.2 73.3zM81.3 47.8l-2.9 5.6c-1.1-0.2-2.6-0.4-4.6-0.4l2.9-5.6C78.5 47.4 80.1 47.6 81.3 47.8zM98 62l-2.8 5.6c-1.4 0-3-0.3-4.3-1.1l2.7-5.3C94.9 61.7 96.3 62 98 62zM76 60.4l3-5.8c1.3 0.3 2.6 0.9 3.9 1.9l-3 5.8C78.7 61.5 77.4 60.9 76 60.4zM89.5 55.3C89.5 55.3 89.5 55.3 89.5 55.3l-2.6 5.1c-0.7-1.7-1.7-3-2.8-4l2.9-5.6C88.1 51.8 89 53.3 89.5 55.3zM66.9 55c2-0.5 3.7-0.8 5.2-0.9l-2.8 5.5c-1.6 0.1-3.3 0.3-5.2 0.8L66.9 55zM86.7 62.9c0.7 1.7 1.7 2.9 2.9 3.8l-2.3 4.5c-1.1-0.8-2.1-2-3.1-3.5L86.7 62.9zM99.8 60.8l2.8-5.6c1.9-0.4 4.2-1 5.6-1.4l-3.1 6.1C104.7 60 102 60.6 99.8 60.8zM93.2 59.7c-1.2-0.9-2.1-2.3-2.6-4.3l2.9-5.6c0.7 1.9 1.6 3.2 2.7 4.1L93.2 59.7zM69 48.7l-2.8 5.5c-1.6 0.4-3.3 0.9-5.1 1.6l2.7-5.3C65.7 49.7 67.4 49.1 69 48.7zM69.9 60.6c1.6 0 3.1 0.1 4.4 0.4 0 0 0.1 0 0.1 0l-2.9 5.7c-1.1-0.2-2.6-0.4-4.5-0.4L69.9 60.6zM87.6 72.9c1.5 0.9 2.9 1.4 4.2 1.6l-2.6 5.2c-1.5-0.2-2.9-0.7-4.2-1.7L87.6 72.9zM89.7 43.2l-3 5.9c-1.1-0.8-2.4-1.5-3.9-1.9l3-5.8C87 41.7 88.4 42.3 89.7 43.2zM78.9 40.9l-2.9 5.6c-1.5 0.1-3.2 0.3-5.1 0.7l2.8-5.4C75.7 41.3 77.4 41 78.9 40.9zM42.5 88.9L42.5 88.9c-0.3-0.2-0.4-0.6-0.3-0.8l25.1-49.5c0.1-0.1 0.2-0.3 0.4-0.3 0.2-0.1 0.3 0 0.5 0.1 0.3 0.2 0.3 0.5 0.2 0.8L53 69.5c-0.1 0.1-0.1 0.2-0.1 0.3l-9.5 18.8C43.2 88.9 42.8 89 42.5 88.9zM57 63.8c1.8-0.7 3.5-1.3 5.2-1.8l-2.8 5.4c-1.5 0.4-3.2 0.9-5 1.6L57 63.8zM77.4 69.4l2.8-5.4c1 0.9 1.8 2 2.6 3.4 0.1 0.2 0.2 0.3 0.3 0.5l-2.5 4.9C79.6 71.4 78.5 70.3 77.4 69.4z" class="e"/></svg>