<svg xmlns="http://www.w3.org/2000/svg" viewBox="0 0 146 128" class="undefined"><style>.a{fill:#F2BC47;}.b{fill:#FFF;}.c{fill:#F6D07E;}.d{fill:#FBE9C2;}.e{fill:#007582;}.f{fill:#69D2DC;}.g{fill:#15A3B2;}.h{fill:none;}</style><polyline points="85.6 103.2 85.6 121.4 21.8 121.4 5.3 104.9 5.3 11.5 85.6 11.5 85.6 103.9 " class="a"/><path d="M86.6 122.4H21.4L4.3 105.3V10.5h82.3V122.4zM22.2 120.4h62.4V12.5H6.3v92L22.2 120.4z" class="b"/><polyline points="5.3 104.9 21.8 104.9 21.8 121.4 " class="a"/><polygon points="22.8 121.4 20.8 121.4 20.8 105.9 5.3 105.9 5.3 103.9 22.8 103.9 " class="b"/><line x1="18.4" y1="28.3" x2="72.6" y2="28.3" class="a"/><rect x="18.4" y="27.3" width="54.2" height="2" class="b"/><line x1="18.4" y1="37.6" x2="72.6" y2="37.6" class="a"/><rect x="18.4" y="36.6" width="54.2" height="2" class="b"/><line x1="18.4" y1="46.8" x2="45.5" y2="46.8" class="a"/><rect x="18.4" y="45.8" width="27.1" height="2" class="b"/><path d="M96.5 71.9c-2.5-6.3-6.8-11.4-12.2-14.8v52.2C96.5 101.5 102 85.9 96.5 71.9z" class="d"/><path d="M98 97.3l0.2-0.5c1.1-2.6 4.1-3.7 6.7-2.6l38.3 16.8c0.2 4-1.2 7.3-4.3 9.8L100.6 104C98 102.9 96.8 99.9 98 97.3L98 97.3z" class="e"/><path d="M139 122l-38.9-17c-3.1-1.3-4.5-4.9-3.1-8l0.2-0.5c1.3-3.1 4.9-4.5 8-3.1l38.9 17 0 0.6c0.2 4.3-1.4 7.9-4.7 10.7L139 122zM98.9 97.7c-0.9 2.1 0 4.5 2.1 5.4l37.7 16.5c2.4-2.2 3.5-4.8 3.5-8l-37.7-16.5c-2.1-0.9-4.5 0-5.4 2.1L98.9 97.7z" class="b"/><path d="M67.4 116c-13 0-25.2-7.8-30.2-20.6 -3.1-8.1-3-16.9 0.5-24.8 3.5-7.9 9.8-14 17.9-17.2l0 0c8.1-3.1 16.9-3 24.8 0.5s14 9.8 17.2 17.9c6.5 16.6-1.7 35.5-18.4 42C75.3 115.3 71.3 116 67.4 116zM56.3 55.3c-7.6 3-13.5 8.7-16.8 16.1 -3.3 7.4-3.4 15.7-0.5 23.3 6.1 15.6 23.8 23.3 39.4 17.2 15.6-6.1 23.3-23.8 17.2-39.4C92.7 65 87 59 79.6 55.8 72.1 52.5 63.9 52.3 56.3 55.3L56.3 55.3z" class="b"/><path d="M67.4 110.6c-8.5 0-16.7-4-21.9-11.2l1.6-1.2c6.7 9.3 18.7 12.8 29.4 8.7 6.2-2.4 11.1-7.1 13.8-13.3 2.7-6.1 2.8-12.9 0.4-19.1 -2.3-5.9-6.7-10.7-12.4-13.4l0.9-1.8c6.1 3 10.9 8.1 13.4 14.5 2.6 6.7 2.5 14.1-0.4 20.7 -2.9 6.6-8.2 11.7-14.9 14.3C74 110 70.7 110.6 67.4 110.6z" class="b"/><line x1="46" y1="74.3" x2="50.9" y2="74.3" class="f"/><rect x="46" y="73.8" width="4.9" height="1" class="b"/><line x1="74.8" y1="74.3" x2="79.6" y2="74.3" class="f"/><rect x="74.8" y="73.8" width="4.8" height="1" class="b"/><path d="M70.9 87.3l0 1.6c0 0.3 0.3 0.6 0.6 0.6h4.7c0.4 0 0.6-0.3 0.6-0.6 0-2.3 0-3.8 0-9 0-0.9-0.2-1.6-0.6-2.1 -0.3-0.4-2.8-4-5.5-7.2 -0.1-0.2-0.4-0.5-1-0.5 -5.7-0.3-8.4-0.4-14 0 -0.6 0.1-0.9 0.4-1 0.5 -2.7 3.2-5.1 6.8-5.5 7.2 -0.4 0.5-0.6 1.2-0.6 2.1 0 5.2 0 6.7 0 9 0 0.3 0.3 0.6 0.6 0.6H54c0.3 0 0.6-0.3 0.6-0.6l0-1.6C60.1 87.6 65.6 87.6 70.9 87.3L70.9 87.3z" class="f"/><path d="M76.2 90h-4.7c-0.6 0-1.1-0.5-1.1-1.1l0-1.1c-5.1 0.3-10.3 0.3-15.3 0l0 1.1c0 0.6-0.5 1.1-1.1 1.1h-4.7c-0.6 0-1.1-0.5-1.1-1.1v-9c0-1 0.2-1.8 0.7-2.4 0.1-0.1 0.3-0.4 0.7-0.9 1-1.4 2.8-4 4.8-6.3 0.3-0.4 0.8-0.7 1.3-0.7 5.6-0.4 8.3-0.4 14.1 0 0.6 0.1 1 0.3 1.4 0.7 2 2.3 3.8 4.9 4.8 6.3 0.3 0.5 0.6 0.8 0.7 0.9 0.5 0.6 0.8 1.4 0.7 2.4v9C77.4 89.5 76.9 90 76.2 90zM71.4 86.8l0 2.2c0 0.1 0.1 0.1 0.1 0.1h4.7c0.1 0 0.1-0.1 0.1-0.1v-9c0-0.8-0.2-1.3-0.5-1.8 -0.1-0.1-0.3-0.5-0.7-1 -1-1.4-2.8-3.9-4.7-6.2 -0.2-0.2-0.4-0.3-0.7-0.4 -5.7-0.4-8.5-0.3-13.9 0 -0.3 0-0.5 0.2-0.7 0.4 -1.9 2.3-3.8 4.9-4.8 6.3 -0.4 0.5-0.6 0.8-0.7 0.9 -0.3 0.4-0.5 1-0.5 1.8v9c0 0.1 0.1 0.1 0.1 0.1H54c0.1 0 0.1-0.1 0.1-0.1l0-2.1 0.5 0c5.3 0.3 10.8 0.3 16.2 0L71.4 86.8z" class="b"/><line x1="52" y1="81.7" x2="56.2" y2="82.2" class="f"/><rect x="53.6" y="79.8" transform="matrix(0.1199 -0.9928 0.9928 0.1199 -33.7251 125.7913)" width="1" height="4.2" class="b"/><line x1="73.5" y1="81.7" x2="69.4" y2="82.2" class="f"/><rect x="69.4" y="81.4" transform="matrix(0.9928 -0.1202 0.1202 0.9928 -9.3272 9.1815)" width="4.2" height="1" class="b"/><path d="M69.8 70h-14l-5.2 6.3c5.9 0.3 18.6 0.3 24.4 0L69.8 70z" class="g"/><path d="M62.8 77c-4.6 0-9.3-0.1-12.2-0.2l-1 0 6-7.2H70l6 7.2 -1 0C72 77 67.4 77 62.8 77zM51.6 75.9c5.9 0.2 16.5 0.2 22.4 0l-4.4-5.3H56L51.6 75.9z" class="b"/><path d="M84.3 51.3v5.7c5.3 3.4 9.7 8.5 12.2 14.8 5.5 14 0.1 29.6-12.2 37.4v25.1h36.3v-83H84.3z" class="h"/></svg>