<svg xmlns="http://www.w3.org/2000/svg" viewBox="0 170 1444 270.3" class="undefined"><style>.a{fill:#5D656B;}.b{fill:#7C878E;}.c{fill:none;}.d{fill:#69D2DC;}.e{fill:#F39200;}.f{fill:#FFF;}.g{fill:#3C474E;stroke-width:3;stroke:#7C878E;}</style><rect x="-1" y="345.6" width="1445" height="67.6" class="a"/><rect x="319.8" y="373.7" width="167.8" height="4.8" class="b"/><rect x="638.3" y="373.7" width="167.8" height="4.8" class="b"/><rect x="956.8" y="373.7" width="167.8" height="4.8" class="b"/><rect x="1275.3" y="373.7" width="167.8" height="4.8" class="b"/><rect x="1.3" y="373.7" width="167.8" height="4.8" class="b"/><rect x="410.6" y="162.7" width="12.1" height="189.6" class="c"/><rect x="409.6" y="161.7" width="12.1" height="184.3" class="b"/><polygon points="429.2 243.3 409.8 243.3 370 243.3 357 258.1 370 272.8 409.8 272.8 429.2 272.8 466.8 272.8 466.8 243.3 " class="c"/><path d="M467.3 273.3h-97.5l-13.5-15.3 13.5-15.2h97.5V273.3zM370.2 272.3h96v-28.5h-96l-12.6 14.2L370.2 272.3z" class="b"/><polygon points="420.5 196.1 401.2 196.1 363.6 196.1 363.6 225.6 401.2 225.6 420.5 225.6 460.4 225.6 473.4 210.8 460.4 196.1 " class="c"/><polygon points="363.6 196.1 401.2 196.1 420.5 196.1 460.4 196.1 473.4 210.8 460.4 225.6 420.5 225.6 401.2 225.6 363.6 225.6 " class="d"/><path d="M460.6 226.1h-97.5v-30.5h97.5l13.5 15.2L460.6 226.1zM364.1 225.1h96l12.6-14.3 -12.6-14.2h-96V225.1z" class="b"/><path d="M845.6 301.8c-5.7-0.9-15.1-1.8-26.8-2.7 -2.2-0.3-16.3-2.5-24.4-7 -1.9-1-4-2.3-6.3-3.6 -10.6-6.2-25.2-14.8-43.4-19.4 -21.5-5.5-46.6-6.2-69.1-2.1 -10 1.9-22.2 7.8-34 13.5 -11 5.4-21.4 10.4-27.7 10.9 0 0 0 0 0 0 -10.8-0.3-17.4-0.4-17.8-0.4 -4 0-7.2 3.2-7.2 7.1v43.5c0 3.9 3.2 7.1 7.1 7.1h24.4c3 10.7 12.9 18.6 24.6 18.6 11.8 0 21.6-7.9 24.6-18.6h133c3 10.7 12.9 18.6 24.6 18.6 11.8 0 21.6-7.9 24.6-18.6h24.2c3.9 0 7.1-3.2 7.1-7.1v-17.9C883.2 313.2 870.6 305.9 845.6 301.8M652 292.4c10.3-6 22.4-12.2 32.4-14.1 6.8-1.3 16.1-2 25.8-1.9l5.4 17.9C693.1 293.5 671 292.9 652 292.4M718.8 294.4l-5.4-17.9c7.5 0.3 15.2 1.1 22.1 2.7 15.8 3.7 27.1 11.3 33.2 15.3l0.6 0.4c0.6 0.4 1.4 1 2.3 1.5C754.8 295.7 736.7 295 718.8 294.4" class="b"/><path d="M596.1 294.1c0.1 0 0.3 0 0.7 0l8.1 8.9 -12.9-0.5v-4.4C592.1 295.9 593.9 294.1 596.1 294.1" class="e"/><path d="M804.7 341.9c0-12.3 10.1-22.3 22.6-22.3 12.4 0 22.6 10 22.6 22.3 0 12.3-10.1 22.3-22.6 22.3C814.9 364.2 804.7 354.2 804.7 341.9" class="c"/><path d="M800.3 297.9c-7.1-0.4-14.8-0.8-22.8-1.2 -2.7-1.8-5-3.4-6.5-4.3l-0.6-0.4c-6.2-4.1-17.9-11.9-34.2-15.7 -17.4-4.1-39.4-3.4-52.4-1 -11.9 2.2-26.3 10.2-37.6 16.9 -8-0.2-15.4-0.4-21.9-0.5 5.6-2.1 12-5.2 18.6-8.4 11.6-5.7 23.6-11.5 33.2-13.3 22-4.1 46.7-3.3 67.7 2.1 17.7 4.5 32.1 12.9 42.6 19.1 2.3 1.4 4.4 2.6 6.3 3.6C795.1 296 797.7 297 800.3 297.9" class="d"/><path d="M878.7 319.1h-16.4c-1.9 0-3.5-1.5-3.5-3.4v-1.4c0-1.9 1.6-3.4 3.5-3.4h5.5C873.3 313.3 877 316 878.7 319.1" class="c"/><path d="M878.7 319.1h-16.4c-1.9 0-3.5-1.5-3.5-3.4v-1.4c0-1.9 1.6-3.4 3.5-3.4h5.5C873.3 313.3 877 316 878.7 319.1z" class="f"/><path d="M870.1 333.4c0-1.6 1.3-2.8 2.9-2.8h7.1v5.7H873C871.4 336.2 870.1 334.9 870.1 333.4" class="d"/><path d="M670.4 345.6c0.2-1.2 0.4-2.4 0.4-3.7 0-14-11.5-25.4-25.7-25.4 -12.2 0-22.4 8.5-25 19.8h-28.1v-30.7l209.8 8.6c-6.4 5.8-10.7 13.6-12 22.1H673.2c-0.9 0-1.5 0.7-1.5 1.5 0 0.8 0.7 1.5 1.5 1.5h118c0.8 0 1.4-0.6 1.5-1.4 1.1-9.5 6.2-18.3 14.2-23.9 0.5-0.4 0.8-1.1 0.6-1.7 -0.2-0.6-0.8-1.1-1.4-1.1l-196.9-8.1 -8.1-9c26.7 0.6 155.7 3.5 217.4 8 0.1 0 0.3 0 0.3 0 0.1 0 0.1 0 0.2 0 0 0 0 0 0.1 0 11.3 0.8 20.4 1.7 26 2.6 5.9 1 11 2.1 15.4 3.4 -2.7 0.8-4.7 3.2-4.7 6.1v1.4c0 3.6 2.9 6.5 6.6 6.5h17.5c0.1 0.5 0.3 1 0.3 1.5v3.8H873c-3.3 0-6 2.6-6 5.9 0 1.1 0.4 2.1 0.9 2.9h-15.6c-2.6-11.3-12.8-19.8-25-19.8 -14.1 0-25.7 11.4-25.7 25.4 0 1.3 0.2 2.5 0.4 3.7H670.4z" class="d"/><path d="M592.1 341.6v-2.2h27.6c-0.1 0.8-0.3 1.7-0.3 2.5 0 1.3 0.2 2.5 0.4 3.7h-23.7C593.9 345.6 592.1 343.8 592.1 341.6" class="d"/><path d="M718.4 312.8c0.8 0 1.6 0.6 1.6 1.5l0.1 2.2c0.2 4.8 0.3 8.3 0.7 15.6 0 0.8-0.6 1.6-1.5 1.6h-0.1c-0.8 0-1.5-0.6-1.5-1.4 -0.4-7.4-0.6-10.9-0.7-15.7l-0.1-2.2C716.9 313.6 717.6 312.9 718.4 312.8" class="b"/><path d="M718.4 306.3L718.4 306.3c-0.9 0-1.6-0.6-1.6-1.5 -0.1-3.1-0.2-3.7-0.3-3.7l1.5-0.4 1-1.2c0.6 0.5 0.7 0.5 0.9 5.2C719.9 305.6 719.2 306.3 718.4 306.3" class="b"/><path d="M671.2 342.5c0 14.1-11.6 25.5-25.8 25.5s-25.8-11.4-25.8-25.5c0-14.1 11.6-25.5 25.8-25.5S671.2 328.4 671.2 342.5" class="c"/><path d="M661.8 342.5c0 9-7.4 16.3-16.5 16.3 -9.1 0-16.5-7.3-16.5-16.3s7.4-16.3 16.5-16.3C654.5 326.2 661.8 333.5 661.8 342.5" class="c"/><path d="M854.5 342.5c0 14.1-11.6 25.5-25.8 25.5s-25.8-11.4-25.8-25.5c0-14.1 11.6-25.5 25.8-25.5S854.5 328.4 854.5 342.5" class="c"/><path d="M846.4 342.7c0-9.7-7.9-17.5-17.7-17.5 -9.8 0-17.7 7.8-17.7 17.5 0 9.7 7.9 17.5 17.7 17.5C838.4 360.2 846.4 352.4 846.4 342.7M839.8 351.3c-2 2.8-7.3 5.8-8.6 4.9 -0.8-0.5-0.7-7.1 0-8.2 0.5-0.7 1-1 1.9-1.1 0.8 0 1.9 0.2 3.6 0.8C841.1 349.4 841.2 349.5 839.8 351.3M838.8 333.7c0.5-0.1 0.8 0.4 1.4 1.2 2 2.8 3.3 8.7 2.1 9.6 -0.8 0.6-7.1-1.5-7.9-2.6 -1-1.4-0.7-2.5 1.4-5.2C837.5 334.7 838.2 333.8 838.8 333.7M824.6 329.5c1.2-0.4 2.9-0.6 4.4-0.5v0c2.6 0 5.1 0.6 5.4 1.5 0.3 0.9-3.6 6.2-4.9 6.6 -1.6 0.5-2.6-0.1-4.6-3C822.4 330.3 822.4 330.2 824.6 329.5M814.5 342.5c0-3.4 2.5-9 4-9 0.9 0 4.8 5.3 4.8 6.6 0 1.7-0.9 2.4-4.3 3.4C814.7 344.8 814.5 344.8 814.5 342.5M826.3 352c-0.1 4.6-0.2 4.7-2.4 4 -3.3-1.1-7.9-5.1-7.4-6.5 0.3-0.8 5.9-2.7 7.6-2.6 0.1 0 0.2 0 0.3 0C826 347.5 826.5 348.5 826.3 352M825.7 342.7c0-1.6 1.3-2.9 2.9-2.9 1.6 0 2.9 1.3 2.9 2.9 0 1.6-1.3 2.9-2.9 2.9C827 345.6 825.7 344.3 825.7 342.7" class="c"/><path d="M718.8 294.4l-5.4-17.9c7.5 0.3 15.2 1.1 22.1 2.7 15.8 3.7 27.1 11.3 33.2 15.3l0.6 0.4c0.6 0.4 1.4 1 2.3 1.5C754.8 295.7 736.7 295 718.8 294.4" class="f"/><path d="M715.6 294.3c-22.5-0.8-44.6-1.4-63.5-1.9 10.3-6 22.4-12.2 32.4-14.1 6.8-1.3 16.1-2 25.8-1.9L715.6 294.3z" class="f"/><path d="M663 342.7c0-9.7-7.9-17.5-17.7-17.5 -9.8 0-17.7 7.8-17.7 17.5 0 9.7 7.9 17.5 17.7 17.5C655.1 360.2 663 352.4 663 342.7" class="b"/><path d="M645.3 360.7c-10 0-18.2-8.1-18.2-18 0-9.9 8.2-18 18.2-18 10 0 18.2 8.1 18.2 18C663.5 352.6 655.4 360.7 645.3 360.7zM645.3 325.7c-9.5 0-17.2 7.6-17.2 17 0 9.4 7.7 17 17.2 17 9.5 0 17.2-7.6 17.2-17C662.5 333.3 654.8 325.7 645.3 325.7z" class="f"/><path d="M656.4 351.3c-2 2.8-7.3 5.8-8.6 4.9 -0.8-0.5-0.7-7.1 0-8.2 0.5-0.7 1-1 1.9-1.1 0.8 0 1.9 0.2 3.6 0.8C657.7 349.4 657.8 349.5 656.4 351.3" class="f"/><path d="M655.5 333.7c0.5-0.1 0.8 0.4 1.4 1.2 2 2.8 3.3 8.7 2.1 9.6 -0.8 0.6-7.1-1.5-7.9-2.6 -1-1.4-0.7-2.5 1.4-5.2C654.1 334.7 654.9 333.8 655.5 333.7" class="f"/><path d="M641.3 329.5c1.2-0.4 2.9-0.6 4.4-0.5v0c2.6 0 5.1 0.6 5.4 1.5 0.3 0.9-3.6 6.2-4.9 6.6 -1.6 0.5-2.6-0.1-4.6-3C639 330.3 639 330.2 641.3 329.5" class="f"/><path d="M631.2 342.5c0-3.4 2.5-9 4-9 0.9 0 4.8 5.3 4.8 6.6 0 1.7-0.9 2.4-4.3 3.4C631.3 344.8 631.2 344.8 631.2 342.5" class="f"/><path d="M643 352c-0.1 4.6-0.2 4.7-2.4 4 -3.3-1.1-7.9-5.1-7.4-6.5 0.3-0.8 5.9-2.7 7.6-2.6 0.1 0 0.2 0 0.3 0C642.7 347.5 643.1 348.5 643 352" class="f"/><path d="M642.4 342.7c0-1.6 1.3-2.9 2.9-2.9 1.6 0 2.9 1.3 2.9 2.9 0 1.6-1.3 2.9-2.9 2.9C643.7 345.6 642.4 344.3 642.4 342.7" class="f"/><polygon points="370.2 272.3 466.3 272.3 466.3 243.8 370.2 243.8 357.6 258.1 " class="f"/><path d="M880.5 341.6v-2.2h-27c0.1 0.8 0.2 1.7 0.2 2.5 0 1.3-0.2 2.5-0.4 3.7h23.2C878.7 345.6 880.5 343.8 880.5 341.6" class="d"/><path d="M844 342.7c0-9.7-7.9-17.5-17.7-17.5 -9.8 0-17.7 7.8-17.7 17.5 0 9.7 7.9 17.5 17.7 17.5C836.1 360.2 844 352.4 844 342.7" class="b"/><path d="M826.3 360.7c-10 0-18.2-8.1-18.2-18 0-9.9 8.2-18 18.2-18 10 0 18.2 8.1 18.2 18C844.5 352.6 836.4 360.7 826.3 360.7zM826.3 325.7c-9.5 0-17.2 7.6-17.2 17 0 9.4 7.7 17 17.2 17 9.5 0 17.2-7.6 17.2-17C843.5 333.3 835.8 325.7 826.3 325.7z" class="f"/><path d="M837.4 351.3c-2 2.8-7.3 5.8-8.6 4.9 -0.8-0.5-0.7-7.1 0-8.2 0.5-0.7 1-1 1.9-1.1 0.8 0 1.9 0.2 3.6 0.8C838.7 349.4 838.8 349.5 837.4 351.3" class="f"/><path d="M836.5 333.7c0.5-0.1 0.8 0.4 1.4 1.2 2 2.8 3.3 8.7 2.1 9.6 -0.8 0.6-7.1-1.5-7.9-2.6 -1-1.4-0.7-2.5 1.4-5.2C835.1 334.7 835.9 333.8 836.5 333.7" class="f"/><path d="M822.3 329.5c1.2-0.4 2.9-0.6 4.4-0.5v0c2.6 0 5.1 0.6 5.4 1.5 0.3 0.9-3.6 6.2-4.9 6.6 -1.6 0.5-2.6-0.1-4.6-3C820 330.3 820 330.2 822.3 329.5" class="f"/><path d="M812.2 342.5c0-3.4 2.5-9 4-9 0.9 0 4.8 5.3 4.8 6.6 0 1.7-0.9 2.4-4.3 3.4C812.3 344.8 812.2 344.8 812.2 342.5" class="f"/><path d="M824 352c-0.1 4.6-0.2 4.7-2.4 4 -3.3-1.1-7.9-5.1-7.4-6.5 0.3-0.8 5.9-2.7 7.6-2.6 0.1 0 0.2 0 0.3 0C823.7 347.5 824.1 348.5 824 352" class="f"/><path d="M823.4 342.7c0-1.6 1.3-2.9 2.9-2.9 1.6 0 2.9 1.3 2.9 2.9 0 1.6-1.3 2.9-2.9 2.9C824.7 345.6 823.4 344.3 823.4 342.7" class="f"/></svg>
