<svg xmlns="http://www.w3.org/2000/svg" viewBox="0 0 146 128" class="undefined"><style>.a{fill:#FFF;}.b{fill:#7B878E;}.c{fill:#3C474E;}.d{fill:none;}.e{fill:#F1BB46;}</style><path d="M118.4 80.1l3-3.3 -0.4-0.6c-0.1-0.1-1.4-2.3-4.1-2.8 -1.9-0.4-3.9 0.1-6 1.4 -0.6-0.5-1.5-1.1-2.8-1.4 -2.2-0.4-4.6 0.4-7.2 2.3 -0.5 0.4-1.4 1.1-2.5 1.9 -0.6-0.5-1.5-1.2-2.9-1.4 -2.2-0.4-4.7 0.5-7.3 2.5l-10.6 8c-3.3-2-7.7-4.6-11.7-7 -16.1-9.7-34.7-3.5-39.6-1.6v2.2c3-1.2 22.4-8.6 38.6 1.1 7.9 4.7 17.2 10.2 17.3 10.2l0.2 0.1 0.3 0c0.1 0 5.7-0.1 14.6 0.4 2.9 0.2 4 1.9 4.1 3.3 0.1 1.7-1.3 3.7-4.6 4.1 -3.6 0.4-6.7 0.9-9.4 1.3 -4.6 0.7-7.9 1.2-9.7 0.9 -15.8-3.1-23.3-4.2-23.4-4.2 -0.5-0.1-1.1 0.3-1.1 0.9 -0.1 0.5 0.3 1.1 0.9 1.1 0.1 0 7.5 1.1 23.3 4.2 0.5 0.1 1.1 0.2 1.8 0.2 2.1 0 4.8-0.4 8.6-1 2.7-0.4 5.7-0.9 9.3-1.3 4.5-0.5 6.4-3.6 6.3-6.2 -0.1-1.5-0.8-3-2.3-4.1 2.4-1.9 7.6-6 10.1-7.9 2.1-1.6 3.9-2.2 5.5-1.9 1 0.2 1.7 0.7 2.1 1.1l-14.5 18.6c-1 1.2-3 2.6-4.5 3l-23.2 6.3c-1.5 0.4-4 0.2-5.4-0.4L44.5 99.3c-1.9-0.8-4.8-0.9-6.7-0.3l-11.4 3.7v2.1l12.1-3.9c1.5-0.5 3.9-0.4 5.3 0.2l26.7 11.1c1.1 0.5 2.7 0.7 4.2 0.7 0.9 0 1.8-0.1 2.5-0.3l23.2-6.3c1.9-0.5 4.4-2.2 5.6-3.7l15.4-19.8 -0.4-0.6C121 82.2 120.1 80.9 118.4 80.1zM82.7 89.7c-0.6-0.4-1.7-1-3.1-1.8l9.9-7.5c2.2-1.6 4.1-2.4 5.8-2.1 0.7 0.1 1.3 0.4 1.6 0.6C92 82.6 84.7 88.1 82.7 89.7zM85.7 89.9c4.5-3.4 14-10.7 16.5-12.6 2.1-1.6 4-2.2 5.6-1.9 0.6 0.1 1.1 0.4 1.5 0.6 -4 3-16.4 12.5-18.5 14C88.7 89.9 87 89.9 85.7 89.9zM116.1 79.6c-1.9 0-3.9 0.7-6.1 2.4 -2.9 2.1-9.3 7.2-10.9 8.5 -0.5-0.1-1.1-0.2-1.7-0.3 -1.2-0.1-2.4-0.1-3.5-0.2 4.5-3.4 14.6-11.1 17.2-13 2-1.5 3.8-2.1 5.4-1.8 1.1 0.2 1.9 0.9 2.3 1.3L116.1 79.6z" class="a"/><polygon points="125 59 101.1 58.2 98.5 58.6 94.5 58.4 94.7 47.6 99.6 47.8 102.5 48.4 124.6 49.2 127.9 54.4 " class="a"/><path d="M124.8 48.8l3.5 5.5 -3.2 5.1 -24-0.8L98.5 59 94 58.7l0.3-11.5 5.3 0.2 2.9 0.6L124.8 48.8zM127.4 54.4l-3.1-4.8 -21.9-0.9 -2.9-0.6L95 48.1l-0.2 10.1 3.7 0.2 2.6-0.4 23.7 0.8L127.4 54.4z" class="a"/><path d="M95.1 39.2c0.7 1 1 2.2 1 3.3l-0.9 20c-0.1 3.2-2.7 5.6-6 5.5l-31.9-0.7c-1.5 0-2.9-0.7-4-1.7 -1-1.1-1.6-2.5-1.4-4l0.9-19.9c0.1-3.2 2.7-5.6 6-5.5l31.8 0.6c1.5 0 2.9 0.7 4 1.7C94.7 38.9 94.9 39 95.1 39.2zM54.1 64c0.1 0.2 0.2 0.3 0.4 0.5 0.8 0.8 1.8 1.3 2.9 1.3l31.9 0.7c2.3 0.1 4.3-1.8 4.4-4l0.9-19.9c0-1.1-0.3-2.2-1.1-2.9 -0.8-0.8-1.8-1.3-2.9-1.3l-31.9-0.7c-2.3-0.1-4.3 1.8-4.4 4l-0.8 19.8C53.4 62.5 53.6 63.3 54.1 64z" class="b"/><path d="M95.1 39.2c0.7 1 1 2.2 1 3.3l-0.9 20c-0.1 3.2-2.7 5.6-6 5.5l-31.9-0.7c-1.5 0-2.9-0.7-4-1.7 -1-1.1-1.6-2.5-1.4-4l0.9-19.9c0.1-3.2 2.8-5.6 6-5.5l31.8 0.6c1.5 0 2.9 0.7 4 1.7C94.7 38.9 94.9 39 95.1 39.2zM54.1 64c0.1 0.2 0.2 0.3 0.4 0.5 0.8 0.8 1.8 1.3 2.9 1.3l31.9 0.7c2.3 0.1 4.3-1.8 4.4-4l0.9-19.9c0-1.1-0.3-2.2-1.1-2.9 -0.8-0.8-1.8-1.3-2.9-1.3l-31.9-0.7c-2.3-0.1-4.3 1.8-4.4 4l-0.8 19.8C53.4 62.5 53.6 63.3 54.1 64z" class="a"/><path d="M90.6 37.7L58.8 37c-2.8-0.1-5.1 1.9-5.1 4.6l-0.9 19.9c-0.1 2.6 2 4.9 4.7 5l31.9 0.8c2.7 0.1 5-2.2 5.1-4.8l0.9-19.9C95.4 40 93.3 37.8 90.6 37.7zM63.5 46.7L63 57.1c0 0.8-0.2 2.5-1.3 2.6l-3.5-0.1c-0.2 0-0.4-0.1-0.7-0.3C57 58.7 57 57.4 57 56.8l0.4-10.4c0-0.8 0.2-2.5 1.3-2.6l3.5 0.1c0.2 0 0.4 0.1 0.7 0.3 0.1 0.1 0.1 0.1 0.1 0.2C63.5 45.1 63.5 46.2 63.5 46.7z" class="c"/><path d="M86.8 42.9c1.4 0 2.6 1.3 2.5 2.7 0 1.4-1.3 2.6-2.7 2.5 -1.4 0-2.6-1.3-2.5-2.7C84.1 44 85.3 42.8 86.8 42.9" class="d"/><path d="M89.2 43.9c0.4 0.5 0.5 1.2 0.5 1.8 0 1.7-1.4 3-3.1 2.9 -1.7 0-3-1.4-2.9-3.1 0.1-0.8 0.4-1.5 1-2.1s1.4-0.8 2.1-0.8l0 0c0.8 0.1 1.5 0.4 2.1 1C89.1 43.6 89.1 43.7 89.2 43.9zM84.8 46.8c0.4 0.6 1 1 1.9 1 1.3 0 2.3-0.9 2.3-2.2 0-0.6-0.2-1.2-0.6-1.6 -0.4-0.5-1-0.7-1.6-0.7s-1.2 0.2-1.6 0.6 -0.7 1-0.7 1.6C84.4 46 84.6 46.4 84.8 46.8z" class="b"/><polygon points="125 59 101.1 58.2 98.5 58.6 94.5 58.4 94.7 47.6 99.6 47.8 102.5 48.4 124.6 49.2 127.9 54.4 " class="d"/><rect x="113" y="40.1" transform="matrix(0.006552893 -1 1 0.006552893 58.5463 167.0498)" width="0.7" height="27.9" class="b"/><path d="M84.8 46.8c0.4 0.6 1 1 1.9 1 1.3 0 2.3-0.9 2.3-2.2 0-0.6-0.2-1.2-0.6-1.6 -0.4-0.5-1-0.7-1.6-0.7s-1.2 0.2-1.6 0.6 -0.7 1-0.7 1.6C84.4 46 84.6 46.4 84.8 46.8z" class="a"/><path d="M48.8 47.8l-10.7-7.6 -26.7-0.8 -0.7 21.4 26.7 0.8 11.2-6.9C50.6 53.2 50.9 49.8 48.8 47.8zM44.9 53.2c-1.1 0-2-1-1.9-2.1 0-1.1 1-2 2.1-1.9 1.1 0 2 1 1.9 2.1C47 52.4 46 53.3 44.9 53.2z" class="e"/><path d="M37.6 62.2l-27.4-0.9 0.7-22.4 27.4 0.9 10.9 7.7c1.1 1 1.7 2.4 1.6 3.9 -0.1 1.5-0.7 2.9-1.8 3.8L37.6 62.2zM11.2 60.4l26.1 0.8 11.1-6.8c0.8-0.7 1.4-1.8 1.4-3 0-1.2-0.4-2.3-1.3-3.1l-10.6-7.5 -26.1-0.8L11.2 60.4zM45 53.7C45 53.7 44.9 53.7 45 53.7c-0.8 0-1.4-0.3-1.8-0.8s-0.7-1.1-0.7-1.8c0-0.7 0.3-1.3 0.8-1.8 0.5-0.5 1.1-0.7 1.8-0.7 0.7 0 1.3 0.3 1.8 0.8 0.5 0.5 0.7 1.1 0.7 1.8C47.5 52.6 46.3 53.7 45 53.7zM45 49.7c-0.4 0-0.7 0.1-1 0.4 -0.3 0.3-0.5 0.7-0.5 1.1 0 0.4 0.1 0.8 0.4 1.1 0.3 0.3 0.6 0.5 1.1 0.5v0c0.9 0 1.5-0.6 1.6-1.5 0-0.4-0.1-0.8-0.4-1.1C45.8 49.9 45.4 49.7 45 49.7 45 49.7 45 49.7 45 49.7z" class="a"/><path d="M61.5 60.2C61.4 60.2 61.4 60.2 61.5 60.2l-3.7-0.1c-0.3 0-0.7-0.2-1-0.4 -0.5-0.6-0.7-1.5-0.7-2.8l0.4-10.6c0-0.2 0-1 0.3-1.7 0.4-1.2 1.1-1.3 1.6-1.3 0 0 0 0 0 0l3.6 0.1c0.4-0.1 0.7 0.2 1 0.4l0.1 0.1 0.1 0.2c0.5 0.8 0.5 2.1 0.4 2.6l-0.4 10.6c0 0.2 0 1-0.3 1.7C62.6 60 61.9 60.2 61.5 60.2zM57.8 59.1l3.7 0.1c0.1 0 0.4 0 0.6-0.7 0.2-0.5 0.2-1 0.2-1.4l0.5-10.7c0.1-0.4 0-1.4-0.3-1.9l-0.1-0.1c-0.2-0.1-0.2-0.2-0.3-0.2l-3.7-0.1c-0.1 0-0.4 0-0.6 0.7 -0.2 0.5-0.2 1-0.2 1.4l-0.4 10.7c0 1 0.1 1.8 0.4 2.1C57.6 59.1 57.7 59.1 57.8 59.1z" class="a"/></svg>