<?xml version="1.0" encoding="utf-8"?>
<svg version="1.1" id="Layer_1" xmlns="http://www.w3.org/2000/svg" xmlns:xlink="http://www.w3.org/1999/xlink" x="0" y="0" viewBox="0 0 84 84" style="enable-background:new 0 0 84 84;" xml:space="preserve">
  <style type="text/css">
    .st0{clip-path:url(#SVGID_2_);enable-background:new ;} .st1{clip-path:url(#SVGID_4_);} .st2{clip-path:url(#SVGID_6_);fill:#15A3B2;} .st3{clip-path:url(#SVGID_8_);fill:#FFFFFF;}
  </style>
  <g>
    <g>
      <defs>
        <circle id="SVGID_1_" cx="42" cy="42" r="36"/>
      </defs>
      <clipPath id="SVGID_2_">
        <use xlink:href="#SVGID_1_" style="overflow:visible;"/>
      </clipPath>
      <g class="st0">
        <g>
          <defs>
            <path id="SVGID_3_" d="M0.7 0.7H83.7V83.7H0.7z"/>
          </defs>
          <clipPath id="SVGID_4_">
            <use xlink:href="#SVGID_3_" style="overflow:visible;"/>
          </clipPath>
          <g class="st1">
            <defs>
              <path id="SVGID_5_" d="M5.7 5.7H78.7V78.7H5.7z"/>
            </defs>
            <clipPath id="SVGID_6_">
              <use xlink:href="#SVGID_5_" style="overflow:visible;"/>
            </clipPath>
            <path class="st2" d="M1 1H83V83H1z"/>
          </g>
        </g>
      </g>
    </g>
    <g>
      <defs>
        <path id="SVGID_7_" d="M44.7,44.6c-1.4,1.4-3,2-4.9,2c-1.9,0-3.6-0.7-4.9-2c-1.4-1.4-2.1-3-2.1-4.9c0-1.9,0.7-3.6,2.1-4.9 c1.4-1.4,3-2,4.9-2c1.9,0,3.6,0.7,4.9,2c1.4,1.4,2.1,3,2.1,4.9C46.7,41.6,46,43.2,44.7,44.6z M54.1,51.2l-5.4-5.3 c1.3-1.9,1.9-3.9,1.9-6.2c0-1.5-0.3-2.9-0.9-4.3c-0.6-1.4-1.4-2.5-2.3-3.5c-1-1-2.2-1.8-3.5-2.3c-1.4-0.6-2.8-0.9-4.3-0.9 c-1.5,0-2.9,0.3-4.3,0.9c-1.4,0.6-2.5,1.4-3.5,2.3c-1,1-1.8,2.2-2.3,3.5c-0.6,1.4-0.9,2.8-0.9,4.3c0,1.5,0.3,2.9,0.9,4.3 c0.6,1.4,1.4,2.5,2.3,3.5c1,1,2.2,1.8,3.5,2.3c1.4,0.6,2.8,0.9,4.3,0.9c2.3,0,4.4-0.6,6.2-1.9l5.4,5.3c0.4,0.4,0.8,0.6,1.4,0.6 c0.5,0,1-0.2,1.4-0.6c0.4-0.4,0.6-0.9,0.6-1.4C54.7,52.1,54.5,51.6,54.1,51.2z"/>
      </defs>
      <clipPath id="SVGID_8_">
        <use xlink:href="#SVGID_7_" style="overflow:visible;"/>
      </clipPath>
      <path class="st3" d="M23.7 23.7H59.7V59.599999999999994H23.7z"/>
    </g>
  </g>
</svg>
