<?xml version="1.0" encoding="utf-8"?>
<!-- Generator: Adobe Illustrator 20.1.0, SVG Export Plug-In . SVG Version: 6.00 Build 0)  -->
<svg version="1.1" id="Layer_1" xmlns="http://www.w3.org/2000/svg" xmlns:xlink="http://www.w3.org/1999/xlink" x="0px" y="0px"
	 viewBox="0 0 1400 410" style="enable-background:new 0 0 1444 407.3;" xml:space="preserve">
<g>
	<rect y="228.7" style="opacity:0.5;fill-rule:evenodd;clip-rule:evenodd;fill:#69D2DC;" width="1444" height="183.1"/>
	<linearGradient id="SVGID_1_" gradientUnits="userSpaceOnUse" x1="701.9968" y1="411.8561" x2="701.9968" y2="220.5974">
		<stop  offset="0" style="stop-color:#E1E3E4"/>
		<stop  offset="1" style="stop-color:#F5F5F5"/>
	</linearGradient>
	<polygon style="fill-rule:evenodd;clip-rule:evenodd;fill:url(#SVGID_1_);" points="1211.6,411.9 192.4,409.9 632.8,220.6
		771.1,222.2 	"/>
	<g>
		<rect y="228.7" style="fill:#7B878E;" width="1444" height="4"/>
	</g>
	<path style="fill-rule:evenodd;clip-rule:evenodd;fill:#7B878E;" d="M700.6,144.4l1.3,23.5h-7.4l1-23.5H700.6z M703.5,197.5
		l1.3,23.5h-12.7l1-23.5H703.5z M706.5,250.6l1.3,23.5h-18l1-23.5H706.5z M709.5,303.7l1.3,23.5h-23.3l1-23.5H709.5z M712.4,356.9
		l1.3,23.5h-28.5l1-23.5H712.4z"/>
	<g>

			<rect x="172" y="308.2" transform="matrix(0.922 -0.3871 0.3871 0.922 -87.003 188.5357)" style="fill:#7B878E;" width="505.1" height="4"/>
	</g>
	<g>
		<polygon style="fill:#7B878E;" points="1211.6,411.9 727.9,207.3 729.4,203.6 731.3,204.4 1213.1,408.2 		"/>
	</g>
	<g>
		<path style="fill-rule:evenodd;clip-rule:evenodd;fill:#69D2DC;" d="M1182.1,286.6c5.7-6.7,9.1-15.4,9.1-24.9
			c0-21.3-17.3-38.6-38.6-38.6c-6.3,0-12.3,1.5-17.6,4.2c-8.2-17.7-26-30-46.8-30s-38.6,12.3-46.8,30c-5.3-2.7-11.2-4.2-17.6-4.2
			c-21.3,0-38.6,17.3-38.6,38.6c0,9.5,3.4,18.2,9.1,24.9H1182.1z"/>
	</g>
	<path style="fill-rule:evenodd;clip-rule:evenodd;fill:#7B878E;" d="M995.9,291.2c-0.6,0-1.1-0.2-1.6-0.6
		c-8.5-7.7-13.4-18.6-13.4-30c0-22.3,18.3-40.5,40.8-40.5c7.1,0,14.1,1.8,20.2,5.3c1.1,0.6-0.8,1.3-1.4,2.4
		c-0.6,1.1,0.2,2.3-0.9,1.6c-5.4-3.1-11.6-4.7-17.9-4.7c-19.9,0-36.2,16.1-36.2,35.9c0,10.1,4.3,19.8,11.9,26.6c1,0.9,1,2.3,0.2,3.3
		C997.2,290.9,996.6,291.2,995.9,291.2"/>
	<path style="fill-rule:evenodd;clip-rule:evenodd;fill:#7B878E;" d="M1030.7,291.2c-1,0-1.9-0.6-2.2-1.6l-8.9-28.3
		c-0.4-1.2,0.3-2.5,1.5-2.9c1.2-0.4,2.5,0.3,2.9,1.5l8.9,28.3c0.4,1.2-0.3,2.5-1.5,2.9C1031.1,291.2,1030.9,291.2,1030.7,291.2"/>
	<path style="fill-rule:evenodd;clip-rule:evenodd;fill:#7B878E;" d="M1178.6,291.2c-0.6,0-1.3-0.3-1.7-0.8
		c-0.9-0.9-0.8-2.4,0.2-3.3c7.5-6.8,11.9-16.5,11.9-26.6c0-19.8-16.2-35.9-36.2-35.9c-6.3,0-12.5,1.6-17.9,4.7
		c-1.1,0.6-2.6,0.2-3.2-0.9c-0.6-1.1-0.2-2.5,0.9-3.2c6.1-3.5,13.1-5.3,20.2-5.3c22.5,0,40.8,18.2,40.8,40.5
		c0,11.4-4.9,22.3-13.4,30C1179.7,291,1179.2,291.2,1178.6,291.2"/>
	<path style="fill-rule:evenodd;clip-rule:evenodd;fill:#7B878E;" d="M1143.9,291.2c-0.2,0-0.5,0-0.7-0.1c-1.2-0.4-1.9-1.7-1.5-2.9
		l8.9-28.3c0.4-1.2,1.7-1.9,2.9-1.5c1.2,0.4,1.9,1.7,1.5,2.9l-8.9,28.3C1145.8,290.6,1144.9,291.2,1143.9,291.2"/>
	<path style="fill-rule:evenodd;clip-rule:evenodd;fill:#7B878E;" d="M1117.5,291.2c-0.7,0-1.4-0.3-1.9-0.9c-0.8-1-0.5-2.5,0.5-3.2
		c1.7-1.3,3.4-2.7,4.9-4.2c9.6-9.2,14.8-21.5,14.8-34.6c0-6.9-1.5-13.6-4.3-19.9c-7.9-17.3-25.3-28.4-44.3-28.4
		c-19.1,0-36.5,11.2-44.3,28.4c-2.9,6.2-4.3,12.9-4.3,19.9c0,13.2,5.2,25.5,14.8,34.6c1.5,1.5,3.2,2.9,5,4.2c1,0.8,1.3,2.2,0.5,3.2
		c-0.8,1-2.2,1.3-3.3,0.5c-2-1.4-3.8-3-5.5-4.6c-10.4-10-16.2-23.5-16.2-37.9c0-7.6,1.6-14.9,4.7-21.8c8.6-18.9,27.7-31.1,48.6-31.1
		c20.9,0,40,12.2,48.6,31.1c3.1,6.9,4.7,14.2,4.7,21.8c0,14.5-5.8,27.9-16.2,38c-1.7,1.7-3.5,3.2-5.4,4.6
		C1118.5,291,1118,291.2,1117.5,291.2"/>
	<path style="fill-rule:evenodd;clip-rule:evenodd;fill:#7B878E;" d="M1087.3,290.5c-1.3,0-2.3-1-2.3-2.3v-53.5c0-1.3,1-2.3,2.3-2.3
		c1.3,0,2.3,1,2.3,2.3v53.5C1089.6,289.4,1088.6,290.5,1087.3,290.5"/>
	<path style="fill-rule:evenodd;clip-rule:evenodd;fill:#7B878E;" d="M1087.3,286.8c-0.8,0-1.5-0.4-2-1.1l-20.9-32.3
		c-0.7-1.1-0.4-2.5,0.7-3.2c1.1-0.7,2.5-0.4,3.2,0.7l20.9,32.3c0.7,1.1,0.4,2.5-0.7,3.2C1088.1,286.7,1087.7,286.8,1087.3,286.8"/>
	<path style="fill-rule:evenodd;clip-rule:evenodd;fill:#7B878E;" d="M1087.3,286.8c-0.4,0-0.9-0.1-1.3-0.4
		c-1.1-0.7-1.4-2.1-0.7-3.2l20.9-32.3c0.7-1.1,2.1-1.4,3.2-0.7c1.1,0.7,1.4,2.1,0.7,3.2l-20.9,32.3
		C1088.8,286.4,1088,286.8,1087.3,286.8"/>
	<path style="fill-rule:evenodd;clip-rule:evenodd;fill:#7B878E;" d="M266.4,246.5l0.8,1c6.3,8.5,16.4,13.6,26.9,13.6
		c15.6,0,29.4-11.1,32.7-26.3l0.3-1.3l1.2-0.3c10.2-2.8,17.3-12.1,17.3-22.7c0-10-6.4-19-15.9-22.2l-2.1-0.7l0.8-2.1
		c1-2.5,1.5-5.1,1.5-7.7c0-11.4-9.3-20.7-20.7-20.7c-1.3,0-2.7,0.1-4,0.4l-1.7,0.3l-0.7-1.6c-2-4.9-6.8-8.1-12.1-8.1
		c-5.4,0-10.2,3.3-12.2,8.4l-0.5,1.4h-1.5h0c-8.9,0-16.5,6.3-18.2,14.9l-0.3,1.5l-1.5,0.2c-11.8,1.4-20.6,11.5-20.6,23.3
		c0,8.4,4.5,16.2,11.8,20.4l1.9,1.1l-1.2,1.9c-1.7,2.7-2.6,5.8-2.6,8.9c0,9.3,7.6,16.9,16.9,16.9c0.7,0,1.5-0.1,2.4-0.2L266.4,246.5
		z"/>
	<path style="fill-rule:evenodd;clip-rule:evenodd;fill:#73C8D1;" d="M266.4,246.5l0.8,1c6.3,8.5,16.4,13.6,26.9,13.6
		c15.6,0,29.4-11.1,32.7-26.3l0.3-1.3l1.2-0.3c10.2-2.8,17.3-12.1,17.3-22.7c0-10-6.4-19-15.9-22.2l-2.1-0.7l0.8-2.1
		c1-2.5,1.5-5.1,1.5-7.7c0-11.4-9.3-20.7-20.7-20.7c-1.3,0-2.7,0.1-4,0.4l-1.7,0.3l-0.7-1.6c-2-4.9-6.8-8.1-12.1-8.1
		c-5.4,0-10.2,3.3-12.2,8.4l-0.5,1.4h-1.5h0c-8.9,0-16.5,6.3-18.2,14.9l-0.3,1.5l-1.5,0.2c-11.8,1.4-20.6,11.5-20.6,23.3
		c0,8.4,4.5,16.2,11.8,20.4l1.9,1.1l-1.2,1.9c-1.7,2.7-2.6,5.8-2.6,8.9c0,9.3,7.6,16.9,16.9,16.9c0.7,0,1.5-0.1,2.4-0.2L266.4,246.5
		z"/>
	<path style="fill-rule:evenodd;clip-rule:evenodd;fill:#7B878E;" d="M294.1,265.4c-11.5,0-22.5-5.3-29.6-14.3
		c-0.6,0.1-1.2,0.1-1.7,0.1c-11.7,0-21.1-9.5-21.1-21.1c0-3.2,0.8-6.4,2.2-9.3c-7.6-5.1-12.2-13.8-12.2-23c0-13.5,9.7-25,22.9-27.3
		c2.5-9.4,10.9-16.2,20.7-16.8c2.9-5.9,9-9.8,15.6-9.8c6.5,0,12.3,3.6,15.3,9.2c1.1-0.1,2.1-0.2,3.2-0.2c13.8,0,24.9,11.2,24.9,24.9
		c0,2.5-0.4,4.9-1.1,7.3c10.1,4.4,16.8,14.4,16.8,25.5c0,12-7.8,22.7-19.2,26.4C326.5,253.5,311.3,265.4,294.1,265.4z M266.4,246.5
		l0.8,1c6.3,8.5,16.4,13.6,26.9,13.6c15.6,0,29.4-11.1,32.7-26.3l0.3-1.3l1.2-0.3c10.2-2.8,17.3-12.1,17.3-22.7
		c0-10-6.4-19-15.9-22.2l-2.1-0.7l0.8-2.1c1-2.5,1.5-5.1,1.5-7.7c0-11.4-9.3-20.7-20.7-20.7c-1.3,0-2.7,0.1-4,0.4l-1.7,0.3l-0.7-1.6
		c-2-4.9-6.8-8.1-12.1-8.1c-5.4,0-10.2,3.3-12.2,8.4l-0.5,1.4h-1.5h0c-8.9,0-16.5,6.3-18.2,14.9l-0.3,1.5l-1.5,0.2
		c-11.8,1.4-20.6,11.5-20.6,23.3c0,8.4,4.5,16.2,11.8,20.4l1.9,1.1l-1.2,1.9c-1.7,2.7-2.6,5.8-2.6,8.9c0,9.3,7.6,16.9,16.9,16.9
		c0.7,0,1.5-0.1,2.4-0.2L266.4,246.5z"/>
	<path style="fill-rule:evenodd;clip-rule:evenodd;fill:#7B878E;" d="M390.7,251.4c-13.1,0-25.6-6.1-33.7-16.3
		c-0.7,0.1-1.3,0.1-2,0.1c-13.3,0-24-10.8-24-24c0-3.7,0.9-7.3,2.5-10.6c-8.6-5.9-13.8-15.7-13.8-26.1c0-15.4,11.1-28.4,26-31.1
		c2.9-10.7,12.4-18.5,23.5-19.1c3.3-6.7,10.2-11.1,17.7-11.1c7.4,0,14,4.1,17.4,10.5c1.2-0.2,2.4-0.2,3.6-0.2
		c15.6,0,28.4,12.7,28.4,28.4c0,2.8-0.4,5.6-1.2,8.3c11.5,5,19.1,16.3,19.1,29c0,13.7-8.9,25.8-21.9,30
		C427.6,237.9,410.3,251.4,390.7,251.4"/>
	<path style="fill-rule:evenodd;clip-rule:evenodd;fill:#7B878E;" d="M359.2,229.9l0.9,1.2c7.2,9.7,18.6,15.5,30.6,15.5
		c17.8,0,33.4-12.6,37.2-29.9l0.3-1.4l1.4-0.4c11.6-3.2,19.7-13.8,19.7-25.8c0-11.4-7.3-21.6-18.1-25.3l-2.4-0.8l1-2.4
		c1.1-2.8,1.7-5.8,1.7-8.8c0-13-10.5-23.5-23.5-23.5c-1.5,0-3.1,0.2-4.6,0.5l-2,0.4l-0.8-1.9c-2.3-5.6-7.7-9.3-13.8-9.3
		c-6.2,0-11.6,3.7-13.9,9.5l-0.6,1.6h-1.7h0c-10.1,0-18.8,7.1-20.7,16.9l-0.3,1.7l-1.7,0.2c-13.4,1.6-23.4,13-23.4,26.5
		c0,9.5,5.2,18.4,13.4,23.2l2.2,1.3l-1.3,2.1c-1.9,3.1-2.9,6.6-2.9,10.2c0,10.6,8.6,19.2,19.2,19.2c0.8,0,1.7-0.1,2.7-0.2
		L359.2,229.9z"/>
	<path style="fill-rule:evenodd;clip-rule:evenodd;fill:#7B878E;" d="M390.7,251.4c-13.1,0-25.6-6.1-33.7-16.3
		c-0.7,0.1-1.3,0.1-2,0.1c-13.3,0-24-10.8-24-24c0-3.7,0.9-7.3,2.5-10.6c-8.6-5.9-13.8-15.7-13.8-26.1c0-15.4,11.1-28.4,26-31.1
		c2.9-10.7,12.4-18.5,23.5-19.1c3.3-6.7,10.2-11.1,17.7-11.1c7.4,0,14,4.1,17.4,10.5c1.2-0.2,2.4-0.2,3.6-0.2
		c15.6,0,28.4,12.7,28.4,28.4c0,2.8-0.4,5.6-1.2,8.3c11.5,5,19.1,16.3,19.1,29c0,13.7-8.9,25.8-21.9,30
		C427.6,237.9,410.3,251.4,390.7,251.4"/>
	<path style="fill-rule:evenodd;clip-rule:evenodd;fill:#7B878E;" d="M359.2,229.9l0.9,1.2c7.2,9.7,18.6,15.5,30.6,15.5
		c17.8,0,33.4-12.6,37.2-29.9l0.3-1.4l1.4-0.4c11.6-3.2,19.7-13.8,19.7-25.8c0-11.4-7.3-21.6-18.1-25.3l-2.4-0.8l1-2.4
		c1.1-2.8,1.7-5.8,1.7-8.8c0-13-10.5-23.5-23.5-23.5c-1.5,0-3.1,0.2-4.6,0.5l-2,0.4l-0.8-1.9c-2.3-5.6-7.7-9.3-13.8-9.3
		c-6.2,0-11.6,3.7-13.9,9.5l-0.6,1.6h-1.7h0c-10.1,0-18.8,7.1-20.7,16.9l-0.3,1.7l-1.7,0.2c-13.4,1.6-23.4,13-23.4,26.5
		c0,9.5,5.2,18.4,13.4,23.2l2.2,1.3l-1.3,2.1c-1.9,3.1-2.9,6.6-2.9,10.2c0,10.6,8.6,19.2,19.2,19.2c0.8,0,1.7-0.1,2.7-0.2
		L359.2,229.9z"/>
	<path style="fill-rule:evenodd;clip-rule:evenodd;fill:#7B878E;" d="M289.7,295.2c-1.3,0-2.4-1.1-2.4-2.4V190.9
		c0-1.3,1.1-2.4,2.4-2.4c1.3,0,2.4,1.1,2.4,2.4v101.9C292.1,294.1,291.1,295.2,289.7,295.2"/>
	<path style="fill-rule:evenodd;clip-rule:evenodd;fill:#7B878E;" d="M289.7,226c-13.9,0-25.1-11.3-25.1-25.1c0-1.3,1.1-2.4,2.4-2.4
		c1.3,0,2.4,1.1,2.4,2.4c0,11.2,9.1,20.3,20.3,20.3c1.3,0,2.4,1.1,2.4,2.4C292.1,224.9,291.1,226,289.7,226"/>
	<path style="fill-rule:evenodd;clip-rule:evenodd;fill:#7B878E;" d="M289.7,242.6c-1.3,0-2.4-1.1-2.4-2.4s1.1-2.4,2.4-2.4
		c11.2,0,20.3-9.1,20.3-20.3c0-1.3,1.1-2.4,2.4-2.4c1.3,0,2.4,1.1,2.4,2.4C314.8,231.3,303.6,242.6,289.7,242.6"/>
	<path style="fill-rule:evenodd;clip-rule:evenodd;fill:#7B878E;" d="M359.2,229.9l0.9,1.2c7.2,9.7,18.6,15.5,30.6,15.5
		c17.8,0,33.4-12.6,37.2-29.9l0.3-1.4l1.4-0.4c11.6-3.2,19.7-13.8,19.7-25.8c0-11.4-7.3-21.6-18.1-25.3l-2.4-0.8l1-2.4
		c1.1-2.8,1.7-5.8,1.7-8.8c0-13-10.5-23.5-23.5-23.5c-1.5,0-3.1,0.2-4.6,0.5l-2,0.4l-0.8-1.9c-2.3-5.6-7.7-9.3-13.8-9.3
		c-6.2,0-11.6,3.7-13.9,9.5l-0.6,1.6h-1.7h0c-10.1,0-18.8,7.1-20.7,16.9l-0.3,1.7l-1.7,0.2c-13.4,1.6-23.4,13-23.4,26.5
		c0,9.5,5.2,18.4,13.4,23.2l2.2,1.3l-1.3,2.1c-1.9,3.1-2.9,6.6-2.9,10.2c0,10.6,8.6,19.2,19.2,19.2c0.8,0,1.7-0.1,2.7-0.2
		L359.2,229.9z"/>
	<path style="fill-rule:evenodd;clip-rule:evenodd;fill:#F1BB46;" d="M390.7,251.4c-13.1,0-25.6-6.1-33.7-16.3
		c-0.7,0.1-1.3,0.1-2,0.1c-13.3,0-24-10.8-24-24c0-3.7,0.9-7.3,2.5-10.6c-8.6-5.9-13.8-15.7-13.8-26.1c0-15.4,11.1-28.4,26-31.1
		c2.9-10.7,12.4-18.5,23.5-19.1c3.3-6.7,10.2-11.1,17.7-11.1c7.4,0,14,4.1,17.4,10.5c1.2-0.2,2.4-0.2,3.6-0.2
		c15.6,0,28.4,12.7,28.4,28.4c0,2.8-0.4,5.6-1.2,8.3c11.5,5,19.1,16.3,19.1,29c0,13.7-8.9,25.8-21.9,30
		C427.6,237.9,410.3,251.4,390.7,251.4"/>
	<path style="fill-rule:evenodd;clip-rule:evenodd;fill:#7B878E;" d="M289.7,295.2c-1.3,0-2.4-1.1-2.4-2.4V190.9
		c0-1.3,1.1-2.4,2.4-2.4c1.3,0,2.4,1.1,2.4,2.4v101.9C292.1,294.1,291.1,295.2,289.7,295.2"/>
	<path style="fill-rule:evenodd;clip-rule:evenodd;fill:#7B878E;" d="M289.7,226c-13.9,0-25.1-11.3-25.1-25.1c0-1.3,1.1-2.4,2.4-2.4
		c1.3,0,2.4,1.1,2.4,2.4c0,11.2,9.1,20.3,20.3,20.3c1.3,0,2.4,1.1,2.4,2.4C292.1,224.9,291.1,226,289.7,226"/>
	<path style="fill-rule:evenodd;clip-rule:evenodd;fill:#7B878E;" d="M289.7,242.6c-1.3,0-2.4-1.1-2.4-2.4s1.1-2.4,2.4-2.4
		c11.2,0,20.3-9.1,20.3-20.3c0-1.3,1.1-2.4,2.4-2.4c1.3,0,2.4,1.1,2.4,2.4C314.8,231.3,303.6,242.6,289.7,242.6"/>
	<path style="fill-rule:evenodd;clip-rule:evenodd;fill:#7B878E;" d="M390.7,251.4c-13.1,0-25.6-6.1-33.7-16.3
		c-0.7,0.1-1.3,0.1-2,0.1c-13.3,0-24-10.8-24-24c0-3.7,0.9-7.3,2.5-10.6c-8.6-5.9-13.8-15.7-13.8-26.1c0-15.4,11.1-28.4,26-31.1
		c2.9-10.7,12.4-18.5,23.5-19.1c3.3-6.7,10.2-11.1,17.7-11.1c7.4,0,14,4.1,17.4,10.5c1.2-0.2,2.4-0.2,3.6-0.2
		c15.6,0,28.4,12.7,28.4,28.4c0,2.8-0.4,5.6-1.2,8.3c11.5,5,19.1,16.3,19.1,29c0,13.7-8.9,25.8-21.9,30
		C427.6,237.9,410.3,251.4,390.7,251.4z M359.2,229.9l0.9,1.2c7.2,9.7,18.6,15.5,30.6,15.5c17.8,0,33.4-12.6,37.2-29.9l0.3-1.4
		l1.4-0.4c11.6-3.2,19.7-13.8,19.7-25.8c0-11.4-7.3-21.6-18.1-25.3l-2.4-0.8l1-2.4c1.1-2.8,1.7-5.8,1.7-8.8
		c0-13-10.5-23.5-23.5-23.5c-1.5,0-3.1,0.2-4.6,0.5l-2,0.4l-0.8-1.9c-2.3-5.6-7.7-9.3-13.8-9.3c-6.2,0-11.6,3.7-13.9,9.5l-0.6,1.6
		h-1.7h0c-10.1,0-18.8,7.1-20.7,16.9l-0.3,1.7l-1.7,0.2c-13.4,1.6-23.4,13-23.4,26.5c0,9.5,5.2,18.4,13.4,23.2l2.2,1.3l-1.3,2.1
		c-1.9,3.1-2.9,6.6-2.9,10.2c0,10.6,8.6,19.2,19.2,19.2c0.8,0,1.7-0.1,2.7-0.2L359.2,229.9z"/>
	<path style="fill-rule:evenodd;clip-rule:evenodd;fill:#7B878E;" d="M387,295.2c-1.3,0-2.4-1.1-2.4-2.4v-154c0-1.3,1.1-2.4,2.4-2.4
		c1.3,0,2.4,1.1,2.4,2.4v154C389.4,294.1,388.3,295.2,387,295.2"/>
	<path style="fill-rule:evenodd;clip-rule:evenodd;fill:#7B878E;" d="M387,172c-12.1,0-21.9-9.8-21.9-21.9c0-1.3,1.1-2.4,2.4-2.4
		c1.3,0,2.4,1.1,2.4,2.4c0,9.4,7.6,17,17,17c1.3,0,2.4,1.1,2.4,2.4C389.4,170.9,388.3,172,387,172"/>
	<path style="fill-rule:evenodd;clip-rule:evenodd;fill:#7B878E;" d="M387,188.2c-1.3,0-2.4-1.1-2.4-2.4c0-1.3,1.1-2.4,2.4-2.4
		c9.4,0,17-7.6,17-17c0-1.3,1.1-2.4,2.4-2.4c1.3,0,2.4,1.1,2.4,2.4C408.8,178.4,399,188.2,387,188.2"/>
	<path style="fill-rule:evenodd;clip-rule:evenodd;fill:#7B878E;" d="M387,210.9c-22.8,0-41.3-18.5-41.3-41.3c0-1.3,1.1-2.4,2.4-2.4
		c1.3,0,2.4,1.1,2.4,2.4c0,20.1,16.4,36.5,36.5,36.5c1.3,0,2.4,1.1,2.4,2.4C389.4,209.8,388.3,210.9,387,210.9"/>
	<path style="fill-rule:evenodd;clip-rule:evenodd;fill:#7B878E;" d="M387,227.1c-1.3,0-2.4-1.1-2.4-2.4c0-1.3,1.1-2.4,2.4-2.4
		c20.1,0,36.5-16.4,36.5-36.5c0-1.3,1.1-2.4,2.4-2.4c1.3,0,2.4,1.1,2.4,2.4C428.3,208.6,409.8,227.1,387,227.1"/>
	<path style="fill-rule:evenodd;clip-rule:evenodd;fill:#7B878E;" d="M1192.1,294.4h-212c-1.3,0-2.3-1.8-2.3-3.9
		c0-2.2,1-3.9,2.3-3.9h212c1.3,0,2.3,1.8,2.3,3.9C1194.4,292.6,1193.4,294.4,1192.1,294.4"/>
	<path style="fill:#69D2DC;" d="M814.6,183.1l-12.5,5.5l-4.7-5.5l-3.5,3l3.7,4.5l0,0l2,2.2v0.2l0,0l7,8c3.2,4,4.7,9.2,4.7,16v70.5
		c0,1.5-1.7,2-3.5,2h-31.7c-1.5,0-3-1-3-2.5l-0.2-12.7c5-0.2,10-0.5,15.2-1c4.2-0.2,8.5-0.5,12.7-0.7l-0.2-4.7
		c-4.2,0.2-8.2,0.5-12.5,1c-5,0.2-9.5,0.7-14.5,1l0,0l-2.7,0.2c-47.1,2.7-90.2,2.7-137.3,0l-1.7-0.2l0,0c-5-0.2-10.7-0.7-15.7-1
		c-4.2-0.2-9-0.5-13.2-0.7l-0.5,4.7c4.2,0.2,8.5,0.5,12.7,0.7c5,0.2,10,0.7,15,1L630,287c0,1.5-1.2,2.5-3,2.5h-31.7
		c-1.5,0-1-0.5-1-2V217c0-6.5,0.5-12,3.5-15.7l8.2-10.2h-0.2l3.7-4.5l-3.7-3l-4.7,5.5l-12.7-5.5l0,0l1-7c0.5-1.7,2.5-3.7,4.2-3.7
		h13.7c0.2,0,0.2,0.5,0.2,0.5l3.7,5.2l4,0.2l21.7-31.7c1.7-2.2,4-3.2,6.7-3.7c40.9-2.5,74.3-2.5,114.9,0c2.7,0.2,5,1.5,6.7,3.5
		l21.9,31.9h4l3.7-5.5c0,0,0-0.5,0.2-0.5h13.7c1.7,0,3.7,2,4.2,3.5l1.2,7C814.6,182.8,814.6,183.1,814.6,183.1z"/>
	<g>
		<path style="fill:#FFFFFF;" d="M641.5,140.6c0,0,104.6-1.6,119.6,2.6c17.7,4.7,26.2,34.6,28.2,41.6s-181.2,13.7-174.5-7.2
			c3.2-10,22.4-34.4,30.2-36.4"/>
		<path style="fill:#7B878E;" d="M702.4,193.7c-38.5,0-77.1-2.6-86.8-9.8c-3.5-2.6-3.2-5.4-2.8-6.9c3.2-9.9,22.7-35.4,31.6-37.7
			l0.2-0.1l0.2,0c4.1-0.1,103.1-5.7,116.7,2.1c13.1,7.5,24.6,25.6,29.5,42.9c0.1,0.5,0.4,1.9-1.2,3
			C784.9,190.7,743.7,193.7,702.4,193.7z M644.9,141.2c-7,2.2-25.2,27.7-28.3,37c-0.1,0.4-0.4,1.2,1.4,2.5
			c8.2,5.9,41.5,9.2,89.2,8.9c42.3-0.3,74-3.3,79.7-5.4c-8.4-28.7-18.5-39-25.9-41C746.9,139.2,650.6,141.1,644.9,141.2z"/>
	</g>
	<path style="fill:none;" d="M610.3,214.5c10.2,2,20.2,3.7,30.2,4.7c1.7,0.2,3.2,2,2.7,3.5l-1.2,3.2c-0.5,1.5-1.7,2.5-3.2,2.5
		c-9.7-0.2-19.4-1-29.4-2.2c-1.7-0.2-3-1.7-2.7-3.5l0.7-6C607,215.5,608.5,214.2,610.3,214.5"/>
	<path style="fill:#7B878E;" d="M638.4,230.9L638.4,230.9c-9.2-0.2-18.9-0.7-29.9-2.2c-1.5-0.2-2.7-1-3.5-2c-1-1.2-1.2-2.7-1.2-4
		l0.7-6c0.2-1.5,1-2.7,2.2-3.7c1.2-0.7,2.5-1,4-0.7c12,2.5,21.2,3.7,29.9,4.7c1.7,0.2,3.2,1.2,4.2,2.7c0.7,1.2,1,2.7,0.5,4l-1.2,3.2
		C642.9,229.4,640.9,230.9,638.4,230.9z M609.8,216.7C609.8,216.7,609.5,216.7,609.8,216.7c-0.2,0.2-0.5,0.2-0.5,0.5l-0.7,6
		c0,0.2,0,0.5,0.2,0.5c0.2,0.2,0.2,0.2,0.5,0.2c10.7,1.2,20.4,2,29.2,2c0.2,0,0.7,0,1-1l1.2-3.2c0-0.2-0.5-0.5-0.7-0.5
		C631.2,220.7,622,219.2,609.8,216.7L609.8,216.7L609.8,216.7z"/>
	<path style="fill:none;" d="M793.2,214.5c-10.2,2-20.2,3.7-30.2,4.7c-1.7,0.2-3.2,2-2.7,3.5l1.2,3.2c0.5,1.5,1.7,2.5,3.2,2.5
		c9.7-0.2,19.4-1,29.4-2.2c1.7-0.2,3-1.7,2.7-3.5l-0.7-6C796.5,215.5,795,214.2,793.2,214.5"/>
	<path style="fill:#7B878E;" d="M765,230.9c-2.5,0-4.5-1.5-5.5-4l-1.2-3.2c-0.5-1.2-0.2-2.7,0.5-4c1-1.5,2.5-2.5,4.2-2.7
		c8.7-0.7,17.9-2.2,29.9-4.7c1.5-0.2,2.7,0,4,0.7s2,2.2,2.2,3.7l0.7,6c0.2,1.5-0.2,3-1.2,4c-1,1.2-2.2,2-3.5,2
		C783.7,229.9,774,230.7,765,230.9L765,230.9z M762.8,222l1.2,3.2c0.5,1,1,1,1,1c8.7,0,18.4-0.7,29.2-2c0.2,0,0.2-0.2,0.5-0.2
		c0.2-0.2,0.2-0.5,0.2-0.5l-0.7-6c0-0.2,0-0.2-0.2-0.5h-0.2l0,0c-12.2,2.5-21.4,4-30.4,4.7C763.1,221.5,762.8,221.7,762.8,222z"/>
	<path style="fill:none;" d="M809.2,172.4h-13.7l-0.2,0.5l-3.7,5.2l-4,0.2l-21.9-31.7c-1.7-2-4-3.2-6.7-3.5
		c-40.6-2.5-74-2.5-114.9,0c-2.7,0.2-5,1.5-6.7,3.7l-21.7,31.7h-4l-3.7-5.5c0,0,0-0.5-0.2-0.5h-13.7c-1.7,0-3.7,2-4.2,3.7l-1,6.7
		v0.2l12.5,5.7l4.7-5.5l3.5,3l-3.7,4.5l0,0l-7.7,10.2c-3.2,3.7-3.5,9.2-3.5,15.7v70.5c0,1.5-0.7,2,1,2H627c1.5,0,3-1,3-2.5l0.2-12.7
		c-5-0.2-10-0.5-15.2-1c-4.2-0.2-8.5-0.5-12.7-0.7l0.2-4.7c4.2,0.2,9.5,0.5,13.7,1c5,0.2,10.7,0.7,15.7,1l0,0l1.5,0.2
		c47.1,2.7,91,2.7,138.1,0l2.5-0.2l0,0c5-0.2,9.5-0.7,14.5-1c4.2-0.2,8.2-0.5,12.7-0.7l0.2,4.7c-4.2,0.2-8.5,0.5-12.7,0.7
		c-5,0.2-10.2,0.7-15.2,1l0.2,12.5c0,1.5,1.2,2.5,3,2.5h31.7c1.5,0,3.5-0.5,3.5-2V217c0-6.7-1.7-11.2-4.7-15l-7-7l0,0v-1l-2-2.7
		v-0.2l-3.7-4.5l3.5-3l4.7,5.5l12.5-5.5l0,0l-1.2-7.2C813.1,174.4,810.9,172.4,809.2,172.4z"/>
	<path style="fill:#7B878E;" d="M819.4,182.8l-1.2-8.2c-1-3.7-5-7.5-8.7-7.5h-13.7c-2,0-3.2,1.7-4,2.5l-2,3l-20.2-29.2
		c-2.5-3-5.7-4.7-10-5.2c-41.1-2.5-74.5-2.5-115.6,0c-4,0.5-7.2,2.2-10,5.5L614,172.9l-2-3.2c-0.7-0.7-1.7-2.7-4-2.7h-13.7
		c-4,0-7.7,3.7-8.7,7.7l-1.2,7.2c-0.5,2,0.5,4,2.7,5l11.2,5l-4,5.5c-4,4.7-4.7,11.2-4.7,18.9v70.5c0,4.2,1.7,7,6,7h31.7
		c4.2,0,7.7-3.2,7.7-7.2l0.2-12.5c45.6,2.5,88.2,2.5,133.6,0l0.2,12.5c0,4.2,3.5,7.2,7.7,7.2h31.7c4.2,0,8.5-3,8.5-7v-70.5
		c0-7.7-2.2-14-6-18.9l-5-5.5l11.2-5C819.1,186.3,819.9,184.8,819.4,182.8z M814.6,183.1l-12.5,5.5l-4.7-5.5l-3.5,3l3.7,4.5l0,0
		l2,2.2v0.2l0,0l7,8c3.2,4,4.7,9.2,4.7,16v70.5c0,1.5-1.7,2-3.5,2h-31.7c-1.5,0-3-1-3-2.5l-0.2-12.7c5-0.2,10-0.5,15.2-1
		c4.2-0.2,8.5-0.5,12.7-0.7l-0.2-4.7c-4.2,0.2-8.2,0.5-12.5,1c-5,0.2-9.5,0.7-14.5,1l0,0l-2.7,0.2c-47.1,2.7-90.2,2.7-137.3,0
		l-1.7-0.2l0,0c-5-0.2-10.7-0.7-15.7-1c-4.2-0.2-9-0.5-13.2-0.7l-0.5,4.7c4.2,0.2,8.5,0.5,12.7,0.7c5,0.2,10,0.7,15,1L630,287
		c0,1.5-1.2,2.5-3,2.5h-31.7c-1.5,0-1-0.5-1-2V217c0-6.5,0.5-12,3.5-15.7l8.2-10.2h-0.2l3.7-4.5l-3.7-3l-4.7,5.5l-12.7-5.5l0,0l1-7
		c0.5-1.7,2.5-3.7,4.2-3.7h13.7c0.2,0,0.2,0.5,0.2,0.5l3.7,5.2l4,0.2l21.7-31.7c1.7-2.2,4-3.2,6.7-3.7c40.9-2.5,74.3-2.5,114.9,0
		c2.7,0.2,5,1.5,6.7,3.5l21.9,31.9h4l3.7-5.5c0,0,0-0.5,0.2-0.5h13.7c1.7,0,3.7,2,4.2,3.5l1.2,7
		C814.6,182.8,814.6,183.1,814.6,183.1z"/>
	<path style="fill:none;" d="M658.9,222.2c28.7,1.7,57.1,1.5,85.7,0c2.5-0.2,4.7,2,4.5,4.5l-1.2,14c-0.2,2.5-2,4.5-4.5,4.5
		c-28.2,1.2-55.8,1.2-83.5,0c-2.5,0-4.2-2-4.5-4.5l-1.2-14C654.1,224.2,656.4,222,658.9,222.2"/>
	<path style="fill:#7B878E;" d="M702,248.6c-14,0-27.9-0.2-42.1-1c-3.7-0.2-6.5-3-6.7-6.7l-1.2-14c-0.2-1.7,0.5-3.7,1.7-5
		c1.5-1.5,3.2-2.2,5.2-2l0,0c27.9,1.5,56.6,1.5,85.5,0c2,0,3.7,0.7,5.2,2c1.2,1.2,2,3.2,1.7,5l-1.2,14c-0.2,3.7-3.2,6.5-6.7,6.7
		C729.9,248.1,715.9,248.6,702,248.6z M658.6,224.5c-0.5,0-1,0.2-1.5,0.7c-0.5,0.5-0.5,1-0.5,1.5l1.2,14c0,1.5,1,2.2,2.2,2.5
		c27.9,1.2,56.1,1.2,83.2,0c1.2,0,2.2-1,2.2-2.5l1.2-14c0-0.5-0.2-1-0.5-1.5c-0.5-0.5-1-0.7-1.5-0.7
		C715.7,226.2,686.8,226.2,658.6,224.5L658.6,224.5C658.9,224.5,658.6,224.5,658.6,224.5z"/>
	<path style="fill:#7B878E;" d="M719.5,145.2c0,2.5-2.2,4.5-5,4.5h-23.4c-2.7,0-5-2-5-4.5c0-2.5,2.2-4.5,5-4.5h23.4
		C717.3,140.5,719.5,142.7,719.5,145.2"/>
	<path style="fill:#F1BB46;" d="M762.8,222l1.2,3.2c0.5,1,1,1,1,1c8.7,0,18.4-0.7,29.2-2c0.2,0,0.2-0.2,0.5-0.2
		c0.2-0.2,0.2-0.5,0.2-0.5l-0.7-6c0-0.2,0-0.2-0.2-0.5h-0.2l0,0c-12.2,2.5-21.4,4-30.4,4.7C763.1,221.5,762.8,221.7,762.8,222z"/>
	<path style="fill:#F1BB46;" d="M609.8,216.7C609.8,216.7,609.5,216.7,609.8,216.7c-0.2,0.2-0.5,0.2-0.5,0.5l-0.7,6
		c0,0.2,0,0.5,0.2,0.5c0.2,0.2,0.2,0.2,0.5,0.2c10.7,1.2,20.4,2,29.2,2c0.2,0,0.7,0,1-1l1.2-3.2c0-0.2-0.5-0.5-0.7-0.5
		C631.2,220.7,622,219.2,609.8,216.7L609.8,216.7L609.8,216.7z"/>
	<path style="fill:#7B878E;" d="M749.6,222c-1.5-1.2-3.2-2-5.2-2c-28.9,1.5-57.6,1.5-85.5,0c-2-0.2-3.7,0.5-5.2,2
		c-1.2,1.2-2,3.2-1.7,5l1.2,14c0.2,3.7,3,6.5,6.7,6.7c14.2,0.7,28.2,1,42.1,1c14,0,27.9-0.5,41.4-1c3.5-0.2,6.5-3,6.7-6.7l1.2-14
		C751.6,225.2,750.8,223.2,749.6,222z M745.6,240.7c0,1.5-1,2.5-2.2,2.5c-27.2,1.2-55.3,1.2-83.2,0c-1.2-0.2-2.2-1-2.2-2.5l-1.2-14
		c0-0.5,0-1,0.5-1.5c0.5-0.5,1-0.7,1.5-0.7c28.2,1.7,57.1,1.7,86.2,0c0.5,0,1,0.2,1.5,0.7c0.2,0.5,0.5,1,0.5,1.5L745.6,240.7z"/>
	<path style="fill:#15A3B2;" d="M745.6,240.7c0,1.5-1,2.5-2.2,2.5c-27.2,1.2-55.3,1.2-83.2,0c-1.2-0.2-2.2-1-2.2-2.5l-1.2-14
		c0-0.5,0-1,0.5-1.5c0.5-0.5,1-0.7,1.5-0.7c28.2,1.7,57.1,1.7,86.2,0c0.5,0,1,0.2,1.5,0.7c0.2,0.5,0.5,1,0.5,1.5L745.6,240.7z"/>
</g>
</svg>
