<?xml version="1.0" encoding="UTF-8" standalone="no"?>
<svg class="undefined" xmlns="http://www.w3.org/2000/svg" viewBox="0 0 1400 410">
<style>.a{fill:#69D2DC;opacity:0.5;}.b{stop-color:#E1E3E4;}.c{stop-color:#F5F5F5;}.d{fill:url(#SVGID_1_);}.e{fill:#7B878E;}.f{fill:#69D2DC;}.g{fill:#73C8D1;}.h{fill:#F1BB46;}.i{fill:#FFF;}.j{fill:none;}.k{fill:#15A3B2;}</style>
<rect y="229" width="1.44e3" class="a" height="183"/>
<linearGradient id="SVGID_1_" y2="221" class="undefined" gradientUnits="userSpaceOnUse" x2="702" y1="412" x1="702">
<stop class="b" offset="0"/>
<stop class="c" offset="1"/>
</linearGradient>
<polygon points="1.21e3 412 192 410 633 221 771 222" class="d"/>
<rect y="229" width="1.44e3" class="e" height="4"/>
<path d="m701 144l1.3 23.5h-7.4l1-23.5h5zm3 54l1.3 23.5h-12.7l1-23.5h11zm2 53l1.3 23.5h-18l1-23.5h16zm4 53l1.3 23.5h-23.3l1-23.5h21zm2 53l1.3 23.5h-28.5l1-23.5h27z" class="e"/>
<rect transform="matrix(.922 -.387 .387 .922 -87 189)" height="4" width="505" y="308" x="172" class="e"/>
<polygon points="1.21e3 412 728 207 729 204 731 204 1.21e3 408" class="e"/>
<path d="m1.18e3 287c5.7-6.7 9.1-15.4 9.1-24.9 0-21.3-17.3-38.6-38.6-38.6-6.3 0-12.3 1.5-17.6 4.2-8.2-17.7-26-30-46.8-30s-38.6 12.3-46.8 30c-5.3-2.7-11.2-4.2-17.6-4.2-21.3 0-38.6 17.3-38.6 38.6 0 9.5 3.4 18.2 9.1 24.9h187z" class="f"/>
<path d="m996 291c-0.6 0-1.1-0.2-1.6-0.6-8.5-7.7-13.4-18.6-13.4-30 0-22.3 18.3-40.5 40.8-40.5 7.1 0 14.1 1.8 20.2 5.3 1.1 0.6-0.8 1.3-1.4 2.4s0.2 2.3-0.9 1.6c-5.4-3.1-11.6-4.7-17.9-4.7-19.9 0-36.2 16.1-36.2 35.9 0 10.1 4.3 19.8 11.9 26.6 1 0.9 1 2.3 0.2 3.3-1 1-1 1-2 1" class="e"/>
<path d="m1.03e3 291c-1 0-1.9-0.6-2.2-1.6l-8.9-28.3c-0.4-1.2 0.3-2.5 1.5-2.9s2.5 0.3 2.9 1.5l8.9 28.3c0.4 1.2-0.3 2.5-1.5 2.9" class="e"/>
<path d="m1.18e3 291c-0.6 0-1.3-0.3-1.7-0.8-0.9-0.9-0.8-2.4 0.2-3.3 7.5-6.8 11.9-16.5 11.9-26.6 0-19.8-16.2-35.9-36.2-35.9-6.3 0-12.5 1.6-17.9 4.7-1.1 0.6-2.6 0.2-3.2-0.9s-0.2-2.5 0.9-3.2c6.1-3.5 13.1-5.3 20.2-5.3 22.5 0 40.8 18.2 40.8 40.5 0 11.4-4.9 22.3-13.4 30v1" class="e"/>
<path d="m1.14e3 291c-0.2 0-0.5 0-0.7-0.1-1.2-0.4-1.9-1.7-1.5-2.9l8.9-28.3c0.4-1.2 1.7-1.9 2.9-1.5s1.9 1.7 1.5 2.9l-8.9 28.3c10 2 0 2 0 2" class="e"/>
<path d="m1.12e3 291c-0.7 0-1.4-0.3-1.9-0.9-0.8-1-0.5-2.5 0.5-3.2 1.7-1.3 3.4-2.7 4.9-4.2 9.6-9.2 14.8-21.5 14.8-34.6 0-6.9-1.5-13.6-4.3-19.9-7.9-17.3-25.3-28.4-44.3-28.4-19.1 0-36.5 11.2-44.3 28.4-2.9 6.2-4.3 12.9-4.3 19.9 0 13.2 5.2 25.5 14.8 34.6 1.5 1.5 3.2 2.9 5 4.2 1 0.8 1.3 2.2 0.5 3.2s-2.2 1.3-3.3 0.5c-2-1.4-3.8-3-5.5-4.6-10.4-10-16.2-23.5-16.2-37.9 0-7.6 1.6-14.9 4.7-21.8 8.6-18.9 27.7-31.1 48.6-31.1s40 12.2 48.6 31.1c3.1 6.9 4.7 14.2 4.7 21.8 0 14.5-5.8 27.9-16.2 38-1.7 1.7-3.5 3.2-5.4 4.6" class="e"/>
<path d="m1.09e3 290c-1.3 0-2.3-1-2.3-2.3v-53.5c0-1.3 1-2.3 2.3-2.3s2.3 1 2.3 2.3v53.5 2" class="e"/>
<path d="m1.09e3 287c-0.8 0-1.5-0.4-2-1.1l-20.9-32.3c-0.7-1.1-0.4-2.5 0.7-3.2s2.5-0.4 3.2 0.7l20.9 32.3c0.7 1.1 0.4 2.5-0.7 3.2" class="e"/>
<path d="m1.09e3 287c-0.4 0-0.9-0.1-1.3-0.4-1.1-0.7-1.4-2.1-0.7-3.2l20.9-32.3c0.7-1.1 2.1-1.4 3.2-0.7s1.4 2.1 0.7 3.2l-20.9 32.3v1" class="e"/>
<path d="m266 246l0.8 1c6.3 8.5 16.4 13.6 26.9 13.6 15.6 0 29.4-11.1 32.7-26.3l0.3-1.3 1.2-0.3c10.2-2.8 17.3-12.1 17.3-22.7 0-10-6.4-19-15.9-22.2l-2.1-0.7 0.8-2.1c1-2.5 1.5-5.1 1.5-7.7 0-11.4-9.3-20.7-20.7-20.7-1.3 0-2.7 0.1-4 0.4l-1.7 0.3-0.7-1.6c-2-4.9-6.8-8.1-12.1-8.1-5.4 0-10.2 3.3-12.2 8.4l-0.5 1.4h-1.5c-8.9 0-16.5 6.3-18.2 14.9l-0.3 1.5-1.5 0.2c-11.8 1.4-20.6 11.5-20.6 23.3 0 8.4 4.5 16.2 11.8 20.4l1.9 1.1-1.2 1.9c-1.7 2.7-2.6 5.8-2.6 8.9 0 9.3 7.6 16.9 16.9 16.9 0.7 0 1.5-0.1 2.4-0.2h1z" class="e"/>
<path d="m266 246l0.8 1c6.3 8.5 16.4 13.6 26.9 13.6 15.6 0 29.4-11.1 32.7-26.3l0.3-1.3 1.2-0.3c10.2-2.8 17.3-12.1 17.3-22.7 0-10-6.4-19-15.9-22.2l-2.1-0.7 0.8-2.1c1-2.5 1.5-5.1 1.5-7.7 0-11.4-9.3-20.7-20.7-20.7-1.3 0-2.7 0.1-4 0.4l-1.7 0.3-0.7-1.6c-2-4.9-6.8-8.1-12.1-8.1-5.4 0-10.2 3.3-12.2 8.4l-0.5 1.4h-1.5c-8.9 0-16.5 6.3-18.2 14.9l-0.3 1.5-1.5 0.2c-11.8 1.4-20.6 11.5-20.6 23.3 0 8.4 4.5 16.2 11.8 20.4l1.9 1.1-1.2 1.9c-1.7 2.7-2.6 5.8-2.6 8.9 0 9.3 7.6 16.9 16.9 16.9 0.7 0 1.5-0.1 2.4-0.2h1z" class="g"/>
<path d="m294 265c-11.5 0-22.5-5.3-29.6-14.3-0.6 0.1-1.2 0.1-1.7 0.1-11.7 0-21.1-9.5-21.1-21.1 0-3.2 0.8-6.4 2.2-9.3-7.6-5.1-12.2-13.8-12.2-23 0-13.5 9.7-25 22.9-27.3 2.5-9.4 10.9-16.2 20.7-16.8 2.9-5.9 9-9.8 15.6-9.8 6.5 0 12.3 3.6 15.3 9.2 1.1-0.1 2.1-0.2 3.2-0.2 13.8 0 24.9 11.2 24.9 24.9 0 2.5-0.4 4.9-1.1 7.3 10.1 4.4 16.8 14.4 16.8 25.5 0 12-7.8 22.7-19.2 26.4-5 18-20 29-37 29zm-28-19l0.8 1c6.3 8.5 16.4 13.6 26.9 13.6 15.6 0 29.4-11.1 32.7-26.3l0.3-1.3 1.2-0.3c10.2-2.8 17.3-12.1 17.3-22.7 0-10-6.4-19-15.9-22.2l-2.1-0.7 0.8-2.1c1-2.5 1.5-5.1 1.5-7.7 0-11.4-9.3-20.7-20.7-20.7-1.3 0-2.7 0.1-4 0.4l-1.7 0.3-0.7-1.6c-2-4.9-6.8-8.1-12.1-8.1-5.4 0-10.2 3.3-12.2 8.4l-0.5 1.4h-1.5c-8.9 0-16.5 6.3-18.2 14.9l-0.3 1.5-1.5 0.2c-11.8 1.4-20.6 11.5-20.6 23.3 0 8.4 4.5 16.2 11.8 20.4l1.9 1.1-1.2 1.9c-1.7 2.7-2.6 5.8-2.6 8.9 0 9.3 7.6 16.9 16.9 16.9 0.7 0 1.5-0.1 2.4-0.2h1z" class="e"/>
<path d="m391 251c-13.1 0-25.6-6.1-33.7-16.3-0.7 0.1-1.3 0.1-2 0.1-13.3 0-24-10.8-24-24 0-3.7 0.9-7.3 2.5-10.6-8.6-5.9-13.8-15.7-13.8-26.1 0-15.4 11.1-28.4 26-31.1 2.9-10.7 12.4-18.5 23.5-19.1 3.3-6.7 10.2-11.1 17.7-11.1 7.4 0 14 4.1 17.4 10.5 1.2-0.2 2.4-0.2 3.6-0.2 15.6 0 28.4 12.7 28.4 28.4 0 2.8-0.4 5.6-1.2 8.3 11.5 5 19.1 16.3 19.1 29 0 13.7-8.9 25.8-21.9 30-5 19-23 32-42 32" class="e"/>
<path d="m359 230l0.9 1.2c7.2 9.7 18.6 15.5 30.6 15.5 17.8 0 33.4-12.6 37.2-29.9l0.3-1.4 1.4-0.4c11.6-3.2 19.7-13.8 19.7-25.8 0-11.4-7.3-21.6-18.1-25.3l-2.4-0.8 1-2.4c1.1-2.8 1.7-5.8 1.7-8.8 0-13-10.5-23.5-23.5-23.5-1.5 0-3.1 0.2-4.6 0.5l-2 0.4-0.8-1.9c-2.3-5.6-7.7-9.3-13.8-9.3-6.2 0-11.6 3.7-13.9 9.5l-0.6 1.6h-1.7c-10.1 0-18.8 7.1-20.7 16.9l-0.3 1.7-1.7 0.2c-13.4 1.6-23.4 13-23.4 26.5 0 9.5 5.2 18.4 13.4 23.2l2.2 1.3-1.3 2.1c-1.9 3.1-2.9 6.6-2.9 10.2 0 10.6 8.6 19.2 19.2 19.2 0.8 0 1.7-0.1 2.7-0.2l1-1z" class="e"/>
<path d="m391 251c-13.1 0-25.6-6.1-33.7-16.3-0.7 0.1-1.3 0.1-2 0.1-13.3 0-24-10.8-24-24 0-3.7 0.9-7.3 2.5-10.6-8.6-5.9-13.8-15.7-13.8-26.1 0-15.4 11.1-28.4 26-31.1 2.9-10.7 12.4-18.5 23.5-19.1 3.3-6.7 10.2-11.1 17.7-11.1 7.4 0 14 4.1 17.4 10.5 1.2-0.2 2.4-0.2 3.6-0.2 15.6 0 28.4 12.7 28.4 28.4 0 2.8-0.4 5.6-1.2 8.3 11.5 5 19.1 16.3 19.1 29 0 13.7-8.9 25.8-21.9 30-5 19-23 32-42 32" class="e"/>
<path d="m359 230l0.9 1.2c7.2 9.7 18.6 15.5 30.6 15.5 17.8 0 33.4-12.6 37.2-29.9l0.3-1.4 1.4-0.4c11.6-3.2 19.7-13.8 19.7-25.8 0-11.4-7.3-21.6-18.1-25.3l-2.4-0.8 1-2.4c1.1-2.8 1.7-5.8 1.7-8.8 0-13-10.5-23.5-23.5-23.5-1.5 0-3.1 0.2-4.6 0.5l-2 0.4-0.8-1.9c-2.3-5.6-7.7-9.3-13.8-9.3-6.2 0-11.6 3.7-13.9 9.5l-0.6 1.6h-1.7c-10.1 0-18.8 7.1-20.7 16.9l-0.3 1.7-1.7 0.2c-13.4 1.6-23.4 13-23.4 26.5 0 9.5 5.2 18.4 13.4 23.2l2.2 1.3-1.3 2.1c-1.9 3.1-2.9 6.6-2.9 10.2 0 10.6 8.6 19.2 19.2 19.2 0.8 0 1.7-0.1 2.7-0.2l1-1z" class="e"/>
<path d="m290 295c-1.3 0-2.4-1.1-2.4-2.4v-102c0-1.3 1.1-2.4 2.4-2.4s2.4 1.1 2.4 2.4v102c-1 1-2 2-3 2" class="e"/>
<path d="m290 226c-13.9 0-25.1-11.3-25.1-25.1 0-1.3 1.1-2.4 2.4-2.4s2.4 1.1 2.4 2.4c0 11.2 9.1 20.3 20.3 20.3 1.3 0 2.4 1.1 2.4 2.4 0 1-1 2-2 2" class="e"/>
<path d="m290 243c-1.3 0-2.4-1.1-2.4-2.4s1.1-2.4 2.4-2.4c11.2 0 20.3-9.1 20.3-20.3 0-1.3 1.1-2.4 2.4-2.4s2.4 1.1 2.4 2.4c0 12-11 24-25 24" class="e"/>
<path d="m359 230l0.9 1.2c7.2 9.7 18.6 15.5 30.6 15.5 17.8 0 33.4-12.6 37.2-29.9l0.3-1.4 1.4-0.4c11.6-3.2 19.7-13.8 19.7-25.8 0-11.4-7.3-21.6-18.1-25.3l-2.4-0.8 1-2.4c1.1-2.8 1.7-5.8 1.7-8.8 0-13-10.5-23.5-23.5-23.5-1.5 0-3.1 0.2-4.6 0.5l-2 0.4-0.8-1.9c-2.3-5.6-7.7-9.3-13.8-9.3-6.2 0-11.6 3.7-13.9 9.5l-0.6 1.6h-1.7c-10.1 0-18.8 7.1-20.7 16.9l-0.3 1.7-1.7 0.2c-13.4 1.6-23.4 13-23.4 26.5 0 9.5 5.2 18.4 13.4 23.2l2.2 1.3-1.3 2.1c-1.9 3.1-2.9 6.6-2.9 10.2 0 10.6 8.6 19.2 19.2 19.2 0.8 0 1.7-0.1 2.7-0.2l1-1z" class="e"/>
<path d="m391 251c-13.1 0-25.6-6.1-33.7-16.3-0.7 0.1-1.3 0.1-2 0.1-13.3 0-24-10.8-24-24 0-3.7 0.9-7.3 2.5-10.6-8.6-5.9-13.8-15.7-13.8-26.1 0-15.4 11.1-28.4 26-31.1 2.9-10.7 12.4-18.5 23.5-19.1 3.3-6.7 10.2-11.1 17.7-11.1 7.4 0 14 4.1 17.4 10.5 1.2-0.2 2.4-0.2 3.6-0.2 15.6 0 28.4 12.7 28.4 28.4 0 2.8-0.4 5.6-1.2 8.3 11.5 5 19.1 16.3 19.1 29 0 13.7-8.9 25.8-21.9 30-5 19-23 32-42 32" class="h"/>
<path d="m290 295c-1.3 0-2.4-1.1-2.4-2.4v-102c0-1.3 1.1-2.4 2.4-2.4s2.4 1.1 2.4 2.4v102c-1 1-2 2-3 2" class="e"/>
<path d="m290 226c-13.9 0-25.1-11.3-25.1-25.1 0-1.3 1.1-2.4 2.4-2.4s2.4 1.1 2.4 2.4c0 11.2 9.1 20.3 20.3 20.3 1.3 0 2.4 1.1 2.4 2.4 0 1-1 2-2 2" class="e"/>
<path d="m290 243c-1.3 0-2.4-1.1-2.4-2.4s1.1-2.4 2.4-2.4c11.2 0 20.3-9.1 20.3-20.3 0-1.3 1.1-2.4 2.4-2.4s2.4 1.1 2.4 2.4c0 12-11 24-25 24" class="e"/>
<path d="m391 251c-13.1 0-25.6-6.1-33.7-16.3-0.7 0.1-1.3 0.1-2 0.1-13.3 0-24-10.8-24-24 0-3.7 0.9-7.3 2.5-10.6-8.6-5.9-13.8-15.7-13.8-26.1 0-15.4 11.1-28.4 26-31.1 2.9-10.7 12.4-18.5 23.5-19.1 3.3-6.7 10.2-11.1 17.7-11.1 7.4 0 14 4.1 17.4 10.5 1.2-0.2 2.4-0.2 3.6-0.2 15.6 0 28.4 12.7 28.4 28.4 0 2.8-0.4 5.6-1.2 8.3 11.5 5 19.1 16.3 19.1 29 0 13.7-8.9 25.8-21.9 30-5 19-23 32-42 32zm-32-21l0.9 1.2c7.2 9.7 18.6 15.5 30.6 15.5 17.8 0 33.4-12.6 37.2-29.9l0.3-1.4 1.4-0.4c11.6-3.2 19.7-13.8 19.7-25.8 0-11.4-7.3-21.6-18.1-25.3l-2.4-0.8 1-2.4c1.1-2.8 1.7-5.8 1.7-8.8 0-13-10.5-23.5-23.5-23.5-1.5 0-3.1 0.2-4.6 0.5l-2 0.4-0.8-1.9c-2.3-5.6-7.7-9.3-13.8-9.3-6.2 0-11.6 3.7-13.9 9.5l-0.6 1.6h-1.7c-10.1 0-18.8 7.1-20.7 16.9l-0.3 1.7-1.7 0.2c-13.4 1.6-23.4 13-23.4 26.5 0 9.5 5.2 18.4 13.4 23.2l2.2 1.3-1.3 2.1c-1.9 3.1-2.9 6.6-2.9 10.2 0 10.6 8.6 19.2 19.2 19.2 0.8 0 1.7-0.1 2.7-0.2l1-1z" class="e"/>
<path d="m387 295c-1.3 0-2.4-1.1-2.4-2.4v-154c0-1.3 1.1-2.4 2.4-2.4s2.4 1.1 2.4 2.4v154c-1 1-2 2-3 2" class="e"/>
<path d="m387 172c-12.1 0-21.9-9.8-21.9-21.9 0-1.3 1.1-2.4 2.4-2.4s2.4 1.1 2.4 2.4c0 9.4 7.6 17 17 17 1.3 0 2.4 1.1 2.4 2.4 0 1-1 2-2 2" class="e"/>
<path d="m387 188c-1.3 0-2.4-1.1-2.4-2.4s1.1-2.4 2.4-2.4c9.4 0 17-7.6 17-17 0-1.3 1.1-2.4 2.4-2.4s2.4 1.1 2.4 2.4c0 12-10 22-22 22" class="e"/>
<path d="m387 211c-22.8 0-41.3-18.5-41.3-41.3 0-1.3 1.1-2.4 2.4-2.4s2.4 1.1 2.4 2.4c0 20.1 16.4 36.5 36.5 36.5 1.3 0 2.4 1.1 2.4 2.4 0 1-1 2-2 2" class="e"/>
<path d="m387 227c-1.3 0-2.4-1.1-2.4-2.4s1.1-2.4 2.4-2.4c20.1 0 36.5-16.4 36.5-36.5 0-1.3 1.1-2.4 2.4-2.4s2.4 1.1 2.4 2.4c0 23-18 41-41 41" class="e"/>
<path d="m1.19e3 294h-212c-1.3 0-2.3-1.8-2.3-3.9 0-2.2 1-3.9 2.3-3.9h212c1.3 0 2.3 1.8 2.3 3.9v4" class="e"/>
<path d="m815 183l-12.5 5.5-4.7-5.5-3.5 3 3.7 4.5 2 2.2v0.2l7 8c3.2 4 4.7 9.2 4.7 16v70.5c0 1.5-1.7 2-3.5 2h-31.7c-1.5 0-3-1-3-2.5l-0.2-12.7c5-0.2 10-0.5 15.2-1 4.2-0.2 8.5-0.5 12.7-0.7l-0.2-4.7c-4.2 0.2-8.2 0.5-12.5 1-5 0.2-9.5 0.7-14.5 1l-2.7 0.2c-47.1 2.7-90.2 2.7-137 0l-1.7-0.2c-5-0.2-10.7-0.7-15.7-1-4.2-0.2-9-0.5-13.2-0.7l-0.5 4.7c4.2 0.2 8.5 0.5 12.7 0.7 5 0.2 10 0.7 15 1v12c0 1.5-1.2 2.5-3 2.5h-31.7c-1.5 0-1-0.5-1-2v-71c0-6.5 0.5-12 3.5-15.7l8.2-10.2h-0.2l3.7-4.5-3.7-3-4.7 5.5-12.7-5.5 1-7c0.5-1.7 2.5-3.7 4.2-3.7h13.7c0.2 0 0.2 0.5 0.2 0.5l3.7 5.2 4 0.2 21.7-31.7c1.7-2.2 4-3.2 6.7-3.7 40.9-2.5 74.3-2.5 115 0 2.7 0.2 5 1.5 6.7 3.5l21.9 31.9h4l3.7-5.5s0-0.5 0.2-0.5h13.7c1.7 0 3.7 2 4.2 3.5l1.2 7z" class="f"/>
<path d="m642 141s105-1.6 120 2.6c17.7 4.7 26.2 34.6 28.2 41.6s-181 13.7-174-7.2c3.2-10 22.4-34.4 30.2-36.4" class="i"/>
<path d="m702 194c-38.5 0-77.1-2.6-86.8-9.8-3.5-2.6-3.2-5.4-2.8-6.9 3.2-9.9 22.7-35.4 31.6-37.7l0.2-0.1h0.2c4.1-0.1 103-5.7 117 2.1 13.1 7.5 24.6 25.6 29.5 42.9 0.1 0.5 0.4 1.9-1.2 3-4 3-45 6-87 6zm-57-53c-7 2.2-25.2 27.7-28.3 37-0.1 0.4-0.4 1.2 1.4 2.5 8.2 5.9 41.5 9.2 89.2 8.9 42.3-0.3 74-3.3 79.7-5.4-8.4-28.7-18.5-39-25.9-41-14-4-110-2-116-2z" class="e"/>
<path d="m610 214c10.2 2 20.2 3.7 30.2 4.7 1.7 0.2 3.2 2 2.7 3.5l-1.2 3.2c-0.5 1.5-1.7 2.5-3.2 2.5-9.7-0.2-19.4-1-29.4-2.2-1.7-0.2-3-1.7-2.7-3.5l0.7-6c-1 0 0-2 2-2" class="j"/>
<path d="m638 231c-9.2-0.2-18.9-0.7-29.9-2.2-1.5-0.2-2.7-1-3.5-2-1-1.2-1.2-2.7-1.2-4l0.7-6c0.2-1.5 1-2.7 2.2-3.7 1.2-0.7 2.5-1 4-0.7 12 2.5 21.2 3.7 29.9 4.7 1.7 0.2 3.2 1.2 4.2 2.7 0.7 1.2 1 2.7 0.5 4l-1.2 3.2c-1 2-3 4-6 4zm-28-14c-0.2 0.2-0.5 0.2-0.5 0.5l-0.7 6c0 0.2 0 0.5 0.2 0.5 0.2 0.2 0.2 0.2 0.5 0.2 10.7 1.2 20.4 2 29.2 2 0.2 0 0.7 0 1-1l1.2-3.2c0-0.2-0.5-0.5-0.7-0.5-9-1-18-3-30-5z" class="e"/>
<path d="m793 214c-10.2 2-20.2 3.7-30.2 4.7-1.7 0.2-3.2 2-2.7 3.5l1.2 3.2c0.5 1.5 1.7 2.5 3.2 2.5 9.7-0.2 19.4-1 29.4-2.2 1.7-0.2 3-1.7 2.7-3.5l-0.7-6c1 0 0-2-2-2" class="j"/>
<path d="m765 231c-2.5 0-4.5-1.5-5.5-4l-1.2-3.2c-0.5-1.2-0.2-2.7 0.5-4 1-1.5 2.5-2.5 4.2-2.7 8.7-0.7 17.9-2.2 29.9-4.7 1.5-0.2 2.7 0 4 0.7s2 2.2 2.2 3.7l0.7 6c0.2 1.5-0.2 3-1.2 4-1 1.2-2.2 2-3.5 2-12 1-22 2-31 2zm-2-9l1.2 3.2c0.5 1 1 1 1 1 8.7 0 18.4-0.7 29.2-2 0.2 0 0.2-0.2 0.5-0.2 0.2-0.2 0.2-0.5 0.2-0.5l-0.7-6c0-0.2 0-0.2-0.2-0.5h-0.2c-12.2 2.5-21.4 4-30.4 4.7l-1 1z" class="e"/>
<path d="m809 172h-13.7l-0.2 0.5-3.7 5.2-4 0.2-21.9-31.7c-1.7-2-4-3.2-6.7-3.5-40.6-2.5-74-2.5-115 0-2.7 0.2-5 1.5-6.7 3.7l-21.7 31.7h-4l-3.7-5.5s0-0.5-0.2-0.5h-13.7c-1.7 0-3.7 2-4.2 3.7l-1 6.7v0.2l12.5 5.7 4.7-5.5 3.5 3-3.7 4.5-7.7 10.2c-3.2 3.7-3.5 9.2-3.5 15.7v70.5c0 1.5-0.7 2 1 2h34c1.5 0 3-1 3-2.5l0.2-12.7c-5-0.2-10-0.5-15.2-1-4.2-0.2-8.5-0.5-12.7-0.7l0.2-4.7c4.2 0.2 9.5 0.5 13.7 1 5 0.2 10.7 0.7 15.7 1l1.5 0.2c47.1 2.7 91 2.7 138 0l2.5-0.2c5-0.2 9.5-0.7 14.5-1 4.2-0.2 8.2-0.5 12.7-0.7l0.2 4.7c-4.2 0.2-8.5 0.5-12.7 0.7-5 0.2-10.2 0.7-15.2 1l0.2 12.5c0 1.5 1.2 2.5 3 2.5h31.7c1.5 0 3.5-0.5 3.5-2v-71c0-6.7-1.7-11.2-4.7-15l-7-7v-1l-2-2.7v-0.2l-3.7-4.5 3.5-3 4.7 5.5 12.5-5.5-1.2-7.2c1-2-1-4-3-4z" class="j"/>
<path d="m819 183l-1.2-8.2c-1-3.7-5-7.5-8.7-7.5h-13.7c-2 0-3.2 1.7-4 2.5l-2 3-20.2-29.2c-2.5-3-5.7-4.7-10-5.2-41.1-2.5-74.5-2.5-116 0-4 0.5-7.2 2.2-10 5.5l-19 29-2-3.2c-0.7-0.7-1.7-2.7-4-2.7h-13.7c-4 0-7.7 3.7-8.7 7.7l-1.2 7.2c-0.5 2 0.5 4 2.7 5l11.2 5-4 5.5c-4 4.7-4.7 11.2-4.7 18.9v70.5c0 4.2 1.7 7 6 7h31.7c4.2 0 7.7-3.2 7.7-7.2l0.2-12.5c45.6 2.5 88.2 2.5 134 0l0.2 12.5c0 4.2 3.5 7.2 7.7 7.2h31.7c4.2 0 8.5-3 8.5-7v-70.5c0-7.7-2.2-14-6-18.9l-5-5.5 11.2-5c1-2 2-3 1-5zm-4 0l-12.5 5.5-4.7-5.5-3.5 3 3.7 4.5 2 2.2v0.2l7 8c3.2 4 4.7 9.2 4.7 16v70.5c0 1.5-1.7 2-3.5 2h-31.7c-1.5 0-3-1-3-2.5l-0.2-12.7c5-0.2 10-0.5 15.2-1 4.2-0.2 8.5-0.5 12.7-0.7l-0.2-4.7c-4.2 0.2-8.2 0.5-12.5 1-5 0.2-9.5 0.7-14.5 1l-2.7 0.2c-47.1 2.7-90.2 2.7-137 0l-1.7-0.2c-5-0.2-10.7-0.7-15.7-1-4.2-0.2-9-0.5-13.2-0.7l-0.5 4.7c4.2 0.2 8.5 0.5 12.7 0.7 5 0.2 10 0.7 15 1v12c0 1.5-1.2 2.5-3 2.5h-31.7c-1.5 0-1-0.5-1-2v-71c0-6.5 0.5-12 3.5-15.7l8.2-10.2h-0.2l3.7-4.5-3.7-3-4.7 5.5-12.7-5.5 1-7c0.5-1.7 2.5-3.7 4.2-3.7h13.7c0.2 0 0.2 0.5 0.2 0.5l3.7 5.2 4 0.2 21.7-31.7c1.7-2.2 4-3.2 6.7-3.7 40.9-2.5 74.3-2.5 115 0 2.7 0.2 5 1.5 6.7 3.5l21.9 31.9h4l3.7-5.5s0-0.5 0.2-0.5h13.7c1.7 0 3.7 2 4.2 3.5l1.2 7z" class="e"/>
<path d="m659 222c28.7 1.7 57.1 1.5 85.7 0 2.5-0.2 4.7 2 4.5 4.5l-1.2 14c-0.2 2.5-2 4.5-4.5 4.5-28.2 1.2-55.8 1.2-83.5 0-2.5 0-4.2-2-4.5-4.5l-1.2-14c-1-2 1-4 4-4" class="j"/>
<path d="m702 249c-14 0-27.9-0.2-42.1-1-3.7-0.2-6.5-3-6.7-6.7l-1.2-14c-0.2-1.7 0.5-3.7 1.7-5 1.5-1.5 3.2-2.2 5.2-2 27.9 1.5 56.6 1.5 85.5 0 2 0 3.7 0.7 5.2 2 1.2 1.2 2 3.2 1.7 5l-1.2 14c-0.2 3.7-3.2 6.5-6.7 6.7-13 0-27 1-41 1zm-43-25c-0.5 0-1 0.2-1.5 0.7s-0.5 1-0.5 1.5l1.2 14c0 1.5 1 2.2 2.2 2.5 27.9 1.2 56.1 1.2 83.2 0 1.2 0 2.2-1 2.2-2.5l1.2-14c0-0.5-0.2-1-0.5-1.5-0.5-0.5-1-0.7-1.5-0.7-29 2-58 2-86 0z" class="e"/>
<path d="m720 145c0 2.5-2.2 4.5-5 4.5h-23.4c-2.7 0-5-2-5-4.5s2.2-4.5 5-4.5h23.4c2-1 5 2 5 4" class="e"/>
<path d="m763 222l1.2 3.2c0.5 1 1 1 1 1 8.7 0 18.4-0.7 29.2-2 0.2 0 0.2-0.2 0.5-0.2 0.2-0.2 0.2-0.5 0.2-0.5l-0.7-6c0-0.2 0-0.2-0.2-0.5h-0.2c-12.2 2.5-21.4 4-30.4 4.7l-1 1z" class="h"/>
<path d="m610 217c-0.2 0.2-0.5 0.2-0.5 0.5l-0.7 6c0 0.2 0 0.5 0.2 0.5 0.2 0.2 0.2 0.2 0.5 0.2 10.7 1.2 20.4 2 29.2 2 0.2 0 0.7 0 1-1l1.2-3.2c0-0.2-0.5-0.5-0.7-0.5-9-1-18-3-30-5z" class="h"/>
<path d="m750 222c-1.5-1.2-3.2-2-5.2-2-28.9 1.5-57.6 1.5-85.5 0-2-0.2-3.7 0.5-5.2 2-1.2 1.2-2 3.2-1.7 5l1.2 14c0.2 3.7 3 6.5 6.7 6.7 14.2 0.7 28.2 1 42.1 1 14 0 27.9-0.5 41.4-1 3.5-0.2 6.5-3 6.7-6.7l1.2-14c1-2 0-4-1-5zm-4 19c0 1.5-1 2.5-2.2 2.5-27.2 1.2-55.3 1.2-83.2 0-1.2-0.2-2.2-1-2.2-2.5l-1.2-14c0-0.5 0-1 0.5-1.5s1-0.7 1.5-0.7c28.2 1.7 57.1 1.7 86.2 0 0.5 0 1 0.2 1.5 0.7 0.2 0.5 0.5 1 0.5 1.5l-1 14z" class="e"/>
<path d="m746 241c0 1.5-1 2.5-2.2 2.5-27.2 1.2-55.3 1.2-83.2 0-1.2-0.2-2.2-1-2.2-2.5l-1.2-14c0-0.5 0-1 0.5-1.5s1-0.7 1.5-0.7c28.2 1.7 57.1 1.7 86.2 0 0.5 0 1 0.2 1.5 0.7 0.2 0.5 0.5 1 0.5 1.5l-1 14z" class="k"/>
</svg>
