<svg xmlns="http://www.w3.org/2000/svg" viewBox="0 0 50 323.7" class="undefined"><style>.a{fill:#15A3B2;}.b{fill:#FFF;}.c{fill:#F39200;}.d{fill:#01B1C0;}</style><rect x="23.9" y="43" width="2.3" height="233.3" class="a"/><circle cx="25" cy="191" r="14.7" class="b"/><path d="M25 176.3c8.1 0 14.7 6.6 14.7 14.7s-6.6 14.7-14.7 14.7 -14.7-6.6-14.7-14.7S16.9 176.3 25 176.3M25 173c-9.9 0-18 8.1-18 18s8.1 18 18 18 18-8.1 18-18S35 173 25 173L25 173z" class="c"/><path d="M28.7 196.7h-7.2v-1.1l3.7-4.3c0.7-0.8 1.1-1.4 1.3-1.9 0.2-0.5 0.3-0.9 0.3-1.4 0-0.6-0.2-1-0.5-1.3s-0.7-0.5-1.3-0.5c-0.7 0-1.2 0.2-1.6 0.7s-0.6 1-0.6 1.6h-1.6v-0.1c0-1 0.3-1.7 1-2.4s1.6-1 2.7-1c1.1 0 1.9 0.3 2.5 0.9 0.6 0.6 0.9 1.3 0.9 2.2 0 0.6-0.2 1.2-0.5 1.8 -0.3 0.6-0.8 1.3-1.6 2.2l-2.9 3.4 0 0h5.3V196.7z" class="d"/><circle cx="25" cy="25" r="18" class="b"/><path d="M25 10.3c8.1 0 14.7 6.6 14.7 14.7S33.1 39.7 25 39.7 10.3 33.1 10.3 25 16.9 10.3 25 10.3M25 7C15.1 7 7 15.1 7 25s8.1 18 18 18 18-8.1 18-18S35 7 25 7L25 7z" class="c"/><path d="M26.2 30.7h-1.6V20.6h-2.5v-1.2l4.1-0.4V30.7z" class="d"/><circle cx="25" cy="294" r="14.7" class="b"/><path d="M25 279.3c8.1 0 14.7 6.6 14.7 14.7s-6.6 14.7-14.7 14.7 -14.7-6.6-14.7-14.7S16.9 279.3 25 279.3M25 276c-9.9 0-18 8.1-18 18s8.1 18 18 18 18-8.1 18-18S35 276 25 276L25 276z" class="c"/><path d="M25 293.1c0.7 0 1.2-0.2 1.5-0.5 0.2-0.3 0.4-0.8 0.4-1.5 0-0.6-0.2-1.1-0.5-1.4s-0.8-0.6-1.4-0.6 -1.1 0.2-1.5 0.6 -0.6 0.8-0.6 1.4h-1.5v-0.1c0-0.9 0.3-1.6 1-2.2 0.7-0.6 1.6-0.9 2.6-0.9s2 0.2 2.5 0.8c0.6 0.6 0.9 1.3 0.9 2.4 0 0.6-0.2 1.1-0.4 1.5 -0.2 0.4-0.7 0.8-1.2 1.1 0.6 0.2 1.1 0.6 1.3 1.1 0.3 0.5 0.5 1.1 0.5 1.7 0 1.1-0.3 1.9-1 2.5s-1.6 0.9-2.6 0.9c-1 0-1.9-0.3-2.6-0.9 -0.7-0.6-1.1-1.4-1.1-2.3v-0.1h1.5c0 0.6 0.2 1.1 0.6 1.4 0.4 0.3 0.9 0.6 1.6 0.6s1.1-0.2 1.5-0.6 0.6-0.9 0.6-1.6c0-0.7-0.2-1.3-0.5-1.6s-0.9-0.6-1.6-0.6h-1.3V293L25 293.1 25 293.1z" class="d"/></svg>