<svg xmlns="http://www.w3.org/2000/svg" viewBox="0 0 50 50" class="undefined"><style>.a{fill:#FFF;}.b{fill:#F39200;}.c{fill:#01B1C0;}</style><circle cx="24.2" cy="25" r="18" class="a"/><path d="M24.2 7c9.9 0 18 8.1 18 18s-8.1 18-18 18 -18-8.1-18-18S14.3 7 24.2 7M24.2 3c-12.1 0-22 9.9-22 22s9.9 22 22 22 22-9.9 22-22S36.4 3 24.2 3L24.2 3z" class="b"/><path d="M24.6 23.9c0.9 0 1.5-0.2 1.8-0.6s0.5-1 0.5-1.8c0-0.7-0.2-1.3-0.6-1.7s-1-0.7-1.7-0.7c-0.7 0-1.4 0.2-1.8 0.7s-0.7 1-0.7 1.7h-1.8l0-0.1c0-1.1 0.4-2 1.2-2.7s1.9-1.1 3.2-1.1c1.3 0 2.4 0.3 3.1 1s1.1 1.6 1.1 2.9c0 0.7-0.2 1.3-0.5 1.8s-0.8 1-1.5 1.3c0.7 0.3 1.3 0.7 1.6 1.3 0.4 0.6 0.6 1.3 0.6 2.1 0 1.3-0.4 2.3-1.2 3.1s-1.9 1.1-3.2 1.1c-1.2 0-2.3-0.4-3.2-1.1s-1.4-1.7-1.3-2.8l0-0.1H22c0 0.7 0.2 1.3 0.7 1.7s1.1 0.7 1.9 0.7c0.8 0 1.4-0.2 1.8-0.7s0.7-1.1 0.7-1.9c0-0.9-0.2-1.6-0.6-2 -0.4-0.4-1.1-0.7-1.9-0.7h-1.6v-1.5H24.6z" class="c"/></svg>