<?xml version="1.0" encoding="utf-8"?>
<!-- Generator: Adobe Illustrator 20.1.0, SVG Export Plug-In . SVG Version: 6.00 Build 0)  -->
<svg version="1.1" id="Layer_1" xmlns="http://www.w3.org/2000/svg" xmlns:xlink="http://www.w3.org/1999/xlink" x="0px" y="0px"
	 viewBox="0 0 541 288" style="enable-background:new 0 0 541 288;" xml:space="preserve">
<style type="text/css">
	.st0{fill:none;}
	.st1{fill:#FFFFFF;}
	.st2{fill:#007582;}
	.st3{fill:#F2BC47;}
	.st4{fill:#15A3B2;}
	.st5{fill:#3C474E;}
	.st6{fill:#CF3F27;}
	.st7{fill:#7C878E;}
	.st8{fill:#69D2DC;}
</style>
<g id="Layer_2">
</g>
<g id="Layer_4">
</g>
<g id="Layer_1_1_">
	<path class="st0" d="M66.2,204.3l0.5,0.6c4.1,5.6,10.7,8.9,17.6,8.9c10.2,0,19.2-7.2,21.4-17.2l0.2-0.8l0.8-0.2
		c6.6-1.8,11.3-7.9,11.3-14.8c0-6.6-4.2-12.4-10.4-14.5l-1.4-0.5l0.5-1.4c0.6-1.6,0.9-3.4,0.9-5c0-7.4-6.1-13.5-13.5-13.5
		c-0.8,0-1.8,0.1-2.6,0.2l-1.2,0.2l-0.4-1c-1.4-3.2-4.4-5.3-7.9-5.3c-3.6,0-6.7,2.1-8,5.4l-0.3,0.9h-0.9l0,0
		c-5.8,0-10.8,4.1-11.9,9.7l-0.2,0.9l-1,0.1c-7.6,0.9-13.4,7.4-13.4,15.2c0,5.4,2.9,10.6,7.8,13.3l1.3,0.7l-0.7,1.3
		c-1.2,1.8-1.7,3.8-1.7,5.9c0,6.1,4.9,11,11,11c0.4,0,0.9,0,1.6-0.1L66.2,204.3z"/>
	<path class="st1" d="M84.4,216.6c-7.5,0-14.7-3.5-19.4-9.3c-0.4,0-0.7,0.1-1.2,0.1c-7.6,0-13.8-6.2-13.8-13.8
		c0-2.1,0.5-4.2,1.5-6.1c-4.9-3.4-8-9-8-15c0-8.8,6.4-16.3,15-17.8c1.7-6.2,7.1-10.6,13.5-11c1.9-3.9,5.9-6.4,10.2-6.4
		c4.2,0,8.1,2.3,10,6.1c0.7-0.1,1.4-0.1,2.1-0.1c9,0,16.2,7.3,16.2,16.2c0,1.6-0.2,3.2-0.7,4.7c6.6,2.8,10.9,9.3,10.9,16.7
		c0,7.9-5.1,14.9-12.6,17.3C105.5,208.9,95.6,216.6,84.4,216.6z M66.2,204.3l0.5,0.6c4.1,5.6,10.7,8.9,17.6,8.9
		c10.2,0,19.2-7.2,21.4-17.2l0.2-0.8l0.8-0.2c6.6-1.8,11.3-7.9,11.3-14.8c0-6.6-4.2-12.4-10.4-14.5l-1.4-0.5l0.5-1.4
		c0.6-1.6,0.9-3.4,0.9-5c0-7.4-6.1-13.5-13.5-13.5c-0.8,0-1.8,0.1-2.6,0.2l-1.2,0.2l-0.4-1c-1.4-3.2-4.4-5.3-7.9-5.3
		c-3.6,0-6.7,2.1-8,5.4l-0.3,0.9h-0.9l0,0c-5.8,0-10.8,4.1-11.9,9.7l-0.2,0.9l-1,0.1c-7.6,0.9-13.4,7.4-13.4,15.2
		c0,5.4,2.9,10.6,7.8,13.3l1.3,0.7l-0.7,1.3c-1.2,1.8-1.7,3.8-1.7,5.9c0,6.1,4.9,11,11,11c0.4,0,0.9,0,1.6-0.1L66.2,204.3z"/>
	<path class="st2" d="M66.2,204.3l0.5,0.6c4.1,5.6,10.7,8.9,17.6,8.9c10.2,0,19.2-7.2,21.4-17.2l0.2-0.8l0.8-0.2
		c6.6-1.8,11.3-7.9,11.3-14.8c0-6.6-4.2-12.4-10.4-14.5l-1.4-0.5l0.5-1.4c0.6-1.6,0.9-3.4,0.9-5c0-7.4-6.1-13.5-13.5-13.5
		c-0.8,0-1.8,0.1-2.6,0.2l-1.2,0.2l-0.4-1c-1.4-3.2-4.4-5.3-7.9-5.3c-3.6,0-6.7,2.1-8,5.4l-0.3,0.9h-0.9l0,0
		c-5.8,0-10.8,4.1-11.9,9.7l-0.2,0.9l-1,0.1c-7.6,0.9-13.4,7.4-13.4,15.2c0,5.4,2.9,10.6,7.8,13.3l1.3,0.7l-0.7,1.3
		c-1.2,1.8-1.7,3.8-1.7,5.9c0,6.1,4.9,11,11,11c0.4,0,0.9,0,1.6-0.1L66.2,204.3z"/>
	<path class="st0" d="M147.4,207.4c-8.6,0-16.7-4-22-10.7c-0.4,0-0.8,0.1-1.3,0.1c-8.7,0-15.7-7-15.7-15.7c0-2.4,0.5-4.8,1.7-6.9
		c-5.7-3.8-9-10.3-9-17.1c0-10.1,7.2-18.5,17-20.3c1.9-7,8.1-12,15.3-12.5c2.1-4.4,6.7-7.2,11.5-7.2c4.8,0,9.1,2.6,11.4,6.8
		c0.8-0.1,1.6-0.1,2.4-0.1c10.2,0,18.5,8.3,18.5,18.5c0,1.9-0.3,3.7-0.8,5.4c7.5,3.2,12.5,10.7,12.5,19c0,8.9-5.9,16.9-14.2,19.6
		C171.4,198.6,160.2,207.4,147.4,207.4"/>
	<path class="st0" d="M126.9,193.5l0.5,0.7c4.7,6.3,12.2,10.1,20,10.1c11.6,0,21.8-8.2,24.3-19.6l0.2-0.9l0.9-0.2
		c7.5-2.1,12.9-9,12.9-16.8c0-7.4-4.7-14-11.8-16.4l-1.6-0.5l0.6-1.6c0.7-1.9,1.2-3.8,1.2-5.8c0-8.5-6.9-15.3-15.3-15.3
		c-1,0-2,0.1-3,0.3l-1.3,0.2l-0.5-1.3c-1.5-3.7-5-6.1-9-6.1c-4.1,0-7.5,2.4-9,6.2l-0.4,1h-1l0,0c-6.6,0-12.3,4.6-13.5,11l-0.2,1.2
		l-1.2,0.1c-8.7,1-15.3,8.5-15.3,17.3c0,6.2,3.4,12,8.8,15.1l1.5,0.8l-0.8,1.4c-1.3,2-1.9,4.3-1.9,6.6c0,6.9,5.7,12.5,12.5,12.5
		c0.5,0,1,0,1.8-0.1L126.9,193.5z"/>
	<path class="st0" d="M81.4,236c-0.8,0-1.6-0.7-1.6-1.6v-66.5c0-0.8,0.7-1.6,1.6-1.6s1.6,0.7,1.6,1.6v66.5
		C83.1,235.3,82.4,236,81.4,236"/>
	<path class="st0" d="M81.4,190.9c-9,0-16.3-7.3-16.3-16.3c0-0.8,0.7-1.6,1.6-1.6c0.8,0,1.6,0.7,1.6,1.6c0,7.3,6,13.2,13.2,13.2
		c0.8,0,1.6,0.7,1.6,1.6C83.1,190.1,82.4,190.9,81.4,190.9"/>
	<path class="st0" d="M81.4,201.7c-0.8,0-1.6-0.7-1.6-1.6c0-0.8,0.7-1.6,1.6-1.6c7.3,0,13.2-6,13.2-13.2c0-0.8,0.7-1.6,1.6-1.6
		s1.6,0.7,1.6,1.6C97.9,194.3,90.5,201.7,81.4,201.7"/>
	<path class="st0" d="M147.4,207.4c-8.6,0-16.7-4-22-10.7c-0.4,0-0.8,0.1-1.3,0.1c-8.7,0-15.7-7-15.7-15.7c0-2.4,0.5-4.8,1.7-6.9
		c-5.7-3.8-9-10.3-9-17.1c0-10.1,7.2-18.5,17-20.3c1.9-7,8.1-12,15.3-12.5c2.1-4.4,6.7-7.2,11.5-7.2c4.8,0,9.1,2.6,11.4,6.8
		c0.8-0.1,1.6-0.1,2.4-0.1c10.2,0,18.5,8.3,18.5,18.5c0,1.9-0.3,3.7-0.8,5.4c7.5,3.2,12.5,10.7,12.5,19c0,8.9-5.9,16.9-14.2,19.6
		C171.4,198.6,160.2,207.4,147.4,207.4"/>
	<path class="st1" d="M97.9,185.3c0-0.8-0.7-1.6-1.6-1.6s-1.6,0.7-1.6,1.6c0,6.7-5.1,12.4-11.6,13.1v-30.5c0-0.8-0.7-1.6-1.6-1.6
		c-0.8,0-1.6,0.7-1.6,1.6v19.6c-6.5-0.8-11.6-6.4-11.6-13.1c0-0.8-0.7-1.6-1.6-1.6c-0.8,0-1.6,0.7-1.6,1.6c0,8.5,6.5,15.5,14.8,16.3
		v43.7c0,0.8,0.7,1.6,1.6,1.6c0.8,0,1.6-0.7,1.6-1.6v-32.8C91.4,200.8,97.9,193.8,97.9,185.3z"/>
	<path class="st1" d="M147.4,207.4c-8.6,0-16.7-4-22-10.7c-0.4,0-0.8,0.1-1.3,0.1c-8.7,0-15.7-7-15.7-15.7c0-2.4,0.5-4.8,1.7-6.9
		c-5.7-3.8-9-10.3-9-17.1c0-10.1,7.2-18.5,17-20.3c1.9-7,8.1-12,15.3-12.5c2.1-4.4,6.7-7.2,11.5-7.2c4.8,0,9.1,2.6,11.4,6.8
		c0.8-0.1,1.6-0.1,2.4-0.1c10.2,0,18.5,8.3,18.5,18.5c0,1.9-0.3,3.7-0.8,5.4c7.5,3.2,12.5,10.7,12.5,19c0,8.9-5.9,16.9-14.2,19.6
		C171.4,198.6,160.2,207.4,147.4,207.4z M126.9,193.5l0.5,0.7c4.7,6.3,12.2,10.1,20,10.1c11.6,0,21.8-8.2,24.3-19.6l0.2-0.9l0.9-0.2
		c7.5-2.1,12.9-9,12.9-16.8c0-7.4-4.7-14-11.8-16.4l-1.6-0.5l0.6-1.6c0.7-1.9,1.2-3.8,1.2-5.8c0-8.5-6.9-15.3-15.3-15.3
		c-1,0-2,0.1-3,0.3l-1.3,0.2l-0.5-1.3c-1.5-3.7-5-6.1-9-6.1c-4.1,0-7.5,2.4-9,6.2l-0.4,1h-1l0,0c-6.6,0-12.3,4.6-13.5,11l-0.2,1.2
		l-1.2,0.1c-8.7,1-15.3,8.5-15.3,17.3c0,6.2,3.4,12,8.8,15.1l1.5,0.8l-0.8,1.4c-1.3,2-1.9,4.3-1.9,6.6c0,6.9,5.7,12.5,12.5,12.5
		c0.5,0,1,0,1.8-0.1L126.9,193.5z"/>
	<path class="st3" d="M126.9,193.5l0.5,0.7c4.7,6.3,12.2,10.1,20,10.1c11.6,0,21.8-8.2,24.3-19.6l0.2-0.9l0.9-0.2
		c7.5-2.1,12.9-9,12.9-16.8c0-7.4-4.7-14-11.8-16.4l-1.6-0.5l0.6-1.6c0.7-1.9,1.2-3.8,1.2-5.8c0-8.5-6.9-15.3-15.3-15.3
		c-1,0-2,0.1-3,0.3l-1.3,0.2l-0.5-1.3c-1.5-3.7-5-6.1-9-6.1c-4.1,0-7.5,2.4-9,6.2l-0.4,1h-1l0,0c-6.6,0-12.3,4.6-13.5,11l-0.2,1.2
		l-1.2,0.1c-8.7,1-15.3,8.5-15.3,17.3c0,6.2,3.4,12,8.8,15.1l1.5,0.8l-0.8,1.4c-1.3,2-1.9,4.3-1.9,6.6c0,6.9,5.7,12.5,12.5,12.5
		c0.5,0,1,0,1.8-0.1L126.9,193.5z"/>
	<path class="st1" d="M171.9,164.6c0-0.8-0.7-1.6-1.6-1.6s-1.6,0.7-1.6,1.6c0,12.6-9.8,22.9-22.2,23.8v-22.2
		c7.1-0.8,12.7-6.8,12.7-14.1c0-0.8-0.7-1.6-1.6-1.6c-0.8,0-1.6,0.7-1.6,1.6c0,5.6-4.2,10.2-9.5,11v-28.9c0-0.8-0.7-1.6-1.6-1.6
		s-1.6,0.7-1.6,1.6v18.3c-5.3-0.7-9.5-5.4-9.5-11c0-0.8-0.7-1.6-1.6-1.6c-0.8,0-1.6,0.7-1.6,1.6c0,7.3,5.6,13.4,12.7,14.1v22.2
		c-12.4-0.8-22.2-11.1-22.2-23.8c0-0.8-0.7-1.6-1.6-1.6c-0.8,0-1.6,0.7-1.6,1.6c0,14.4,11.2,26.1,25.4,26.9v53.4
		c0,0.8,0.7,1.6,1.6,1.6s1.6-0.7,1.6-1.6v-42.8C160.6,190.8,171.9,178.9,171.9,164.6z"/>
	<path class="st1" d="M419.5,224.2c-5.9,0-11.5-2.7-15.2-7.3c-0.3,0-0.6,0-0.9,0c-6,0-10.9-4.9-10.9-10.9c0-1.7,0.4-3.4,1.2-4.8
		c-3.9-2.6-6.3-7.1-6.3-11.8c0-6.9,5-12.9,11.7-14c1.3-4.8,5.7-8.4,10.6-8.6c1.5-3,4.6-5,8.1-5c3.4,0,6.4,1.9,7.9,4.7
		c0.5-0.1,1-0.1,1.7-0.1c7.1,0,12.8,5.8,12.8,12.8c0,1.3-0.2,2.5-0.5,3.8c5.2,2.2,8.6,7.3,8.6,13.1c0,6.2-4,11.7-9.8,13.6
		C436.1,218.1,428.3,224.2,419.5,224.2z M405.2,214.4l0.4,0.5c3.2,4.4,8.4,7,13.8,7c8.1,0,15.1-5.7,16.9-13.5l0.1-0.6l0.6-0.2
		c5.2-1.5,8.9-6.2,8.9-11.6c0-5.1-3.2-9.7-8.2-11.4l-1-0.4l0.4-1c0.5-1.3,0.7-2.6,0.7-4c0-5.9-4.8-10.6-10.6-10.6
		c-0.7,0-1.4,0.1-2.1,0.2l-0.8,0.2l-0.3-0.8c-1-2.5-3.5-4.2-6.2-4.2c-2.8,0-5.2,1.7-6.3,4.3l-0.4,0.6h-0.7l0,0
		c-4.6,0-8.5,3.2-9.3,7.6l-0.1,0.7l-0.8,0.1c-6.1,0.7-10.6,5.9-10.6,11.9c0,4.3,2.3,8.3,6.1,10.5l0.9,0.5l-0.6,0.9
		c-0.8,1.4-1.4,2.9-1.4,4.6c0,4.8,3.9,8.7,8.7,8.7c0.4,0,0.7,0,1.3-0.1L405.2,214.4z"/>
	<path class="st2" d="M405.2,214.4l0.4,0.5c3.2,4.4,8.4,7,13.8,7c8.1,0,15.1-5.7,16.9-13.5l0.1-0.6l0.6-0.2
		c5.2-1.5,8.9-6.2,8.9-11.6c0-5.1-3.2-9.7-8.2-11.4l-1-0.4l0.4-1c0.5-1.3,0.7-2.6,0.7-4c0-5.9-4.8-10.6-10.6-10.6
		c-0.7,0-1.4,0.1-2.1,0.2l-0.8,0.2l-0.3-0.8c-1-2.5-3.5-4.2-6.2-4.2c-2.8,0-5.2,1.7-6.3,4.3l-0.4,0.6h-0.7l0,0
		c-4.6,0-8.5,3.2-9.3,7.6l-0.1,0.7l-0.8,0.1c-6.1,0.7-10.6,5.9-10.6,11.9c0,4.3,2.3,8.3,6.1,10.5l0.9,0.5l-0.6,0.9
		c-0.8,1.4-1.4,2.9-1.4,4.6c0,4.8,3.9,8.7,8.7,8.7c0.4,0,0.7,0,1.3-0.1L405.2,214.4z"/>
	<path class="st0" d="M417.2,239.5c-0.7,0-1.3-0.5-1.3-1.3v-52.4c0-0.7,0.5-1.3,1.3-1.3c0.7,0,1.3,0.5,1.3,1.3v52.4
		C418.4,239,417.9,239.5,417.2,239.5"/>
	<path class="st0" d="M417.2,203.9c-7.1,0-12.9-5.8-12.9-12.9c0-0.7,0.5-1.3,1.3-1.3c0.7,0,1.3,0.5,1.3,1.3
		c0,5.8,4.7,10.4,10.4,10.4c0.7,0,1.3,0.5,1.3,1.3C418.4,203.3,417.9,203.9,417.2,203.9"/>
	<path class="st0" d="M417.2,212.5c-0.7,0-1.3-0.5-1.3-1.3s0.5-1.3,1.3-1.3c5.8,0,10.4-4.7,10.4-10.4c0-0.7,0.5-1.3,1.3-1.3
		c0.7,0,1.3,0.5,1.3,1.3C430.2,206.7,424.3,212.5,417.2,212.5"/>
	<path class="st1" d="M430.2,199.6c0-0.7-0.5-1.3-1.3-1.3c-0.7,0-1.3,0.5-1.3,1.3c0,5.3-4,9.7-9.2,10.4v-24c0-0.7-0.5-1.3-1.3-1.3
		c-0.7,0-1.3,0.5-1.3,1.3v15.4c-5.1-0.6-9.2-5-9.2-10.4c0-0.7-0.5-1.3-1.3-1.3c-0.7,0-1.3,0.5-1.3,1.3c0,6.7,5.1,12.3,11.6,12.9
		v34.4c0,0.7,0.5,1.3,1.3,1.3c0.7,0,1.3-0.5,1.3-1.3v-25.9C425,211.7,430.2,206.3,430.2,199.6z"/>
	<path class="st1" d="M469.1,217c-6.7,0-13.1-3.1-17.3-8.4c-0.3,0-0.7,0-1,0c-6.8,0-12.4-5.6-12.4-12.4c0-1.9,0.4-3.8,1.3-5.4
		c-4.4-3-7.1-8.1-7.1-13.4c0-7.9,5.7-14.7,13.4-16c1.5-5.6,6.4-9.5,12-9.8c1.7-3.5,5.2-5.8,9.1-5.8c3.8,0,7.2,2.1,9,5.4
		c0.6-0.1,1.3-0.1,1.9-0.1c8.1,0,14.6,6.5,14.6,14.6c0,1.5-0.2,2.8-0.6,4.3c5.9,2.5,9.8,8.4,9.8,14.9c0,7-4.6,13.3-11.2,15.4
		C488.1,210,479.2,217,469.1,217z M453,206l0.4,0.6c3.7,5,9.5,8,15.7,8c9.1,0,17.2-6.5,19.2-15.4l0.2-0.7l0.7-0.2
		c6-1.7,10.2-7.1,10.2-13.2c0-5.9-3.8-11.1-9.3-13l-1.3-0.4l0.5-1.3c0.6-1.5,0.8-2.9,0.8-4.5c0-6.7-5.4-12-12-12
		c-0.7,0-1.6,0.1-2.4,0.2l-1,0.2l-0.4-0.9c-1.2-2.9-4-4.7-7.1-4.7s-6,1.9-7.1,4.9l-0.3,0.8h-0.8l0,0c-5.2,0-9.6,3.7-10.7,8.7
		l-0.2,0.8L447,164c-6.9,0.8-12,6.7-12,13.6c0,4.9,2.6,9.4,6.9,11.9l1.2,0.6l-0.7,1.2c-0.9,1.6-1.5,3.4-1.5,5.2
		c0,5.4,4.4,9.8,9.8,9.8c0.4,0,0.8,0,1.4-0.1L453,206z"/>
	<path class="st4" d="M453,206l0.4,0.6c3.7,5,9.5,8,15.7,8c9.1,0,17.2-6.5,19.2-15.4l0.2-0.7l0.7-0.2c6-1.7,10.2-7.1,10.2-13.2
		c0-5.9-3.8-11.1-9.3-13l-1.3-0.4l0.5-1.3c0.6-1.5,0.8-2.9,0.8-4.5c0-6.7-5.4-12-12-12c-0.7,0-1.6,0.1-2.4,0.2l-1,0.2l-0.4-0.9
		c-1.2-2.9-4-4.7-7.1-4.7s-6,1.9-7.1,4.9l-0.3,0.8h-0.8l0,0c-5.2,0-9.6,3.7-10.7,8.7l-0.2,0.8L447,164c-6.9,0.8-12,6.7-12,13.6
		c0,4.9,2.6,9.4,6.9,11.9l1.2,0.6l-0.7,1.2c-0.9,1.6-1.5,3.4-1.5,5.2c0,5.4,4.4,9.8,9.8,9.8c0.4,0,0.8,0,1.4-0.1L453,206z"/>
	<path class="st1" d="M488.5,183.2c0-0.7-0.5-1.3-1.3-1.3c-0.7,0-1.3,0.5-1.3,1.3c0,10-7.8,18-17.5,18.6v-17.5
		c5.7-0.6,10-5.4,10-11.2c0-0.7-0.5-1.3-1.3-1.3c-0.7,0-1.3,0.5-1.3,1.3c0,4.4-3.2,8.1-7.5,8.7V159c0-0.7-0.5-1.3-1.3-1.3
		c-0.7,0-1.3,0.5-1.3,1.3v14.5c-4.2-0.6-7.5-4.3-7.5-8.7c0-0.7-0.5-1.3-1.3-1.3c-0.7,0-1.3,0.5-1.3,1.3c0,5.8,4.4,10.6,10,11.2v17.5
		c-9.7-0.6-17.5-8.8-17.5-18.6c0-0.7-0.5-1.3-1.3-1.3s-1.3,0.5-1.3,1.3c0,11.3,8.9,20.5,20,21.2v42.1c0,0.7,0.5,1.3,1.3,1.3
		c0.7,0,1.3-0.5,1.3-1.3v-33.8C479.6,203.8,488.5,194.5,488.5,183.2z"/>
	<path class="st1" d="M497.3,239H44.5c-2.7,0-5-0.7-5-1.6c0-0.8,2.2-1.6,5-1.6h452.9c2.7,0,5,0.7,5,1.6
		C502.2,238.2,500,239,497.3,239"/>
	<path class="st3" d="M396.8,91.9C386,91.9,377,83,377,72.1s8.9-19.8,19.8-19.8c10.9,0,19.8,8.9,19.8,19.8
		C416.6,83,407.8,91.9,396.8,91.9"/>
	<path class="st3" d="M396.8,48.8c-0.7,0-1.3-0.5-1.3-1.3V39c0-0.7,0.5-1.3,1.3-1.3c0.7,0,1.3,0.5,1.3,1.3v8.6
		C398.1,48.3,397.6,48.8,396.8,48.8"/>
	<path class="st3" d="M387.5,50.7c-0.5,0-0.9-0.3-1.2-0.7l-3.4-8c-0.3-0.6,0-1.4,0.7-1.7c0.6-0.3,1.4,0,1.7,0.7l3.4,8
		c0.3,0.6,0,1.4-0.7,1.7C387.8,50.7,387.6,50.7,387.5,50.7"/>
	<path class="st3" d="M379.6,56.1c-0.3,0-0.6-0.1-0.9-0.4l-6.1-6.1c-0.5-0.5-0.5-1.3,0-1.8c0.5-0.5,1.3-0.5,1.8,0l6.1,6.1
		c0.5,0.5,0.5,1.3,0,1.8C380.2,56,379.9,56.1,379.6,56.1"/>
	<path class="st3" d="M374.2,64c-0.2,0-0.3,0-0.5-0.1l-8-3.4c-0.6-0.3-0.9-1-0.7-1.7c0.3-0.6,1-0.9,1.7-0.7l8,3.2
		c0.6,0.3,0.9,1,0.7,1.7C375.3,63.7,374.7,64,374.2,64"/>
	<path class="st3" d="M372.4,73.3h-8.6c-0.7,0-1.3-0.5-1.3-1.3s0.5-1.3,1.3-1.3h8.6c0.7,0,1.3,0.5,1.3,1.3S373.1,73.3,372.4,73.3"/>
	<path class="st3" d="M366.3,86c-0.5,0-0.9-0.3-1.2-0.7c-0.3-0.6,0-1.4,0.7-1.7l8-3.4c0.6-0.3,1.4,0,1.7,0.7c0.3,0.6,0,1.4-0.7,1.7
		l-8,3.4C366.6,86,366.5,86,366.3,86"/>
	<path class="st3" d="M420.3,96.8c-0.3,0-0.6-0.1-0.9-0.4l-6.1-6.1c-0.5-0.5-0.5-1.3,0-1.8c0.5-0.5,1.3-0.5,1.8,0l6.1,6.1
		c0.5,0.5,0.5,1.3,0,1.8C420.9,96.7,420.6,96.8,420.3,96.8"/>
	<path class="st3" d="M427.4,86c-0.2,0-0.3,0-0.5-0.1l-8-3.4c-0.6-0.3-0.9-1-0.7-1.7c0.3-0.6,1-0.9,1.7-0.7l8,3.4
		c0.6,0.3,0.9,1,0.7,1.7C428.5,85.7,428,86,427.4,86"/>
	<path class="st3" d="M430.1,73.3h-8.6c-0.7,0-1.3-0.5-1.3-1.3s0.5-1.3,1.3-1.3h8.6c0.7,0,1.3,0.5,1.3,1.3S430.7,73.3,430.1,73.3"/>
	<path class="st3" d="M419.5,64c-0.5,0-0.9-0.3-1.2-0.7c-0.3-0.6,0-1.4,0.7-1.7l8-3.2c0.6-0.3,1.4,0,1.7,0.7c0.3,0.6,0,1.4-0.7,1.7
		l-8,3.4C419.9,64,419.7,64,419.5,64"/>
	<path class="st3" d="M414.2,56.1c-0.3,0-0.6-0.1-0.9-0.4c-0.5-0.5-0.5-1.3,0-1.8l6.1-6.1c0.5-0.5,1.3-0.5,1.8,0s0.5,1.3,0,1.8
		l-6.1,6.1C414.9,56,414.5,56.1,414.2,56.1"/>
	<path class="st3" d="M406.3,50.7c-0.2,0-0.3,0-0.5-0.1c-0.6-0.3-0.9-1-0.7-1.7l3.4-8c0.3-0.6,1-0.9,1.7-0.7c0.6,0.3,0.9,1,0.7,1.7
		l-3.2,8C407.2,50.4,406.8,50.7,406.3,50.7"/>
	<path class="st1" d="M411.2,92.5h-85.5v-1.8c0-8,6.5-14.5,14.5-14.5c2.1,0,4.2,0.4,6.1,1.4c4.2-5.9,11-9.4,18.3-9.4
		c5.8,0,11.2,2.1,15.4,6.1c3.4-2.3,7.2-3.5,11.3-3.5c11,0,20,9,20,20v1.7H411.2z"/>
	<path class="st1" d="M468,111.1h-48.6v-1.8c0-6.4,5.2-11.7,11.6-11.7c1.6,0,3.1,0.3,4.6,0.9c3.4-4.6,8.7-7.2,14.4-7.2
		c10,0,18,8.1,18,18L468,111.1L468,111.1z"/>
	<path class="st1" d="M153.9,95.9h-48.6v-1.8c0-6.4,5.2-11.7,11.6-11.7c1.6,0,3.1,0.3,4.6,0.9c3.4-4.6,8.7-7.2,14.4-7.2
		c10,0,18,8.1,18,18V95.9z"/>
	<path class="st1" d="M368.1,230.4h-85.3l-7.5-0.5c-1.6-0.3-2.6-1.4-2.8-2.7l-0.7-4.8c-0.1-1.4,0.2-1.9,0.8-2.7
		c-0.3-2.7,0.2-4.9,1.6-6.7c3-3.9,9.6-4.6,16.6-5.3c2.6-0.3,5.3-0.6,7.8-1l18.8-8.3c4.9-1.7,13.6-2.3,25.9-1.9
		c4.8,0.1,7.3,0.7,10,1.8l12,6.4l10.2,1.5c2.3,0.3,3.1,1.8,3.4,2.8l0,0c2.1,8.9,1.7,15.4-1.3,19.5c-0.7,1-1.7,1.6-2.9,1.7
		L368.1,230.4z M336.5,197.4c-8.7,0-15,0.6-18.9,2l-19,8.3c-2.5,0.5-5.2,0.8-8,1.2c-6.7,0.7-13,1.5-15.8,4.9c-1.3,1.6-1.7,3.5-1.4,6
		v0.2l-0.2,0.3c-0.5,0.8-0.7,1-0.6,2l0.7,4.8c0.1,0.9,0.7,1.6,1.8,1.8l7.4,0.5h85.2l6.4-0.5c0.8-0.1,1.5-0.4,2.1-1.2
		c2.6-3.7,2.9-10.1,1-18.4l0,0c-0.2-1.2-1-1.7-2.4-1.9l-10.5-1.5l-12-6.5c-2.4-0.9-4.8-1.5-9.5-1.7
		C340.8,197.4,338.6,197.4,336.5,197.4z"/>
	<path class="st4" d="M336.5,197.4c-8.7,0-15,0.6-18.9,2l-19,8.3c-2.5,0.5-5.2,0.8-8,1.2c-6.7,0.7-13,1.5-15.8,4.9
		c-1.3,1.6-1.7,3.5-1.4,6v0.2l-0.2,0.3c-0.5,0.8-0.7,1-0.6,2l0.7,4.8c0.1,0.9,0.7,1.6,1.8,1.8l7.4,0.5h85.2l6.4-0.5
		c0.8-0.1,1.5-0.4,2.1-1.2c2.6-3.7,2.9-10.1,1-18.4l0,0c-0.2-1.2-1-1.7-2.4-1.9l-10.5-1.5l-12-6.5c-2.4-0.9-4.8-1.5-9.5-1.7
		C340.8,197.4,338.6,197.4,336.5,197.4z"/>
	<path class="st0" d="M280.8,224.5c0,4.5,3.7,8.3,8.3,8.3c4.5,0,8.3-3.7,8.3-8.3c0-4.5-3.7-8.3-8.3-8.3
		C284.4,216.2,280.8,219.9,280.8,224.5z"/>
	<path class="st1" d="M289.1,211.9c-6.8,0-12.5,5.6-12.5,12.5c0,6.8,5.6,12.5,12.5,12.5s12.5-5.6,12.5-12.5S295.9,211.9,289.1,211.9
		z"/>
	<path class="st5" d="M289.1,236c-6.4,0-11.6-5.2-11.6-11.6c0-6.4,5.2-11.6,11.6-11.6s11.6,5.2,11.6,11.6
		C300.7,230.8,295.4,236,289.1,236z"/>
	<path class="st1" d="M266.3,132.1h-39.8c-2.7,0-4.9-2.2-4.9-4.9V34.3c0-2.7,2.2-4.9,4.9-4.9h39.8c2.7,0,4.9,2.2,4.9,4.9v92.9
		C271.2,129.9,269,132.1,266.3,132.1z M226.5,30.4c-2.2,0-3.9,1.8-3.9,3.9v92.9c0,2.2,1.8,3.9,3.9,3.9h39.8c2.2,0,3.9-1.8,3.9-3.9
		V34.3c0-2.2-1.8-3.9-3.9-3.9H226.5z"/>
	<path class="st4" d="M226.5,30.4c-2.2,0-3.9,1.8-3.9,3.9v92.9c0,2.2,1.8,3.9,3.9,3.9h39.8c2.2,0,3.9-1.8,3.9-3.9V34.3
		c0-2.2-1.8-3.9-3.9-3.9H226.5z"/>
	<path class="st1" d="M246.4,61.4c-6.4,0-11.6-5.2-11.6-11.6s5.2-11.6,11.6-11.6c6.4,0,11.6,5.2,11.6,11.6S252.8,61.4,246.4,61.4z
		 M246.4,39.2c-5.8,0-10.6,4.7-10.6,10.6c0,5.8,4.7,10.6,10.6,10.6c5.8,0,10.6-4.7,10.6-10.6C256.9,44,252.2,39.2,246.4,39.2z"/>
	<path class="st1" d="M246.4,92.3c-6.4,0-11.6-5.2-11.6-11.6S240,69,246.4,69c6.4,0,11.6,5.2,11.6,11.6S252.8,92.3,246.4,92.3z
		 M246.4,70.2c-5.8,0-10.6,4.7-10.6,10.6c0,5.9,4.7,10.6,10.6,10.6c5.8,0,10.6-4.7,10.6-10.6C257,74.9,252.2,70.2,246.4,70.2z"/>
	<path class="st1" d="M246.4,123.3c-6.4,0-11.6-5.2-11.6-11.6s5.2-11.6,11.6-11.6c6.4,0,11.6,5.2,11.6,11.6S252.8,123.3,246.4,123.3
		z M246.4,101.2c-5.8,0-10.6,4.7-10.6,10.6c0,5.9,4.7,10.6,10.6,10.6c5.8,0,10.6-4.7,10.6-10.6C257,105.9,252.2,101.2,246.4,101.2z"
		/>
	<path class="st1" d="M222.1,61.4c-0.1,0-0.2,0-0.3-0.1L204.6,47c-1.6-1.4-2.2-3.5-1.5-5.4c0.7-2,2.5-3.2,4.6-3.2h14.4
		c0.3,0,0.5,0.2,0.5,0.5V61c0,0.2-0.1,0.4-0.3,0.5C222.2,61.3,222.1,61.4,222.1,61.4z M207.8,39.2c-2,0-3.2,1.4-3.7,2.6
		c-0.4,1.3-0.4,3,1.2,4.3l16.3,13.6V39.2H207.8z"/>
	<path class="st4" d="M207.8,39.2c-2,0-3.2,1.4-3.7,2.6c-0.4,1.3-0.4,3,1.2,4.3l16.3,13.6V39.2H207.8z"/>
	<path class="st1" d="M222.1,92.3c-0.1,0-0.2,0-0.3-0.1l-17.2-14.2c-1.6-1.4-2.2-3.5-1.5-5.4c0.7-2,2.5-3.2,4.6-3.2h14.4
		c0.3,0,0.5,0.2,0.5,0.5v22.1c0,0.2-0.1,0.4-0.3,0.5C222.2,92.3,222.1,92.3,222.1,92.3z M207.8,70.2c-2,0-3.2,1.4-3.7,2.6
		s-0.4,3,1.2,4.3l16.3,13.6V70.3h-13.8V70.2z"/>
	<path class="st4" d="M207.8,70.2c-2,0-3.2,1.4-3.7,2.6s-0.4,3,1.2,4.3l16.3,13.6V70.3h-13.8V70.2z"/>
	<path class="st1" d="M222.1,123.3c-0.1,0-0.2,0-0.3-0.1L204.6,109c-1.6-1.4-2.2-3.5-1.5-5.4c0.7-2,2.5-3.2,4.6-3.2h14.4
		c0.3,0,0.5,0.2,0.5,0.5v22c0,0.2-0.1,0.4-0.3,0.5C222.2,123.2,222.1,123.3,222.1,123.3z M207.8,101.2c-2,0-3.2,1.4-3.7,2.6
		s-0.4,3,1.2,4.3l16.3,13.6v-20.4h-13.8V101.2z"/>
	<path class="st4" d="M207.8,101.2c-2,0-3.2,1.4-3.7,2.6s-0.4,3,1.2,4.3l16.3,13.6v-20.4h-13.8V101.2z"/>
	<path class="st1" d="M270.7,61.4c-0.1,0-0.1,0-0.2,0c-0.2-0.1-0.3-0.3-0.3-0.5V38.7c0-0.3,0.2-0.5,0.5-0.5h14.4
		c2.1,0,4,1.3,4.6,3.2c0.6,2,0.1,4.1-1.5,5.4L271,61.1C270.9,61.3,270.8,61.4,270.7,61.4z M271.2,39.2v20.4L287.6,46
		c1.6-1.3,1.6-3,1.2-4.3s-1.7-2.6-3.7-2.6h-13.8V39.2z"/>
	<path class="st4" d="M271.2,39.2v20.4L287.6,46c1.6-1.3,1.6-3,1.2-4.3s-1.7-2.6-3.7-2.6h-13.8V39.2z"/>
	<path class="st1" d="M270.7,92.3c-0.1,0-0.1,0-0.2,0c-0.2-0.1-0.3-0.3-0.3-0.5V69.7c0-0.3,0.2-0.5,0.5-0.5h14.4
		c2.1,0,4,1.3,4.6,3.2c0.6,2,0.1,4.1-1.5,5.4L271,92.1C270.9,92.3,270.8,92.3,270.7,92.3z M271.2,70.2v20.4L287.6,77
		c1.6-1.3,1.6-3,1.2-4.3s-1.7-2.6-3.7-2.6h-13.8V70.2z"/>
	<path class="st4" d="M271.2,70.2v20.4L287.6,77c1.6-1.3,1.6-3,1.2-4.3s-1.7-2.6-3.7-2.6h-13.8V70.2z"/>
	<path class="st1" d="M270.7,123.3c-0.1,0-0.1,0-0.2,0c-0.2-0.1-0.3-0.3-0.3-0.5v-22.1c0-0.3,0.2-0.5,0.5-0.5h14.4
		c2.1,0,4,1.3,4.6,3.2c0.6,2,0.1,4.1-1.5,5.4L271,123.1C270.9,123.2,270.8,123.3,270.7,123.3z M271.2,101.2v20.4l16.3-13.6
		c1.6-1.3,1.6-3,1.2-4.3c-0.4-1.3-1.7-2.6-3.7-2.6h-13.8V101.2z"/>
	<path class="st4" d="M271.2,101.2v20.4l16.3-13.6c1.6-1.3,1.6-3,1.2-4.3c-0.4-1.3-1.7-2.6-3.7-2.6h-13.8V101.2z"/>
	<path class="st6" d="M256.2,49.8c0,5.3-4.4,9.7-9.7,9.7s-9.7-4.4-9.7-9.7s4.4-9.7,9.7-9.7S256.2,44.4,256.2,49.8"/>
	<path class="st1" d="M253.5,265.8h-14.4V131.1h14.4V265.8z M240.3,264.7h12.3V132.1h-12.3V264.7z"/>
	<rect x="240.3" y="132.1" class="st4" width="12.3" height="132.6"/>
	<circle class="st7" cx="289.1" cy="224.5" r="8"/>
	<path class="st1" d="M289.1,233c-4.7,0-8.5-3.8-8.5-8.5c0-4.7,3.8-8.5,8.5-8.5s8.5,3.8,8.5,8.5C297.5,229.2,293.8,233,289.1,233z
		 M290.5,231.2c-0.2,0-0.3,0-0.4-0.1c-0.1-0.1-0.2-0.3-0.3-0.7c-0.1-0.8-0.1-3,0.2-3.6c0.3-0.4,0.6-0.6,1-0.6s0.9,0.1,1.8,0.4
		c1.3,0.4,1.9,0.6,2,1c0.1,0.3-0.1,0.6-0.4,1l0,0C293.7,229.8,291.6,231.2,290.5,231.2z M287.5,231.2c-0.2,0-0.4-0.1-0.7-0.2
		c-1.5-0.5-3.9-2.4-3.7-3.5c0.2-0.6,3-1.5,3.8-1.4c0.1,0,0.1,0,0.2,0c1,0.3,1.2,1,1.2,2.6c0,1.4-0.1,2-0.4,2.2
		C287.7,231.1,287.6,231.2,287.5,231.2z M289.1,226.1c-0.9,0-1.7-0.7-1.7-1.7s0.7-1.7,1.7-1.7s1.7,0.7,1.7,1.7
		S290,226.1,289.1,226.1z M295.2,225.7c-0.1,0-0.2,0-0.3,0c-0.8-0.1-2.9-0.8-3.4-1.4c-0.6-0.8-0.3-1.6,0.6-2.7
		c0.8-1.2,1.2-1.5,1.6-1.6c0.4,0,0.6,0.3,0.9,0.6c0.9,1.3,1.8,4.3,0.9,4.9C295.4,225.7,295.3,225.7,295.2,225.7z M282.9,225.5
		c-0.2,0-0.3,0-0.4-0.1c-0.3-0.2-0.3-0.5-0.3-1c0-1.6,1.2-4.5,2.1-4.5c0.6,0,2.5,2.7,2.5,3.4c0,1-0.6,1.4-2.2,1.9
		C283.8,225.4,283.2,225.5,282.9,225.5z M289.1,222.2c-0.7,0-1.2-0.5-1.9-1.6c-0.7-1.2-1.2-1.6-0.9-2c0.1-0.3,0.4-0.4,0.9-0.6l0,0
		c0.5-0.2,1.2-0.2,1.9-0.3l0,0h0.3c0.4,0,2.5,0.1,2.7,0.9c0.1,0.2,0,0.4-0.2,0.7c-0.4,0.8-1.7,2.5-2.3,2.7
		C289.4,222.2,289.2,222.2,289.1,222.2z M289.1,216.4c-4.4,0-8,3.6-8,8s3.6,8,8,8c4.4,0,8-3.6,8-8
		C297,220.1,293.5,216.4,289.1,216.4z"/>
	<path class="st4" d="M291.1,226.8L291.1,226.8c-0.3,0-0.5,0.1-0.7,0.4c-0.3,0.4-0.3,3.1,0,3.6c0.3,0.2,2.6-0.9,3.7-2.3
		c0.1-0.1,0.3-0.4,0.3-0.5c0-0.1-0.8-0.4-1.7-0.7C292,226.9,291.6,226.8,291.1,226.8z"/>
	<path class="st4" d="M286.9,226.7c-0.8,0-3,0.7-3.2,1c-0.1,0.4,1.7,2.2,3.2,2.7c0.2,0.1,0.5,0.2,0.6,0.1c0.1-0.1,0.1-0.9,0.2-1.8
		l0,0c0-1.7-0.2-2-0.7-2.1C287,226.7,287,226.7,286.9,226.7L286.9,226.7z"/>
	<circle class="st4" cx="289.1" cy="224.5" r="1.2"/>
	<path class="st4" d="M293.8,220.5L293.8,220.5L293.8,220.5c-0.2,0-0.6,0.6-1.2,1.4c-1,1.4-1,1.7-0.6,2.1c0.3,0.4,2.9,1.3,3.4,1.2
		c0.3-0.2-0.1-2.8-1-4.2C294.1,220.8,293.9,220.5,293.8,220.5z"/>
	<path class="st4" d="M284.3,220.4c-0.4,0-1.6,2.3-1.6,4c0,0.2,0,0.6,0.1,0.6c0.1,0.1,0.9-0.1,1.8-0.4c1.7-0.5,1.8-0.7,1.8-1.4
		C286.3,222.8,284.8,220.5,284.3,220.4z"/>
	<path class="st4" d="M287.3,218.5c-0.2,0.1-0.5,0.2-0.5,0.2c0,0.1,0.4,0.8,0.9,1.6c0.9,1.4,1.3,1.5,1.8,1.3
		c0.4-0.1,2.1-2.4,2.1-2.8c0-0.1-0.8-0.4-2.2-0.5h-0.1C288.4,218.2,287.8,218.3,287.3,218.5L287.3,218.5z"/>
</g>
<g id="Layer_3">
</g>
<g id="Layer_5">
	<path class="st8" d="M401,199.2c-12.2,0-20.9,1-26.3,2.7l-26.3,11.5c-3.5,0.7-7.3,1.2-11,1.5c-9.4,1.1-18.3,2-22.1,7
		c-1.7,2.2-2.3,5-1.9,8.6v0.2l-0.2,0.3c-0.8,1.2-1.1,1.5-1,2.9l1.1,6.8c0.2,1.4,1.2,2.3,2.6,2.6l10.5,0.6h118.7l8.9-0.7
		c1.3-0.1,2.2-0.6,3.1-1.7c3.7-5.2,4.2-14.2,1.5-25.9l0,0c-0.4-1.6-1.5-2.5-3.6-2.9l-14.6-2l-16.7-9.1c-3.5-1.3-6.9-2.1-13.4-2.3
		C406.9,199.3,403.8,199.2,401,199.2z"/>
	<path class="st1" d="M444.9,245.3H326.2l-10.6-0.6c-2-0.3-3.5-1.8-3.7-3.6l-1.1-6.8c-0.2-1.9,0.3-2.5,1.2-3.7
		c-0.4-3.8,0.3-6.8,2.2-9.2c4.2-5.3,13.3-6.3,22.9-7.4c3.6-0.4,7.4-0.8,10.9-1.5l26.2-11.5c6.8-2.3,18.8-3.2,35.9-2.6
		c6.8,0.2,10.1,1.1,13.8,2.4l16.7,9.1l14.3,2c2.5,0.4,4,1.7,4.5,3.8c2.9,12.3,2.3,21.3-1.7,27c-1.1,1.4-2.3,2.1-3.9,2.2L444.9,245.3
		z M401,199.2c-12.2,0-20.9,1-26.3,2.7l-26.3,11.5c-3.5,0.7-7.3,1.2-11,1.5c-9.4,1.1-18.3,2-22.1,7c-1.7,2.2-2.3,5-1.9,8.6v0.2
		l-0.2,0.3c-0.8,1.2-1.1,1.5-1,2.9l1.1,6.8c0.2,1.4,1.2,2.3,2.6,2.6l10.5,0.6h118.7l8.9-0.7c1.3-0.1,2.2-0.6,3.1-1.7
		c3.7-5.2,4.2-14.2,1.5-25.9l0,0c-0.4-1.6-1.5-2.5-3.6-2.9l-14.6-2l-16.7-9.1c-3.5-1.3-6.9-2.1-13.4-2.3
		C406.9,199.3,403.8,199.2,401,199.2z"/>
	<path class="st1" d="M334.5,219.3c-9.8,0-17.8,7.9-17.8,17.8s7.9,17.8,17.8,17.8c9.8,0,17.8-7.9,17.8-17.8S344.3,219.3,334.5,219.3
		z"/>
	<path class="st5" d="M334.5,253.7c-9.2,0-16.7-7.5-16.7-16.7c0-9.2,7.5-16.7,16.7-16.7c9.2,0,16.7,7.5,16.7,16.7
		C351.2,246.2,343.7,253.7,334.5,253.7z"/>
	<circle class="st7" cx="334.5" cy="237.1" r="11.4"/>
	<path class="st1" d="M334.5,249.4c-6.8,0-12.2-5.5-12.2-12.2c0-6.8,5.5-12.2,12.2-12.2c6.8,0,12.2,5.5,12.2,12.2
		C346.7,243.9,341.2,249.4,334.5,249.4z M336.6,246.7c-0.2,0-0.4,0-0.6-0.2c-0.2-0.1-0.3-0.4-0.4-1c-0.2-1.3-0.2-4.3,0.3-5.1
		c0.4-0.5,0.8-0.8,1.5-0.8s1.3,0.1,2.5,0.5c1.9,0.6,2.6,1,2.9,1.5c0.1,0.4-0.2,0.8-0.5,1.5l0,0C341.1,244.7,338.1,246.7,336.6,246.7
		z M332.3,246.7c-0.3,0-0.6-0.1-1.1-0.2c-2.1-0.7-5.6-3.5-5.2-4.9c0.3-0.8,4.4-2,5.5-2c0.1,0,0.2,0,0.2,0c1.5,0.4,1.7,1.6,1.6,3.8
		c-0.1,2-0.1,2.7-0.5,3.2C332.6,246.6,332.4,246.7,332.3,246.7z M334.5,239.5c-1.3,0-2.3-1.1-2.3-2.3c0-1.3,1.1-2.3,2.3-2.3
		c1.3,0,2.3,1.1,2.3,2.3C336.8,238.4,335.8,239.5,334.5,239.5z M343.3,238.8c-0.1,0-0.3,0-0.5,0c-1.3-0.2-4.2-1.2-4.8-1.9
		c-0.8-1.2-0.4-2.2,1-3.9c1.3-1.6,1.7-2.1,2.2-2.2c0.5-0.1,0.8,0.4,1.3,1c1.3,1.8,2.4,6.1,1.3,7
		C343.7,238.8,343.5,238.8,343.3,238.8z M325.7,238.7c-0.2,0-0.4-0.1-0.6-0.2c-0.4-0.3-0.4-0.8-0.4-1.5c0-2.2,1.6-6.4,3.1-6.4
		c1,0,3.6,3.8,3.6,4.9c0,1.5-1,2-3.1,2.6C327,238.5,326.2,238.7,325.7,238.7z M334.5,233.9c-1,0-1.7-0.7-2.7-2.2
		c-1.2-1.6-1.6-2.3-1.4-2.9c0.1-0.4,0.6-0.6,1.3-0.8l0,0c0.7-0.2,1.7-0.4,2.7-0.4l0,0h0.4c0.6,0,3.6,0.1,4,1.3
		c0.1,0.2,0,0.5-0.2,1.1c-0.5,1.2-2.4,3.6-3.3,3.9C334.9,233.9,334.7,233.9,334.5,233.9z M334.5,225.7c-6.3,0-11.4,5.2-11.4,11.4
		c0,6.3,5.2,11.4,11.4,11.4c6.2,0,11.4-5.2,11.4-11.4C345.9,230.9,340.8,225.7,334.5,225.7z"/>
	<path class="st4" d="M337.6,240.4C337.6,240.4,337.5,240.4,337.6,240.4c-0.5,0-0.7,0.2-1.1,0.5c-0.4,0.5-0.4,4.5-0.1,5.1
		c0.4,0.3,3.8-1.4,5.2-3.3c0.1-0.2,0.5-0.6,0.4-0.7c-0.1-0.2-1.3-0.6-2.3-1.1C338.7,240.6,338,240.4,337.6,240.4z"/>
	<path class="st4" d="M331.3,240.4c-1.2,0-4.3,1.1-4.7,1.5c-0.2,0.5,2.4,3.2,4.8,3.9c0.2,0.1,0.7,0.2,0.8,0.2
		c0.2-0.1,0.2-1.4,0.2-2.5l0,0c0.1-2.4-0.2-2.7-1.1-3.1C331.5,240.4,331.4,240.4,331.3,240.4C331.4,240.4,331.4,240.4,331.3,240.4z"
		/>
	<circle class="st4" cx="334.5" cy="237.1" r="1.6"/>
	<path class="st4" d="M341.3,231.5L341.3,231.5L341.3,231.5c-0.2,0-1,1-1.7,1.9c-1.5,1.9-1.4,2.4-1,3.1c0.4,0.5,4.1,1.8,4.8,1.6
		c0.4-0.3-0.1-4-1.5-5.9C341.7,232,341.4,231.5,341.3,231.5z"/>
	<path class="st4" d="M327.7,231.3c-0.5,0-2.2,3.3-2.2,5.7c0,0.3,0,0.8,0.1,0.8c0.2,0.1,1.4-0.2,2.5-0.5c2.3-0.6,2.5-1.1,2.5-1.9
		C330.6,234.8,328.4,231.5,327.7,231.3z"/>
	<path class="st4" d="M331.9,228.6c-0.2,0.1-0.7,0.2-0.8,0.3c-0.1,0.2,0.6,1.3,1.3,2.2c1.4,2,1.8,2.1,2.6,1.8c0.6-0.2,3.1-3.4,3.1-4
		c-0.1-0.2-1.2-0.6-3.1-0.7h-0.2C333.7,228.3,332.6,228.4,331.9,228.6L331.9,228.6z"/>
	<path class="st1" d="M429.3,219.3c-9.8,0-17.8,7.9-17.8,17.8s7.9,17.8,17.8,17.8c9.8,0,17.8-7.9,17.8-17.8
		C447.1,227.2,439,219.3,429.3,219.3z"/>
	<path class="st5" d="M429.3,253.7c-9.2,0-16.7-7.5-16.7-16.7c0-9.2,7.5-16.7,16.7-16.7c9.2,0,16.7,7.5,16.7,16.7
		C445.9,246.2,438.5,253.7,429.3,253.7z"/>
	<circle class="st7" cx="429.3" cy="237.1" r="11.4"/>
	<path class="st1" d="M429.3,249.4c-6.8,0-12.2-5.5-12.2-12.2c0-6.8,5.5-12.2,12.2-12.2c6.8,0,12.2,5.5,12.2,12.2
		C441.5,243.9,436,249.4,429.3,249.4z M431.3,246.7c-0.2,0-0.4,0-0.6-0.2c-0.2-0.1-0.3-0.4-0.4-1c-0.2-1.3-0.2-4.3,0.3-5.1
		c0.4-0.5,0.8-0.8,1.5-0.8s1.3,0.1,2.5,0.5c1.9,0.6,2.6,1,2.9,1.5c0.1,0.4-0.2,0.8-0.5,1.5l0,0C435.9,244.7,432.9,246.7,431.3,246.7
		z M427,246.7c-0.3,0-0.6-0.1-1.1-0.2c-2.1-0.7-5.6-3.5-5.2-4.9c0.3-0.8,4.4-2,5.5-2c0.1,0,0.2,0,0.2,0c1.5,0.4,1.7,1.6,1.6,3.8
		c-0.1,2-0.1,2.7-0.5,3.2C427.4,246.6,427.2,246.7,427,246.7z M429.3,239.5c-1.3,0-2.3-1.1-2.3-2.3c0-1.3,1.1-2.3,2.3-2.3
		s2.3,1.1,2.3,2.3C431.6,238.4,430.6,239.5,429.3,239.5z M438.1,238.8c-0.1,0-0.3,0-0.5,0c-1.3-0.2-4.2-1.2-4.8-1.9
		c-0.8-1.2-0.4-2.2,1-3.9c1.3-1.6,1.7-2.1,2.2-2.2c0.5-0.1,0.8,0.4,1.3,1c1.3,1.8,2.4,6.1,1.3,7
		C438.5,238.8,438.3,238.8,438.1,238.8z M420.4,238.7c-0.2,0-0.4-0.1-0.6-0.2c-0.4-0.3-0.4-0.8-0.4-1.5c0-2.2,1.6-6.4,3.1-6.4
		c1,0,3.6,3.8,3.6,4.9c0,1.5-1,2-3.1,2.6C421.7,238.5,421,238.7,420.4,238.7z M429.3,233.9c-1,0-1.7-0.7-2.7-2.2
		c-1.2-1.6-1.6-2.3-1.4-2.9c0.1-0.4,0.6-0.6,1.3-0.8l0,0c0.7-0.2,1.7-0.4,2.7-0.4l0,0h0.4c0.6,0,3.6,0.1,4,1.3
		c0.1,0.2,0,0.5-0.2,1.1c-0.5,1.2-2.4,3.6-3.3,3.9C429.7,233.9,429.5,233.9,429.3,233.9z M429.3,225.7c-6.3,0-11.4,5.2-11.4,11.4
		c0,6.3,5.2,11.4,11.4,11.4c6.3,0,11.4-5.2,11.4-11.4C440.7,230.9,435.5,225.7,429.3,225.7z"/>
	<path class="st4" d="M432.4,240.4C432.3,240.4,432.3,240.4,432.4,240.4c-0.5,0-0.7,0.2-1.1,0.5c-0.4,0.5-0.4,4.5-0.1,5.1
		c0.4,0.3,3.8-1.4,5.2-3.3c0.1-0.2,0.5-0.6,0.4-0.7c-0.1-0.2-1.3-0.6-2.3-1.1C433.4,240.6,432.8,240.4,432.4,240.4z"/>
	<path class="st4" d="M426.1,240.4c-1.2,0-4.3,1.1-4.7,1.5c-0.2,0.5,2.4,3.2,4.8,3.9c0.2,0.1,0.7,0.2,0.8,0.2
		c0.2-0.1,0.2-1.4,0.2-2.5l0,0c0.1-2.4-0.2-2.7-1.1-3.1C426.2,240.4,426.2,240.4,426.1,240.4C426.2,240.4,426.1,240.4,426.1,240.4z"
		/>
	<circle class="st4" cx="429.3" cy="237.1" r="1.6"/>
	<path class="st4" d="M436.1,231.5L436.1,231.5L436.1,231.5c-0.2,0-1,1-1.7,1.9c-1.5,1.9-1.4,2.4-1,3.1c0.4,0.5,4.1,1.8,4.8,1.6
		c0.4-0.3-0.1-4-1.5-5.9C436.5,232,436.2,231.5,436.1,231.5z"/>
	<path class="st4" d="M422.4,231.3c-0.5,0-2.2,3.3-2.2,5.7c0,0.3,0,0.8,0.1,0.8c0.2,0.1,1.4-0.2,2.5-0.5c2.3-0.6,2.5-1.1,2.5-1.9
		C425.4,234.8,423.1,231.5,422.4,231.3z"/>
	<path class="st4" d="M426.7,228.6c-0.2,0.1-0.7,0.2-0.8,0.3c-0.1,0.2,0.6,1.3,1.3,2.2c1.4,2,1.8,2.1,2.6,1.8c0.6-0.2,3.1-3.4,3.1-4
		c-0.1-0.2-1.2-0.6-3.1-0.7h-0.2C428.5,228.3,427.4,228.4,426.7,228.6L426.7,228.6z"/>
</g>
</svg>
