<svg xmlns="http://www.w3.org/2000/svg" viewBox="0 0 50 50"><style type="text/css">  
	.st0{fill:#7C878E;}
	.st1{fill-rule:evenodd;clip-rule:evenodd;fill:#7C878E;}
</style><path class="st0" d="M48.5 23.2c-2.5-4.1-5.9-7.4-10.1-9.9 -4.2-2.5-8.7-3.7-13.4-3.7s-9.2 1.2-13.4 3.7C7.4 15.8 4 19.1 1.5 23.2 1.2 23.8 1 24.4 1 25s0.2 1.2 0.5 1.8c2.5 4.1 5.9 7.4 10.1 9.9 4.2 2.5 8.7 3.7 13.4 3.7s9.2-1.2 13.4-3.7c4.2-2.5 7.6-5.8 10.1-9.9 0.4-0.6 0.5-1.2 0.5-1.8S48.8 23.8 48.5 23.2zM25 37c-9.4 0-17-5.2-17-11.7 0-6.4 7.6-11.7 17-11.7s17 5.2 17 11.7C42 31.8 34.4 37 25 37z"/><circle class="st1" cx="25" cy="25" r="8.4"/></svg>