<svg xmlns="http://www.w3.org/2000/svg" viewBox="0 0 160 160" class="undefined"><style>.a{fill:#7B878E;}.b{fill:none;}.c{fill:none;stroke:#FFF;}.d{fill:#7C878E;}.e{fill:#69D2DC;}</style><path d="M79.9 135c-30.4 0-55.2-24.7-55.2-55.2 0-30.4 24.7-55.2 55.2-55.2S135 49.5 135 79.9C135 110.3 110.3 135 79.9 135zM79.9 26.7c-29.3 0-53.2 23.8-53.2 53.2S50.6 133 79.9 133 133 109.2 133 79.9 109.2 26.7 79.9 26.7z" class="a"/><path d="M104.7 86.4c1.1 1.1 1.1 2.8 0 3.9 -1.1 1.1-2.8 1.1-3.9 0L98 87.5l-1.6 1.6 2.8 2.8c1.1 1.1 1.1 2.8 0 3.9 -1.1 1.1-2.8 1.1-3.9 0l-0.7-0.7c0 0 0 0 0 0l-2.1-2.1 -1.6 1.6 2.1 2.1c1.1 1.1 1.1 2.8 0 3.9 -1.1 1.1-2.8 1.1-3.9 0l-1.8-1.8L87 98.6v0l0 0 -0.8 0.8 -0.8 0.8 1.4 1.4c0.5 0.5 0.8 1.2 0.8 2 0 0.7-0.3 1.4-0.8 2 -1.1 1.1-2.8 1.1-3.9 0l-1.3-1.4 2-2c0.9-0.9 1.5-2.2 1.5-3.6 0-1.3-0.5-2.6-1.5-3.6 -0.9-1-2.2-1.5-3.5-1.5 -0.2 0-0.3 0-0.5 0 0.1-1.5-0.3-3-1.4-4.1 -0.9-1-2.2-1.5-3.5-1.5 -0.2 0-0.3 0-0.5 0 0.1-1.5-0.3-3-1.4-4.1 -0.9-1-2.2-1.5-3.5-1.5 -0.2 0-0.3 0-0.5 0 0.1-1.5-0.3-3-1.4-4.1 -0.9-1-2.2-1.5-3.5-1.5 -1.3 0-2.6 0.5-3.5 1.5l-2 2L44.9 67.3 58 54.2l7.6 7.6c1.2 1.2 2.4 1.7 4.1 1.7l5.1 0L67 71.4c-0.2 0.2-0.3 0.5-0.3 0.8 0 0.3 0.2 0.6 0.4 0.8 2.3 2 7.8 4.6 11.7 0.7l6.7-6.8 16.4 16.5 0 0L104.7 86.4z" class="b"/><path d="M104.7 86.4c1.1 1.1 1.1 2.8 0 3.9 -1.1 1.1-2.8 1.1-3.9 0L98 87.5l-1.6 1.6 2.8 2.8c1.1 1.1 1.1 2.8 0 3.9 -1.1 1.1-2.8 1.1-3.9 0l-0.7-0.7c0 0 0 0 0 0l-2.1-2.1 -1.6 1.6 2.1 2.1c1.1 1.1 1.1 2.8 0 3.9 -1.1 1.1-2.8 1.1-3.9 0l-1.8-1.8L87 98.6v0l0 0 -0.8 0.8 -0.8 0.8 1.4 1.4c0.5 0.5 0.8 1.2 0.8 2 0 0.7-0.3 1.4-0.8 2 -1.1 1.1-2.8 1.1-3.9 0l-1.3-1.4 2-2c0.9-0.9 1.5-2.2 1.5-3.6 0-1.3-0.5-2.6-1.5-3.6 -0.9-1-2.2-1.5-3.5-1.5 -0.2 0-0.3 0-0.5 0 0.1-1.5-0.3-3-1.4-4.1 -0.9-1-2.2-1.5-3.5-1.5 -0.2 0-0.3 0-0.5 0 0.1-1.5-0.3-3-1.4-4.1 -0.9-1-2.2-1.5-3.5-1.5 -0.2 0-0.3 0-0.5 0 0.1-1.5-0.3-3-1.4-4.1 -0.9-1-2.2-1.5-3.5-1.5 -1.3 0-2.6 0.5-3.5 1.5l-2 2L44.9 67.3 58 54.2l7.6 7.6c1.2 1.2 2.4 1.7 4.1 1.7l5.1 0L67 71.4c-0.2 0.2-0.3 0.5-0.3 0.8 0 0.3 0.2 0.6 0.4 0.8 2.4 2 7.8 4.6 11.7 0.7l6.7-6.8 16.4 16.5 0 0L104.7 86.4z" class="c"/><path d="M102.6 80.5L86.9 64.7c-0.2-0.2-0.5-0.3-0.8-0.3s-0.6 0.1-0.8 0.3l-7.5 7.6c-2.5 2.5-6 0.9-7.7-0.1l10.3-10.3c1.8-1.8 4.3-2.2 6.5-1.1l3.7 1.8c1.6 0.8 3.2 0.5 4.4-0.7l7.6-7.6 13.1 13.1L102.6 80.5z" class="b"/><path d="M102.8 52.2c-0.4-0.4-1.1-0.4-1.6 0l-8.4 8.4c-0.6 0.6-1.1 0.7-1.8 0.3l-3.7-1.8c-3.1-1.6-6.7-1-9.1 1.5l-1.1 1.1 -7.4 0c-1.1 0-1.8-0.3-2.5-1.1l-8.4-8.4c-0.4-0.4-1.1-0.4-1.6 0L42.6 66.9c-0.2 0.2-0.3 0.5-0.3 0.8 0 0.3 0.1 0.6 0.3 0.8l13.9 13.9 -3 3c-0.9 1-1.5 2.2-1.5 3.6 0 1.3 0.5 2.6 1.5 3.6 0.9 1 2.2 1.5 3.5 1.5 0.2 0 0.3 0 0.5 0 -0.1 1.5 0.3 3 1.4 4.1 0.9 1 2.2 1.5 3.5 1.5 0.2 0 0.3 0 0.5 0 -0.1 1.5 0.3 3 1.4 4.1 0.9 1 2.2 1.5 3.5 1.5 0.2 0 0.3 0 0.5 0 -0.1 1.5 0.3 3 1.4 4.1 0.9 1 2.2 1.5 3.5 1.5 1.3 0 2.6-0.5 3.5-1.5l3-3 1.3 1.4c1 1 2.3 1.5 3.5 1.5 1.3 0 2.6-0.5 3.5-1.5 0.9-0.9 1.5-2.2 1.5-3.5 0.4 0.1 0.8 0.1 1.2 0.1 1.3 0 2.6-0.5 3.5-1.5 1-1 1.4-2.2 1.5-3.5 0.4 0.1 0.8 0.1 1.2 0.1 1.3 0 2.6-0.5 3.5-1.5 1.1-1.1 1.6-2.6 1.4-4.1 0.2 0 0.3 0 0.5 0 1.3 0 2.6-0.5 3.5-1.5 2-2 2-5.2 0-7.1l-2.7-2.7 13.9-13.9c0.2-0.2 0.3-0.5 0.3-0.8 0-0.3-0.1-0.6-0.3-0.8L102.8 52.2zM55 90.9c-0.5-0.5-0.8-1.2-0.8-2 0-0.7 0.3-1.4 0.8-2l6.5-6.6c0.5-0.5 1.2-0.8 2-0.8 0.7 0 1.4 0.3 2 0.8 1.1 1.1 1.1 2.8 0 3.9L59 90.9C57.9 92 56.1 92 55 90.9zM64.4 96.5c-1 1-2.9 1-3.9 0 -1.1-1.1-1.1-2.8 0-3.9l6.5-6.6c0.5-0.5 1.2-0.8 2-0.8 0.7 0 1.4 0.3 2 0.8 1.1 1.1 1.1 2.8 0 3.9L64.4 96.5zM66 102c-1.1-1.1-1.1-2.8 0-3.9l6.5-6.6c0.5-0.5 1.2-0.8 2-0.8 0.7 0 1.4 0.3 2 0.8 1.1 1.1 1.1 2.8 0 3.9l-6.5 6.6C68.9 103 67.1 103 66 102zM75.4 107.5c-1 1.1-2.9 1-3.9 0 -1.1-1.1-1.1-2.8 0-3.9l6.5-6.6c0.5-0.5 1.2-0.8 2-0.8 0.7 0 1.4 0.3 2 0.8 0.5 0.5 0.8 1.2 0.8 2 0 0.7-0.3 1.4-0.8 2L75.4 107.5zM104.7 86.8c1.1 1.1 1.1 2.8 0 3.9 -1.1 1.1-2.8 1.1-3.9 0L98 87.9l-1.6 1.6 2.8 2.8c1.1 1.1 1.1 2.8 0 3.9 -1.1 1.1-2.8 1.1-3.9 0l-0.7-0.7c0 0 0 0 0 0l-2.1-2.1L90.9 95l2.1 2.1c1.1 1.1 1.1 2.8 0 3.9 -1.1 1.1-2.8 1.1-3.9 0l-1.8-1.8L87 98.9v0l0 0 -0.8 0.8 -0.8 0.8 1.4 1.4c0.5 0.5 0.8 1.2 0.8 2 0 0.7-0.3 1.4-0.8 2 -1.1 1.1-2.8 1.1-3.9 0l-1.3-1.4 2-2c0.9-0.9 1.5-2.2 1.5-3.6 0-1.3-0.5-2.6-1.5-3.6 -0.9-1-2.2-1.5-3.5-1.5 -0.2 0-0.3 0-0.5 0 0.1-1.5-0.3-3-1.4-4.1 -0.9-1-2.2-1.5-3.5-1.5 -0.2 0-0.3 0-0.5 0 0.1-1.5-0.3-3-1.4-4.1 -0.9-1-2.2-1.5-3.5-1.5 -0.2 0-0.3 0-0.5 0 0.1-1.5-0.3-3-1.4-4.1 -0.9-1-2.2-1.5-3.5-1.5 -1.3 0-2.6 0.5-3.5 1.5l-2 2L44.9 67.7 58 54.5l7.6 7.6c1.2 1.2 2.4 1.7 4.1 1.7l5.1 0L67 71.8c-0.2 0.2-0.3 0.5-0.3 0.8 0 0.3 0.2 0.6 0.4 0.8 2.3 2 7.8 4.6 11.7 0.7l6.7-6.8L101.9 84l0 0L104.7 86.8zM102 80.8L86.3 65c-0.2-0.2-0.5-0.3-0.8-0.3 -0.3 0-0.6 0.1-0.8 0.3l-7.5 7.6c-2.5 2.5-6 0.9-7.7-0.1l10.3-10.3c1.8-1.8 4.3-2.2 6.5-1.1l3.7 1.8c1.6 0.8 3.2 0.5 4.4-0.7l7.6-7.6 13.1 13.1L102 80.8z" class="d"/><path d="M102 80.8L86.3 65c-0.2-0.2-0.5-0.3-0.8-0.3 -0.3 0-0.6 0.1-0.8 0.3l-7.5 7.6c-2.5 2.5-6 0.9-7.7-0.1l10.3-10.3c1.8-1.8 4.3-2.2 6.5-1.1l3.7 1.8c1.6 0.8 3.2 0.5 4.4-0.7l7.6-7.6 13.1 13.1L102 80.8z" class="e"/><path d="M55.1 91c-0.5-0.5-0.8-1.2-0.8-2 0-0.7 0.3-1.4 0.8-2l6.5-6.6c0.5-0.5 1.2-0.8 2-0.8 0.7 0 1.4 0.3 2 0.8 1.1 1.1 1.1 2.8 0 3.9L59 91C57.9 92 56.1 92 55.1 91zM64.5 96.5c-1 1-2.9 1-3.9 0 -1.1-1.1-1.1-2.8 0-3.9l6.5-6.6c0.5-0.5 1.2-0.8 2-0.8 0.7 0 1.4 0.3 2 0.8 1.1 1.1 1.1 2.8 0 3.9L64.5 96.5zM66.1 102c-1.1-1.1-1.1-2.8 0-3.9l6.5-6.6c0.5-0.5 1.2-0.8 2-0.8 0.7 0 1.4 0.3 2 0.8 1.1 1.1 1.1 2.8 0 3.9L70 102C68.9 103.1 67.1 103.1 66.1 102zM75.5 107.6c-1 1.1-2.9 1-3.9 0 -1.1-1.1-1.1-2.8 0-3.9l6.5-6.6c0.5-0.5 1.2-0.8 2-0.8 0.7 0 1.4 0.3 2 0.8 0.5 0.5 0.8 1.2 0.8 2 0 0.7-0.3 1.4-0.8 2L75.5 107.6z" class="e"/></svg>