<?xml version="1.0" encoding="utf-8"?>
<svg version="1.1" id="Layer_1" xmlns="http://www.w3.org/2000/svg" x="0" y="0" viewBox="0 0 246.5 246.5" style="enable-background:new 0 0 246.5 246.5;" xml:space="preserve">
  <style type="text/css">
    .st0{fill:#15A3B2;} .st1{fill:none;stroke:#E2E5E7;stroke-width:2.73;stroke-miterlimit:10;} .st2{fill:none;stroke:#E2E5E7;stroke-width:1.82;stroke-miterlimit:10;} .st3{fill:#FFFFFF;stroke:#E2E5E7;stroke-width:2.73;stroke-miterlimit:10;} .st4{fill:none;stroke:#7C878E;stroke-miterlimit:10;} .st5{fill:#3C474E;} .st6{fill:#FFFFFF;}
  </style>
  <path class="st0" d="M79.2 71.4H121.1V88.4H79.2z"/>
  <title>
    WesBank Icons v1_aj
  </title>
  <path class="st1" d="M122.8,176.5c41.3,0,74.9-33.6,74.9-74.7c0-41.2-33.7-74.7-74.9-74.7c-41.3,0-74.9,33.6-74.9,74.7	C47.8,142.9,81.5,176.5,122.8,176.5z"/>
  <path class="st2" d="M32,101.6c0,50.1,41,90.9,91.2,90.9c50.2,0,91.2-40.9,91.2-90.9c0-50.1-41-90.9-91.2-90.9	C73,10.6,32,51.5,32,101.6"/>
  <path class="st3" d="M122.8,176.5c41.3,0,74.9-33.6,74.9-74.7c0-41.2-33.7-74.7-74.9-74.7c-41.3,0-74.9,33.6-74.9,74.7	C47.8,142.9,81.5,176.5,122.8,176.5z"/>
  <path class="st2" d="M32,101.6c0,50.1,41,90.9,91.2,90.9c50.2,0,91.2-40.9,91.2-90.9c0-50.1-41-90.9-91.2-90.9	C73,10.6,32,51.5,32,101.6"/>
  <path class="st4" d="M79.5 70.8H171.7V88.5H79.5z"/>
  <path class="st0" d="M79.2 97.1H142.4V114.1H79.2z"/>
  <path class="st4" d="M79.5 96.5H171.7V114.2H79.5z"/>
  <path class="st5" d="M151.1,113.9h-14.4c-1.1,0-2-0.9-2-2v-13c0-1.1,0.9-2,2-2h14.4c1.1,0,2,0.9,2,2v13	C153.1,113,152.2,113.9,151.1,113.9z"/>
  <path class="st6" d="M141 108.5h-.7c-.5 0-.9-.4-.9-.9v-5.1c0-.5.4-.9.9-.9h.7c.5 0 .9.4.9.9v5.1C141.8 108.1 141.4 108.5 141 108.5zM144.8 108.5H144c-.5 0-.9-.4-.9-.9v-5.1c0-.5.4-.9.9-.9h.7c.5 0 .9.4.9.9v5.1C145.6 108.1 145.2 108.5 144.8 108.5zM148.6 108.5h-.7c-.5 0-.9-.4-.9-.9v-5.1c0-.5.4-.9.9-.9h.7c.5 0 .9.4.9.9v5.1C149.4 108.1 149.1 108.5 148.6 108.5z"/>
  <path class="st0" d="M79.2 121.6H121.1V138.6H79.2z"/>
  <path class="st4" d="M79.5 121H171.7V138.7H79.5z"/>
  <path class="st5" d="M121.1,138.4h-14.4c-1.1,0-2-0.9-2-2v-13c0-1.1,0.9-2,2-2h14.4c1.1,0,2,0.9,2,2v13	C123.1,137.5,122.2,138.4,121.1,138.4z"/>
  <path class="st6" d="M111 133h-.7c-.5 0-.9-.4-.9-.9v-5.1c0-.5.4-.9.9-.9h.7c.5 0 .9.4.9.9v5.1C111.8 132.6 111.4 133 111 133zM114.8 133H114c-.5 0-.9-.4-.9-.9v-5.1c0-.5.4-.9.9-.9h.7c.5 0 .9.4.9.9v5.1C115.6 132.6 115.2 133 114.8 133zM118.6 133h-.7c-.5 0-.9-.4-.9-.9v-5.1c0-.5.4-.9.9-.9h.7c.5 0 .9.4.9.9v5.1C119.4 132.6 119.1 133 118.6 133z"/>
  <path class="st0" d="M79.2 71.1H120.30000000000001V88.1H79.2z"/>
  <path class="st5" d="M131.1,88.1h-14.4c-1.1,0-2-0.9-2-2v-13c0-1.1,0.9-2,2-2h14.4c1.1,0,2,0.9,2,2v13	C133.1,87.2,132.2,88.1,131.1,88.1z"/>
  <path class="st6" d="M121 82.8h-.7c-.5 0-.9-.4-.9-.9v-5.1c0-.5.4-.9.9-.9h.7c.5 0 .9.4.9.9v5.1C121.8 82.4 121.4 82.8 121 82.8zM124.8 82.8H124c-.5 0-.9-.4-.9-.9v-5.1c0-.5.4-.9.9-.9h.7c.5 0 .9.4.9.9v5.1C125.6 82.4 125.2 82.8 124.8 82.8zM128.6 82.8h-.7c-.5 0-.9-.4-.9-.9v-5.1c0-.5.4-.9.9-.9h.7c.5 0 .9.4.9.9v5.1C129.4 82.4 129.1 82.8 128.6 82.8z"/>
</svg>
