<?xml version="1.0" encoding="utf-8"?>
<!-- Generator: Adobe Illustrator 21.0.2, SVG Export Plug-In . SVG Version: 6.00 Build 0)  -->
<svg version="1.1" id="Layer_1" xmlns="http://www.w3.org/2000/svg" xmlns:xlink="http://www.w3.org/1999/xlink" x="0px" y="0px"
	 viewBox="0 0 55 65" style="enable-background:new 0 0 55 65;" xml:space="preserve">
<style type="text/css">
	.st0{clip-path:url(#SVGID_2_);}
	.st1{clip-path:url(#SVGID_4_);fill:#15A3B2;}
	.st2{clip-path:url(#SVGID_6_);}
	.st3{clip-path:url(#SVGID_8_);fill:#15A3B2;}
	.st4{clip-path:url(#SVGID_10_);}
	.st5{clip-path:url(#SVGID_12_);fill:#15A3B2;}
	.st6{clip-path:url(#SVGID_14_);}
	.st7{clip-path:url(#SVGID_16_);fill:#15A3B2;}
	.st8{clip-path:url(#SVGID_18_);}
	.st9{clip-path:url(#SVGID_20_);fill:#15A3B2;}
</style>
<g>
	<defs>
		<path id="SVGID_1_" d="M41.1,46.6L41.1,46.6h0.3H41.1z M38.8,53.4c0,0.6-0.2,1.1-0.8,1.1l-24.5-2.7h-0.2c-0.6,0-1.1-0.5-1.1-1.1
			v-1.5v-33c0-1.4,0.9-1.1,1.2-1.1l1.4,0.2L38,17.8H38c0.6,0,0.8,0.5,0.8,1.1v25.5V45v1.5v0.7V53.4z M14.5,10.4
			c0-0.5,0.4-0.8,1.2-0.8L30.9,11l-16.4,1.4V10.4z M22.7,13.9l18.1-1.6c0.8,0,1.1,0.5,1.1,0.9v30.5c0,0.4,0,0.8-0.8,0.8V18.9
			c0-1.7-1.2-3.3-3-3.3L22.7,13.9z M10,16.1v34.5c0,1.7,1.6,3.2,3.3,3.3L38,56.6c1.7,0,3.1-1.4,3.1-3.3v-6.4c1.5-0.2,3-1.4,3-3v-0.3
			V13.1v-0.3c0-1.7-1.3-3-3.1-3l-25-2.3h-0.3c-1.8,0-3.5,1.4-3.5,3v2.6C12.3,13.1,10,12.9,10,16.1z"/>
	</defs>
	<clipPath id="SVGID_2_">
		<use xlink:href="#SVGID_1_"  style="overflow:visible;"/>
	</clipPath>
	<g class="st0">
		<defs>
			<rect id="SVGID_3_" x="-480" y="-769" width="1440" height="1928"/>
		</defs>
		<clipPath id="SVGID_4_">
			<use xlink:href="#SVGID_3_"  style="overflow:visible;"/>
		</clipPath>
		<rect x="5" y="2.5" class="st1" width="44.2" height="59.2"/>
	</g>
</g>
<g>
	<defs>
		<path id="SVGID_5_" d="M34.6,35.5l-18-2.2c-0.8,0-1.4-0.5-1.4-1.1v-1c0-0.6,0.6-1.1,1.4-1.1l18,2.2c0.8,0,1.4,0.5,1.4,1.1v1
			C35.9,35,35.3,35.5,34.6,35.5z"/>
	</defs>
	<clipPath id="SVGID_6_">
		<use xlink:href="#SVGID_5_"  style="overflow:visible;"/>
	</clipPath>
	<g class="st2">
		<defs>
			<rect id="SVGID_7_" x="-480" y="-769" width="1440" height="1928"/>
		</defs>
		<clipPath id="SVGID_8_">
			<use xlink:href="#SVGID_7_"  style="overflow:visible;"/>
		</clipPath>
		<rect x="10.3" y="25" class="st3" width="30.7" height="15.5"/>
	</g>
</g>
<g>
	<defs>
		<path id="SVGID_9_" d="M34.6,42.2l-18-2.2c-0.8,0-1.4-0.5-1.4-1.1v-1c0-0.6,0.6-1.1,1.4-1.1l18,2.2c0.8,0,1.4,0.5,1.4,1.1v1
			C35.9,41.7,35.3,42.2,34.6,42.2z"/>
	</defs>
	<clipPath id="SVGID_10_">
		<use xlink:href="#SVGID_9_"  style="overflow:visible;"/>
	</clipPath>
	<g class="st4">
		<defs>
			<rect id="SVGID_11_" x="-480" y="-769" width="1440" height="1928"/>
		</defs>
		<clipPath id="SVGID_12_">
			<use xlink:href="#SVGID_11_"  style="overflow:visible;"/>
		</clipPath>
		<rect x="10.3" y="31.8" class="st5" width="30.7" height="15.5"/>
	</g>
</g>
<g>
	<defs>
		<path id="SVGID_13_" d="M34.6,49l-18-2.2c-0.8,0-1.4-0.5-1.4-1.1v-1c0-0.6,0.6-1.1,1.4-1.1l18,2.2c0.8,0,1.4,0.5,1.4,1.1v1
			C35.9,48.4,35.3,49,34.6,49z"/>
	</defs>
	<clipPath id="SVGID_14_">
		<use xlink:href="#SVGID_13_"  style="overflow:visible;"/>
	</clipPath>
	<g class="st6">
		<defs>
			<rect id="SVGID_15_" x="-480" y="-769" width="1440" height="1928"/>
		</defs>
		<clipPath id="SVGID_16_">
			<use xlink:href="#SVGID_15_"  style="overflow:visible;"/>
		</clipPath>
		<rect x="10.3" y="38.5" class="st7" width="30.7" height="15.5"/>
	</g>
</g>
<g>
	<defs>
		<path id="SVGID_17_" d="M26.1,27.6l-9.2-0.8c-0.6,0-1.1-0.5-1.1-1.1v-4.8c0-0.6,0.5-1.1,1.1-1.1l9.3,0.9c0.6,0,1.1,0.5,1.1,1.1
			v4.8C27.3,27.2,26.7,27.6,26.1,27.6z"/>
	</defs>
	<clipPath id="SVGID_18_">
		<use xlink:href="#SVGID_17_"  style="overflow:visible;"/>
	</clipPath>
	<g class="st8">
		<defs>
			<rect id="SVGID_19_" x="-480" y="-769" width="1440" height="1928"/>
		</defs>
		<clipPath id="SVGID_20_">
			<use xlink:href="#SVGID_19_"  style="overflow:visible;"/>
		</clipPath>
		<rect x="10.7" y="14.9" class="st9" width="21.6" height="17.7"/>
	</g>
</g>
</svg>
