<?xml version="1.0" encoding="utf-8"?>
<svg version="1.1" id="Layer_1" xmlns="http://www.w3.org/2000/svg" x="0" y="0" viewBox="0 0 246.5 246.5" style="enable-background:new 0 0 246.5 246.5;" xml:space="preserve">
  <style type="text/css">
    .st0{fill:#E2E5E7;} .st1{fill:#FFFFFF;stroke:#E2E5E7;stroke-width:2.73;stroke-miterlimit:10;} .st2{fill-rule:evenodd;clip-rule:evenodd;fill:#F39200;} .st3{fill:#15A3B2;}
  </style>
  <title>
    ico_quickquote
  </title>
  <g>
    <path class="st0" d="M122.8,177.9c-42.1,0-76.3-34.1-76.3-76.1c0-42,34.2-76.1,76.3-76.1s76.3,34.1,76.3,76.1 C199.1,143.7,164.8,177.9,122.8,177.9z M122.8,28.4c-40.6,0-73.6,32.9-73.6,73.4c0,40.5,33,73.4,73.6,73.4 c40.6,0,73.6-32.9,73.6-73.4C196.3,61.3,163.3,28.4,122.8,28.4z"/>
  </g>
  <g>
    <path class="st0" d="M123.3,193.5c-50.8,0-92.1-41.2-92.1-91.9c0-50.7,41.3-91.9,92.1-91.9c50.8,0,92.1,41.2,92.1,91.9 C215.4,152.2,174,193.5,123.3,193.5z M123.3,11.6c-49.8,0-90.3,40.4-90.3,90c0,49.6,40.5,90,90.3,90s90.3-40.4,90.3-90 C213.5,51.9,173,11.6,123.3,11.6z"/>
  </g>
  <path class="st1" d="M122.8,177.9c-42.1,0-76.3-34.1-76.3-76.1c0-42,34.2-76.1,76.3-76.1s76.3,34.1,76.3,76.1	C199.1,143.7,164.8,177.9,122.8,177.9z"/>
  <g>
    <path class="st0" d="M123.3,193.5c-50.8,0-92.1-41.2-92.1-91.9c0-50.7,41.3-91.9,92.1-91.9c50.8,0,92.1,41.2,92.1,91.9 C215.4,152.2,174,193.5,123.3,193.5z M123.3,11.6c-49.8,0-90.3,40.4-90.3,90c0,49.6,40.5,90,90.3,90s90.3-40.4,90.3-90 C213.5,51.9,173,11.6,123.3,11.6z"/>
  </g>
  <g>
    <path class="st2" d="M139.3,88.3c1,0,1.7,1,1.3,1.9l-14.4,35.7c-0.1,0.3-0.1,0.7,0,1l4.4,11.3c0.5,1.2,2.2,1.2,2.6,0l23.5-58.4 c0.4-0.9-0.3-1.9-1.3-1.9l-66.4,0c-1.2,0-1.9,1.4-1.1,2.3l6.8,7.7c0.3,0.3,0.7,0.5,1.1,0.5H139.3z"/>
  </g>
  <g>
    <path class="st3" d="M127.8,93.5H84.6c-1.2,0-1.9,1.4-1.1,2.3l8.6,9c0.3,0.3,0.7,0.5,1.1,0.5h17.2c1,0,3.6,0.9,2.8,4.3l-5.8,15.1 l-0.7,2.1c0,0,0,0.1,0,0.1l0,0.1c0,0,0,0,0,0.1c0,0.1,0,0.1,0,0.2c0,0.1,0,0.1,0,0.2c0,0.1,0,0.1,0,0.2c0,0,0,0,0,0 c0,0.1,0,0.2,0.1,0.3c0,0,0,0,0,0c0,0.1,0,0.1,0.1,0.2l0,0.1c0,0,0,0,0,0l1.1,1.9l0.5,0.8l4.1,7.6c0.8,1.3,2.2,1.2,2.6,0l16.1-40.2 C131.6,97.3,131.7,93.5,127.8,93.5z"/>
  </g>
</svg>
