<svg xmlns="http://www.w3.org/2000/svg" viewBox="0 0 160 160" class="undefined"><style>.a{fill:#69D2DC;}.b{fill:#F39200;}.c{fill:#7B878E;}.d{fill:#7C878E;}</style><path d="M122.4 79.3c0.2-0.4 0.1-1.1-0.3-1.4L112 70.5c6.8-0.4 8 1.7 9.1 1.7 1.1 0 1.1-0.9 1.3-1.4 0.2-0.4 0.1-0.1-0.3-0.4l-21.6-15.5c-0.1 0-0.1-0.1-0.2-0.1 -0.6-0.2-15.4-6.3-31.7 5.9 -11.4 8.3-17.6 7.8-29 4.7 -0.4-0.1 0.1 0.1-0.2 0.5 -0.2 0.4-0.1 1 0.2 1.3l6.9 7.2c-1.9-0.3-4.1-0.9-6.9-1.6 -0.4-0.1 0.1 0.1-0.2 0.5 -0.2 0.4-0.1 1 0.2 1.3l6.9 7.2c-2.1-0.4-4.3-0.9-7.1-1.7 -0.4-0.1 0.1 0.1-0.2 0.5 -0.3 0.4-0.2 1 0.1 1.4l6.9 7.2c-1.9-0.3-4.3-0.3-7-1.1 -0.4-0.1 0.2-0.4 0 0 -0.3 0.3-0.2 0.9 0.1 1.2l19 18.2c0.1 0.1 0.3 0.2 0.4 0.2 3.1 0.7 5.7 1.1 8 1.1 7.4 0 12.5-3.4 21.9-10.3 14.4-10.5 31.9-4.1 32.1-4.1 0.5 0.2 1.1 0 1.3-0.5 0.2-0.4 0.1-1.1-0.3-1.4l-10-7.2c5.4 0.4 9.1 1.8 9.2 1.8 0.5 0.2 1.1 0 1.3-0.5 0.2-0.4 0.1-1.1-0.3-1.4L112 77.9c5.4 0.4 9.1 1.8 9.2 1.8C121.6 79.9 122.2 79.7 122.4 79.3" class="a"/><path d="M87.8 97.1c-0.9 0.7-2.7 2.3-3.5 2.9l-0.3-21.3v-0.1 -0.1c0-0.1 0-0.1-0.1-0.2v-0.1L83.9 78c0 0 0-0.1-0.1-0.1L67.5 63.3c0.5-0.3 2.2-2 2.8-2.3 1.6-1.3 3.4-1.4 5-2.2l16.3 14.7 0.3 21.3C90.4 95.3 89.2 96.2 87.8 97.1" class="b"/><path d="M80.4 136c-30.4 0-55.2-24.7-55.2-55.2 0-30.4 24.7-55.2 55.2-55.2s55.2 24.7 55.2 55.2C135.5 111.3 110.8 136 80.4 136zM80.4 27.7c-29.3 0-53.2 23.8-53.2 53.2S51.1 134 80.4 134s53.2-23.8 53.2-53.2S109.7 27.7 80.4 27.7z" class="c"/><path d="M122.4 79.3c0.2-0.4 0.1-1.1-0.3-1.4L112 70.4c5.4 0.4 9.1 1.8 9.2 1.8 0.5 0.2 1.1 0 1.3-0.5 0.2-0.4 0.1-1.1-0.3-1.4l-21.6-15.7c-0.1 0-0.1-0.1-0.2-0.1 -0.6-0.2-15.4-6.4-31.7 6 -11.4 8.4-17.6 7.9-28.9 4.8 -0.4-0.1-0.9 0.1-1.2 0.5 -0.2 0.4-0.1 1 0.2 1.3l7.9 7.3c-1.9-0.3-4.1-0.9-6.8-1.6 -0.4-0.1-0.9 0.1-1.2 0.5 -0.2 0.4-0.1 1 0.2 1.3l7.9 7.3c-2.1-0.4-4.3-0.9-7.1-1.7 -0.4-0.1-0.9 0.1-1.2 0.5 -0.3 0.4-0.2 1 0.1 1.4l7.9 7.3c-1.9-0.3-4.1-0.9-6.8-1.6 -0.4-0.1-0.9 0.1-1.2 0.5 -0.3 0.3-0.2 0.9 0.1 1.2l20 18.4c0.1 0.1 0.3 0.2 0.4 0.2 3.1 0.8 5.7 1.1 8 1.1 7.4 0 12.5-3.5 21.9-10.4 14.4-10.6 31.9-4.1 32.1-4.1 0.5 0.2 1.1 0 1.3-0.5 0.2-0.4 0.1-1.1-0.3-1.4l-10-7.3c5.4 0.4 9.1 1.8 9.2 1.8 0.5 0.2 1.1 0 1.3-0.5 0.2-0.4 0.1-1.1-0.3-1.4L112 77.9c5.4 0.4 9.1 1.8 9.2 1.8C121.5 79.9 122.2 79.7 122.4 79.3zM90.5 54.9c4.9 0 8.3 1.3 8.9 1.5l16.8 12.3c-5.6-1.1-14.6-1.5-23.6 2.9L76.9 57.9c5.3-2.4 9.9-3 13.4-3H90.5zM66.5 64.4l15.7 14.2c-8.3 5.7-12.8 7.1-22.4 5L43.2 68.3C51.7 70.3 57.9 70.1 66.5 64.4zM49.2 76.8l9.4 8.6c0.1 0.1 0.3 0.2 0.4 0.2 3.1 0.8 5.7 1.1 8 1.1 5.6 0 9.9-2 15.8-6l0.1 4.9c-8.7 6.2-13.3 7.8-23.2 5.5L43.2 75.8C45.6 76.3 47.4 76.7 49.2 76.8zM49.2 84.2l9.4 8.6c0.1 0.1 0.3 0.2 0.4 0.2 3.1 0.8 5.7 1.1 8.1 1.1 5.6 0 9.8-2 15.8-6.1l0.1 4.9c-8.8 6.3-13.4 7.8-23.3 5.6L43.2 83.3C45.6 83.8 47.4 84.1 49.2 84.2zM59.8 106L43.2 90.7c2.3 0.5 4.2 0.9 6 1l9.4 8.6c0.1 0.1 0.3 0.2 0.4 0.2 3.1 0.8 5.7 1.1 8 1.1 5.7 0 10-2.1 16-6.2l0.1 4.8C74.2 106.7 69.8 108.3 59.8 106zM87.8 97c-0.9 0.7-1.8 1.3-2.5 1.8l-0.3-20.1v-0.1 -0.1c0-0.1 0-0.1-0.1-0.2v-0.1l-0.1-0.1c0 0 0-0.1-0.1-0.1L68.3 63.2c0.5-0.3 1.1-0.8 1.6-1.1 1.7-1.3 3.3-2.3 4.9-3.1l16.7 14.5 0.3 21.1C90.4 95.2 89.1 96.1 87.8 97zM116.3 91.2c-5.4-1.1-13.9-1.6-22.4 2.3l-0.1-5.1c4.9-2.4 10-3.3 14.3-3.3L116.3 91.2zM116.3 83.7c-5.4-1-14-1.5-22.5 2.4L93.6 81c4.9-2.5 10-3.3 14.4-3.3L116.3 83.7zM93.6 78.6l-0.1-5.1c5.1-2.5 10.1-3.4 14.5-3.4l8.1 6C110.8 75.1 102.2 74.7 93.6 78.6z" class="d"/></svg>