<?xml version="1.0" encoding="utf-8"?>
<svg version="1.1" id="Layer_1" xmlns="http://www.w3.org/2000/svg" x="0" y="0" viewBox="0 0 246.5 246.5" style="enable-background:new 0 0 246.5 246.5;" xml:space="preserve">
  <style type="text/css">
    .st0{fill:#FFFFFF;stroke:#E2E5E7;stroke-width:2.73;stroke-miterlimit:10;} .st1{fill:#F2BC47;} .st2{fill:#7C878E;} .st3{fill:#FFFFFF;} .st4{fill:#15A3B2;} .st5{fill:#F39200;} .st6{fill:#E2E5E7;}
  </style>
  <path class="st0" d="M122.8,177.9c-42.1,0-76.3-34.1-76.3-76.1c0-42,34.2-76.1,76.3-76.1S199,59.8,199,101.8	C199,143.7,164.8,177.9,122.8,177.9z"/>
  <title>
    WesBank Icons v1_aj
  </title>
  <g>
    <path class="st1" d="M139.4,62.1v10.2h-32.9V62.1h9c0-3.3,3.3-5.9,7.4-5.9s7.4,2.7,7.4,5.9H139.4z"/>
    <path class="st2" d="M139.9,72.8H106V61.6h9c0.3-3.3,3.7-5.9,7.9-5.9c4.2,0,7.6,2.6,7.9,5.9h9.1V72.8z M107,71.8h31.9v-9.2h-9v-0.5 c0-3-3.1-5.4-6.9-5.4s-6.9,2.4-6.9,5.4v0.5h-9V71.8z"/>
  </g>
  <g>
    <path class="st3" d="M153.9 63.7L153.9 147.1 91.9 147.1 91.9 63.7 106.5 63.7 106.5 72.4 139.4 72.4 139.4 63.7z"/>
    <path class="st2" d="M154.4,147.7h-63V63.2H107v8.7h31.9v-8.7h15.5V147.7z M92.4,146.7h61V64.2h-13.5v8.7H106v-8.7H92.4V146.7z"/>
  </g>
  <g>
    <path class="st2" d="M102 113.6L99.1 110.2 100.6 108.9 102 110.5 105.7 106.4 107.2 107.7z"/>
  </g>
  <path class="st2" d="M109.6 109.7H144V111.7H109.6z"/>
  <g>
    <path class="st2" d="M102 124.8L99.1 121.5 100.6 120.2 102 121.8 105.7 117.6 107.2 118.9z"/>
  </g>
  <path class="st2" d="M109.6 121H144V123H109.6z"/>
  <g>
    <path class="st2" d="M102 135.4L99.1 132.1 100.6 130.8 102 132.4 105.7 128.2 107.2 129.5z"/>
  </g>
  <path class="st2" d="M109.6 131.6H144V133.6H109.6z"/>
  <g>
    <path class="st4" d="M113,92.8c0-0.6,0.9-1.3,2.4-0.9c1.6,0.5,3,1.4,4.2,2.7c1.5,1.5,2.2,3.5,2.2,5.6c0.1,0.4-0.2,0.8-0.6,0.9 c-0.1,0-0.2,0-0.2,0l0,0C118.6,101,112.9,96.3,113,92.8z M125.4,100.1c-0.1-2.1,0.7-4.1,2.2-5.6c1.1-1.2,2.6-2.2,4.2-2.7 c1.5-0.3,2.4,0.4,2.4,1c0.1,3.6-5.6,8.2-7.8,8.2c-0.4,0-0.8-0.3-0.9-0.7C125.4,100.2,125.4,100.1,125.4,100.1L125.4,100.1z M120.5,90.5c0-1.7,1.3-3,3-3s3,1.3,3,3s-1.3,3-3,3C121.8,93.5,120.5,92.2,120.5,90.5L120.5,90.5z M112.9,88.1 c0.4-4.3,5.4-8.6,10.6-8.6c6.8,0,10.5,5.7,10.7,8.6c0,0.4-0.4,0.5-0.9,0.5c-0.9-0.1-1.8-0.2-2.7-0.6c-1.8-0.5-4.4-1.7-6.9-1.7 c-3.5,0-7,1.8-9.1,2.2c-0.2,0-0.5,0.1-0.8,0.1C113.3,88.6,112.9,88.5,112.9,88.1L112.9,88.1z M110.5,90.3c0,7.2,5.8,13,13,13 c7.2,0,13-5.8,13-13s-5.8-13-13-13l0,0C116.3,77.3,110.5,83.1,110.5,90.3L110.5,90.3z"/>
  </g>
  <path class="st2" d="M123.6,103.4c-7.3,0-13.2-5.9-13.2-13.2s5.9-13.2,13.2-13.2c7.3,0,13.2,5.9,13.2,13.2	C136.7,97.5,130.8,103.4,123.6,103.4z M123.6,77.3c-7.1,0-12.9,5.8-12.9,12.9c0,7.1,5.8,12.9,12.9,12.9s12.9-5.8,12.9-12.9	C136.5,83.1,130.7,77.4,123.6,77.3z M120.9,101.1c-1.2,0-3.5-1.4-5.3-3.2c-1-1-2.7-3.1-2.6-5.1l0,0c0-0.3,0.2-0.6,0.5-0.8	c0.6-0.4,1.4-0.5,2.1-0.3c1.6,0.5,3.1,1.5,4.2,2.7c1.5,1.5,2.2,3.5,2.2,5.6c0.1,0.5-0.3,0.9-0.7,1	C121,101.1,120.9,101.1,120.9,101.1L120.9,101.1z M113.1,92.8c0,1.4,0.9,3.2,2.5,4.9s4,3.2,5.2,3.2l0,0c0.4,0,0.7-0.2,0.8-0.6	c0-0.1,0-0.1,0-0.2c0.1-2-0.7-4-2.1-5.5c-1.1-1.2-2.5-2.2-4.1-2.7c-0.6-0.2-1.3-0.1-1.9,0.3C113.3,92.3,113.2,92.5,113.1,92.8z M126.3,101.1c-0.5,0.1-0.9-0.3-1-0.8c0-0.1,0-0.1,0-0.2l0,0c-0.1-2.1,0.7-4.1,2.2-5.6c1.1-1.3,2.6-2.2,4.2-2.8	c0.7-0.2,1.5-0.1,2.1,0.3c0.3,0.2,0.4,0.5,0.5,0.8c0.1,2-1.6,4-2.6,5.1C129.9,99.7,127.6,101.1,126.3,101.1z M125.5,100.1	c-0.1,0.4,0.2,0.7,0.6,0.8c0.1,0,0.1,0,0.2,0c1.2,0,3.4-1.4,5.2-3.2s2.6-3.5,2.5-4.9c0-0.2-0.2-0.5-0.4-0.6	c-0.6-0.4-1.3-0.5-1.9-0.3c-1.6,0.5-3,1.5-4.1,2.7C126.2,96.1,125.5,98,125.5,100.1L125.5,100.1z M123.5,93.7	c-1.7,0-3.2-1.4-3.2-3.2s1.4-3.2,3.2-3.2c1.7,0,3.2,1.4,3.2,3.2C126.7,92.3,125.3,93.7,123.5,93.7L123.5,93.7z M123.5,87.6	c-1.6,0-2.9,1.3-2.9,2.9c0,1.6,1.3,2.9,2.9,2.9c1.6,0,2.9-1.3,2.9-2.9C126.5,88.9,125.2,87.6,123.5,87.6	C123.6,87.6,123.6,87.6,123.5,87.6L123.5,87.6z M133.4,88.7h-0.1c-0.8,0-1.7-0.2-2.5-0.5c-0.1,0-0.2-0.1-0.3-0.1l-1.4-0.5	c-1.7-0.7-3.6-1.1-5.4-1.2c-2.2,0.1-4.4,0.6-6.5,1.4c-0.9,0.3-1.7,0.6-2.6,0.8c-0.3,0-0.5,0.1-0.8,0.1c-0.3,0-0.7,0-0.9-0.2	c-0.1-0.1-0.1-0.2-0.1-0.3c0.4-4.5,5.6-8.8,10.7-8.8c6.7,0,10.6,5.7,10.8,8.7c0,0.1,0,0.3-0.1,0.4C134,88.6,133.7,88.7,133.4,88.7	L133.4,88.7z M123.7,86.2c1.9,0.1,3.8,0.5,5.5,1.2l1.4,0.5l0.3,0.1c0.8,0.3,1.6,0.4,2.4,0.5c0.2,0,0.5,0,0.7-0.2	c0.1-0.1,0.1-0.1,0.1-0.2c-0.2-3-4-8.5-10.6-8.5c-5,0-10.1,4.2-10.5,8.5l0,0c0,0.1,0,0.1,0,0.1s0.2,0.2,0.8,0.2c0.3,0,0.5,0,0.8-0.1	c0.9-0.2,1.7-0.5,2.6-0.8C119.2,86.8,121.5,86.3,123.7,86.2L123.7,86.2z"/>
  <g>
    <path class="st5" d="M121.4,90.5c0,1.2,1,2.1,2.1,2.1s2.1-1,2.1-2.1c0-1.2-1-2.1-2.1-2.1h0C122.4,88.4,121.4,89.4,121.4,90.5z"/>
  </g>
  <g>
    <path class="st6" d="M123.2,193.5c-50.8,0-92.1-41.2-92.1-91.9c0-50.7,41.3-91.9,92.1-91.9c50.8,0,92.1,41.2,92.1,91.9 C215.3,152.2,174,193.5,123.2,193.5z M123.2,11.6c-49.8,0-90.3,40.4-90.3,90c0,49.6,40.5,90,90.3,90s90.3-40.4,90.3-90 C213.5,51.9,173,11.6,123.2,11.6z"/>
  </g>
</svg>
