<svg xmlns="http://www.w3.org/2000/svg" viewBox="0 0 160 160" class="undefined"><style>.a{fill:none;}.b{fill:#7B878E;}.c{fill:#69D2DC;}.d{fill:#FFF;}.e{fill:#7C878E;}.f{fill:#F2BC47;}.g{fill:#15A3B2;}</style><circle cx="80.2" cy="80.7" r="54.2" class="a"/><path d="M80.2 135.8c-30.4 0-55.2-24.7-55.2-55.2 0-30.4 24.7-55.2 55.2-55.2s55.2 24.7 55.2 55.2C135.4 111.1 110.7 135.8 80.2 135.8zM80.2 27.5c-29.3 0-53.2 23.8-53.2 53.2s23.8 53.2 53.2 53.2 53.2-23.8 53.2-53.2S109.5 27.5 80.2 27.5z" class="b"/><path d="M69.9 93.2l0 2.8c0 0.5-0.5 1-1 1h-6.1c-0.6 0-1-0.4-1-1V82.8c0-1.4 0.3-2.4 1-3.2l1.3-1.5L61.3 77c-0.2-0.1-0.3-0.2-0.3-0.4l0.2-1.3c0.1-0.5 0.7-0.9 1.3-0.9h2.6c0.2 0 0.3 0.1 0.4 0.2l0.6 0.8 0.3 0 4.1-5.7c0.2-0.3 0.7-0.7 1.6-0.8 7.9-0.5 14.3-0.5 22.1 0 0.9 0.1 1.4 0.6 1.6 0.8l4.1 5.7 0.3 0 0.6-0.8c0.1-0.1 0.2-0.2 0.4-0.2h2.6c0.5 0 1.1 0.4 1.3 0.9l0.2 1.3c0.1 0.2-0.1 0.3-0.3 0.4l-2.7 1.2 1.3 1.5c0.7 0.8 1 1.9 1 3.2V96c0 0.5-0.5 1-1 1h-6.1c-0.6 0-1-0.4-1-1l0-2.8C87.4 93.7 79 93.7 69.9 93.2z" class="c"/><path d="M103.6 97.5h-6.1c-0.8 0-1.5-0.7-1.5-1.5l0-2.3c-8.7 0.5-16.9 0.5-25.6 0l0 2.3c0 0.8-0.7 1.5-1.5 1.5h-6.1c-0.8 0-1.5-0.7-1.5-1.5V82.8c0-1.4 0.3-2.6 1.1-3.6l0.9-1 -2.1-0.9c-0.6-0.3-0.7-0.7-0.6-1l0.2-1.3c0.2-0.8 1-1.3 1.7-1.3h2.6c0.4 0 0.7 0.2 0.8 0.4l0.3 0.4 3.8-5.4c0.5-0.6 1.2-1 1.9-1.1 7.9-0.5 14.4-0.5 22.2 0 0.8 0.1 1.4 0.4 1.9 1l3.8 5.4 0.3-0.4c0.1-0.2 0.4-0.4 0.8-0.4h2.6c0.8 0 1.5 0.6 1.7 1.3l0.3 1.4c0.1 0.2 0 0.7-0.6 0.9l-2.1 0.9 0.8 1c0.8 0.9 1.1 2.1 1.1 3.6V96C105.1 96.8 104.4 97.5 103.6 97.5zM97 92.7l0 3.3c0 0.3 0.2 0.5 0.5 0.5h6.1c0.3 0 0.5-0.2 0.5-0.5V82.8c0-1.2-0.3-2.2-0.9-2.9l-1.7-2 3.3-1.4 -0.2-1.2c-0.1-0.3-0.4-0.5-0.8-0.5h-2.6l-0.7 0.9 -0.8 0 -4.2-6c-0.3-0.4-0.7-0.6-1.2-0.6 -7.8-0.5-14.2-0.5-22.1 0 -0.5 0.1-0.9 0.3-1.2 0.7l-4.2 5.9 -0.8 0 -0.7-1 -2.6 0c-0.3 0-0.7 0.3-0.8 0.6l-0.2 1.1 3.3 1.4 -1.8 2c-0.6 0.7-0.9 1.7-0.9 2.9V96c0 0.3 0.2 0.5 0.5 0.5h6.1c0.3 0 0.5-0.2 0.5-0.5l0-3.3 0.5 0c9 0.5 17.5 0.5 26.5 0L97 92.7zM104.8 76.7C104.8 76.7 104.8 76.7 104.8 76.7L104.8 76.7zM61.5 76.7L61.5 76.7C61.5 76.7 61.5 76.7 61.5 76.7z" class="b"/><path d="M99.9 75.3c0.4 1.7-1.1 2-3.4 2.1 -9.2 0.4-17.5 0.4-26.6 0 -2.3-0.1-3.8-0.4-3.4-2.1l4.1-5.7c0 0 0-0.6 1.6-0.8 1.6-0.2 20.4-0.4 22.1 0.5C95.8 70 99.9 75.3 99.9 75.3z" class="d"/><path d="M83.2 78.2c-4.4 0-8.7-0.1-13.3-0.3 -1.9-0.1-3.1-0.3-3.7-1.1 -0.3-0.4-0.4-1-0.2-1.6L66 75l4-5.7c0.5-0.5 0.5-0.9 2-1.1 1.1-0.2 20.7-0.7 22.7 0.4 1.7 0.9 5.2 5.8 5.6 6.4l0.1 0.2c0.2 0.7 0.1 1.2-0.2 1.6 -0.6 0.8-1.8 1-3.7 1.1C91.9 78 87.5 78.2 83.2 78.2zM66.9 75.5c-0.1 0.5 0 0.6 0.1 0.7 0.4 0.5 1.7 0.6 2.9 0.7 9.2 0.4 17.4 0.4 26.6 0 1.2-0.1 2.5-0.2 2.9-0.7 0-0.1 0.2-0.2 0.1-0.7 -1.2-1.6-4-5.7-5.3-6.3 -1.4-0.7-20.3-0.3-22 0 -1 0.1-1.2 0.4-1.2 0.4L66.9 75.5z" class="e"/><path d="M65.6 82.4c2 0.4 3.9 0.7 5.8 0.9 0.3 0 0.6 0.4 0.5 0.6l-0.3 0.6C71.5 84.8 71.3 85 71 85c-1.9 0-3.7-0.2-5.7-0.4 -0.3 0-0.6-0.3-0.5-0.6l0.1-1.1C65 82.6 65.3 82.3 65.6 82.4z" class="f"/><path d="M71 85.5C71 85.5 71 85.5 71 85.5c-1.8 0-3.6-0.2-5.7-0.4 -0.3 0-0.6-0.2-0.7-0.4 -0.2-0.2-0.3-0.5-0.2-0.8l0.1-1.1c0-0.3 0.2-0.6 0.4-0.7 0.2-0.2 0.5-0.2 0.8-0.2l0 0c2.3 0.5 4.1 0.7 5.7 0.9 0.3 0 0.7 0.2 0.9 0.5 0.2 0.3 0.2 0.5 0.1 0.8l-0.3 0.6C71.9 85.2 71.5 85.5 71 85.5zM65.5 82.9C65.5 82.9 65.5 82.9 65.5 82.9L65.3 84l0.1 0.1c2.1 0.2 3.9 0.4 5.6 0.4 0 0 0.1 0 0.2-0.2l0.2-0.5c0 0 0 0-0.1 0C69.6 83.6 67.8 83.4 65.5 82.9L65.5 82.9C65.5 82.9 65.5 82.9 65.5 82.9z" class="b"/><rect x="63.7" y="77" transform="matrix(0.6571 -0.7538 0.7538 0.6571 -36.2665 75.2637)" width="1.7" height="1" class="b"/><path d="M100.7 82.4c-2 0.4-3.9 0.7-5.8 0.9 -0.3 0-0.6 0.4-0.5 0.6l0.3 0.6c0.1 0.3 0.3 0.5 0.6 0.5 1.9 0 3.7-0.2 5.7-0.4 0.3 0 0.6-0.3 0.5-0.6l-0.1-1.1C101.3 82.6 101.1 82.3 100.7 82.4z" class="f"/><path d="M95.3 85.5c-0.5 0-0.9-0.3-1.1-0.8L94 84.1c-0.1-0.3-0.1-0.5 0.1-0.8 0.2-0.3 0.5-0.5 0.9-0.5 1.7-0.1 3.4-0.4 5.7-0.9 0.3-0.1 0.6 0 0.8 0.2 0.2 0.2 0.4 0.4 0.4 0.7l0.1 1.1c0 0.3 0 0.6-0.2 0.8 -0.2 0.2-0.4 0.4-0.7 0.4C98.9 85.4 97.1 85.5 95.3 85.5 95.3 85.5 95.3 85.5 95.3 85.5zM94.9 83.8l0.2 0.5c0.1 0.2 0.1 0.2 0.2 0.2 1.7 0 3.5-0.2 5.6-0.4L101 84l-0.2-1.1C98.5 83.4 96.7 83.6 94.9 83.8 95 83.8 95 83.8 94.9 83.8zM94.9 83.7L94.9 83.7 94.9 83.7z" class="b"/><rect x="101.2" y="76.6" transform="matrix(0.7541 -0.6568 0.6568 0.7541 -25.8767 85.8791)" width="1" height="1.7" class="b"/><path d="M74.9 83.9c5.5 0.3 11 0.3 16.4 0 0.5 0 0.9 0.4 0.9 0.8l-0.2 2.6c0 0.5-0.4 0.8-0.9 0.8 -5.4 0.2-10.7 0.2-16 0 -0.5 0-0.8-0.4-0.9-0.8l-0.2-2.6C74 84.2 74.5 83.8 74.9 83.9z" class="g"/><path d="M83.2 88.8c-2.7 0-5.4-0.1-8.1-0.2 -0.7 0-1.3-0.6-1.4-1.3l-0.2-2.6c0-0.4 0.1-0.7 0.4-1 0.3-0.3 0.7-0.4 1-0.4l0 0c5.3 0.3 10.9 0.3 16.4 0 0.4 0 0.8 0.1 1 0.4 0.3 0.3 0.4 0.6 0.4 1l-0.2 2.6c-0.1 0.7-0.6 1.3-1.3 1.3C88.6 88.8 85.9 88.8 83.2 88.8zM74.9 84.4c-0.1 0-0.2 0-0.2 0.1 0 0-0.1 0.1-0.1 0.2l0.2 2.6c0 0.2 0.2 0.4 0.4 0.4 5.4 0.2 10.7 0.2 16 0 0.2 0 0.4-0.2 0.4-0.4l0.2-2.6c0-0.1 0-0.2-0.1-0.2 -0.1-0.1-0.2-0.1-0.3-0.1C85.9 84.7 80.3 84.7 74.9 84.4L74.9 84.4C74.9 84.4 74.9 84.4 74.9 84.4z" class="b"/><path d="M86.2 69.1c0 0.5-0.4 0.8-0.9 0.8h-4.5c-0.5 0-0.9-0.4-0.9-0.8s0.4-0.8 0.9-0.8h4.5C85.8 68.2 86.2 68.6 86.2 69.1" class="e"/><path d="M54.5 100.8c-0.5 0.2-0.8 0.6-0.8 1.1v11.6c0 0.8 0.5 1.3 1.2 1.4 1.9 0.1 3.6 0.8 5.3 1.6 4.1 1.9 7.8 3.8 11.8 5.6 1.8 0.8 3 1.3 4.2 1.4 1.7 0.1 4.7-0.3 7.8-0.8 3.1-0.5 6.2-1 7-1.1 2.5-0.1 4.5-2 5.8-2.8 1.7-1.1 3.7-2.3 5.3-4 0.7-0.7 1.2-1.3 1.2-2.1 -0.1-0.8-1.1-1-1.1-1s1-0.9 1-1.4c0.2-1.5-1.3-2.2-2.6-2.3 -2.3-0.1-4.4 1.3-5.5 2.4 -1.8 1.7-3.6 2.3-6.3 2.6 -3.1 0.4-6.1 0.6-8.9-0.3 -1.3-0.5-2.3-1-3.5-1.4 -0.3-0.1-0.5-0.2-0.8-0.3 1-0.1 2.5-0.4 3.9-0.2 1.7 0.2 7.1 0.8 9.3 0.6 0.9-0.1 2.1-0.2 2.6-0.6 1.4-1.2 1.7-3.2 1-4.4 -0.7-1.1-2-1.4-3.3-1.8 -3.6-1.2-7.7-1-11-1.6 -0.7-0.1-2-0.9-3.7-1.7 -1.8-0.8-4-1.7-7-2 -0.8-0.1-1.6-0.1-2.4-0.1C61.5 99.1 57.9 99.8 54.5 100.8z" class="f"/><path d="M76.9 124c-0.2 0-0.5 0-0.7 0 -1.2-0.1-2.6-0.7-4.4-1.5 -2.3-1-4.5-2.1-6.9-3.2 -1.6-0.8-3.2-1.6-4.9-2.3 -1.9-0.9-3.4-1.4-5.2-1.5 -1-0.1-1.6-0.8-1.7-1.9l0-11.6c0-0.7 0.5-1.4 1.1-1.6l0 0c3.7-1.2 7.3-1.8 10.7-1.8 0.8 0 1.6 0 2.5 0.1 3.3 0.3 5.7 1.3 7.2 2 0.6 0.3 1.1 0.5 1.5 0.8 0.9 0.5 1.7 0.8 2.1 0.9 1.2 0.2 2.6 0.3 4 0.5 2.4 0.2 4.8 0.4 7.1 1.1l0.3 0.1c1.3 0.4 2.6 0.7 3.3 2 0.8 1.4 0.5 3.7-1.1 5.1 -0.7 0.6-1.9 0.7-2.9 0.8 -2.4 0.1-8.3-0.5-9.4-0.6 -0.6-0.1-1.1-0.1-1.7 0 0.2 0.1 0.3 0.1 0.5 0.2 0.6 0.2 1.1 0.5 1.8 0.7 2.7 0.9 5.5 0.6 8.6 0.3 2.4-0.3 4.3-0.8 6-2.4 0.7-0.6 3-2.6 5.9-2.5 1.1 0.1 2 0.5 2.6 1.2 0.4 0.5 0.6 1.1 0.5 1.7 0 0.4-0.3 0.8-0.6 1.2 0.3 0.2 0.7 0.6 0.7 1.1 0 1.1-0.7 1.8-1.4 2.5 -1.5 1.6-3.3 2.8-5 3.8l-0.4 0.2c-0.3 0.2-0.5 0.4-0.8 0.6 -1.3 0.9-3.1 2.2-5.2 2.3 -0.6 0-2.8 0.4-5.1 0.8l-1.8 0.3C81.3 123.5 78.7 124 76.9 124zM54.7 101.3c-0.3 0.1-0.5 0.4-0.5 0.6v11.6c0 0.5 0.3 0.8 0.7 0.9 2.1 0.1 3.9 0.9 5.5 1.6 1.7 0.8 3.3 1.6 4.9 2.4 2.3 1.1 4.5 2.2 6.8 3.2 1.7 0.8 3 1.3 4 1.4 1.7 0.1 4.7-0.4 7.7-0.8l1.9-0.3c2.4-0.4 4.5-0.7 5.2-0.8 1.8-0.1 3.4-1.2 4.7-2.1 0.3-0.2 0.6-0.4 0.9-0.6l0.4-0.2c1.6-1 3.4-2.2 4.8-3.7 0.7-0.7 1.1-1.2 1.1-1.8 0-0.4-0.6-0.5-0.6-0.5l-1-0.2 0.7-0.7c0.4-0.4 0.8-0.9 0.9-1.1 0-0.4 0-0.7-0.3-1 -0.4-0.4-1.1-0.8-1.8-0.8 -2.5-0.1-4.5 1.7-5.1 2.2 -1.9 1.8-4 2.4-6.5 2.7 -3.1 0.4-6.2 0.6-9.1-0.3 -0.7-0.2-1.3-0.5-1.8-0.7 -0.6-0.2-1.1-0.5-1.7-0.7l-0.2-0.1c-0.2-0.1-0.3-0.1-0.5-0.1l-3.8-0.5 4-0.5c1-0.1 2.5-0.3 3.8-0.2 1.1 0.1 6.9 0.8 9.2 0.6 0.5 0 1.8-0.1 2.3-0.5 1.3-1 1.5-2.8 0.9-3.8 -0.5-0.9-1.5-1.2-2.7-1.5l-0.3-0.1c-2.2-0.7-4.6-0.9-6.9-1.1 -1.4-0.1-2.8-0.2-4.1-0.5 -0.6-0.1-1.3-0.5-2.4-1 -0.5-0.2-1-0.5-1.5-0.7 -1.5-0.7-3.7-1.6-6.8-1.9 -0.8-0.1-1.6-0.1-2.4-0.1C61.7 99.6 58.2 100.2 54.7 101.3z" class="b"/><path d="M44.7 98c-0.3 0-0.6 0.1-0.8 0.3 -0.2 0.2-0.3 0.5-0.3 0.8v17.3c0 0.3 0.1 0.6 0.3 0.8 0.2 0.2 0.5 0.3 0.8 0.3H49c0.3 0 0.6-0.1 0.8-0.3 0.2-0.2 0.3-0.5 0.3-0.8V99.1c0-0.3-0.1-0.6-0.3-0.8C49.6 98.1 49.3 98 49 98H44.7z" class="g"/><path d="M49 118.1h-4.3c-0.4 0-0.9-0.2-1.2-0.5 -0.3-0.3-0.5-0.7-0.5-1.2V99.1c0-0.4 0.2-0.9 0.5-1.2 0.3-0.3 0.7-0.5 1.2-0.5H49c0.4 0 0.9 0.2 1.2 0.5 0.3 0.3 0.5 0.7 0.5 1.2v17.3c0 0.4-0.2 0.9-0.5 1.2C49.8 117.9 49.4 118.1 49 118.1zM44.7 98.5c-0.2 0-0.4 0.1-0.5 0.2C44.1 98.8 44 99 44 99.1v17.3c0 0.2 0.1 0.4 0.2 0.5 0.1 0.1 0.3 0.2 0.5 0.2H49c0.2 0 0.4-0.1 0.5-0.2 0.1-0.1 0.2-0.3 0.2-0.5V99.1c0-0.2-0.1-0.4-0.2-0.5 -0.1-0.1-0.3-0.2-0.5-0.2H44.7z" class="b"/><path d="M108.8 64.5c0.5-0.2 0.8-0.6 0.8-1.1V51.8c0-0.8-0.5-1.3-1.2-1.4 -1.9-0.1-3.6-0.8-5.3-1.6 -4.1-1.9-7.8-3.8-11.8-5.6 -1.8-0.8-3-1.3-4.2-1.4 -1.7-0.1-4.7 0.3-7.8 0.8 -3.1 0.5-6.2 1-7 1.1 -2.5 0.1-4.5 2-5.8 2.8 -1.7 1.1-3.7 2.3-5.3 4 -0.7 0.7-1.2 1.3-1.2 2.1 0.1 0.8 1.1 1 1.1 1s-1 0.9-1 1.4c-0.2 1.5 1.3 2.2 2.6 2.3 2.3 0.1 4.4-1.3 5.5-2.4 1.8-1.7 3.6-2.3 6.3-2.6 3.1-0.4 6.1-0.6 8.9 0.3 1.3 0.5 2.3 1 3.5 1.4 0.3 0.1 0.5 0.2 0.8 0.3 -1 0.1-2.5 0.4-3.9 0.2 -1.7-0.2-7.1-0.8-9.3-0.6 -0.9 0.1-2.1 0.2-2.6 0.6 -1.4 1.2-1.7 3.2-1 4.4 0.7 1.1 2 1.4 3.3 1.8 3.6 1.2 7.7 1 11 1.6 0.7 0.1 2 0.9 3.7 1.7 1.8 0.8 4 1.7 7 2 0.8 0.1 1.6 0.1 2.4 0.1C101.8 66.2 105.4 65.5 108.8 64.5z" class="f"/><path d="M97.9 66.7c-0.7 0-1.4 0-2.1-0.1 -3.3-0.3-5.7-1.3-7.2-2 -0.6-0.3-1.1-0.5-1.5-0.8 -0.9-0.5-1.7-0.8-2.1-0.9 -1.2-0.2-2.6-0.3-4-0.5 -2.4-0.2-4.8-0.4-7.1-1.1l-0.3-0.1c-1.3-0.4-2.6-0.7-3.3-2 -0.8-1.4-0.5-3.7 1.1-5.1 0.7-0.6 1.9-0.7 2.9-0.8 2.4-0.1 8.3 0.5 9.4 0.6 0.6 0.1 1.1 0.1 1.7 0C85.3 54.1 85.1 54 85 54c-0.6-0.2-1.1-0.5-1.8-0.7 -2.7-0.9-5.5-0.6-8.6-0.3 -2.4 0.3-4.3 0.8-6 2.4 -0.7 0.6-3 2.6-5.9 2.5 -1.1-0.1-2-0.5-2.6-1.2 -0.4-0.5-0.6-1.1-0.5-1.7 0-0.4 0.3-0.8 0.6-1.2 -0.3-0.2-0.7-0.6-0.7-1.1 0-1.1 0.7-1.8 1.4-2.5 1.5-1.6 3.3-2.8 5-3.8l0.4-0.2c0.3-0.2 0.5-0.4 0.8-0.6 1.3-0.9 3.1-2.2 5.2-2.3 0.6 0 2.8-0.4 5.1-0.8l1.8-0.3c3.1-0.5 6.1-1 7.9-0.8 1.2 0.1 2.6 0.7 4.4 1.5 2.3 1 4.5 2.1 6.8 3.2 1.6 0.8 3.2 1.6 4.9 2.3 1.9 0.9 3.4 1.4 5.2 1.5 1 0.1 1.6 0.8 1.7 1.9l0 11.6c0 0.7-0.5 1.4-1.1 1.6l0 0c-3.7 1.2-7.3 1.8-10.7 1.8C98.2 66.7 98 66.7 97.9 66.7zM75.2 54.5c-0.3 0-0.5 0-0.7 0 -0.5 0-1.8 0.1-2.3 0.5 -1.3 1-1.5 2.8-0.9 3.8 0.5 0.9 1.5 1.2 2.7 1.5l0.3 0.1c2.2 0.7 4.6 0.9 6.9 1.1 1.4 0.1 2.8 0.2 4.1 0.5 0.6 0.1 1.3 0.5 2.4 1 0.5 0.2 1 0.5 1.5 0.7 1.5 0.7 3.7 1.6 6.8 1.9 0.8 0.1 1.6 0.1 2.4 0.1 3.4 0 6.9-0.6 10.4-1.8 0.3-0.1 0.5-0.4 0.5-0.6V51.8c0-0.5-0.3-0.8-0.7-0.9 -2.1-0.1-3.9-0.9-5.5-1.6 -1.7-0.8-3.3-1.6-4.9-2.4 -2.3-1.1-4.5-2.2-6.8-3.2 -1.7-0.8-3-1.3-4-1.4 -1.7-0.1-4.7 0.4-7.7 0.8l-1.9 0.3c-2.4 0.4-4.5 0.7-5.2 0.8 -1.8 0.1-3.4 1.2-4.7 2.1 -0.3 0.2-0.6 0.4-0.9 0.6l-0.4 0.2c-1.6 1-3.4 2.2-4.8 3.7 -0.7 0.7-1.1 1.2-1.1 1.8 0 0.4 0.6 0.5 0.6 0.5l1 0.2L61.5 54c-0.4 0.4-0.8 0.9-0.9 1.1 0 0.4 0 0.7 0.3 1 0.4 0.4 1.1 0.8 1.8 0.8 2.5 0.1 4.6-1.7 5.1-2.2 1.9-1.8 4-2.4 6.5-2.7 3.1-0.4 6.2-0.6 9.1 0.3 0.7 0.2 1.3 0.5 1.8 0.7 0.6 0.2 1.1 0.5 1.7 0.7l0.2 0.1c0.2 0.1 0.3 0.1 0.5 0.1l3.8 0.5L87.5 55c-1 0.1-2.5 0.3-3.8 0.2C82.6 55 77.8 54.5 75.2 54.5z" class="e"/><path d="M118.7 67.3c0.3 0 0.6-0.1 0.8-0.3 0.2-0.2 0.3-0.5 0.3-0.8V48.8c0-0.3-0.1-0.6-0.3-0.8 -0.2-0.2-0.5-0.3-0.8-0.3h-4.3c-0.3 0-0.6 0.1-0.8 0.3 -0.2 0.2-0.3 0.5-0.3 0.8v17.3c0 0.3 0.1 0.6 0.3 0.8 0.2 0.2 0.5 0.3 0.8 0.3H118.7z" class="g"/><path d="M118.7 67.8h-4.3c-0.4 0-0.9-0.2-1.2-0.5 -0.3-0.3-0.5-0.7-0.5-1.2V48.8c0-0.4 0.2-0.9 0.5-1.2 0.3-0.3 0.7-0.5 1.2-0.5h4.3c0.4 0 0.9 0.2 1.2 0.5 0.3 0.3 0.5 0.7 0.5 1.2v17.3c0 0.4-0.2 0.9-0.5 1.2C119.6 67.6 119.1 67.8 118.7 67.8zM114.4 48.2c-0.2 0-0.4 0.1-0.5 0.2 -0.1 0.1-0.2 0.3-0.2 0.5v17.3c0 0.2 0.1 0.4 0.2 0.5 0.1 0.1 0.3 0.2 0.5 0.2h4.3c0.2 0 0.4-0.1 0.5-0.2 0.1-0.1 0.2-0.3 0.2-0.5V48.8c0-0.2-0.1-0.4-0.2-0.5 -0.1-0.1-0.3-0.2-0.5-0.2H114.4z" class="e"/></svg>