<?xml version="1.0" encoding="utf-8"?>
<svg version="1.1" id="Layer_1" xmlns="http://www.w3.org/2000/svg" x="0" y="0" viewBox="0 0 246.5 246.5" style="enable-background:new 0 0 246.5 246.5;" xml:space="preserve">
  <style type="text/css">
    .st0{fill:#FFFFFF;stroke:#E2E5E7;stroke-width:2.73;stroke-miterlimit:10;} .st1{fill:#F5F5F5;stroke:#7C878E;stroke-miterlimit:10;} .st2{fill:#7C878E;} .st3{fill:#15A3B2;} .st4{fill:#F2BC47;} .st5{fill:#CF3F27;} .st6{fill:none;stroke:#E2E5E7;stroke-width:1.82;stroke-miterlimit:10;}
  </style>
  <path class="st0" d="M122.8,176.5c41.3,0,74.9-33.6,74.9-74.7S164,27,122.8,27s-74.9,33.6-74.9,74.8S81.5,176.5,122.8,176.5z"/>
  <title>
    WesBank Icons v1_aj
  </title>
  <path class="st1" d="M114.4 136.9H127.60000000000001V174.7H114.4z"/>
  <path class="st1" d="M112.2,54.6h19c3.1,0,5.7,2.5,5.7,5.7v75.9c0,3.1-2.5,5.7-5.7,5.7h-19c-3.1,0-5.7-2.5-5.7-5.7V60.3	C106.6,57.1,109.1,54.6,112.2,54.6z"/>
  <path class="st2" d="M109.4 128.6h.9c0 6.3 5.1 11.4 11.4 11.4 6.3 0 11.4-5.1 11.4-11.4h.9c0-7.3-5-13.3-12.3-13.3S109.4 121.2 109.4 128.6zM112.2 128.6c0-5.2 4.2-9.5 9.5-9.5s9.5 4.2 9.5 9.5c0 5.2-4.2 9.5-9.5 9.5l0 0C116.5 138 112.2 133.8 112.2 128.6L112.2 128.6zM109.4 100.1h.9c0 6.3 5.1 11.4 11.4 11.4 6.3 0 11.4-5.1 11.4-11.4h.9c0-7.3-5-13.3-12.3-13.3S109.4 92.8 109.4 100.1zM112.2 100.1c0-5.2 4.2-9.5 9.5-9.5s9.5 4.2 9.5 9.5-4.2 9.5-9.5 9.5C116.5 109.6 112.2 105.4 112.2 100.1L112.2 100.1zM109.4 71.7h.9c0 6.3 5.1 11.4 11.4 11.4 6.3 0 11.4-5.1 11.4-11.4h.9c0-7.3-5-13.3-12.3-13.3S109.4 64.3 109.4 71.7zM112.2 71.7c0-5.2 4.2-9.5 9.5-9.5s9.5 4.2 9.5 9.5-4.2 9.5-9.5 9.5l0 0C116.5 81.1 112.2 76.9 112.2 71.7L112.2 71.7z"/>
  <circle class="st3" cx="121.7" cy="128.6" r="8.5"/>
  <circle class="st4" cx="121.7" cy="100.1" r="8.5"/>
  <circle class="st5" cx="121.7" cy="72" r="8.5"/>
  <path class="st1" d="M137.1 63.8v18l14.4-12c1.1-.9 1.5-2.4 1-3.8-.5-1.4-1.8-2.3-3.2-2.3L137.1 63.8 137.1 63.8zM137.1 91.3v18l14.4-12c1.1-.9 1.5-2.4 1-3.8-.5-1.4-1.8-2.3-3.2-2.3L137.1 91.3 137.1 91.3zM137.1 118.8v18l14.4-12c1.1-.9 1.5-2.4 1-3.8-.5-1.4-1.8-2.3-3.2-2.3L137.1 118.8 137.1 118.8zM106.4 63.8l-12.2-.1c-1.5 0-2.8.9-3.2 2.3-.5 1.3-.1 2.9 1 3.8l14.4 12V63.8zM106.4 91.3l-12.2-.1c-1.5 0-2.8.9-3.2 2.3-.5 1.3-.1 2.9 1 3.8l14.4 12V91.3L106.4 91.3zM106.4 118.8l-12.2-.1c-1.5 0-2.8.9-3.2 2.3-.5 1.3-.1 2.9 1 3.8l14.4 12V118.8L106.4 118.8z"/>
  <path class="st6" d="M32,101.6c0,50.1,41,90.9,91.2,90.9s91.2-40.9,91.2-90.9s-41-90.9-91.2-90.9S32,51.5,32,101.6"/>
</svg>
