<svg xmlns="http://www.w3.org/2000/svg" viewBox="0 0 160 160" class="undefined"><style>.a{fill:#FFF;}.b{fill:#7B878E;}.c{fill:none;}.d{fill:#69D2DC;}.e{fill:#7C878E;}.f{fill:#F39200;}</style><polygon points="55.4 65.5 44.4 101 114.9 101 103.9 65.5 " class="a"/><path d="M115.2 101.3H44.1l11.1-36h48.9l0.1 0.2L115.2 101.3zM44.8 100.8h69.7l-10.8-35H55.6L44.8 100.8z" class="b"/><polygon points="55.4 65.9 44.4 101.3 115.1 101.3 104.1 65.9 " class="c"/><path d="M116.9 102.6H42.6l11.8-38h50.6L116.9 102.6zM46.3 99.9h67l-10.1-32.6H56.4L46.3 99.9z" class="b"/><path d="M57.8 68.9h43.6l8.9 28.8H48.9L57.8 68.9zM55.4 65.5L44.4 101h70.4l-11-35.5H55.4z" class="c"/><polygon points="57.8 68.9 101.5 68.9 110.4 97.7 48.9 97.7 " class="d"/><path d="M110.7 97.9H48.6l9-29.3h44l0.1 0.2L110.7 97.9zM49.3 97.4H110l-8.7-28.3H58L49.3 97.4z" class="b"/><polygon points="108.9 92.8 55.8 75.1 56.9 71.3 107.6 88.7 " class="e"/><path d="M73.1 42.4c-7.8 0-14.1 6.4-14.1 14.2s14.1 28.6 14.1 28.6 14.1-20.8 14.1-28.6S80.9 42.4 73.1 42.4M73.1 61.4c-3.2 0-5.8-2.6-5.8-5.9 0-3.2 2.6-5.9 5.8-5.9 3.2 0 5.8 2.6 5.8 5.9C78.9 58.8 76.3 61.4 73.1 61.4" class="c"/><path d="M73.1 42.4c-7.8 0-14.1 6.4-14.1 14.2s14.1 28.6 14.1 28.6 14.1-20.8 14.1-28.6S80.9 42.4 73.1 42.4M73.1 61.4c-3.2 0-5.8-2.6-5.8-5.9 0-3.2 2.6-5.9 5.8-5.9 3.2 0 5.8 2.6 5.8 5.9C78.9 58.8 76.3 61.4 73.1 61.4" class="f"/><path d="M73.1 86.9l-0.8-1.2c-0.6-0.9-14.3-21.1-14.3-29.2 0-8.4 6.7-15.2 15-15.2s15 6.8 15 15.2c0 8-13.7 28.3-14.3 29.2L73.1 86.9zM73.1 43.4c-7.2 0-13.1 5.9-13.1 13.3C60 63 70.2 79 73.1 83.5 76.1 79 86.3 63 86.3 56.6 86.3 49.3 80.4 43.4 73.1 43.4zM73.1 62.3c-3.7 0-6.8-3.1-6.8-6.8 0-3.8 3-6.8 6.8-6.8 3.7 0 6.8 3.1 6.8 6.8C79.8 59.3 76.8 62.3 73.1 62.3zM73.1 50.6c-2.7 0-4.9 2.2-4.9 4.9 0 2.7 2.2 4.9 4.9 4.9s4.9-2.2 4.9-4.9C77.9 52.8 75.8 50.6 73.1 50.6z" class="b"/><polygon points="92.9 68.8 97.1 97.9 93.6 97.9 89.5 69 " class="e"/><path d="M80.4 135c-30.4 0-55.2-24.7-55.2-55.2 0-30.4 24.7-55.2 55.2-55.2s55.2 24.7 55.2 55.2C135.5 110.3 110.8 135 80.4 135zM80.4 26.7c-29.3 0-53.2 23.8-53.2 53.2S51.1 133 80.4 133s53.2-23.8 53.2-53.2S109.7 26.7 80.4 26.7z" class="b"/></svg>