<?xml version="1.0" encoding="utf-8"?>
<svg version="1.1" id="Layer_1" xmlns="http://www.w3.org/2000/svg" x="0" y="0" viewBox="0 0 246.5 246.5" style="enable-background:new 0 0 246.5 246.5;" xml:space="preserve">
  <style type="text/css">
    .st0{fill:#7C878E;} .st1{fill:#F39200;} .st2{fill:#F2BC47;} .st3{fill:#FFFFFF;} .st4{fill:#3C474E;stroke:#7C878E;stroke-miterlimit:10;} .st5{fill:#69D2DC;} .st6{fill:none;stroke:#E2E5E7;stroke-width:2.73;stroke-miterlimit:10;} .st7{fill:none;stroke:#E2E5E7;stroke-width:1.82;stroke-miterlimit:10;} .st8{fill:none;}
  </style>
  <title>
    WesBank Icons v1_aj
  </title>
  <path class="st0" d="M94.6 85.1c-2.8 0-5 2.2-5 5s2.2 5 5 5 5-2.2 5-5S97.3 85.1 94.6 85.1zM94.6 94c-2.2 0-3.9-1.8-3.9-3.9s1.8-3.9 3.9-3.9 3.9 1.8 3.9 3.9S96.7 94 94.6 94L94.6 94zM151.4 85.1c-2.8 0-5 2.2-5 5s2.2 5 5 5 5-2.2 5-5S154.2 85.1 151.4 85.1zM151.4 94c-2.2 0-3.9-1.8-3.9-3.9 0-2.2 1.8-3.9 3.9-3.9 2.2 0 3.9 1.8 3.9 3.9S153.6 94 151.4 94L151.4 94z"/>
  <path class="st0" d="M171.8,82.8v5.6c0,1.6-1.3,2.9-2.9,2.9l0,0l-9.1,1.6H159c-1.5,4.2-6.2,6.4-10.4,4.8c-2.2-0.8-4-2.6-4.8-4.8	h-41.7c-1.5,4.2-6.2,6.3-10.4,4.8c-2.2-0.8-4-2.6-4.8-4.8h-9.3c-1.6,0-2.9-1.3-2.9-2.8v-5.6c0-1.1,0.7-2.2,1.7-2.6	c0.2-2.6,2-4.7,4.5-5.4c4.1-1.3,16.2-3.7,17.6-4c1.1-0.8,10.8-7.1,20.7-8.3c9.4-1.1,23.3-0.9,31.5,2.2c2.5,0.9,4.9,2,7.2,3.3	c3.8,2,7.1,3.7,11.8,3.7c0.3,0,0.6,0.3,0.6,0.6v6.5c0,0,0.1,0.1,0.1,0.1C171.3,80.9,171.8,81.8,171.8,82.8z"/>
  <path class="st1" d="M169.2,80.2v-3.8c-0.8,0-1.6,0.5-2,1.2c-1,1.7-0.8,2.3-0.8,2.4s0.5,0.2,0.8,0.2L169.2,80.2z"/>
  <path class="st2" d="M77.7 81.7h4l1.9-1.9c-1.5-.3-4.3-.6-5.6.8C77.8 80.9 77.7 81.3 77.7 81.7zM78.8 88.9h.6c.4 0 .8-.3.9-.7 0-.4-.3-.8-.7-.9-.1 0-.1 0-.2 0h-3.5v1.6H78.8z"/>
  <g>
    <path class="st2" d="M169.6 81.3h-2.5c-.7.1-1.3-.2-1.7-.8-.4-.8-.2-1.9.8-3.5.6-1.1 1.8-1.7 3-1.7v-.9c-4.6-.1-7.9-1.9-11.7-3.8-2.3-1.2-4.6-2.3-7-3.2-8.1-3-21.7-3.2-31-2.1-10.1 1.2-20.2 8.1-20.3 8.2-.1 0-.1.1-.2.1-.1 0-13.4 2.7-17.6 4-.8.2-1.5.6-2.1 1.2 1.9-.3 3.8-.3 5.6.3.3.1.5.4.4.7 0 .1-.1.2-.1.2l-2.8 2.8c-.1.1-.2.2-.4.2h-4.7c-.7.2-1.2.9-1.2 1.6v1.8h3.5c1 0 1.9.8 1.9 1.9 0 .3-.1.6-.2.8h5.4c.6-4.4 4.7-7.5 9.1-6.9 3.6.5 6.4 3.3 6.9 6.9h40.9c.7-4.4 4.8-7.5 9.2-6.8 3.5.5 6.3 3.3 6.8 6.8h11.1c.1-.1.1-.3.1-.5v-5.6C170.6 82.2 170.2 81.6 169.6 81.3zM86.4 90H75.9c0 1 .8 1.7 1.7 1.7l9 0C86.5 91.2 86.4 90.7 86.4 90 86.4 90.1 86.4 90.1 86.4 90zM143.3 90h-40.6c0 0 0 0 0 .1 0 .6-.1 1.1-.2 1.7h41C143.4 91.2 143.3 90.7 143.3 90 143.3 90.1 143.3 90.1 143.3 90zM159.5 90.1c0 .6-.1 1.1-.2 1.7h.4l9.1-1.6c.3 0 .5-.1.8-.2L159.5 90.1C159.5 90 159.5 90 159.5 90.1z"/>
  </g>
  <path class="st0" d="M100.3,75.1c-0.1-0.2,0-0.5,0.2-0.6c1.9-1.3,10.7-6.6,19.2-7.6c3.5-0.4,7-0.6,10.4-0.6c7.9,0,15.4,1,19.8,2.6	c2.3,0.9,4.6,2,6.8,3.2c0.2,0.1,0.3,0.4,0.3,0.6c-0.1,0.2-0.3,0.4-0.5,0.4c-19.4,1-55.3,2.4-55.6,2.4l0,0	C100.6,75.5,100.4,75.4,100.3,75.1z"/>
  <g>
    <path class="st3" d="M149.5 70c-1-.3-2-.6-3-.9v3.4l7.8-.4C152.7 71.3 151.1 70.6 149.5 70zM124.7 67.6v5.8c6.7-.3 14-.6 20.7-.9v-3.7c-5-1-10.2-1.4-15.3-1.4C128.2 67.4 126.4 67.5 124.7 67.6zM102.9 74.3c3.6-.1 11.5-.4 20.7-.8v-5.8c-1.3.1-2.5.2-3.8.3C113.1 68.8 106.2 72.3 102.9 74.3z"/>
  </g>
  <path class="st0" d="M124 75.9c-.3 0-.6.3-.6.6v10.4c0 .3.3.6.6.6.3 0 .6-.3.6-.6V76.4C124.6 76.1 124.3 75.9 124 75.9 124 75.9 124 75.9 124 75.9zM96.2 81.2c.2 0 .4-.1.5-.3.7-1.3 1.6-2.5 2.7-3.5.2-.2.3-.5.1-.8s-.5-.3-.8-.1c-1.2 1.1-2.2 2.4-3 3.8-.2.3-.1.6.2.8C96 81.2 96.1 81.2 96.2 81.2L96.2 81.2zM145.8 74.8c-.3 0-.6.3-.6.6v4.8c-2.6 1.2-4.4 3.7-4.7 6.6 0 .3.2.6.5.6 0 0 0 0 0 0h.1c.3 0 .5-.2.6-.5.2-2.6 1.9-4.9 4.3-5.8.2-.1.4-.3.4-.5v-5.1C146.4 75.1 146.1 74.8 145.8 74.8 145.8 74.8 145.8 74.8 145.8 74.8z"/>
  <path class="st4" d="M102.4,90.1c0-4.5-3.7-8.2-8.2-8.2S86,85.5,86,90.1c0,4.5,3.7,8.2,8.2,8.2C98.7,98.2,102.4,94.6,102.4,90.1z"/>
  <path class="st3" d="M94.2,96.1c-3.3,0-6-2.7-6-6s2.7-6,6-6s6,2.7,6,6S97.5,96.1,94.2,96.1z M95.2,94.8c-0.1,0-0.2,0-0.3-0.1	c-0.1-0.1-0.2-0.2-0.2-0.5c-0.1-0.8-0.1-1.7,0.2-2.5c0.2-0.2,0.4-0.4,0.7-0.4c0.4,0,0.8,0.1,1.2,0.3c0.9,0.3,1.3,0.5,1.4,0.7	s-0.1,0.4-0.3,0.7l0,0C97.3,93.9,96.3,94.6,95.2,94.8L95.2,94.8z M93.1,94.8c-0.2,0-0.4,0-0.5-0.1c-1-0.4-2.8-1.7-2.5-2.4	c0.2-0.4,2.2-1,2.7-1h0.1c0.7,0.2,0.8,0.8,0.8,1.9s-0.1,1.3-0.3,1.6C93.3,94.8,93.2,94.8,93.1,94.8L93.1,94.8z M94.2,91.2	c-0.6,0-1.1-0.5-1.1-1.1s0.5-1.1,1.1-1.1c0.6,0,1.1,0.5,1.1,1.1l0,0C95.3,90.7,94.8,91.2,94.2,91.2L94.2,91.2z M98.5,90.9h-0.3	c-0.8-0.1-1.6-0.5-2.3-0.9c-0.4-0.6-0.2-1.1,0.5-1.9s0.8-1,1.1-1.1s0.4,0.2,0.6,0.5c0.6,0.9,1.2,3,0.6,3.4	C98.7,90.9,98.6,90.9,98.5,90.9L98.5,90.9z M89.9,90.9c-0.1,0-0.2,0-0.3-0.1c-0.2-0.2-0.2-0.4-0.2-0.7c0-1.1,0.8-3.2,1.5-3.2	c0.5,0,1.8,1.9,1.8,2.4c0,0.7-0.5,1-1.5,1.3C90.7,90.7,90.3,90.8,89.9,90.9L89.9,90.9z M94.2,88.5c-0.5,0-0.8-0.4-1.3-1.1	s-0.8-1.1-0.7-1.4s0.3-0.3,0.6-0.4l0,0c0.4-0.1,0.9-0.2,1.3-0.2h0.2c0.3,0,1.8,0.1,2,0.6c0.1,0.1,0,0.3-0.1,0.5	c-0.4,0.8-0.9,1.4-1.6,1.9C94.5,88.5,94.4,88.5,94.2,88.5L94.2,88.5z M94.2,84.5c-3.1,0-5.6,2.5-5.6,5.6s2.5,5.6,5.6,5.6	s5.6-2.5,5.6-5.6l0,0C99.8,87,97.3,84.5,94.2,84.5L94.2,84.5z"/>
  <path class="st4" d="M159.5,90.1c0-4.5-3.7-8.2-8.2-8.2s-8.2,3.7-8.2,8.2c0,4.5,3.7,8.2,8.2,8.2C155.8,98.2,159.5,94.6,159.5,90.1z"/>
  <path class="st3" d="M151.3,96.1c-3.3,0-6-2.7-6-6s2.7-6,6-6s6,2.7,6,6S154.6,96.1,151.3,96.1z M152.3,94.8c-0.1,0-0.2,0-0.3-0.1	c-0.1-0.1-0.2-0.2-0.2-0.5c-0.1-0.8-0.1-1.7,0.2-2.5c0.2-0.2,0.4-0.4,0.7-0.4c0.4,0,0.8,0.1,1.2,0.3c0.9,0.3,1.3,0.5,1.4,0.7	s-0.1,0.4-0.3,0.7l0,0C154.4,93.9,153.4,94.6,152.3,94.8L152.3,94.8z M150.2,94.8c-0.2,0-0.4,0-0.5-0.1c-1-0.4-2.8-1.7-2.5-2.4	c0.2-0.4,2.2-1,2.7-1h0.1c0.7,0.2,0.8,0.8,0.8,1.9s-0.1,1.3-0.3,1.6C150.4,94.8,150.3,94.8,150.2,94.8L150.2,94.8z M151.3,91.2	c-0.6,0-1.1-0.5-1.1-1.1s0.5-1.1,1.1-1.1s1.1,0.5,1.1,1.1l0,0C152.4,90.7,151.9,91.2,151.3,91.2L151.3,91.2z M155.6,90.9h-0.3	c-0.8-0.1-1.6-0.5-2.3-0.9c-0.4-0.6-0.2-1.1,0.5-1.9s0.8-1,1.1-1.1s0.4,0.2,0.6,0.5c0.6,0.9,1.2,3,0.6,3.4	C155.8,90.9,155.7,90.9,155.6,90.9L155.6,90.9z M147,90.9c-0.1,0-0.2,0-0.3-0.1c-0.2-0.2-0.2-0.4-0.2-0.7c0-1.1,0.8-3.2,1.5-3.2	c0.5,0,1.8,1.9,1.8,2.4c0,0.7-0.5,1-1.5,1.3C147.8,90.7,147.4,90.8,147,90.9L147,90.9z M151.3,88.5c-0.5,0-0.8-0.4-1.4-1.1	s-0.8-1.1-0.7-1.4s0.3-0.3,0.6-0.4l0,0c0.4-0.1,0.9-0.2,1.4-0.2h0.2c0.3,0,1.8,0.1,2,0.6c0.1,0.1,0,0.3-0.1,0.5	c-0.4,0.8-0.9,1.4-1.6,1.9C151.6,88.5,151.5,88.5,151.3,88.5L151.3,88.5z M151.3,84.5c-3.1,0-5.6,2.5-5.6,5.6s2.5,5.6,5.6,5.6	c3.1,0,5.6-2.5,5.6-5.6C156.9,87,154.4,84.5,151.3,84.5L151.3,84.5z"/>
  <path class="st0" d="M147 133.1c0 2.8 2.2 5 5 5s5-2.2 5-5-2.2-5-5-5S147 130.3 147 133.1zM148.1 133.1c0-2.2 1.8-3.9 3.9-3.9 2.2 0 3.9 1.8 3.9 3.9 0 2.2-1.8 3.9-3.9 3.9 0 0 0 0 0 0C149.9 137 148.1 135.2 148.1 133.1L148.1 133.1zM90.1 133.1c0 2.8 2.2 5 5 5s5-2.2 5-5-2.2-5-5-5S90.1 130.3 90.1 133.1zM91.2 133.1c0-2.2 1.8-3.9 3.9-3.9 2.2 0 3.9 1.8 3.9 3.9 0 2.2-1.8 3.9-3.9 3.9S91.2 135.2 91.2 133.1L91.2 133.1z"/>
  <path class="st0" d="M74.8,125.8v5.6c0,1.6,1.3,2.9,2.9,2.9l0,0l9.1,1.6h0.8c1.5,4.2,6.2,6.4,10.4,4.8c2.2-0.8,4-2.6,4.8-4.8h41.7	c1.5,4.2,6.2,6.3,10.4,4.8c2.2-0.8,4-2.6,4.8-4.8h9.3c1.6,0,2.9-1.3,2.9-2.9v-5.6c0-1.1-0.7-2.2-1.7-2.6c-0.2-2.6-2-4.8-4.5-5.4	c-4.1-1.3-16.2-3.7-17.6-4c-1.1-0.8-10.8-7.1-20.7-8.3c-9.4-1.1-23.3-0.9-31.5,2.2c-2.5,0.9-4.9,2-7.2,3.3c-3.8,2-7.2,3.7-11.8,3.7	c-0.3,0-0.6,0.3-0.6,0.6v6.5c0,0-0.1,0.1-0.1,0.1C75.3,123.9,74.8,124.8,74.8,125.8z"/>
  <path class="st1" d="M77.4,123.2v-3.8c0.8,0,1.6,0.5,2,1.2c1,1.7,0.8,2.3,0.8,2.4s-0.5,0.2-0.8,0.2L77.4,123.2z"/>
  <path class="st2" d="M168.9,124.7h-4l-1.9-1.9c1.5-0.3,4.3-0.6,5.6,0.8C168.8,123.9,168.9,124.3,168.9,124.7z"/>
  <path class="st5" d="M167.8,131.9h-0.6c-0.4,0-0.8-0.3-0.9-0.7c0-0.4,0.3-0.8,0.7-0.9c0.1,0,0.1,0,0.2,0h3.5v1.6H167.8z"/>
  <g>
    <path class="st5" d="M165.4 131.9c-.1-.3-.2-.5-.2-.8 0-1 .9-1.9 1.9-1.9h3.5v-1.8c0-.8-.5-1.4-1.3-1.6h-4.7c-.2 0-.3-.1-.4-.2l-2.8-2.8c-.1-.1-.1-.2-.1-.2-.1-.3.1-.6.4-.7 1.8-.5 3.7-.6 5.6-.3-.6-.5-1.3-.9-2.1-1.2-4.2-1.3-17.4-4-17.6-4-.1 0-.1 0-.2-.1-.1-.1-10.2-7-20.3-8.2-9.3-1.1-22.9-.9-31 2.1-2.4.9-4.7 2-7 3.2-3.8 2-7.1 3.7-11.7 3.8v.9c1.2 0 2.4.7 3 1.7 1 1.7 1.2 2.8.8 3.5-.4.6-1.1.9-1.7.8h-2.5c-.6.3-1 .9-1 1.5v5.6c0 .2 0 .3.1.5h11.2c.5-3.5 3.3-6.3 6.8-6.8 4.4-.7 8.5 2.4 9.2 6.8H144c.5-3.6 3.3-6.4 6.9-6.9 4.4-.6 8.5 2.4 9.1 6.9H165.4zM160.2 133C160.2 133.1 160.2 133.1 160.2 133c0 .6-.1 1.2-.2 1.8l9 0c1 0 1.7-.8 1.7-1.7H160.2zM143.9 133h-40.6c0 .1 0 .1 0 .1 0 .6-.1 1.1-.2 1.7h41C144 134.2 143.9 133.7 143.9 133 143.9 133 143.9 133 143.9 133zM87 133H77c.2.1.5.2.7.2l9.1 1.6h.4C87.1 134.2 87 133.6 87 133 87 133 87 133 87 133z"/>
  </g>
  <path class="st0" d="M146.3,118.1c0.1-0.2,0-0.5-0.2-0.6c-1.9-1.3-10.7-6.6-19.2-7.6c-3.5-0.4-7-0.6-10.4-0.6	c-7.9,0-15.4,1-19.8,2.6c-2.3,0.9-4.6,2-6.8,3.2c-0.2,0.1-0.3,0.4-0.3,0.6c0.1,0.2,0.3,0.4,0.5,0.4c19.5,1,55.3,2.4,55.6,2.4l0,0	C146,118.5,146.2,118.4,146.3,118.1z"/>
  <g>
    <path class="st3" d="M92.3 115.2l7.8.4v-3.4c-1 .2-2 .5-3 .9C95.5 113.6 93.9 114.3 92.3 115.2zM101.2 111.8v3.7c6.7.3 14 .6 20.7.9v-5.8c-1.8-.1-3.6-.2-5.4-.2C111.4 110.4 106.2 110.9 101.2 111.8zM126.8 111c-1.2-.1-2.5-.2-3.8-.3v5.8c9.1.4 17.1.7 20.7.8C140.4 115.3 133.5 111.8 126.8 111z"/>
  </g>
  <path class="st0" d="M122.6 118.9c.3 0 .6.3.6.6v10.4c0 .3-.3.6-.6.6-.3 0-.6-.3-.6-.6v-10.4C122 119.1 122.3 118.9 122.6 118.9 122.6 118.9 122.6 118.9 122.6 118.9zM150.4 124.2c-.2 0-.4-.1-.5-.3-.7-1.3-1.6-2.5-2.7-3.5-.2-.2-.3-.5-.1-.8.2-.2.5-.3.8-.1 1.2 1.1 2.2 2.4 3 3.8.2.3.1.6-.2.8C150.6 124.2 150.5 124.2 150.4 124.2L150.4 124.2zM100.8 117.8c.3 0 .6.3.6.6v4.8c2.6 1.2 4.4 3.7 4.7 6.6 0 .3-.2.6-.5.6 0 0 0 0 0 0h-.1c-.3 0-.5-.2-.6-.5-.2-2.6-1.9-4.9-4.3-5.8-.2-.1-.4-.3-.4-.5v-5.2C100.2 118 100.5 117.8 100.8 117.8z"/>
  <path class="st4" d="M144.2,133.1c0-4.5,3.7-8.2,8.2-8.2s8.2,3.7,8.2,8.2s-3.7,8.2-8.2,8.2C147.9,141.2,144.2,137.6,144.2,133.1z"/>
  <path class="st3" d="M146.4,133.1c0-3.3,2.7-6,6-6s6,2.7,6,6s-2.7,6-6,6S146.4,136.5,146.4,133.1z M148.6,136L148.6,136	c-0.2-0.3-0.3-0.5-0.3-0.7s0.5-0.4,1.4-0.7c0.4-0.2,0.8-0.2,1.2-0.3c0.3,0,0.6,0.2,0.7,0.4c0.2,0.8,0.3,1.7,0.2,2.5	c-0.1,0.3-0.1,0.4-0.2,0.5c-0.1,0.1-0.2,0.1-0.3,0.1C150.2,137.5,149.3,136.9,148.6,136L148.6,136z M153.2,137.8	c-0.2-0.2-0.2-0.6-0.3-1.6s0.1-1.7,0.8-1.9h0.1c0.5,0,2.5,0.6,2.7,1c0.2,0.7-1.5,2-2.5,2.4c-0.2,0.1-0.3,0.1-0.5,0.1	C153.4,137.8,153.3,137.8,153.2,137.8L153.2,137.8z M151.2,133.1c0-0.6,0.5-1.1,1.1-1.1s1.1,0.5,1.1,1.1s-0.5,1.1-1.1,1.1l0,0	C151.7,134.2,151.2,133.7,151.2,133.1L151.2,133.1z M147.8,133.9c-0.6-0.4,0-2.5,0.6-3.4c0.2-0.3,0.4-0.5,0.6-0.5s0.5,0.3,1.1,1.1	s0.9,1.4,0.5,1.9c-0.7,0.5-1.5,0.8-2.3,0.9H148C148,133.9,147.9,133.9,147.8,133.9L147.8,133.9z M155.4,133.6	c-1-0.3-1.5-0.6-1.5-1.3c0-0.5,1.3-2.4,1.8-2.4c0.7,0,1.5,2.1,1.5,3.2c0,0.3,0,0.6-0.2,0.7c-0.1,0.1-0.2,0.1-0.3,0.1	C156.2,133.8,155.8,133.7,155.4,133.6L155.4,133.6z M152,131.4c-0.7-0.5-1.2-1.2-1.6-1.9c-0.1-0.3-0.2-0.4-0.1-0.5	c0.2-0.6,1.7-0.6,2-0.6h0.2c0.5,0,0.9,0.1,1.4,0.2l0,0c0.3,0.1,0.6,0.2,0.6,0.4s-0.1,0.6-0.7,1.4s-0.9,1.1-1.4,1.1	C152.3,131.5,152.1,131.5,152,131.4z M146.8,133.1c0,3.1,2.5,5.6,5.6,5.6c3.1,0,5.6-2.5,5.6-5.6c0-3.1-2.5-5.6-5.6-5.6	C149.3,127.5,146.8,130,146.8,133.1L146.8,133.1z"/>
  <path class="st4" d="M87.1,133.1c0-4.5,3.7-8.2,8.2-8.2s8.2,3.7,8.2,8.2s-3.7,8.2-8.2,8.2C90.8,141.2,87.1,137.6,87.1,133.1z"/>
  <path class="st3" d="M89.3,133.1c0-3.3,2.7-6,6-6s6,2.7,6,6s-2.7,6-6,6S89.3,136.5,89.3,133.1z M91.5,136L91.5,136	c-0.2-0.3-0.3-0.5-0.3-0.7s0.5-0.4,1.4-0.7c0.4-0.2,0.8-0.2,1.2-0.3c0.3,0,0.6,0.2,0.7,0.4c0.2,0.8,0.3,1.7,0.2,2.5	c-0.1,0.3-0.1,0.4-0.2,0.5c-0.1,0.1-0.2,0.1-0.3,0.1C93.1,137.5,92.2,136.9,91.5,136L91.5,136z M96.1,137.8	c-0.2-0.2-0.2-0.6-0.3-1.6s0.1-1.7,0.8-1.9h0.1c0.5,0,2.5,0.6,2.7,1c0.2,0.7-1.5,2-2.5,2.4c-0.2,0.1-0.3,0.1-0.5,0.1	C96.3,137.8,96.2,137.8,96.1,137.8L96.1,137.8z M94.1,133.1c0-0.6,0.5-1.1,1.1-1.1s1.1,0.5,1.1,1.1s-0.5,1.1-1.1,1.1l0,0	C94.6,134.2,94.1,133.7,94.1,133.1L94.1,133.1z M90.7,133.9c-0.6-0.4,0-2.5,0.6-3.4c0.2-0.3,0.4-0.5,0.6-0.5s0.5,0.3,1.1,1.1	s0.9,1.4,0.5,1.9c-0.7,0.5-1.5,0.8-2.3,0.9H91C90.9,133.9,90.8,133.9,90.7,133.9L90.7,133.9z M98.3,133.6c-1-0.3-1.5-0.6-1.5-1.3	c0-0.5,1.3-2.4,1.8-2.4c0.7,0,1.5,2.1,1.5,3.2c0,0.3,0,0.6-0.2,0.7c-0.1,0.1-0.2,0.1-0.3,0.1C99.1,133.8,98.7,133.7,98.3,133.6	L98.3,133.6z M94.8,131.4c-0.7-0.5-1.2-1.2-1.6-1.9c-0.1-0.3-0.2-0.4-0.1-0.5c0.2-0.6,1.7-0.6,2-0.6h0.2c0.5,0,0.9,0.1,1.3,0.2l0,0	c0.3,0.1,0.6,0.2,0.6,0.4s-0.1,0.6-0.7,1.4s-0.9,1.1-1.3,1.1C95.1,131.5,95,131.5,94.8,131.4L94.8,131.4z M89.6,133.1	c0,3.1,2.5,5.6,5.6,5.6s5.6-2.5,5.6-5.6c0-3.1-2.5-5.6-5.6-5.6l0,0C92.2,127.5,89.7,130,89.6,133.1L89.6,133.1z"/>
  <path class="st6" d="M122.8,176.5c41.3,0,74.9-33.6,74.9-74.7S164,27,122.8,27s-74.9,33.6-74.9,74.8S81.5,176.5,122.8,176.5z"/>
  <path class="st7" d="M32,101.6c0,50.1,41,90.9,91.2,90.9s91.2-40.9,91.2-90.9s-41-90.9-91.2-90.9S32,51.5,32,101.6"/>
  <path class="st8" d="M10.2 214.6H236.2V238.6H10.2z"/>
</svg>
