<svg xmlns="http://www.w3.org/2000/svg" viewBox="0 0 160 160" class="undefined"><style>.a{fill:#F2BC47;}.b{fill:#7B878E;}.c{fill:none;}.d{fill:#FFF;}</style><polygon points="63.7 114.5 105.3 114.5 105.3 45.7 53.1 45.7 53.1 104.4 " class="a"/><path d="M80 135.2c-30.4 0-55.2-24.7-55.2-55.2 0-30.4 24.7-55.2 55.2-55.2s55.2 24.7 55.2 55.2C135.2 110.4 110.4 135.2 80 135.2zM80 26.8c-29.3 0-53.2 23.8-53.2 53.2s23.8 53.2 53.2 53.2 53.2-23.8 53.2-53.2S109.3 26.8 80 26.8z" class="b"/><path d="M106 103.6v11.6H63.4l-11-10.5V45H106v59M52.4 104.7h11v10.5M61.1 55.7h36.2M61.1 61.7h36.2M61.1 67.6h18.1" class="c"/><path d="M106.7 115.9H63.1L51.7 105V44.3h55.1v71.6H106.7zM63.7 114.5h41.7V45.7H53.1v58.7L63.7 114.5z" class="b"/><polygon points="64.1 115.2 62.7 115.2 62.7 105.4 52.4 105.4 52.4 104 64.1 104 " class="b"/><rect x="61.1" y="55" width="36.2" height="1.4" class="d"/><rect x="61.1" y="61" width="36.2" height="1.4" class="d"/><rect x="61.1" y="66.9" width="18.1" height="1.4" class="d"/><polygon points="62.6 113.5 58.2 109.4 54.1 105.4 62.6 105.4 " class="d"/></svg>