<svg xmlns="http://www.w3.org/2000/svg" viewBox="0 0 160 160" class="undefined"><style>.a{fill:#7C878E;}.b{fill:none;}.c{fill:#FFF;}.d{fill:#F2BC47;}.e{fill:#7B878E;}</style><path d="M49.3 108.2h10v-9.8c0-0.9 0.7-1.6 1.6-1.6h8c0.9 0 1.5 0.7 1.5 1.6v9.9h11.6c-0.2-0.3-0.2-0.6-0.2-1V94.2L76.4 94c-0.3 0-0.5-0.2-0.6-0.4s-0.1-0.6 0.2-0.7l6-5.5V54.6c0-1-0.8-1.7-1.6-1.7h-31c-0.9 0-1.6 0.8-1.6 1.7v51.9C47.6 107.5 48.4 108.2 49.3 108.2" class="a"/><path d="M49.3 107.2c-0.3 0-0.6-0.3-0.6-0.7V54.6c0-0.3 0.3-0.7 0.6-0.7h31c0.3 0 0.6 0.3 0.6 0.7V87l-5.6 5.1c-0.5 0.4-0.7 1.1-0.5 1.8 0.2 0.7 0.8 1.1 1.6 1.1l4.3 0.1v12.1c0 0 0 0 0 0h-9.4v-8.9c0-1.5-1.1-2.6-2.5-2.6h-8c-1.4 0-2.6 1.2-2.6 2.6v8.8H49.3L49.3 107.2z" class="a"/><path d="M110.7 93.1c-0.3 0-0.6 0.3-0.6 0.6v13.5c0 0.5-0.4 1-0.9 1h-7.8V101c0-1.3-1-2.4-2.4-2.4h-5.1c-1.3 0-2.4 1-2.4 2.4v7.2h-7.8c-0.5 0-0.9-0.4-0.9-1V93.5c0-0.4-0.3-0.6-0.6-0.6L78 92.7l18.1-16.4c0.2-0.2 0.5-0.2 0.8 0l7.5 7 5.7 5.3 4.6 4.3L110.7 93.1z" class="b"/><path d="M80.4 52.1c1.5 0 2.9 1.3 2.9 2.9v31.1l11.8-10.7c0.3-0.3 0.9-0.7 1.3-0.7s0.9 0.3 1.3 0.6l6.3 5.9 -0.1-3.6c0-0.3 0.2-0.6 0.6-0.6h5.6c0.3 0 0.9 0 0.9 0.4l0.1 10 5.4 4.7c1.8 1.3 0.6 2.4 0.3 2.4 -1 0.1-5.9 0-5.9 0v12.4c0 1.2-0.9 2.1-2.2 2.1H49.9c-1.5 0-3.1-1.1-3.1-2.8V55c0-1.6 1.2-2.9 2.9-2.9H80.4" class="a"/><path d="M83.8 107.8h7.8v-7.2c0-1.3 1.1-2.4 2.4-2.4H99c1.3 0 2.4 1.1 2.4 2.4v7.2h7.8c0.5 0 0.9-0.5 0.9-1l0-12.7c0-0.3 0.3-0.8 0.6-0.8l5.6-0.1L96.8 75.9c-0.1-0.1-0.3-0.2-0.4-0.2 -0.1 0-0.3 0.1-0.4 0.2L77 93.4l4.8 0.1c0.3 0 1.1 0 1.1 0.6v12.8C82.9 107.4 83.3 107.8 83.8 107.8" class="c"/><path d="M60.6 108.2H69v-9.8c0-0.2-0.1-0.2-0.2-0.2h-8c-0.2 0-0.2 0.1-0.2 0.2V108.2" class="a"/><path d="M93 108.1h7.1v-7.2c0-0.6-0.5-1-1-1H94c-0.5 0-1 0.5-1 1V108.1" class="a"/><path d="M80.7 107.8h-9.9v-9.4c0-1.2-0.9-2.1-2-2.1h-8c-1.1 0-2.1 0.9-2.1 2.1v9.3h-9.5c-0.6 0-1.1-0.5-1.1-1.2V54.6c0-0.6 0.4-1.2 1.1-1.2h31c0.6 0 1.1 0.5 1.1 1.2v32.6l-5.8 5.3c-0.4 0.3-0.5 0.8-0.3 1.3 0.1 0.4 0.6 0.7 1.1 0.7h4.8v13.3L80.7 107.8zM71.8 106.8h8.4V95.6l-3.8-0.1h0c-0.9 0-1.8-0.6-2-1.4 -0.3-0.9 0-1.8 0.6-2.4l5.4-5V54.6c0-0.1-0.1-0.2-0.1-0.2h-31c-0.1 0-0.1 0.1-0.1 0.2v51.9c0 0.1 0.1 0.2 0.1 0.2h8.5v-8.3c0-1.7 1.4-3.1 3.1-3.1h8c1.7 0 3 1.4 3 3.1V106.8z" class="c"/><polygon points="61.6 99.9 68 99.9 68 107.9 61.6 107.9 61.6 99.9 " class="c"/><polygon points="94 107.9 94 101.7 99.1 101.7 99.1 107.9 94 107.9 " class="c"/><path d="M54 74.4h7.1c0.8 0 1.4-0.6 1.4-1.4v-7.2c0-0.8-0.6-1.4-1.4-1.4H54c-0.8 0-1.4 0.6-1.4 1.4v7.2C52.5 73.7 53.2 74.4 54 74.4zM53.9 65.7C53.9 65.6 53.9 65.6 53.9 65.7l7.2-0.1c0.1 0 0.1 0 0.1 0.1v7.2c0 0.1 0 0.1-0.1 0.1H54c-0.1 0-0.1 0-0.1-0.1V65.7z" class="c"/><path d="M61.3 78h-7.1c-0.8 0-1.4 0.6-1.4 1.4v7.2c0 0.8 0.6 1.4 1.4 1.4h7.1c0.8 0 1.4-0.6 1.4-1.4v-7.2C62.6 78.6 62 78 61.3 78zM61.3 86.7C61.3 86.7 61.3 86.7 61.3 86.7l-7.2 0.1c-0.1 0-0.1 0-0.1-0.1v-7.2c0-0.1 0-0.1 0.1-0.1h7.1c0.1 0 0.1 0 0.1 0.1V86.7z" class="c"/><path d="M75.5 78h-7.1c-0.8 0-1.4 0.6-1.4 1.4v7.2c0 0.8 0.6 1.4 1.4 1.4h7.1c0.8 0 1.4-0.6 1.4-1.4v-7.2C76.8 78.6 76.2 78 75.5 78zM75.6 86.7C75.6 86.7 75.6 86.7 75.6 86.7l-7.2 0.1c-0.1 0-0.1 0-0.1-0.1v-7.2c0-0.1 0-0.1 0.1-0.1h7.1c0.1 0 0.1 0 0.1 0.1V86.7z" class="c"/><path d="M68.3 74.3h7.1c0.8 0 1.4-0.6 1.4-1.4v-7.2c0-0.8-0.6-1.4-1.4-1.4h-7.1c-0.8 0-1.4 0.6-1.4 1.4v7.2C66.9 73.7 67.5 74.3 68.3 74.3zM68.3 65.6C68.3 65.6 68.3 65.6 68.3 65.6l7.2-0.1c0.1 0 0.1 0 0.1 0.1v7.2c0 0.1 0 0.1-0.1 0.1h-7.1c-0.1 0-0.1 0-0.1-0.1V65.6z" class="c"/><path d="M96.4 76.8l17.9 15.9c0 0-5.2-0.5-5.2 1l-0.1 13.5h-6.7v-6.2c0-1.9-1.5-3.4-3.4-3.4h-5.1c-1.9 0-3.4 1.5-3.4 3.4v6.2h-6.7V93.5c0-0.9-4-0.8-4.9-0.8L96.4 76.8z" class="d"/><polygon points="110.1 86.8 104.7 81.6 104.7 77.7 110.1 77.7 " class="c"/><path d="M80.4 135c-30.4 0-55.2-24.7-55.2-55.2 0-30.4 24.7-55.2 55.2-55.2s55.2 24.7 55.2 55.2C135.5 110.3 110.8 135 80.4 135zM80.4 26.7c-29.3 0-53.2 23.8-53.2 53.2S51.1 133 80.4 133s53.2-23.8 53.2-53.2S109.7 26.7 80.4 26.7z" class="e"/><polygon points="105.4 81.4 109.4 85.1 109.4 78.5 105.4 78.5 " class="d"/></svg>