<svg xmlns="http://www.w3.org/2000/svg" viewBox="0 0 160 160" class="undefined"><style>.a{fill:#69D2DC;}.b{fill:#7C878E;}.c{fill:#FFF;}.d{fill:none;}.e{fill:#7B878E;}.f{fill:#F2BC47;}.g{fill:#15A3B2;}</style><path d="M100 108.3V97.2c0-5.1-4.2-9.3-9.3-9.3h-1.2c-2.2 2.8-5.4 4.6-8.2 4.6 -2.8 0-6-1.8-8.2-4.6h-0.6c-5.1 0-9.3 4.2-9.3 9.3v11.2c5.1 3.8 11.4 6 18.2 6C88.5 114.5 94.8 112.2 100 108.3z" class="a"/><path d="M81.5 115c-6.7 0-13.1-2.1-18.6-6.1l-0.2-0.2V97.2c0-5.4 4.4-9.9 9.9-9.9h0.8l0.2 0.2c2.1 2.7 5.1 4.4 7.7 4.4 2.6 0 5.6-1.7 7.7-4.4l0.2-0.2h1.5c5.4 0 9.9 4.4 9.9 9.9v11.4l-0.2 0.2C94.9 112.9 88.4 115 81.5 115zM63.9 108.2c5.2 3.7 11.3 5.7 17.6 5.7 6.5 0 12.6-2 17.8-5.9V97.2c0-4.8-3.9-8.7-8.7-8.7h-0.9c-2.3 2.8-5.6 4.6-8.4 4.6 -2.9 0-6.2-1.8-8.4-4.6h-0.3c-4.8 0-8.7 3.9-8.7 8.7V108.2z" class="b"/><path d="M81.3 66.2c-6.1 0-10.1 4.3-10.1 10.7 0 6 5.6 11.2 10.1 11.2 4.6 0 10.1-5.2 10.1-11.2C91.5 70.5 87.4 66.2 81.3 66.2z" class="c"/><path d="M81.3 88.7c-2.4 0-5.1-1.3-7.2-3.5 -2.2-2.3-3.5-5.3-3.5-8.3 0-6.7 4.3-11.2 10.7-11.2 6.4 0 10.7 4.5 10.7 11.2 0 2.9-1.3 5.9-3.5 8.3C86.4 87.4 83.7 88.7 81.3 88.7zM81.3 66.8c-5.7 0-9.6 4.1-9.6 10.1 0 5.7 5.3 10.6 9.6 10.6s9.6-4.9 9.6-10.6C90.9 70.9 87.1 66.8 81.3 66.8z" class="b"/><circle cx="80.2" cy="81.7" r="54.2" class="d"/><path d="M80.2 136.8c-30.4 0-55.2-24.7-55.2-55.2 0-30.4 24.7-55.2 55.2-55.2s55.2 24.7 55.2 55.2C135.4 112.1 110.7 136.8 80.2 136.8zM80.2 28.5c-29.3 0-53.2 23.8-53.2 53.2s23.8 53.2 53.2 53.2 53.2-23.8 53.2-53.2S109.5 28.5 80.2 28.5z" class="e"/><path d="M54.5 101.8c-0.5 0.2-0.8 0.6-0.8 1.1v11.6c0 0.8 0.5 1.3 1.2 1.4 1.9 0.1 3.6 0.8 5.3 1.6 4.1 1.9 7.8 3.8 11.8 5.6 1.8 0.8 3 1.3 4.2 1.4 1.7 0.1 4.7-0.3 7.8-0.8 3.1-0.5 6.2-1 7-1.1 2.5-0.1 4.5-2 5.8-2.8 1.7-1.1 3.7-2.3 5.3-4 0.7-0.7 1.2-1.3 1.2-2.1 -0.1-0.8-1.1-1-1.1-1s1-0.9 1-1.4c0.2-1.5-1.3-2.2-2.6-2.3 -2.3-0.1-4.4 1.3-5.5 2.4 -1.8 1.7-3.6 2.3-6.3 2.6 -3.1 0.4-6.1 0.6-8.9-0.3 -1.3-0.5-2.3-1-3.5-1.4 -0.3-0.1-0.5-0.2-0.8-0.3 1-0.1 2.5-0.4 3.9-0.2 1.7 0.2 7.1 0.8 9.3 0.6 0.9-0.1 2.1-0.2 2.6-0.6 1.4-1.2 1.7-3.2 1-4.4 -0.7-1.1-2-1.4-3.3-1.8 -3.6-1.2-7.7-1-11-1.6 -0.7-0.1-2-0.9-3.7-1.7 -1.8-0.8-4-1.7-7-2 -0.8-0.1-1.6-0.1-2.4-0.1C61.5 100.1 57.9 100.8 54.5 101.8z" class="f"/><path d="M76.9 125c-0.2 0-0.5 0-0.7 0 -1.2-0.1-2.6-0.7-4.4-1.5 -2.3-1-4.5-2.1-6.9-3.2 -1.6-0.8-3.2-1.6-4.9-2.3 -1.9-0.9-3.4-1.4-5.2-1.5 -1-0.1-1.6-0.8-1.7-1.9l0-11.6c0-0.7 0.5-1.4 1.1-1.6l0 0c3.7-1.2 7.3-1.8 10.7-1.8 0.8 0 1.6 0 2.5 0.1 3.3 0.3 5.7 1.3 7.2 2 0.6 0.3 1.1 0.5 1.5 0.8 0.9 0.5 1.7 0.8 2.1 0.9 1.2 0.2 2.6 0.3 4 0.5 2.4 0.2 4.8 0.4 7.1 1.1l0.3 0.1c1.3 0.4 2.6 0.7 3.3 2 0.8 1.4 0.5 3.7-1.1 5.1 -0.7 0.6-1.9 0.7-2.9 0.8 -2.4 0.1-8.3-0.5-9.4-0.6 -0.6-0.1-1.1-0.1-1.7 0 0.2 0.1 0.3 0.1 0.5 0.2 0.6 0.2 1.1 0.5 1.8 0.7 2.7 0.9 5.5 0.6 8.6 0.3 2.4-0.3 4.3-0.8 6-2.4 0.7-0.6 3-2.6 5.9-2.5 1.1 0.1 2 0.5 2.6 1.2 0.4 0.5 0.6 1.1 0.5 1.7 0 0.4-0.3 0.8-0.6 1.2 0.3 0.2 0.7 0.6 0.7 1.1 0 1.1-0.7 1.8-1.4 2.5 -1.5 1.6-3.3 2.8-5 3.8l-0.4 0.2c-0.3 0.2-0.5 0.4-0.8 0.6 -1.3 0.9-3.1 2.2-5.2 2.3 -0.6 0-2.8 0.4-5.1 0.8l-1.8 0.3C81.3 124.5 78.7 125 76.9 125zM54.7 102.3c-0.3 0.1-0.5 0.4-0.5 0.6v11.6c0 0.5 0.3 0.8 0.7 0.9 2.1 0.1 3.9 0.9 5.5 1.6 1.7 0.8 3.3 1.6 4.9 2.4 2.3 1.1 4.5 2.2 6.8 3.2 1.7 0.8 3 1.3 4 1.4 1.7 0.1 4.7-0.4 7.7-0.8l1.9-0.3c2.4-0.4 4.5-0.7 5.2-0.8 1.8-0.1 3.4-1.2 4.7-2.1 0.3-0.2 0.6-0.4 0.9-0.6l0.4-0.2c1.6-1 3.4-2.2 4.8-3.7 0.7-0.7 1.1-1.2 1.1-1.8 0-0.4-0.6-0.5-0.6-0.5l-1-0.2 0.7-0.7c0.4-0.4 0.8-0.9 0.9-1.1 0-0.4 0-0.7-0.3-1 -0.4-0.4-1.1-0.8-1.8-0.8 -2.5-0.1-4.5 1.7-5.1 2.2 -1.9 1.8-4 2.4-6.5 2.7 -3.1 0.4-6.2 0.6-9.1-0.3 -0.7-0.2-1.3-0.5-1.8-0.7 -0.6-0.2-1.1-0.5-1.7-0.7l-0.2-0.1c-0.2-0.1-0.3-0.1-0.5-0.1l-3.8-0.5 4-0.5c1-0.1 2.5-0.3 3.8-0.2 1.1 0.1 6.9 0.8 9.2 0.6 0.5 0 1.8-0.1 2.3-0.5 1.3-1 1.5-2.8 0.9-3.8 -0.5-0.9-1.5-1.2-2.7-1.5l-0.3-0.1c-2.2-0.7-4.6-0.9-6.9-1.1 -1.4-0.1-2.8-0.2-4.1-0.5 -0.6-0.1-1.3-0.5-2.4-1 -0.5-0.2-1-0.5-1.5-0.7 -1.5-0.7-3.7-1.6-6.8-1.9 -0.8-0.1-1.6-0.1-2.4-0.1C61.7 100.6 58.2 101.2 54.7 102.3z" class="e"/><path d="M44.7 99c-0.3 0-0.6 0.1-0.8 0.3 -0.2 0.2-0.3 0.5-0.3 0.8v17.3c0 0.3 0.1 0.6 0.3 0.8 0.2 0.2 0.5 0.3 0.8 0.3H49c0.3 0 0.6-0.1 0.8-0.3 0.2-0.2 0.3-0.5 0.3-0.8v-17.3c0-0.3-0.1-0.6-0.3-0.8C49.6 99.1 49.3 99 49 99H44.7z" class="g"/><path d="M49 119.1h-4.3c-0.4 0-0.9-0.2-1.2-0.5 -0.3-0.3-0.5-0.7-0.5-1.2v-17.3c0-0.4 0.2-0.9 0.5-1.2 0.3-0.3 0.7-0.5 1.2-0.5H49c0.4 0 0.9 0.2 1.2 0.5 0.3 0.3 0.5 0.7 0.5 1.2v17.3c0 0.4-0.2 0.9-0.5 1.2C49.8 118.9 49.4 119.1 49 119.1zM44.7 99.5c-0.2 0-0.4 0.1-0.5 0.2 -0.1 0.1-0.2 0.3-0.2 0.5v17.3c0 0.2 0.1 0.4 0.2 0.5 0.1 0.1 0.3 0.2 0.5 0.2H49c0.2 0 0.4-0.1 0.5-0.2 0.1-0.1 0.2-0.3 0.2-0.5v-17.3c0-0.2-0.1-0.4-0.2-0.5 -0.1-0.1-0.3-0.2-0.5-0.2H44.7z" class="e"/><path d="M108.8 65.5c0.5-0.2 0.8-0.6 0.8-1.1V52.8c0-0.8-0.5-1.3-1.2-1.4 -1.9-0.1-3.6-0.8-5.3-1.6 -4.1-1.9-7.8-3.8-11.8-5.6 -1.8-0.8-3-1.3-4.2-1.4 -1.7-0.1-4.7 0.3-7.8 0.8 -3.1 0.5-6.2 1-7 1.1 -2.5 0.1-4.5 2-5.8 2.8 -1.7 1.1-3.7 2.3-5.3 4 -0.7 0.7-1.2 1.3-1.2 2.1 0.1 0.8 1.1 1 1.1 1s-1 0.9-1 1.4c-0.2 1.5 1.3 2.2 2.6 2.3 2.3 0.1 4.4-1.3 5.5-2.4 1.8-1.7 3.6-2.3 6.3-2.6 3.1-0.4 6.1-0.6 8.9 0.3 1.3 0.5 2.3 1 3.5 1.4 0.3 0.1 0.5 0.2 0.8 0.3 -1 0.1-2.5 0.4-3.9 0.2 -1.7-0.2-7.1-0.8-9.3-0.6 -0.9 0.1-2.1 0.2-2.6 0.6 -1.4 1.2-1.7 3.2-1 4.4 0.7 1.1 2 1.4 3.3 1.8 3.6 1.2 7.7 1 11 1.6 0.7 0.1 2 0.9 3.7 1.7 1.8 0.8 4 1.7 7 2 0.8 0.1 1.6 0.1 2.4 0.1C101.8 67.2 105.4 66.5 108.8 65.5z" class="f"/><path d="M97.9 67.7c-0.7 0-1.4 0-2.1-0.1 -3.3-0.3-5.7-1.3-7.2-2 -0.6-0.3-1.1-0.5-1.5-0.8 -0.9-0.5-1.7-0.8-2.1-0.9 -1.2-0.2-2.6-0.3-4-0.5 -2.4-0.2-4.8-0.4-7.1-1.1l-0.3-0.1c-1.3-0.4-2.6-0.7-3.3-2 -0.8-1.4-0.5-3.7 1.1-5.1 0.7-0.6 1.9-0.7 2.9-0.8 2.4-0.1 8.3 0.5 9.4 0.6 0.6 0.1 1.1 0.1 1.7 0C85.3 55.1 85.1 55 85 55c-0.6-0.2-1.1-0.5-1.8-0.7 -2.7-0.9-5.5-0.6-8.6-0.3 -2.4 0.3-4.3 0.8-6 2.4 -0.7 0.6-3 2.6-5.9 2.5 -1.1-0.1-2-0.5-2.6-1.2 -0.4-0.5-0.6-1.1-0.5-1.7 0-0.4 0.3-0.8 0.6-1.2 -0.3-0.2-0.7-0.6-0.7-1.1 0-1.1 0.7-1.8 1.4-2.5 1.5-1.6 3.3-2.8 5-3.8l0.4-0.2c0.3-0.2 0.5-0.4 0.8-0.6 1.3-0.9 3.1-2.2 5.2-2.3 0.6 0 2.8-0.4 5.1-0.8l1.8-0.3c3.1-0.5 6.1-1 7.9-0.8 1.2 0.1 2.6 0.7 4.4 1.5 2.3 1 4.5 2.1 6.8 3.2 1.6 0.8 3.2 1.6 4.9 2.3 1.9 0.9 3.4 1.4 5.2 1.5 1 0.1 1.6 0.8 1.7 1.9l0 11.6c0 0.7-0.5 1.4-1.1 1.6l0 0c-3.7 1.2-7.3 1.8-10.7 1.8C98.2 67.7 98 67.7 97.9 67.7zM75.2 55.5c-0.3 0-0.5 0-0.7 0 -0.5 0-1.8 0.1-2.3 0.5 -1.3 1-1.5 2.8-0.9 3.8 0.5 0.9 1.5 1.2 2.7 1.5l0.3 0.1c2.2 0.7 4.6 0.9 6.9 1.1 1.4 0.1 2.8 0.2 4.1 0.5 0.6 0.1 1.3 0.5 2.4 1 0.5 0.2 1 0.5 1.5 0.7 1.5 0.7 3.7 1.6 6.8 1.9 0.8 0.1 1.6 0.1 2.4 0.1 3.4 0 6.9-0.6 10.4-1.8 0.3-0.1 0.5-0.4 0.5-0.6V52.8c0-0.5-0.3-0.8-0.7-0.9 -2.1-0.1-3.9-0.9-5.5-1.6 -1.7-0.8-3.3-1.6-4.9-2.4 -2.3-1.1-4.5-2.2-6.8-3.2 -1.7-0.8-3-1.3-4-1.4 -1.7-0.1-4.7 0.4-7.7 0.8l-1.9 0.3c-2.4 0.4-4.5 0.7-5.2 0.8 -1.8 0.1-3.4 1.2-4.7 2.1 -0.3 0.2-0.6 0.4-0.9 0.6l-0.4 0.2c-1.6 1-3.4 2.2-4.8 3.7 -0.7 0.7-1.1 1.2-1.1 1.8 0 0.4 0.6 0.5 0.6 0.5l1 0.2L61.5 55c-0.4 0.4-0.8 0.9-0.9 1.1 0 0.4 0 0.7 0.3 1 0.4 0.4 1.1 0.8 1.8 0.8 2.5 0.1 4.6-1.7 5.1-2.2 1.9-1.8 4-2.4 6.5-2.7 3.1-0.4 6.2-0.6 9.1 0.3 0.7 0.2 1.3 0.5 1.8 0.7 0.6 0.2 1.1 0.5 1.7 0.7l0.2 0.1c0.2 0.1 0.3 0.1 0.5 0.1l3.8 0.5L87.5 56c-1 0.1-2.5 0.3-3.8 0.2C82.6 56 77.8 55.5 75.2 55.5z" class="b"/><path d="M118.7 68.3c0.3 0 0.6-0.1 0.8-0.3 0.2-0.2 0.3-0.5 0.3-0.8V49.8c0-0.3-0.1-0.6-0.3-0.8 -0.2-0.2-0.5-0.3-0.8-0.3h-4.3c-0.3 0-0.6 0.1-0.8 0.3 -0.2 0.2-0.3 0.5-0.3 0.8v17.3c0 0.3 0.1 0.6 0.3 0.8 0.2 0.2 0.5 0.3 0.8 0.3H118.7z" class="g"/><path d="M118.7 68.8h-4.3c-0.4 0-0.9-0.2-1.2-0.5 -0.3-0.3-0.5-0.7-0.5-1.2V49.8c0-0.4 0.2-0.9 0.5-1.2 0.3-0.3 0.7-0.5 1.2-0.5h4.3c0.4 0 0.9 0.2 1.2 0.5 0.3 0.3 0.5 0.7 0.5 1.2v17.3c0 0.4-0.2 0.9-0.5 1.2C119.6 68.6 119.1 68.8 118.7 68.8zM114.4 49.2c-0.2 0-0.4 0.1-0.5 0.2 -0.1 0.1-0.2 0.3-0.2 0.5v17.3c0 0.2 0.1 0.4 0.2 0.5 0.1 0.1 0.3 0.2 0.5 0.2h4.3c0.2 0 0.4-0.1 0.5-0.2 0.1-0.1 0.2-0.3 0.2-0.5V49.8c0-0.2-0.1-0.4-0.2-0.5 -0.1-0.1-0.3-0.2-0.5-0.2H114.4z" class="b"/></svg>