<?xml version="1.0" encoding="utf-8"?>
<!-- Generator: Adobe Illustrator 17.0.0, SVG Export Plug-In . SVG Version: 6.00 Build 0)  -->
<!DOCTYPE svg PUBLIC "-//W3C//DTD SVG 1.1//EN" "http://www.w3.org/Graphics/SVG/1.1/DTD/svg11.dtd">
<svg version="1.1" id="Layer_1" xmlns="http://www.w3.org/2000/svg" xmlns:xlink="http://www.w3.org/1999/xlink" x="0px" y="0px"
	 width="141.73px" height="255.12px" viewBox="-408 153.88 141.73 255.12" enable-background="new -408 153.88 141.73 255.12"
	 xml:space="preserve">
<path fill="none" enable-background="new    " d="M-408,153.88"/>
<g id="wallet" display="none">
	<path display="inline" fill="#15A3B2" d="M-386.841,285.569l29.959,29.959c2.835,2.835,7.432,2.835,10.267,0l55.628-55.628
		c2.835-2.835,2.835-7.432,0-10.267l-29.959-29.959c-2.835-2.835-7.432-2.835-10.267,0l-55.628,55.628
		C-389.676,278.137-389.676,282.733-386.841,285.569z M-296.979,257.334l-52.2,52.2c-1.419,1.419-3.719,1.419-5.138,0l-26.53-26.53
		c-1.419-1.419-1.419-3.719,0-5.138l52.2-52.2c1.419-1.419,3.719-1.419,5.138,0l26.53,26.53
		C-295.561,253.615-295.561,255.915-296.979,257.334z"/>
	<path display="inline" fill="#F39200" d="M-323.666,234.722l4.834,4.834c1.076,1.076,1.076,2.82,0,3.895l-44.231,44.231
		c-1.076,1.076-2.82,1.076-3.895,0l-4.834-4.834c-1.076-1.076-1.076-2.82,0-3.895l44.231-44.231
		C-326.485,233.646-324.741,233.646-323.666,234.722z"/>
	<path display="inline" fill="#007582" d="M-282.241,271.337v56.345c0,5.979-4.847,10.826-10.826,10.826h-90.532
		c-5.979,0-10.826-4.847-10.826-10.826v-56.345c0-5.979,4.847-10.826,10.826-10.826h90.532
		C-287.088,260.511-282.241,265.358-282.241,271.337z"/>
</g>
<g id="paper" display="none">
	<path display="inline" fill="#69D2DC" d="M-310.887,235.787v4.504c0,1.002-0.812,1.814-1.814,1.814h-51.569
		c-1.002,0-1.814-0.812-1.814-1.814v-4.504c0-1.002,0.812-1.815,1.814-1.815h51.569
		C-311.699,233.972-310.887,234.785-310.887,235.787z"/>
	<path display="inline" fill="#15A3B2" d="M-310.887,251.381v4.504c0,1.002-0.812,1.815-1.814,1.815h-51.569
		c-1.002,0-1.814-0.812-1.814-1.815v-4.504c0-1.002,0.812-1.815,1.814-1.815h51.569
		C-311.699,249.566-310.887,250.378-310.887,251.381z"/>
	<path display="inline" fill="#007582" d="M-310.887,267.004v4.504c0,1.002-0.812,1.814-1.814,1.814h-51.569
		c-1.002,0-1.814-0.812-1.814-1.814v-4.504c0-1.002,0.812-1.815,1.814-1.815h51.569
		C-311.699,265.19-310.887,266.002-310.887,267.004z"/>
	<path display="inline" fill="#007582" d="M-317.106,325.727h-36.106c-1.005,0-1.821-0.838-1.821-1.871v-12.165
		c0-1.377-1.086-2.494-2.426-2.494h-13.444c-1.219,0-2.208-1.016-2.208-2.27v-78.81c0-2.404,1.896-4.353,4.235-4.353h60.781
		c2.339,0,4.235,1.949,4.235,4.353v84.628c0,0.329,0.127,0.644,0.353,0.877l4.655,4.785c0.384,0.395,1.04,0.115,1.04-0.443v-92.956
		c0-4.121-3.25-7.462-7.259-7.462H-371.9c-4.009,0-7.259,3.341-7.259,7.462v87.766c0,1.979,0.765,3.876,2.126,5.276l11.391,11.71
		c1.361,1.399,3.207,2.185,5.132,2.185h48.48c0.543,0,0.815-0.675,0.431-1.069l-4.655-4.785
		C-316.479,325.858-316.786,325.727-317.106,325.727z"/>
	<path display="inline" fill="#F39200" d="M-298.04,337.91l-19.293-19.833c-0.484-0.497-2.615-5.09-4.062-8.277
		c-0.494-1.089,0.545-2.157,1.604-1.649c3.1,1.487,7.568,3.678,8.052,4.175l19.293,19.833c0.748,0.769,0.78,1.983,0.072,2.711
		l-3.028,3.113C-296.111,338.712-297.292,338.679-298.04,337.91z"/>
</g>
<g id="bars" display="none">
	<path display="inline" fill="#69D2DC" d="M-328.947,254.389h-57.617c-1.002,0-1.814-0.812-1.814-1.814v-4.504
		c0-1.002,0.812-1.815,1.814-1.815h57.617V254.389z"/>
	<path display="inline" fill="#69D2DC" d="M-312.776,246.257h26.167c1.002,0,1.814,0.812,1.814,1.814v4.504
		c0,1.002-0.812,1.815-1.814,1.815h-26.167V246.257z"/>
	<path display="inline" fill="#F39200" d="M-316.245,246.257v8.132c0,1.002-0.812,1.814-1.815,1.814h-5.603
		c-1.002,0-1.815-0.812-1.815-1.814v-8.132c0-1.002,0.812-1.815,1.815-1.815h5.603
		C-317.058,244.442-316.245,245.255-316.245,246.257z"/>
	<path display="inline" fill="#15A3B2" d="M-344.227,273.947h57.617c1.002,0,1.814,0.812,1.814,1.815v4.504
		c0,1.002-0.812,1.815-1.814,1.815h-57.617V273.947z"/>
	<path display="inline" fill="#15A3B2" d="M-360.397,282.079h-26.167c-1.002,0-1.814-0.812-1.814-1.814v-4.504
		c0-1.002,0.812-1.815,1.814-1.815h26.167V282.079z"/>
	<path display="inline" fill="#F39200" d="M-356.928,282.079v-8.132c0-1.002,0.812-1.815,1.815-1.815h5.603
		c1.002,0,1.815,0.812,1.815,1.815v8.132c0,1.002-0.812,1.815-1.815,1.815h-5.603C-356.115,283.894-356.928,283.081-356.928,282.079
		z"/>
	<path display="inline" fill="#007582" d="M-320.034,301.666h33.424c1.002,0,1.814,0.812,1.814,1.815v4.504
		c0,1.002-0.812,1.815-1.814,1.815h-33.424V301.666z"/>
	<path display="inline" fill="#007582" d="M-336.204,309.799h-50.359c-1.002,0-1.814-0.812-1.814-1.815v-4.504
		c0-1.002,0.812-1.815,1.814-1.815h50.359V309.799z"/>
	<path display="inline" fill="#F39200" d="M-332.735,309.799v-8.132c0-1.002,0.812-1.814,1.815-1.814h5.603
		c1.002,0,1.815,0.812,1.815,1.814v8.132c0,1.002-0.812,1.815-1.815,1.815h-5.603C-331.923,311.613-332.735,310.801-332.735,309.799
		z"/>
</g>
<path fill="none" enable-background="new    " d="M-408,153.88"/>
</svg>
