<?xml version="1.0" encoding="utf-8"?>
<!-- Generator: Adobe Illustrator 20.1.0, SVG Export Plug-In . SVG Version: 6.00 Build 0)  -->
<svg version="1.1" id="Layer_1" xmlns="http://www.w3.org/2000/svg" xmlns:xlink="http://www.w3.org/1999/xlink" x="0px" y="0px"
	 viewBox="0 0 210 200" style="enable-background:new 0 0 210 200;" xml:space="preserve">
<g>
	<g>
		<path style="fill:#FFFFFF;" d="M3.3,123.9l0.3-1.7c2.1-14,14.3-24.8,29-25.7l0,0c5.9,0,11.3,1.5,15.7,4.2l2.4,1.6l1.6-2.4
			C61.8,84.8,77.5,76.1,95,76.1c14.1,0,27.2,5.7,36.7,16.1l1.9,2.2l2.1-1.6c7.9-6.2,17.3-9.5,27.3-9.5c22.3,0,41,16.7,43.5,38.9
			l0.2,1.7H3.3z"/>
		<path style="fill:#7C878E;" d="M207.9,124.9H2.1l0.5-2.9c2.2-14.4,14.8-25.6,29.9-26.5c0,0,0,0,0,0c6,0,11.6,1.5,16.3,4.3l1.6,1.1
			l1-1.6C61.2,83.9,77.1,75.1,95,75.1c14.5,0,27.8,5.8,37.4,16.4l1.3,1.5l1.4-1c8.1-6.3,17.7-9.7,27.9-9.7
			c22.8,0,41.9,17.1,44.5,39.8L207.9,124.9z M4.5,122.9h201.1l-0.1-0.6c-2.4-21.7-20.7-38-42.5-38c-9.7,0-18.9,3.2-26.7,9.3
			l-2.9,2.2l-2.5-2.9c-9.3-10.2-22-15.8-35.9-15.8c-17.3,0-32.5,8.5-41.9,23.3l-2.2,3.3l-3.2-2.2c-4.3-2.6-9.5-4-15.1-4
			c-14.2,0.9-26,11.3-28,24.8L4.5,122.9z"/>
	</g>
</g>
</svg>
