<?xml version="1.0" encoding="utf-8"?>
<!-- Generator: Adobe Illustrator 21.0.0, SVG Export Plug-In . SVG Version: 6.00 Build 0)  -->
<svg version="1.1" id="Layer_1" xmlns="http://www.w3.org/2000/svg" xmlns:xlink="http://www.w3.org/1999/xlink" x="0px" y="0px"
	 viewBox="0 0 50 50" style="enable-background:new 0 0 50 50;" xml:space="preserve">
<style type="text/css">
	.st0{fill:#ED1C24;}
</style>
<path class="st0" d="M19.2,2.5c9.2,0,16.7,7.5,16.7,16.7c0,4.1-1.5,7.9-4,10.9l0.7,0.7h2l12.9,12.9l-3.9,3.9L30.8,34.6v-2l-0.7-0.7
	c-2.9,2.5-6.7,4-10.9,4c-9.2,0-16.7-7.5-16.7-16.7S10,2.5,19.2,2.5 M19.2,7.6c-6.4,0-11.6,5.1-11.6,11.6s5.1,11.6,11.6,11.6
	s11.6-5.1,11.6-11.6S25.6,7.6,19.2,7.6z"/>
</svg>
