<svg xmlns="http://www.w3.org/2000/svg" viewBox="0 0 50 50" class="undefined"><style>.a{fill:#FFF;}</style><path d="M44.4 39.1v6.1c0 0-11.1 2.3-19.4 2.3 -9.3 0-19.4-2.3-19.4-2.3v-6.1c0-5.9 4.6-10.6 10.4-11.5 2.6 1.9 5.9 3 9.4 3 3.5 0 6.6-1.1 9.1-3C40.2 28.5 44.4 33.3 44.4 39.1" class="a"/><path d="M37.3 15.2c0 3.8-1.7 7.2-4.4 9.5 -1.3 1.2-3 2.1-4.7 2.6 -1.2 0.3-2.4 0.5-3.7 0.5 -1.3 0-2.5-0.2-3.7-0.5 -1.8-0.5-3.4-1.4-4.7-2.6 -2.7-2.3-4.4-5.7-4.4-9.5 0-7 5.7-12.7 12.8-12.7C31.6 2.5 37.3 8.2 37.3 15.2" class="a"/></svg>