<svg xmlns="http://www.w3.org/2000/svg" viewBox="0 0 146 128" class="undefined">
    <style>
.a{fill:#F1BB46;}.b{fill:#FFF;}.c{fill:#007582;}.d{fill:#F39200;}.e{fill:#3C474E;}.f{fill:#7B878E;}.g{fill:none;}
</style>
    <path d="M71.8 8.3c-29.8 0-54 24.2-54 54s24.2 54 54 54 54-24.2 54-54C125.8 32.6 101.6 8.3 71.8 8.3z" class="a"/>
    <path d="M71.8 117.3c-30.3 0-55-24.7-55-55s24.7-55 55-55 55 24.7 55 55C126.8 92.7 102.1 117.3 71.8 117.3zM71.8 9.3c-29.2 0-53 23.8-53 53s23.8 53 53 53 53-23.8 53-53S101 9.3 71.8 9.3z" class="b"/>
    <path d="M141.4 95.3c0.2-0.4 0.1-1.1-0.3-1.4L131 86.5c6.8-0.4 8 1.7 9.1 1.7 1.1 0 1.1-0.9 1.3-1.4 0.2-0.4 0.1-0.1-0.3-0.4l-21.6-15.5c-0.1 0-0.1-0.1-0.2-0.1 -0.6-0.2-15.4-6.3-31.7 5.9 -11.4 8.3-17.6 7.8-29 4.7 -0.4-0.1 0.1 0.1-0.2 0.5 -0.2 0.4-0.1 1 0.2 1.3l6.9 7.2c-1.9-0.3-4.1-0.9-6.9-1.6 -0.4-0.1 0.1 0.1-0.2 0.5 -0.2 0.4-0.1 1 0.2 1.3l6.9 7.2c-2.1-0.4-4.3-0.9-7.1-1.7 -0.4-0.1 0.1 0.1-0.2 0.5s-0.2 1 0.1 1.4l6.9 7.2c-1.9-0.3-4.3-0.3-7-1.1 -0.4-0.1 0.2-0.4 0 0 -0.3 0.3-0.2 0.9 0.1 1.2l19 18.2c0.1 0.1 0.3 0.2 0.4 0.2 3.1 0.7 5.7 1.1 8 1.1 7.4 0 12.5-3.4 21.9-10.3 14.4-10.5 31.9-4.1 32.1-4.1 0.5 0.2 1.1 0 1.3-0.5 0.2-0.4 0.1-1.1-0.3-1.4l-10-7.2c5.4 0.4 9.1 1.8 9.2 1.8 0.5 0.2 1.1 0 1.3-0.5 0.2-0.4 0.1-1.1-0.3-1.4l-9.9-7.3c5.4 0.4 9.1 1.8 9.2 1.8C140.6 95.9 141.2 95.7 141.4 95.3" class="c"/>
    <path d="M106.8 113.1c-0.9 0.7-2.7 2.3-3.5 2.9L103 94.7v-0.1 -0.1c0-0.1 0-0.1-0.1-0.2v-0.1V94c0 0 0-0.1-0.1-0.1L86.5 79.3c0.5-0.3 2.2-2 2.8-2.3 1.6-1.3 3.4-1.4 5-2.2l16.3 14.7 0.3 21.3C109.4 111.3 108.2 112.2 106.8 113.1" class="d"/>
    <path d="M141.6 95.4c0.2-0.4 0.1-1.1-0.3-1.4l-10.1-7.5c5.4 0.4 9 2.3 9.1 2.3 0.5 0.2 1.2-0.5 1.4-1 0.2-0.4 0.1-1.1-0.3-1.4l-21.7-15.7c-0.1 0-0.1-0.1-0.2-0.1 -0.6-0.2-15.5-6.4-31.8 6 -11.4 8.4-17.7 7.9-29 4.8 -0.4-0.1-0.9 0.1-1.2 0.5 -0.2 0.4-0.1 1 0.2 1.3l7.9 7.3c-1.9-0.3-4.1-0.9-6.8-1.6 -0.4-0.1-0.9 0.1-1.2 0.5 -0.2 0.4-0.1 1 0.2 1.3l7.9 7.3c-2.1-0.4-4.3-1.2-7.1-2 -0.4-0.1-0.9 0.4-1.2 0.8 -0.3 0.4-0.2 1 0.1 1.4l7.4 7c-1.9-0.3-3.6-0.6-6.3-1.3 -0.4-0.1-0.9 0.1-1.2 0.5 -0.3 0.3-0.2 0.9 0.1 1.2L77.6 124c0.1 0.1 0.3 0.2 0.4 0.2 3.1 0.8 5.7 1.1 8 1.1 7.4 0 12.5-3.5 22-10.4 14.4-10.6 32-4.1 32.2-4.1 0.5 0.2 1.1 0 1.3-0.5 0.2-0.4 0.1-1.1-0.3-1.4l-10-7.3c5.4 0.4 9.1 1.8 9.2 1.8 0.5 0.2 1.1 0 1.3-0.5 0.2-0.4 0.1-1.1-0.3-1.4L131.1 94c5.4 0.4 9.1 1.8 9.2 1.8C140.7 96 141.4 95.8 141.6 95.4zM109.6 70.9c4.9 0 8.3 1.3 8.9 1.5l16.9 12.3c-5.6-1.1-14.6-1.5-23.7 2.9L95.9 73.9c5.3-2.4 9.9-3 13.4-3H109.6zM85.5 80.4l15.8 14.2c-8.3 5.7-12.8 7.1-22.5 5L62.1 84.3C70.6 86.3 76.9 86.1 85.5 80.4zM68.1 92.9l9.4 8.6c0.1 0.1 0.3 0.2 0.4 0.2 3.1 0.8 5.7 1.1 8 1.1 5.6 0 9.9-2 15.9-6l0.1 4.9c-8.7 6.2-13.3 7.8-23.3 5.5L62.1 91.9C64.5 92.4 66.3 92.8 68.1 92.9zM68.1 100.3l9.4 8.6c0.1 0.1 0.3 0.2 0.4 0.2 3.1 0.8 5.7 1.1 8.1 1.1 5.6 0 9.8-2 15.9-6.1l0.1 4.9c-8.8 6.3-13.4 7.8-23.4 5.6L62.1 99.4C64.5 99.9 66.3 100.2 68.1 100.3zM78.8 122.1l-16.7-15.3c2.3 0.5 4.2 0.9 6 1l9.4 8.6c0.1 0.1 0.3 0.2 0.4 0.2 3.1 0.8 5.7 1.1 8 1.1 5.7 0 10-2.1 16.1-6.2l0.1 4.8C93.2 122.8 88.8 124.4 78.8 122.1zM106.9 113.1c-0.9 0.7-1.8 1.3-2.5 1.8l-0.3-20.1v-0.1 -0.1c0-0.1 0-0.1-0.1-0.2v-0.1l-0.1-0.1c0 0 0-0.1-0.1-0.1L87.3 79.2c0.5-0.3 1.1-0.8 1.6-1.1 1.7-1.3 3.3-2.3 4.9-3.1l16.8 14.5 0.3 21.1C109.5 111.3 108.2 112.2 106.9 113.1zM135.5 107.3c-5.4-1.1-13.9-1.6-22.5 2.3l-0.1-5.1c4.9-2.4 10-3.3 14.3-3.3L135.5 107.3zM135.5 99.8c-5.4-1-14-1.5-22.6 2.4l-0.2-5.1c4.9-2.5 10-3.3 14.4-3.3L135.5 99.8zM112.7 94.7l-0.1-5.1c5.1-2.5 10.1-3.4 14.5-3.4l8.1 6C129.9 91.2 121.3 90.8 112.7 94.7z" class="b"/>
    <polygon points="37 84.8 50.4 66.5 51.5 64.3 53.8 61.2 62.2 67.2 59.4 70.9 57.4 72.9 44.9 89.7 39.1 89.6 " class="b"/>
    <path d="M45.1 90.1l-6.2-0.2 -2.3-5.2 13.5-18.4 1.1-2.2 2.6-3.4 8.9 6.4 -3 4 -2 2L45.1 90.1zM39.3 89.2l5.4 0.1 12.4-16.7 2-2 2.5-3.4 -7.8-5.6 -2.1 2.8 -1.1 2.2L37.3 84.7 39.3 89.2z" class="b"/>
    <path d="M88.8 38.2L73.7 26.8c-2-1.5-4.9-1.1-6.4 1L49.6 52.4c-1.5 2.1-1 5.1 1 6.6l15.1 11.3c2 1.5 4.9 1.1 6.4-1l17.6-24.6C91.3 42.6 90.9 39.7 88.8 38.2z" class="e"/>
    <path d="M68.5 72c-1.1 0-2.2-0.4-3.1-1L50.2 59.6c-2.4-1.8-2.9-5.1-1.1-7.6l17.6-24.6c0.8-1.2 2.1-1.9 3.5-2.2 1.4-0.2 2.8 0.1 3.9 1l15.1 11.3c2.4 1.8 2.9 5.1 1.1 7.6L72.8 69.7c-0.8 1.2-2.1 1.9-3.5 2.2C69 71.9 68.8 72 68.5 72zM71 26.6c-0.2 0-0.4 0-0.6 0 -1 0.2-2 0.7-2.6 1.6L50.2 52.8c-1.3 1.8-0.9 4.3 0.8 5.6l15.1 11.3c0.8 0.6 1.9 0.9 2.9 0.7 1-0.2 2-0.7 2.6-1.6l17.6-24.6c1.3-1.8 0.9-4.3-0.8-5.6L73.3 27.4C72.6 26.9 71.8 26.6 71 26.6z" class="f"/>
    <path d="M88.8 38.2L73.7 26.8c-2-1.5-4.9-1.1-6.4 1L49.6 52.4c-1.5 2.1-1 5.1 1 6.6l15.1 11.3c2 1.5 4.9 1.1 6.4-1l17.6-24.6C91.3 42.6 90.9 39.7 88.8 38.2M81.7 43.3c-0.2 0.2-0.9-0.1-1.7-0.7l-7.9-5.9c-0.8-0.6-1.3-1.2-1.1-1.4 0.7-0.9 1.3-1.8 2-2.7 0.2-0.2 0.9 0.1 1.7 0.7l7.9 5.9c0.8 0.6 1.3 1.2 1.1 1.4C83 41.5 82.3 42.4 81.7 43.3" class="g"/>
    <path d="M68.5 72c-1.1 0-2.2-0.4-3.1-1L50.2 59.6c-2.4-1.8-2.9-5.1-1.1-7.6l17.6-24.6c0.8-1.2 2.1-1.9 3.5-2.2 1.4-0.2 2.8 0.1 3.9 1l15.1 11.3c2.4 1.8 2.9 5.2 1.1 7.6L72.8 69.7c-0.8 1.2-2.1 1.9-3.5 2.2C69 71.9 68.8 72 68.5 72zM71 26.6c-0.2 0-0.4 0-0.6 0 -1 0.2-2 0.7-2.6 1.6L50.2 52.8c-1.3 1.8-0.9 4.3 0.8 5.6l15.1 11.3c0.8 0.6 1.9 0.9 2.9 0.7 1-0.2 2-0.7 2.6-1.6l17.6-24.6c1.3-1.8 0.9-4.3-0.8-5.6L73.3 27.4C72.6 26.9 71.8 26.6 71 26.6z" class="b"/>
    <path d="M81.7 43.3c-0.2 0.2-0.9-0.1-1.7-0.7l-7.9-5.9c-0.8-0.6-1.3-1.2-1.1-1.4 0.7-0.9 1.3-1.8 2-2.7 0.2-0.2 0.9 0.1 1.7 0.7l7.9 5.9c0.8 0.6 1.3 1.2 1.1 1.4C83 41.5 82.3 42.4 81.7 43.3z" class="a"/>
    <path d="M81.5 44.1c-0.7 0-1.6-0.6-1.9-0.9l-7.9-5.9c-0.6-0.4-1.9-1.5-1.3-2.4l2-2.7c0.1-0.2 0.3-0.3 0.6-0.4 0.7-0.1 1.7 0.6 2.1 0.9l7.9 5.9c0.6 0.4 1.9 1.5 1.3 2.4l-2 2.7c-0.1 0.2-0.3 0.3-0.6 0.4C81.6 44.1 81.6 44.1 81.5 44.1zM81.1 42.9L81.1 42.9 81.1 42.9zM71.8 35.5c0.1 0.2 0.4 0.4 0.8 0.7l7.9 5.9c0.4 0.3 0.7 0.4 0.9 0.5l1.6-2.2c-0.1-0.2-0.4-0.4-0.8-0.7l-7.9-5.9c-0.4-0.3-0.7-0.4-0.9-0.5L71.8 35.5zM83.1 40.2L83.1 40.2 83.1 40.2z" class="b"/>
    <path d="M70.1 63.5c-0.8 1.1-2.4 1.4-3.5 0.5 -1.1-0.8-1.4-2.4-0.5-3.5 0.8-1.1 2.4-1.4 3.5-0.5C70.7 60.8 70.9 62.4 70.1 63.5" class="g"/>
    <path d="M68 64.9c-0.6 0-1.2-0.2-1.7-0.6 -1.3-0.9-1.6-2.7-0.6-4 0.9-1.3 2.7-1.6 4-0.6 0.6 0.5 1 1.1 1.1 1.9s-0.1 1.5-0.5 2.1l0 0c-0.5 0.6-1.1 1-1.9 1.1C68.3 64.9 68.2 64.9 68 64.9zM68.1 59.9c-0.7 0-1.3 0.3-1.8 0.9 -0.7 1-0.5 2.3 0.5 3 0.5 0.3 1 0.5 1.6 0.4s1.1-0.4 1.4-0.9 0.5-1 0.4-1.6 -0.4-1.1-0.9-1.4C68.9 60 68.5 59.9 68.1 59.9z" class="f"/>
    <polygon points="37 84.8 50.4 66.5 51.5 64.3 53.8 61.2 62.2 67.2 59.4 70.9 57.4 72.9 44.9 89.7 39.1 89.6 " class="g"/>
    <rect x="34.7" y="78.5" transform="matrix(0.5694 -0.822 0.822 0.5694 -44.2142 73.3463)" width="26.5" height="0.7" class="a"/>
    <path d="M68.1 59.9c-0.7 0-1.3 0.3-1.8 0.9 -0.7 1-0.5 2.3 0.5 3 0.5 0.3 1 0.5 1.6 0.4s1.1-0.4 1.4-0.9 0.5-1 0.4-1.6 -0.4-1.1-0.9-1.4C68.9 60 68.5 59.9 68.1 59.9z" class="b"/>
</svg>
