<?xml version="1.0" encoding="utf-8"?>
<!-- Generator: Adobe Illustrator 21.0.2, SVG Export Plug-In . SVG Version: 6.00 Build 0)  -->
<svg version="1.1" id="Layer_1" xmlns="http://www.w3.org/2000/svg" xmlns:xlink="http://www.w3.org/1999/xlink" x="0px" y="0px"
	 viewBox="0 0 1480 170" style="enable-background:new 0 0 1480 170;" xml:space="preserve">
<style type="text/css">
	.st0{fill:#E2E5E7;}
</style>
<path class="st0" d="M358.2,139.8c-69.9,0-148.3-30.3-204-66.6C88.6,30.4,13.8,36.6,13.1,36.7l-0.2-2c0.8-0.1,76.2-6.3,142.4,36.8
	c69.9,45.6,175.9,81.7,255.1,59.7c25.2-7,46.8-15,67.7-22.8c46.5-17.3,86.6-32.2,146.2-28.1c59.9,4.1,111.6,15.2,177,29.2
	c28,6,59.8,12.8,95.4,19.8c49.5,9.6,100.6,4.2,156.3-16.5c48-17.9,90.9-43.8,128.7-66.6c3.5-2.1,6.9-4.2,10.2-6.2
	c35.6-21.4,82.4-25,135.3-10.4c47.7,13.2,97.2,40.4,139.6,76.6l-1.3,1.5c-42.2-36.1-91.5-63.2-138.9-76.2
	c-52.3-14.5-98.6-10.9-133.7,10.2c-3.4,2-6.8,4.1-10.2,6.2c-37.9,22.9-80.8,48.8-129,66.8c-56.1,20.9-107.6,26.3-157.4,16.6
	c-35.6-6.9-67.4-13.7-95.4-19.8c-65.3-14-116.9-25.1-176.7-29.2c-59.2-4-99.1,10.8-145.4,28c-20.9,7.8-42.5,15.8-67.8,22.8
	C394.3,137.7,376.6,139.8,358.2,139.8z"/>
</svg>
