<svg xmlns="http://www.w3.org/2000/svg" viewBox="0 0 93 90">
  <defs>
    <style>
      .cls-1{fill:#fff;}.cls-2{fill:#f39200;fill-rule:evenodd;}.cls-3{fill:#15a3b2;}
    </style>
  </defs>
  <title>
    WOL Icons v1_aj
  </title>
  <g id="FastTrack_Small" data-name="FastTrack Small">
    <rect class="cls-1" x="17.73" y="18.23" width="57.54" height="57.54" rx="2.3" ry="2.3"/>
    <path class="cls-2" d="M58.5,35.92a.89.89,0,0,1,.85,1.21l-9.25,23a.87.87,0,0,0,0,.64L52.94,68a.92.92,0,0,0,1.7,0L69.74,30.38a.89.89,0,0,0-.85-1.21H26.12a.88.88,0,0,0-.69,1.46l4.38,5a.92.92,0,0,0,.69.31Z"/>
    <path class="cls-3" d="M51.08,39.23H23.24a.89.89,0,0,0-.69,1.47l5.56,5.8a.92.92,0,0,0,.69.31H39.9c.64,0,2.29.6,1.79,2.77L38,59.33l-.42,1.32s0,.06,0,.09v.08s0,.08,0,.11a.9.9,0,0,0,0,.11,1,1,0,0,0,0,.11v0a.82.82,0,0,0,0,.17h0a.85.85,0,0,0,0,.11l0,.05h0l.71,1.22.3.52,2.64,4.87c.53.81,1.39.76,1.69,0L53.3,42.25A2.26,2.26,0,0,0,51.08,39.23Z"/>
  </g>
</svg>
