<?xml version="1.0" encoding="utf-8"?>
<svg version="1.1" id="Layer_1" xmlns="http://www.w3.org/2000/svg" x="0" y="0" viewBox="0 0 160 160" style="enable-background:new 0 0 160 160;" xml:space="preserve">
  <style type="text/css">
    .st0{fill:#FFFFFF;} .st1{fill:#7C878E;} .st2{fill:#F2BC47;} .st3{fill:#69D2DC;} .st4{fill:#E2E5E7;} .st5{fill:#15A3B2;} .st6{fill:#F39200;} .st7{display:none;}
  </style>
  <g>
    <path class="st0" d="M121.1,119c-2.1,0-4.1-1-5.4-2.7l-0.7-0.9l-0.7,0.9c-1.2,1.7-3.3,2.7-5.4,2.7c-0.5,0-0.9-0.1-1.4-0.2l0.9-9.2 c0-0.2-0.1-0.5-0.2-0.6c-0.2-0.2-0.4-0.3-0.6-0.3H89.7v-3.3c0-0.5-0.4-0.8-0.8-0.8h-13v-0.9c0.2,0,0.3,0.1,0.5,0.1 c0.1,0,0.1,0,0.2,0s7.1-0.8,14.8-0.8c5.1,0,9.3,0.3,12.4,1c0.1,0,0.2,0,0.4,0c0.6,0,1.1-0.3,1.4-0.8c0.4-0.6,0.3-1.4-0.2-2 c-0.1-0.1-6.4-7.4-12.9-17.8c-6-9.5-13.3-23.6-14.6-36.8c-0.1-0.9-0.8-1.5-1.7-1.5h-0.1c-0.6,0-1.1,0.4-1.4,0.8 c-0.2,0-0.3,0-0.5,0.1C59.6,54.2,53,66,50.1,74.5c-3.6,10.6-3,20.2-0.8,25.2c0,0.6,0.5,1.5,2.3,2.7c0,0,0,0,0.1,0 c0.1,0.1,0.2,0.1,0.3,0.2c0.6,0.4,1.4,0.8,2.3,1.2c0.1,0.1,0.2,0.1,0.3,0.1l0,0c0.5,0,0.8-0.4,0.8-0.8c0-0.1,0-0.1,0-0.2 s0-0.3,0-0.7c4.1-0.8,8-1.3,11.5-1.3c4.2,0,6.6,0.6,7.5,0.9v2.7H64c-0.1,0-0.2,0-0.4,0.1c-0.1,0.1-2.8,1.3-5,4.1H44 c-0.3,0-0.5,0.1-0.7,0.4c-0.2,0.2-0.2,0.5-0.1,0.8c0.7,1.9,2.5,3.7,4.4,5.5c1.1,1.1,2.2,2.1,3.1,3.3c-0.7,0.2-1.4,0.4-2.2,0.4 c-2.1,0-4.1-1-5.4-2.7l-0.7-0.9l-0.7,0.9c-1.2,1.7-3.3,2.7-5.4,2.7c-0.5,0-0.8,0.4-0.8,0.8s0.4,0.8,0.8,0.8c2.3,0,4.5-1,6-2.6 c1.6,1.6,3.8,2.6,6,2.6c1.4,0,2.7-0.3,3.8-0.9c0,0,0,0,0.1,0c0,0,0.1,0,0.1-0.1c0.1-0.1,0.3-0.2,0.4-0.2c0.1,0,0.1-0.1,0.2-0.1 c0.1-0.1,0.2-0.2,0.3-0.2l0.1-0.1c0.2-0.1,0.3-0.2,0.4-0.4l0.1-0.1c0.1-0.1,0.3-0.3,0.4-0.4c1.3,1.3,2.9,2.2,4.7,2.5 c0.1,0,0.2,0,0.2,0c0.4,0,0.7,0.1,1.1,0.1c2.3,0,4.5-1,6-2.6c1.6,1.6,3.8,2.6,6,2.6c2.3,0,4.5-1,6-2.6c1.6,1.7,3.8,2.6,6,2.6 c2.3,0,4.5-1,6-2.6c1.6,1.7,3.8,2.6,6,2.6c0.1,0,0.3,0,0.4,0c2-0.1,3.9-0.9,5.3-2.3c0.1-0.1,0.2-0.2,0.3-0.3 c0.1,0.1,0.2,0.2,0.4,0.4c0,0,0,0,0.1,0.1s0.2,0.2,0.3,0.3l0.1,0.1c0.1,0.1,0.2,0.2,0.3,0.2l0.1,0.1c0.1,0.1,0.2,0.1,0.3,0.2 c0,0,0.1,0,0.1,0.1c0.1,0.1,0.2,0.2,0.4,0.2c0.1,0,0.2,0.1,0.3,0.1c0,0,0.1,0,0.1,0.1c0.1,0,0.2,0.1,0.3,0.1h0.1 c0.1,0,0.2,0.1,0.3,0.1l0,0c0.1,0,0.2,0.1,0.3,0.1l0,0c0.8,0.3,1.7,0.4,2.5,0.4c2.3,0,4.5-1,6-2.6c1.6,1.7,3.8,2.6,6,2.6 c0.5,0,0.8-0.4,0.8-0.8S121.5,119,121.1,119z"/>
    <path class="st1" d="M120.2,121.3c-2.2,0-4.4-0.9-6-2.4c-1.6,1.5-3.8,2.4-6,2.4c-0.7,0-1.7-0.1-2.6-0.4c-0.1,0-0.2-0.1-0.3-0.1 c0,0,0,0,0,0c-0.1,0-0.2-0.1-0.3-0.1c-0.2,0-0.3-0.1-0.4-0.1h-0.4v-0.2c-0.3,0-0.5-0.2-0.6-0.3l0,0c0,0,0,0,0,0l-0.1-0.1 c-0.1,0-0.2-0.1-0.3-0.2l0,0c-0.2-0.1-0.3-0.2-0.4-0.3l-0.5-0.5c-1.5,1.4-3.4,2.3-5.6,2.4l-0.4,0c-2.2,0-4.4-0.9-6-2.4 c-1.6,1.5-3.8,2.4-6,2.4c-2.2,0-4.4-0.9-6-2.4c-1.6,1.5-3.8,2.4-6,2.4c-2.1,0-4.3-0.9-6-2.4c-1.6,1.5-3.8,2.4-6,2.4 c-0.2,0-0.4,0-0.6-0.1c-0.2,0-0.3,0-0.5,0h-0.2c-1.8-0.3-3.3-1.1-4.7-2.3l-0.1,0.1c-0.1,0.2-0.3,0.4-0.5,0.5l-0.2,0.2h-0.1 c0,0,0,0-0.1,0.1l-0.1,0.1H53c-0.1,0-0.2,0.1-0.3,0.1c-0.1,0.2-0.3,0.3-0.5,0.3c-1.1,0.6-2.5,0.9-3.9,0.9c-2.1,0-4.3-0.9-6-2.4 c-1.6,1.5-3.8,2.4-6,2.4c-0.7,0-1.3-0.6-1.3-1.3c0-0.6,0.5-1.3,1.3-1.3c2,0,3.9-1,5-2.5l1.1-1.4l1.1,1.4c1.2,1.6,3.1,2.5,5,2.5 c0.5,0,0.9-0.1,1.3-0.2c-0.6-0.7-1.2-1.3-1.9-2l-0.7-0.7c-2-1.9-3.8-3.7-4.5-5.7c-0.2-0.5-0.1-1,0.2-1.3c0.2-0.3,0.6-0.5,1.1-0.5 h14.4c1.3-1.6,2.9-2.9,4.8-3.9c0.1,0,0.1-0.1,0.1-0.1c0.3-0.2,0.5-0.2,0.7-0.2h9.9v-1.8c-0.9-0.3-3.2-0.8-7-0.8 c-3.1,0-6.7,0.4-11,1.2v0.5c0,0.6-0.5,1.3-1.3,1.3c-0.1,0-0.3,0-0.6-0.2c-1-0.4-1.8-0.8-2.3-1.2l-0.1-0.1c0,0-0.1,0-0.1,0h-0.1 l-0.1-0.1c-1.6-1.1-2.5-2.1-2.5-3c-2-4.7-3-14.2,0.8-25.5c2.9-8.5,9.5-20.4,24.3-28.8c0.2-0.1,0.4-0.1,0.5-0.2 c0.3-0.3,0.9-0.8,1.6-0.8h0.1c1.2,0,2.1,0.8,2.2,1.9c1.4,14,9.7,28.9,14.5,36.6c6.5,10.5,12.8,17.7,12.8,17.7 c0.7,0.8,0.8,1.8,0.3,2.6c-0.4,0.6-1.1,1-1.8,1l-0.5,0c-2.9-0.7-7-1-12.3-1c-3.9,0-8.3,0.2-12.7,0.6h10.2c0.6,0,1.3,0.5,1.3,1.3 v2.8h17.4c0.3,0,0.7,0.2,1,0.4c0.2,0.2,0.3,0.7,0.3,1l-0.9,8.8c0.3,0.1,0.6,0.1,0.9,0.1c2,0,3.9-1,5-2.5l1.1-1.4l1.1,1.4 c1.2,1.6,3.1,2.5,5,2.5c0.3,0,0.5,0.2,0.6,0.3c0.2,0.3,0.1,0.6,0,0.9c0,0.1-0.1,0.3-0.1,0.3C121.5,120.6,121,121.3,120.2,121.3z M114.2,117.5l0.4,0.4c1.5,1.6,3.5,2.4,5.6,2.4c0.2,0,0.3-0.2,0.3-0.3c0-0.2,0.1-0.4,0.1-0.5c-2.1-0.1-4-1.2-5.3-2.9l-0.3-0.4 l-0.3,0.4c-1.3,1.8-3.5,2.9-5.8,2.9c-0.5,0-0.9-0.1-1.3-0.2l-0.6-0.1l0.9-9.7c0,0,0-0.2-0.1-0.2c-0.1-0.1-0.2-0.1-0.2-0.1H89.2 v-3.8c0-0.2-0.2-0.3-0.3-0.3H75.4v-1.9h0.5c0.2,0,0.3,0,0.4,0.1l0.3,0l0.2,0c4.9-0.5,10.1-0.8,14.6-0.8c5.4,0,9.4,0.3,12.5,1h0.3 c0.4,0,0.8-0.2,1-0.6c0.3-0.4,0.2-1-0.2-1.4c0,0-6.4-7.4-12.9-17.9c-6-9.4-13.3-23.5-14.7-37c-0.1-0.6-0.5-1-1.2-1h-0.1 c-0.5,0-0.9,0.5-1,0.6L75,46.4h-0.2c-0.2,0-0.2,0-0.3,0c-14.5,8.2-21,19.9-23.9,28.2c-3.5,10.4-3,20-0.8,24.8l0,0.2 c0,0.3,0.2,1,2,2.2h0.2l0.1,0.1c0.1,0,0.2,0.1,0.3,0.2c0.4,0.3,1.2,0.7,2.1,1.1l0.1,0.1c0.2,0,0.3-0.2,0.3-0.3v-1.3l0.4-0.1 c4.5-0.9,8.3-1.3,11.6-1.3c4.4,0,6.8,0.6,7.7,0.9l0.3,0.1v3.6H64c-0.1,0-0.1,0-0.1,0c0,0-0.1,0.1-0.2,0.1c-1.9,1-3.4,2.3-4.6,3.9 l-0.1,0.2H44c-0.1,0-0.2,0-0.3,0.2c-0.1,0.1-0.1,0.2,0,0.4c0.7,1.8,2.4,3.5,4.3,5.3l0.7,0.7c0.9,0.9,1.7,1.7,2.5,2.7l0.4,0.6 l-0.7,0.2c-0.7,0.2-1.5,0.4-2.3,0.4c-2.2,0-4.4-1.1-5.8-2.9l-0.3-0.4l-0.3,0.4c-1.3,1.8-3.5,2.9-5.8,2.9c-0.2,0-0.3,0.2-0.3,0.3 c0,0.1,0.2,0.3,0.3,0.3c2.1,0,4.2-0.9,5.6-2.4l0.4-0.4l0.4,0.4c1.5,1.5,3.6,2.5,5.6,2.5c1.3,0,2.5-0.3,3.6-0.8l0.1-0.1 c0.1-0.1,0.3-0.2,0.5-0.3c0,0,0.1,0,0.1-0.1c0.1-0.1,0.2-0.2,0.3-0.2l0.1-0.1c0.1-0.1,0.1-0.1,0.2-0.2l0.2-0.2l0.8-0.8l0.4,0.4 c1.3,1.3,2.8,2.1,4.4,2.4l0.1,0c0.2,0,0.4,0,0.6,0.1c0.2,0,0.3,0,0.5,0c2.1,0,4.2-0.9,5.6-2.4l0.4-0.4l0.4,0.4 c1.5,1.5,3.6,2.5,5.6,2.5c2.1,0,4.2-0.9,5.6-2.4l0.4-0.4l0.4,0.4c1.5,1.6,3.5,2.4,5.6,2.4c2.1,0,4.2-0.9,5.6-2.4l0.4-0.4l0.4,0.4 c1.5,1.6,3.5,2.4,5.6,2.4h0.4c1.9-0.1,3.7-0.9,4.9-2.2l0.7-0.7l1.3,1.3c0,0,0,0,0.1,0.1h0.1l0.2,0.2c0.1,0,0.1,0.1,0.2,0.1 c0.1,0,0.2,0.1,0.3,0.2c0.2,0.1,0.3,0.1,0.4,0.1c0,0,0,0,0,0c0.1,0,0.3,0.1,0.4,0.2c0,0,0,0,0,0c0.2,0,0.3,0.1,0.4,0.1c0,0,0,0,0,0 c0.1,0,0.2,0.1,0.3,0.1l0.1,0c0.6,0.2,1.4,0.4,2.3,0.4c2.1,0,4.2-0.9,5.6-2.4L114.2,117.5z M105.4,119.8L105.4,119.8L105.4,119.8z M103.4,119.7C103.4,119.7,103.4,119.7,103.4,119.7L103.4,119.7z M104.6,119.5L104.6,119.5L104.6,119.5z M103.6,118.8L103.6,118.8 L103.6,118.8z"/>
  </g>
  <g>
    <path class="st2" d="M103,102c-3.7-0.8-8.3-1-12.7-1c-7.8,0-15,0.8-15,0.8c0-27.4-0.2-55.3-0.2-55.3C77.6,72.6,103,102,103,102z"/>
    <path class="st1" d="M104.4,102.8l-1.5-0.3c-3.1-0.7-7.1-1-12.6-1c-7.7,0-14.9,0.8-14.9,0.8l-0.6,0.1v-0.6c0-27.1-0.2-55-0.2-55.3 l1-0.1c2.5,25.6,27.5,54.9,27.8,55.2L104.4,102.8z M75.6,53c0.1,9.8,0.2,29.2,0.2,48.3c1.8-0.2,8-0.7,14.5-0.7 c4.8,0,8.5,0.2,11.4,0.7C97.6,96.2,80.4,74.3,75.6,53z"/>
  </g>
  <g>
    <path class="st3" d="M52.6,100.9C52.6,100.9,52.6,101,52.6,100.9c0,0.2,0,0.3,0,0.4c-0.1-0.1-0.2-0.1-0.3-0.2c0,0-0.1,0-0.1-0.1 c-0.1,0-0.1-0.1-0.2-0.1c0,0-0.1,0-0.1-0.1c-0.2-0.1-0.4-0.2-0.5-0.3c0,0-0.1,0-0.1-0.1c-0.1,0-0.1-0.1-0.1-0.1s-0.1,0-0.1-0.1 l-0.1-0.1c0,0,0,0-0.1-0.1l-0.1-0.1l0,0c-0.1,0-0.1-0.1-0.1-0.1l0,0l-0.1-0.1l0,0c0,0,0,0-0.1-0.1l0,0c0,0,0,0-0.1-0.1l0,0 c0,0,0-0.1-0.1-0.1l0,0c0,0,0,0,0-0.1l0,0l0,0l0,0l0,0l0,0l0,0c0-0.1,0-0.3-0.1-0.4c-2.1-4.6-2.7-13.8,0.8-24.1 c2.4-7.1,7.5-16.7,18.1-24.3c-4.5,5.5-7.7,11.3-10,17l0,0l0,0c-0.2,0.5-0.4,0.9-0.5,1.4c0,0.1-0.1,0.2-0.1,0.3 c-1.9,5-3.1,9.7-3.9,13.8C52.6,91.1,52.6,97.8,52.6,100.9z"/>
    <path class="st1" d="M53.1,102.5l-0.9-0.8c-0.1,0-0.1-0.1-0.2-0.1c-0.1,0-0.2-0.1-0.2-0.2c0,0,0,0,0,0c-0.1,0-0.2-0.1-0.3-0.2 c-0.1-0.1-0.3-0.1-0.4-0.2c-0.1,0-0.2-0.1-0.2-0.2c0,0-0.1-0.1-0.1-0.1c-0.1-0.1-0.1-0.1-0.2-0.2l-0.1-0.1 c-0.1-0.1-0.2-0.2-0.3-0.3l-0.2-0.2h-0.3v-0.6c0,0,0-0.1,0-0.1C47.6,94.4,47,85,50.5,74.6c2.3-6.9,7.4-16.7,18.3-24.5l3.1-2.2 l-2.4,2.9c-4.1,5-7.4,10.7-9.9,16.9L59.4,68c-0.1,0.3-0.3,0.6-0.3,1c0,0.1-0.1,0.2-0.1,0.3l0,0.1c-1.7,4.4-2.9,8.9-3.9,13.7 c-2,8.1-2,14.6-2,17.8V102.5z M51.8,100.2c0.1,0,0.2,0.1,0.3,0.2c0-3.4,0.1-9.8,2-17.5c0.9-4.9,2.2-9.4,3.9-13.8 c0-0.1,0.1-0.2,0.1-0.3c0,0,0,0,0,0.1c0.1-0.5,0.2-0.9,0.4-1.3l0.1-0.3c2-5.1,4.6-9.8,7.7-14C57.7,60.5,53.5,68.9,51.5,75 c-3.4,10.1-2.9,19.1-0.8,23.7c0.1,0.2,0.2,0.4,0.2,0.5c0,0,0,0,0,0.1l0.6,0.6h0.3v0.1h0.1V100.2z"/>
  </g>
  <g>
    <path class="st4" d="M65.8,98.9c-3,0-6.9,0.3-11.5,1.3c0-3.3,0.1-9.5,1.6-17c0.6-3,1.4-6.4,2.6-9.9c1.9,5.7,6,14.3,14.9,25.5v0.9 C72.1,99.4,69.6,98.9,65.8,98.9z"/>
    <path class="st1" d="M53.8,100.8v-0.6c0-3.9,0.2-9.9,1.6-17.1c0.8-3.8,1.6-7,2.6-10l0.5-1.4l0.5,1.4c1.8,5.3,5.8,13.9,14.8,25.3 l0.1,0.1v1.7l-0.6-0.1c-0.8-0.2-3.4-0.8-7.5-0.8c-3.6,0-7.5,0.4-11.4,1.3L53.8,100.8z M58.5,74.9c-0.8,2.5-1.5,5.3-2.1,8.4 c-1.4,6.8-1.6,12.4-1.6,16.3c3.8-0.8,7.5-1.2,11-1.2c3.5,0,5.9,0.4,7.1,0.7V99C64.6,88.5,60.5,80.2,58.5,74.9z"/>
  </g>
  <g>
    <path class="st3" d="M63.2,105.9H87v2.5h-5.3c0.3-0.3,0.5-0.6,0.5-1c0-0.8-0.6-1.4-1.4-1.4s-1.4,0.6-1.4,1.4c0,0.4,0.2,0.8,0.5,1 h-4.6c0.3-0.3,0.5-0.6,0.5-1c0-0.8-0.6-1.4-1.4-1.4s-1.4,0.6-1.4,1.4c0,0.4,0.2,0.8,0.5,1h-5.1c0.3-0.3,0.5-0.6,0.5-1 c0-0.8-0.6-1.4-1.4-1.4s-1.4,0.6-1.4,1.4c0,0.4,0.2,0.8,0.5,1H60C61.3,106.9,62.8,106.1,63.2,105.9z"/>
    <path class="st1" d="M87.5,108.9H58.9l0.7-0.8c1.3-1.6,2.9-2.4,3.4-2.6l0.1-0.1h24.4V108.9z M80.8,106.5c-0.5,0-0.9,0.4-0.9,0.9 c0,0.2,0.1,0.5,0.3,0.6l0.7,0.5l0.4-0.4c0.3-0.3,0.4-0.4,0.4-0.6C81.7,106.9,81.3,106.5,80.8,106.5z M74.4,106.5 c-0.5,0-0.9,0.4-0.9,0.9c0,0.2,0.1,0.5,0.3,0.6l0.7,0.5l0.4-0.4c0.3-0.3,0.4-0.5,0.4-0.6C75.3,106.9,74.9,106.5,74.4,106.5z M67.5,106.5c-0.5,0-0.9,0.4-0.9,0.9c0,0.2,0.1,0.5,0.3,0.6l0.7,0.5L68,108c0.3-0.3,0.4-0.5,0.4-0.6 C68.4,106.9,68,106.5,67.5,106.5z M82.6,107.9h3.9v-1.5h-4.1c0.2,0.3,0.3,0.6,0.3,1C82.7,107.6,82.7,107.8,82.6,107.9z M76.2,107.9 H79c0-0.2-0.1-0.3-0.1-0.5c0-0.4,0.1-0.7,0.3-1H76c0.2,0.3,0.3,0.6,0.3,1C76.3,107.6,76.3,107.8,76.2,107.9z M69.3,107.9h3.3 c0-0.2-0.1-0.3-0.1-0.5c0-0.4,0.1-0.7,0.3-1h-3.6c0.2,0.3,0.3,0.6,0.3,1C69.4,107.6,69.4,107.8,69.3,107.9z M61.2,107.9h4.5 c0-0.2-0.1-0.3-0.1-0.5c0-0.4,0.1-0.7,0.3-1h-2.5C62.9,106.6,62.1,107.1,61.2,107.9z"/>
  </g>
  <g>
    <path class="st3" d="M105.9,118.7c-0.2-0.1-0.4-0.2-0.6-0.4l0,0c-0.1,0-0.1-0.1-0.2-0.1s-0.1-0.1-0.2-0.1c0,0,0,0-0.1,0 c-0.4-0.3-0.8-0.7-1.1-1c-0.1-0.1-0.2-0.2-0.2-0.3l-0.7-0.9l-0.7,0.9c-1.2,1.7-3.3,2.7-5.4,2.7s-4.1-1-5.4-2.7l-0.7-0.9l-0.7,0.9 c-1.2,1.7-3.3,2.7-5.4,2.7s-4.1-1-5.4-2.7l-0.7-0.9l-0.7,0.9c-1.2,1.7-3.3,2.7-5.4,2.7s-4.1-1-5.4-2.7l-0.7-0.9l-0.7,0.9 c-1.2,1.7-3.3,2.7-5.4,2.7c-2.1,0-4.1-1-5.4-2.7l-0.7-0.9l-0.7,0.9c-0.1,0.1-0.2,0.3-0.3,0.4l-0.1,0.1c-0.1,0.1-0.2,0.2-0.3,0.4 l0,0c-0.1,0.1-0.3,0.2-0.4,0.3l-0.1,0.1c-0.1,0.1-0.2,0.2-0.3,0.2c0,0-0.1,0-0.1,0.1c-1-1.2-2-2.3-3.1-3.3h57.2L105.9,118.7z"/>
    <path class="st1" d="M96.7,120c-2.2,0-4.4-1.1-5.8-2.9l-0.3-0.4l-0.3,0.4c-1.3,1.8-3.5,2.9-5.8,2.9c-2.2,0-4.4-1.1-5.8-2.9 l-0.3-0.4l-0.3,0.4c-1.3,1.8-3.5,2.9-5.8,2.9c-2.2,0-4.4-1.1-5.8-2.9l-0.3-0.4l-0.3,0.4c-1.3,1.8-3.5,2.9-5.8,2.9 c-2.2,0-4.4-1.1-5.8-2.9l-0.3-0.4l-0.3,0.4c-0.1,0.1-0.1,0.1-0.1,0.2c-0.1,0.1-0.1,0.2-0.2,0.3l-0.1,0.1c-0.1,0.1-0.1,0.1-0.2,0.3 l-0.1,0.1c-0.1,0.1-0.2,0.1-0.3,0.2c0,0-0.1,0.1-0.1,0.1l-0.1,0.1c-0.1,0.1-0.1,0.1-0.3,0.2v1.1l-0.9-1.1c-1.1-1.3-2.1-2.4-3.1-3.3 l-1-0.9h59l0.1,4.9l-0.7-0.4l0.2-0.4l-0.2,0.4c-0.2-0.1-0.4-0.2-0.6-0.4c0,0-0.1,0-0.1-0.1c-0.1,0-0.1,0-0.2-0.1h-0.1l-0.1-0.1 c-0.4-0.3-0.9-0.8-1.2-1c-0.1-0.1-0.2-0.2-0.3-0.4l-0.2-0.3l-0.3,0.4C101.2,118.9,99,120,96.7,120z M91,115.6l0.7,0.9 c1.2,1.6,3.1,2.5,5,2.5c2,0,3.9-1,5-2.5l0.7-0.9H91z M78.8,115.6l0.7,0.9c1.2,1.6,3.1,2.5,5,2.5c2,0,3.9-1,5-2.5l0.7-0.9H78.8z M66.6,115.6l0.7,0.9c1.2,1.6,3.1,2.5,5,2.5c2,0,3.9-1,5-2.5l0.7-0.9H66.6z M54.4,115.6l0.7,0.9c1.2,1.6,3.1,2.5,5,2.5 c2,0,3.9-1,5-2.5l0.7-0.9H54.4z M105.3,117.7c0,0,0.1,0,0.1,0l-0.1-2.2h-2.1l0.8,1.1c0,0,0,0,0.1,0.1c0.2,0.2,0.6,0.6,0.9,0.9 C105.1,117.6,105.2,117.7,105.3,117.7z M49.8,115.6c0.6,0.6,1.2,1.3,1.9,2.1l0.1-0.1c0.1-0.1,0.2-0.1,0.3-0.2c0,0,0.1,0,0.1-0.1 c0.1-0.2,0.2-0.3,0.3-0.4l0.1-0.1c0,0,0.1-0.1,0.1-0.1c0.1-0.1,0.1-0.2,0.2-0.3l0.7-0.8H49.8z"/>
  </g>
  <g>
    <path class="st3" d="M105.5,112.5h-59c-0.8-0.8-1.6-1.7-2.1-2.5h13h27.5H87h1.7h17L105.5,112.5z"/>
    <path class="st1" d="M106,113H46.3l-0.1-0.1c-1-1-1.7-1.8-2.2-2.6l-0.5-0.8h62.7L106,113z M46.7,112H105l0.1-1.5H45.4 C45.7,111,46.2,111.5,46.7,112z"/>
  </g>
  <g>
    <g>
      <path class="st0" d="M101.1,109.7c0,7.6,6.2,13.8,13.8,13.8c7.6,0,13.8-6.2,13.8-13.8c0-7.6-6.2-13.8-13.8-13.8 C107.3,95.9,101.1,102.1,101.1,109.7z"/>
      <path class="st1" d="M114.9,124c-7.9,0-14.3-6.4-14.3-14.3s6.4-14.3,14.3-14.3c7.9,0,14.3,6.4,14.3,14.3S122.8,124,114.9,124z M114.9,96.4c-7.3,0-13.3,6-13.3,13.3s6,13.3,13.3,13.3s13.3-6,13.3-13.3S122.2,96.4,114.9,96.4z"/>
    </g>
    <g>
      <path class="st3" d="M114.1,109.8h-6.4c-0.5,0-1-0.5-1-1v-6.5c0-0.6,0.5-1,1-1h6.4c0.5,0,1,0.4,1,1v6.5 C115.1,109.3,114.7,109.8,114.1,109.8z"/>
    </g>
    <g>
      <path class="st2" d="M122.5,109.8h-6.4c-0.6,0-1-0.5-1-1v-6.5c0-0.6,0.4-1,1-1h6.4c0.6,0,1,0.4,1,1v6.5 C123.5,109.3,123,109.8,122.5,109.8z"/>
    </g>
    <g>
      <path class="st5" d="M114.1,117.5h-6.4c-0.5,0-1-0.5-1-1V110c0-0.5,0.5-1,1-1h6.4c0.5,0,1,0.5,1,1v6.5 C115.1,117.1,114.7,117.5,114.1,117.5z"/>
    </g>
    <g>
      <path class="st6" d="M122.5,117.5h-6.4c-0.6,0-1-0.5-1-1V110c0-0.5,0.4-1,1-1h6.4c0.6,0,1,0.5,1,1v6.5 C123.5,117.1,123,117.5,122.5,117.5z"/>
    </g>
    <g>
      <path class="st1" d="M115.4,111.9L115.4,111.9L115.4,111.9L115.4,111.9z"/>
    </g>
    <g>
      <path class="st0" d="M108.9,105.9h1.3v1.3c0,0.3,0.2,0.5,0.5,0.5s0.5-0.2,0.5-0.5v-1.3h1.3c0.3,0,0.5-0.2,0.5-0.5 s-0.2-0.5-0.5-0.5h-1.3v-1.3c0-0.3-0.2-0.5-0.5-0.5s-0.5,0.2-0.5,0.5v1.3h-1.3c-0.3,0-0.5,0.2-0.5,0.5S108.7,105.9,108.9,105.9z"/>
    </g>
    <g>
      <path class="st0" d="M117.6,105.9h3.6c0.3,0,0.5-0.2,0.5-0.5s-0.2-0.5-0.5-0.5h-3.6c-0.3,0-0.5,0.2-0.5,0.5 S117.4,105.9,117.6,105.9z"/>
    </g>
    <g>
      <path class="st0" d="M111.5,113.8l0.9-0.9c0.2-0.2,0.2-0.5,0-0.7s-0.5-0.2-0.7,0l-0.9,0.9l-0.9-0.9c-0.2-0.2-0.5-0.2-0.7,0 s-0.2,0.5,0,0.7l0.9,0.9l-0.9,0.9c-0.2,0.2-0.2,0.5,0,0.7c0.1,0.1,0.2,0.1,0.4,0.1c0.1,0,0.3,0,0.4-0.1l0.9-0.9l0.9,0.9 c0.1,0.1,0.2,0.1,0.4,0.1s0.3,0,0.4-0.1c0.2-0.2,0.2-0.5,0-0.7L111.5,113.8z"/>
    </g>
    <g>
      <path class="st0" d="M121.2,112.4h-3.6c-0.3,0-0.5,0.2-0.5,0.5s0.2,0.5,0.5,0.5h3.6c0.3,0,0.5-0.2,0.5-0.5 S121.5,112.4,121.2,112.4z"/>
    </g>
    <g>
      <path class="st0" d="M121.2,114.2h-3.6c-0.3,0-0.5,0.2-0.5,0.5s0.2,0.5,0.5,0.5h3.6c0.3,0,0.5-0.2,0.5-0.5 C121.7,114.5,121.5,114.2,121.2,114.2z"/>
    </g>
    <g>
      <path class="st1" d="M114.5 101H115.5V117.5H114.5z"/>
    </g>
    <g>
      <path class="st1" d="M106.4 108.8H123.9V109.8H106.4z"/>
    </g>
    <g>
      <path class="st1" d="M121.7,118.1h-13.3c-1.4,0-2.5-1.1-2.5-2.5V103c0-1.4,1.1-2.5,2.5-2.5h13.3c1.4,0,2.5,1.1,2.5,2.5v12.6 C124.2,117,123.1,118.1,121.7,118.1z M108.4,101.5c-0.8,0-1.5,0.7-1.5,1.5v12.6c0,0.8,0.7,1.5,1.5,1.5h13.3c0.8,0,1.5-0.7,1.5-1.5 V103c0-0.8-0.7-1.5-1.5-1.5H108.4z"/>
    </g>
  </g>
  <g id="Layer_24"/>
  <g id="Background_Farm"/>
  <g id="Layer_35"/>
  <g id="City"/>
  <g id="Layer_48"/>
  <g id="Layer_44"/>
  <g id="Layer_38"/>
  <g id="Layer_39"/>
  <g id="Layer_40"/>
  <g id="Layer_41"/>
  <g id="Layer_42"/>
  <g id="Layer_43"/>
  <g id="Layer_36"/>
  <g id="Layer_37"/>
  <g id="Bales_of_Hay" class="st7"/>
  <g id="Layer_3"/>
  <g id="Helicopter"/>
  <g id="Layer_7"/>
  <g id="Big_Truck" class="st7"/>
  <g id="Layer_6"/>
  <g id="Big_Truck_1_"/>
  <g id="Tractor"/>
  <g id="Layer_4" class="st7"/>
  <g id="Layer_11"/>
  <g id="Tractor_with_plough"/>
  <g id="Layer_20"/>
  <g id="Cement_Truck"/>
  <g id="DumpTruck"/>
  <g id="Car"/>
  <g id="Delivery_Van"/>
  <g id="Little_Truck"/>
  <g id="Sign_Post"/>
  <g id="Sun"/>
  <g id="Clouds"/>
  <g id="Wrench"/>
  <g id="Full_Maintenance_Lease"/>
  <g id="Operating_Lease"/>
  <g id="Managed_Maintenance"/>
  <g id="Layer_30"/>
  <g id="Layer_29"/>
  <g id="Sale_and_Lease_Back"/>
  <g id="Layer_31"/>
  <g id="Support"/>
  <g id="Layer_33"/>
  <g id="Layer_46"/>
  <g id="Layer_47"/>
  <g id="Layer_49"/>
  <g id="Layer_50"/>
  <g id="Layer_51"/>
  <g id="People"/>
  <g id="Layer_58">
    <g id="Layer_57"/>
  </g>
  <g id="Tie"/>
  <g id="Layer_53"/>
  <g id="shoes"/>
  <g id="Layer_56"/>
  <g id="Layer_59"/>
  <g id="affordability"/>
  <g id="cash"/>
  <g id="Layer_64"/>
  <g id="Layer_61"/>
  <g id="Layer_63"/>
  <g id="Layer_62"/>
  <g id="Personal_Loan"/>
  <g id="Leisure"/>
</svg>
