<?xml version="1.0" encoding="utf-8"?>
<svg version="1.1" id="Layer_1" xmlns="http://www.w3.org/2000/svg" xmlns:xlink="http://www.w3.org/1999/xlink" x="0" y="0" viewBox="0 0 160 160" style="enable-background:new 0 0 160 160;" xml:space="preserve">
  <style type="text/css">
    .st0{fill:#69D2DC;} .st1{fill:#7C878E;} .st2{fill:#FFFFFF;} .st3{fill:#F2BC47;} .st4{fill:#15A3B2;} .st5{fill:#F39200;} .st6{display:none;}
  </style>
  <g>
    <g>
      <path class="st0" d="M97.6,99.8c0.1,4.2-2.1,7.6-3.8,9.7c-1.6,2.1-2.1,5.8-2.6,8.7c-0.1,0.8-0.2,1.5-0.3,2.2c-0.3,1.6-1.9,2-3.2,2 c-0.7,0-1.3-0.1-1.3-0.1h-0.1h-0.1c-0.8,0-2-3-2.8-5.8l-0.1-0.4l-0.4,0.2c0,0-3.4,1.8-8.4,1.8c-0.7,0-1.4,0-2.2-0.1 c-6.1-0.7-7.9-1.1-7.9-1.1l-0.4-0.1v0.4c0,0-0.4,3.2-2,4.5c-0.5,0.4-1.2,0.6-2.2,0.6c-1.4,0-2.9-0.4-3.5-0.5 c0.1-0.9,0.2-3.7,0.2-6.1c0-3-2.1-4-2.2-4.1c-8.1-3.7-11.8-9.1-12.6-12.9c-0.4-1.8-0.3-2.9,0-3.4c0.2-0.2,0.5-0.3,1-0.3 c0.2,0,0.4,0,0.6,0c1.8,0.1,4.5-1.2,5.4-3.4c0.6-1.5,1.5-2.1,2-2.4c0.1,0.1,0.2,0.2,0.4,0.2h0.2l0.1-0.1c0.2-0.2,0.3-0.5,0.2-2.7 c-0.1-2.7-0.9-4.6-1.3-5.5c5.8,0.8,8.7,3.7,8.7,3.7l0.2,0.2l0.2-0.1c4.7-2.7,8.7-4.4,13.5-4.4c3.3,0,7.2,0.8,12,2.5 C99,87.9,97.6,99.6,97.6,99.8"/>
      <path class="st1" d="M87.7,122.9c-0.7,0-1.4-0.1-1.4-0.1l0,0c-1.3,0-2.5-3.2-3.3-6c-0.7,0.4-3.9,1.8-8.5,1.8c-0.7,0-1.4,0-2.3-0.1 c-5.1-0.6-7.2-1-7.8-1.1c-0.1,0.8-0.6,3.4-2.2,4.7c-0.6,0.5-1.4,0.7-2.5,0.7c-1.1,0-2.3-0.2-3.1-0.4c-0.2,0-0.4-0.1-0.5-0.1 l-0.5-0.1l0.1-0.5c0.1-0.8,0.2-3.6,0.2-6c0-1.1-0.3-2.6-1.9-3.6c0,0-0.1,0-0.1,0c-8.2-3.8-12-9.3-12.8-13.2 c-0.4-1.7-0.4-3,0.1-3.8l0.1-0.1c0.4-0.4,1-0.4,1.4-0.4h0.6c1.7,0.1,4.1-1.2,4.9-3.1c0.7-1.7,1.8-2.4,2.2-2.6l0.3-0.2l0.3,0.3 c0.1-0.3,0.1-1,0-2.2c-0.1-2.7-0.9-4.6-1.3-5.3l-0.4-0.8l0.9,0.1c5.5,0.8,8.5,3.3,8.9,3.8C63.9,81.8,68,80,72.9,80 c3.4,0,7.4,0.8,12.2,2.5c13.3,4.6,13.2,15.2,13,17.3l-0.5,0l0.5,0c0.1,3.3-1.2,6.7-3.9,10c-1.4,1.8-1.9,4.9-2.4,7.7l-0.1,0.8 c-0.1,0.8-0.2,1.5-0.3,2.2C91.1,122,89.8,122.9,87.7,122.9z M86.4,121.8c0.1,0,0.7,0.1,1.3,0.1c0.9,0,2.4-0.2,2.7-1.6 c0.1-0.7,0.2-1.4,0.3-2.2l0.1-0.8c0.5-2.9,1-6.1,2.6-8.1c2.5-3.1,3.8-6.3,3.7-9.4l0-0.1c0.2-1.9,0.3-11.8-12.4-16.2 C80,81.8,76.2,81,72.9,81c-4.7,0-8.7,1.7-13.3,4.3l-0.5,0.3l-0.5-0.5c0,0-2.6-2.5-7.5-3.4c0.5,1.2,0.9,2.8,1,4.8 c0.1,2.3,0,2.7-0.3,3.1l-0.2,0.2h-0.4c-0.2,0-0.3,0-0.4-0.1c-0.4,0.3-1.1,0.8-1.5,2c-1,2.4-3.8,3.8-5.9,3.7l-0.6,0 c-0.4,0-0.5,0.1-0.6,0.1c-0.2,0.4-0.3,1.4,0.1,3c0.8,3.7,4.4,8.9,12.3,12.6l0.1,0.1c1.9,1.2,2.3,3.1,2.3,4.5c0,2-0.1,4.5-0.2,5.7 c0,0,0.1,0,0.1,0c0.7,0.2,1.8,0.4,2.9,0.4c0.9,0,1.5-0.2,1.9-0.5c1.4-1.2,1.8-4.1,1.8-4.2l0-1l1,0.3c0,0,1.9,0.4,7.8,1.1 c0.8,0.1,1.4,0.1,2.1,0.1c4.8,0,8.1-1.7,8.2-1.7l1-0.5l0.3,1c1,3.4,2,5.3,2.4,5.4L86.4,121.8z"/>
    </g>
    <g>
      <path class="st2" d="M55.3,96.7c-1,0-1.8-0.8-1.8-1.8s0.8-1.8,1.8-1.8s1.8,0.8,1.8,1.8C57.1,95.8,56.3,96.7,55.3,96.7"/>
      <path class="st1" d="M55.3,97.2c-1.3,0-2.3-1-2.3-2.3s1-2.3,2.3-2.3c1.3,0,2.3,1,2.3,2.3C57.6,96.1,56.5,97.2,55.3,97.2z M55.3,93.6c-0.7,0-1.3,0.6-1.3,1.3c0,0.7,0.6,1.3,1.3,1.3c0.7,0,1.3-0.7,1.3-1.3C56.6,94.2,56,93.6,55.3,93.6z"/>
    </g>
    <g>
      <ellipse transform="matrix(5.682269e-02 -0.9984 0.9984 5.682269e-02 -7.3817 157.1838)" class="st3" cx="79.5" cy="82.5" rx="5.3" ry="5.3"/>
      <path class="st1" d="M79.5,88.3c-0.1,0-0.2,0-0.3,0c-1.5-0.1-3-0.8-4-1.9c-1-1.2-1.6-2.6-1.5-4.2c0.2-3.2,2.9-5.6,6.1-5.5 c3.2,0.2,5.6,2.9,5.5,6.1c-0.1,1.5-0.8,3-1.9,4C82.3,87.8,80.9,88.3,79.5,88.3z M79.5,77.7c-2.5,0-4.6,2-4.8,4.5l0,0 c-0.1,1.3,0.4,2.5,1.2,3.5c0.9,1,2,1.5,3.3,1.6c1.3,0.1,2.5-0.4,3.5-1.2c1-0.9,1.5-2,1.6-3.3c0.2-2.6-1.9-4.9-4.5-5.1 C79.7,77.7,79.6,77.7,79.5,77.7z"/>
    </g>
    <g>
      <ellipse class="st0" cx="77.5" cy="94" rx="9.5" ry="9"/>
    </g>
    <g>
      <path class="st1" d="M83.6,87.8c-4.6-3.1-10.4-1.6-10.5-1.6l-0.3-1c0.3-0.1,6.4-1.6,11.3,1.8L83.6,87.8z"/>
    </g>
    <g>
      <path class="st1" d="M103.1,96.9c-1.1,0-2.2-0.5-2.5-1.2c-0.3-0.6-0.4-1.5-0.3-2.4c-1.1,0.2-2.2,0.4-3.1,0.7l-0.3-1 c0.3-0.1,1.9-0.5,3.6-0.8c0.1-0.4,0.3-0.7,0.4-1c0.5-0.8,1.2-1.2,2.1-1.2v1c-0.5,0-1,0.2-1.3,0.8c-0.1,0.1-0.1,0.2-0.2,0.4 c1.5-0.1,3,0,3.8,0.6c0.4,0.3,0.7,0.8,0.7,1.4c0,1.4-0.8,2.4-2.1,2.7C103.6,96.9,103.4,96.9,103.1,96.9z M101.3,93.2 c-0.1,0.8,0,1.7,0.2,2.1c0.2,0.4,1.2,0.8,2.2,0.6c0.6-0.1,1.3-0.6,1.3-1.7c0-0.3-0.1-0.4-0.3-0.6C104.1,93.1,102.8,93,101.3,93.2z"/>
    </g>
  </g>
  <g>
    <g>
      <path class="st2" d="M88.6,113.7c0,7.6,6.2,13.8,13.8,13.8c7.6,0,13.8-6.2,13.8-13.8s-6.2-13.8-13.8-13.8 C94.8,99.9,88.6,106.1,88.6,113.7z"/>
      <path class="st1" d="M102.4,128c-7.9,0-14.3-6.4-14.3-14.3s6.4-14.3,14.3-14.3c7.9,0,14.3,6.4,14.3,14.3S110.3,128,102.4,128z M102.4,100.4c-7.3,0-13.3,6-13.3,13.3s6,13.3,13.3,13.3s13.3-6,13.3-13.3S109.7,100.4,102.4,100.4z"/>
    </g>
    <g>
      <path class="st0" d="M101.6,113.7h-6.4c-0.5,0-1-0.5-1-1v-6.5c0-0.6,0.5-1,1-1h6.4c0.5,0,1,0.4,1,1v6.5 C102.6,113.3,102.1,113.7,101.6,113.7z"/>
    </g>
    <g>
      <path class="st3" d="M109.9,113.7h-6.4c-0.6,0-1-0.5-1-1v-6.5c0-0.6,0.4-1,1-1h6.4c0.6,0,1,0.4,1,1v6.5 C110.9,113.3,110.5,113.7,109.9,113.7z"/>
    </g>
    <g>
      <path class="st4" d="M101.6,121.5h-6.4c-0.5,0-1-0.4-1-1V114c0-0.5,0.5-1,1-1h6.4c0.5,0,1,0.5,1,1v6.5 C102.6,121.1,102.1,121.5,101.6,121.5z"/>
    </g>
    <g>
      <path class="st5" d="M109.9,121.5h-6.4c-0.6,0-1-0.4-1-1V114c0-0.5,0.4-1,1-1h6.4c0.6,0,1,0.5,1,1v6.5 C110.9,121.1,110.5,121.5,109.9,121.5z"/>
    </g>
    <g>
      <path class="st1" d="M102.9,115.9L102.9,115.9L102.9,115.9L102.9,115.9z"/>
    </g>
    <g>
      <path class="st2" d="M96.4,109.8h1.3v1.3c0,0.3,0.2,0.5,0.5,0.5s0.5-0.2,0.5-0.5v-1.3h1.3c0.3,0,0.5-0.2,0.5-0.5s-0.2-0.5-0.5-0.5 h-1.3v-1.3c0-0.3-0.2-0.5-0.5-0.5s-0.5,0.2-0.5,0.5v1.3h-1.3c-0.3,0-0.5,0.2-0.5,0.5S96.2,109.8,96.4,109.8z"/>
    </g>
    <g>
      <path class="st2" d="M105.1,109.8h3.6c0.3,0,0.5-0.2,0.5-0.5s-0.2-0.5-0.5-0.5h-3.6c-0.3,0-0.5,0.2-0.5,0.5 S104.8,109.8,105.1,109.8z"/>
    </g>
    <g>
      <path class="st2" d="M98.9,117.8l0.9-0.9c0.2-0.2,0.2-0.5,0-0.7s-0.5-0.2-0.7,0l-0.9,0.9l-0.9-0.9c-0.2-0.2-0.5-0.2-0.7,0 s-0.2,0.5,0,0.7l0.9,0.9l-0.9,0.9c-0.2,0.2-0.2,0.5,0,0.7c0.1,0.1,0.2,0.1,0.4,0.1c0.1,0,0.3,0,0.4-0.1l0.9-0.9l0.9,0.9 c0.1,0.1,0.2,0.1,0.4,0.1c0.1,0,0.3,0,0.4-0.1c0.2-0.2,0.2-0.5,0-0.7L98.9,117.8z"/>
    </g>
    <g>
      <path class="st2" d="M108.7,116.4h-3.6c-0.3,0-0.5,0.2-0.5,0.5s0.2,0.5,0.5,0.5h3.6c0.3,0,0.5-0.2,0.5-0.5S109,116.4,108.7,116.4z"/>
    </g>
    <g>
      <path class="st2" d="M108.7,118.2h-3.6c-0.3,0-0.5,0.2-0.5,0.5s0.2,0.5,0.5,0.5h3.6c0.3,0,0.5-0.2,0.5-0.5 C109.2,118.5,109,118.2,108.7,118.2z"/>
    </g>
    <g>
      <path class="st1" d="M102 105H103V121.5H102z"/>
    </g>
    <g>
      <path class="st1" d="M93.9 112.8H111.4V113.8H93.9z"/>
    </g>
    <g>
      <path class="st1" d="M109.2,122H95.9c-1.4,0-2.5-1.1-2.5-2.5V107c0-1.4,1.1-2.5,2.5-2.5h13.3c1.4,0,2.5,1.1,2.5,2.5v12.6 C111.7,120.9,110.6,122,109.2,122z M95.9,105.5c-0.8,0-1.5,0.7-1.5,1.5v12.5c0,0.8,0.7,1.5,1.5,1.5h13.3c0.8,0,1.5-0.7,1.5-1.4 V107c0-0.8-0.7-1.5-1.5-1.5H95.9z"/>
    </g>
  </g>
  <g>
    <g>
      <g>
        <ellipse class="st3" cx="39.3" cy="120.9" rx="5.8" ry="2.8"/>
      </g>
      <g>
        <path class="st1" d="M39.3,118.5c3.3,0,5.4,1.3,5.4,2.4c0,1.2-2.2,2.4-5.4,2.4c-3.3,0-5.4-1.3-5.4-2.4 C33.9,119.8,36,118.5,39.3,118.5 M39.3,117.8c-3.5,0-6.2,1.4-6.2,3.2c0,1.8,2.7,3.2,6.2,3.2s6.2-1.4,6.2-3.2 C45.5,119.2,42.8,117.8,39.3,117.8L39.3,117.8z"/>
      </g>
    </g>
    <g>
      <g>
        <path class="st5" d="M39.3,127c-3.2,0-5.8-1.3-5.8-2.8v-2.5l0.6,0.6c0.1,0.1,0.2,0.2,0.3,0.3l0.1,0.1c0.1,0.1,0.2,0.2,0.4,0.2 c0.2,0.1,0.4,0.2,0.6,0.3l0.1,0.1c0.2,0.1,0.3,0.1,0.5,0.2l0.2,0.1c0.2,0.1,0.4,0.1,0.6,0.2c0.3,0.1,0.5,0.1,0.7,0.1h0.2 c0.2,0,0.4,0,0.5,0.1h0.2c0.2,0,0.5,0,0.8,0s0.5,0,0.8,0h0.1c0.3,0,0.4,0,0.6-0.1h0.1c0.3,0,0.5-0.1,0.7-0.1 c0.3-0.1,0.4-0.1,0.6-0.2l0.2-0.1c0.1,0,0.3-0.1,0.4-0.2l0.2-0.1c0.2-0.1,0.3-0.1,0.5-0.2s0.3-0.2,0.4-0.3l0.1-0.1 c0.1-0.1,0.2-0.2,0.3-0.2l0.6-0.5l0.1,0.8v1.6C45.1,125.8,42.5,127,39.3,127z"/>
      </g>
      <g>
        <path class="st1" d="M44.7,122.6v1.6c0,1.2-2.2,2.4-5.4,2.4c-3.3,0-5.4-1.3-5.4-2.4v-1.6c0,0,0,0,0.1,0.1s0.2,0.2,0.3,0.2 l0.1,0.1c0.1,0.1,0.3,0.2,0.4,0.2c0,0,0,0,0.1,0c0.2,0.1,0.4,0.2,0.5,0.2s0.1,0,0.2,0.1c0.1,0.1,0.3,0.1,0.5,0.2 c0.1,0,0.1,0,0.2,0.1c0.2,0.1,0.4,0.1,0.6,0.2l0,0c0.2,0,0.5,0.1,0.7,0.1c0.1,0,0.1,0,0.2,0c0.2,0,0.4,0,0.6,0.1 c0.1,0,0.1,0,0.2,0c0.3,0,0.5,0,0.8,0s0.5,0,0.8,0c0.1,0,0.1,0,0.2,0c0.2,0,0.4,0,0.6-0.1c0.1,0,0.1,0,0.2,0 c0.2,0,0.5-0.1,0.7-0.1l0,0c0.2,0,0.4-0.1,0.6-0.2c0.1,0,0.1,0,0.2-0.1c0.2,0,0.3-0.1,0.5-0.2c0.1,0,0.1,0,0.2-0.1 c0.2-0.1,0.4-0.2,0.5-0.3c0,0,0,0,0.1,0c0.1-0.1,0.3-0.2,0.4-0.2l0.1-0.1C44.5,122.8,44.6,122.7,44.7,122.6L44.7,122.6 M45.5,120.8l-1.2,1.2l0,0l-0.1,0.1c-0.1,0-0.1,0.1-0.2,0.2l-0.1,0.1c-0.1,0.1-0.2,0.2-0.4,0.2l0,0l0,0c-0.2,0.1-0.3,0.2-0.5,0.2 h-0.1h-0.1c-0.1,0-0.3,0.1-0.4,0.1h-0.1h-0.1c-0.2,0.1-0.4,0.1-0.6,0.1h-0.1l0,0c-0.2,0-0.4,0.1-0.6,0.1l0,0h-0.2 c-0.2,0-0.3,0-0.5,0.1H40c-0.2,0-0.5,0-0.7,0c-0.3,0-0.5,0-0.7,0h-0.2c-0.2,0-0.4,0-0.5-0.1h-0.2h-0.1c-0.2,0-0.4-0.1-0.6-0.1 l0,0l0,0c-0.2,0-0.4-0.1-0.6-0.1h-0.1h-0.1c-0.1,0-0.3-0.1-0.4-0.1l-0.1-0.1c-0.2-0.1-0.3-0.1-0.5-0.2l0,0h-0.1 c-0.1-0.1-0.2-0.1-0.3-0.2l-0.1-0.1c-0.1-0.1-0.2-0.1-0.3-0.2l0,0h-0.1l-1.3-1.2v1.8v1.6c0,1.8,2.7,3.2,6.2,3.2s6.2-1.4,6.2-3.2 v-1.6L45.5,120.8L45.5,120.8z"/>
      </g>
    </g>
  </g>
  <g>
    <g>
      <ellipse class="st3" cx="43.3" cy="117.9" rx="5.8" ry="2.8"/>
    </g>
    <g>
      <path class="st1" d="M43.3,115.5c3.3,0,5.4,1.3,5.4,2.4c0,1.2-2.2,2.4-5.4,2.4c-3.3,0-5.4-1.3-5.4-2.4 C37.9,116.8,40,115.5,43.3,115.5 M43.3,114.8c-3.5,0-6.2,1.4-6.2,3.2c0,1.8,2.7,3.2,6.2,3.2s6.2-1.4,6.2-3.2 C49.5,116.2,46.8,114.8,43.3,114.8L43.3,114.8z"/>
    </g>
  </g>
  <g>
    <g>
      <path class="st5" d="M43.3,124c-3.2,0-5.8-1.3-5.8-2.8v-2.5l0.6,0.6c0.1,0.1,0.2,0.2,0.3,0.3l0.1,0.1c0.1,0.1,0.2,0.2,0.4,0.2 c0.2,0.1,0.4,0.2,0.6,0.3l0.1,0.1c0.2,0.1,0.3,0.1,0.5,0.2l0.2,0.1c0.2,0.1,0.4,0.1,0.6,0.2c0.3,0.1,0.5,0.1,0.7,0.1h0.2 c0.2,0,0.4,0,0.5,0.1h0.2c0.2,0,0.5,0,0.8,0s0.5,0,0.8,0h0.1c0.3,0,0.4,0,0.6-0.1h0.1c0.3,0,0.5-0.1,0.7-0.1 c0.3-0.1,0.4-0.1,0.6-0.2l0.2-0.1c0.1,0,0.3-0.1,0.4-0.2l0.2-0.1c0.2-0.1,0.3-0.1,0.5-0.2s0.3-0.2,0.4-0.3l0.1-0.1 c0.1-0.1,0.2-0.2,0.3-0.2l0.6-0.5l0.1,0.8v1.6C49.1,122.8,46.5,124,43.3,124z"/>
    </g>
    <g>
      <path class="st1" d="M48.7,119.6v1.6c0,1.2-2.2,2.4-5.4,2.4c-3.3,0-5.4-1.3-5.4-2.4v-1.6c0,0,0,0,0.1,0.1s0.2,0.2,0.3,0.2l0.1,0.1 c0.1,0.1,0.3,0.2,0.4,0.2c0,0,0,0,0.1,0c0.2,0.1,0.4,0.2,0.5,0.2s0.1,0,0.2,0.1c0.1,0.1,0.3,0.1,0.5,0.2c0.1,0,0.1,0,0.2,0.1 c0.2,0.1,0.4,0.1,0.6,0.2l0,0c0.2,0,0.5,0.1,0.7,0.1c0.1,0,0.1,0,0.2,0c0.2,0,0.4,0,0.6,0.1c0.1,0,0.1,0,0.2,0c0.3,0,0.5,0,0.8,0 s0.5,0,0.8,0c0.1,0,0.1,0,0.2,0c0.2,0,0.4,0,0.6-0.1c0.1,0,0.1,0,0.2,0c0.2,0,0.5-0.1,0.7-0.1l0,0c0.2,0,0.4-0.1,0.6-0.2 c0.1,0,0.1,0,0.2-0.1c0.2,0,0.3-0.1,0.5-0.2c0.1,0,0.1,0,0.2-0.1c0.2-0.1,0.4-0.2,0.5-0.3c0,0,0,0,0.1,0c0.1-0.1,0.3-0.2,0.4-0.2 l0.1-0.1C48.5,119.8,48.6,119.7,48.7,119.6L48.7,119.6 M49.5,117.8l-1.2,1.2l0,0l-0.1,0.1c-0.1,0-0.1,0.1-0.2,0.2l-0.1,0.1 c-0.1,0.1-0.2,0.2-0.4,0.2l0,0l0,0c-0.2,0.1-0.3,0.2-0.5,0.2h-0.1h-0.1c-0.1,0-0.3,0.1-0.4,0.1h-0.1h-0.1 c-0.2,0.1-0.4,0.1-0.6,0.1h-0.1l0,0c-0.2,0-0.4,0.1-0.6,0.1l0,0h-0.2c-0.2,0-0.3,0-0.5,0.1H44c-0.2,0-0.5,0-0.7,0 c-0.3,0-0.5,0-0.7,0h-0.2c-0.2,0-0.4,0-0.5-0.1h-0.2h-0.1c-0.2,0-0.4-0.1-0.6-0.1l0,0l0,0c-0.2,0-0.4-0.1-0.6-0.1h-0.1h-0.1 c-0.1,0-0.3-0.1-0.4-0.1l-0.1-0.1c-0.2-0.1-0.3-0.1-0.5-0.2l0,0h-0.1c-0.1-0.1-0.2-0.1-0.3-0.2l-0.1-0.1c-0.1-0.1-0.2-0.1-0.3-0.2 l0,0h-0.1l-1.3-1.2v1.8v1.6c0,1.8,2.7,3.2,6.2,3.2s6.2-1.4,6.2-3.2v-1.6L49.5,117.8L49.5,117.8z"/>
    </g>
  </g>
  <g>
    <g>
      <ellipse class="st3" cx="42.3" cy="111.9" rx="5.8" ry="2.8"/>
    </g>
    <g>
      <path class="st1" d="M42.3,109.5c3.3,0,5.4,1.3,5.4,2.4c0,1.2-2.2,2.4-5.4,2.4c-3.3,0-5.4-1.3-5.4-2.4 C36.9,110.8,39,109.5,42.3,109.5 M42.3,108.8c-3.5,0-6.2,1.4-6.2,3.2c0,1.8,2.7,3.2,6.2,3.2s6.2-1.4,6.2-3.2 C48.5,110.2,45.8,108.8,42.3,108.8L42.3,108.8z"/>
    </g>
  </g>
  <g>
    <g>
      <path class="st5" d="M42.3,118c-3.2,0-5.8-1.3-5.8-2.8v-2.5l0.6,0.6c0.1,0.1,0.2,0.2,0.3,0.3l0.1,0.1c0.1,0.1,0.2,0.2,0.4,0.2 c0.2,0.1,0.4,0.2,0.6,0.3l0.1,0.1c0.2,0.1,0.3,0.1,0.5,0.2l0.2,0.1c0.2,0.1,0.4,0.1,0.6,0.2c0.3,0.1,0.5,0.1,0.7,0.1h0.2 c0.2,0,0.4,0,0.5,0.1h0.2c0.2,0,0.5,0,0.8,0s0.5,0,0.8,0h0.1c0.3,0,0.4,0,0.6-0.1h0.1c0.3,0,0.5-0.1,0.7-0.1 c0.3-0.1,0.4-0.1,0.6-0.2l0.2-0.1c0.1,0,0.3-0.1,0.4-0.2l0.2-0.1c0.2-0.1,0.3-0.1,0.5-0.2s0.3-0.2,0.4-0.3l0.1-0.1 c0.1-0.1,0.2-0.2,0.3-0.2l0.6-0.5l0.1,0.8v1.6C48.1,116.8,45.5,118,42.3,118z"/>
    </g>
    <g>
      <path class="st1" d="M47.7,113.6v1.6c0,1.2-2.2,2.4-5.4,2.4c-3.3,0-5.4-1.3-5.4-2.4v-1.6c0,0,0,0,0.1,0.1s0.2,0.2,0.3,0.2l0.1,0.1 c0.1,0.1,0.3,0.2,0.4,0.2c0,0,0,0,0.1,0c0.2,0.1,0.4,0.2,0.5,0.2s0.1,0,0.2,0.1c0.1,0.1,0.3,0.1,0.5,0.2c0.1,0,0.1,0,0.2,0.1 c0.2,0.1,0.4,0.1,0.6,0.2l0,0c0.2,0,0.5,0.1,0.7,0.1c0.1,0,0.1,0,0.2,0c0.2,0,0.4,0,0.6,0.1c0.1,0,0.1,0,0.2,0c0.3,0,0.5,0,0.8,0 s0.5,0,0.8,0c0.1,0,0.1,0,0.2,0c0.2,0,0.4,0,0.6-0.1c0.1,0,0.1,0,0.2,0c0.2,0,0.5-0.1,0.7-0.1l0,0c0.2,0,0.4-0.1,0.6-0.2 c0.1,0,0.1,0,0.2-0.1c0.2,0,0.3-0.1,0.5-0.2c0.1,0,0.1,0,0.2-0.1c0.2-0.1,0.4-0.2,0.5-0.3c0,0,0,0,0.1,0c0.1-0.1,0.3-0.2,0.4-0.2 l0.1-0.1C47.5,113.8,47.6,113.7,47.7,113.6L47.7,113.6 M48.5,111.8l-1.2,1.2l0,0l-0.1,0.1c-0.1,0-0.1,0.1-0.2,0.2l-0.1,0.1 c-0.1,0.1-0.2,0.2-0.4,0.2l0,0l0,0c-0.2,0.1-0.3,0.2-0.5,0.2h-0.1h-0.1c-0.1,0-0.3,0.1-0.4,0.1h-0.1h-0.1 c-0.2,0.1-0.4,0.1-0.6,0.1h-0.1l0,0c-0.2,0-0.4,0.1-0.6,0.1l0,0h-0.2c-0.2,0-0.3,0-0.5,0.1H43c-0.2,0-0.5,0-0.7,0 c-0.3,0-0.5,0-0.7,0h-0.2c-0.2,0-0.4,0-0.5-0.1h-0.2h-0.1c-0.2,0-0.4-0.1-0.6-0.1l0,0l0,0c-0.2,0-0.4-0.1-0.6-0.1h-0.1h-0.1 c-0.1,0-0.3-0.1-0.4-0.1l-0.1-0.1c-0.2-0.1-0.3-0.1-0.5-0.2l0,0h-0.1c-0.1-0.1-0.2-0.1-0.3-0.2l-0.1-0.1c-0.1-0.1-0.2-0.1-0.3-0.2 l0,0h-0.1l-1.3-1.2v1.8v1.6c0,1.8,2.7,3.2,6.2,3.2s6.2-1.4,6.2-3.2v-1.6L48.5,111.8L48.5,111.8z"/>
    </g>
  </g>
  <g>
    <g>
      <g>
        <ellipse class="st3" cx="25.3" cy="120.9" rx="5.8" ry="2.8"/>
      </g>
      <g>
        <path class="st1" d="M25.3,118.5c3.3,0,5.4,1.3,5.4,2.4c0,1.2-2.2,2.4-5.4,2.4c-3.3,0-5.4-1.3-5.4-2.4S22,118.5,25.3,118.5 M25.3,117.8c-3.5,0-6.2,1.4-6.2,3.2c0,1.8,2.7,3.2,6.2,3.2s6.2-1.4,6.2-3.2C31.5,119.2,28.8,117.8,25.3,117.8L25.3,117.8z"/>
      </g>
    </g>
    <g>
      <g>
        <path class="st5" d="M25.3,127c-3.2,0-5.8-1.3-5.8-2.8v-2.5l0.7,0.6c0.1,0.1,0.2,0.1,0.3,0.2l0.1,0.1c0.1,0.1,0.2,0.2,0.4,0.2 c0.2,0.1,0.4,0.2,0.6,0.3h0.1c0.2,0.1,0.3,0.1,0.5,0.2l0.2,0.1c0.2,0.1,0.4,0.1,0.6,0.2c0.3,0.1,0.5,0.1,0.7,0.1h0.2 c0.2,0,0.4,0,0.5,0.1h0.2c0.2,0,0.5,0,0.8,0s0.5,0,0.8,0h0.1c0.3,0,0.4,0,0.6-0.1h0.2c0.2,0,0.5-0.1,0.7-0.1 c0.3-0.1,0.4-0.1,0.6-0.2l0.2-0.1c0.1,0,0.3-0.1,0.4-0.2l0.2-0.1c0.2-0.1,0.3-0.1,0.5-0.2s0.3-0.2,0.4-0.3l0.3,0.2l-0.2-0.3 c0.1-0.1,0.2-0.1,0.3-0.2l0.6-0.5l0.1,0.8v1.6C31.1,125.8,28.5,127,25.3,127z"/>
      </g>
      <g>
        <path class="st1" d="M30.7,122.6v1.6c0,1.2-2.2,2.4-5.4,2.4c-3.3,0-5.4-1.3-5.4-2.4v-1.6c0,0,0,0,0.1,0.1s0.2,0.2,0.3,0.2 l0.1,0.1c0.1,0.1,0.3,0.2,0.4,0.2c0,0,0,0,0.1,0c0.2,0.1,0.4,0.2,0.5,0.2s0.1,0,0.2,0.1s0.3,0.1,0.5,0.2c0.1,0,0.1,0,0.2,0.1 c0.2,0.1,0.4,0.1,0.6,0.2l0,0c0.2,0,0.5,0.1,0.7,0.1c0.1,0,0.1,0,0.2,0c0.2,0,0.4,0,0.6,0.1c0.1,0,0.1,0,0.2,0c0.3,0,0.5,0,0.8,0 s0.5,0,0.8,0c0.1,0,0.1,0,0.2,0c0.2,0,0.4,0,0.6-0.1c0.1,0,0.1,0,0.2,0c0.2,0,0.5-0.1,0.7-0.1l0,0c0.2,0,0.4-0.1,0.6-0.2 c0.1,0,0.1,0,0.2-0.1c0.2,0,0.3-0.1,0.5-0.2c0.1,0,0.1,0,0.2-0.1c0.2-0.1,0.4-0.2,0.5-0.3c0,0,0,0,0.1,0c0.1-0.1,0.3-0.2,0.4-0.2 l0.1-0.1C30.5,122.8,30.6,122.7,30.7,122.6L30.7,122.6 M31.5,120.8l-1.2,1.2l0,0l-0.1,0.1c-0.1,0-0.1,0.1-0.2,0.2l-0.1,0.1 c-0.1,0.1-0.2,0.2-0.4,0.2l0,0l0,0c-0.2,0.1-0.3,0.2-0.5,0.2h-0.1c-0.2,0.1-0.3,0.1-0.5,0.2h-0.1h-0.1c-0.2,0.1-0.4,0.1-0.6,0.1 h-0.1l0,0c-0.2,0-0.4,0.1-0.6,0.1l0,0h-0.2c-0.2,0-0.3,0-0.5,0.1H26c-0.2,0-0.5,0-0.7,0c-0.3,0-0.5,0-0.7,0h-0.2 c-0.2,0-0.4,0-0.5-0.1h-0.2h-0.1c-0.2,0-0.4-0.1-0.6-0.1l0,0l0,0c-0.2,0-0.4-0.1-0.6-0.1h-0.1h-0.1c-0.1,0-0.3-0.1-0.4-0.1 c0,0-0.1,0-0.1-0.1c-0.2-0.1-0.3-0.1-0.5-0.2l0,0h-0.1c-0.1-0.1-0.2-0.1-0.3-0.2l-0.1-0.1c-0.1-0.1-0.2-0.1-0.3-0.2l0,0h-0.1 l-1.3-1.2v1.8v1.6c0,1.8,2.7,3.2,6.2,3.2s6.2-1.4,6.2-3.2v-1.6v-1.9H31.5z"/>
      </g>
    </g>
  </g>
  <g>
    <g>
      <g>
        <ellipse class="st3" cx="25.3" cy="117.9" rx="5.8" ry="2.8"/>
      </g>
      <g>
        <path class="st1" d="M25.3,115.5c3.3,0,5.4,1.3,5.4,2.4c0,1.2-2.2,2.4-5.4,2.4c-3.3,0-5.4-1.3-5.4-2.4S22,115.5,25.3,115.5 M25.3,114.8c-3.5,0-6.2,1.4-6.2,3.2c0,1.8,2.7,3.2,6.2,3.2s6.2-1.4,6.2-3.2C31.5,116.2,28.8,114.8,25.3,114.8L25.3,114.8z"/>
      </g>
    </g>
    <g>
      <g>
        <path class="st5" d="M25.3,124c-3.2,0-5.8-1.3-5.8-2.8v-2.5l0.7,0.6c0.1,0.1,0.2,0.1,0.3,0.2l0.1,0.1c0.1,0.1,0.2,0.2,0.4,0.2 c0.2,0.1,0.4,0.2,0.6,0.3h0.1c0.2,0.1,0.3,0.1,0.5,0.2l0.2,0.1c0.2,0.1,0.4,0.1,0.6,0.2c0.3,0.1,0.5,0.1,0.7,0.1h0.2 c0.2,0,0.4,0,0.5,0.1h0.2c0.2,0,0.5,0,0.8,0s0.5,0,0.8,0h0.1c0.3,0,0.4,0,0.6-0.1h0.2c0.2,0,0.5-0.1,0.7-0.1 c0.3-0.1,0.4-0.1,0.6-0.2l0.2-0.1c0.1,0,0.3-0.1,0.4-0.2l0.2-0.1c0.2-0.1,0.3-0.1,0.5-0.2s0.3-0.2,0.4-0.3l0.3,0.2l-0.2-0.3 c0.1-0.1,0.2-0.1,0.3-0.2l0.6-0.5l0.1,0.8v1.6C31.1,122.8,28.5,124,25.3,124z"/>
      </g>
      <g>
        <path class="st1" d="M30.7,119.6v1.6c0,1.2-2.2,2.4-5.4,2.4c-3.3,0-5.4-1.3-5.4-2.4v-1.6c0,0,0,0,0.1,0.1s0.2,0.2,0.3,0.2 l0.1,0.1c0.1,0.1,0.3,0.2,0.4,0.2c0,0,0,0,0.1,0c0.2,0.1,0.4,0.2,0.5,0.2s0.1,0,0.2,0.1s0.3,0.1,0.5,0.2c0.1,0,0.1,0,0.2,0.1 c0.2,0.1,0.4,0.1,0.6,0.2l0,0c0.2,0,0.5,0.1,0.7,0.1c0.1,0,0.1,0,0.2,0c0.2,0,0.4,0,0.6,0.1c0.1,0,0.1,0,0.2,0c0.3,0,0.5,0,0.8,0 s0.5,0,0.8,0c0.1,0,0.1,0,0.2,0c0.2,0,0.4,0,0.6-0.1c0.1,0,0.1,0,0.2,0c0.2,0,0.5-0.1,0.7-0.1l0,0c0.2,0,0.4-0.1,0.6-0.2 c0.1,0,0.1,0,0.2-0.1c0.2,0,0.3-0.1,0.5-0.2c0.1,0,0.1,0,0.2-0.1c0.2-0.1,0.4-0.2,0.5-0.3c0,0,0,0,0.1,0c0.1-0.1,0.3-0.2,0.4-0.2 l0.1-0.1C30.5,119.8,30.6,119.7,30.7,119.6L30.7,119.6 M31.5,117.8l-1.2,1.2l0,0l-0.1,0.1c-0.1,0-0.1,0.1-0.2,0.2l-0.1,0.1 c-0.1,0.1-0.2,0.2-0.4,0.2l0,0l0,0c-0.2,0.1-0.3,0.2-0.5,0.2h-0.1c-0.2,0.1-0.3,0.1-0.5,0.2h-0.1h-0.1c-0.2,0.1-0.4,0.1-0.6,0.1 h-0.1l0,0c-0.2,0-0.4,0.1-0.6,0.1l0,0h-0.2c-0.2,0-0.3,0-0.5,0.1H26c-0.2,0-0.5,0-0.7,0c-0.3,0-0.5,0-0.7,0h-0.2 c-0.2,0-0.4,0-0.5-0.1h-0.2h-0.1c-0.2,0-0.4-0.1-0.6-0.1l0,0l0,0c-0.2,0-0.4-0.1-0.6-0.1h-0.1h-0.1c-0.1,0-0.3-0.1-0.4-0.1 c0,0-0.1,0-0.1-0.1c-0.2-0.1-0.3-0.1-0.5-0.2l0,0h-0.1c-0.1-0.1-0.2-0.1-0.3-0.2l-0.1-0.1c-0.1-0.1-0.2-0.1-0.3-0.2l0,0h-0.1 l-1.3-1.2v1.8v1.6c0,1.8,2.7,3.2,6.2,3.2s6.2-1.4,6.2-3.2v-1.6v-1.9H31.5z"/>
      </g>
    </g>
  </g>
  <g>
    <g>
      <g>
        <ellipse class="st3" cx="25.3" cy="114.9" rx="5.8" ry="2.8"/>
      </g>
      <g>
        <path class="st1" d="M25.3,112.5c3.3,0,5.4,1.3,5.4,2.4c0,1.2-2.2,2.4-5.4,2.4c-3.3,0-5.4-1.3-5.4-2.4S22,112.5,25.3,112.5 M25.3,111.8c-3.5,0-6.2,1.4-6.2,3.2c0,1.8,2.7,3.2,6.2,3.2s6.2-1.4,6.2-3.2C31.5,113.2,28.8,111.8,25.3,111.8L25.3,111.8z"/>
      </g>
    </g>
    <g>
      <g>
        <path class="st5" d="M25.3,121c-3.2,0-5.8-1.3-5.8-2.8v-2.5l0.7,0.6c0.1,0.1,0.2,0.1,0.3,0.2l0.1,0.1c0.1,0.1,0.2,0.2,0.4,0.2 c0.2,0.1,0.4,0.2,0.6,0.3h0.1c0.2,0.1,0.3,0.1,0.5,0.2l0.2,0.1c0.2,0.1,0.4,0.1,0.6,0.2c0.3,0.1,0.5,0.1,0.7,0.1h0.2 c0.2,0,0.4,0,0.5,0.1h0.2c0.2,0,0.5,0,0.8,0s0.5,0,0.8,0h0.1c0.3,0,0.4,0,0.6-0.1h0.2c0.2,0,0.5-0.1,0.7-0.1 c0.3-0.1,0.4-0.1,0.6-0.2l0.2-0.1c0.1,0,0.3-0.1,0.4-0.2l0.2-0.1c0.2-0.1,0.3-0.1,0.5-0.2s0.3-0.2,0.4-0.3l0.3,0.2l-0.2-0.3 c0.1-0.1,0.2-0.1,0.3-0.2l0.6-0.5l0.1,0.8v1.6C31.1,119.8,28.5,121,25.3,121z"/>
      </g>
      <g>
        <path class="st1" d="M30.7,116.6v1.6c0,1.2-2.2,2.4-5.4,2.4c-3.3,0-5.4-1.3-5.4-2.4v-1.6c0,0,0,0,0.1,0.1s0.2,0.2,0.3,0.2 l0.1,0.1c0.1,0.1,0.3,0.2,0.4,0.2c0,0,0,0,0.1,0c0.2,0.1,0.4,0.2,0.5,0.2s0.1,0,0.2,0.1s0.3,0.1,0.5,0.2c0.1,0,0.1,0,0.2,0.1 c0.2,0.1,0.4,0.1,0.6,0.2l0,0c0.2,0,0.5,0.1,0.7,0.1c0.1,0,0.1,0,0.2,0c0.2,0,0.4,0,0.6,0.1c0.1,0,0.1,0,0.2,0c0.3,0,0.5,0,0.8,0 s0.5,0,0.8,0c0.1,0,0.1,0,0.2,0c0.2,0,0.4,0,0.6-0.1c0.1,0,0.1,0,0.2,0c0.2,0,0.5-0.1,0.7-0.1l0,0c0.2,0,0.4-0.1,0.6-0.2 c0.1,0,0.1,0,0.2-0.1c0.2,0,0.3-0.1,0.5-0.2c0.1,0,0.1,0,0.2-0.1c0.2-0.1,0.4-0.2,0.5-0.3c0,0,0,0,0.1,0c0.1-0.1,0.3-0.2,0.4-0.2 l0.1-0.1C30.5,116.8,30.6,116.7,30.7,116.6L30.7,116.6 M31.5,114.8l-1.2,1.2l0,0l-0.1,0.1c-0.1,0-0.1,0.1-0.2,0.2l-0.1,0.1 c-0.1,0.1-0.2,0.2-0.4,0.2l0,0l0,0c-0.2,0.1-0.3,0.2-0.5,0.2h-0.1c-0.2,0.1-0.3,0.1-0.5,0.2h-0.1h-0.1c-0.2,0.1-0.4,0.1-0.6,0.1 h-0.1l0,0c-0.2,0-0.4,0.1-0.6,0.1l0,0h-0.2c-0.2,0-0.3,0-0.5,0.1H26c-0.2,0-0.5,0-0.7,0c-0.3,0-0.5,0-0.7,0h-0.2 c-0.2,0-0.4,0-0.5-0.1h-0.2h-0.1c-0.2,0-0.4-0.1-0.6-0.1l0,0l0,0c-0.2,0-0.4-0.1-0.6-0.1h-0.1h-0.1c-0.1,0-0.3-0.1-0.4-0.1 c0,0-0.1,0-0.1-0.1c-0.2-0.1-0.3-0.1-0.5-0.2l0,0h-0.1c-0.1-0.1-0.2-0.1-0.3-0.2l-0.1-0.1c-0.1-0.1-0.2-0.1-0.3-0.2l0,0h-0.1 l-1.3-1.2v1.8v1.6c0,1.8,2.7,3.2,6.2,3.2s6.2-1.4,6.2-3.2v-1.6v-1.9H31.5z"/>
      </g>
    </g>
  </g>
  <g>
    <g>
      <g>
        <ellipse class="st3" cx="25.3" cy="111.9" rx="5.8" ry="2.8"/>
      </g>
      <g>
        <path class="st1" d="M25.3,109.5c3.3,0,5.4,1.3,5.4,2.4c0,1.2-2.2,2.4-5.4,2.4c-3.3,0-5.4-1.3-5.4-2.4S22,109.5,25.3,109.5 M25.3,108.8c-3.5,0-6.2,1.4-6.2,3.2c0,1.8,2.7,3.2,6.2,3.2s6.2-1.4,6.2-3.2C31.5,110.2,28.8,108.8,25.3,108.8L25.3,108.8z"/>
      </g>
    </g>
    <g>
      <g>
        <path class="st5" d="M25.3,118c-3.2,0-5.8-1.3-5.8-2.8v-2.5l0.7,0.6c0.1,0.1,0.2,0.1,0.3,0.2l0.1,0.1c0.1,0.1,0.2,0.2,0.4,0.2 c0.2,0.1,0.4,0.2,0.6,0.3h0.1c0.2,0.1,0.3,0.1,0.5,0.2l0.2,0.1c0.2,0.1,0.4,0.1,0.6,0.2c0.3,0.1,0.5,0.1,0.7,0.1h0.2 c0.2,0,0.4,0,0.5,0.1h0.2c0.2,0,0.5,0,0.8,0s0.5,0,0.8,0h0.1c0.3,0,0.4,0,0.6-0.1h0.2c0.2,0,0.5-0.1,0.7-0.1 c0.3-0.1,0.4-0.1,0.6-0.2l0.2-0.1c0.1,0,0.3-0.1,0.4-0.2l0.2-0.1c0.2-0.1,0.3-0.1,0.5-0.2s0.3-0.2,0.4-0.3l0.3,0.2l-0.2-0.3 c0.1-0.1,0.2-0.1,0.3-0.2l0.6-0.5l0.1,0.8v1.6C31.1,116.8,28.5,118,25.3,118z"/>
      </g>
      <g>
        <path class="st1" d="M30.7,113.6v1.6c0,1.2-2.2,2.4-5.4,2.4c-3.3,0-5.4-1.3-5.4-2.4v-1.6c0,0,0,0,0.1,0.1s0.2,0.2,0.3,0.2 l0.1,0.1c0.1,0.1,0.3,0.2,0.4,0.2c0,0,0,0,0.1,0c0.2,0.1,0.4,0.2,0.5,0.2s0.1,0,0.2,0.1s0.3,0.1,0.5,0.2c0.1,0,0.1,0,0.2,0.1 c0.2,0.1,0.4,0.1,0.6,0.2l0,0c0.2,0,0.5,0.1,0.7,0.1c0.1,0,0.1,0,0.2,0c0.2,0,0.4,0,0.6,0.1c0.1,0,0.1,0,0.2,0c0.3,0,0.5,0,0.8,0 s0.5,0,0.8,0c0.1,0,0.1,0,0.2,0c0.2,0,0.4,0,0.6-0.1c0.1,0,0.1,0,0.2,0c0.2,0,0.5-0.1,0.7-0.1l0,0c0.2,0,0.4-0.1,0.6-0.2 c0.1,0,0.1,0,0.2-0.1c0.2,0,0.3-0.1,0.5-0.2c0.1,0,0.1,0,0.2-0.1c0.2-0.1,0.4-0.2,0.5-0.3c0,0,0,0,0.1,0c0.1-0.1,0.3-0.2,0.4-0.2 l0.1-0.1C30.5,113.8,30.6,113.7,30.7,113.6L30.7,113.6 M31.5,111.8l-1.2,1.2l0,0l-0.1,0.1c-0.1,0-0.1,0.1-0.2,0.2l-0.1,0.1 c-0.1,0.1-0.2,0.2-0.4,0.2l0,0l0,0c-0.2,0.1-0.3,0.2-0.5,0.2h-0.1c-0.2,0.1-0.3,0.1-0.5,0.2h-0.1h-0.1c-0.2,0.1-0.4,0.1-0.6,0.1 h-0.1l0,0c-0.2,0-0.4,0.1-0.6,0.1l0,0h-0.2c-0.2,0-0.3,0-0.5,0.1H26c-0.2,0-0.5,0-0.7,0c-0.3,0-0.5,0-0.7,0h-0.2 c-0.2,0-0.4,0-0.5-0.1h-0.2h-0.1c-0.2,0-0.4-0.1-0.6-0.1l0,0l0,0c-0.2,0-0.4-0.1-0.6-0.1h-0.1h-0.1c-0.1,0-0.3-0.1-0.4-0.1 c0,0-0.1,0-0.1-0.1c-0.2-0.1-0.3-0.1-0.5-0.2l0,0h-0.1c-0.1-0.1-0.2-0.1-0.3-0.2l-0.1-0.1c-0.1-0.1-0.2-0.1-0.3-0.2l0,0h-0.1 l-1.3-1.2v1.8v1.6c0,1.8,2.7,3.2,6.2,3.2s6.2-1.4,6.2-3.2v-1.6v-1.9H31.5z"/>
      </g>
    </g>
  </g>
  <g>
    <g>
      <g>
        <path class="st3" d="M81.5,60.1c-0.9,0-1.5-0.3-1.8-0.8c-0.4-0.6-0.3-1.6,0.3-2.6c0.6-1,1.7-2.1,2.9-3c1.6-1.1,3.2-1.7,4.6-1.7 c0.9,0,1.5,0.3,1.8,0.8c0.9,1.3-0.6,3.8-3.2,5.6C84.4,59.5,82.8,60.1,81.5,60.1L81.5,60.1z"/>
      </g>
      <g>
        <path class="st1" d="M87.4,52.5c0.7,0,1.3,0.2,1.5,0.6c0.7,1-0.4,3.2-3.1,5.1c-1.6,1.1-3.2,1.6-4.4,1.6c-0.7,0-1.3-0.2-1.5-0.6 c-0.7-1,0.4-3.2,3.1-5.1C84.7,53,86.3,52.5,87.4,52.5 M87.4,51.7c-1.4,0-3.1,0.6-4.8,1.7c-1.3,0.9-2.4,2-3.1,3.1 c-0.7,1.2-0.8,2.3-0.3,3c0.4,0.6,1.2,0.9,2.1,0.9c1.4,0,3.1-0.6,4.8-1.7c1.3-0.9,2.4-2,3.1-3.1c0.7-1.2,0.8-2.3,0.3-3 C89.2,52,88.4,51.7,87.4,51.7L87.4,51.7z"/>
      </g>
    </g>
    <g>
      <g>
        <path class="st5" d="M83.3,62.8c-0.9,0-1.5-0.3-1.8-0.8L80,60l0.9,0.1c0.2,0,0.3,0,0.4,0l0.1,0.4v-0.4c0.2,0,0.3,0,0.5,0 c0.3,0,0.4-0.1,0.6-0.1h0.2c0.1,0,0.3-0.1,0.4-0.1l0.2-0.1c0.2-0.1,0.4-0.1,0.6-0.2c0.3-0.1,0.5-0.2,0.7-0.3l0.2-0.1 c0.2-0.1,0.3-0.2,0.5-0.3l0.2-0.1c0.2-0.1,0.4-0.3,0.6-0.4c0.2-0.1,0.4-0.3,0.6-0.4l0.2-0.1c0.1-0.1,0.3-0.2,0.4-0.3l0.1-0.1 c0.2-0.2,0.4-0.3,0.5-0.5c0.2-0.2,0.3-0.3,0.4-0.5l0.1-0.1c0.1-0.2,0.2-0.3,0.3-0.4l0.1-0.1c0.1-0.2,0.2-0.3,0.3-0.5 c0.1-0.2,0.2-0.3,0.2-0.5h0.4l-0.4-0.1c0-0.1,0.1-0.2,0.1-0.3l0.2-0.8l0.5,0.6l0.9,1.4c0.9,1.3-0.6,3.8-3.2,5.6 C86.3,62.2,84.6,62.8,83.3,62.8z"/>
      </g>
      <g>
        <path class="st1" d="M89.9,54.4l0.9,1.4c0.7,1-0.4,3.2-3.1,5.1c-1.6,1.1-3.2,1.6-4.4,1.6c-0.7,0-1.3-0.2-1.5-0.6l-0.9-1.4H81 c0.1,0,0.3,0,0.4,0h0.1l0,0l0,0c0.2,0,0.3,0,0.5,0c0,0,0,0,0.1,0c0.2,0,0.4-0.1,0.6-0.1c0.1,0,0.1,0,0.2,0c0.2,0,0.3-0.1,0.5-0.1 c0.1,0,0.1,0,0.2-0.1c0.2-0.1,0.4-0.1,0.6-0.2l0,0c0.2-0.1,0.4-0.2,0.7-0.3c0.1,0,0.1-0.1,0.2-0.1c0.2-0.1,0.3-0.2,0.5-0.3 c0.1,0,0.1-0.1,0.2-0.1c0.2-0.1,0.4-0.3,0.7-0.4c0.2-0.1,0.4-0.3,0.6-0.5c0.1,0,0.1-0.1,0.2-0.1c0.1-0.1,0.3-0.2,0.4-0.4 c0.1,0,0.1-0.1,0.2-0.1c0.2-0.2,0.4-0.3,0.5-0.5l0,0c0.1-0.2,0.3-0.3,0.4-0.5c0,0,0.1-0.1,0.1-0.2c0.1-0.1,0.2-0.3,0.3-0.4 l0.1-0.1c0.1-0.2,0.2-0.3,0.3-0.5c0,0,0,0,0-0.1c0.1-0.1,0.1-0.3,0.2-0.4c0,0,0-0.1,0.1-0.1C89.8,54.7,89.8,54.6,89.9,54.4 C89.8,54.5,89.9,54.4,89.9,54.4 M89.5,52.5l-0.4,1.7l0,0v0.1c0,0.1-0.1,0.2-0.1,0.3v0.1c-0.1,0.1-0.1,0.3-0.2,0.4l0,0l0,0 c-0.1,0.2-0.2,0.3-0.3,0.5l-0.1,0.1l0,0c-0.1,0.1-0.2,0.2-0.3,0.3L88,56.1v0.1c-0.1,0.1-0.2,0.3-0.4,0.4l0,0l0,0 c-0.2,0.2-0.3,0.3-0.5,0.4l0,0L87,57.3c-0.1,0.1-0.3,0.2-0.4,0.3l-0.2,0.1c-0.2,0.1-0.4,0.3-0.6,0.4c-0.2,0.1-0.4,0.3-0.6,0.4 L85,58.7c-0.2,0.1-0.3,0.2-0.5,0.2L84.4,59h-0.1c-0.2,0.1-0.4,0.2-0.6,0.3l0,0l0,0c-0.2,0.1-0.4,0.1-0.5,0.2h-0.1H83 c-0.1,0-0.3,0.1-0.4,0.1h-0.1c-0.2,0-0.4,0.1-0.5,0.1l0,0h-0.1c-0.1,0-0.3,0-0.4,0h-0.1h-0.1c-0.1,0-0.2,0-0.3,0l0,0h-0.1 l-1.7-0.3l1,1.4l0.9,1.4c0.4,0.6,1.2,0.9,2.1,0.9c1.4,0,3.1-0.6,4.8-1.7c2.9-1.9,4.4-4.6,3.4-6.1L90.5,54L89.5,52.5L89.5,52.5z"/>
      </g>
    </g>
  </g>
  <g>
    <g>
      <g>
        <path class="st3" d="M77.7,73c-1.3,0-3.2-1.3-4.7-3.3c-1-1.2-1.7-2.5-2-3.7s-0.2-2,0.3-2.5c0.2-0.2,0.5-0.3,0.8-0.3 c1.3,0,3.1,1.3,4.7,3.3c1,1.2,1.7,2.5,2,3.7s0.2,2-0.3,2.5C78.3,72.9,78.1,73,77.7,73L77.7,73z"/>
      </g>
      <g>
        <path class="st1" d="M72.2,63.7c1,0,2.8,1.1,4.4,3.2c2,2.6,2.5,5,1.7,5.6c-0.2,0.1-0.4,0.2-0.6,0.2c-1,0-2.8-1.1-4.4-3.2 c-2-2.6-2.5-5-1.7-5.6C71.8,63.7,72,63.7,72.2,63.7 M72.2,62.9c-0.4,0-0.8,0.1-1.1,0.3c-0.7,0.5-0.8,1.5-0.5,2.9 c0.3,1.2,1,2.5,2,3.8c1.6,2.1,3.6,3.4,5,3.4c0.4,0,0.8-0.1,1.1-0.3c1.3-1,0.6-3.9-1.6-6.6C75.6,64.3,73.6,62.9,72.2,62.9 L72.2,62.9z"/>
      </g>
    </g>
    <g>
      <g>
        <path class="st5" d="M75.5,74.7c-1.3,0-3.2-1.3-4.7-3.3c-2-2.6-2.7-5.3-1.6-6.1l1.7-1.4v0.8c0,0.2,0,0.3,0,0.4v0.1 c0,0.1,0,0.3,0.1,0.4c0.1,0.2,0.1,0.4,0.2,0.6v0.1c0.1,0.2,0.1,0.3,0.2,0.5v0.1c0.1,0.3,0.2,0.4,0.3,0.6c0.1,0.2,0.2,0.4,0.4,0.7 l0.1,0.2c0.1,0.1,0.2,0.3,0.3,0.5l0.1,0.2c0.1,0.2,0.3,0.4,0.4,0.6c0.2,0.2,0.3,0.4,0.5,0.6l0.1,0.1c0.2,0.2,0.3,0.3,0.4,0.5 l0.1,0.1c0.2,0.2,0.4,0.4,0.5,0.5c0.2,0.2,0.4,0.3,0.5,0.4l0.2,0.1c0.1,0.1,0.2,0.2,0.4,0.3l-0.1,0.4l0.2-0.3 c0.2,0.1,0.3,0.2,0.5,0.3c0.2,0.1,0.3,0.2,0.5,0.2h0.1C77,73,77.1,73,77.3,73l0.7,0.2l-0.5,0.5l-1.1,0.9 C76.1,74.6,75.8,74.7,75.5,74.7z"/>
      </g>
      <g>
        <path class="st1" d="M70.5,64.7C70.5,64.7,70.5,64.8,70.5,64.7c0,0.2,0,0.3,0,0.5c0,0.1,0,0.1,0,0.2c0,0.2,0,0.3,0.1,0.5 c0,0,0,0,0,0.1c0,0.2,0.1,0.4,0.2,0.6c0,0.1,0,0.1,0.1,0.2s0.1,0.3,0.2,0.4c0,0.1,0,0.1,0.1,0.2c0.1,0.2,0.2,0.4,0.3,0.6l0,0 c0.1,0.2,0.2,0.4,0.3,0.6c0,0.1,0.1,0.1,0.1,0.2c0.1,0.2,0.2,0.3,0.3,0.5c0,0.1,0.1,0.1,0.1,0.2c0.1,0.2,0.3,0.4,0.5,0.6 s0.3,0.4,0.5,0.6c0.1,0.1,0.1,0.1,0.1,0.2c0.1,0.1,0.3,0.3,0.4,0.4l0.1,0.1c0.2,0.2,0.3,0.3,0.5,0.5l0,0c0.2,0.1,0.3,0.3,0.5,0.4 c0.1,0,0.1,0.1,0.2,0.1c0.1,0.1,0.3,0.2,0.4,0.3l0.1,0.1c0.2,0.1,0.3,0.2,0.5,0.3c0,0,0,0,0.1,0c0.1,0.1,0.3,0.1,0.4,0.2 c0,0,0.1,0,0.1,0.1c0.1,0,0.2,0.1,0.3,0.1h0.1L76,74.4c-0.2,0.1-0.4,0.2-0.6,0.2c-1,0-2.8-1.1-4.4-3.2c-2-2.6-2.5-5-1.7-5.6 L70.5,64.7 M71.3,63.1l-1.2,1L68.9,65c-1.3,1-0.6,3.9,1.6,6.6c1.6,2.1,3.6,3.4,5,3.4c0.4,0,0.8-0.1,1.1-0.3l1.1-0.9l1.3-1 l-1.5-0.3h-0.1c-0.1,0-0.2,0-0.3-0.1H77c-0.1-0.1-0.3-0.1-0.4-0.2l0,0l0,0c-0.2-0.1-0.3-0.2-0.5-0.3l-0.1,0l0,0 c-0.1-0.1-0.2-0.2-0.4-0.2l-0.1-0.1h-0.1c-0.2-0.1-0.3-0.2-0.5-0.4l0,0l0,0c-0.2-0.2-0.3-0.3-0.5-0.4l0,0l-0.1-0.1 c-0.1-0.1-0.2-0.2-0.4-0.4L73.8,70c-0.2-0.2-0.3-0.4-0.5-0.6S73,69,72.9,68.8l-0.1-0.2c-0.1-0.1-0.2-0.3-0.3-0.4l-0.1-0.1V68 c-0.1-0.2-0.2-0.4-0.3-0.6l0,0l0,0c-0.1-0.2-0.2-0.3-0.2-0.5v-0.1v-0.1c-0.1-0.1-0.1-0.3-0.2-0.4v-0.1c-0.1-0.2-0.1-0.3-0.1-0.5 l0,0v-0.1c0-0.1-0.1-0.3-0.1-0.4v-0.1c0-0.1,0-0.2,0-0.3l0,0v-0.1L71.3,63.1L71.3,63.1z"/>
      </g>
    </g>
  </g>
  <g id="Layer_24"/>
  <g id="Background_Farm"/>
  <g id="Layer_35"/>
  <g id="City"/>
  <g id="Layer_48"/>
  <g id="Layer_44"/>
  <g id="Layer_38"/>
  <g id="Layer_39"/>
  <g id="Layer_40"/>
  <g id="Layer_41"/>
  <g id="Layer_42"/>
  <g id="Layer_43"/>
  <g id="Layer_36"/>
  <g id="Layer_37"/>
  <g id="Bales_of_Hay" class="st6"/>
  <g id="Layer_3"/>
  <g id="Helicopter"/>
  <g id="Layer_7"/>
  <g id="Big_Truck" class="st6"/>
  <g id="Layer_6"/>
  <g id="Big_Truck_1_"/>
  <g id="Tractor"/>
  <g id="Layer_4" class="st6"/>
  <g id="Layer_11"/>
  <g id="Tractor_with_plough"/>
  <g id="Layer_20"/>
  <g id="Cement_Truck"/>
  <g id="DumpTruck"/>
  <g id="Car"/>
  <g id="Delivery_Van"/>
  <g id="Little_Truck"/>
  <g id="Sign_Post"/>
  <g id="Sun"/>
  <g id="Clouds"/>
  <g id="Wrench"/>
  <g id="Full_Maintenance_Lease"/>
  <g id="Operating_Lease"/>
  <g id="Managed_Maintenance"/>
  <g id="Layer_30"/>
  <g id="Layer_29"/>
  <g id="Sale_and_Lease_Back"/>
  <g id="Layer_31"/>
  <g id="Support"/>
  <g id="Layer_33"/>
  <g id="Layer_46"/>
  <g id="Layer_47"/>
  <g id="Layer_49"/>
  <g id="Layer_50"/>
  <g id="Layer_51"/>
  <g id="People"/>
  <g id="Layer_58">
    <g id="Layer_57"/>
  </g>
  <g id="Tie"/>
  <g id="Layer_53"/>
  <g id="shoes"/>
  <g id="Layer_56"/>
  <g id="Layer_59"/>
  <g id="affordability">
    <g>
      <g>
        <defs>
          <path id="SVGID_1_" d="M-872.1,180.5c41.3,0,74.9-33.6,74.9-74.7c0-41.2-33.7-74.7-74.9-74.7c-41.3,0-74.9,33.6-74.9,74.7 S-913.3,180.5-872.1,180.5z"/>
        </defs>
        <clipPath id="SVGID_2_">
          <use xlink:href="#SVGID_1_" style="overflow:visible;"/>
        </clipPath>
      </g>
    </g>
  </g>
  <g id="cash"/>
  <g id="Layer_64"/>
  <g id="Layer_61"/>
  <g id="Layer_63"/>
  <g id="Layer_62"/>
  <g id="Personal_Loan"/>
  <g id="Leisure"/>
  <g id="Calculator">
    <g>
      <g>
        <g>
          <defs>
            <path id="SVGID_3_" d="M-842,138.1c0,12.4,10.1,22.5,22.5,22.5s22.5-10.1,22.5-22.5s-10.1-22.5-22.5-22.5 C-831.9,115.6-842,125.7-842,138.1"/>
          </defs>
          <clipPath id="SVGID_4_">
            <use xlink:href="#SVGID_3_" style="overflow:visible;"/>
          </clipPath>
        </g>
      </g>
      <g>
        <g>
          <defs>
            <path id="SVGID_5_" d="M-820.8,138.2h-10.4c-0.9,0-1.6-0.7-1.6-1.6V126c0-0.9,0.7-1.6,1.6-1.6h10.4c0.9,0,1.6,0.7,1.6,1.6v10.6 C-819.2,137.4-819.9,138.2-820.8,138.2"/>
          </defs>
          <clipPath id="SVGID_6_">
            <use xlink:href="#SVGID_5_" style="overflow:visible;"/>
          </clipPath>
        </g>
      </g>
      <g>
        <g>
          <defs>
            <path id="SVGID_7_" d="M-807.2,138.2h-10.4c-0.9,0-1.6-0.7-1.6-1.6V126c0-0.9,0.7-1.6,1.6-1.6h10.4c0.9,0,1.6,0.7,1.6,1.6v10.6 C-805.5,137.4-806.3,138.2-807.2,138.2"/>
          </defs>
          <clipPath id="SVGID_8_">
            <use xlink:href="#SVGID_7_" style="overflow:visible;"/>
          </clipPath>
        </g>
      </g>
      <g>
        <g>
          <defs>
            <path id="SVGID_9_" d="M-820.8,150.9h-10.4c-0.9,0-1.6-0.7-1.6-1.6v-10.6c0-0.9,0.7-1.6,1.6-1.6h10.4c0.9,0,1.6,0.7,1.6,1.6 v10.6C-819.2,150.2-819.9,150.9-820.8,150.9"/>
          </defs>
          <clipPath id="SVGID_10_">
            <use xlink:href="#SVGID_9_" style="overflow:visible;"/>
          </clipPath>
        </g>
      </g>
      <g>
        <g>
          <defs>
            <path id="SVGID_11_" d="M-807.2,150.9h-10.4c-0.9,0-1.6-0.7-1.6-1.6v-10.6c0-0.9,0.7-1.6,1.6-1.6h10.4c0.9,0,1.6,0.7,1.6,1.6 v10.6C-805.5,150.2-806.3,150.9-807.2,150.9"/>
          </defs>
          <clipPath id="SVGID_12_">
            <use xlink:href="#SVGID_11_" style="overflow:visible;"/>
          </clipPath>
        </g>
      </g>
      <g>
        <g>
          <defs>
            <path id="SVGID_13_" d="M-818.7,141.7C-818.7,141.7-818.7,141.6-818.7,141.7L-818.7,141.7L-818.7,141.7"/>
          </defs>
          <clipPath id="SVGID_14_">
            <use xlink:href="#SVGID_13_" style="overflow:visible;"/>
          </clipPath>
        </g>
      </g>
      <g>
        <g>
          <defs>
            <path id="SVGID_15_" d="M-829.2,131.8h2.1v2.1c0,0.5,0.4,0.8,0.8,0.8c0.5,0,0.8-0.4,0.8-0.8v-2.1h2.1c0.5,0,0.8-0.4,0.8-0.8 s-0.4-0.8-0.8-0.8h-2.1v-2.1c0-0.5-0.4-0.8-0.8-0.8c-0.5,0-0.8,0.4-0.8,0.8v2.1h-2.1c-0.5,0-0.8,0.4-0.8,0.8 S-829.7,131.8-829.2,131.8"/>
          </defs>
          <clipPath id="SVGID_16_">
            <use xlink:href="#SVGID_15_" style="overflow:visible;"/>
          </clipPath>
        </g>
      </g>
      <g>
        <g>
          <defs>
            <path id="SVGID_17_" d="M-815,131.8h5.9c0.5,0,0.8-0.4,0.8-0.8s-0.4-0.8-0.8-0.8h-5.9c-0.5,0-0.8,0.4-0.8,0.8 S-815.5,131.8-815,131.8"/>
          </defs>
          <clipPath id="SVGID_18_">
            <use xlink:href="#SVGID_17_" style="overflow:visible;"/>
          </clipPath>
        </g>
      </g>
      <g>
        <g>
          <defs>
            <path id="SVGID_19_" d="M-825.1,144.8l1.5-1.5c0.3-0.3,0.3-0.8,0-1.2c-0.3-0.3-0.8-0.3-1.2,0l-1.5,1.5l-1.5-1.5 c-0.3-0.3-0.8-0.3-1.2,0c-0.3,0.3-0.3,0.8,0,1.2l1.5,1.5l-1.5,1.5c-0.3,0.3-0.3,0.8,0,1.2c0.2,0.2,0.4,0.2,0.6,0.2 c0.2,0,0.4-0.1,0.6-0.2l1.5-1.5l1.5,1.5c0.2,0.2,0.4,0.2,0.6,0.2c0.2,0,0.4-0.1,0.6-0.2c0.3-0.3,0.3-0.8,0-1.2L-825.1,144.8z"/>
          </defs>
          <clipPath id="SVGID_20_">
            <use xlink:href="#SVGID_19_" style="overflow:visible;"/>
          </clipPath>
        </g>
      </g>
      <g>
        <g>
          <defs>
            <path id="SVGID_21_" d="M-809.2,142.5h-5.9c-0.5,0-0.8,0.4-0.8,0.8c0,0.5,0.4,0.8,0.8,0.8h5.9c0.5,0,0.8-0.4,0.8-0.8 C-808.4,142.8-808.7,142.5-809.2,142.5"/>
          </defs>
          <clipPath id="SVGID_22_">
            <use xlink:href="#SVGID_21_" style="overflow:visible;"/>
          </clipPath>
        </g>
      </g>
      <g>
        <g>
          <defs>
            <path id="SVGID_23_" d="M-809.2,145.5h-5.9c-0.5,0-0.8,0.4-0.8,0.8s0.4,0.8,0.8,0.8h5.9c0.5,0,0.8-0.4,0.8-0.8 S-808.7,145.5-809.2,145.5"/>
          </defs>
          <clipPath id="SVGID_24_">
            <use xlink:href="#SVGID_23_" style="overflow:visible;"/>
          </clipPath>
        </g>
      </g>
    </g>
  </g>
</svg>
