<?xml version="1.0" encoding="utf-8"?>
<svg version="1.1" id="Layer_1" xmlns="http://www.w3.org/2000/svg" xmlns:xlink="http://www.w3.org/1999/xlink" x="0" y="0" viewBox="0 0 160 160" style="enable-background:new 0 0 160 160;" xml:space="preserve">
  <style type="text/css">
    .st0{fill:none;} .st1{fill:#69D2DC;} .st2{fill:#7B878E;} .st3{fill:#FFFFFF;} .st4{fill:#F2BC47;} .st5{fill:#14A3B2;} .st6{fill:#7C878E;} .st7{fill:#15A3B2;} .st8{fill:#F39200;} .st9{display:none;}
  </style>
  <g>
    <g>
      <path class="st0" d="M58.8,104.7l-0.1,4.1c0,0.8-0.7,1.4-1.5,1.4h-8.9c-0.8,0-1.5-0.6-1.5-1.4v-19c0-1.9,0.4-3.5,1.4-4.7l1.9-2.1 l-4-1.7c-0.3-0.1-0.5-0.2-0.4-0.5l0.4-1.9c0.2-0.7,1-1.3,1.8-1.3h3.8c0.3,0,0.5,0.1,0.6,0.3l0.8,1.1h0.4l5.9-8.3 c0.3-0.4,1-1.1,2.3-1.2c11.5-0.7,20.8-0.7,32.4,0c1.3,0.2,2,0.8,2.3,1.2l5.9,8.3h0.4l0.8-1.1c0.1-0.2,0.3-0.3,0.6-0.3h3.8 c0.8,0,1.6,0.6,1.8,1.3l0.4,1.9c0.1,0.3-0.1,0.4-0.4,0.5l-4,1.7l1.9,2.1c1,1.2,1.5,2.7,1.4,4.7v19c0,0.8-0.7,1.4-1.5,1.4h-8.9 c-0.8,0-1.5-0.6-1.5-1.4l-0.1-4.1C84.4,105.4,72,105.4,58.8,104.7"/>
    </g>
    <g>
      <path class="st1" d="M58.8,104.7l-0.1,4.1c0,0.8-0.7,1.4-1.5,1.4h-8.9c-0.8,0-1.5-0.6-1.5-1.4v-19c0-1.9,0.4-3.5,1.4-4.7l1.9-2.1 l-4-1.7c-0.3-0.1-0.5-0.2-0.4-0.5l0.4-1.9c0.2-0.7,1-1.3,1.8-1.3h3.8c0.3,0,0.5,0.1,0.6,0.3l0.8,1.1h0.4l6.3-7.8 c0.3-0.4,0.7-1.5,2-1.6c11.5-0.7,20.8-0.7,32.4,0c1.3,0.2,2,0.8,2.3,1.2l5.9,8.3h0.4l0.8-1.1c0.1-0.2,0.3-0.3,0.6-0.3h3.8 c0.8,0,1.6,0.6,1.8,1.3l0.4,1.9c0.1,0.3-0.1,0.4-0.4,0.5l-4,1.7l1.9,2.1c1,1.2,1.5,2.7,1.4,4.7v19c0,0.8-0.7,1.4-1.5,1.4h-8.9 c-0.8,0-1.5-0.6-1.5-1.4l-0.1-4.1C84.4,105.4,72,105.4,58.8,104.7"/>
      <path class="st2" d="M107.6,110.8h-8.9c-1.1,0-2-0.9-2-1.9l-0.1-3.6c-12.6,0.6-24.8,0.5-37.3-0.1l-0.1,3.6c0,1-0.9,1.9-2,1.9h-8.9 c-1.1,0-2-0.9-2-1.9v-19c0-2.2,0.5-3.8,1.5-5l1.4-1.6l-3.4-1.4c-0.1,0-0.5-0.2-0.7-0.5c-0.1-0.1-0.1-0.3,0-0.6l0.4-1.8 c0.3-1,1.3-1.7,2.3-1.7h3.8c0.7,0,0.9,0.4,1,0.6l0.6,0.8l6.1-7.6c0,0,0.1-0.1,0.1-0.2c0.3-0.5,0.9-1.5,2.2-1.6 c11.5-0.7,20.9-0.7,32.5,0c1.7,0.3,2.4,1.1,2.7,1.4l5.7,8l0.6-0.8c0.1-0.1,0.3-0.5,1-0.5h3.8c1,0,2,0.7,2.3,1.7l0.4,1.9 c0.1,0.3,0.1,0.8-0.7,1.1l-3.3,1.4l1.4,1.6c1.1,1.4,1.6,3,1.5,5.1l0,19C109.6,109.9,108.7,110.8,107.6,110.8z M97.6,104.3l0.1,4.6 c0,0.5,0.4,0.9,1,0.9h8.9c0.6,0,1-0.4,1-0.9v-19c0.1-1.8-0.3-3.2-1.3-4.4l-2.4-2.6l4.6-2c0,0,0.1,0,0.1,0l-0.4-1.8 c-0.1-0.5-0.8-0.9-1.3-0.9h-3.8c-0.1,0-0.2,0-0.2,0l-1,1.4h-0.9l-6-8.5c-0.2-0.2-0.7-0.8-2-1c-11.5-0.7-20.9-0.7-32.3,0 c-0.8,0.1-1.2,0.6-1.4,1.1c-0.1,0.1-0.1,0.2-0.2,0.3l-6.5,8h-0.9l-1-1.3c0-0.1-0.1-0.1-0.2-0.1h-3.8c-0.6,0-1.2,0.4-1.3,0.9 l-0.4,1.8c0,0,0,0,0,0l4.7,2l-2.4,2.6c-0.9,1-1.3,2.5-1.3,4.4v19c0,0.5,0.4,0.9,1,0.9h8.9c0.6,0,1-0.4,1-0.9l0.1-4.6l0.5,0 c12.8,0.7,25.3,0.7,38.2,0.1L97.6,104.3z M109.7,81.1C109.7,81.1,109.7,81.1,109.7,81.1L109.7,81.1z"/>
    </g>
    <g>
      <path class="st0" d="M62.3,68.9c0,0,28.5-0.6,32.7,0.5c5,1.3,7.4,9.4,7.9,11.3s-51.1,3.8-49.2-1.9C54.6,76.1,60.1,69.4,62.3,68.9"/>
    </g>
    <g>
      <path class="st3" d="M62.3,68.9c0,0,28.5-0.6,32.7,0.5c5,1.3,7.4,9.4,7.9,11.3s-51.1,3.8-49.2-1.9C54.6,76.1,60.1,69.4,62.3,68.9"/>
      <path class="st2" d="M78.1,83.2c-10.8,0-21.5-0.7-24.2-2.7c-0.9-0.7-0.8-1.4-0.7-1.8c0.9-2.7,6.4-9.7,9-10.2l0.1,0 c1.2,0,28.6-0.6,32.8,0.5c5.2,1.3,7.6,9.3,8.3,11.7c0,0.1,0.1,0.5-0.3,0.7C101.6,82.3,89.8,83.2,78.1,83.2z M62.4,69.4 c-2,0.5-7.3,7-8.2,9.6c0,0.1-0.1,0.3,0.4,0.7c5.1,3.7,44.2,2.6,47.8,0.9c-0.6-2.1-2.9-9.5-7.5-10.7C90.9,68.8,63.8,69.4,62.4,69.4 z"/>
    </g>
    <g>
      <path class="st2" d="M58.9,105.1c-2.6-0.1-5.2-0.3-8-0.5l-0.6,0l0.1-1l0.6,0c2.7,0.2,5.3,0.4,7.9,0.5L58.9,105.1z"/>
    </g>
    <g>
      <path class="st0" d="M52.5,88.8c2.9,0.6,5.6,1,8.5,1.3c0.5,0,0.9,0.5,0.8,0.9l-0.4,0.9c-0.2,0.4-0.5,0.7-0.9,0.7 c-2.7,0-5.5-0.2-8.3-0.6c-0.5-0.1-0.8-0.5-0.8-0.9l0.2-1.6C51.6,89,52,88.7,52.5,88.8"/>
    </g>
    <g>
      <path class="st4" d="M52.5,88.8c2.9,0.6,5.6,1,8.5,1.3c0.5,0,0.9,0.5,0.8,0.9l-0.4,0.9c-0.2,0.4-0.5,0.7-0.9,0.7 c-2.7,0-5.5-0.2-8.3-0.6c-0.5-0.1-0.8-0.5-0.8-0.9l0.2-1.6C51.6,89,52,88.7,52.5,88.8z"/>
      <path class="st2" d="M60.5,93.1c-2.7,0-5.6-0.2-8.4-0.6c-0.7-0.1-1.2-0.7-1.2-1.4l0.2-1.7c0-0.3,0.1-0.7,0.4-0.9 c0.3-0.2,0.7-0.3,1.1-0.2l0,0c2.8,0.6,5.4,1,8.4,1.3c0.4,0,0.7,0.2,1,0.5c0.2,0.3,0.3,0.7,0.2,1l-0.4,1 C61.5,92.8,61.1,93.1,60.5,93.1z M52.3,89.3c-0.1,0-0.1,0-0.1,0c-0.1,0-0.1,0.1-0.1,0.2l-0.2,1.7c0,0.1,0.1,0.3,0.4,0.3 c2.7,0.4,5.5,0.6,8.2,0.6c0.2,0,0.4-0.3,0.5-0.4l0.4-0.9c0,0,0,0-0.1-0.1c-0.1-0.1-0.1-0.1-0.3-0.1C57.9,90.3,55.2,89.9,52.3,89.3 C52.4,89.3,52.3,89.3,52.3,89.3z"/>
    </g>
    <g>
      <path transform="matrix(0.6429 -0.766 0.766 0.6429 -44.5402 68.3698)" class="st2" d="M49.4 81.5H52.699999999999996V82.5H49.4z"/>
    </g>
    <g>
      <path class="st2" d="M97.7,105.2l-0.1-1c2.8-0.2,5.6-0.4,8.5-0.6l0.1,1C103.3,104.8,100.5,105,97.7,105.2z"/>
    </g>
    <g>
      <path class="st0" d="M104,88.8c-2.9,0.5-5.6,1-8.5,1.3c-0.5,0-0.9,0.5-0.8,0.9l0.4,0.9c0.2,0.4,0.5,0.7,0.9,0.7 c2.7,0,5.5-0.2,8.3-0.6c0.5-0.1,0.8-0.5,0.8-0.9l-0.2-1.6C104.9,89,104.5,88.7,104,88.8"/>
    </g>
    <g>
      <path class="st4" d="M104,88.8c-2.9,0.5-5.6,1-8.5,1.3c-0.5,0-0.9,0.5-0.8,0.9l0.4,0.9c0.2,0.4,0.5,0.7,0.9,0.7 c2.7,0,5.5-0.2,8.3-0.6c0.5-0.1,0.8-0.5,0.8-0.9l-0.2-1.6C104.9,89,104.5,88.7,104,88.8z"/>
      <path class="st2" d="M96,93.1c-0.6,0-1-0.3-1.3-1l-0.4-0.9c-0.1-0.4,0-0.8,0.2-1.1c0.3-0.3,0.6-0.5,1-0.5c2.5-0.3,4.8-0.7,7.3-1.1 l1.1-0.2c0.4-0.1,0.8,0,1.1,0.2c0.3,0.2,0.4,0.6,0.4,0.9l0.2,1.5c0,0.7-0.5,1.3-1.2,1.5C101.6,92.9,98.7,93.1,96,93.1z M104.2,89.3C104.2,89.3,104.1,89.3,104.2,89.3l-1.2,0.2c-2.5,0.4-4.9,0.8-7.4,1.1c-0.2,0-0.3,0.1-0.3,0.1 c-0.1,0.1-0.1,0.1-0.1,0.1l0.4,0.8c0.1,0.1,0.2,0.4,0.4,0.4c2.7,0,5.5-0.2,8.2-0.6c0.2,0,0.4-0.2,0.4-0.4l-0.2-1.5 c0-0.1,0-0.2-0.1-0.2C104.3,89.3,104.2,89.3,104.2,89.3z"/>
    </g>
    <g>
      <path transform="matrix(0.8438 -0.5367 0.5367 0.8438 -27.4356 69.3446)" class="st2" d="M104.9 80.5H105.9V83.1H104.9z"/>
    </g>
    <g>
      <path class="st0" d="M66.2,90.9c8,0.4,16.1,0.4,24.1,0c0.7,0,1.3,0.5,1.3,1.2l-0.3,3.8c-0.1,0.7-0.6,1.2-1.3,1.2 c-7.9,0.3-15.8,0.3-23.5,0c-0.7,0-1.2-0.5-1.3-1.2l-0.3-3.8C64.9,91.5,65.5,90.9,66.2,90.9"/>
    </g>
    <g>
      <path class="st5" d="M66.2,90.9c8,0.4,16.1,0.4,24.1,0c0.7,0,1.3,0.5,1.3,1.2l-0.3,3.8c-0.1,0.7-0.6,1.2-1.3,1.2 c-7.9,0.3-15.8,0.3-23.5,0c-0.7,0-1.2-0.5-1.3-1.2l-0.3-3.8C64.9,91.5,65.5,90.9,66.2,90.9z"/>
      <path class="st2" d="M78.2,97.8c-3.9,0-7.8-0.1-11.7-0.2c0,0,0,0,0,0c-0.9,0-1.6-0.7-1.8-1.6l-0.3-3.8c0-0.9,0.8-1.7,1.8-1.7l0,0 c8,0.4,16.1,0.4,24,0c0,0,0,0,0,0c1,0,1.8,0.7,1.8,1.7l-0.3,3.8c-0.1,1-0.9,1.7-1.8,1.7C86.1,97.8,82.1,97.8,78.2,97.8z M66.2,91.4c-0.4,0-0.8,0.4-0.8,0.7l0.3,3.8c0,0.3,0.3,0.7,0.8,0.7c7.7,0.3,15.6,0.3,23.5,0c0.5,0,0.8-0.4,0.8-0.8l0.3-3.8 c0-0.4-0.4-0.7-0.8-0.7C82.3,91.8,74.2,91.8,66.2,91.4z"/>
    </g>
    <g>
      <path class="st2" d="M82.5,70c0,0.7-0.6,1.2-1.4,1.2h-6.6c-0.8,0-1.4-0.5-1.4-1.2s0.6-1.2,1.4-1.2h6.6 C81.9,68.7,82.5,69.3,82.5,70"/>
    </g>
  </g>
  <g>
    <g>
      <path class="st3" d="M97.9,107.7c0,7.6,6.2,13.8,13.8,13.8c7.6,0,13.8-6.2,13.8-13.8c0-7.6-6.2-13.8-13.8-13.8 C104.1,93.9,97.9,100.1,97.9,107.7z"/>
      <path class="st6" d="M111.7,122c-7.9,0-14.3-6.4-14.3-14.3s6.4-14.3,14.3-14.3s14.3,6.4,14.3,14.3S119.6,122,111.7,122z M111.7,94.4c-7.3,0-13.3,6-13.3,13.3s6,13.3,13.3,13.3s13.3-6,13.3-13.3S119,94.4,111.7,94.4z"/>
    </g>
    <g>
      <path class="st1" d="M110.9,107.7h-6.4c-0.5,0-1-0.4-1-1v-6.5c0-0.5,0.5-1,1-1h6.4c0.6,0,1,0.5,1,1v6.5 C111.9,107.3,111.5,107.7,110.9,107.7z"/>
    </g>
    <g>
      <path class="st4" d="M119.3,107.7h-6.4c-0.6,0-1-0.4-1-1v-6.5c0-0.5,0.4-1,1-1h6.4c0.5,0,1,0.5,1,1v6.5 C120.3,107.3,119.8,107.7,119.3,107.7z"/>
    </g>
    <g>
      <path class="st7" d="M110.9,115.5h-6.4c-0.5,0-1-0.4-1-1V108c0-0.6,0.5-1,1-1h6.4c0.6,0,1,0.4,1,1v6.5 C111.9,115.1,111.5,115.5,110.9,115.5z"/>
    </g>
    <g>
      <path class="st8" d="M119.3,115.5h-6.4c-0.6,0-1-0.4-1-1V108c0-0.6,0.4-1,1-1h6.4c0.5,0,1,0.4,1,1v6.5 C120.3,115.1,119.8,115.5,119.3,115.5z"/>
    </g>
    <g>
      <path class="st6" d="M112.2,109.9L112.2,109.9L112.2,109.9L112.2,109.9z"/>
    </g>
    <g>
      <path class="st3" d="M105.8,103.8h1.3v1.3c0,0.3,0.2,0.5,0.5,0.5s0.5-0.2,0.5-0.5v-1.3h1.3c0.3,0,0.5-0.2,0.5-0.5 s-0.2-0.5-0.5-0.5h-1.3v-1.3c0-0.3-0.2-0.5-0.5-0.5s-0.5,0.2-0.5,0.5v1.3h-1.3c-0.3,0-0.5,0.2-0.5,0.5S105.5,103.8,105.8,103.8z"/>
    </g>
    <g>
      <path class="st3" d="M114.5,103.8h3.6c0.3,0,0.5-0.2,0.5-0.5s-0.2-0.5-0.5-0.5h-3.6c-0.3,0-0.5,0.2-0.5,0.5 S114.2,103.8,114.5,103.8z"/>
    </g>
    <g>
      <path class="st3" d="M108.3,111.8l0.9-0.9c0.2-0.2,0.2-0.5,0-0.7s-0.5-0.2-0.7,0l-0.9,0.9l-0.9-0.9c-0.2-0.2-0.5-0.2-0.7,0 s-0.2,0.5,0,0.7l0.9,0.9l-0.9,0.9c-0.2,0.2-0.2,0.5,0,0.7c0.1,0.1,0.2,0.1,0.4,0.1c0.1,0,0.3,0,0.4-0.1l0.9-0.9l0.9,0.9 c0.1,0.1,0.2,0.1,0.4,0.1c0.1,0,0.3,0,0.4-0.1c0.2-0.2,0.2-0.5,0-0.7L108.3,111.8z"/>
    </g>
    <g>
      <path class="st3" d="M118,110.4h-3.6c-0.3,0-0.5,0.2-0.5,0.5s0.2,0.5,0.5,0.5h3.6c0.3,0,0.5-0.2,0.5-0.5S118.3,110.4,118,110.4z"/>
    </g>
    <g>
      <path class="st3" d="M118,112.2h-3.6c-0.3,0-0.5,0.2-0.5,0.5s0.2,0.5,0.5,0.5h3.6c0.3,0,0.5-0.2,0.5-0.5 C118.5,112.5,118.3,112.2,118,112.2z"/>
    </g>
    <g>
      <path class="st6" d="M111.4 99H112.4V115.5H111.4z"/>
    </g>
    <g>
      <path class="st6" d="M103.2 106.8H120.7V107.8H103.2z"/>
    </g>
    <g>
      <path class="st6" d="M118.5,116h-13.3c-1.4,0-2.5-1.1-2.5-2.5V101c0-1.4,1.1-2.5,2.5-2.5h13.3c1.4,0,2.5,1.1,2.5,2.5v12.6 C121,114.9,119.9,116,118.5,116z M105.2,99.5c-0.8,0-1.5,0.7-1.5,1.5v12.5c0,0.8,0.7,1.5,1.5,1.5h13.3c0.8,0,1.5-0.7,1.5-1.4V101 c0-0.8-0.7-1.5-1.5-1.5H105.2z"/>
    </g>
  </g>
  <g id="Layer_24"/>
  <g id="Background_Farm"/>
  <g id="Layer_35"/>
  <g id="City"/>
  <g id="Layer_48"/>
  <g id="Layer_44"/>
  <g id="Layer_38"/>
  <g id="Layer_39"/>
  <g id="Layer_40"/>
  <g id="Layer_41"/>
  <g id="Layer_42"/>
  <g id="Layer_43"/>
  <g id="Layer_36"/>
  <g id="Layer_37"/>
  <g id="Bales_of_Hay" class="st9"/>
  <g id="Layer_3"/>
  <g id="Helicopter"/>
  <g id="Layer_7"/>
  <g id="Big_Truck" class="st9"/>
  <g id="Layer_6"/>
  <g id="Big_Truck_1_"/>
  <g id="Tractor"/>
  <g id="Layer_4" class="st9"/>
  <g id="Layer_11"/>
  <g id="Tractor_with_plough"/>
  <g id="Layer_20"/>
  <g id="Cement_Truck"/>
  <g id="DumpTruck"/>
  <g id="Car"/>
  <g id="Delivery_Van"/>
  <g id="Little_Truck"/>
  <g id="Sign_Post"/>
  <g id="Sun"/>
  <g id="Clouds"/>
  <g id="Wrench"/>
  <g id="Full_Maintenance_Lease"/>
  <g id="Operating_Lease"/>
  <g id="Managed_Maintenance"/>
  <g id="Layer_30"/>
  <g id="Layer_29"/>
  <g id="Sale_and_Lease_Back"/>
  <g id="Layer_31"/>
  <g id="Support"/>
  <g id="Layer_33"/>
  <g id="Layer_46"/>
  <g id="Layer_47"/>
  <g id="Layer_49"/>
  <g id="Layer_50"/>
  <g id="Layer_51"/>
  <g id="People"/>
  <g id="Layer_58">
    <g id="Layer_57"/>
  </g>
  <g id="Tie"/>
  <g id="Layer_53"/>
  <g id="shoes"/>
  <g id="Layer_56"/>
  <g id="Layer_59"/>
  <g id="affordability">
    <g>
      <g>
        <defs>
          <path id="SVGID_1_" d="M-640,181c41.3,0,74.9-33.6,74.9-74.7c0-41.2-33.7-74.7-74.9-74.7c-41.3,0-74.9,33.6-74.9,74.7 S-681.3,181-640,181z"/>
        </defs>
        <clipPath id="SVGID_2_">
          <use xlink:href="#SVGID_1_" style="overflow:visible;"/>
        </clipPath>
      </g>
    </g>
    <g>
      <g>
        <defs>
          <path id="SVGID_3_" d="M-330.7,181c41.3,0,74.9-33.6,74.9-74.7c0-41.2-33.7-74.7-74.9-74.7c-41.3,0-74.9,33.6-74.9,74.7 C-405.7,147.4-372,181-330.7,181z"/>
        </defs>
        <clipPath id="SVGID_4_">
          <use xlink:href="#SVGID_3_" style="overflow:visible;"/>
        </clipPath>
      </g>
    </g>
  </g>
  <g id="cash"/>
  <g id="Layer_64"/>
  <g id="Layer_61"/>
  <g id="Layer_63"/>
  <g id="Layer_62"/>
  <g id="Personal_Loan"/>
  <g id="Leisure"/>
  <g id="Calculator">
    <g>
      <g>
        <g>
          <defs>
            <path id="SVGID_5_" d="M-609.9,138.6c0,12.4,10.1,22.5,22.5,22.5s22.5-10.1,22.5-22.5s-10.1-22.5-22.5-22.5 C-599.8,116.1-609.9,126.2-609.9,138.6"/>
          </defs>
          <clipPath id="SVGID_6_">
            <use xlink:href="#SVGID_5_" style="overflow:visible;"/>
          </clipPath>
        </g>
      </g>
      <g>
        <g>
          <defs>
            <path id="SVGID_7_" d="M-588.7,138.7h-10.4c-0.9,0-1.6-0.7-1.6-1.6v-10.6c0-0.9,0.7-1.6,1.6-1.6h10.4c0.9,0,1.6,0.7,1.6,1.6 v10.6C-587.1,137.9-587.8,138.7-588.7,138.7"/>
          </defs>
          <clipPath id="SVGID_8_">
            <use xlink:href="#SVGID_7_" style="overflow:visible;"/>
          </clipPath>
        </g>
      </g>
      <g>
        <g>
          <defs>
            <path id="SVGID_9_" d="M-575.1,138.7h-10.4c-0.9,0-1.6-0.7-1.6-1.6v-10.6c0-0.9,0.7-1.6,1.6-1.6h10.4c0.9,0,1.6,0.7,1.6,1.6 v10.6C-573.5,137.9-574.2,138.7-575.1,138.7"/>
          </defs>
          <clipPath id="SVGID_10_">
            <use xlink:href="#SVGID_9_" style="overflow:visible;"/>
          </clipPath>
        </g>
      </g>
      <g>
        <g>
          <defs>
            <path id="SVGID_11_" d="M-588.7,151.4h-10.4c-0.9,0-1.6-0.7-1.6-1.6v-10.6c0-0.9,0.7-1.6,1.6-1.6h10.4c0.9,0,1.6,0.7,1.6,1.6 v10.6C-587.1,150.7-587.8,151.4-588.7,151.4"/>
          </defs>
          <clipPath id="SVGID_12_">
            <use xlink:href="#SVGID_11_" style="overflow:visible;"/>
          </clipPath>
        </g>
      </g>
      <g>
        <g>
          <defs>
            <path id="SVGID_13_" d="M-575.1,151.4h-10.4c-0.9,0-1.6-0.7-1.6-1.6v-10.6c0-0.9,0.7-1.6,1.6-1.6h10.4c0.9,0,1.6,0.7,1.6,1.6 v10.6C-573.5,150.7-574.2,151.4-575.1,151.4"/>
          </defs>
          <clipPath id="SVGID_14_">
            <use xlink:href="#SVGID_13_" style="overflow:visible;"/>
          </clipPath>
        </g>
      </g>
      <g>
        <g>
          <defs>
            <path id="SVGID_15_" d="M-586.7,142.2C-586.6,142.2-586.6,142.1-586.7,142.2L-586.7,142.2 C-586.6,142.2-586.6,142.2-586.7,142.2"/>
          </defs>
          <clipPath id="SVGID_16_">
            <use xlink:href="#SVGID_15_" style="overflow:visible;"/>
          </clipPath>
        </g>
      </g>
      <g>
        <g>
          <defs>
            <path id="SVGID_17_" d="M-597.2,132.3h2.1v2.1c0,0.5,0.4,0.8,0.8,0.8c0.5,0,0.8-0.4,0.8-0.8v-2.1h2.1c0.5,0,0.8-0.4,0.8-0.8 c0-0.5-0.4-0.8-0.8-0.8h-2.1v-2.1c0-0.5-0.4-0.8-0.8-0.8c-0.5,0-0.8,0.4-0.8,0.8v2.1h-2.1c-0.5,0-0.8,0.4-0.8,0.8 C-598,132-597.6,132.3-597.2,132.3"/>
          </defs>
          <clipPath id="SVGID_18_">
            <use xlink:href="#SVGID_17_" style="overflow:visible;"/>
          </clipPath>
        </g>
      </g>
      <g>
        <g>
          <defs>
            <path id="SVGID_19_" d="M-583,132.3h5.9c0.5,0,0.8-0.4,0.8-0.8c0-0.5-0.4-0.8-0.8-0.8h-5.9c-0.5,0-0.8,0.4-0.8,0.8 C-583.8,132-583.4,132.3-583,132.3"/>
          </defs>
          <clipPath id="SVGID_20_">
            <use xlink:href="#SVGID_19_" style="overflow:visible;"/>
          </clipPath>
        </g>
      </g>
      <g>
        <g>
          <defs>
            <path id="SVGID_21_" d="M-593.1,145.3l1.5-1.5c0.3-0.3,0.3-0.8,0-1.2c-0.3-0.3-0.8-0.3-1.2,0l-1.5,1.5l-1.5-1.5 c-0.3-0.3-0.8-0.3-1.2,0c-0.3,0.3-0.3,0.8,0,1.2l1.5,1.5l-1.5,1.5c-0.3,0.3-0.3,0.8,0,1.2c0.2,0.2,0.4,0.2,0.6,0.2 c0.2,0,0.4-0.1,0.6-0.2l1.5-1.5l1.5,1.5c0.2,0.2,0.4,0.2,0.6,0.2c0.2,0,0.4-0.1,0.6-0.2c0.3-0.3,0.3-0.8,0-1.2L-593.1,145.3z"/>
          </defs>
          <clipPath id="SVGID_22_">
            <use xlink:href="#SVGID_21_" style="overflow:visible;"/>
          </clipPath>
        </g>
      </g>
      <g>
        <g>
          <defs>
            <path id="SVGID_23_" d="M-577.1,143h-5.9c-0.5,0-0.8,0.4-0.8,0.8c0,0.5,0.4,0.8,0.8,0.8h5.9c0.5,0,0.8-0.4,0.8-0.8 C-576.3,143.3-576.7,143-577.1,143"/>
          </defs>
          <clipPath id="SVGID_24_">
            <use xlink:href="#SVGID_23_" style="overflow:visible;"/>
          </clipPath>
        </g>
      </g>
      <g>
        <g>
          <defs>
            <path id="SVGID_25_" d="M-577.1,146h-5.9c-0.5,0-0.8,0.4-0.8,0.8c0,0.5,0.4,0.8,0.8,0.8h5.9c0.5,0,0.8-0.4,0.8-0.8 S-576.7,146-577.1,146"/>
          </defs>
          <clipPath id="SVGID_26_">
            <use xlink:href="#SVGID_25_" style="overflow:visible;"/>
          </clipPath>
        </g>
      </g>
    </g>
    <g>
      <g>
        <g>
          <defs>
            <path id="SVGID_27_" d="M-300.7,138.6c0,12.4,10.1,22.5,22.5,22.5s22.5-10.1,22.5-22.5s-10.1-22.5-22.5-22.5 C-290.6,116.1-300.7,126.2-300.7,138.6"/>
          </defs>
          <clipPath id="SVGID_28_">
            <use xlink:href="#SVGID_27_" style="overflow:visible;"/>
          </clipPath>
        </g>
      </g>
      <g>
        <g>
          <defs>
            <path id="SVGID_29_" d="M-279.5,138.7h-10.4c-0.9,0-1.6-0.7-1.6-1.6v-10.6c0-0.9,0.7-1.6,1.6-1.6h10.4c0.9,0,1.6,0.7,1.6,1.6 v10.6C-277.8,137.9-278.6,138.7-279.5,138.7"/>
          </defs>
          <clipPath id="SVGID_30_">
            <use xlink:href="#SVGID_29_" style="overflow:visible;"/>
          </clipPath>
        </g>
      </g>
      <g>
        <g>
          <defs>
            <path id="SVGID_31_" d="M-265.8,138.7h-10.4c-0.9,0-1.6-0.7-1.6-1.6v-10.6c0-0.9,0.7-1.6,1.6-1.6h10.4c0.9,0,1.6,0.7,1.6,1.6 v10.6C-264.2,137.9-264.9,138.7-265.8,138.7"/>
          </defs>
          <clipPath id="SVGID_32_">
            <use xlink:href="#SVGID_31_" style="overflow:visible;"/>
          </clipPath>
        </g>
      </g>
      <g>
        <g>
          <defs>
            <path id="SVGID_33_" d="M-279.5,151.4h-10.4c-0.9,0-1.6-0.7-1.6-1.6v-10.6c0-0.9,0.7-1.6,1.6-1.6h10.4c0.9,0,1.6,0.7,1.6,1.6 v10.6C-277.8,150.7-278.6,151.4-279.5,151.4"/>
          </defs>
          <clipPath id="SVGID_34_">
            <use xlink:href="#SVGID_33_" style="overflow:visible;"/>
          </clipPath>
        </g>
      </g>
      <g>
        <g>
          <defs>
            <path id="SVGID_35_" d="M-265.8,151.4h-10.4c-0.9,0-1.6-0.7-1.6-1.6v-10.6c0-0.9,0.7-1.6,1.6-1.6h10.4c0.9,0,1.6,0.7,1.6,1.6 v10.6C-264.2,150.7-264.9,151.4-265.8,151.4"/>
          </defs>
          <clipPath id="SVGID_36_">
            <use xlink:href="#SVGID_35_" style="overflow:visible;"/>
          </clipPath>
        </g>
      </g>
      <g>
        <g>
          <defs>
            <path id="SVGID_37_" d="M-277.4,142.2C-277.4,142.2-277.3,142.1-277.4,142.2L-277.4,142.2 C-277.3,142.2-277.4,142.2-277.4,142.2"/>
          </defs>
          <clipPath id="SVGID_38_">
            <use xlink:href="#SVGID_37_" style="overflow:visible;"/>
          </clipPath>
        </g>
      </g>
      <g>
        <g>
          <defs>
            <path id="SVGID_39_" d="M-287.9,132.3h2.1v2.1c0,0.5,0.4,0.8,0.8,0.8c0.5,0,0.8-0.4,0.8-0.8v-2.1h2.1c0.5,0,0.8-0.4,0.8-0.8 c0-0.5-0.4-0.8-0.8-0.8h-2.1v-2.1c0-0.5-0.4-0.8-0.8-0.8c-0.5,0-0.8,0.4-0.8,0.8v2.1h-2.1c-0.5,0-0.8,0.4-0.8,0.8 C-288.7,132-288.3,132.3-287.9,132.3"/>
          </defs>
          <clipPath id="SVGID_40_">
            <use xlink:href="#SVGID_39_" style="overflow:visible;"/>
          </clipPath>
        </g>
      </g>
      <g>
        <g>
          <defs>
            <path id="SVGID_41_" d="M-273.7,132.3h5.9c0.5,0,0.8-0.4,0.8-0.8c0-0.5-0.4-0.8-0.8-0.8h-5.9c-0.5,0-0.8,0.4-0.8,0.8 C-274.5,132-274.2,132.3-273.7,132.3"/>
          </defs>
          <clipPath id="SVGID_42_">
            <use xlink:href="#SVGID_41_" style="overflow:visible;"/>
          </clipPath>
        </g>
      </g>
      <g>
        <g>
          <defs>
            <path id="SVGID_43_" d="M-283.8,145.3l1.5-1.5c0.3-0.3,0.3-0.8,0-1.2c-0.3-0.3-0.8-0.3-1.2,0l-1.5,1.5l-1.5-1.5 c-0.3-0.3-0.8-0.3-1.2,0c-0.3,0.3-0.3,0.8,0,1.2l1.5,1.5l-1.5,1.5c-0.3,0.3-0.3,0.8,0,1.2c0.2,0.2,0.4,0.2,0.6,0.2 s0.4-0.1,0.6-0.2l1.5-1.5l1.5,1.5c0.2,0.2,0.4,0.2,0.6,0.2s0.4-0.1,0.6-0.2c0.3-0.3,0.3-0.8,0-1.2L-283.8,145.3z"/>
          </defs>
          <clipPath id="SVGID_44_">
            <use xlink:href="#SVGID_43_" style="overflow:visible;"/>
          </clipPath>
        </g>
      </g>
      <g>
        <g>
          <defs>
            <path id="SVGID_45_" d="M-267.9,143h-5.9c-0.5,0-0.8,0.4-0.8,0.8c0,0.5,0.4,0.8,0.8,0.8h5.9c0.5,0,0.8-0.4,0.8-0.8 C-267,143.3-267.4,143-267.9,143"/>
          </defs>
          <clipPath id="SVGID_46_">
            <use xlink:href="#SVGID_45_" style="overflow:visible;"/>
          </clipPath>
        </g>
      </g>
      <g>
        <g>
          <defs>
            <path id="SVGID_47_" d="M-267.9,146h-5.9c-0.5,0-0.8,0.4-0.8,0.8c0,0.5,0.4,0.8,0.8,0.8h5.9c0.5,0,0.8-0.4,0.8-0.8 C-267,146.4-267.4,146-267.9,146"/>
          </defs>
          <clipPath id="SVGID_48_">
            <use xlink:href="#SVGID_47_" style="overflow:visible;"/>
          </clipPath>
        </g>
      </g>
    </g>
  </g>
</svg>
