<?xml version="1.0" encoding="utf-8"?>
<!-- Generator: Adobe Illustrator 21.0.2, SVG Export Plug-In . SVG Version: 6.00 Build 0)  -->
<svg version="1.1" id="Layer_1" xmlns="http://www.w3.org/2000/svg" xmlns:xlink="http://www.w3.org/1999/xlink" x="0px" y="0px"
	 viewBox="0 0 160 160" style="enable-background:new 0 0 160 160;" xml:space="preserve">
<style type="text/css">
	.st0{fill:none;}
	.st1{fill-rule:evenodd;clip-rule:evenodd;fill:#F39200;}
	.st2{fill-rule:evenodd;clip-rule:evenodd;fill:#15A3B2;}
	.st3{fill-rule:evenodd;clip-rule:evenodd;fill:#F1BB46;}
	.st4{fill-rule:evenodd;clip-rule:evenodd;fill:#68D1DB;}
	.st5{fill-rule:evenodd;clip-rule:evenodd;fill:none;}
	.st6{fill-rule:evenodd;clip-rule:evenodd;fill:#FFFFFF;}
	.st7{fill:#7B878E;}
	.st8{fill:#7C878E;}
</style>
<rect x="-1108.8" y="-625.2" class="st0" width="1440" height="1381"/>
<path class="st1" d="M83.8,107.4h19c3.3,0,6-2.7,6-6v-19h-25V107.4z"/>
<path class="st2" d="M83.7,107.4h-19c-3.3,0-6-2.7-6-6v-19h25V107.4z"/>
<title>WesBank Icons v1_aj</title>
<rect x="-1083.5" y="-675.2" class="st0" width="1440" height="1381"/>
<path class="st3" d="M83.8,57.4h19c3.3,0,6,2.7,6,6v19h-25V57.4z"/>
<path class="st4" d="M83.9,57.4h-19c-3.3,0-6,2.7-6,6v19h25V57.4z"/>
<rect x="-1108.8" y="-635.2" class="st0" width="1440" height="1381"/>
<path class="st5" d="M84.5,89C84.5,88.9,84.5,88.9,84.5,89L84.5,89C84.5,89,84.5,89,84.5,89"/>
<path class="st6" d="M65.4,72.2h3.8V76c0,0.8,0.7,1.5,1.5,1.5c0.8,0,1.5-0.7,1.5-1.5v-3.8H76c0.8,0,1.5-0.7,1.5-1.5
	c0-0.8-0.7-1.5-1.5-1.5h-3.8v-3.8c0-0.8-0.7-1.5-1.5-1.5c-0.8,0-1.5,0.7-1.5,1.5v3.8h-3.8c-0.8,0-1.5,0.7-1.5,1.5
	C63.9,71.5,64.6,72.2,65.4,72.2"/>
<path class="st6" d="M91.3,71.7h12c0.9,0,1.7-0.9,1.7-2.1c0-1.1-0.8-2.1-1.7-2.1h-12c-0.9,0-1.7,0.9-1.7,2.1
	C89.6,70.8,90.4,71.7,91.3,71.7"/>
<path class="st6" d="M72.8,94.6l2.7-2.7c0.6-0.6,0.6-1.5,0-2.1s-1.5-0.6-2.1,0l-2.7,2.7L68,89.9c-0.6-0.6-1.5-0.6-2.1,0
	c-0.6,0.6-0.6,1.5,0,2.1l2.7,2.7l-2.7,2.7c-0.6,0.6-0.6,1.5,0,2.1c0.3,0.3,0.7,0.4,1.1,0.4c0.4,0,0.8-0.1,1.1-0.4l2.7-2.7l2.7,2.7
	c0.3,0.3,0.7,0.4,1.1,0.4c0.4,0,0.8-0.1,1.1-0.4c0.6-0.6,0.6-1.5,0-2.1L72.8,94.6z"/>
<rect x="-1108.8" y="-635.2" class="st0" width="1440" height="1381"/>
<path class="st6" d="M101.7,90.4H91.1c-0.8,0-1.5,0.7-1.5,1.5c0,0.8,0.7,1.5,1.5,1.5h10.6c0.8,0,1.5-0.7,1.5-1.5
	C103.2,91.1,102.6,90.4,101.7,90.4"/>
<rect x="-1108.8" y="-635.2" class="st0" width="1440" height="1381"/>
<path class="st6" d="M101.7,95.9H91.1c-0.8,0-1.5,0.7-1.5,1.5c0,0.8,0.7,1.5,1.5,1.5h10.6c0.8,0,1.5-0.7,1.5-1.5
	C103.2,96.6,102.6,95.9,101.7,95.9"/>
<rect x="59.2" y="82" class="st7" width="49.5" height="1"/>
<rect x="83.7" y="57.7" class="st7" width="1" height="49.3"/>
<path class="st8" d="M103,107.9H64.5c-3.5,0-6.3-2.9-6.3-6.5V63.5c0-3.6,2.8-6.5,6.3-6.5H103c3.5,0,6.3,2.9,6.3,6.5v37.9
	C109.3,105,106.4,107.9,103,107.9z M64.5,57.9c-2.9,0-5.3,2.5-5.3,5.5v37.9c0,3.1,2.4,5.5,5.3,5.5H103c2.9,0,5.3-2.5,5.3-5.5V63.5
	c0-3.1-2.4-5.5-5.3-5.5H64.5z"/>
</svg>
