<?xml version="1.0" encoding="utf-8"?>
<!-- Generator: Adobe Illustrator 21.0.2, SVG Export Plug-In . SVG Version: 6.00 Build 0)  -->
<svg version="1.1" xmlns="http://www.w3.org/2000/svg" xmlns:xlink="http://www.w3.org/1999/xlink" x="0px" y="0px"
	 viewBox="0 0 160 160" style="enable-background:new 0 0 160 160;" xml:space="preserve">
<style type="text/css">
	.st0{fill-rule:evenodd;clip-rule:evenodd;fill:#F2F2F2;}
	.st1{fill-rule:evenodd;clip-rule:evenodd;fill:#73C8D1;}
	.st2{fill-rule:evenodd;clip-rule:evenodd;fill:none;}
	.st3{fill-rule:evenodd;clip-rule:evenodd;fill:#7C878E;}
	.st4{fill-rule:evenodd;clip-rule:evenodd;fill:#F1BB46;}
	.st5{fill:none;}
	.st6{fill:#7B878E;}
	.st7{fill:#FFFFFF;}
	.st8{fill-rule:evenodd;clip-rule:evenodd;fill:#F39200;}
	.st9{fill-rule:evenodd;clip-rule:evenodd;fill:#69D2DC;}
	.st10{fill-rule:evenodd;clip-rule:evenodd;fill:#FFFFFF;}
	.st11{fill:#7C878E;}
</style>
<g id="Layer_1">
	<polygon class="st0" points="49.1,52.2 77,74.5 76.2,106.3 24,106.3 24,74.5 	"/>
	<path class="st1" d="M90.3,85.8l0.2,0.3c1.7,2.3,4.4,3.7,7.2,3.7c4.2,0,7.9-3,8.8-7.1l0.1-0.3l0.3-0.1c2.7-0.8,4.6-3.2,4.6-6.1
		c0-2.7-1.7-5.1-4.3-6l-0.6-0.2l0.2-0.6c0.3-0.7,0.4-1.4,0.4-2.1c0-3.1-2.5-5.6-5.6-5.6c-0.3,0-0.7,0-1.1,0.1l-0.5,0.1l-0.2-0.4
		c-0.5-1.3-1.8-2.2-3.2-2.2c-1.4,0-2.7,0.9-3.3,2.3L93.4,62H93c-2.4,0-4.4,1.7-4.9,4l-0.1,0.4l-0.4,0.1c-3.2,0.4-5.5,3.1-5.5,6.3
		c0,2.3,1.2,4.3,3.2,5.5l0.5,0.3L85.5,79c-0.5,0.7-0.7,1.6-0.7,2.4c0,2.5,2,4.5,4.5,4.5c0.2,0,0.4,0,0.6-0.1L90.3,85.8z"/>
	<title>WesBank Icons v1_aj</title>
	<path class="st2" d="M90.3,85.8l0.2,0.3c1.7,2.3,4.4,3.7,7.2,3.7c4.2,0,7.9-3,8.8-7.1l0.1-0.3l0.3-0.1c2.7-0.8,4.6-3.2,4.6-6.1
		c0-2.7-1.7-5.1-4.3-6l-0.6-0.2l0.2-0.6c0.3-0.7,0.4-1.4,0.4-2.1c0-3.1-2.5-5.6-5.6-5.6c-0.3,0-0.7,0-1.1,0.1l-0.5,0.1l-0.2-0.4
		c-0.5-1.3-1.8-2.2-3.2-2.2c-1.4,0-2.7,0.9-3.3,2.3L93.4,62H93c-2.4,0-4.4,1.7-4.9,4l-0.1,0.4l-0.4,0.1c-3.2,0.4-5.5,3.1-5.5,6.3
		c0,2.3,1.2,4.3,3.2,5.5l0.5,0.3L85.5,79c-0.5,0.7-0.7,1.6-0.7,2.4c0,2.5,2,4.5,4.5,4.5c0.2,0,0.4,0,0.6-0.1L90.3,85.8z"/>
	<path class="st2" d="M90.3,85.8l0.2,0.3c1.7,2.3,4.4,3.7,7.2,3.7c4.2,0,7.9-3,8.8-7.1l0.1-0.3l0.3-0.1c2.7-0.8,4.6-3.2,4.6-6.1
		c0-2.7-1.7-5.1-4.3-6l-0.6-0.2l0.2-0.6c0.3-0.7,0.4-1.4,0.4-2.1c0-3.1-2.5-5.6-5.6-5.6c-0.3,0-0.7,0-1.1,0.1l-0.5,0.1l-0.2-0.4
		c-0.5-1.3-1.8-2.2-3.2-2.2c-1.4,0-2.7,0.9-3.3,2.3L93.4,62H93c-2.4,0-4.4,1.7-4.9,4l-0.1,0.4l-0.4,0.1c-3.2,0.4-5.5,3.1-5.5,6.3
		c0,2.3,1.2,4.3,3.2,5.5l0.5,0.3L85.5,79c-0.5,0.7-0.7,1.6-0.7,2.4c0,2.5,2,4.5,4.5,4.5c0.2,0,0.4,0,0.6-0.1L90.3,85.8z"/>
	<path class="st3" d="M97.8,90.9c-3.1,0-6-1.4-7.9-3.8c-0.2,0-0.3,0-0.5,0c-3.1,0-5.7-2.6-5.7-5.7c0-0.9,0.2-1.7,0.6-2.5
		c-2-1.4-3.3-3.7-3.3-6.2c0-3.6,2.6-6.7,6.1-7.3c0.7-2.5,2.9-4.3,5.6-4.5c0.8-1.6,2.4-2.6,4.2-2.6c1.7,0,3.3,1,4.1,2.5
		c0.3,0,0.6-0.1,0.9-0.1c3.7,0,6.7,3,6.7,6.7c0,0.7-0.1,1.3-0.3,2c2.7,1.2,4.5,3.9,4.5,6.8c0,3.2-2.1,6.1-5.2,7.1
		C106.4,87.7,102.4,90.9,97.8,90.9z M90.3,85.8l0.2,0.3c1.7,2.3,4.4,3.7,7.2,3.7c4.2,0,7.9-3,8.8-7.1l0.1-0.3l0.3-0.1
		c2.7-0.8,4.6-3.2,4.6-6.1c0-2.7-1.7-5.1-4.3-6l-0.6-0.2l0.2-0.6c0.3-0.7,0.4-1.4,0.4-2.1c0-3.1-2.5-5.6-5.6-5.6
		c-0.3,0-0.7,0-1.1,0.1l-0.5,0.1l-0.2-0.4c-0.5-1.3-1.8-2.2-3.2-2.2c-1.4,0-2.7,0.9-3.3,2.3L93.4,62H93c-2.4,0-4.4,1.7-4.9,4
		l-0.1,0.4l-0.4,0.1c-3.2,0.4-5.5,3.1-5.5,6.3c0,2.3,1.2,4.3,3.2,5.5l0.5,0.3L85.5,79c-0.5,0.7-0.7,1.6-0.7,2.4c0,2.5,2,4.5,4.5,4.5
		c0.2,0,0.4,0,0.6-0.1L90.3,85.8z"/>
	<rect x="104.6" y="50" class="st2" width="36.1" height="37.1"/>
	<path class="st2" d="M115.2,81.3l0.2,0.3c1.9,2.6,5,4.2,8.2,4.2c4.8,0,9-3.4,10-8l0.1-0.4l0.4-0.1c3.1-0.9,5.3-3.7,5.3-6.9
		c0-3.1-2-5.8-4.9-6.8l-0.6-0.2l0.3-0.6c0.3-0.8,0.5-1.6,0.5-2.4c0-3.5-2.8-6.3-6.3-6.3c-0.4,0-0.8,0.1-1.2,0.1l-0.5,0.1l-0.2-0.5
		c-0.6-1.5-2.1-2.5-3.7-2.5c-1.7,0-3.1,1-3.7,2.6l-0.2,0.4h-0.5c-2.7,0-5,1.9-5.6,4.5l-0.1,0.5l-0.5,0.1c-3.6,0.4-6.3,3.5-6.3,7.1
		c0,2.5,1.4,4.9,3.6,6.2l0.6,0.3l-0.3,0.6c-0.5,0.8-0.8,1.8-0.8,2.7c0,2.8,2.3,5.2,5.2,5.2c0.2,0,0.5,0,0.7-0.1L115.2,81.3z"/>
	<rect x="104.6" y="50" class="st2" width="36.1" height="37.1"/>
	<path class="st2" d="M115.2,81.3l0.2,0.3c1.9,2.6,5,4.2,8.2,4.2c4.8,0,9-3.4,10-8l0.1-0.4l0.4-0.1c3.1-0.9,5.3-3.7,5.3-6.9
		c0-3.1-2-5.8-4.9-6.8l-0.6-0.2l0.3-0.6c0.3-0.8,0.5-1.6,0.5-2.4c0-3.5-2.8-6.3-6.3-6.3c-0.4,0-0.8,0.1-1.2,0.1l-0.5,0.1l-0.2-0.5
		c-0.6-1.5-2.1-2.5-3.7-2.5c-1.7,0-3.1,1-3.7,2.6l-0.2,0.4h-0.5c-2.7,0-5,1.9-5.6,4.5l-0.1,0.5l-0.5,0.1c-3.6,0.4-6.3,3.5-6.3,7.1
		c0,2.5,1.4,4.9,3.6,6.2l0.6,0.3l-0.3,0.6c-0.5,0.8-0.8,1.8-0.8,2.7c0,2.8,2.3,5.2,5.2,5.2c0.2,0,0.5,0,0.7-0.1L115.2,81.3z"/>
	<path class="st2" d="M96.6,98.9c-0.3,0-0.6-0.3-0.6-0.6V70.9c0-0.3,0.3-0.6,0.6-0.6s0.6,0.3,0.6,0.6v27.4
		C97.2,98.6,96.9,98.9,96.6,98.9"/>
	<path class="st2" d="M96.6,80.3c-3.7,0-6.7-3-6.7-6.7c0-0.3,0.3-0.6,0.6-0.6s0.6,0.3,0.6,0.6c0,3,2.4,5.5,5.4,5.5
		c0.3,0,0.6,0.3,0.6,0.6C97.2,80,96.9,80.3,96.6,80.3"/>
	<path class="st2" d="M96.6,84.7c-0.3,0-0.6-0.3-0.6-0.6c0-0.3,0.3-0.6,0.6-0.6c3,0,5.4-2.4,5.4-5.4c0-0.4,0.3-0.6,0.6-0.6
		s0.6,0.3,0.6,0.6C103.3,81.7,100.3,84.7,96.6,84.7"/>
	<path class="st2" d="M115.2,81.3l0.2,0.3c1.9,2.6,5,4.2,8.2,4.2c4.8,0,9-3.4,10-8l0.1-0.4l0.4-0.1c3.1-0.9,5.3-3.7,5.3-6.9
		c0-3.1-2-5.8-4.9-6.8l-0.6-0.2l0.3-0.6c0.3-0.8,0.5-1.6,0.5-2.4c0-3.5-2.8-6.3-6.3-6.3c-0.4,0-0.8,0.1-1.2,0.1l-0.5,0.1l-0.2-0.5
		c-0.6-1.5-2.1-2.5-3.7-2.5c-1.7,0-3.1,1-3.7,2.6l-0.2,0.4h-0.5c-2.7,0-5,1.9-5.6,4.5l-0.1,0.5l-0.5,0.1c-3.6,0.4-6.3,3.5-6.3,7.1
		c0,2.5,1.4,4.9,3.6,6.2l0.6,0.3l-0.3,0.6c-0.5,0.8-0.8,1.8-0.8,2.7c0,2.8,2.3,5.2,5.2,5.2c0.2,0,0.5,0,0.7-0.1L115.2,81.3z"/>
	<path class="st4" d="M123.7,87.1c-3.5,0-6.9-1.6-9-4.4c-0.2,0-0.3,0-0.5,0c-3.6,0-6.4-2.9-6.4-6.4c0-1,0.2-2,0.7-2.8
		c-2.3-1.6-3.7-4.2-3.7-7c0-4.1,3-7.6,7-8.3c0.8-2.9,3.3-5,6.3-5.1c0.9-1.8,2.7-3,4.8-3c2,0,3.8,1.1,4.7,2.8c0.3-0.1,0.6-0.1,1-0.1
		c4.2,0,7.6,3.4,7.6,7.6c0,0.8-0.1,1.5-0.3,2.2c3.1,1.3,5.1,4.4,5.1,7.8c0,3.7-2.4,6.9-5.9,8.1C133.6,83.5,128.9,87.1,123.7,87.1"/>
	<path class="st3" d="M96.6,113.3c-0.3,0-0.6-0.4-0.6-1V71.2c0-0.5,0.3-1,0.6-1s0.6,0.4,0.6,1v41.1
		C97.2,112.8,96.9,113.3,96.6,113.3"/>
	<path class="st3" d="M96.6,80.3c-3.7,0-6.7-3-6.7-6.7c0-0.3,0.3-0.6,0.6-0.6s0.6,0.3,0.6,0.6c0,3,2.4,5.5,5.4,5.5
		c0.3,0,0.6,0.3,0.6,0.6C97.2,80,96.9,80.3,96.6,80.3"/>
	<path class="st3" d="M96.6,84.7c-0.3,0-0.6-0.3-0.6-0.6c0-0.3,0.3-0.6,0.6-0.6c3,0,5.4-2.4,5.4-5.4c0-0.4,0.3-0.6,0.6-0.6
		s0.6,0.3,0.6,0.6C103.3,81.7,100.3,84.7,96.6,84.7"/>
	<path class="st3" d="M123.7,87.1c-3.5,0-6.9-1.6-9-4.4c-0.2,0-0.3,0-0.5,0c-3.6,0-6.4-2.9-6.4-6.4c0-1,0.2-2,0.7-2.8
		c-2.3-1.6-3.7-4.2-3.7-7c0-4.1,3-7.6,7-8.3c0.8-2.9,3.3-5,6.3-5.1c0.9-1.8,2.7-3,4.8-3c2,0,3.8,1.1,4.7,2.8c0.3-0.1,0.6-0.1,1-0.1
		c4.2,0,7.6,3.4,7.6,7.6c0,0.8-0.1,1.5-0.3,2.2c3.1,1.3,5.1,4.4,5.1,7.8c0,3.7-2.4,6.9-5.9,8.1C133.6,83.5,128.9,87.1,123.7,87.1z
		 M115.2,81.3l0.2,0.3c1.9,2.6,5,4.2,8.2,4.2c4.8,0,9-3.4,10-8l0.1-0.4l0.4-0.1c3.1-0.9,5.3-3.7,5.3-6.9c0-3.1-2-5.8-4.9-6.8
		l-0.6-0.2l0.3-0.6c0.3-0.8,0.5-1.6,0.5-2.4c0-3.5-2.8-6.3-6.3-6.3c-0.4,0-0.8,0.1-1.2,0.1l-0.5,0.1l-0.2-0.5
		c-0.6-1.5-2.1-2.5-3.7-2.5c-1.7,0-3.1,1-3.7,2.6l-0.2,0.4h-0.5c-2.7,0-5,1.9-5.6,4.5l-0.1,0.5l-0.5,0.1c-3.6,0.4-6.3,3.5-6.3,7.1
		c0,2.5,1.4,4.9,3.6,6.2l0.6,0.3l-0.3,0.6c-0.5,0.8-0.8,1.8-0.8,2.7c0,2.8,2.3,5.2,5.2,5.2c0.2,0,0.5,0,0.7-0.1L115.2,81.3z"/>
	<path class="st3" d="M122.7,112.8c-0.3,0-0.6-0.4-0.6-0.9V57.1c0-0.5,0.3-0.9,0.6-0.9c0.3,0,0.6,0.4,0.6,0.9v54.8
		C123.3,112.4,123,112.8,122.7,112.8"/>
	<path class="st3" d="M122.7,65.8c-3.2,0-5.9-2.6-5.9-5.9c0-0.4,0.3-0.6,0.6-0.6c0.3,0,0.6,0.3,0.6,0.6c0,2.5,2,4.6,4.6,4.6
		c0.3,0,0.6,0.3,0.6,0.6C123.3,65.5,123,65.8,122.7,65.8"/>
	<path class="st3" d="M122.7,70.1c-0.3,0-0.6-0.3-0.6-0.6c0-0.3,0.3-0.6,0.6-0.6c2.5,0,4.6-2,4.6-4.6c0-0.3,0.3-0.6,0.6-0.6
		c0.3,0,0.6,0.3,0.6,0.6C128.5,67.5,125.9,70.1,122.7,70.1"/>
	<path class="st3" d="M122.7,76.2c-6.1,0-11.1-5-11.1-11.1c0-0.3,0.3-0.6,0.6-0.6c0.3,0,0.6,0.3,0.6,0.6c0,5.4,4.4,9.8,9.8,9.8
		c0.3,0,0.6,0.3,0.6,0.6C123.3,75.9,123,76.2,122.7,76.2"/>
	<path class="st3" d="M122.7,80.6c-0.3,0-0.6-0.3-0.6-0.6s0.3-0.6,0.6-0.6c5.4,0,9.8-4.4,9.8-9.8c0-0.3,0.3-0.6,0.6-0.6
		c0.3,0,0.6,0.3,0.6,0.6C133.8,75.6,128.8,80.6,122.7,80.6"/>
	<rect x="11" y="50" class="st5" width="130" height="70"/>
	<rect x="22" y="106.8" class="st2" width="56.5" height="5.5"/>
	<rect x="11" y="50" class="st5" width="130" height="70"/>
	<polygon class="st2" points="48,52.3 24,74.5 25.7,106.3 77.9,107.2 75.2,74.5 	"/>
	<rect x="11" y="50" class="st5" width="130" height="70"/>
	<rect x="11" y="50" class="st5" width="130" height="70"/>
	<path class="st3" d="M82.4,79.4L48.6,53.1L19.3,80.4l-0.2-1.3L48,52.3c0.3-0.3,0.8-0.3,1.1,0l34.4,26.8L82.4,79.4z"/>
	<rect x="11" y="50" class="st5" width="130" height="70"/>
	<rect x="24" y="74.5" class="st3" width="0.7" height="31.8"/>
	<rect x="11" y="50" class="st5" width="130" height="70"/>
	<rect x="76.2" y="74.5" class="st3" width="0.7" height="31.8"/>
	<rect x="11" y="50" class="st5" width="130" height="70"/>
	<rect x="31.1" y="80.4" class="st2" width="10.9" height="10.9"/>
	<rect x="30.6" y="79.9" class="st6" width="11.9" height="11.9"/>
	<rect x="31.6" y="80.9" class="st7" width="9.9" height="9.9"/>
	<rect x="11" y="50" class="st5" width="130" height="70"/>
	<rect x="11" y="50" class="st5" width="130" height="70"/>
	<rect x="45" y="80.4" class="st2" width="10.9" height="26.3"/>
	<rect x="44.5" y="79.9" class="st6" width="11.9" height="26"/>
	<rect x="45.5" y="80.9" class="st7" width="9.9" height="24.1"/>
	<rect x="11" y="50" class="st5" width="130" height="70"/>
	<rect x="11" y="50" class="st5" width="130" height="70"/>
	<rect x="59" y="80" class="st2" width="10.9" height="10.9"/>
	<rect x="58.5" y="79.5" class="st6" width="11.9" height="11.9"/>
	<rect x="59.5" y="80.5" class="st7" width="9.9" height="9.9"/>
	<rect x="11" y="50" class="st5" width="130" height="70"/>
	<rect x="11" y="50" class="st5" width="130" height="70"/>
	<polygon class="st3" points="79.6,113.3 78.9,113.3 78.9,105.8 22.1,105.8 22.1,113.3 21.4,113.3 21.4,105 79.6,105 	"/>
	<rect x="11" y="50" class="st5" width="130" height="70"/>
	<rect x="11" y="50" class="st5" width="130" height="70"/>
	<rect x="11" y="50" class="st5" width="130" height="70"/>
	<rect x="11" y="50" class="st5" width="130" height="70"/>
	<rect x="11" y="50" class="st5" width="130" height="70"/>
	<rect x="11" y="50" class="st5" width="130" height="70"/>
	<rect x="11" y="50" class="st5" width="130" height="70"/>
	<rect x="11" y="50" class="st5" width="130" height="70"/>
	<rect x="11" y="50" class="st5" width="130" height="70"/>
	<rect x="11" y="50" class="st5" width="130" height="70"/>
	<rect x="11" y="50" class="st5" width="130" height="70"/>
	<rect x="11" y="50" class="st5" width="130" height="70"/>
	<path class="st2" d="M103.7,106.5c-0.1,0-0.3-0.1-0.3-0.2c-1.1-1.8-2-2.5-2-2.5c-0.2-0.1-0.2-0.4-0.1-0.6c0.1-0.2,0.4-0.2,0.6-0.1
		c0,0,1,0.8,2.2,2.8c0.1,0.2,0,0.4-0.1,0.6C103.8,106.5,103.8,106.5,103.7,106.5"/>
	<rect x="11" y="50" class="st5" width="130" height="70"/>
	<rect x="22.1" y="105.9" class="st0" width="56.8" height="7.2"/>
	<path class="st3" d="M11.9,113.8c-0.5,0-0.9-0.4-0.9-0.9c0-0.5,0.4,0.1,0.9,0.1h78.1c0.5,0,0.9-0.6,0.9-0.1c0,0.5-0.4,0.9-0.9,0.9
		H11.9z"/>
</g>
<g id="Layer_2">
</g>
<g id="Layer_3">
	<g>
		<path class="st2" d="M101.3,111.9c0,2,1.6,3.6,3.6,3.6c2,0,3.6-1.6,3.6-3.6s-1.6-3.6-3.6-3.6C102.9,108.3,101.3,109.9,101.3,111.9
			 M102.1,111.9c0-1.6,1.3-2.8,2.8-2.8c1.5,0,2.8,1.3,2.8,2.8c0,1.5-1.3,2.8-2.8,2.8C103.3,114.7,102.1,113.4,102.1,111.9"/>
	</g>
	<g>
		<path class="st2" d="M60.4,111.9c0,2,1.6,3.6,3.6,3.6c2,0,3.6-1.6,3.6-3.6s-1.6-3.6-3.6-3.6C62,108.3,60.4,109.9,60.4,111.9
			 M61.2,111.9c0-1.6,1.3-2.8,2.8-2.8c1.5,0,2.8,1.3,2.8,2.8c0,1.5-1.3,2.8-2.8,2.8C62.5,114.7,61.2,113.4,61.2,111.9"/>
	</g>
	<path class="st3" d="M49.4,106.7v4c0,1.1,0.9,2.1,2.1,2.1l6.5,1.2l0.6,0c0.8,2.2,3,3.8,5.5,3.8c2.5,0,4.6-1.6,5.5-3.8h30
		c0.8,2.2,2.9,3.8,5.5,3.8c2.5,0,4.6-1.6,5.5-3.8h6.7c1.1,0,2.1-0.9,2.1-2v-4c0-0.8-0.5-1.6-1.2-1.9c-0.1-0.8-0.5-3.1-3.2-3.9
		c-2.9-0.9-11.6-2.7-12.6-2.9c-0.8-0.5-7.7-5.1-14.9-6c-6.8-0.8-16.7-0.6-22.7,1.5c-2,0.7-3.6,1.6-5.2,2.4c-2.8,1.4-5.1,2.7-8.5,2.7
		c-0.2,0-0.4,0.2-0.4,0.4v4.7c0,0-0.1,0-0.1,0.1C49.8,105.3,49.4,105.9,49.4,106.7"/>
	<g>
		<path class="st8" d="M51.2,104.8V102c0.4,0,1.1,0.1,1.5,0.8c0.7,1.2,0.6,1.6,0.6,1.7c-0.1,0.1-0.4,0.2-0.5,0.2H51.2z"/>
	</g>
	<g>
		<path class="st4" d="M117,105.8h-2.9l-1.4-1.4c1.1-0.2,3.1-0.4,4,0.6C116.9,105.4,117,105.6,117,105.8"/>
	</g>
	<path class="st9" d="M118.3,107.8v1.3h-2.5c-0.8,0-1.4,0.6-1.4,1.4c0,0.2,0,0.4,0.1,0.6h-3.9c-0.4-2.8-2.8-5-5.8-5
		c-2.9,0-5.3,2.2-5.8,5H69.8c-0.4-2.8-2.8-5-5.8-5c-2.9,0-5.3,2.2-5.8,5h-8c0-0.1-0.1-0.2-0.1-0.3v-4c0-0.5,0.3-0.9,0.7-1.1h1.8
		c0.6,0,1-0.2,1.2-0.6c0.3-0.5,0.1-1.3-0.6-2.5c-0.6-1.1-1.6-1.2-2.2-1.3v-0.6c3.3-0.1,5.7-1.3,8.4-2.7c1.5-0.8,3.1-1.6,5.1-2.3
		c5.8-2.1,15.6-2.3,22.3-1.5c7.3,0.8,14.5,5.8,14.6,5.9c0,0,0.1,0.1,0.1,0.1c0.1,0,9.6,2,12.6,2.9c0.7,0.2,1.1,0.5,1.5,0.8
		c-1.8-0.5-3.9,0.2-4,0.2c-0.1,0-0.2,0.1-0.3,0.3c0,0.1,0,0.3,0.1,0.4l2,2c0.1,0.1,0.2,0.1,0.3,0.1h3.4
		C117.9,106.8,118.3,107.3,118.3,107.8"/>
	<path class="st9" d="M116.2,111h-0.4c-0.3,0-0.6-0.3-0.6-0.6c0-0.3,0.3-0.6,0.6-0.6h2.5v1.1H116.2z"/>
	<g>
		<path class="st9" d="M110.6,113.1c0.1-0.4,0.1-0.8,0.1-1.2c0,0,0,0,0-0.1h5h0.4h2.1v0c0,0.7-0.6,1.2-1.2,1.2H110.6z"/>
	</g>
	<g>
		<path class="st9" d="M69.7,113.1c0.1-0.4,0.1-0.8,0.1-1.2c0,0,0,0,0-0.1h29.2c0,0,0,0,0,0.1c0,0.4,0,0.8,0.1,1.2H69.7z"/>
	</g>
	<g>
		<path class="st9" d="M51,111.8h7.2c0,0,0,0,0,0.1c0,0.4,0,0.8,0.1,1.2H58l-6.5-1.2C51.3,112,51.1,111.9,51,111.8"/>
	</g>
	<g>
		<path class="st3" d="M100.8,101.1c0.1-0.2,0-0.4-0.1-0.5c-1.4-1-7.7-4.7-13.8-5.4c-2.4-0.3-5-0.4-7.5-0.4
			c-5.7,0-11.1,0.7-14.2,1.9c-1.9,0.7-3.5,1.5-4.9,2.3C60.1,99,60,99.2,60,99.4c0,0.2,0.2,0.3,0.4,0.3c14,0.7,39.7,1.7,40,1.7h0
			C100.6,101.4,100.7,101.3,100.8,101.1"/>
	</g>
	<g>
		<path class="st10" d="M65.4,97.4c0.6-0.2,1.3-0.4,2.1-0.6v2.4c-2-0.1-3.9-0.2-5.6-0.3C63,98.4,64.1,97.9,65.4,97.4"/>
	</g>
	<g>
		<path class="st10" d="M79.4,95.6c1.3,0,2.6,0,3.9,0.1v4.2c-4.8-0.2-10.1-0.4-14.9-0.7v-2.7C71.4,96,75.3,95.6,79.4,95.6"/>
	</g>
	<g>
		<path class="st10" d="M98.9,100.6c-2.6-0.1-8.3-0.3-14.8-0.6v-4.2c0.9,0.1,1.8,0.1,2.7,0.2C91.6,96.6,96.5,99.1,98.9,100.6"/>
	</g>
	<g>
		<path class="st3" d="M83.7,101.7c0.2,0,0.4,0.2,0.4,0.4v7.5c0,0.2-0.2,0.4-0.4,0.4c-0.2,0-0.4-0.2-0.4-0.4v-7.5
			C83.3,101.9,83.5,101.7,83.7,101.7"/>
	</g>
	<g>
		<path class="st2" d="M103.7,105.5c-0.1,0-0.3-0.1-0.3-0.2c-1.1-1.8-2-2.5-2-2.5c-0.2-0.1-0.2-0.4-0.1-0.6c0.1-0.2,0.4-0.2,0.6-0.1
			c0,0,1,0.8,2.2,2.8c0.1,0.2,0,0.4-0.1,0.6C103.8,105.5,103.8,105.5,103.7,105.5"/>
	</g>
	<g>
		<path class="st3" d="M68.1,100.9c0.2,0,0.4,0.2,0.4,0.4v3.4c0.8,0.3,2.9,1.6,3.4,4.7c0,0.2-0.1,0.4-0.3,0.5c0,0,0,0-0.1,0
			c-0.2,0-0.4-0.1-0.4-0.4c-0.5-3.3-3-4.2-3.1-4.2c-0.2-0.1-0.3-0.2-0.3-0.4v-3.7C67.7,101.1,67.8,100.9,68.1,100.9"/>
	</g>
	<g>
		<path class="st2" d="M58.2,111.9c0-3.2,2.6-5.9,5.9-5.9c3.2,0,5.9,2.6,5.9,5.9c0,3.2-2.6,5.9-5.9,5.9
			C60.9,117.8,58.2,115.1,58.2,111.9"/>
	</g>
	<g>
		<g>
			<ellipse class="st7" cx="63.5" cy="111.8" rx="6" ry="6"/>
			<path class="st11" d="M63.5,118.3c-3.6,0-6.5-2.9-6.5-6.5s2.9-6.5,6.5-6.5s6.5,2.9,6.5,6.5S67.1,118.3,63.5,118.3z M63.5,106.3
				c-3,0-5.5,2.5-5.5,5.5s2.5,5.5,5.5,5.5c3,0,5.5-2.5,5.5-5.5S66.5,106.3,63.5,106.3z"/>
		</g>
		<g>
			<circle class="st7" cx="63.5" cy="111.8" r="2.8"/>
			<path class="st11" d="M63.5,115.2c-1.8,0-3.3-1.5-3.3-3.3s1.5-3.3,3.3-3.3s3.3,1.5,3.3,3.3S65.4,115.2,63.5,115.2z M63.5,109.5
				c-1.3,0-2.3,1-2.3,2.3s1,2.3,2.3,2.3s2.3-1,2.3-2.3S64.8,109.5,63.5,109.5z"/>
		</g>
	</g>
	<g>
		<g>
			<ellipse class="st7" cx="105.2" cy="111.8" rx="6" ry="6"/>
			<path class="st11" d="M105.2,118.3c-3.6,0-6.5-2.9-6.5-6.5s2.9-6.5,6.5-6.5s6.5,2.9,6.5,6.5S108.8,118.3,105.2,118.3z
				 M105.2,106.3c-3,0-5.5,2.5-5.5,5.5s2.5,5.5,5.5,5.5c3,0,5.5-2.5,5.5-5.5S108.2,106.3,105.2,106.3z"/>
		</g>
		<g>
			<circle class="st7" cx="105.2" cy="111.8" r="2.8"/>
			<path class="st11" d="M105.2,115.2c-1.8,0-3.3-1.5-3.3-3.3s1.5-3.3,3.3-3.3s3.3,1.5,3.3,3.3S107,115.2,105.2,115.2z M105.2,109.5
				c-1.3,0-2.3,1-2.3,2.3s1,2.3,2.3,2.3s2.3-1,2.3-2.3S106.5,109.5,105.2,109.5z"/>
		</g>
	</g>
</g>
</svg>
