<?xml version="1.0" encoding="utf-8"?>
<!-- Generator: Adobe Illustrator 21.0.2, SVG Export Plug-In . SVG Version: 6.00 Build 0)  -->
<svg version="1.1" id="Layer_1" xmlns="http://www.w3.org/2000/svg" xmlns:xlink="http://www.w3.org/1999/xlink" x="0px" y="0px"
	 viewBox="0 0 160 160" style="enable-background:new 0 0 160 160;" xml:space="preserve">
<style type="text/css">
	.st0{fill:none;}
	.st1{fill-rule:evenodd;clip-rule:evenodd;fill:none;}
	.st2{fill:#F1BB46;stroke:#7C878E;stroke-miterlimit:10;}
	.st3{fill:#FFFFFF;stroke:#7B878E;stroke-miterlimit:10;}
	.st4{fill-rule:evenodd;clip-rule:evenodd;fill:#15A3B2;}
	.st5{fill-rule:evenodd;clip-rule:evenodd;fill:#7B878E;}
	.st6{fill-rule:evenodd;clip-rule:evenodd;fill:#F39200;}
	.st7{fill-rule:evenodd;clip-rule:evenodd;fill:#69D2DC;}
	.st8{fill-rule:evenodd;clip-rule:evenodd;fill:#FFFFFF;}
	.st9{fill-rule:evenodd;clip-rule:evenodd;fill:#7C878E;}
	.st10{fill:#FFFFFF;stroke:#7C878E;stroke-miterlimit:10;}
</style>
<title>WesBank Icons v1_aj</title>
<path class="st0" d="M473.6,101.9l-10.4,11.9l-1.4-11.9h-18.1c-6.5,0-11.9-5.3-11.9-11.8c0,0,0,0,0,0V66c0-6.5,5.3-11.8,11.9-11.8
	h30.8c6.5,0,11.8,5.3,11.9,11.8V90c0,6.5-5.3,11.8-11.8,11.8c0,0,0,0,0,0L473.6,101.9z"/>
<path class="st1" d="M114.9,46.3c-0.3-0.2-0.5-0.2-0.9-0.1c-1.7,0.8-3.6,1.3-5.4,1.3c-4,0-7.7-1.8-10.1-4.9c-0.4-0.4-1.1-0.4-1.4,0
	c-2.5,3.1-6.1,4.9-10.1,4.9c-2,0-3.7-0.4-5.4-1.3c-0.3-0.1-0.6-0.1-0.9,0.1c-0.3,0.2-0.4,0.4-0.4,0.7v20c0,8.9,13.2,16.1,17.2,18.1
	c0.2,0.1,0.3,0.1,0.4,0.1c0.1,0,0.3,0,0.4-0.1c4-2,17.2-9.2,17.2-18.1v-20C115.3,46.8,115.1,46.5,114.9,46.3z"/>
<path class="st2" d="M114.9,46.3c-0.3-0.2-0.5-0.2-0.9-0.1c-1.7,0.8-3.6,1.3-5.4,1.3c-4,0-7.7-1.8-10.1-4.9c-0.4-0.4-1.1-0.4-1.4,0
	c-2.5,3.1-6.1,4.9-10.1,4.9c-2,0-3.7-0.4-5.4-1.3c-0.3-0.1-0.6-0.1-0.9,0.1c-0.3,0.2-0.4,0.4-0.4,0.7v20c0,8.9,13.2,16.1,17.2,18.1
	c0.2,0.1,0.3,0.1,0.4,0.1c0.1,0,0.3,0,0.4-0.1c4-2,17.2-9.2,17.2-18.1v-20C115.3,46.8,115.1,46.5,114.9,46.3z"/>
<path class="st1" d="M97.7,71.1c-4.4,0-7.9-3.6-7.9-8c0-4.4,3.6-8,7.9-8c4.4,0,7.9,3.6,7.9,8C105.6,67.5,102.1,71.1,97.7,71.1"/>
<path class="st3" d="M97.7,71.1c-4.4,0-7.9-3.6-7.9-8s3.6-8,7.9-8s7.9,3.6,7.9,8S102.1,71.1,97.7,71.1"/>
<path class="st4" d="M101.5,59.1l-6,6l-1.7-1.7c-0.4-0.4-0.9-0.4-1.2,0c-0.4,0.4-0.4,0.9,0,1.3l2.3,2.3c0.2,0.2,0.4,0.3,0.6,0.3
	s0.4-0.1,0.6-0.3l6.6-6.6c0.4-0.4,0.4-0.9,0-1.3C102.4,58.8,101.9,58.8,101.5,59.1"/>
<path class="st5" d="M107.6,89.5c-1.6-0.3-4.3-0.5-7.6-0.8c-0.6-0.1-4.6-0.7-6.9-2c-0.5-0.3-1.1-0.6-1.8-1c-3-1.8-7.2-4.2-12.3-5.5
	c-6.1-1.6-13.2-1.8-19.6-0.6c-2.8,0.5-6.3,2.2-9.7,3.8c-3.1,1.5-6.1,3-7.9,3.1c0,0,0,0,0,0c-3.1-0.1-4.9-0.1-5-0.1c-1.1,0-2,0.9-2,2
	v12.4c0,1.1,0.9,2,2,2h6.9c0.9,3,3.6,5.3,7,5.3c3.3,0,6.1-2.3,7-5.3h37.8c0.9,3,3.6,5.3,7,5.3c3.3,0,6.1-2.3,7-5.3h6.9
	c1.1,0,2-0.9,2-2v-5.1C118.3,92.7,114.7,90.6,107.6,89.5 M52.6,86.8c2.9-1.7,6.4-3.5,9.2-4c1.9-0.4,4.6-0.6,7.3-0.5l1.5,5.1
	C64.3,87.1,58,86.9,52.6,86.8 M71.6,87.4l-1.5-5.1c2.1,0.1,4.3,0.3,6.3,0.8c4.5,1.1,7.7,3.2,9.4,4.3l0.2,0.1
	c0.2,0.1,0.4,0.3,0.6,0.4C81.8,87.7,76.7,87.5,71.6,87.4"/>
<rect x="34.7" y="78.8" class="st1" width="83.6" height="29.2"/>
<path class="st6" d="M36.7,87.3c0,0,0.1,0,0.2,0l2.3,2.5l-3.7-0.1v-1.3C35.6,87.8,36.1,87.3,36.7,87.3"/>
<path class="st7" d="M94.7,88.4c-2-0.1-4.2-0.2-6.5-0.3c-0.8-0.5-1.4-1-1.8-1.2l-0.2-0.1c-1.8-1.2-5.1-3.4-9.7-4.5
	c-4.9-1.2-11.2-1-14.9-0.3c-3.4,0.6-7.5,2.9-10.7,4.8c-2.3-0.1-4.4-0.1-6.2-0.2c1.6-0.6,3.4-1.5,5.3-2.4c3.3-1.6,6.7-3.3,9.4-3.8
	c6.3-1.2,13.3-0.9,19.2,0.6c5,1.3,9.1,3.7,12.1,5.4c0.7,0.4,1.3,0.7,1.8,1C93.2,87.8,94,88.1,94.7,88.4"/>
<path class="st8" d="M117,94.4h-4.7c-0.5,0-1-0.4-1-1V93c0-0.5,0.4-1,1-1h1.6C115.5,92.7,116.5,93.5,117,94.4"/>
<path class="st7" d="M114.6,98.4c0-0.4,0.4-0.8,0.8-0.8h2v1.6h-2C114.9,99.3,114.6,98.9,114.6,98.4"/>
<path class="st7" d="M109.6,101.9c0-0.3,0.1-0.7,0.1-1c0-0.3,0-0.5-0.1-0.7h7.8v0.6c0,0.6-0.5,1.1-1.1,1.1H109.6z"/>
<path class="st7" d="M57.8,101.9c0-0.3,0.1-0.7,0.1-1c0-4-3.3-7.2-7.3-7.2c-3.5,0-6.4,2.4-7.1,5.6h-8v-8.7L95.2,93
	c-1.8,1.6-3,3.9-3.4,6.3H58.6c-0.2,0-0.4,0.2-0.4,0.4c0,0.2,0.2,0.4,0.4,0.4h33.5c0.2,0,0.4-0.2,0.4-0.4c0.3-2.7,1.8-5.2,4-6.8
	c0.1-0.1,0.2-0.3,0.2-0.5c-0.1-0.2-0.2-0.3-0.4-0.3l-55.9-2.3l-2.3-2.6c7.6,0.2,44.2,1,61.7,2.3c0,0,0.1,0,0.1,0c0,0,0,0,0.1,0
	c0,0,0,0,0,0c3.2,0.2,5.8,0.5,7.4,0.7c1.7,0.3,3.1,0.6,4.4,1c-0.8,0.2-1.3,0.9-1.3,1.7v0.4c0,1,0.8,1.8,1.9,1.8h5
	c0,0.1,0.1,0.3,0.1,0.4v1.1h-2c-0.9,0-1.7,0.8-1.7,1.7c0,0.3,0.1,0.6,0.3,0.8h-4.4c-0.7-3.2-3.6-5.6-7.1-5.6c-4,0-7.3,3.2-7.3,7.2
	c0,0.4,0.1,0.7,0.1,1H57.8z"/>
<path class="st7" d="M35.6,100.8v-0.6h7.8c0,0.2-0.1,0.5-0.1,0.7c0,0.4,0.1,0.7,0.1,1h-6.7C36.1,101.9,35.6,101.4,35.6,100.8"/>
<path class="st9" d="M71.5,92.6c0.2,0,0.4,0.2,0.5,0.4l0,0.6c0,1.4,0.1,2.4,0.2,4.4c0,0.2-0.2,0.4-0.4,0.5h0c-0.2,0-0.4-0.2-0.4-0.4
	c-0.1-2.1-0.2-3.1-0.2-4.5l0-0.6C71,92.8,71.2,92.6,71.5,92.6"/>
<path class="st9" d="M71.5,90.8L71.5,90.8c-0.3,0-0.4-0.2-0.5-0.4c0-0.9-0.1-1-0.1-1.1l0.4-0.1l0.3-0.3c0.2,0.1,0.2,0.2,0.3,1.5
	C71.9,90.5,71.7,90.7,71.5,90.8"/>
<path class="st1" d="M71.6,87.4l-1.5-5.1c2.1,0.1,4.3,0.3,6.3,0.8c4.5,1.1,7.7,3.2,9.4,4.3l0.2,0.1c0.2,0.1,0.4,0.3,0.6,0.4
	C81.8,87.7,76.7,87.5,71.6,87.4"/>
<path class="st1" d="M70.7,87.3c-6.4-0.2-12.7-0.4-18-0.5c2.9-1.7,6.4-3.5,9.2-4c1.9-0.4,4.6-0.6,7.3-0.5L70.7,87.3z"/>
<ellipse class="st10" cx="50.7" cy="101.1" rx="7.2" ry="7.2"/>
<circle class="st10" cx="50.7" cy="101.1" r="3.4"/>
<ellipse class="st10" cx="102.3" cy="101.1" rx="7.2" ry="7.2"/>
<circle class="st10" cx="102.3" cy="101.1" r="3.4"/>
</svg>
