<?xml version="1.0" encoding="utf-8"?>
<svg version="1.1" id="Layer_1" xmlns="http://www.w3.org/2000/svg" xmlns:xlink="http://www.w3.org/1999/xlink" x="0" y="0" viewBox="0 0 220 260" style="enable-background:new 0 0 220 260;" xml:space="preserve">
  <style type="text/css">
    .st0{clip-path:url(#SVGID_2_);} .st1{clip-path:url(#SVGID_4_);fill:#FFFFFF;} .st2{fill:none;stroke:#E2E5E7;stroke-width:2.73;stroke-miterlimit:10;} .st3{fill:none;stroke:#E2E5E7;stroke-width:1.82;stroke-miterlimit:10;} .st4{clip-path:url(#SVGID_6_);} .st5{clip-path:url(#SVGID_8_);} .st6{fill-rule:evenodd;clip-rule:evenodd;fill:#69D2DC;stroke:#7C878E;stroke-miterlimit:10;} .st7{fill-rule:evenodd;clip-rule:evenodd;fill:#FFFFFF;stroke:#7C878E;stroke-miterlimit:10;} .st8{fill-rule:evenodd;clip-rule:evenodd;fill:#F2BC47;stroke:#7C878E;stroke-miterlimit:10;} .st9{fill-rule:evenodd;clip-rule:evenodd;fill:#69D2DC;} .st10{fill:none;stroke:#7C878E;stroke-miterlimit:10;} .st11{fill:#F2BC47;} .st12{fill:#7C878E;} .st13{fill:#F39200;} .st14{fill:none;stroke:#7B878E;stroke-width:1.6813;stroke-miterlimit:10;} .st15{clip-path:url(#SVGID_12_);} .st16{clip-path:url(#SVGID_14_);fill:#FFFFFF;} .st17{fill:none;stroke:#E2E5E7;stroke-width:2;stroke-miterlimit:10;} .st18{clip-path:url(#SVGID_16_);} .st19{clip-path:url(#SVGID_18_);fill:#69D2DC;} .st20{clip-path:url(#SVGID_20_);} .st21{clip-path:url(#SVGID_22_);fill:#F2BC47;} .st22{clip-path:url(#SVGID_24_);} .st23{clip-path:url(#SVGID_26_);fill:#15A3B2;} .st24{clip-path:url(#SVGID_28_);} .st25{clip-path:url(#SVGID_30_);fill:#F39200;} .st26{clip-path:url(#SVGID_32_);} .st27{clip-path:url(#SVGID_34_);fill:#7C878E;} .st28{clip-path:url(#SVGID_36_);} .st29{clip-path:url(#SVGID_38_);fill:#FFFFFF;} .st30{clip-path:url(#SVGID_40_);} .st31{clip-path:url(#SVGID_42_);fill:#FFFFFF;} .st32{clip-path:url(#SVGID_44_);} .st33{clip-path:url(#SVGID_46_);fill:#FFFFFF;} .st34{clip-path:url(#SVGID_48_);} .st35{clip-path:url(#SVGID_50_);fill:#FFFFFF;} .st36{clip-path:url(#SVGID_52_);} .st37{clip-path:url(#SVGID_54_);fill:#FFFFFF;} .st38{fill:none;stroke:#7C878E;stroke-width:1.56;stroke-miterlimit:10;}
  </style>
  <g>
    <defs>
      <path id="SVGID_1_" d="M112.5,179.3c41.3,0,74.9-33.6,74.9-74.7c0-41.2-33.7-74.7-74.9-74.7c-41.3,0-74.9,33.6-74.9,74.7 C37.6,145.8,71.3,179.3,112.5,179.3z"/>
    </defs>
    <clipPath id="SVGID_2_">
      <use xlink:href="#SVGID_1_" style="overflow:visible;"/>
    </clipPath>
    <g class="st0">
      <defs>
        <path id="SVGID_3_" d="M-387.6 -428.5H1052.4V1064.5H-387.6z"/>
      </defs>
      <clipPath id="SVGID_4_">
        <use xlink:href="#SVGID_3_" style="overflow:visible;"/>
      </clipPath>
      <path class="st1" d="M32.6 24.9H192.5V184.4H32.6z"/>
    </g>
  </g>
  <path class="st2" d="M112.5,179.3c41.3,0,74.9-33.6,74.9-74.7c0-41.2-33.7-74.7-74.9-74.7c-41.3,0-74.9,33.6-74.9,74.7	C37.6,145.8,71.3,179.3,112.5,179.3z"/>
  <path class="st3" d="M21.2,104.4c0,50.1,41,90.9,91.2,90.9c50.2,0,91.2-40.9,91.2-90.9c0-50.1-41-90.9-91.2-90.9	C62.2,13.5,21.2,54.4,21.2,104.4"/>
  <g>
    <defs>
      <path id="SVGID_5_" d="M-7.6 217.5H232.4V243.5H-7.6z"/>
    </defs>
    <clipPath id="SVGID_6_">
      <use xlink:href="#SVGID_5_" style="overflow:visible;"/>
    </clipPath>
    <g class="st4">
      <defs>
        <path id="SVGID_7_" d="M-0.6 217.5H225.4V241.5H-0.6z"/>
      </defs>
      <clipPath id="SVGID_8_">
        <use xlink:href="#SVGID_7_" style="overflow:visible;"/>
      </clipPath>
      <g class="st5">
        <defs>
          <path id="SVGID_9_" d="M-7.6 217.5H232.4V243.5H-7.6z"/>
        </defs>
        <clipPath id="SVGID_10_">
          <use xlink:href="#SVGID_9_" style="overflow:visible;"/>
        </clipPath>
        <g transform="matrix(1 0 0 1 -4.768372e-07 0)" style="clip-path:url(#SVGID_10_);"/>
      </g>
    </g>
  </g>
  <g>
    <path class="st6" d="M168.8,100.8c0.2,6.3-3.2,11.4-5.8,14.6c-2.5,3.1-3.2,8.7-3.8,13.1c-0.2,1.2-0.3,2.3-0.5,3.3 c-0.4,2.4-2.9,2.9-4.8,2.9c-1.1,0-1.9-0.2-1.9-0.2l-0.1,0l-0.1,0c-1.1,0-3.1-4.5-4.2-8.7l-0.2-0.6l-0.6,0.3 c-0.1,0-5.2,2.7-12.6,2.7c-1.1,0-2.2-0.1-3.3-0.2c-9.2-1-11.8-1.6-11.9-1.6l-0.5-0.1l-0.1,0.6c0,0-0.6,4.8-3.1,6.8 c-0.7,0.6-1.8,0.8-3.3,0.8c-2.1,0-4.3-0.6-5.2-0.8c0.1-1.3,0.4-5.6,0.4-9.1c0-4.5-3.2-6-3.3-6.1C91.7,113,86.2,104.8,85,99.1 c-0.5-2.7-0.5-4.4,0.1-5.1c0.3-0.3,0.7-0.5,1.5-0.5c0.3,0,0.6,0,1,0c2.7,0.2,6.7-1.8,8.2-5.1c1-2.2,2.3-3.2,3-3.6 c0.1,0.2,0.3,0.3,0.5,0.3l0.3,0l0.1-0.2c0.2-0.3,0.5-0.8,0.3-4c-0.2-4-1.3-6.9-2-8.3c8.7,1.2,13,5.6,13.1,5.6l0.3,0.3l0.3-0.2 c7.1-4.1,13-6.6,20.4-6.6c5,0,10.8,1.2,18,3.8C170.9,83,168.8,100.5,168.8,100.8"/>
    <path class="st7" d="M105.1,96.1c-1.5,0-2.7-1.2-2.7-2.7c0-1.5,1.2-2.7,2.7-2.7c1.5,0,2.7,1.2,2.7,2.7 C107.9,94.9,106.6,96.1,105.1,96.1"/>
    <ellipse transform="matrix(5.682358e-02 -0.9984 0.9984 5.682358e-02 58.812 211.9158)" class="st8" cx="141.6" cy="74.8" rx="8" ry="8"/>
    <ellipse class="st9" cx="138.6" cy="92.1" rx="14.3" ry="13.5"/>
    <path class="st10" d="M131.8 79.6c0 0 9.2-2.5 16.4 2.5M167.9 91.4c0 0 12.8-3.6 12.8.8s-5.9 3.9-6.8 2.2c-.9-1.8-.6-7.5 3-7.5"/>
  </g>
  <g>
    <g>
      <path class="st11" d="M81.1,136.7c-5.3,0-8.6-2.1-8.6-4s3.3-4,8.6-4c5.3,0,8.6,2.1,8.6,4S86.4,136.7,81.1,136.7z"/>
      <path class="st12" d="M81.1,129c4.9,0,8.2,1.9,8.2,3.7c0,1.8-3.3,3.7-8.2,3.7c-4.9,0-8.2-1.9-8.2-3.7 C72.9,130.9,76.2,129,81.1,129 M81.1,128.2c-5,0-8.9,1.9-8.9,4.4c0,2.5,3.9,4.4,8.9,4.4c5,0,8.9-1.9,8.9-4.4 C90,130.2,86.1,128.2,81.1,128.2L81.1,128.2z"/>
    </g>
    <g>
      <path class="st13" d="M81.1,141.6c-5.3,0-8.6-2.1-8.6-4v-3.3l0.6,0.6c0,0,0.1,0.1,0.1,0.1c0.1,0.1,0.3,0.2,0.4,0.3l0.2,0.1 c0.2,0.1,0.4,0.2,0.6,0.4l0.1,0.1c0.2,0.1,0.5,0.2,0.8,0.4c0.1,0,0.2,0.1,0.2,0.1c0.2,0.1,0.4,0.2,0.7,0.2l0.3,0.1 c0.3,0.1,0.6,0.2,0.9,0.2c0.4,0.1,0.8,0.2,1.1,0.2l0.3,0c0.3,0,0.5,0.1,0.8,0.1l0.3,0c0.4,0,0.8,0,1.2,0c0.4,0,0.8,0,1.2,0l0.3,0 c0.3,0,0.6-0.1,0.8-0.1l0.2,0c0.4-0.1,0.8-0.1,1.1-0.2c0.4-0.1,0.7-0.2,1-0.3l0.3-0.1c0.2-0.1,0.4-0.2,0.7-0.2l0.2-0.1 c0.3-0.1,0.5-0.2,0.8-0.4l0.3,0.3l-0.2-0.3c0.2-0.1,0.4-0.2,0.6-0.4l0.1-0.1c0.2-0.1,0.3-0.3,0.5-0.4l0.1-0.1l0.6-0.6l0,0.9v2.5 C89.7,139.5,86.4,141.6,81.1,141.6z"/>
      <path class="st12" d="M89.3,135.1v2.5c0,1.8-3.3,3.7-8.2,3.7c-4.9,0-8.2-1.9-8.2-3.7v-2.5c0,0,0.1,0.1,0.1,0.1 c0.1,0.1,0.3,0.2,0.5,0.4c0.1,0,0.1,0.1,0.2,0.1c0.2,0.1,0.4,0.3,0.6,0.4c0,0,0.1,0,0.1,0.1c0.3,0.1,0.5,0.3,0.8,0.4 c0.1,0,0.2,0.1,0.2,0.1c0.2,0.1,0.4,0.2,0.7,0.2c0.1,0,0.2,0.1,0.3,0.1c0.3,0.1,0.6,0.2,0.9,0.2c0,0,0,0,0.1,0 c0.3,0.1,0.7,0.1,1.1,0.2c0.1,0,0.2,0,0.3,0c0.3,0,0.6,0.1,0.8,0.1c0.1,0,0.2,0,0.3,0c0.4,0,0.8,0,1.2,0c0.4,0,0.8,0,1.2,0 c0.1,0,0.2,0,0.3,0c0.3,0,0.6-0.1,0.8-0.1c0.1,0,0.2,0,0.3,0c0.4-0.1,0.7-0.1,1.1-0.2c0,0,0,0,0.1,0c0.3-0.1,0.6-0.2,0.9-0.2 c0.1,0,0.2-0.1,0.3-0.1c0.2-0.1,0.5-0.2,0.7-0.2c0.1,0,0.2-0.1,0.2-0.1c0.3-0.1,0.6-0.2,0.8-0.4c0,0,0.1,0,0.1-0.1 c0.2-0.1,0.4-0.2,0.6-0.4c0.1,0,0.1-0.1,0.2-0.1c0.2-0.1,0.3-0.2,0.5-0.4C89.2,135.2,89.3,135.2,89.3,135.1 M90,133.3l-1.3,1.2 c0,0-0.1,0.1-0.1,0.1c-0.1,0.1-0.2,0.2-0.4,0.3l0,0c0,0-0.1,0.1-0.1,0.1c-0.2,0.1-0.4,0.2-0.6,0.3l0,0l-0.1,0 c-0.2,0.1-0.5,0.2-0.8,0.4l-0.1,0.1l-0.1,0c-0.2,0.1-0.4,0.2-0.6,0.2l-0.1,0l-0.1,0c-0.3,0.1-0.6,0.2-0.9,0.2l-0.1,0l0,0 c-0.3,0.1-0.7,0.1-1,0.2l-0.1,0c-0.1,0-0.2,0-0.2,0c-0.3,0-0.5,0.1-0.8,0.1l-0.3,0c-0.3,0-0.7,0-1.1,0c-0.4,0-0.8,0-1.1,0l-0.3,0 c-0.3,0-0.5-0.1-0.8-0.1c-0.1,0-0.1,0-0.2,0l-0.1,0c-0.3-0.1-0.7-0.1-1-0.2c0,0,0,0,0,0l0,0l0,0c-0.3-0.1-0.5-0.1-0.9-0.2l-0.1,0 l-0.1,0c-0.2-0.1-0.4-0.1-0.6-0.2c-0.1,0-0.1-0.1-0.2-0.1c-0.3-0.1-0.5-0.2-0.8-0.3l0,0l-0.1,0c-0.2-0.1-0.4-0.2-0.6-0.3 c-0.1,0-0.1-0.1-0.2-0.1c-0.2-0.1-0.3-0.2-0.4-0.3c0,0-0.1-0.1-0.1-0.1l-1.3-1.2l0,1.7v2.5c0,2.5,3.9,4.4,8.9,4.4 c5,0,8.9-1.9,8.9-4.4v-2.5V133.3L90,133.3z"/>
    </g>
  </g>
  <g>
    <path class="st11" d="M87.1,132.2c-5.3,0-8.6-2.1-8.6-4s3.3-4,8.6-4c5.3,0,8.6,2.1,8.6,4S92.4,132.2,87.1,132.2z"/>
    <path class="st12" d="M87.1,124.5c4.9,0,8.2,1.9,8.2,3.7c0,1.8-3.3,3.7-8.2,3.7c-4.9,0-8.2-1.9-8.2-3.7 C78.9,126.4,82.2,124.5,87.1,124.5 M87.1,123.7c-5,0-8.9,1.9-8.9,4.4c0,2.5,3.9,4.4,8.9,4.4c5,0,8.9-1.9,8.9-4.4 C96.1,125.7,92.1,123.7,87.1,123.7L87.1,123.7z"/>
  </g>
  <g>
    <path class="st13" d="M87.1,137.1c-5.3,0-8.6-2.1-8.6-4v-3.3l0.6,0.6c0,0,0.1,0.1,0.1,0.1c0.1,0.1,0.3,0.2,0.4,0.3l0.2,0.1 c0.2,0.1,0.4,0.2,0.6,0.4l0.1,0.1c0.2,0.1,0.5,0.2,0.8,0.4l0.2,0.1c0.2,0.1,0.5,0.2,0.7,0.2l0.3,0.1c0.3,0.1,0.6,0.2,0.9,0.2 c0.4,0.1,0.8,0.2,1.1,0.2l0.3,0c0.3,0,0.5,0.1,0.8,0.1l0.3,0c0.4,0,0.8,0,1.1,0c0.4,0,0.8,0,1.2,0l0.3,0c0.3,0,0.6-0.1,0.8-0.1 l0.2,0c0.4-0.1,0.8-0.1,1.1-0.2c0.4-0.1,0.7-0.2,1-0.3L92,132c0.2-0.1,0.4-0.2,0.7-0.2l0.2-0.1c0.3-0.1,0.5-0.2,0.8-0.4l0.3,0.3 l-0.2-0.3c0.2-0.1,0.4-0.2,0.6-0.4l0.1-0.1c0.2-0.1,0.3-0.3,0.5-0.4l0.1-0.1l0.6-0.6l0,0.9v2.5C95.7,135,92.4,137.1,87.1,137.1z"/>
    <path class="st12" d="M95.3,130.6v2.5c0,1.8-3.3,3.7-8.2,3.7c-4.9,0-8.2-1.9-8.2-3.7v-2.5c0,0,0.1,0.1,0.1,0.1 c0.1,0.1,0.3,0.2,0.5,0.4c0.1,0,0.1,0.1,0.2,0.1c0.2,0.1,0.4,0.3,0.6,0.4c0,0,0.1,0,0.1,0.1c0.3,0.1,0.5,0.3,0.8,0.4 c0.1,0,0.2,0.1,0.2,0.1c0.2,0.1,0.4,0.2,0.7,0.2c0.1,0,0.2,0.1,0.3,0.1c0.3,0.1,0.6,0.2,0.9,0.2c0,0,0,0,0.1,0 c0.3,0.1,0.7,0.1,1.1,0.2c0.1,0,0.2,0,0.3,0c0.3,0,0.6,0.1,0.8,0.1c0.1,0,0.2,0,0.3,0c0.4,0,0.8,0,1.2,0c0.4,0,0.8,0,1.2,0 c0.1,0,0.2,0,0.3,0c0.3,0,0.6-0.1,0.8-0.1c0.1,0,0.2,0,0.3,0c0.4-0.1,0.7-0.1,1.1-0.2c0,0,0,0,0.1,0c0.3-0.1,0.6-0.2,0.9-0.2 c0.1,0,0.2-0.1,0.3-0.1c0.2-0.1,0.5-0.2,0.7-0.2c0.1,0,0.2-0.1,0.2-0.1c0.3-0.1,0.6-0.2,0.8-0.4c0,0,0.1,0,0.1-0.1 c0.2-0.1,0.4-0.2,0.6-0.4c0.1,0,0.1-0.1,0.2-0.1c0.2-0.1,0.3-0.2,0.5-0.4C95.2,130.7,95.3,130.6,95.3,130.6 M96.1,128.8l-1.3,1.2 c0,0-0.1,0.1-0.1,0.1c-0.1,0.1-0.2,0.2-0.4,0.3l0,0c0,0-0.1,0.1-0.1,0.1c-0.2,0.1-0.4,0.2-0.6,0.3l0,0l-0.1,0 c-0.2,0.1-0.5,0.2-0.8,0.4l-0.1,0.1l-0.1,0c-0.2,0.1-0.4,0.2-0.6,0.2l-0.1,0l-0.1,0c-0.3,0.1-0.6,0.2-0.9,0.2l-0.1,0l0,0 c-0.3,0.1-0.7,0.1-1,0.2l-0.1,0c-0.1,0-0.2,0-0.2,0c-0.3,0-0.5,0.1-0.8,0.1l-0.3,0c-0.3,0-0.7,0-1.1,0c-0.4,0-0.8,0-1.1,0l-0.3,0 c-0.3,0-0.5-0.1-0.8-0.1c-0.1,0-0.1,0-0.2,0l-0.1,0c-0.3-0.1-0.7-0.1-1-0.2c0,0,0,0,0,0l0,0l0,0c-0.3-0.1-0.5-0.1-0.9-0.2l-0.1,0 l-0.1,0c-0.2-0.1-0.4-0.1-0.6-0.2c-0.1,0-0.1-0.1-0.2-0.1c-0.3-0.1-0.5-0.2-0.8-0.3l0,0l-0.1,0c-0.2-0.1-0.4-0.2-0.6-0.3 c-0.1,0-0.1-0.1-0.2-0.1c-0.2-0.1-0.3-0.2-0.4-0.3c0,0-0.1-0.1-0.1-0.1l-1.3-1.2l0,1.7v2.5c0,2.5,3.9,4.4,8.9,4.4 c5,0,8.9-1.9,8.9-4.4v-2.5V128.8L96.1,128.8z"/>
  </g>
  <g>
    <path class="st11" d="M85.6,123.2c-5.3,0-8.6-2.1-8.6-4s3.3-4,8.6-4c5.3,0,8.6,2.1,8.6,4S90.9,123.2,85.6,123.2z"/>
    <path class="st12" d="M85.6,115.5c4.9,0,8.2,1.9,8.2,3.7c0,1.8-3.3,3.7-8.2,3.7c-4.9,0-8.2-1.9-8.2-3.7 C77.4,117.4,80.7,115.5,85.6,115.5 M85.6,114.7c-5,0-8.9,1.9-8.9,4.4c0,2.5,3.9,4.4,8.9,4.4c5,0,8.9-1.9,8.9-4.4 C94.5,116.7,90.6,114.7,85.6,114.7L85.6,114.7z"/>
  </g>
  <g>
    <path class="st13" d="M85.6,128.1c-5.3,0-8.6-2.1-8.6-4v-3.3l0.6,0.6c0.1,0,0.1,0.1,0.1,0.1c0.1,0.1,0.3,0.2,0.4,0.3l0.2,0.1 c0.2,0.1,0.4,0.2,0.6,0.4l0.1,0.1c0.2,0.1,0.5,0.2,0.8,0.4l0.2,0.1c0.2,0.1,0.4,0.2,0.7,0.2L81,123c0.3,0.1,0.6,0.2,0.9,0.2 c0.4,0.1,0.8,0.2,1.1,0.2l0.3,0c0.3,0,0.5,0.1,0.8,0.1l0.3,0c0.4,0,0.8,0,1.2,0c0.4,0,0.8,0,1.2,0l0.3,0c0.3,0,0.6-0.1,0.8-0.1 l0.2,0c0.4-0.1,0.8-0.1,1.1-0.2c0.4-0.1,0.7-0.2,1-0.3l0.3-0.1c0.2-0.1,0.4-0.2,0.7-0.2l0.2-0.1c0.3-0.1,0.5-0.2,0.8-0.4l0.3,0.3 l-0.2-0.3c0.2-0.1,0.4-0.2,0.6-0.4l0.1-0.1c0.2-0.1,0.3-0.3,0.5-0.4l0.1-0.1l0.6-0.5l0,0.8v2.5C94.2,126,90.9,128.1,85.6,128.1z"/>
    <path class="st12" d="M93.8,121.6v2.5c0,1.8-3.3,3.7-8.2,3.7c-4.9,0-8.2-1.9-8.2-3.7v-2.5c0,0,0.1,0.1,0.1,0.1 c0.1,0.1,0.3,0.2,0.5,0.4c0.1,0,0.1,0.1,0.2,0.1c0.2,0.1,0.4,0.3,0.6,0.4c0,0,0.1,0,0.1,0.1c0.3,0.1,0.5,0.3,0.8,0.4 c0.1,0,0.2,0.1,0.2,0.1c0.2,0.1,0.4,0.2,0.7,0.2c0.1,0,0.2,0.1,0.3,0.1c0.3,0.1,0.6,0.2,0.9,0.2c0,0,0,0,0.1,0 c0.3,0.1,0.7,0.1,1.1,0.2c0.1,0,0.2,0,0.3,0c0.3,0,0.6,0.1,0.8,0.1c0.1,0,0.2,0,0.3,0c0.4,0,0.8,0,1.2,0c0.4,0,0.8,0,1.2,0 c0.1,0,0.2,0,0.3,0c0.3,0,0.6-0.1,0.8-0.1c0.1,0,0.2,0,0.3,0c0.4-0.1,0.7-0.1,1.1-0.2c0,0,0,0,0.1,0c0.3-0.1,0.6-0.2,0.9-0.2 c0.1,0,0.2-0.1,0.3-0.1c0.2-0.1,0.5-0.2,0.7-0.2c0.1,0,0.2-0.1,0.2-0.1c0.3-0.1,0.6-0.2,0.8-0.4c0,0,0.1,0,0.1-0.1 c0.2-0.1,0.4-0.2,0.6-0.4c0.1,0,0.1-0.1,0.2-0.1c0.2-0.1,0.3-0.2,0.5-0.4C93.7,121.6,93.8,121.6,93.8,121.6 M94.5,119.8l-1.3,1.2 c0,0-0.1,0.1-0.1,0.1c-0.1,0.1-0.2,0.2-0.4,0.3l0,0c0,0-0.1,0.1-0.1,0.1c-0.2,0.1-0.4,0.2-0.6,0.3l0,0l-0.1,0 c-0.2,0.1-0.5,0.2-0.8,0.4l-0.1,0.1l-0.1,0c-0.2,0.1-0.4,0.2-0.6,0.2l-0.1,0l-0.1,0c-0.3,0.1-0.6,0.2-0.9,0.2l-0.1,0l0,0 c-0.3,0.1-0.7,0.1-1,0.2l-0.1,0c-0.1,0-0.2,0-0.2,0c-0.3,0-0.5,0.1-0.8,0.1l-0.3,0c-0.3,0-0.7,0-1.1,0c-0.4,0-0.8,0-1.1,0l-0.3,0 c-0.3,0-0.5-0.1-0.8-0.1c-0.1,0-0.1,0-0.2,0l-0.1,0c-0.3-0.1-0.7-0.1-1-0.2c0,0,0,0,0,0l0,0l0,0c-0.3-0.1-0.5-0.1-0.9-0.2l-0.1,0 l-0.1,0c-0.2-0.1-0.4-0.1-0.6-0.2c-0.1,0-0.1-0.1-0.2-0.1c-0.3-0.1-0.5-0.2-0.8-0.3l0,0l-0.1,0c-0.2-0.1-0.4-0.2-0.6-0.3 c-0.1,0-0.1-0.1-0.2-0.1c-0.2-0.1-0.3-0.2-0.4-0.3c0,0-0.1-0.1-0.1-0.1l-1.3-1.2l0,1.7v2.5c0,2.5,3.9,4.4,8.9,4.4 c5,0,8.9-1.9,8.9-4.4v-2.5V119.8L94.5,119.8z"/>
  </g>
  <g>
    <g>
      <path class="st11" d="M60,136.7c-5.3,0-8.6-2.1-8.6-4s3.3-4,8.6-4c5.3,0,8.6,2.1,8.6,4S65.3,136.7,60,136.7z"/>
      <path class="st12" d="M60,129c4.9,0,8.2,1.9,8.2,3.7c0,1.8-3.3,3.7-8.2,3.7c-4.9,0-8.2-1.9-8.2-3.7C51.8,130.9,55.1,129,60,129 M60,128.2c-5,0-8.9,1.9-8.9,4.4c0,2.5,3.9,4.4,8.9,4.4c5,0,8.9-1.9,8.9-4.4C69,130.2,65,128.2,60,128.2L60,128.2z"/>
    </g>
    <g>
      <path class="st13" d="M60,141.6c-5.3,0-8.6-2.1-8.6-4v-3.3l0.6,0.6c0,0,0.1,0.1,0.1,0.1c0.1,0.1,0.3,0.2,0.4,0.3l0.2,0.1 c0.2,0.1,0.4,0.2,0.6,0.4l0.1,0.1c0.2,0.1,0.5,0.2,0.8,0.4c0.1,0,0.2,0.1,0.2,0.1c0.2,0.1,0.4,0.2,0.7,0.2l0.3,0.1 c0.3,0.1,0.6,0.2,0.9,0.2c0.4,0.1,0.8,0.2,1.1,0.2l0.3,0c0.3,0,0.5,0.1,0.8,0.1l0.3,0c0.4,0,0.8,0,1.2,0c0.4,0,0.8,0,1.2,0l0.3,0 c0.3,0,0.6-0.1,0.8-0.1l0.2,0c0.4-0.1,0.8-0.1,1.1-0.2c0.4-0.1,0.7-0.2,1-0.3l0.3-0.1c0.2-0.1,0.4-0.2,0.7-0.2l0.2-0.1 c0.3-0.1,0.5-0.2,0.8-0.4l0.3,0.3l-0.2-0.3c0.2-0.1,0.4-0.2,0.6-0.4l0.1-0.1c0.2-0.1,0.3-0.3,0.5-0.4l0.1-0.1l0.6-0.6l0,0.9v2.5 C68.6,139.5,65.3,141.6,60,141.6z"/>
      <path class="st12" d="M68.2,135.1v2.5c0,1.8-3.3,3.7-8.2,3.7c-4.9,0-8.2-1.9-8.2-3.7v-2.5c0,0,0.1,0.1,0.1,0.1 c0.1,0.1,0.3,0.2,0.5,0.4c0.1,0,0.1,0.1,0.2,0.1c0.2,0.1,0.4,0.3,0.6,0.4c0,0,0.1,0,0.1,0.1c0.3,0.1,0.5,0.3,0.8,0.4 c0.1,0,0.2,0.1,0.2,0.1c0.2,0.1,0.4,0.2,0.7,0.2c0.1,0,0.2,0.1,0.3,0.1c0.3,0.1,0.6,0.2,0.9,0.2c0,0,0,0,0.1,0 c0.3,0.1,0.7,0.1,1.1,0.2c0.1,0,0.2,0,0.3,0c0.3,0,0.6,0.1,0.8,0.1c0.1,0,0.2,0,0.3,0c0.4,0,0.8,0,1.2,0c0.4,0,0.8,0,1.2,0 c0.1,0,0.2,0,0.3,0c0.3,0,0.6-0.1,0.8-0.1c0.1,0,0.2,0,0.3,0c0.4-0.1,0.7-0.1,1.1-0.2c0,0,0,0,0.1,0c0.3-0.1,0.6-0.2,0.9-0.2 c0.1,0,0.2-0.1,0.3-0.1c0.2-0.1,0.5-0.2,0.7-0.2c0.1,0,0.2-0.1,0.2-0.1c0.3-0.1,0.6-0.2,0.8-0.4c0,0,0.1,0,0.1-0.1 c0.2-0.1,0.4-0.2,0.6-0.4c0.1,0,0.1-0.1,0.2-0.1c0.2-0.1,0.3-0.2,0.5-0.4C68.1,135.2,68.2,135.2,68.2,135.1 M69,133.3l-1.3,1.2 c0,0-0.1,0.1-0.1,0.1c-0.1,0.1-0.2,0.2-0.4,0.3l0,0c0,0-0.1,0.1-0.1,0.1c-0.2,0.1-0.4,0.2-0.6,0.3l0,0l-0.1,0 c-0.2,0.1-0.5,0.2-0.8,0.4l-0.1,0.1l-0.1,0c-0.2,0.1-0.4,0.2-0.6,0.2l-0.1,0l-0.1,0c-0.3,0.1-0.6,0.2-0.9,0.2l-0.1,0l0,0 c-0.3,0.1-0.7,0.1-1,0.2l-0.1,0c-0.1,0-0.2,0-0.2,0c-0.3,0-0.5,0.1-0.8,0.1l-0.3,0c-0.3,0-0.7,0-1.1,0c-0.4,0-0.8,0-1.1,0l-0.3,0 c-0.3,0-0.5-0.1-0.8-0.1c-0.1,0-0.1,0-0.2,0l-0.1,0c-0.3-0.1-0.7-0.1-1-0.2c0,0,0,0,0,0l0,0l0,0c-0.3-0.1-0.5-0.1-0.9-0.2l-0.1,0 l-0.1,0c-0.2-0.1-0.4-0.1-0.6-0.2c-0.1,0-0.1-0.1-0.2-0.1c-0.3-0.1-0.5-0.2-0.8-0.3l0,0l-0.1,0c-0.2-0.1-0.4-0.2-0.6-0.3 c-0.1,0-0.1-0.1-0.1-0.1c-0.2-0.1-0.3-0.2-0.4-0.3c0,0-0.1-0.1-0.1-0.1l-1.3-1.2l0,1.7v2.5c0,2.5,3.9,4.4,8.9,4.4 c5,0,8.9-1.9,8.9-4.4v-2.5V133.3L69,133.3z"/>
    </g>
  </g>
  <g>
    <g>
      <path class="st11" d="M60,132.2c-5.3,0-8.6-2.1-8.6-4s3.3-4,8.6-4c5.3,0,8.6,2.1,8.6,4S65.3,132.2,60,132.2z"/>
      <path class="st12" d="M60,124.5c4.9,0,8.2,1.9,8.2,3.7c0,1.8-3.3,3.7-8.2,3.7c-4.9,0-8.2-1.9-8.2-3.7 C51.8,126.4,55.1,124.5,60,124.5 M60,123.7c-5,0-8.9,1.9-8.9,4.4c0,2.5,3.9,4.4,8.9,4.4c5,0,8.9-1.9,8.9-4.4 C69,125.7,65,123.7,60,123.7L60,123.7z"/>
    </g>
    <g>
      <path class="st13" d="M60,137.1c-5.3,0-8.6-2.1-8.6-4v-3.3l0.6,0.6c0,0,0.1,0.1,0.1,0.1c0.1,0.1,0.3,0.2,0.4,0.3l0.2,0.1 c0.2,0.1,0.4,0.2,0.6,0.4l0.1,0.1c0.2,0.1,0.5,0.2,0.8,0.4l0.2,0.1c0.2,0.1,0.5,0.2,0.7,0.2l0.3,0.1c0.3,0.1,0.6,0.2,0.9,0.2 c0.4,0.1,0.8,0.2,1.1,0.2l0.3,0c0.3,0,0.5,0.1,0.8,0.1l0.3,0c0.4,0,0.8,0,1.1,0c0.4,0,0.8,0,1.2,0l0.3,0c0.3,0,0.6-0.1,0.8-0.1 l0.2,0c0.4-0.1,0.8-0.1,1.1-0.2c0.4-0.1,0.7-0.2,1-0.3l0.3-0.1c0.2-0.1,0.4-0.2,0.7-0.2l0.2-0.1c0.3-0.1,0.5-0.2,0.8-0.4l0.3,0.3 l-0.2-0.3c0.2-0.1,0.4-0.2,0.6-0.4l0.1-0.1c0.2-0.1,0.3-0.3,0.5-0.4l0.1-0.1l0.6-0.6l0,0.9v2.5C68.6,135,65.3,137.1,60,137.1z"/>
      <path class="st12" d="M68.2,130.6v2.5c0,1.8-3.3,3.7-8.2,3.7c-4.9,0-8.2-1.9-8.2-3.7v-2.5c0,0,0.1,0.1,0.1,0.1 c0.1,0.1,0.3,0.2,0.5,0.4c0.1,0,0.1,0.1,0.2,0.1c0.2,0.1,0.4,0.3,0.6,0.4c0,0,0.1,0,0.1,0.1c0.3,0.1,0.5,0.3,0.8,0.4 c0.1,0,0.2,0.1,0.2,0.1c0.2,0.1,0.4,0.2,0.7,0.2c0.1,0,0.2,0.1,0.3,0.1c0.3,0.1,0.6,0.2,0.9,0.2c0,0,0,0,0.1,0 c0.3,0.1,0.7,0.1,1.1,0.2c0.1,0,0.2,0,0.3,0c0.3,0,0.6,0.1,0.8,0.1c0.1,0,0.2,0,0.3,0c0.4,0,0.8,0,1.2,0c0.4,0,0.8,0,1.2,0 c0.1,0,0.2,0,0.3,0c0.3,0,0.6-0.1,0.8-0.1c0.1,0,0.2,0,0.3,0c0.4-0.1,0.7-0.1,1.1-0.2c0,0,0,0,0.1,0c0.3-0.1,0.6-0.2,0.9-0.2 c0.1,0,0.2-0.1,0.3-0.1c0.2-0.1,0.5-0.2,0.7-0.2c0.1,0,0.2-0.1,0.2-0.1c0.3-0.1,0.6-0.2,0.8-0.4c0,0,0.1,0,0.1-0.1 c0.2-0.1,0.4-0.2,0.6-0.4c0.1,0,0.1-0.1,0.2-0.1c0.2-0.1,0.3-0.2,0.5-0.4C68.1,130.7,68.2,130.6,68.2,130.6 M69,128.8l-1.3,1.2 c0,0-0.1,0.1-0.1,0.1c-0.1,0.1-0.2,0.2-0.4,0.3l0,0c0,0-0.1,0.1-0.1,0.1c-0.2,0.1-0.4,0.2-0.6,0.3l0,0l-0.1,0 c-0.2,0.1-0.5,0.2-0.8,0.4l-0.1,0.1l-0.1,0c-0.2,0.1-0.4,0.2-0.6,0.2l-0.1,0l-0.1,0c-0.3,0.1-0.6,0.2-0.9,0.2l-0.1,0l0,0 c-0.3,0.1-0.7,0.1-1,0.2l-0.1,0c-0.1,0-0.2,0-0.2,0c-0.3,0-0.5,0.1-0.8,0.1l-0.3,0c-0.3,0-0.7,0-1.1,0c-0.4,0-0.8,0-1.1,0l-0.3,0 c-0.3,0-0.5-0.1-0.8-0.1c-0.1,0-0.1,0-0.2,0l-0.1,0c-0.3-0.1-0.7-0.1-1-0.2c0,0,0,0,0,0l0,0l0,0c-0.3-0.1-0.5-0.1-0.9-0.2l-0.1,0 l-0.1,0c-0.2-0.1-0.4-0.1-0.6-0.2c-0.1,0-0.1-0.1-0.2-0.1c-0.3-0.1-0.5-0.2-0.8-0.3l0,0l-0.1,0c-0.2-0.1-0.4-0.2-0.6-0.3 c-0.1,0-0.1-0.1-0.1-0.1c-0.2-0.1-0.3-0.2-0.4-0.3c0,0-0.1-0.1-0.1-0.1l-1.3-1.2l0,1.7v2.5c0,2.5,3.9,4.4,8.9,4.4 c5,0,8.9-1.9,8.9-4.4v-2.5V128.8L69,128.8z"/>
    </g>
  </g>
  <g>
    <g>
      <path class="st11" d="M60,127.7c-5.3,0-8.6-2.1-8.6-4s3.3-4,8.6-4c5.3,0,8.6,2.1,8.6,4S65.3,127.7,60,127.7z"/>
      <path class="st12" d="M60,120c4.9,0,8.2,1.9,8.2,3.7c0,1.8-3.3,3.7-8.2,3.7c-4.9,0-8.2-1.9-8.2-3.7C51.8,121.9,55.1,120,60,120 M60,119.2c-5,0-8.9,1.9-8.9,4.4c0,2.5,3.9,4.4,8.9,4.4c5,0,8.9-1.9,8.9-4.4C69,121.2,65,119.2,60,119.2L60,119.2z"/>
    </g>
    <g>
      <path class="st13" d="M60,132.6c-5.3,0-8.6-2.1-8.6-4v-3.3l0.6,0.6c0.1,0,0.1,0.1,0.1,0.1c0.1,0.1,0.3,0.2,0.4,0.3l0.2,0.1 c0.2,0.1,0.4,0.2,0.6,0.4l0.1,0.1c0.2,0.1,0.5,0.2,0.8,0.4c0.1,0,0.2,0.1,0.2,0.1c0.2,0.1,0.4,0.2,0.7,0.2l0.3,0.1 c0.3,0.1,0.6,0.2,0.9,0.2c0.4,0.1,0.8,0.2,1.1,0.2l0.3,0c0.3,0,0.5,0.1,0.8,0.1l0.3,0c0.4,0,0.8,0,1.1,0c0.4,0,0.8,0,1.2,0l0.2,0 c0.4,0,0.6-0.1,0.9-0.1l0.2,0c0.4-0.1,0.8-0.1,1.1-0.2c0.4-0.1,0.7-0.2,1-0.3l0.3-0.1c0.2-0.1,0.4-0.2,0.7-0.2l0.2-0.1 c0.3-0.1,0.5-0.2,0.8-0.4l0.3,0.3l-0.2-0.3c0.2-0.1,0.4-0.2,0.6-0.4l0.1-0.1c0.2-0.1,0.3-0.3,0.5-0.4l0.1-0.1l0.6-0.6l0,0.9v2.5 C68.6,130.5,65.3,132.6,60,132.6z"/>
      <path class="st12" d="M68.2,126.1v2.5c0,1.8-3.3,3.7-8.2,3.7c-4.9,0-8.2-1.9-8.2-3.7v-2.5c0,0,0.1,0.1,0.1,0.1 c0.1,0.1,0.3,0.2,0.5,0.4c0.1,0,0.1,0.1,0.2,0.1c0.2,0.1,0.4,0.3,0.6,0.4c0,0,0.1,0,0.1,0.1c0.3,0.1,0.5,0.3,0.8,0.4 c0.1,0,0.2,0.1,0.2,0.1c0.2,0.1,0.4,0.2,0.7,0.2c0.1,0,0.2,0.1,0.3,0.1c0.3,0.1,0.6,0.2,0.9,0.2c0,0,0,0,0.1,0 c0.3,0.1,0.7,0.1,1.1,0.2c0.1,0,0.2,0,0.3,0c0.3,0,0.6,0.1,0.8,0.1c0.1,0,0.2,0,0.3,0c0.4,0,0.8,0,1.2,0c0.4,0,0.8,0,1.2,0 c0.1,0,0.2,0,0.3,0c0.3,0,0.6-0.1,0.8-0.1c0.1,0,0.2,0,0.3,0c0.4-0.1,0.7-0.1,1.1-0.2c0,0,0,0,0.1,0c0.3-0.1,0.6-0.2,0.9-0.2 c0.1,0,0.2-0.1,0.3-0.1c0.2-0.1,0.5-0.2,0.7-0.2c0.1,0,0.2-0.1,0.2-0.1c0.3-0.1,0.6-0.2,0.8-0.4c0,0,0.1,0,0.1-0.1 c0.2-0.1,0.4-0.2,0.6-0.4c0.1,0,0.1-0.1,0.2-0.1c0.2-0.1,0.3-0.2,0.5-0.4C68.1,126.2,68.2,126.1,68.2,126.1 M69,124.3l-1.3,1.2 c0,0-0.1,0.1-0.1,0.1c-0.1,0.1-0.2,0.2-0.4,0.3l0,0c0,0-0.1,0.1-0.1,0.1c-0.2,0.1-0.4,0.2-0.6,0.3l0,0l-0.1,0 c-0.2,0.1-0.5,0.2-0.8,0.4l-0.1,0.1l-0.1,0c-0.2,0.1-0.4,0.2-0.6,0.2l-0.1,0l-0.1,0c-0.3,0.1-0.6,0.2-0.9,0.2l-0.1,0l0,0 c-0.3,0.1-0.7,0.1-1,0.2l-0.1,0c-0.1,0-0.2,0-0.2,0c-0.3,0-0.5,0.1-0.8,0.1l-0.3,0c-0.3,0-0.7,0-1.1,0c-0.4,0-0.8,0-1.1,0l-0.3,0 c-0.3,0-0.5-0.1-0.8-0.1c-0.1,0-0.1,0-0.2,0l-0.1,0c-0.3-0.1-0.7-0.1-1-0.2c0,0,0,0,0,0l0,0l0,0c-0.3-0.1-0.5-0.1-0.9-0.2l-0.1,0 l-0.1,0c-0.2-0.1-0.4-0.1-0.6-0.2c-0.1,0-0.1-0.1-0.2-0.1c-0.3-0.1-0.5-0.2-0.8-0.3l0,0l-0.1,0c-0.2-0.1-0.4-0.2-0.6-0.3 c-0.1,0-0.1-0.1-0.1-0.1c-0.2-0.1-0.3-0.2-0.4-0.3c0,0-0.1-0.1-0.1-0.1l-1.3-1.2l0,1.7v2.5c0,2.5,3.9,4.4,8.9,4.4 c5,0,8.9-1.9,8.9-4.4v-2.5V124.3L69,124.3z"/>
    </g>
  </g>
  <g>
    <g>
      <path class="st11" d="M60,123.2c-5.3,0-8.6-2.1-8.6-4s3.3-4,8.6-4c5.3,0,8.6,2.1,8.6,4S65.3,123.2,60,123.2z"/>
      <path class="st12" d="M60,115.5c4.9,0,8.2,1.9,8.2,3.7c0,1.8-3.3,3.7-8.2,3.7c-4.9,0-8.2-1.9-8.2-3.7 C51.8,117.4,55.1,115.5,60,115.5 M60,114.7c-5,0-8.9,1.9-8.9,4.4c0,2.5,3.9,4.4,8.9,4.4c5,0,8.9-1.9,8.9-4.4 C69,116.7,65,114.7,60,114.7L60,114.7z"/>
    </g>
    <g>
      <path class="st13" d="M60,128.1c-5.3,0-8.6-2.1-8.6-4v-3.3l0.6,0.6c0.1,0,0.1,0.1,0.1,0.1c0.1,0.1,0.3,0.2,0.4,0.3l0.2,0.1 c0.2,0.1,0.4,0.2,0.6,0.4l0.1,0.1c0.2,0.1,0.5,0.2,0.8,0.4c0.1,0,0.2,0.1,0.2,0.1c0.2,0.1,0.4,0.2,0.7,0.2l0.3,0.1 c0.3,0.1,0.6,0.2,0.9,0.2c0.4,0.1,0.8,0.2,1.1,0.2l0.3,0c0.3,0,0.5,0.1,0.8,0.1l0.3,0c0.4,0,0.8,0,1.2,0c0.4,0,0.8,0,1.2,0l0.3,0 c0.3,0,0.6-0.1,0.8-0.1l0.2,0c0.4-0.1,0.8-0.1,1.1-0.2c0.4-0.1,0.7-0.2,1-0.3l0.3-0.1c0.2-0.1,0.4-0.2,0.7-0.2l0.2-0.1 c0.3-0.1,0.5-0.2,0.8-0.4l0.3,0.3l-0.2-0.3c0.2-0.1,0.4-0.2,0.6-0.4l0.1-0.1c0.2-0.1,0.4-0.3,0.5-0.4l0.1-0.1l0.6-0.6l0,0.9v2.5 C68.6,126,65.3,128.1,60,128.1z"/>
      <path class="st12" d="M68.2,121.6v2.5c0,1.8-3.3,3.7-8.2,3.7c-4.9,0-8.2-1.9-8.2-3.7v-2.5c0,0,0.1,0.1,0.1,0.1 c0.1,0.1,0.3,0.2,0.5,0.4c0.1,0,0.1,0.1,0.2,0.1c0.2,0.1,0.4,0.3,0.6,0.4c0,0,0.1,0,0.1,0.1c0.3,0.1,0.5,0.3,0.8,0.4 c0.1,0,0.2,0.1,0.2,0.1c0.2,0.1,0.4,0.2,0.7,0.2c0.1,0,0.2,0.1,0.3,0.1c0.3,0.1,0.6,0.2,0.9,0.2c0,0,0,0,0.1,0 c0.3,0.1,0.7,0.1,1.1,0.2c0.1,0,0.2,0,0.3,0c0.3,0,0.6,0.1,0.8,0.1c0.1,0,0.2,0,0.3,0c0.4,0,0.8,0,1.2,0c0.4,0,0.8,0,1.2,0 c0.1,0,0.2,0,0.3,0c0.3,0,0.6-0.1,0.8-0.1c0.1,0,0.2,0,0.3,0c0.4-0.1,0.7-0.1,1.1-0.2c0,0,0,0,0.1,0c0.3-0.1,0.6-0.2,0.9-0.2 c0.1,0,0.2-0.1,0.3-0.1c0.2-0.1,0.5-0.2,0.7-0.2c0.1,0,0.2-0.1,0.2-0.1c0.3-0.1,0.6-0.2,0.8-0.4c0,0,0.1,0,0.1-0.1 c0.2-0.1,0.4-0.2,0.6-0.4c0.1,0,0.1-0.1,0.2-0.1c0.2-0.1,0.3-0.2,0.5-0.4C68.1,121.6,68.2,121.6,68.2,121.6 M69,119.8l-1.3,1.2 c0,0-0.1,0.1-0.1,0.1c-0.1,0.1-0.2,0.2-0.4,0.3l0,0c0,0-0.1,0.1-0.1,0.1c-0.2,0.1-0.4,0.2-0.6,0.3l0,0l-0.1,0 c-0.2,0.1-0.5,0.2-0.8,0.4l-0.1,0.1l-0.1,0c-0.2,0.1-0.4,0.2-0.6,0.2l-0.1,0l-0.1,0c-0.3,0.1-0.6,0.2-0.9,0.2l-0.1,0l0,0 c-0.3,0.1-0.7,0.1-1,0.2l-0.1,0c-0.1,0-0.2,0-0.2,0c-0.3,0-0.5,0.1-0.8,0.1l-0.3,0c-0.3,0-0.7,0-1.1,0c-0.4,0-0.8,0-1.1,0l-0.3,0 c-0.3,0-0.5-0.1-0.8-0.1c-0.1,0-0.1,0-0.2,0l-0.1,0c-0.3-0.1-0.7-0.1-1-0.2c0,0,0,0,0,0l0,0l0,0c-0.3-0.1-0.5-0.1-0.9-0.2l-0.1,0 l-0.1,0c-0.2-0.1-0.4-0.1-0.6-0.2c-0.1,0-0.1-0.1-0.2-0.1c-0.3-0.1-0.5-0.2-0.8-0.3l0,0l-0.1,0c-0.2-0.1-0.4-0.2-0.6-0.3 c-0.1,0-0.1-0.1-0.1-0.1c-0.2-0.1-0.3-0.2-0.4-0.3c0,0-0.1-0.1-0.1-0.1l-1.3-1.2l0,1.7v2.5c0,2.5,3.9,4.4,8.9,4.4 c5,0,8.9-1.9,8.9-4.4v-2.5V119.8L69,119.8z"/>
    </g>
  </g>
  <g>
    <g>
      <path class="st11" d="M144.5,40.9c-1.2,0-2.1-0.4-2.6-1c-1.1-1.6,0.5-5.2,4.8-8.1c2.3-1.6,4.8-2.5,6.8-2.5c1.2,0,2.1,0.4,2.6,1 c1.1,1.6-0.5,5.2-4.8,8.1C148.9,40,146.5,40.9,144.5,40.9z"/>
      <path class="st12" d="M153.5,29.6c1.1,0,1.9,0.3,2.3,0.9c1,1.5-0.7,4.9-4.7,7.6c-2.5,1.7-4.8,2.4-6.6,2.4c-1.1,0-1.9-0.3-2.3-0.9 c-1-1.5,0.7-4.9,4.7-7.6C149.4,30.4,151.8,29.6,153.5,29.6 M153.5,28.9c-2,0-4.6,0.9-7,2.6c-2,1.3-3.6,2.9-4.5,4.5 c-0.9,1.6-1.1,3.1-0.4,4.1c0.5,0.8,1.6,1.2,2.9,1.2c2,0,4.6-0.9,7-2.6c4.2-2.8,6.3-6.6,4.9-8.7C155.9,29.3,154.9,28.9,153.5,28.9 L153.5,28.9z"/>
    </g>
    <g>
      <path class="st13" d="M147.3,45c-1.2,0-2.1-0.4-2.6-1l-1.9-2.8l0.9,0.1c0.1,0,0.1,0,0.1,0c0.2,0,0.3,0,0.5,0l0.2,0 c0.3,0,0.5,0,0.7,0l0.1,0c0.3,0,0.6-0.1,0.8-0.1l0.2-0.1c0.2-0.1,0.5-0.1,0.7-0.2l0.3-0.1c0.3-0.1,0.6-0.2,0.9-0.3 c0.4-0.2,0.7-0.3,1-0.4l0.3-0.1c0.2-0.1,0.5-0.2,0.7-0.4l0.3-0.2c0.3-0.2,0.6-0.4,1-0.6c0.3-0.2,0.6-0.4,0.9-0.7l0.3-0.2 c0.2-0.2,0.4-0.4,0.6-0.5l0.2-0.1c0.3-0.3,0.6-0.5,0.8-0.8c0.3-0.3,0.5-0.5,0.7-0.7l0.2-0.2c0.1-0.2,0.3-0.4,0.4-0.6l0.1-0.2 c0.2-0.2,0.3-0.5,0.4-0.7l0.4,0.1l-0.3-0.2c0.1-0.2,0.2-0.4,0.3-0.6l0.1-0.2c0.1-0.2,0.1-0.4,0.2-0.6l0-0.1l0.2-0.9l0.5,0.7 l1.4,2.1c0.6,0.9,0.4,2.2-0.5,3.7c-0.9,1.5-2.5,3.1-4.4,4.4C151.7,44.1,149.2,45,147.3,45z"/>
      <path class="st12" d="M157.2,32.6l1.4,2.1c1,1.5-0.7,4.9-4.7,7.6c-2.5,1.7-4.8,2.4-6.5,2.4c-1.1,0-1.9-0.3-2.3-0.9l-1.4-2.1 c0,0,0.1,0,0.1,0c0.2,0,0.4,0,0.6,0c0.1,0,0.1,0,0.2,0c0,0,0,0,0,0c0,0,0,0,0,0c0.2,0,0.5,0,0.7,0c0,0,0.1,0,0.1,0 c0.3,0,0.6-0.1,0.9-0.1c0.1,0,0.2,0,0.2-0.1c0.2-0.1,0.5-0.1,0.7-0.2c0.1,0,0.2-0.1,0.3-0.1c0.3-0.1,0.6-0.2,0.9-0.3 c0,0,0,0,0.1,0c0.3-0.1,0.7-0.3,1-0.4c0.1,0,0.2-0.1,0.3-0.1c0.2-0.1,0.5-0.3,0.7-0.4c0.1-0.1,0.2-0.1,0.3-0.2 c0.3-0.2,0.7-0.4,1-0.6c0.3-0.2,0.6-0.5,1-0.7c0.1-0.1,0.2-0.1,0.3-0.2c0.2-0.2,0.4-0.4,0.6-0.5c0.1-0.1,0.2-0.1,0.2-0.2 c0.3-0.2,0.5-0.5,0.8-0.7c0,0,0,0,0-0.1c0.2-0.2,0.4-0.5,0.6-0.7c0.1-0.1,0.1-0.2,0.2-0.2c0.2-0.2,0.3-0.4,0.4-0.6 c0-0.1,0.1-0.1,0.1-0.2c0.2-0.3,0.3-0.5,0.5-0.8c0,0,0-0.1,0-0.1c0.1-0.2,0.2-0.4,0.3-0.7c0-0.1,0.1-0.1,0.1-0.2 c0.1-0.2,0.1-0.4,0.2-0.5C157.1,32.6,157.2,32.6,157.2,32.6 M156.8,30.7l-0.4,1.7c0,0.1,0,0.1,0,0.2c0,0.1-0.1,0.3-0.1,0.5l0,0.1 c0,0,0,0.1-0.1,0.1c-0.1,0.2-0.2,0.4-0.3,0.6l0,0l0,0.1c-0.1,0.2-0.3,0.5-0.4,0.7l-0.1,0.1l0,0.1c-0.1,0.2-0.3,0.4-0.4,0.5 l-0.1,0.1l-0.1,0.1c-0.2,0.2-0.4,0.5-0.6,0.7l0,0l0,0c-0.2,0.3-0.5,0.5-0.7,0.7l-0.1,0c-0.1,0.1-0.1,0.1-0.2,0.2 c-0.2,0.2-0.4,0.3-0.6,0.5l-0.3,0.2c-0.2,0.2-0.6,0.4-0.9,0.7c-0.3,0.2-0.7,0.4-1,0.6l-0.3,0.2c-0.2,0.1-0.5,0.3-0.7,0.4 c-0.1,0-0.1,0.1-0.2,0.1l-0.1,0c-0.3,0.1-0.6,0.3-0.9,0.4c0,0,0,0,0,0l0,0l0,0c-0.3,0.1-0.5,0.2-0.8,0.3l-0.1,0l-0.1,0 c-0.2,0.1-0.4,0.1-0.6,0.2c-0.1,0-0.1,0-0.2,0c-0.3,0.1-0.6,0.1-0.8,0.1l0,0l-0.1,0c-0.2,0-0.4,0-0.6,0l-0.1,0l-0.1,0 c-0.2,0-0.4,0-0.5,0c0,0-0.1,0-0.1,0l-1.7-0.3l1,1.4l1.4,2.1c0.5,0.8,1.6,1.2,2.9,1.2c2,0,4.6-0.9,7-2.6c4.2-2.8,6.3-6.6,4.9-8.7 l-1.4-2.1L156.8,30.7L156.8,30.7z"/>
    </g>
  </g>
  <g>
    <g>
      <path class="st11" d="M138.9,60.3c-1.9,0-4.7-2-7-4.9c-1.4-1.8-2.5-3.8-2.9-5.4c-0.5-1.7-0.3-2.9,0.4-3.5c0.3-0.2,0.7-0.4,1.1-0.4 c1.9,0,4.7,2,7,4.9c1.4,1.8,2.5,3.8,2.9,5.4c0.5,1.7,0.3,2.9-0.4,3.5C139.7,60.2,139.4,60.3,138.9,60.3L138.9,60.3z"/>
      <path class="st12" d="M130.6,46.5c1.6,0,4.2,1.6,6.7,4.7c3,3.9,3.8,7.5,2.6,8.4c-0.2,0.2-0.5,0.3-0.9,0.3c-1.6,0-4.2-1.6-6.7-4.7 c-3-3.9-3.8-7.5-2.6-8.4C129.9,46.6,130.2,46.5,130.6,46.5 M130.6,45.7c-0.5,0-1,0.1-1.4,0.4c-1.7,1.4-0.7,5.5,2.4,9.5 c2.4,3.1,5.2,5,7.3,5c0.5,0,1-0.1,1.4-0.4c0.9-0.7,1.1-2.1,0.6-3.9c-0.5-1.7-1.5-3.7-3-5.6C135.4,47.7,132.6,45.7,130.6,45.7 L130.6,45.7z"/>
    </g>
    <g>
      <path class="st13" d="M135.5,62.9c-1.9,0-4.7-2-7-4.9c-2.9-3.7-4-7.7-2.5-8.9l2.3-1.8l0,0.8c0,0.1,0,0.1,0,0.1c0,0.2,0,0.3,0,0.5 l0,0.2c0,0.2,0.1,0.4,0.1,0.7l0,0.1c0.1,0.3,0.1,0.5,0.2,0.8l0.1,0.2c0.1,0.2,0.2,0.4,0.3,0.7l0.1,0.3c0.1,0.3,0.2,0.6,0.4,0.8 c0.2,0.4,0.4,0.7,0.5,1l0.2,0.3c0.1,0.2,0.3,0.5,0.4,0.7l0.2,0.3c0.2,0.3,0.4,0.6,0.7,0.9c0.2,0.3,0.5,0.6,0.7,0.9l0.2,0.2 c0.2,0.2,0.4,0.4,0.6,0.6l0.1,0.2c0.3,0.3,0.6,0.6,0.8,0.8c0.3,0.3,0.5,0.4,0.8,0.6l0.2,0.2c0.2,0.1,0.4,0.3,0.6,0.4l0.2,0.1 c0.2,0.1,0.5,0.3,0.7,0.4l-0.1,0.4l0.2-0.3c0.2,0.1,0.4,0.2,0.6,0.3l0.2,0.1c0.2,0.1,0.4,0.1,0.5,0.2l0.8,0.2l-0.6,0.5l-1.7,1.3 C136.4,62.8,136,62.9,135.5,62.9z"/>
      <path class="st12" d="M128,48.1c0,0,0,0.1,0,0.1c0,0.2,0,0.4,0,0.6c0,0.1,0,0.2,0,0.2c0,0.2,0.1,0.5,0.1,0.7c0,0,0,0.1,0,0.1 c0.1,0.3,0.1,0.6,0.2,0.8c0,0.1,0.1,0.2,0.1,0.2c0.1,0.2,0.2,0.4,0.3,0.7c0,0.1,0.1,0.2,0.1,0.3c0.1,0.3,0.3,0.6,0.4,0.8 c0,0,0,0,0,0.1c0.2,0.3,0.3,0.6,0.5,0.9c0.1,0.1,0.1,0.2,0.2,0.3c0.1,0.2,0.3,0.5,0.5,0.7c0.1,0.1,0.1,0.2,0.2,0.3 c0.2,0.3,0.5,0.6,0.7,0.9c0.2,0.3,0.5,0.6,0.8,0.9c0.1,0.1,0.1,0.2,0.2,0.2c0.2,0.2,0.4,0.4,0.6,0.6c0.1,0.1,0.1,0.2,0.2,0.2 c0.3,0.3,0.5,0.5,0.8,0.7c0,0,0,0,0.1,0c0.2,0.2,0.5,0.4,0.7,0.6c0.1,0.1,0.2,0.1,0.2,0.2c0.2,0.1,0.4,0.3,0.6,0.4 c0.1,0,0.1,0.1,0.2,0.1c0.3,0.2,0.5,0.3,0.8,0.4c0,0,0.1,0,0.1,0c0.2,0.1,0.4,0.2,0.6,0.3c0.1,0,0.1,0.1,0.2,0.1 c0.2,0.1,0.4,0.1,0.5,0.2c0,0,0.1,0,0.1,0l-1.7,1.3c-0.2,0.2-0.5,0.3-0.9,0.3c-1.6,0-4.2-1.6-6.7-4.7c-3-3.9-3.8-7.5-2.5-8.4 L128,48.1 M128.8,46.5l-1.2,1l-1.7,1.3c-0.9,0.7-1.1,2.1-0.6,3.9c0.5,1.7,1.5,3.7,3,5.6c2.4,3.1,5.2,5,7.3,5c0.5,0,1-0.1,1.4-0.4 l1.7-1.3l1.3-1l-1.6-0.3c0,0-0.1,0-0.1,0c-0.1,0-0.3-0.1-0.4-0.1l0,0c0,0-0.1,0-0.1-0.1c-0.2-0.1-0.4-0.2-0.6-0.3l0,0l-0.1,0 c-0.2-0.1-0.4-0.2-0.7-0.4l-0.1-0.1l-0.1,0c-0.2-0.1-0.4-0.2-0.6-0.4l-0.1-0.1l-0.1-0.1c-0.2-0.2-0.5-0.4-0.7-0.6l0,0l0,0 c-0.3-0.2-0.5-0.5-0.8-0.7l-0.1-0.1l-0.2-0.2c-0.2-0.2-0.4-0.4-0.6-0.6l-0.2-0.2c-0.2-0.3-0.5-0.6-0.7-0.9 c-0.2-0.3-0.5-0.6-0.7-0.9l-0.2-0.3c-0.2-0.2-0.3-0.5-0.4-0.7c0-0.1-0.1-0.1-0.1-0.2l0-0.1c-0.2-0.3-0.3-0.6-0.5-0.9l0,0l0,0 c-0.1-0.3-0.3-0.5-0.4-0.8l-0.1-0.1l-0.1-0.1c-0.1-0.2-0.2-0.4-0.2-0.6c0-0.1-0.1-0.1-0.1-0.2c-0.1-0.3-0.2-0.6-0.2-0.8l0,0l0-0.1 c-0.1-0.2-0.1-0.4-0.1-0.6c0-0.1,0-0.1,0-0.2c0-0.2,0-0.4,0-0.5c0,0,0-0.1,0-0.1L128.8,46.5L128.8,46.5z"/>
    </g>
  </g>
  <path class="st14" d="M158,128.2c-4.9,0.3-9.7,0.6-14.4,0.9"/>
  <g>
    <defs>
      <path id="SVGID_11_" d="M142.6,137c0,12.4,10.1,22.5,22.5,22.5c12.4,0,22.5-10.1,22.5-22.5c0-12.4-10.1-22.5-22.5-22.5 C152.7,114.5,142.6,124.6,142.6,137"/>
    </defs>
    <clipPath id="SVGID_12_">
      <use xlink:href="#SVGID_11_" style="overflow:visible;"/>
    </clipPath>
    <g class="st15">
      <defs>
        <path id="SVGID_13_" d="M-387.6 -428.5H1052.4V1064.5H-387.6z"/>
      </defs>
      <clipPath id="SVGID_14_">
        <use xlink:href="#SVGID_13_" style="overflow:visible;"/>
      </clipPath>
      <path class="st16" d="M137.6 109.5H192.6V164.5H137.6z"/>
    </g>
  </g>
  <path class="st17" d="M142.6,137c0,12.4,10.1,22.5,22.5,22.5c12.4,0,22.5-10.1,22.5-22.5c0-12.4-10.1-22.5-22.5-22.5	C152.7,114.5,142.6,124.6,142.6,137z"/>
  <g>
    <defs>
      <path id="SVGID_15_" d="M163.8,137h-10.4c-0.9,0-1.6-0.7-1.6-1.6v-10.6c0-0.9,0.7-1.6,1.6-1.6h10.4c0.9,0,1.6,0.7,1.6,1.6v10.6 C165.4,136.3,164.7,137,163.8,137"/>
    </defs>
    <clipPath id="SVGID_16_">
      <use xlink:href="#SVGID_15_" style="overflow:visible;"/>
    </clipPath>
    <g class="st18">
      <defs>
        <path id="SVGID_17_" d="M-387.6 -428.5H1052.4V1064.5H-387.6z"/>
      </defs>
      <clipPath id="SVGID_18_">
        <use xlink:href="#SVGID_17_" style="overflow:visible;"/>
      </clipPath>
      <path class="st19" d="M146.8 118.2H170.4V142.1H146.8z"/>
    </g>
  </g>
  <g>
    <defs>
      <path id="SVGID_19_" d="M177.4,137h-10.4c-0.9,0-1.6-0.7-1.6-1.6v-10.6c0-0.9,0.7-1.6,1.6-1.6h10.4c0.9,0,1.6,0.7,1.6,1.6v10.6 C179.1,136.3,178.3,137,177.4,137"/>
    </defs>
    <clipPath id="SVGID_20_">
      <use xlink:href="#SVGID_19_" style="overflow:visible;"/>
    </clipPath>
    <g class="st20">
      <defs>
        <path id="SVGID_21_" d="M-387.6 -428.5H1052.4V1064.5H-387.6z"/>
      </defs>
      <clipPath id="SVGID_22_">
        <use xlink:href="#SVGID_21_" style="overflow:visible;"/>
      </clipPath>
      <path class="st21" d="M160.4 118.2H184V142.1H160.4z"/>
    </g>
  </g>
  <g>
    <defs>
      <path id="SVGID_23_" d="M163.8,149.7h-10.4c-0.9,0-1.6-0.7-1.6-1.6v-10.6c0-0.9,0.7-1.6,1.6-1.6h10.4c0.9,0,1.6,0.7,1.6,1.6v10.6 C165.4,149,164.7,149.7,163.8,149.7"/>
    </defs>
    <clipPath id="SVGID_24_">
      <use xlink:href="#SVGID_23_" style="overflow:visible;"/>
    </clipPath>
    <g class="st22">
      <defs>
        <path id="SVGID_25_" d="M-387.6 -428.5H1052.4V1064.5H-387.6z"/>
      </defs>
      <clipPath id="SVGID_26_">
        <use xlink:href="#SVGID_25_" style="overflow:visible;"/>
      </clipPath>
      <path class="st23" d="M146.8 130.9H170.4V154.8H146.8z"/>
    </g>
  </g>
  <g>
    <defs>
      <path id="SVGID_27_" d="M177.4,149.7h-10.4c-0.9,0-1.6-0.7-1.6-1.6v-10.6c0-0.9,0.7-1.6,1.6-1.6h10.4c0.9,0,1.6,0.7,1.6,1.6v10.6 C179.1,149,178.3,149.7,177.4,149.7"/>
    </defs>
    <clipPath id="SVGID_28_">
      <use xlink:href="#SVGID_27_" style="overflow:visible;"/>
    </clipPath>
    <g class="st24">
      <defs>
        <path id="SVGID_29_" d="M-387.6 -428.5H1052.4V1064.5H-387.6z"/>
      </defs>
      <clipPath id="SVGID_30_">
        <use xlink:href="#SVGID_29_" style="overflow:visible;"/>
      </clipPath>
      <path class="st25" d="M160.4 130.9H184V154.8H160.4z"/>
    </g>
  </g>
  <g>
    <defs>
      <path id="SVGID_31_" d="M165.9,140.5C165.9,140.5,165.9,140.5,165.9,140.5L165.9,140.5C165.9,140.5,165.9,140.5,165.9,140.5"/>
    </defs>
    <clipPath id="SVGID_32_">
      <use xlink:href="#SVGID_31_" style="overflow:visible;"/>
    </clipPath>
    <g class="st26">
      <defs>
        <path id="SVGID_33_" d="M-387.6 -428.5H1052.4V1064.5H-387.6z"/>
      </defs>
      <clipPath id="SVGID_34_">
        <use xlink:href="#SVGID_33_" style="overflow:visible;"/>
      </clipPath>
      <path class="st27" d="M160.9 135.5H170.9V145.5H160.9z"/>
    </g>
  </g>
  <g>
    <defs>
      <path id="SVGID_35_" d="M155.4,130.7h2.1v2.1c0,0.5,0.4,0.8,0.8,0.8c0.5,0,0.8-0.4,0.8-0.8v-2.1h2.1c0.5,0,0.8-0.4,0.8-0.8 s-0.4-0.8-0.8-0.8h-2.1v-2.1c0-0.5-0.4-0.8-0.8-0.8c-0.5,0-0.8,0.4-0.8,0.8v2.1h-2.1c-0.5,0-0.8,0.4-0.8,0.8 S154.9,130.7,155.4,130.7"/>
    </defs>
    <clipPath id="SVGID_36_">
      <use xlink:href="#SVGID_35_" style="overflow:visible;"/>
    </clipPath>
    <g class="st28">
      <defs>
        <path id="SVGID_37_" d="M-387.6 -428.5H1052.4V1064.5H-387.6z"/>
      </defs>
      <clipPath id="SVGID_38_">
        <use xlink:href="#SVGID_37_" style="overflow:visible;"/>
      </clipPath>
      <path class="st29" d="M149.6 121.1H167.1V138.6H149.6z"/>
    </g>
  </g>
  <g>
    <defs>
      <path id="SVGID_39_" d="M169.6,130.7h5.9c0.5,0,0.8-0.4,0.8-0.8s-0.4-0.8-0.8-0.8h-5.9c-0.5,0-0.8,0.4-0.8,0.8 S169.1,130.7,169.6,130.7"/>
    </defs>
    <clipPath id="SVGID_40_">
      <use xlink:href="#SVGID_39_" style="overflow:visible;"/>
    </clipPath>
    <g class="st30">
      <defs>
        <path id="SVGID_41_" d="M-387.6 -428.5H1052.4V1064.5H-387.6z"/>
      </defs>
      <clipPath id="SVGID_42_">
        <use xlink:href="#SVGID_41_" style="overflow:visible;"/>
      </clipPath>
      <path class="st31" d="M163.7 124H181.2V135.6H163.7z"/>
    </g>
  </g>
  <g>
    <defs>
      <path id="SVGID_43_" d="M159.5,143.7l1.5-1.5c0.3-0.3,0.3-0.8,0-1.2c-0.3-0.3-0.8-0.3-1.2,0l-1.5,1.5l-1.5-1.5 c-0.3-0.3-0.8-0.3-1.2,0c-0.3,0.3-0.3,0.8,0,1.2l1.5,1.5l-1.5,1.5c-0.3,0.3-0.3,0.8,0,1.2c0.2,0.2,0.4,0.2,0.6,0.2 c0.2,0,0.4-0.1,0.6-0.2l1.5-1.5l1.5,1.5c0.2,0.2,0.4,0.2,0.6,0.2c0.2,0,0.4-0.1,0.6-0.2c0.3-0.3,0.3-0.8,0-1.2L159.5,143.7z"/>
    </defs>
    <clipPath id="SVGID_44_">
      <use xlink:href="#SVGID_43_" style="overflow:visible;"/>
    </clipPath>
    <g class="st32">
      <defs>
        <path id="SVGID_45_" d="M-387.6 -428.5H1052.4V1064.5H-387.6z"/>
      </defs>
      <clipPath id="SVGID_46_">
        <use xlink:href="#SVGID_45_" style="overflow:visible;"/>
      </clipPath>
      <path class="st33" d="M150.4 135.8H166.20000000000002V151.60000000000002H150.4z"/>
    </g>
  </g>
  <g>
    <defs>
      <path id="SVGID_47_" d="M175.4,141.3h-5.9c-0.5,0-0.8,0.4-0.8,0.8c0,0.5,0.4,0.8,0.8,0.8h5.9c0.5,0,0.8-0.4,0.8-0.8 C176.2,141.7,175.9,141.3,175.4,141.3"/>
    </defs>
    <clipPath id="SVGID_48_">
      <use xlink:href="#SVGID_47_" style="overflow:visible;"/>
    </clipPath>
    <g class="st34">
      <defs>
        <path id="SVGID_49_" d="M-387.6 -428.5H1052.4V1064.5H-387.6z"/>
      </defs>
      <clipPath id="SVGID_50_">
        <use xlink:href="#SVGID_49_" style="overflow:visible;"/>
      </clipPath>
      <path class="st35" d="M163.7 136.3H181.2V147.9H163.7z"/>
    </g>
  </g>
  <g>
    <defs>
      <path id="SVGID_51_" d="M175.4,144.4h-5.9c-0.5,0-0.8,0.4-0.8,0.8s0.4,0.8,0.8,0.8h5.9c0.5,0,0.8-0.4,0.8-0.8 S175.9,144.4,175.4,144.4"/>
    </defs>
    <clipPath id="SVGID_52_">
      <use xlink:href="#SVGID_51_" style="overflow:visible;"/>
    </clipPath>
    <g class="st36">
      <defs>
        <path id="SVGID_53_" d="M-387.6 -428.5H1052.4V1064.5H-387.6z"/>
      </defs>
      <clipPath id="SVGID_54_">
        <use xlink:href="#SVGID_53_" style="overflow:visible;"/>
      </clipPath>
      <path class="st37" d="M163.7 139.4H181.2V151H163.7z"/>
    </g>
  </g>
  <path class="st38" d="M165.3 122.7L165.3 149.8M151.2 136.3L179.8 136.3M176.2 149.8h-21.7c-1.8 0-3.3-1.5-3.3-3.3V126c0-1.8 1.5-3.3 3.3-3.3h21.7c1.8 0 3.3 1.5 3.3 3.3v20.5C179.4 148.3 178 149.8 176.2 149.8z"/>
</svg>
