<?xml version="1.0" encoding="utf-8"?>
<!-- Generator: Adobe Illustrator 21.0.2, SVG Export Plug-In . SVG Version: 6.00 Build 0)  -->
<svg version="1.1" id="Layer_1" xmlns="http://www.w3.org/2000/svg" xmlns:xlink="http://www.w3.org/1999/xlink" x="0px" y="0px"
	 viewBox="0 0 160 160" style="enable-background:new 0 0 160 160;" xml:space="preserve">
<style type="text/css">
	.st0{fill:none;stroke:#7C878E;stroke-miterlimit:22.93;}
	.st1{fill:#F2F2F2;stroke:#7C878E;stroke-miterlimit:22.93;}
	.st2{fill:none;}
	.st3{fill:#F2BC47;stroke:#7B878E;stroke-width:0.5;stroke-miterlimit:10;}
	.st4{fill:#FFFFFF;stroke:#7B878E;stroke-width:0.5;stroke-miterlimit:10;}
	.st5{fill:none;stroke:#7B878E;stroke-width:0.5;stroke-miterlimit:10;}
	.st6{fill:#69D2DC;stroke:#7B878E;stroke-width:0.5;stroke-miterlimit:10;}
	.st7{fill:#7B878E;}
	.st8{fill:#14A3B2;stroke:#7B878E;stroke-width:0.5;stroke-miterlimit:10;}
	.st9{fill:#69D2DC;stroke:#7B878E;stroke-miterlimit:10;}
	.st10{fill:#FFFFFF;stroke:#7B878E;stroke-miterlimit:10;}
	.st11{fill:none;stroke:#7B878E;stroke-miterlimit:10;}
	.st12{fill:#F2BC47;stroke:#7B878E;stroke-miterlimit:10;}
	.st13{fill:#14A3B2;stroke:#7B878E;stroke-miterlimit:10;}
</style>
<title>WesBank Icons v1_aj</title>
<line class="st0" x1="34.6" y1="96" x2="127.4" y2="96"/>
<polyline class="st1" points="122.7,94.2 122.7,60.2 39.3,60.2 39.3,94.2 "/>
<line class="st0" x1="42.7" y1="73.9" x2="119.3" y2="73.9"/>
<line class="st0" x1="67.3" y1="73.9" x2="67.3" y2="93.7"/>
<line class="st0" x1="94.6" y1="73.9" x2="94.6" y2="93.7"/>
<line class="st0" x1="82.6" y1="54.5" x2="82.6" y2="58.2"/>
<polygon class="st1" points="75.6,43 122.7,43 122.7,54.5 75.6,54.5 75.6,43 "/>
<polyline class="st1" points="61.7,58.2 61.7,56.1 45.6,56.1 45.6,58.2 "/>
<path class="st2" d="M46.4,91.2v1.3c0,0.2-0.2,0.4-0.4,0.4c0,0,0,0,0,0h-2.8c-0.2,0-0.4-0.2-0.5-0.4v-5.9c0-0.5,0.1-1,0.4-1.4
	l0.6-0.7l-1.2-0.5c-0.1,0-0.2-0.1-0.1-0.2l0.1-0.6c0.1-0.2,0.3-0.4,0.6-0.4h1.2c0.1,0,0.1,0,0.2,0.1l0.3,0.3h0.1l1.9-2.6
	c0.2-0.2,0.4-0.4,0.7-0.4c3.4-0.2,6.7-0.2,10.1,0c0.3,0,0.5,0.2,0.7,0.4l1.9,2.6h0.1l0.3-0.3c0-0.1,0.1-0.1,0.2-0.1h1.2
	c0.3,0,0.5,0.2,0.6,0.4l0.1,0.6c0,0.1,0,0.1-0.1,0.2l-1.2,0.5l0.6,0.7c0.3,0.4,0.5,0.9,0.4,1.4v5.9c0,0.2-0.2,0.4-0.4,0.4
	c0,0,0,0,0,0H59c-0.2,0-0.4-0.2-0.5-0.4v-1.3C54.5,91.4,50.5,91.4,46.4,91.2"/>
<path class="st3" d="M46.4,91.2v1.3c0,0.2-0.2,0.4-0.4,0.4c0,0,0,0,0,0h-2.8c-0.2,0-0.4-0.2-0.5-0.4v-5.9c0-0.5,0.1-1,0.4-1.4
	l0.6-0.7l-1.2-0.5c-0.1,0-0.2-0.1-0.1-0.2l0.1-0.6c0.1-0.2,0.3-0.4,0.6-0.4h1.2c0.1,0,0.1,0,0.2,0.1l0.3,0.3h0.1l2-2.4
	c0.1-0.1,0.2-0.5,0.6-0.5c3.4-0.2,6.7-0.2,10.1,0c0.3,0,0.5,0.2,0.7,0.4l1.9,2.6h0.1l0.3-0.3c0-0.1,0.1-0.1,0.2-0.1h1.2
	c0.3,0,0.5,0.2,0.6,0.4l0.1,0.6c0,0.1,0,0.1-0.1,0.2l-1.2,0.5l0.6,0.7c0.3,0.4,0.5,0.9,0.4,1.4v5.9c0,0.2-0.2,0.4-0.4,0.4
	c0,0,0,0,0,0H59c-0.2,0-0.4-0.2-0.5-0.4v-1.3C54.5,91.4,50.5,91.4,46.4,91.2"/>
<path class="st2" d="M47.5,80c0,0,8.9-0.2,10.2,0.2c1.5,0.4,2.3,2.9,2.5,3.5s-16,1.2-15.3-0.6C45.1,82.2,46.8,80.2,47.5,80"/>
<path class="st4" d="M47.5,80c0,0,8.9-0.2,10.2,0.2c1.5,0.4,2.3,2.9,2.5,3.5s-16,1.2-15.3-0.6C45.1,82.2,46.8,80.2,47.5,80"/>
<path class="st5" d="M43.8,91l2.6,0.2"/>
<path class="st2" d="M44.4,86.2c0.9,0.2,1.8,0.3,2.6,0.4c0.2,0,0.3,0.2,0.2,0.3l-0.1,0.3c0,0.1-0.2,0.2-0.3,0.2
	c-0.9,0-1.7-0.1-2.6-0.2c-0.1,0-0.3-0.1-0.2-0.3l0.1-0.5C44.1,86.3,44.3,86.2,44.4,86.2"/>
<path class="st3" d="M44.4,86.2c0.9,0.2,1.8,0.3,2.6,0.4c0.2,0,0.3,0.2,0.2,0.3l-0.1,0.3c0,0.1-0.2,0.2-0.3,0.2
	c-0.9,0-1.7-0.1-2.6-0.2c-0.1,0-0.3-0.1-0.2-0.3l0.1-0.5C44.2,86.3,44.3,86.2,44.4,86.2z"/>
<line class="st5" x1="43.6" y1="84.5" x2="44.3" y2="83.7"/>
<path class="st5" d="M61.2,91c-0.9,0.1-1.8,0.1-2.7,0.2"/>
<path class="st2" d="M60.5,86.2c-0.9,0.2-1.8,0.3-2.6,0.4c-0.2,0-0.3,0.2-0.2,0.3l0.1,0.3c0,0.1,0.2,0.2,0.3,0.2
	c0.9,0,1.7-0.1,2.6-0.2c0.1,0,0.3-0.1,0.2-0.3l-0.1-0.5C60.8,86.3,60.7,86.2,60.5,86.2"/>
<path class="st3" d="M60.5,86.2c-0.9,0.2-1.8,0.3-2.6,0.4c-0.2,0-0.3,0.2-0.2,0.3l0.1,0.3c0,0.1,0.2,0.2,0.3,0.2
	c0.9,0,1.7-0.1,2.6-0.2c0.1,0,0.3-0.1,0.2-0.3l-0.1-0.5C60.8,86.3,60.6,86.2,60.5,86.2z"/>
<line class="st5" x1="61.2" y1="84.4" x2="60.7" y2="83.7"/>
<path class="st2" d="M48.7,86.9c2.5,0.1,5,0.1,7.5,0c0.2,0,0.4,0.1,0.4,0.4c0,0,0,0,0,0l-0.1,1.2c0,0.2-0.2,0.4-0.4,0.4
	c-2.5,0.1-4.9,0.1-7.3,0c-0.2,0-0.4-0.2-0.4-0.4l-0.1-1.2C48.3,87.1,48.5,86.9,48.7,86.9C48.7,86.9,48.7,86.9,48.7,86.9"/>
<path class="st6" d="M48.7,86.9c2.5,0.1,5,0.1,7.5,0c0.2,0,0.4,0.1,0.4,0.4c0,0,0,0,0,0l-0.1,1.2c0,0.2-0.2,0.4-0.4,0.4
	c-2.5,0.1-4.9,0.1-7.3,0c-0.2,0-0.4-0.2-0.4-0.4l-0.1-1.2C48.3,87.1,48.5,86.9,48.7,86.9C48.7,86.9,48.7,86.9,48.7,86.9z"/>
<path class="st7" d="M53.8,80.4c0,0.2-0.2,0.4-0.4,0.4h-2c-0.2,0-0.4-0.2-0.4-0.4c0-0.2,0.2-0.4,0.4-0.4h2
	C53.6,80,53.8,80.1,53.8,80.4"/>
<path class="st2" d="M101.7,91.6v1.4c0,0.3-0.2,0.5-0.5,0.5c0,0,0,0,0,0H98c-0.3,0-0.5-0.2-0.5-0.5c0,0,0,0,0,0v-6.8
	c0-0.6,0.2-1.2,0.5-1.7l0.7-0.8l-1.4-0.6c-0.1,0-0.2-0.1-0.2-0.2l0.1-0.7c0.1-0.3,0.4-0.5,0.7-0.5h1.4c0.1,0,0.2,0,0.2,0.1l0.3,0.4
	h0.2l2.1-2.9c0.2-0.2,0.5-0.4,0.8-0.4c3.8-0.2,7.7-0.2,11.5,0c0.3,0,0.6,0.2,0.8,0.4l2.1,2.9h0.2l0.3-0.4c0.1-0.1,0.1-0.1,0.2-0.1
	h1.4c0.3,0,0.6,0.2,0.7,0.5l0.1,0.7c0,0.1,0,0.2-0.2,0.2l-1.4,0.6l0.7,0.8c0.4,0.5,0.6,1.1,0.5,1.7v6.8c0,0.3-0.2,0.5-0.5,0.5
	c0,0,0,0,0,0H116c-0.3,0-0.5-0.2-0.5-0.5c0,0,0,0,0,0v-1.4C110.9,91.9,106.3,91.9,101.7,91.6"/>
<path class="st6" d="M101.7,91.6v1.4c0,0.3-0.2,0.5-0.5,0.5c0,0,0,0,0,0H98c-0.3,0-0.5-0.2-0.5-0.5c0,0,0,0,0,0v-6.8
	c0-0.6,0.2-1.2,0.5-1.7l0.7-0.8l-1.4-0.6c-0.1,0-0.2-0.1-0.2-0.2l0.1-0.7c0.1-0.3,0.4-0.5,0.7-0.5h1.4c0.1,0,0.2,0,0.2,0.1l0.3,0.4
	h0.2l2.2-2.8c0.1-0.1,0.2-0.5,0.7-0.6c3.8-0.2,7.7-0.2,11.5,0c0.3,0,0.6,0.2,0.8,0.4l2.1,2.9h0.2l0.3-0.4c0.1-0.1,0.1-0.1,0.2-0.1
	h1.4c0.3,0,0.6,0.2,0.7,0.5l0.1,0.7c0,0.1,0,0.2-0.2,0.2l-1.4,0.6l0.7,0.8c0.4,0.5,0.6,1.1,0.5,1.7v6.8c0,0.3-0.2,0.5-0.5,0.5
	c0,0,0,0,0,0h-3.2c-0.3,0-0.5-0.2-0.5-0.5c0,0,0,0,0,0v-1.4C110.9,91.9,106.3,91.9,101.7,91.6"/>
<path class="st2" d="M103,78.9c0,0,10.2-0.2,11.6,0.2c1.8,0.5,2.6,3.3,2.8,4s-18.2,1.3-17.5-0.7C100.3,81.5,102.2,79.1,103,78.9"/>
<path class="st4" d="M103,78.9c0,0,10.2-0.2,11.6,0.2c1.8,0.5,2.6,3.3,2.8,4s-18.2,1.3-17.5-0.7C100.3,81.5,102.2,79.1,103,78.9"/>
<path class="st5" d="M98.8,91.4l3,0.2"/>
<path class="st2" d="M99.5,86c1,0.2,2,0.4,3,0.4c0.2,0,0.3,0.2,0.3,0.3l-0.1,0.3c0,0.1-0.2,0.2-0.3,0.2c-1,0-2-0.1-3-0.2
	c-0.2,0-0.3-0.2-0.3-0.3l0.1-0.6C99.1,86.1,99.3,86,99.5,86C99.4,86,99.4,86,99.5,86"/>
<path class="st3" d="M99.5,86c1,0.2,2,0.4,3,0.4c0.2,0,0.3,0.2,0.3,0.3l-0.1,0.3c0,0.1-0.2,0.2-0.3,0.2c-1,0-2-0.1-3-0.2
	c-0.2,0-0.3-0.2-0.3-0.3l0.1-0.6C99.1,86.1,99.2,86,99.5,86C99.4,86,99.5,86,99.5,86z"/>
<line class="st5" x1="98.6" y1="84" x2="99.3" y2="83.1"/>
<path class="st5" d="M118.6,91.4c-1,0.1-2,0.2-3,0.2"/>
<path class="st2" d="M117.8,86c-1,0.2-2,0.4-3,0.4c-0.2,0-0.3,0.2-0.3,0.3l0.1,0.3c0,0.1,0.2,0.2,0.3,0.2c1,0,2-0.1,3-0.2
	c0.2,0,0.3-0.2,0.3-0.3l-0.1-0.6C118.2,86.1,118,86,117.8,86"/>
<path class="st3" d="M117.8,86c-1,0.2-2,0.4-3,0.4c-0.2,0-0.3,0.2-0.3,0.3l0.1,0.3c0,0.1,0.2,0.2,0.3,0.2c1,0,2-0.1,3-0.2
	c0.2,0,0.3-0.2,0.3-0.3l-0.1-0.6C118.2,86.1,118.1,86,117.8,86C117.9,86,117.8,86,117.8,86z"/>
<line class="st5" x1="118.6" y1="83.9" x2="118.1" y2="83.1"/>
<path class="st2" d="M104.4,86.7c2.9,0.2,5.7,0.2,8.6,0c0.2,0,0.4,0.2,0.5,0.4c0,0,0,0,0,0l-0.1,1.3c0,0.2-0.2,0.4-0.5,0.4
	c-2.8,0.1-5.6,0.1-8.3,0c-0.2,0-0.4-0.2-0.5-0.4l-0.1-1.3C103.9,86.9,104.1,86.7,104.4,86.7C104.3,86.7,104.4,86.7,104.4,86.7"/>
<path class="st8" d="M104.4,86.7c2.9,0.2,5.7,0.2,8.6,0c0.2,0,0.4,0.2,0.5,0.4c0,0,0,0,0,0l-0.1,1.3c0,0.2-0.2,0.4-0.5,0.4
	c-2.8,0.1-5.6,0.1-8.3,0c-0.2,0-0.4-0.2-0.5-0.4l-0.1-1.3C103.9,86.9,104.1,86.7,104.4,86.7C104.3,86.7,104.4,86.7,104.4,86.7z"/>
<path class="st7" d="M110.2,79.3c0,0.3-0.2,0.5-0.5,0.4h-2.3c-0.3,0-0.5-0.2-0.5-0.4c0,0,0,0,0,0c0-0.3,0.2-0.5,0.5-0.4h2.3
	C109.9,78.8,110.2,79,110.2,79.3"/>
<path class="st2" d="M65.8,115.7v3.2c0,0.6-0.5,1.1-1.1,1.1c0,0,0,0-0.1,0h-7c-0.6,0-1.1-0.5-1.2-1.1V104c-0.1-1.3,0.3-2.6,1.1-3.7
	l1.5-1.7l-3.1-1.3c-0.2-0.1-0.4-0.2-0.3-0.4l0.3-1.5c0.2-0.6,0.8-1,1.4-1.1h3c0.2,0,0.4,0.1,0.5,0.2l0.7,0.9h0.3l4.7-6.5
	c0.5-0.5,1.1-0.9,1.8-0.9c8.5-0.5,17-0.5,25.4,0c0.7,0.1,1.4,0.4,1.8,0.9l4.7,6.5h0.3l0.7-0.9c0.1-0.1,0.3-0.2,0.5-0.2h3
	c0.7,0,1.2,0.4,1.4,1.1l0.3,1.5c0.1,0.2-0.1,0.3-0.3,0.4l-3.1,1.3l1.5,1.7c0.8,1,1.2,2.3,1.1,3.7v14.9c0,0.6-0.5,1.1-1.1,1.1
	c0,0,0,0,0,0h-7c-0.6,0-1.1-0.5-1.2-1.1v-3.2C86.1,116.3,75.9,116.3,65.8,115.7"/>
<path class="st9" d="M65.8,115.7v3.2c0,0.6-0.5,1.1-1.1,1.1c0,0,0,0-0.1,0h-7c-0.6,0-1.1-0.5-1.2-1.1V104c-0.1-1.3,0.3-2.6,1.1-3.7
	l1.5-1.7l-3.1-1.3c-0.2-0.1-0.4-0.2-0.3-0.4l0.3-1.5c0.2-0.6,0.8-1,1.4-1.1h3c0.2,0,0.4,0.1,0.5,0.2l0.7,0.9h0.3l4.9-6.2
	c0.3-0.3,0.5-1.2,1.6-1.3c8.5-0.5,17-0.5,25.4,0c0.7,0.1,1.4,0.4,1.8,0.9l4.7,6.5h0.3l0.7-0.9c0.1-0.1,0.3-0.2,0.5-0.2h3
	c0.7,0,1.2,0.4,1.4,1.1l0.3,1.5c0.1,0.2-0.1,0.3-0.3,0.4l-3.1,1.3l1.5,1.7c0.8,1,1.2,2.3,1.1,3.7v14.9c0,0.6-0.5,1.1-1.1,1.1
	c0,0,0,0,0,0h-7c-0.6,0-1.1-0.5-1.2-1.1v-3.2C86.1,116.3,75.9,116.3,65.8,115.7"/>
<path class="st2" d="M68.6,87.6c0,0,22.4-0.4,25.7,0.4c3.9,1,5.8,7.4,6.2,8.9s-40.2,3-38.6-1.5C62.5,93.3,66.8,88,68.6,87.6"/>
<path class="st10" d="M68.6,87.6c0,0,22.4-0.4,25.7,0.4c3.9,1,5.8,7.4,6.2,8.9s-40.2,3-38.6-1.5C62.5,93.3,66.8,88,68.6,87.6"/>
<path class="st11" d="M59.2,115.3c2.3,0.2,4.5,0.3,6.7,0.4"/>
<path class="st2" d="M60.9,103.3c2.2,0.5,4.4,0.8,6.7,1c0.4,0,0.7,0.4,0.6,0.7l-0.3,0.7c-0.1,0.3-0.4,0.5-0.7,0.5
	c-2.2,0-4.4-0.2-6.5-0.4c-0.4,0-0.6-0.4-0.6-0.7l0.2-1.2C60.2,103.5,60.5,103.2,60.9,103.3C60.8,103.3,60.9,103.3,60.9,103.3"/>
<path class="st12" d="M60.9,103.3c2.2,0.5,4.4,0.8,6.7,1c0.4,0,0.7,0.4,0.6,0.7l-0.3,0.7c-0.1,0.3-0.4,0.5-0.7,0.5
	c-2.2,0-4.4-0.2-6.5-0.4c-0.4,0-0.6-0.4-0.6-0.7l0.2-1.2C60.2,103.5,60.5,103.2,60.9,103.3C60.8,103.3,60.8,103.3,60.9,103.3z"/>
<line class="st11" x1="58.9" y1="98.9" x2="60.5" y2="96.9"/>
<path class="st11" d="M103.1,115.3c-2.3,0.2-4.5,0.3-6.7,0.5"/>
<path class="st2" d="M101.4,103.3c-2.2,0.4-4.4,0.8-6.7,1c-0.4,0-0.7,0.4-0.6,0.7l0.3,0.7c0.1,0.3,0.4,0.5,0.7,0.5
	c2.2,0,4.4-0.2,6.5-0.4c0.4,0,0.6-0.4,0.6-0.7l-0.2-1.2C102.1,103.5,101.7,103.2,101.4,103.3C101.4,103.3,101.4,103.3,101.4,103.3"
	/>
<path class="st12" d="M101.4,103.3c-2.2,0.4-4.4,0.8-6.7,1c-0.4,0-0.7,0.4-0.6,0.7l0.3,0.7c0.1,0.3,0.4,0.5,0.7,0.5
	c2.2,0,4.4-0.2,6.5-0.4c0.4,0,0.6-0.4,0.6-0.7l-0.2-1.2C102.1,103.5,101.7,103.2,101.4,103.3C101.4,103.3,101.4,103.3,101.4,103.3z"
	/>
<line class="st11" x1="103" y1="98.6" x2="101.9" y2="96.9"/>
<path class="st2" d="M71.6,104.9c6.3,0.3,12.7,0.3,19,0c0.6,0,1,0.4,1,1l-0.3,3c0,0.6-0.4,1-1,1c-6.2,0.3-12.4,0.3-18.5,0
	c-0.6,0-1-0.4-1-1l-0.3-3C70.6,105.3,71.1,104.9,71.6,104.9"/>
<path class="st13" d="M71.6,104.9c6.3,0.3,12.7,0.3,19,0c0.6,0,1,0.4,1,1l-0.3,3c0,0.6-0.4,1-1,1c-6.2,0.3-12.4,0.3-18.5,0
	c-0.6,0-1-0.4-1-1l-0.3-3C70.6,105.4,71.1,104.9,71.6,104.9z"/>
<path class="st7" d="M84.5,88.5c0,0.6-0.4,1-1,1c0,0-0.1,0-0.1,0h-5.2c-0.6,0-1-0.4-1.1-0.9c0,0,0-0.1,0-0.1c0-0.6,0.4-1,1-1
	c0,0,0.1,0,0.1,0h5.2C83.9,87.4,84.4,87.8,84.5,88.5C84.5,88.4,84.5,88.4,84.5,88.5"/>
<rect x="-173.7" y="-625" class="st2" width="1440" height="1381"/>
</svg>
