<?xml version="1.0" encoding="UTF-8" standalone="no"?>
<svg
   xmlns:dc="http://purl.org/dc/elements/1.1/"
   xmlns:cc="http://creativecommons.org/ns#"
   xmlns:rdf="http://www.w3.org/1999/02/22-rdf-syntax-ns#"
   xmlns:svg="http://www.w3.org/2000/svg"
   xmlns="http://www.w3.org/2000/svg"
   xmlns:xlink="http://www.w3.org/1999/xlink"
   xmlns:sodipodi="http://sodipodi.sourceforge.net/DTD/sodipodi-0.dtd"
   xmlns:inkscape="http://www.inkscape.org/namespaces/inkscape"
   version="1.1"
   id="Layer_1"
   x="0"
   y="0"
   viewBox="0 0 80.974998 53.663326"
   xml:space="preserve"
   inkscape:version="0.91 r13725"
   sodipodi:docname="vh.svg"
   width="80.974998"
   height="53.663326"><metadata
   id="metadata4202"><rdf:RDF><cc:Work
       rdf:about=""><dc:format>image/svg+xml</dc:format><dc:type
         rdf:resource="http://purl.org/dc/dcmitype/StillImage" /><dc:title></dc:title></cc:Work></rdf:RDF></metadata><defs
   id="defs4200" /><sodipodi:namedview
   pagecolor="#ffffff"
   bordercolor="#666666"
   borderopacity="1"
   objecttolerance="10"
   gridtolerance="10"
   guidetolerance="10"
   inkscape:pageopacity="0"
   inkscape:pageshadow="2"
   inkscape:window-width="1366"
   inkscape:window-height="705"
   id="namedview4198"
   showgrid="false"
   fit-margin-top="0"
   fit-margin-left="0"
   fit-margin-right="0"
   fit-margin-bottom="0"
   inkscape:zoom="3.3125"
   inkscape:cx="34.975"
   inkscape:cy="29.924528"
   inkscape:window-x="-8"
   inkscape:window-y="-8"
   inkscape:window-maximized="1"
   inkscape:current-layer="Layer_1" />
  <style
   type="text/css"
   id="style3754">
    .st0{fill:none;} .st1{fill:#69D2DC;} .st2{fill:#7B878E;} .st3{fill:#FFFFFF;} .st4{fill:#F2BC47;} .st5{fill:#14A3B2;} .st6{fill:#7C878E;} .st7{fill:#15A3B2;} .st8{fill:#F39200;} .st9{display:none;}
  </style>
  <g
   id="g3756"
   transform="translate(-45.025,-68.336673)">
    <g
   id="g3758">
      <path
   class="st0"
   d="m 58.8,104.7 -0.1,4.1 c 0,0.8 -0.7,1.4 -1.5,1.4 l -8.9,0 c -0.8,0 -1.5,-0.6 -1.5,-1.4 l 0,-19 c 0,-1.9 0.4,-3.5 1.4,-4.7 l 1.9,-2.1 -4,-1.7 c -0.3,-0.1 -0.5,-0.2 -0.4,-0.5 l 0.4,-1.9 c 0.2,-0.7 1,-1.3 1.8,-1.3 l 3.8,0 c 0.3,0 0.5,0.1 0.6,0.3 l 0.8,1.1 0.4,0 5.9,-8.3 c 0.3,-0.4 1,-1.1 2.3,-1.2 11.5,-0.7 20.8,-0.7 32.4,0 1.3,0.2 2,0.8 2.3,1.2 l 5.9,8.3 0.4,0 0.8,-1.1 c 0.1,-0.2 0.3,-0.3 0.6,-0.3 l 3.8,0 c 0.8,0 1.6,0.6 1.8,1.3 l 0.4,1.9 c 0.1,0.3 -0.1,0.4 -0.4,0.5 l -4,1.7 1.9,2.1 c 1,1.2 1.5,2.7 1.4,4.7 l 0,19 c 0,0.8 -0.7,1.4 -1.5,1.4 l -8.9,0 c -0.8,0 -1.5,-0.6 -1.5,-1.4 L 97,104.7 c -12.6,0.7 -25,0.7 -38.2,0"
   id="path3760"
   inkscape:connector-curvature="0"
   style="fill:none" />
    </g>
    <g
   id="g3762">
      <path
   class="st1"
   d="m 58.8,104.7 -0.1,4.1 c 0,0.8 -0.7,1.4 -1.5,1.4 l -8.9,0 c -0.8,0 -1.5,-0.6 -1.5,-1.4 l 0,-19 c 0,-1.9 0.4,-3.5 1.4,-4.7 l 1.9,-2.1 -4,-1.7 c -0.3,-0.1 -0.5,-0.2 -0.4,-0.5 l 0.4,-1.9 c 0.2,-0.7 1,-1.3 1.8,-1.3 l 3.8,0 c 0.3,0 0.5,0.1 0.6,0.3 l 0.8,1.1 0.4,0 6.3,-7.8 c 0.3,-0.4 0.7,-1.5 2,-1.6 11.5,-0.7 20.8,-0.7 32.4,0 1.3,0.2 2,0.8 2.3,1.2 l 5.9,8.3 0.4,0 0.8,-1.1 c 0.1,-0.2 0.3,-0.3 0.6,-0.3 l 3.8,0 c 0.8,0 1.6,0.6 1.8,1.3 l 0.4,1.9 c 0.1,0.3 -0.1,0.4 -0.4,0.5 l -4,1.7 1.9,2.1 c 1,1.2 1.5,2.7 1.4,4.7 l 0,19 c 0,0.8 -0.7,1.4 -1.5,1.4 l -8.9,0 c -0.8,0 -1.5,-0.6 -1.5,-1.4 l -0.1,-4.1 c -12.7,0.6 -25.1,0.6 -38.3,-0.1"
   id="path3764"
   inkscape:connector-curvature="0"
   style="fill:#69d2dc" />
      <path
   class="st2"
   d="m 107.6,110.8 -8.9,0 c -1.1,0 -2,-0.9 -2,-1.9 l -0.1,-3.6 c -12.6,0.6 -24.8,0.5 -37.3,-0.1 l -0.1,3.6 c 0,1 -0.9,1.9 -2,1.9 l -8.9,0 c -1.1,0 -2,-0.9 -2,-1.9 l 0,-19 c 0,-2.2 0.5,-3.8 1.5,-5 l 1.4,-1.6 -3.4,-1.4 c -0.1,0 -0.5,-0.2 -0.7,-0.5 C 45,81.2 45,81 45.1,80.7 l 0.4,-1.8 c 0.3,-1 1.3,-1.7 2.3,-1.7 l 3.8,0 c 0.7,0 0.9,0.4 1,0.6 l 0.6,0.8 6.1,-7.6 c 0,0 0.1,-0.1 0.1,-0.2 0.3,-0.5 0.9,-1.5 2.2,-1.6 11.5,-0.7 20.9,-0.7 32.5,0 1.7,0.3 2.4,1.1 2.7,1.4 l 5.7,8 0.6,-0.8 c 0.1,-0.1 0.3,-0.5 1,-0.5 l 3.8,0 c 1,0 2,0.7 2.3,1.7 l 0.4,1.9 c 0.1,0.3 0.1,0.8 -0.7,1.1 l -3.3,1.4 1.4,1.6 c 1.1,1.4 1.6,3 1.5,5.1 l 0,19 c 0.1,0.8 -0.8,1.7 -1.9,1.7 z m -10,-6.5 0.1,4.6 c 0,0.5 0.4,0.9 1,0.9 l 8.9,0 c 0.6,0 1,-0.4 1,-0.9 l 0,-19 c 0.1,-1.8 -0.3,-3.2 -1.3,-4.4 l -2.4,-2.6 4.6,-2 c 0,0 0.1,0 0.1,0 l -0.4,-1.8 c -0.1,-0.5 -0.8,-0.9 -1.3,-0.9 l -3.8,0 c -0.1,0 -0.2,0 -0.2,0 l -1,1.4 -0.9,0 -6,-8.5 c -0.2,-0.2 -0.7,-0.8 -2,-1 -11.5,-0.7 -20.9,-0.7 -32.3,0 -0.8,0.1 -1.2,0.6 -1.4,1.1 -0.1,0.1 -0.1,0.2 -0.2,0.3 l -6.5,8 -0.9,0 -1,-1.3 c 0,-0.1 -0.1,-0.1 -0.2,-0.1 l -3.8,0 c -0.6,0 -1.2,0.4 -1.3,0.9 L 46,80.8 c 0,0 0,0 0,0 l 4.7,2 -2.4,2.6 c -0.9,1 -1.3,2.5 -1.3,4.4 l 0,19 c 0,0.5 0.4,0.9 1,0.9 l 8.9,0 c 0.6,0 1,-0.4 1,-0.9 l 0.1,-4.6 0.5,0 c 12.8,0.7 25.3,0.7 38.2,0.1 l 0.9,0 z m 12.1,-23.2 c 0,0 0,0 0,0 l 0,0 z"
   id="path3766"
   inkscape:connector-curvature="0"
   style="fill:#7b878e" />
    </g>
    <g
   id="g3768">
      <path
   class="st0"
   d="m 62.3,68.9 c 0,0 28.5,-0.6 32.7,0.5 5,1.3 7.4,9.4 7.9,11.3 0.5,1.9 -51.1,3.8 -49.2,-1.9 0.9,-2.7 6.4,-9.4 8.6,-9.9"
   id="path3770"
   inkscape:connector-curvature="0"
   style="fill:none" />
    </g>
    <g
   id="g3772">
      <path
   class="st3"
   d="m 62.3,68.9 c 0,0 28.5,-0.6 32.7,0.5 5,1.3 7.4,9.4 7.9,11.3 0.5,1.9 -51.1,3.8 -49.2,-1.9 0.9,-2.7 6.4,-9.4 8.6,-9.9"
   id="path3774"
   inkscape:connector-curvature="0"
   style="fill:#ffffff" />
      <path
   class="st2"
   d="M 78.1,83.2 C 67.3,83.2 56.6,82.5 53.9,80.5 53,79.8 53.1,79.1 53.2,78.7 54.1,76 59.6,69 62.2,68.5 l 0.1,0 c 1.2,0 28.6,-0.6 32.8,0.5 5.2,1.3 7.6,9.3 8.3,11.7 0,0.1 0.1,0.5 -0.3,0.7 -1.5,0.9 -13.3,1.8 -25,1.8 z M 62.4,69.4 c -2,0.5 -7.3,7 -8.2,9.6 0,0.1 -0.1,0.3 0.4,0.7 5.1,3.7 44.2,2.6 47.8,0.9 -0.6,-2.1 -2.9,-9.5 -7.5,-10.7 -4,-1.1 -31.1,-0.5 -32.5,-0.5 z"
   id="path3776"
   inkscape:connector-curvature="0"
   style="fill:#7b878e" />
    </g>
    <g
   id="g3778">
      <path
   class="st2"
   d="m 58.9,105.1 c -2.6,-0.1 -5.2,-0.3 -8,-0.5 l -0.6,0 0.1,-1 0.6,0 c 2.7,0.2 5.3,0.4 7.9,0.5 l 0,1 z"
   id="path3780"
   inkscape:connector-curvature="0"
   style="fill:#7b878e" />
    </g>
    <g
   id="g3782">
      <path
   class="st0"
   d="m 52.5,88.8 c 2.9,0.6 5.6,1 8.5,1.3 0.5,0 0.9,0.5 0.8,0.9 l -0.4,0.9 c -0.2,0.4 -0.5,0.7 -0.9,0.7 -2.7,0 -5.5,-0.2 -8.3,-0.6 -0.5,-0.1 -0.8,-0.5 -0.8,-0.9 l 0.2,-1.6 c 0,-0.5 0.4,-0.8 0.9,-0.7"
   id="path3784"
   inkscape:connector-curvature="0"
   style="fill:none" />
    </g>
    <g
   id="g3786">
      <path
   class="st4"
   d="m 52.5,88.8 c 2.9,0.6 5.6,1 8.5,1.3 0.5,0 0.9,0.5 0.8,0.9 l -0.4,0.9 c -0.2,0.4 -0.5,0.7 -0.9,0.7 -2.7,0 -5.5,-0.2 -8.3,-0.6 -0.5,-0.1 -0.8,-0.5 -0.8,-0.9 l 0.2,-1.6 c 0,-0.5 0.4,-0.8 0.9,-0.7 z"
   id="path3788"
   inkscape:connector-curvature="0"
   style="fill:#f2bc47" />
      <path
   class="st2"
   d="m 60.5,93.1 c -2.7,0 -5.6,-0.2 -8.4,-0.6 -0.7,-0.1 -1.2,-0.7 -1.2,-1.4 l 0.2,-1.7 c 0,-0.3 0.1,-0.7 0.4,-0.9 0.3,-0.2 0.7,-0.3 1.1,-0.2 l 0,0 c 2.8,0.6 5.4,1 8.4,1.3 0.4,0 0.7,0.2 1,0.5 0.2,0.3 0.3,0.7 0.2,1 l -0.4,1 c -0.3,0.7 -0.7,1 -1.3,1 z m -8.2,-3.8 c -0.1,0 -0.1,0 -0.1,0 -0.1,0 -0.1,0.1 -0.1,0.2 l -0.2,1.7 c 0,0.1 0.1,0.3 0.4,0.3 2.7,0.4 5.5,0.6 8.2,0.6 0.2,0 0.4,-0.3 0.5,-0.4 l 0.4,-0.9 c 0,0 0,0 -0.1,-0.1 -0.1,-0.1 -0.1,-0.1 -0.3,-0.1 -3.1,-0.3 -5.8,-0.7 -8.7,-1.3 0.1,0 0,0 0,0 z"
   id="path3790"
   inkscape:connector-curvature="0"
   style="fill:#7b878e" />
    </g>
    <g
   id="g3792">
      <path
   transform="matrix(0.6429,-0.766,0.766,0.6429,-44.5402,68.3698)"
   class="st2"
   d="m 49.4,81.5 3.3,0 0,1 -3.3,0 z"
   id="path3794"
   inkscape:connector-curvature="0"
   style="fill:#7b878e" />
    </g>
    <g
   id="g3796">
      <path
   class="st2"
   d="m 97.7,105.2 -0.1,-1 c 2.8,-0.2 5.6,-0.4 8.5,-0.6 l 0.1,1 c -2.9,0.2 -5.7,0.4 -8.5,0.6 z"
   id="path3798"
   inkscape:connector-curvature="0"
   style="fill:#7b878e" />
    </g>
    <g
   id="g3800">
      <path
   class="st0"
   d="m 104,88.8 c -2.9,0.5 -5.6,1 -8.5,1.3 -0.5,0 -0.9,0.5 -0.8,0.9 l 0.4,0.9 c 0.2,0.4 0.5,0.7 0.9,0.7 2.7,0 5.5,-0.2 8.3,-0.6 0.5,-0.1 0.8,-0.5 0.8,-0.9 l -0.2,-1.6 c 0,-0.5 -0.4,-0.8 -0.9,-0.7"
   id="path3802"
   inkscape:connector-curvature="0"
   style="fill:none" />
    </g>
    <g
   id="g3804">
      <path
   class="st4"
   d="m 104,88.8 c -2.9,0.5 -5.6,1 -8.5,1.3 -0.5,0 -0.9,0.5 -0.8,0.9 l 0.4,0.9 c 0.2,0.4 0.5,0.7 0.9,0.7 2.7,0 5.5,-0.2 8.3,-0.6 0.5,-0.1 0.8,-0.5 0.8,-0.9 l -0.2,-1.6 c 0,-0.5 -0.4,-0.8 -0.9,-0.7 z"
   id="path3806"
   inkscape:connector-curvature="0"
   style="fill:#f2bc47" />
      <path
   class="st2"
   d="m 96,93.1 c -0.6,0 -1,-0.3 -1.3,-1 l -0.4,-0.9 c -0.1,-0.4 0,-0.8 0.2,-1.1 0.3,-0.3 0.6,-0.5 1,-0.5 2.5,-0.3 4.8,-0.7 7.3,-1.1 l 1.1,-0.2 c 0.4,-0.1 0.8,0 1.1,0.2 0.3,0.2 0.4,0.6 0.4,0.9 l 0.2,1.5 c 0,0.7 -0.5,1.3 -1.2,1.5 -2.8,0.5 -5.7,0.7 -8.4,0.7 z m 8.2,-3.8 c 0,0 -0.1,0 0,0 l -1.2,0.2 c -2.5,0.4 -4.9,0.8 -7.4,1.1 -0.2,0 -0.3,0.1 -0.3,0.1 -0.1,0.1 -0.1,0.1 -0.1,0.1 l 0.4,0.8 c 0.1,0.1 0.2,0.4 0.4,0.4 2.7,0 5.5,-0.2 8.2,-0.6 0.2,0 0.4,-0.2 0.4,-0.4 l -0.2,-1.5 c 0,-0.1 0,-0.2 -0.1,-0.2 0,0 -0.1,0 -0.1,0 z"
   id="path3808"
   inkscape:connector-curvature="0"
   style="fill:#7b878e" />
    </g>
    <g
   id="g3810">
      <path
   transform="matrix(0.8438,-0.5367,0.5367,0.8438,-27.4356,69.3446)"
   class="st2"
   d="m 104.9,80.5 1,0 0,2.6 -1,0 z"
   id="path3812"
   inkscape:connector-curvature="0"
   style="fill:#7b878e" />
    </g>
    <g
   id="g3814">
      <path
   class="st0"
   d="m 66.2,90.9 c 8,0.4 16.1,0.4 24.1,0 0.7,0 1.3,0.5 1.3,1.2 l -0.3,3.8 c -0.1,0.7 -0.6,1.2 -1.3,1.2 -7.9,0.3 -15.8,0.3 -23.5,0 -0.7,0 -1.2,-0.5 -1.3,-1.2 l -0.3,-3.8 c 0,-0.6 0.6,-1.2 1.3,-1.2"
   id="path3816"
   inkscape:connector-curvature="0"
   style="fill:none" />
    </g>
    <g
   id="g3818">
      <path
   class="st5"
   d="m 66.2,90.9 c 8,0.4 16.1,0.4 24.1,0 0.7,0 1.3,0.5 1.3,1.2 l -0.3,3.8 c -0.1,0.7 -0.6,1.2 -1.3,1.2 -7.9,0.3 -15.8,0.3 -23.5,0 -0.7,0 -1.2,-0.5 -1.3,-1.2 l -0.3,-3.8 c 0,-0.6 0.6,-1.2 1.3,-1.2 z"
   id="path3820"
   inkscape:connector-curvature="0"
   style="fill:#14a3b2" />
      <path
   class="st2"
   d="m 78.2,97.8 c -3.9,0 -7.8,-0.1 -11.7,-0.2 0,0 0,0 0,0 -0.9,0 -1.6,-0.7 -1.8,-1.6 l -0.3,-3.8 c 0,-0.9 0.8,-1.7 1.8,-1.7 l 0,0 c 8,0.4 16.1,0.4 24,0 0,0 0,0 0,0 1,0 1.8,0.7 1.8,1.7 L 91.7,96 c -0.1,1 -0.9,1.7 -1.8,1.7 -3.8,0.1 -7.8,0.1 -11.7,0.1 z m -12,-6.4 c -0.4,0 -0.8,0.4 -0.8,0.7 l 0.3,3.8 c 0,0.3 0.3,0.7 0.8,0.7 7.7,0.3 15.6,0.3 23.5,0 0.5,0 0.8,-0.4 0.8,-0.8 L 91.1,92 c 0,-0.4 -0.4,-0.7 -0.8,-0.7 -8,0.5 -16.1,0.5 -24.1,0.1 z"
   id="path3822"
   inkscape:connector-curvature="0"
   style="fill:#7b878e" />
    </g>
    <g
   id="g3824">
      <path
   class="st2"
   d="m 82.5,70 c 0,0.7 -0.6,1.2 -1.4,1.2 l -6.6,0 c -0.8,0 -1.4,-0.5 -1.4,-1.2 0,-0.7 0.6,-1.2 1.4,-1.2 l 6.6,0 c 0.8,-0.1 1.4,0.5 1.4,1.2"
   id="path3826"
   inkscape:connector-curvature="0"
   style="fill:#7b878e" />
    </g>
  </g>
  <g
   id="g3828"
   transform="translate(-45.025,-68.336673)">
    <g
   id="g3830">
      <path
   class="st3"
   d="m 97.9,107.7 c 0,7.6 6.2,13.8 13.8,13.8 7.6,0 13.8,-6.2 13.8,-13.8 0,-7.6 -6.2,-13.8 -13.8,-13.8 -7.6,0 -13.8,6.2 -13.8,13.8 z"
   id="path3832"
   inkscape:connector-curvature="0"
   style="fill:#ffffff" />
      <path
   class="st6"
   d="m 111.7,122 c -7.9,0 -14.3,-6.4 -14.3,-14.3 0,-7.9 6.4,-14.3 14.3,-14.3 7.9,0 14.3,6.4 14.3,14.3 0,7.9 -6.4,14.3 -14.3,14.3 z m 0,-27.6 c -7.3,0 -13.3,6 -13.3,13.3 0,7.3 6,13.3 13.3,13.3 7.3,0 13.3,-6 13.3,-13.3 0,-7.3 -6,-13.3 -13.3,-13.3 z"
   id="path3834"
   inkscape:connector-curvature="0"
   style="fill:#7c878e" />
    </g>
    <g
   id="g3836">
      <path
   class="st1"
   d="m 110.9,107.7 -6.4,0 c -0.5,0 -1,-0.4 -1,-1 l 0,-6.5 c 0,-0.5 0.5,-1 1,-1 l 6.4,0 c 0.6,0 1,0.5 1,1 l 0,6.5 c 0,0.6 -0.4,1 -1,1 z"
   id="path3838"
   inkscape:connector-curvature="0"
   style="fill:#69d2dc" />
    </g>
    <g
   id="g3840">
      <path
   class="st4"
   d="m 119.3,107.7 -6.4,0 c -0.6,0 -1,-0.4 -1,-1 l 0,-6.5 c 0,-0.5 0.4,-1 1,-1 l 6.4,0 c 0.5,0 1,0.5 1,1 l 0,6.5 c 0,0.6 -0.5,1 -1,1 z"
   id="path3842"
   inkscape:connector-curvature="0"
   style="fill:#f2bc47" />
    </g>
    <g
   id="g3844">
      <path
   class="st7"
   d="m 110.9,115.5 -6.4,0 c -0.5,0 -1,-0.4 -1,-1 l 0,-6.5 c 0,-0.6 0.5,-1 1,-1 l 6.4,0 c 0.6,0 1,0.4 1,1 l 0,6.5 c 0,0.6 -0.4,1 -1,1 z"
   id="path3846"
   inkscape:connector-curvature="0"
   style="fill:#15a3b2" />
    </g>
    <g
   id="g3848">
      <path
   class="st8"
   d="m 119.3,115.5 -6.4,0 c -0.6,0 -1,-0.4 -1,-1 l 0,-6.5 c 0,-0.6 0.4,-1 1,-1 l 6.4,0 c 0.5,0 1,0.4 1,1 l 0,6.5 c 0,0.6 -0.5,1 -1,1 z"
   id="path3850"
   inkscape:connector-curvature="0"
   style="fill:#f39200" />
    </g>
    <g
   id="g3852">
      <path
   class="st6"
   d="m 112.2,109.9 0,0 0,0 0,0 z"
   id="path3854"
   inkscape:connector-curvature="0"
   style="fill:#7c878e" />
    </g>
    <g
   id="g3856">
      <path
   class="st3"
   d="m 105.8,103.8 1.3,0 0,1.3 c 0,0.3 0.2,0.5 0.5,0.5 0.3,0 0.5,-0.2 0.5,-0.5 l 0,-1.3 1.3,0 c 0.3,0 0.5,-0.2 0.5,-0.5 0,-0.3 -0.2,-0.5 -0.5,-0.5 l -1.3,0 0,-1.3 c 0,-0.3 -0.2,-0.5 -0.5,-0.5 -0.3,0 -0.5,0.2 -0.5,0.5 l 0,1.3 -1.3,0 c -0.3,0 -0.5,0.2 -0.5,0.5 0,0.3 0.2,0.5 0.5,0.5 z"
   id="path3858"
   inkscape:connector-curvature="0"
   style="fill:#ffffff" />
    </g>
    <g
   id="g3860">
      <path
   class="st3"
   d="m 114.5,103.8 3.6,0 c 0.3,0 0.5,-0.2 0.5,-0.5 0,-0.3 -0.2,-0.5 -0.5,-0.5 l -3.6,0 c -0.3,0 -0.5,0.2 -0.5,0.5 0,0.3 0.2,0.5 0.5,0.5 z"
   id="path3862"
   inkscape:connector-curvature="0"
   style="fill:#ffffff" />
    </g>
    <g
   id="g3864">
      <path
   class="st3"
   d="m 108.3,111.8 0.9,-0.9 c 0.2,-0.2 0.2,-0.5 0,-0.7 -0.2,-0.2 -0.5,-0.2 -0.7,0 l -0.9,0.9 -0.9,-0.9 c -0.2,-0.2 -0.5,-0.2 -0.7,0 -0.2,0.2 -0.2,0.5 0,0.7 l 0.9,0.9 -0.9,0.9 c -0.2,0.2 -0.2,0.5 0,0.7 0.1,0.1 0.2,0.1 0.4,0.1 0.1,0 0.3,0 0.4,-0.1 l 0.9,-0.9 0.9,0.9 c 0.1,0.1 0.2,0.1 0.4,0.1 0.1,0 0.3,0 0.4,-0.1 0.2,-0.2 0.2,-0.5 0,-0.7 l -1.1,-0.9 z"
   id="path3866"
   inkscape:connector-curvature="0"
   style="fill:#ffffff" />
    </g>
    <g
   id="g3868">
      <path
   class="st3"
   d="m 118,110.4 -3.6,0 c -0.3,0 -0.5,0.2 -0.5,0.5 0,0.3 0.2,0.5 0.5,0.5 l 3.6,0 c 0.3,0 0.5,-0.2 0.5,-0.5 0,-0.3 -0.2,-0.5 -0.5,-0.5 z"
   id="path3870"
   inkscape:connector-curvature="0"
   style="fill:#ffffff" />
    </g>
    <g
   id="g3872">
      <path
   class="st3"
   d="m 118,112.2 -3.6,0 c -0.3,0 -0.5,0.2 -0.5,0.5 0,0.3 0.2,0.5 0.5,0.5 l 3.6,0 c 0.3,0 0.5,-0.2 0.5,-0.5 0,-0.2 -0.2,-0.5 -0.5,-0.5 z"
   id="path3874"
   inkscape:connector-curvature="0"
   style="fill:#ffffff" />
    </g>
    <g
   id="g3876">
      <path
   class="st6"
   d="m 111.4,99 1,0 0,16.5 -1,0 z"
   id="path3878"
   inkscape:connector-curvature="0"
   style="fill:#7c878e" />
    </g>
    <g
   id="g3880">
      <path
   class="st6"
   d="m 103.2,106.8 17.5,0 0,1 -17.5,0 z"
   id="path3882"
   inkscape:connector-curvature="0"
   style="fill:#7c878e" />
    </g>
    <g
   id="g3884">
      <path
   class="st6"
   d="m 118.5,116 -13.3,0 c -1.4,0 -2.5,-1.1 -2.5,-2.5 l 0,-12.5 c 0,-1.4 1.1,-2.5 2.5,-2.5 l 13.3,0 c 1.4,0 2.5,1.1 2.5,2.5 l 0,12.6 c 0,1.3 -1.1,2.4 -2.5,2.4 z M 105.2,99.5 c -0.8,0 -1.5,0.7 -1.5,1.5 l 0,12.5 c 0,0.8 0.7,1.5 1.5,1.5 l 13.3,0 c 0.8,0 1.5,-0.7 1.5,-1.4 l 0,-12.6 c 0,-0.8 -0.7,-1.5 -1.5,-1.5 l -13.3,0 z"
   id="path3886"
   inkscape:connector-curvature="0"
   style="fill:#7c878e" />
    </g>
  </g>
  <g
   id="Layer_24"
   transform="translate(-45.025,-68.336673)" />
  <g
   id="Background_Farm"
   transform="translate(-45.025,-68.336673)" />
  <g
   id="Layer_35"
   transform="translate(-45.025,-68.336673)" />
  <g
   id="City"
   transform="translate(-45.025,-68.336673)" />
  <g
   id="Layer_48"
   transform="translate(-45.025,-68.336673)" />
  <g
   id="Layer_44"
   transform="translate(-45.025,-68.336673)" />
  <g
   id="Layer_38"
   transform="translate(-45.025,-68.336673)" />
  <g
   id="Layer_39"
   transform="translate(-45.025,-68.336673)" />
  <g
   id="Layer_40"
   transform="translate(-45.025,-68.336673)" />
  <g
   id="Layer_41"
   transform="translate(-45.025,-68.336673)" />
  <g
   id="Layer_42"
   transform="translate(-45.025,-68.336673)" />
  <g
   id="Layer_43"
   transform="translate(-45.025,-68.336673)" />
  <g
   id="Layer_36"
   transform="translate(-45.025,-68.336673)" />
  <g
   id="Layer_37"
   transform="translate(-45.025,-68.336673)" />
  <g
   id="Bales_of_Hay"
   class="st9"
   style="display:none"
   transform="translate(-45.025,-68.336673)" />
  <g
   id="Layer_3"
   transform="translate(-45.025,-68.336673)" />
  <g
   id="Helicopter"
   transform="translate(-45.025,-68.336673)" />
  <g
   id="Layer_7"
   transform="translate(-45.025,-68.336673)" />
  <g
   id="Big_Truck"
   class="st9"
   style="display:none"
   transform="translate(-45.025,-68.336673)" />
  <g
   id="Layer_6"
   transform="translate(-45.025,-68.336673)" />
  <g
   id="Big_Truck_1_"
   transform="translate(-45.025,-68.336673)" />
  <g
   id="Tractor"
   transform="translate(-45.025,-68.336673)" />
  <g
   id="Layer_4"
   class="st9"
   style="display:none"
   transform="translate(-45.025,-68.336673)" />
  <g
   id="Layer_11"
   transform="translate(-45.025,-68.336673)" />
  <g
   id="Tractor_with_plough"
   transform="translate(-45.025,-68.336673)" />
  <g
   id="Layer_20"
   transform="translate(-45.025,-68.336673)" />
  <g
   id="Cement_Truck"
   transform="translate(-45.025,-68.336673)" />
  <g
   id="DumpTruck"
   transform="translate(-45.025,-68.336673)" />
  <g
   id="Car"
   transform="translate(-45.025,-68.336673)" />
  <g
   id="Delivery_Van"
   transform="translate(-45.025,-68.336673)" />
  <g
   id="Little_Truck"
   transform="translate(-45.025,-68.336673)" />
  <g
   id="Sign_Post"
   transform="translate(-45.025,-68.336673)" />
  <g
   id="Sun"
   transform="translate(-45.025,-68.336673)" />
  <g
   id="Clouds"
   transform="translate(-45.025,-68.336673)" />
  <g
   id="Wrench"
   transform="translate(-45.025,-68.336673)" />
  <g
   id="Full_Maintenance_Lease"
   transform="translate(-45.025,-68.336673)" />
  <g
   id="Operating_Lease"
   transform="translate(-45.025,-68.336673)" />
  <g
   id="Managed_Maintenance"
   transform="translate(-45.025,-68.336673)" />
  <g
   id="Layer_30"
   transform="translate(-45.025,-68.336673)" />
  <g
   id="Layer_29"
   transform="translate(-45.025,-68.336673)" />
  <g
   id="Sale_and_Lease_Back"
   transform="translate(-45.025,-68.336673)" />
  <g
   id="Layer_31"
   transform="translate(-45.025,-68.336673)" />
  <g
   id="Support"
   transform="translate(-45.025,-68.336673)" />
  <g
   id="Layer_33"
   transform="translate(-45.025,-68.336673)" />
  <g
   id="Layer_46"
   transform="translate(-45.025,-68.336673)" />
  <g
   id="Layer_47"
   transform="translate(-45.025,-68.336673)" />
  <g
   id="Layer_49"
   transform="translate(-45.025,-68.336673)" />
  <g
   id="Layer_50"
   transform="translate(-45.025,-68.336673)" />
  <g
   id="Layer_51"
   transform="translate(-45.025,-68.336673)" />
  <g
   id="People"
   transform="translate(-45.025,-68.336673)" />
  <g
   id="Layer_58"
   transform="translate(-45.025,-68.336673)">
    <g
   id="Layer_57" />
  </g>
  <g
   id="Tie"
   transform="translate(-45.025,-68.336673)" />
  <g
   id="Layer_53"
   transform="translate(-45.025,-68.336673)" />
  <g
   id="shoes"
   transform="translate(-45.025,-68.336673)" />
  <g
   id="Layer_56"
   transform="translate(-45.025,-68.336673)" />
  <g
   id="Layer_59"
   transform="translate(-45.025,-68.336673)" />
  <g
   id="affordability"
   transform="translate(-45.025,-68.336673)">
    <g
   id="g3946">
      <g
   id="g3948">
        <defs
   id="defs3950">
          <path
   id="SVGID_1_"
   d="m -640,181 c 41.3,0 74.9,-33.6 74.9,-74.7 0,-41.2 -33.7,-74.7 -74.9,-74.7 -41.3,0 -74.9,33.6 -74.9,74.7 0,41.1 33.6,74.7 74.9,74.7 z"
   inkscape:connector-curvature="0" />
        </defs>
        <clipPath
   id="SVGID_2_">
          <use
   xlink:href="#SVGID_1_"
   style="overflow:visible"
   id="use3954"
   x="0"
   y="0"
   width="100%"
   height="100%" />
        </clipPath>
      </g>
    </g>
    <g
   id="g3956">
      <g
   id="g3958">
        <defs
   id="defs3960">
          <path
   id="SVGID_3_"
   d="m -330.7,181 c 41.3,0 74.9,-33.6 74.9,-74.7 0,-41.2 -33.7,-74.7 -74.9,-74.7 -41.3,0 -74.9,33.6 -74.9,74.7 -0.1,41.1 33.6,74.7 74.9,74.7 z"
   inkscape:connector-curvature="0" />
        </defs>
        <clipPath
   id="SVGID_4_">
          <use
   xlink:href="#SVGID_3_"
   style="overflow:visible"
   id="use3964"
   x="0"
   y="0"
   width="100%"
   height="100%" />
        </clipPath>
      </g>
    </g>
  </g>
  <g
   id="cash"
   transform="translate(-45.025,-68.336673)" />
  <g
   id="Layer_64"
   transform="translate(-45.025,-68.336673)" />
  <g
   id="Layer_61"
   transform="translate(-45.025,-68.336673)" />
  <g
   id="Layer_63"
   transform="translate(-45.025,-68.336673)" />
  <g
   id="Layer_62"
   transform="translate(-45.025,-68.336673)" />
  <g
   id="Personal_Loan"
   transform="translate(-45.025,-68.336673)" />
  <g
   id="Leisure"
   transform="translate(-45.025,-68.336673)" />
  <g
   id="Calculator"
   transform="translate(-45.025,-68.336673)">
    <g
   id="g3974">
      <g
   id="g3976">
        <g
   id="g3978">
          <defs
   id="defs3980">
            <path
   id="SVGID_5_"
   d="m -609.9,138.6 c 0,12.4 10.1,22.5 22.5,22.5 12.4,0 22.5,-10.1 22.5,-22.5 0,-12.4 -10.1,-22.5 -22.5,-22.5 -12.4,0 -22.5,10.1 -22.5,22.5"
   inkscape:connector-curvature="0" />
          </defs>
          <clipPath
   id="SVGID_6_">
            <use
   xlink:href="#SVGID_5_"
   style="overflow:visible"
   id="use3984"
   x="0"
   y="0"
   width="100%"
   height="100%" />
          </clipPath>
        </g>
      </g>
      <g
   id="g3986">
        <g
   id="g3988">
          <defs
   id="defs3990">
            <path
   id="SVGID_7_"
   d="m -588.7,138.7 -10.4,0 c -0.9,0 -1.6,-0.7 -1.6,-1.6 l 0,-10.6 c 0,-0.9 0.7,-1.6 1.6,-1.6 l 10.4,0 c 0.9,0 1.6,0.7 1.6,1.6 l 0,10.6 c 0,0.8 -0.7,1.6 -1.6,1.6"
   inkscape:connector-curvature="0" />
          </defs>
          <clipPath
   id="SVGID_8_">
            <use
   xlink:href="#SVGID_7_"
   style="overflow:visible"
   id="use3994"
   x="0"
   y="0"
   width="100%"
   height="100%" />
          </clipPath>
        </g>
      </g>
      <g
   id="g3996">
        <g
   id="g3998">
          <defs
   id="defs4000">
            <path
   id="SVGID_9_"
   d="m -575.1,138.7 -10.4,0 c -0.9,0 -1.6,-0.7 -1.6,-1.6 l 0,-10.6 c 0,-0.9 0.7,-1.6 1.6,-1.6 l 10.4,0 c 0.9,0 1.6,0.7 1.6,1.6 l 0,10.6 c 0,0.8 -0.7,1.6 -1.6,1.6"
   inkscape:connector-curvature="0" />
          </defs>
          <clipPath
   id="SVGID_10_">
            <use
   xlink:href="#SVGID_9_"
   style="overflow:visible"
   id="use4004"
   x="0"
   y="0"
   width="100%"
   height="100%" />
          </clipPath>
        </g>
      </g>
      <g
   id="g4006">
        <g
   id="g4008">
          <defs
   id="defs4010">
            <path
   id="SVGID_11_"
   d="m -588.7,151.4 -10.4,0 c -0.9,0 -1.6,-0.7 -1.6,-1.6 l 0,-10.6 c 0,-0.9 0.7,-1.6 1.6,-1.6 l 10.4,0 c 0.9,0 1.6,0.7 1.6,1.6 l 0,10.6 c 0,0.9 -0.7,1.6 -1.6,1.6"
   inkscape:connector-curvature="0" />
          </defs>
          <clipPath
   id="SVGID_12_">
            <use
   xlink:href="#SVGID_11_"
   style="overflow:visible"
   id="use4014"
   x="0"
   y="0"
   width="100%"
   height="100%" />
          </clipPath>
        </g>
      </g>
      <g
   id="g4016">
        <g
   id="g4018">
          <defs
   id="defs4020">
            <path
   id="SVGID_13_"
   d="m -575.1,151.4 -10.4,0 c -0.9,0 -1.6,-0.7 -1.6,-1.6 l 0,-10.6 c 0,-0.9 0.7,-1.6 1.6,-1.6 l 10.4,0 c 0.9,0 1.6,0.7 1.6,1.6 l 0,10.6 c 0,0.9 -0.7,1.6 -1.6,1.6"
   inkscape:connector-curvature="0" />
          </defs>
          <clipPath
   id="SVGID_14_">
            <use
   xlink:href="#SVGID_13_"
   style="overflow:visible"
   id="use4024"
   x="0"
   y="0"
   width="100%"
   height="100%" />
          </clipPath>
        </g>
      </g>
      <g
   id="g4026">
        <g
   id="g4028">
          <defs
   id="defs4030">
            <path
   id="SVGID_15_"
   d="m -586.7,142.2 c 0.1,0 0.1,-0.1 0,0 l 0,0 c 0.1,0 0.1,0 0,0"
   inkscape:connector-curvature="0" />
          </defs>
          <clipPath
   id="SVGID_16_">
            <use
   xlink:href="#SVGID_15_"
   style="overflow:visible"
   id="use4034"
   x="0"
   y="0"
   width="100%"
   height="100%" />
          </clipPath>
        </g>
      </g>
      <g
   id="g4036">
        <g
   id="g4038">
          <defs
   id="defs4040">
            <path
   id="SVGID_17_"
   d="m -597.2,132.3 2.1,0 0,2.1 c 0,0.5 0.4,0.8 0.8,0.8 0.5,0 0.8,-0.4 0.8,-0.8 l 0,-2.1 2.1,0 c 0.5,0 0.8,-0.4 0.8,-0.8 0,-0.5 -0.4,-0.8 -0.8,-0.8 l -2.1,0 0,-2.1 c 0,-0.5 -0.4,-0.8 -0.8,-0.8 -0.5,0 -0.8,0.4 -0.8,0.8 l 0,2.1 -2.1,0 c -0.5,0 -0.8,0.4 -0.8,0.8 0,0.5 0.4,0.8 0.8,0.8"
   inkscape:connector-curvature="0" />
          </defs>
          <clipPath
   id="SVGID_18_">
            <use
   xlink:href="#SVGID_17_"
   style="overflow:visible"
   id="use4044"
   x="0"
   y="0"
   width="100%"
   height="100%" />
          </clipPath>
        </g>
      </g>
      <g
   id="g4046">
        <g
   id="g4048">
          <defs
   id="defs4050">
            <path
   id="SVGID_19_"
   d="m -583,132.3 5.9,0 c 0.5,0 0.8,-0.4 0.8,-0.8 0,-0.5 -0.4,-0.8 -0.8,-0.8 l -5.9,0 c -0.5,0 -0.8,0.4 -0.8,0.8 0,0.5 0.4,0.8 0.8,0.8"
   inkscape:connector-curvature="0" />
          </defs>
          <clipPath
   id="SVGID_20_">
            <use
   xlink:href="#SVGID_19_"
   style="overflow:visible"
   id="use4054"
   x="0"
   y="0"
   width="100%"
   height="100%" />
          </clipPath>
        </g>
      </g>
      <g
   id="g4056">
        <g
   id="g4058">
          <defs
   id="defs4060">
            <path
   id="SVGID_21_"
   d="m -593.1,145.3 1.5,-1.5 c 0.3,-0.3 0.3,-0.8 0,-1.2 -0.3,-0.3 -0.8,-0.3 -1.2,0 l -1.5,1.5 -1.5,-1.5 c -0.3,-0.3 -0.8,-0.3 -1.2,0 -0.3,0.3 -0.3,0.8 0,1.2 l 1.5,1.5 -1.5,1.5 c -0.3,0.3 -0.3,0.8 0,1.2 0.2,0.2 0.4,0.2 0.6,0.2 0.2,0 0.4,-0.1 0.6,-0.2 l 1.5,-1.5 1.5,1.5 c 0.2,0.2 0.4,0.2 0.6,0.2 0.2,0 0.4,-0.1 0.6,-0.2 0.3,-0.3 0.3,-0.8 0,-1.2 l -1.5,-1.5 z"
   inkscape:connector-curvature="0" />
          </defs>
          <clipPath
   id="SVGID_22_">
            <use
   xlink:href="#SVGID_21_"
   style="overflow:visible"
   id="use4064"
   x="0"
   y="0"
   width="100%"
   height="100%" />
          </clipPath>
        </g>
      </g>
      <g
   id="g4066">
        <g
   id="g4068">
          <defs
   id="defs4070">
            <path
   id="SVGID_23_"
   d="m -577.1,143 -5.9,0 c -0.5,0 -0.8,0.4 -0.8,0.8 0,0.5 0.4,0.8 0.8,0.8 l 5.9,0 c 0.5,0 0.8,-0.4 0.8,-0.8 0,-0.5 -0.4,-0.8 -0.8,-0.8"
   inkscape:connector-curvature="0" />
          </defs>
          <clipPath
   id="SVGID_24_">
            <use
   xlink:href="#SVGID_23_"
   style="overflow:visible"
   id="use4074"
   x="0"
   y="0"
   width="100%"
   height="100%" />
          </clipPath>
        </g>
      </g>
      <g
   id="g4076">
        <g
   id="g4078">
          <defs
   id="defs4080">
            <path
   id="SVGID_25_"
   d="m -577.1,146 -5.9,0 c -0.5,0 -0.8,0.4 -0.8,0.8 0,0.5 0.4,0.8 0.8,0.8 l 5.9,0 c 0.5,0 0.8,-0.4 0.8,-0.8 0,-0.4 -0.4,-0.8 -0.8,-0.8"
   inkscape:connector-curvature="0" />
          </defs>
          <clipPath
   id="SVGID_26_">
            <use
   xlink:href="#SVGID_25_"
   style="overflow:visible"
   id="use4084"
   x="0"
   y="0"
   width="100%"
   height="100%" />
          </clipPath>
        </g>
      </g>
    </g>
    <g
   id="g4086">
      <g
   id="g4088">
        <g
   id="g4090">
          <defs
   id="defs4092">
            <path
   id="SVGID_27_"
   d="m -300.7,138.6 c 0,12.4 10.1,22.5 22.5,22.5 12.4,0 22.5,-10.1 22.5,-22.5 0,-12.4 -10.1,-22.5 -22.5,-22.5 -12.4,0 -22.5,10.1 -22.5,22.5"
   inkscape:connector-curvature="0" />
          </defs>
          <clipPath
   id="SVGID_28_">
            <use
   xlink:href="#SVGID_27_"
   style="overflow:visible"
   id="use4096"
   x="0"
   y="0"
   width="100%"
   height="100%" />
          </clipPath>
        </g>
      </g>
      <g
   id="g4098">
        <g
   id="g4100">
          <defs
   id="defs4102">
            <path
   id="SVGID_29_"
   d="m -279.5,138.7 -10.4,0 c -0.9,0 -1.6,-0.7 -1.6,-1.6 l 0,-10.6 c 0,-0.9 0.7,-1.6 1.6,-1.6 l 10.4,0 c 0.9,0 1.6,0.7 1.6,1.6 l 0,10.6 c 0.1,0.8 -0.7,1.6 -1.6,1.6"
   inkscape:connector-curvature="0" />
          </defs>
          <clipPath
   id="SVGID_30_">
            <use
   xlink:href="#SVGID_29_"
   style="overflow:visible"
   id="use4106"
   x="0"
   y="0"
   width="100%"
   height="100%" />
          </clipPath>
        </g>
      </g>
      <g
   id="g4108">
        <g
   id="g4110">
          <defs
   id="defs4112">
            <path
   id="SVGID_31_"
   d="m -265.8,138.7 -10.4,0 c -0.9,0 -1.6,-0.7 -1.6,-1.6 l 0,-10.6 c 0,-0.9 0.7,-1.6 1.6,-1.6 l 10.4,0 c 0.9,0 1.6,0.7 1.6,1.6 l 0,10.6 c 0,0.8 -0.7,1.6 -1.6,1.6"
   inkscape:connector-curvature="0" />
          </defs>
          <clipPath
   id="SVGID_32_">
            <use
   xlink:href="#SVGID_31_"
   style="overflow:visible"
   id="use4116"
   x="0"
   y="0"
   width="100%"
   height="100%" />
          </clipPath>
        </g>
      </g>
      <g
   id="g4118">
        <g
   id="g4120">
          <defs
   id="defs4122">
            <path
   id="SVGID_33_"
   d="m -279.5,151.4 -10.4,0 c -0.9,0 -1.6,-0.7 -1.6,-1.6 l 0,-10.6 c 0,-0.9 0.7,-1.6 1.6,-1.6 l 10.4,0 c 0.9,0 1.6,0.7 1.6,1.6 l 0,10.6 c 0.1,0.9 -0.7,1.6 -1.6,1.6"
   inkscape:connector-curvature="0" />
          </defs>
          <clipPath
   id="SVGID_34_">
            <use
   xlink:href="#SVGID_33_"
   style="overflow:visible"
   id="use4126"
   x="0"
   y="0"
   width="100%"
   height="100%" />
          </clipPath>
        </g>
      </g>
      <g
   id="g4128">
        <g
   id="g4130">
          <defs
   id="defs4132">
            <path
   id="SVGID_35_"
   d="m -265.8,151.4 -10.4,0 c -0.9,0 -1.6,-0.7 -1.6,-1.6 l 0,-10.6 c 0,-0.9 0.7,-1.6 1.6,-1.6 l 10.4,0 c 0.9,0 1.6,0.7 1.6,1.6 l 0,10.6 c 0,0.9 -0.7,1.6 -1.6,1.6"
   inkscape:connector-curvature="0" />
          </defs>
          <clipPath
   id="SVGID_36_">
            <use
   xlink:href="#SVGID_35_"
   style="overflow:visible"
   id="use4136"
   x="0"
   y="0"
   width="100%"
   height="100%" />
          </clipPath>
        </g>
      </g>
      <g
   id="g4138">
        <g
   id="g4140">
          <defs
   id="defs4142">
            <path
   id="SVGID_37_"
   d="m -277.4,142.2 c 0,0 0.1,-0.1 0,0 l 0,0 c 0.1,0 0,0 0,0"
   inkscape:connector-curvature="0" />
          </defs>
          <clipPath
   id="SVGID_38_">
            <use
   xlink:href="#SVGID_37_"
   style="overflow:visible"
   id="use4146"
   x="0"
   y="0"
   width="100%"
   height="100%" />
          </clipPath>
        </g>
      </g>
      <g
   id="g4148">
        <g
   id="g4150">
          <defs
   id="defs4152">
            <path
   id="SVGID_39_"
   d="m -287.9,132.3 2.1,0 0,2.1 c 0,0.5 0.4,0.8 0.8,0.8 0.5,0 0.8,-0.4 0.8,-0.8 l 0,-2.1 2.1,0 c 0.5,0 0.8,-0.4 0.8,-0.8 0,-0.5 -0.4,-0.8 -0.8,-0.8 l -2.1,0 0,-2.1 c 0,-0.5 -0.4,-0.8 -0.8,-0.8 -0.5,0 -0.8,0.4 -0.8,0.8 l 0,2.1 -2.1,0 c -0.5,0 -0.8,0.4 -0.8,0.8 0,0.5 0.4,0.8 0.8,0.8"
   inkscape:connector-curvature="0" />
          </defs>
          <clipPath
   id="SVGID_40_">
            <use
   xlink:href="#SVGID_39_"
   style="overflow:visible"
   id="use4156"
   x="0"
   y="0"
   width="100%"
   height="100%" />
          </clipPath>
        </g>
      </g>
      <g
   id="g4158">
        <g
   id="g4160">
          <defs
   id="defs4162">
            <path
   id="SVGID_41_"
   d="m -273.7,132.3 5.9,0 c 0.5,0 0.8,-0.4 0.8,-0.8 0,-0.5 -0.4,-0.8 -0.8,-0.8 l -5.9,0 c -0.5,0 -0.8,0.4 -0.8,0.8 0,0.5 0.3,0.8 0.8,0.8"
   inkscape:connector-curvature="0" />
          </defs>
          <clipPath
   id="SVGID_42_">
            <use
   xlink:href="#SVGID_41_"
   style="overflow:visible"
   id="use4166"
   x="0"
   y="0"
   width="100%"
   height="100%" />
          </clipPath>
        </g>
      </g>
      <g
   id="g4168">
        <g
   id="g4170">
          <defs
   id="defs4172">
            <path
   id="SVGID_43_"
   d="m -283.8,145.3 1.5,-1.5 c 0.3,-0.3 0.3,-0.8 0,-1.2 -0.3,-0.3 -0.8,-0.3 -1.2,0 l -1.5,1.5 -1.5,-1.5 c -0.3,-0.3 -0.8,-0.3 -1.2,0 -0.3,0.3 -0.3,0.8 0,1.2 l 1.5,1.5 -1.5,1.5 c -0.3,0.3 -0.3,0.8 0,1.2 0.2,0.2 0.4,0.2 0.6,0.2 0.2,0 0.4,-0.1 0.6,-0.2 l 1.5,-1.5 1.5,1.5 c 0.2,0.2 0.4,0.2 0.6,0.2 0.2,0 0.4,-0.1 0.6,-0.2 0.3,-0.3 0.3,-0.8 0,-1.2 l -1.5,-1.5 z"
   inkscape:connector-curvature="0" />
          </defs>
          <clipPath
   id="SVGID_44_">
            <use
   xlink:href="#SVGID_43_"
   style="overflow:visible"
   id="use4176"
   x="0"
   y="0"
   width="100%"
   height="100%" />
          </clipPath>
        </g>
      </g>
      <g
   id="g4178">
        <g
   id="g4180">
          <defs
   id="defs4182">
            <path
   id="SVGID_45_"
   d="m -267.9,143 -5.9,0 c -0.5,0 -0.8,0.4 -0.8,0.8 0,0.5 0.4,0.8 0.8,0.8 l 5.9,0 c 0.5,0 0.8,-0.4 0.8,-0.8 0.1,-0.5 -0.3,-0.8 -0.8,-0.8"
   inkscape:connector-curvature="0" />
          </defs>
          <clipPath
   id="SVGID_46_">
            <use
   xlink:href="#SVGID_45_"
   style="overflow:visible"
   id="use4186"
   x="0"
   y="0"
   width="100%"
   height="100%" />
          </clipPath>
        </g>
      </g>
      <g
   id="g4188">
        <g
   id="g4190">
          <defs
   id="defs4192">
            <path
   id="SVGID_47_"
   d="m -267.9,146 -5.9,0 c -0.5,0 -0.8,0.4 -0.8,0.8 0,0.5 0.4,0.8 0.8,0.8 l 5.9,0 c 0.5,0 0.8,-0.4 0.8,-0.8 0.1,-0.4 -0.3,-0.8 -0.8,-0.8"
   inkscape:connector-curvature="0" />
          </defs>
          <clipPath
   id="SVGID_48_">
            <use
   xlink:href="#SVGID_47_"
   style="overflow:visible"
   id="use4196"
   x="0"
   y="0"
   width="100%"
   height="100%" />
          </clipPath>
        </g>
      </g>
    </g>
  </g>
</svg>