<?xml version="1.0" encoding="utf-8"?>
<!-- Generator: Adobe Illustrator 21.0.0, SVG Export Plug-In . SVG Version: 6.00 Build 0)  -->
<svg version="1.1" id="Layer_1" xmlns="http://www.w3.org/2000/svg" xmlns:xlink="http://www.w3.org/1999/xlink" x="0px" y="0px"
	 viewBox="0 0 146 128" style="enable-background:new 0 0 146 128;" xml:space="preserve">
<style type="text/css">
	.st0{fill:#F1BB46;}
	.st1{fill:#FFFFFF;}
	.st2{fill:none;}
	.st3{fill:#F39200;}
	.st4{fill:#007582;}
	.st5{fill:#3C474E;}
	.st6{fill:none;stroke:#E2E5E7;stroke-width:1.24;stroke-miterlimit:10;}
</style>
<g>
	<path class="st0" d="M73,10c-29.8,0-54,24.2-54,54s24.2,54,54,54s54-24.2,54-54C127,34.3,102.8,10,73,10z"/>
	<path class="st1" d="M73,119c-30.3,0-55-24.7-55-55S42.7,9,73,9s55,24.7,55,55C128,94.4,103.3,119,73,119z M73,11
		c-29.2,0-53,23.8-53,53s23.8,53,53,53s53-23.8,53-53S102.2,11,73,11z"/>
	<path class="st2" d="M71.3,65.2c-0.8,1.1-2.4,1.4-3.5,0.5c-1.1-0.8-1.4-2.4-0.5-3.5c0.8-1.1,2.4-1.4,3.5-0.5
		C71.9,62.5,72.1,64.1,71.3,65.2"/>
	<path class="st3" d="M100.5,94.9H42.4c-3.3,0-6-2.7-6-6v-38c0-3.3,2.7-6,6-6h58.1c3.3,0,6,2.7,6,6v37.9
		C106.5,92.2,103.8,94.9,100.5,94.9z"/>
	<path class="st1" d="M106.6,60.5V51c0-3.3-2.7-5.9-5.9-5.9h-6.5l8-8l-17-16.9l-9.5,9.5l-5.9-5.9L48.6,44.9h-6.3
		c-3.3,0-5.9,2.7-5.9,5.9v38.1c0,3.3,2.7,5.9,5.9,5.9h58.3c3.3,0,5.9-2.7,5.9-5.9v-9.5h3.6V60.5H106.6z"/>
	<path class="st4" d="M95.5,33.7l3.3,3.3l-3.3,3.3C94.1,38.3,94.1,35.8,95.5,33.7z"/>
	<path class="st4" d="M85.2,23.6l3.3,3.3c-1,0.6-2,1-3.3,1l0,0c-1.2,0-2.3-0.4-3.3-1L85.2,23.6z"/>
	<path class="st4" d="M80.3,28.6c1.4,1.1,3.1,1.7,4.9,1.7l0,0c1.8,0,3.5-0.6,4.9-1.7l3.5,3.5c-2.2,2.9-2.2,7,0,10L90.7,45H85
		c0-1.9-0.8-3.9-2.3-5.4c-1.6-1.6-6.3-3.9-9.3-0.8c-1.6,1.6-1.9,4-1.1,6.3h-8.6L80.3,28.6z"/>
	<path class="st4" d="M82.7,44.9H75c-1-1.7-1-3.5,0.1-4.6c2-1.9,4.8-0.2,5.9,0.8C82.1,42.3,82.7,43.7,82.7,44.9z"/>
	<path class="st4" d="M69.8,27.2l3.3,3.3c-1,0.6-3.6,1.7-6.5,0L69.8,27.2z"/>
	<path class="st4" d="M64.7,32.2c2.8,1.9,6.5,1.6,7.2,1.3l-7.7,7.7c-2.3-0.8-4.7-0.4-6.3,1.1C57.2,43,56.7,44,56.5,45h-4.6
		L64.7,32.2z"/>
	<path class="st4" d="M62.3,43.1l-1.8,1.8h-1.4C59.4,42.5,62.1,43.1,62.3,43.1z"/>
	<path class="st5" d="M100.8,47.4c1.9,0,3.6,1.6,3.6,3.6v1.2H38.8V51c0-1.9,1.6-3.6,3.6-3.6"/>
	<path class="st5" d="M104.3,89.1c0,1.9-1.6,3.6-3.6,3.6H42.3c-1.9,0-3.6-1.6-3.6-3.6v-1.2h65.5L104.3,89.1L104.3,89.1z"/>
	<path class="st5" d="M104.3,85.5H38.8v-31h65.5v5.9H93.5c-5.3,0-9.5,4.2-9.5,9.5c0,5.3,4.2,9.5,9.5,9.5h10.7L104.3,85.5z"/>
	<path class="st5" d="M107.8,77.1H93.5c-4,0-7.1-3.3-7.1-7.1c0-4,3.3-7.1,7.1-7.1h14.2L107.8,77.1L107.8,77.1z"/>
	<path class="st1" d="M89.9,70c0,2.7,2.2,4.7,4.7,4.7s4.7-2.2,4.7-4.7c0-2.7-2.2-4.7-4.7-4.7C92.1,65.3,89.9,67.4,89.9,70z
		 M94.8,67.6c1.3,0,2.4,1.1,2.4,2.4s-1.1,2.4-2.4,2.4s-2.4-1.1-2.4-2.4C92.3,68.7,93.4,67.6,94.8,67.6z"/>
</g>
<path class="st6" d="M11,64c0,34.1,27.9,61.9,62,61.9c34.1,0,62-27.8,62-61.9c0-34.1-27.9-61.9-62-61.9C38.9,2.1,11,29.9,11,64"/>
</svg>
